<?xml version="1.0" encoding="utf-8" standalone="no"?>
<!DOCTYPE svg PUBLIC "-//W3C//DTD SVG 1.1//EN"
  "http://www.w3.org/Graphics/SVG/1.1/DTD/svg11.dtd">
<svg xmlns:xlink="http://www.w3.org/1999/xlink" width="1338.328392pt" height="571.214766pt" viewBox="0 0 1338.328392 571.214766" xmlns="http://www.w3.org/2000/svg" version="1.1">
 <metadata>
  <rdf:RDF xmlns:dc="http://purl.org/dc/elements/1.1/" xmlns:cc="http://creativecommons.org/ns#" xmlns:rdf="http://www.w3.org/1999/02/22-rdf-syntax-ns#">
   <cc:Work>
    <dc:type rdf:resource="http://purl.org/dc/dcmitype/StillImage"/>
    <dc:date>2026-01-03T09:49:08.774886</dc:date>
    <dc:format>image/svg+xml</dc:format>
    <dc:creator>
     <cc:Agent>
      <dc:title>Matplotlib v3.8.0, https://matplotlib.org/</dc:title>
     </cc:Agent>
    </dc:creator>
   </cc:Work>
  </rdf:RDF>
 </metadata>
 <defs>
  <style type="text/css">*{stroke-linejoin: round; stroke-linecap: butt}</style>
 </defs>
 <g id="figure_1">
  <g id="patch_1">
   <path d="M 0 571.214766 
L 1338.328392 571.214766 
L 1338.328392 0 
L 0 0 
z
" style="fill: #ffffff"/>
  </g>
  <g id="axes_1">
   <g id="patch_2">
    <path d="M 55.942969 518.963438 
L 1113.970692 518.963438 
L 1113.970692 26.303437 
L 55.942969 26.303437 
z
" style="fill: #ffffff"/>
   </g>
   <g id="matplotlib.axis_1">
    <g id="xtick_1">
     <g id="text_1">
      <!-- 0 -->
      <g style="fill: #262626" transform="translate(143.167518 540.273828) scale(0.165 -0.165)">
       <defs>
        <path id="ArialMT-30" d="M 266 2259 
Q 266 3072 433 3567 
Q 600 4063 929 4331 
Q 1259 4600 1759 4600 
Q 2128 4600 2406 4451 
Q 2684 4303 2865 4023 
Q 3047 3744 3150 3342 
Q 3253 2941 3253 2259 
Q 3253 1453 3087 958 
Q 2922 463 2592 192 
Q 2263 -78 1759 -78 
Q 1097 -78 719 397 
Q 266 969 266 2259 
z
M 844 2259 
Q 844 1131 1108 757 
Q 1372 384 1759 384 
Q 2147 384 2411 759 
Q 2675 1134 2675 2259 
Q 2675 3391 2411 3762 
Q 2147 4134 1753 4134 
Q 1366 4134 1134 3806 
Q 844 3388 844 2259 
z
" transform="scale(0.015625)"/>
       </defs>
       <use xlink:href="#ArialMT-30"/>
      </g>
     </g>
    </g>
    <g id="xtick_2">
     <g id="text_2">
      <!-- 1 -->
      <g style="fill: #262626" transform="translate(186.887672 540.273828) scale(0.165 -0.165)">
       <defs>
        <path id="ArialMT-31" d="M 2384 0 
L 1822 0 
L 1822 3584 
Q 1619 3391 1289 3197 
Q 959 3003 697 2906 
L 697 3450 
Q 1169 3672 1522 3987 
Q 1875 4303 2022 4600 
L 2384 4600 
L 2384 0 
z
" transform="scale(0.015625)"/>
       </defs>
       <use xlink:href="#ArialMT-31"/>
      </g>
     </g>
    </g>
    <g id="xtick_3">
     <g id="text_3">
      <!-- 2 -->
      <g style="fill: #262626" transform="translate(230.607826 540.273828) scale(0.165 -0.165)">
       <defs>
        <path id="ArialMT-32" d="M 3222 541 
L 3222 0 
L 194 0 
Q 188 203 259 391 
Q 375 700 629 1000 
Q 884 1300 1366 1694 
Q 2113 2306 2375 2664 
Q 2638 3022 2638 3341 
Q 2638 3675 2398 3904 
Q 2159 4134 1775 4134 
Q 1369 4134 1125 3890 
Q 881 3647 878 3216 
L 300 3275 
Q 359 3922 746 4261 
Q 1134 4600 1788 4600 
Q 2447 4600 2831 4234 
Q 3216 3869 3216 3328 
Q 3216 3053 3103 2787 
Q 2991 2522 2730 2228 
Q 2469 1934 1863 1422 
Q 1356 997 1212 845 
Q 1069 694 975 541 
L 3222 541 
z
" transform="scale(0.015625)"/>
       </defs>
       <use xlink:href="#ArialMT-32"/>
      </g>
     </g>
    </g>
    <g id="xtick_4">
     <g id="text_4">
      <!-- 3 -->
      <g style="fill: #262626" transform="translate(274.32798 540.273828) scale(0.165 -0.165)">
       <defs>
        <path id="ArialMT-33" d="M 269 1209 
L 831 1284 
Q 928 806 1161 595 
Q 1394 384 1728 384 
Q 2125 384 2398 659 
Q 2672 934 2672 1341 
Q 2672 1728 2419 1979 
Q 2166 2231 1775 2231 
Q 1616 2231 1378 2169 
L 1441 2663 
Q 1497 2656 1531 2656 
Q 1891 2656 2178 2843 
Q 2466 3031 2466 3422 
Q 2466 3731 2256 3934 
Q 2047 4138 1716 4138 
Q 1388 4138 1169 3931 
Q 950 3725 888 3313 
L 325 3413 
Q 428 3978 793 4289 
Q 1159 4600 1703 4600 
Q 2078 4600 2393 4439 
Q 2709 4278 2876 4000 
Q 3044 3722 3044 3409 
Q 3044 3113 2884 2869 
Q 2725 2625 2413 2481 
Q 2819 2388 3044 2092 
Q 3269 1797 3269 1353 
Q 3269 753 2831 336 
Q 2394 -81 1725 -81 
Q 1122 -81 723 278 
Q 325 638 269 1209 
z
" transform="scale(0.015625)"/>
       </defs>
       <use xlink:href="#ArialMT-33"/>
      </g>
     </g>
    </g>
    <g id="xtick_5">
     <g id="text_5">
      <!-- 4 -->
      <g style="fill: #262626" transform="translate(318.048134 540.273828) scale(0.165 -0.165)">
       <defs>
        <path id="ArialMT-34" d="M 2069 0 
L 2069 1097 
L 81 1097 
L 81 1613 
L 2172 4581 
L 2631 4581 
L 2631 1613 
L 3250 1613 
L 3250 1097 
L 2631 1097 
L 2631 0 
L 2069 0 
z
M 2069 1613 
L 2069 3678 
L 634 1613 
L 2069 1613 
z
" transform="scale(0.015625)"/>
       </defs>
       <use xlink:href="#ArialMT-34"/>
      </g>
     </g>
    </g>
    <g id="xtick_6">
     <g id="text_6">
      <!-- 5 -->
      <g style="fill: #262626" transform="translate(361.768288 540.273828) scale(0.165 -0.165)">
       <defs>
        <path id="ArialMT-35" d="M 266 1200 
L 856 1250 
Q 922 819 1161 601 
Q 1400 384 1738 384 
Q 2144 384 2425 690 
Q 2706 997 2706 1503 
Q 2706 1984 2436 2262 
Q 2166 2541 1728 2541 
Q 1456 2541 1237 2417 
Q 1019 2294 894 2097 
L 366 2166 
L 809 4519 
L 3088 4519 
L 3088 3981 
L 1259 3981 
L 1013 2750 
Q 1425 3038 1878 3038 
Q 2478 3038 2890 2622 
Q 3303 2206 3303 1553 
Q 3303 931 2941 478 
Q 2500 -78 1738 -78 
Q 1113 -78 717 272 
Q 322 622 266 1200 
z
" transform="scale(0.015625)"/>
       </defs>
       <use xlink:href="#ArialMT-35"/>
      </g>
     </g>
    </g>
    <g id="xtick_7">
     <g id="text_7">
      <!-- 6 -->
      <g style="fill: #262626" transform="translate(405.488442 540.273828) scale(0.165 -0.165)">
       <defs>
        <path id="ArialMT-36" d="M 3184 3459 
L 2625 3416 
Q 2550 3747 2413 3897 
Q 2184 4138 1850 4138 
Q 1581 4138 1378 3988 
Q 1113 3794 959 3422 
Q 806 3050 800 2363 
Q 1003 2672 1297 2822 
Q 1591 2972 1913 2972 
Q 2475 2972 2870 2558 
Q 3266 2144 3266 1488 
Q 3266 1056 3080 686 
Q 2894 316 2569 119 
Q 2244 -78 1831 -78 
Q 1128 -78 684 439 
Q 241 956 241 2144 
Q 241 3472 731 4075 
Q 1159 4600 1884 4600 
Q 2425 4600 2770 4297 
Q 3116 3994 3184 3459 
z
M 888 1484 
Q 888 1194 1011 928 
Q 1134 663 1356 523 
Q 1578 384 1822 384 
Q 2178 384 2434 671 
Q 2691 959 2691 1453 
Q 2691 1928 2437 2201 
Q 2184 2475 1800 2475 
Q 1419 2475 1153 2201 
Q 888 1928 888 1484 
z
" transform="scale(0.015625)"/>
       </defs>
       <use xlink:href="#ArialMT-36"/>
      </g>
     </g>
    </g>
    <g id="xtick_8">
     <g id="text_8">
      <!-- 7 -->
      <g style="fill: #262626" transform="translate(449.208595 540.273828) scale(0.165 -0.165)">
       <defs>
        <path id="ArialMT-37" d="M 303 3981 
L 303 4522 
L 3269 4522 
L 3269 4084 
Q 2831 3619 2401 2847 
Q 1972 2075 1738 1259 
Q 1569 684 1522 0 
L 944 0 
Q 953 541 1156 1306 
Q 1359 2072 1739 2783 
Q 2119 3494 2547 3981 
L 303 3981 
z
" transform="scale(0.015625)"/>
       </defs>
       <use xlink:href="#ArialMT-37"/>
      </g>
     </g>
    </g>
    <g id="xtick_9">
     <g id="text_9">
      <!-- 8 -->
      <g style="fill: #262626" transform="translate(492.928749 540.273828) scale(0.165 -0.165)">
       <defs>
        <path id="ArialMT-38" d="M 1131 2484 
Q 781 2613 612 2850 
Q 444 3088 444 3419 
Q 444 3919 803 4259 
Q 1163 4600 1759 4600 
Q 2359 4600 2725 4251 
Q 3091 3903 3091 3403 
Q 3091 3084 2923 2848 
Q 2756 2613 2416 2484 
Q 2838 2347 3058 2040 
Q 3278 1734 3278 1309 
Q 3278 722 2862 322 
Q 2447 -78 1769 -78 
Q 1091 -78 675 323 
Q 259 725 259 1325 
Q 259 1772 486 2073 
Q 713 2375 1131 2484 
z
M 1019 3438 
Q 1019 3113 1228 2906 
Q 1438 2700 1772 2700 
Q 2097 2700 2305 2904 
Q 2513 3109 2513 3406 
Q 2513 3716 2298 3927 
Q 2084 4138 1766 4138 
Q 1444 4138 1231 3931 
Q 1019 3725 1019 3438 
z
M 838 1322 
Q 838 1081 952 856 
Q 1066 631 1291 507 
Q 1516 384 1775 384 
Q 2178 384 2440 643 
Q 2703 903 2703 1303 
Q 2703 1709 2433 1975 
Q 2163 2241 1756 2241 
Q 1359 2241 1098 1978 
Q 838 1716 838 1322 
z
" transform="scale(0.015625)"/>
       </defs>
       <use xlink:href="#ArialMT-38"/>
      </g>
     </g>
    </g>
    <g id="xtick_10">
     <g id="text_10">
      <!-- 9 -->
      <g style="fill: #262626" transform="translate(536.648903 540.273828) scale(0.165 -0.165)">
       <defs>
        <path id="ArialMT-39" d="M 350 1059 
L 891 1109 
Q 959 728 1153 556 
Q 1347 384 1650 384 
Q 1909 384 2104 503 
Q 2300 622 2425 820 
Q 2550 1019 2634 1356 
Q 2719 1694 2719 2044 
Q 2719 2081 2716 2156 
Q 2547 1888 2255 1720 
Q 1963 1553 1622 1553 
Q 1053 1553 659 1965 
Q 266 2378 266 3053 
Q 266 3750 677 4175 
Q 1088 4600 1706 4600 
Q 2153 4600 2523 4359 
Q 2894 4119 3086 3673 
Q 3278 3228 3278 2384 
Q 3278 1506 3087 986 
Q 2897 466 2520 194 
Q 2144 -78 1638 -78 
Q 1100 -78 759 220 
Q 419 519 350 1059 
z
M 2653 3081 
Q 2653 3566 2395 3850 
Q 2138 4134 1775 4134 
Q 1400 4134 1122 3828 
Q 844 3522 844 3034 
Q 844 2597 1108 2323 
Q 1372 2050 1759 2050 
Q 2150 2050 2401 2323 
Q 2653 2597 2653 3081 
z
" transform="scale(0.015625)"/>
       </defs>
       <use xlink:href="#ArialMT-39"/>
      </g>
     </g>
    </g>
    <g id="xtick_11">
     <g id="text_11">
      <!-- 10 -->
      <g style="fill: #262626" transform="translate(575.781284 540.273828) scale(0.165 -0.165)">
       <use xlink:href="#ArialMT-31"/>
       <use xlink:href="#ArialMT-30" x="55.615234"/>
      </g>
     </g>
    </g>
    <g id="xtick_12">
     <g id="text_12">
      <!-- 11 -->
      <g style="fill: #262626" transform="translate(620.109875 540.273828) scale(0.165 -0.165)">
       <use xlink:href="#ArialMT-31"/>
       <use xlink:href="#ArialMT-31" x="48.240234"/>
      </g>
     </g>
    </g>
    <g id="xtick_13">
     <g id="text_13">
      <!-- 12 -->
      <g style="fill: #262626" transform="translate(663.221591 540.273828) scale(0.165 -0.165)">
       <use xlink:href="#ArialMT-31"/>
       <use xlink:href="#ArialMT-32" x="55.615234"/>
      </g>
     </g>
    </g>
    <g id="xtick_14">
     <g id="text_14">
      <!-- 13 -->
      <g style="fill: #262626" transform="translate(706.941745 540.273828) scale(0.165 -0.165)">
       <use xlink:href="#ArialMT-31"/>
       <use xlink:href="#ArialMT-33" x="55.615234"/>
      </g>
     </g>
    </g>
    <g id="xtick_15">
     <g id="text_15">
      <!-- 14 -->
      <g style="fill: #262626" transform="translate(750.661899 540.273828) scale(0.165 -0.165)">
       <use xlink:href="#ArialMT-31"/>
       <use xlink:href="#ArialMT-34" x="55.615234"/>
      </g>
     </g>
    </g>
    <g id="xtick_16">
     <g id="text_16">
      <!-- 15 -->
      <g style="fill: #262626" transform="translate(794.382053 540.273828) scale(0.165 -0.165)">
       <use xlink:href="#ArialMT-31"/>
       <use xlink:href="#ArialMT-35" x="55.615234"/>
      </g>
     </g>
    </g>
    <g id="xtick_17">
     <g id="text_17">
      <!-- 16 -->
      <g style="fill: #262626" transform="translate(838.102207 540.273828) scale(0.165 -0.165)">
       <use xlink:href="#ArialMT-31"/>
       <use xlink:href="#ArialMT-36" x="55.615234"/>
      </g>
     </g>
    </g>
    <g id="xtick_18">
     <g id="text_18">
      <!-- 17 -->
      <g style="fill: #262626" transform="translate(881.822361 540.273828) scale(0.165 -0.165)">
       <use xlink:href="#ArialMT-31"/>
       <use xlink:href="#ArialMT-37" x="55.615234"/>
      </g>
     </g>
    </g>
    <g id="xtick_19">
     <g id="text_19">
      <!-- 18 -->
      <g style="fill: #262626" transform="translate(925.542514 540.273828) scale(0.165 -0.165)">
       <use xlink:href="#ArialMT-31"/>
       <use xlink:href="#ArialMT-38" x="55.615234"/>
      </g>
     </g>
    </g>
    <g id="xtick_20">
     <g id="text_20">
      <!-- 19 -->
      <g style="fill: #262626" transform="translate(969.262668 540.273828) scale(0.165 -0.165)">
       <use xlink:href="#ArialMT-31"/>
       <use xlink:href="#ArialMT-39" x="55.615234"/>
      </g>
     </g>
    </g>
    <g id="xtick_21">
     <g id="text_21">
      <!-- 20 -->
      <g style="fill: #262626" transform="translate(1012.982822 540.273828) scale(0.165 -0.165)">
       <use xlink:href="#ArialMT-32"/>
       <use xlink:href="#ArialMT-30" x="55.615234"/>
      </g>
     </g>
    </g>
    <g id="text_22">
     <!-- Trial Number -->
     <g style="fill: #262626" transform="translate(533.288393 560.437266) scale(0.18 -0.18)">
      <defs>
       <path id="ArialMT-54" d="M 1659 0 
L 1659 4041 
L 150 4041 
L 150 4581 
L 3781 4581 
L 3781 4041 
L 2266 4041 
L 2266 0 
L 1659 0 
z
" transform="scale(0.015625)"/>
       <path id="ArialMT-72" d="M 416 0 
L 416 3319 
L 922 3319 
L 922 2816 
Q 1116 3169 1280 3281 
Q 1444 3394 1641 3394 
Q 1925 3394 2219 3213 
L 2025 2691 
Q 1819 2813 1613 2813 
Q 1428 2813 1281 2702 
Q 1134 2591 1072 2394 
Q 978 2094 978 1738 
L 978 0 
L 416 0 
z
" transform="scale(0.015625)"/>
       <path id="ArialMT-69" d="M 425 3934 
L 425 4581 
L 988 4581 
L 988 3934 
L 425 3934 
z
M 425 0 
L 425 3319 
L 988 3319 
L 988 0 
L 425 0 
z
" transform="scale(0.015625)"/>
       <path id="ArialMT-61" d="M 2588 409 
Q 2275 144 1986 34 
Q 1697 -75 1366 -75 
Q 819 -75 525 192 
Q 231 459 231 875 
Q 231 1119 342 1320 
Q 453 1522 633 1644 
Q 813 1766 1038 1828 
Q 1203 1872 1538 1913 
Q 2219 1994 2541 2106 
Q 2544 2222 2544 2253 
Q 2544 2597 2384 2738 
Q 2169 2928 1744 2928 
Q 1347 2928 1158 2789 
Q 969 2650 878 2297 
L 328 2372 
Q 403 2725 575 2942 
Q 747 3159 1072 3276 
Q 1397 3394 1825 3394 
Q 2250 3394 2515 3294 
Q 2781 3194 2906 3042 
Q 3031 2891 3081 2659 
Q 3109 2516 3109 2141 
L 3109 1391 
Q 3109 606 3145 398 
Q 3181 191 3288 0 
L 2700 0 
Q 2613 175 2588 409 
z
M 2541 1666 
Q 2234 1541 1622 1453 
Q 1275 1403 1131 1340 
Q 988 1278 909 1158 
Q 831 1038 831 891 
Q 831 666 1001 516 
Q 1172 366 1500 366 
Q 1825 366 2078 508 
Q 2331 650 2450 897 
Q 2541 1088 2541 1459 
L 2541 1666 
z
" transform="scale(0.015625)"/>
       <path id="ArialMT-6c" d="M 409 0 
L 409 4581 
L 972 4581 
L 972 0 
L 409 0 
z
" transform="scale(0.015625)"/>
       <path id="ArialMT-20" transform="scale(0.015625)"/>
       <path id="ArialMT-4e" d="M 488 0 
L 488 4581 
L 1109 4581 
L 3516 984 
L 3516 4581 
L 4097 4581 
L 4097 0 
L 3475 0 
L 1069 3600 
L 1069 0 
L 488 0 
z
" transform="scale(0.015625)"/>
       <path id="ArialMT-75" d="M 2597 0 
L 2597 488 
Q 2209 -75 1544 -75 
Q 1250 -75 995 37 
Q 741 150 617 320 
Q 494 491 444 738 
Q 409 903 409 1263 
L 409 3319 
L 972 3319 
L 972 1478 
Q 972 1038 1006 884 
Q 1059 663 1231 536 
Q 1403 409 1656 409 
Q 1909 409 2131 539 
Q 2353 669 2445 892 
Q 2538 1116 2538 1541 
L 2538 3319 
L 3100 3319 
L 3100 0 
L 2597 0 
z
" transform="scale(0.015625)"/>
       <path id="ArialMT-6d" d="M 422 0 
L 422 3319 
L 925 3319 
L 925 2853 
Q 1081 3097 1340 3245 
Q 1600 3394 1931 3394 
Q 2300 3394 2536 3241 
Q 2772 3088 2869 2813 
Q 3263 3394 3894 3394 
Q 4388 3394 4653 3120 
Q 4919 2847 4919 2278 
L 4919 0 
L 4359 0 
L 4359 2091 
Q 4359 2428 4304 2576 
Q 4250 2725 4106 2815 
Q 3963 2906 3769 2906 
Q 3419 2906 3187 2673 
Q 2956 2441 2956 1928 
L 2956 0 
L 2394 0 
L 2394 2156 
Q 2394 2531 2256 2718 
Q 2119 2906 1806 2906 
Q 1569 2906 1367 2781 
Q 1166 2656 1075 2415 
Q 984 2175 984 1722 
L 984 0 
L 422 0 
z
" transform="scale(0.015625)"/>
       <path id="ArialMT-62" d="M 941 0 
L 419 0 
L 419 4581 
L 981 4581 
L 981 2947 
Q 1338 3394 1891 3394 
Q 2197 3394 2470 3270 
Q 2744 3147 2920 2923 
Q 3097 2700 3197 2384 
Q 3297 2069 3297 1709 
Q 3297 856 2875 390 
Q 2453 -75 1863 -75 
Q 1275 -75 941 416 
L 941 0 
z
M 934 1684 
Q 934 1088 1097 822 
Q 1363 388 1816 388 
Q 2184 388 2453 708 
Q 2722 1028 2722 1663 
Q 2722 2313 2464 2622 
Q 2206 2931 1841 2931 
Q 1472 2931 1203 2611 
Q 934 2291 934 1684 
z
" transform="scale(0.015625)"/>
       <path id="ArialMT-65" d="M 2694 1069 
L 3275 997 
Q 3138 488 2766 206 
Q 2394 -75 1816 -75 
Q 1088 -75 661 373 
Q 234 822 234 1631 
Q 234 2469 665 2931 
Q 1097 3394 1784 3394 
Q 2450 3394 2872 2941 
Q 3294 2488 3294 1666 
Q 3294 1616 3291 1516 
L 816 1516 
Q 847 969 1125 678 
Q 1403 388 1819 388 
Q 2128 388 2347 550 
Q 2566 713 2694 1069 
z
M 847 1978 
L 2700 1978 
Q 2663 2397 2488 2606 
Q 2219 2931 1791 2931 
Q 1403 2931 1139 2672 
Q 875 2413 847 1978 
z
" transform="scale(0.015625)"/>
      </defs>
      <use xlink:href="#ArialMT-54"/>
      <use xlink:href="#ArialMT-72" x="57.333984"/>
      <use xlink:href="#ArialMT-69" x="90.634766"/>
      <use xlink:href="#ArialMT-61" x="112.851562"/>
      <use xlink:href="#ArialMT-6c" x="168.466797"/>
      <use xlink:href="#ArialMT-20" x="190.683594"/>
      <use xlink:href="#ArialMT-4e" x="218.466797"/>
      <use xlink:href="#ArialMT-75" x="290.683594"/>
      <use xlink:href="#ArialMT-6d" x="346.298828"/>
      <use xlink:href="#ArialMT-62" x="429.599609"/>
      <use xlink:href="#ArialMT-65" x="485.214844"/>
      <use xlink:href="#ArialMT-72" x="540.830078"/>
     </g>
    </g>
   </g>
   <g id="matplotlib.axis_2">
    <g id="ytick_1">
     <g id="text_23">
      <!-- 25 -->
      <g style="fill: #262626" transform="translate(28.091875 473.638794) scale(0.165 -0.165)">
       <use xlink:href="#ArialMT-32"/>
       <use xlink:href="#ArialMT-35" x="55.615234"/>
      </g>
     </g>
    </g>
    <g id="ytick_2">
     <g id="text_24">
      <!-- 30 -->
      <g style="fill: #262626" transform="translate(28.091875 400.628694) scale(0.165 -0.165)">
       <use xlink:href="#ArialMT-33"/>
       <use xlink:href="#ArialMT-30" x="55.615234"/>
      </g>
     </g>
    </g>
    <g id="ytick_3">
     <g id="text_25">
      <!-- 35 -->
      <g style="fill: #262626" transform="translate(28.091875 327.618594) scale(0.165 -0.165)">
       <use xlink:href="#ArialMT-33"/>
       <use xlink:href="#ArialMT-35" x="55.615234"/>
      </g>
     </g>
    </g>
    <g id="ytick_4">
     <g id="text_26">
      <!-- 40 -->
      <g style="fill: #262626" transform="translate(28.091875 254.608495) scale(0.165 -0.165)">
       <use xlink:href="#ArialMT-34"/>
       <use xlink:href="#ArialMT-30" x="55.615234"/>
      </g>
     </g>
    </g>
    <g id="ytick_5">
     <g id="text_27">
      <!-- 45 -->
      <g style="fill: #262626" transform="translate(28.091875 181.598395) scale(0.165 -0.165)">
       <use xlink:href="#ArialMT-34"/>
       <use xlink:href="#ArialMT-35" x="55.615234"/>
      </g>
     </g>
    </g>
    <g id="ytick_6">
     <g id="text_28">
      <!-- 50 -->
      <g style="fill: #262626" transform="translate(28.091875 108.588296) scale(0.165 -0.165)">
       <use xlink:href="#ArialMT-35"/>
       <use xlink:href="#ArialMT-30" x="55.615234"/>
      </g>
     </g>
    </g>
    <g id="ytick_7">
     <g id="text_29">
      <!-- 55 -->
      <g style="fill: #262626" transform="translate(28.091875 35.578196) scale(0.165 -0.165)">
       <use xlink:href="#ArialMT-35"/>
       <use xlink:href="#ArialMT-35" x="55.615234"/>
      </g>
     </g>
    </g>
    <g id="text_30">
     <!-- Time (s) -->
     <g style="fill: #262626" transform="translate(20.303438 305.287969) rotate(-90) scale(0.18 -0.18)">
      <defs>
       <path id="ArialMT-28" d="M 1497 -1347 
Q 1031 -759 709 28 
Q 388 816 388 1659 
Q 388 2403 628 3084 
Q 909 3875 1497 4659 
L 1900 4659 
Q 1522 4009 1400 3731 
Q 1209 3300 1100 2831 
Q 966 2247 966 1656 
Q 966 153 1900 -1347 
L 1497 -1347 
z
" transform="scale(0.015625)"/>
       <path id="ArialMT-73" d="M 197 991 
L 753 1078 
Q 800 744 1014 566 
Q 1228 388 1613 388 
Q 2000 388 2187 545 
Q 2375 703 2375 916 
Q 2375 1106 2209 1216 
Q 2094 1291 1634 1406 
Q 1016 1563 777 1677 
Q 538 1791 414 1992 
Q 291 2194 291 2438 
Q 291 2659 392 2848 
Q 494 3038 669 3163 
Q 800 3259 1026 3326 
Q 1253 3394 1513 3394 
Q 1903 3394 2198 3281 
Q 2494 3169 2634 2976 
Q 2775 2784 2828 2463 
L 2278 2388 
Q 2241 2644 2061 2787 
Q 1881 2931 1553 2931 
Q 1166 2931 1000 2803 
Q 834 2675 834 2503 
Q 834 2394 903 2306 
Q 972 2216 1119 2156 
Q 1203 2125 1616 2013 
Q 2213 1853 2448 1751 
Q 2684 1650 2818 1456 
Q 2953 1263 2953 975 
Q 2953 694 2789 445 
Q 2625 197 2315 61 
Q 2006 -75 1616 -75 
Q 969 -75 630 194 
Q 291 463 197 991 
z
" transform="scale(0.015625)"/>
       <path id="ArialMT-29" d="M 791 -1347 
L 388 -1347 
Q 1322 153 1322 1656 
Q 1322 2244 1188 2822 
Q 1081 3291 891 3722 
Q 769 4003 388 4659 
L 791 4659 
Q 1378 3875 1659 3084 
Q 1900 2403 1900 1659 
Q 1900 816 1576 28 
Q 1253 -759 791 -1347 
z
" transform="scale(0.015625)"/>
      </defs>
      <use xlink:href="#ArialMT-54"/>
      <use xlink:href="#ArialMT-69" x="57.333984"/>
      <use xlink:href="#ArialMT-6d" x="79.550781"/>
      <use xlink:href="#ArialMT-65" x="162.851562"/>
      <use xlink:href="#ArialMT-20" x="218.466797"/>
      <use xlink:href="#ArialMT-28" x="246.25"/>
      <use xlink:href="#ArialMT-73" x="279.550781"/>
      <use xlink:href="#ArialMT-29" x="329.550781"/>
     </g>
    </g>
   </g>
   <g id="PathCollection_1">
    <defs>
     <path id="m2f7b3368ca" d="M 0 3.535534 
C 0.937635 3.535534 1.836992 3.163008 2.5 2.5 
C 3.163008 1.836992 3.535534 0.937635 3.535534 0 
C 3.535534 -0.937635 3.163008 -1.836992 2.5 -2.5 
C 1.836992 -3.163008 0.937635 -3.535534 0 -3.535534 
C -0.937635 -3.535534 -1.836992 -3.163008 -2.5 -2.5 
C -3.163008 -1.836992 -3.535534 -0.937635 -3.535534 0 
C -3.535534 0.937635 -3.163008 1.836992 -2.5 2.5 
C -1.836992 3.163008 -0.937635 3.535534 0 3.535534 
z
" style="stroke: #ea5b0c"/>
    </defs>
    <g clip-path="url(#pd7b6d3fa73)">
     <use xlink:href="#m2f7b3368ca" x="147.755292" y="288.326924" style="fill: #ea5b0c; stroke: #ea5b0c"/>
     <use xlink:href="#m2f7b3368ca" x="191.475446" y="296.522133" style="fill: #ea5b0c; stroke: #ea5b0c"/>
     <use xlink:href="#m2f7b3368ca" x="235.1956" y="244.863664" style="fill: #ea5b0c; stroke: #ea5b0c"/>
     <use xlink:href="#m2f7b3368ca" x="278.915753" y="284.681286" style="fill: #ea5b0c; stroke: #ea5b0c"/>
     <use xlink:href="#m2f7b3368ca" x="322.635907" y="250.352633" style="fill: #ea5b0c; stroke: #ea5b0c"/>
     <use xlink:href="#m2f7b3368ca" x="366.356061" y="345.719815" style="fill: #ea5b0c; stroke: #ea5b0c"/>
     <use xlink:href="#m2f7b3368ca" x="410.076215" y="361.191003" style="fill: #ea5b0c; stroke: #ea5b0c"/>
     <use xlink:href="#m2f7b3368ca" x="453.796369" y="296.314924" style="fill: #ea5b0c; stroke: #ea5b0c"/>
     <use xlink:href="#m2f7b3368ca" x="497.516523" y="344.696979" style="fill: #ea5b0c; stroke: #ea5b0c"/>
     <use xlink:href="#m2f7b3368ca" x="541.236677" y="298.679756" style="fill: #ea5b0c; stroke: #ea5b0c"/>
     <use xlink:href="#m2f7b3368ca" x="584.95683" y="290.723741" style="fill: #ea5b0c; stroke: #ea5b0c"/>
     <use xlink:href="#m2f7b3368ca" x="628.676984" y="273.94602" style="fill: #ea5b0c; stroke: #ea5b0c"/>
     <use xlink:href="#m2f7b3368ca" x="672.397138" y="313.860294" style="fill: #ea5b0c; stroke: #ea5b0c"/>
     <use xlink:href="#m2f7b3368ca" x="716.117292" y="303.429584" style="fill: #ea5b0c; stroke: #ea5b0c"/>
     <use xlink:href="#m2f7b3368ca" x="759.837446" y="288.758726" style="fill: #ea5b0c; stroke: #ea5b0c"/>
     <use xlink:href="#m2f7b3368ca" x="803.5576" y="167.662784" style="fill: #ea5b0c; stroke: #ea5b0c"/>
     <use xlink:href="#m2f7b3368ca" x="847.277754" y="280.158136" style="fill: #ea5b0c; stroke: #ea5b0c"/>
     <use xlink:href="#m2f7b3368ca" x="890.997907" y="245.337186" style="fill: #ea5b0c; stroke: #ea5b0c"/>
     <use xlink:href="#m2f7b3368ca" x="934.718061" y="314.803167" style="fill: #ea5b0c; stroke: #ea5b0c"/>
     <use xlink:href="#m2f7b3368ca" x="978.438215" y="289.966522" style="fill: #ea5b0c; stroke: #ea5b0c"/>
     <use xlink:href="#m2f7b3368ca" x="1022.158369" y="338.216463" style="fill: #ea5b0c; stroke: #ea5b0c"/>
    </g>
   </g>
   <g id="PolyCollection_1">
    <defs>
     <path id="m481856fb4d" d="M 147.755292 -311.889995 
L 147.755292 -238.855271 
L 156.587646 -239.695095 
L 165.42 -240.564487 
L 174.252355 -241.437549 
L 183.084709 -242.315695 
L 191.917063 -243.193841 
L 200.749418 -244.06119 
L 209.581772 -244.881733 
L 218.414126 -245.301074 
L 227.246481 -245.786456 
L 236.078835 -246.203261 
L 244.911189 -247.097116 
L 253.743544 -247.765198 
L 262.575898 -248.269974 
L 271.408252 -248.777798 
L 280.240607 -249.415124 
L 289.072961 -249.97324 
L 297.905315 -250.664251 
L 306.73767 -251.032023 
L 315.570024 -251.298656 
L 324.402378 -252.155173 
L 333.234732 -252.547995 
L 342.067087 -252.818063 
L 350.899441 -253.275908 
L 359.731795 -253.931448 
L 368.56415 -254.765041 
L 377.396504 -255.611666 
L 386.228858 -256.198505 
L 395.061213 -256.330254 
L 403.893567 -256.469301 
L 412.725921 -256.773244 
L 421.558276 -257.046391 
L 430.39063 -257.472008 
L 439.222984 -257.659068 
L 448.055339 -257.885709 
L 456.887693 -258.041118 
L 465.720047 -258.22937 
L 474.552402 -258.28078 
L 483.384756 -258.305798 
L 492.21711 -258.729916 
L 501.049464 -259.038213 
L 509.881819 -259.537519 
L 518.714173 -259.439489 
L 527.546527 -259.617453 
L 536.378882 -260.033387 
L 545.211236 -260.609795 
L 554.04359 -261.163929 
L 562.875945 -261.240875 
L 571.708299 -261.444329 
L 580.540653 -261.449469 
L 589.373008 -261.381987 
L 598.205362 -261.582917 
L 607.037716 -261.567999 
L 615.870071 -261.756633 
L 624.702425 -261.709084 
L 633.534779 -261.586292 
L 642.367134 -261.489356 
L 651.199488 -261.323929 
L 660.031842 -261.345186 
L 668.864196 -261.298251 
L 677.696551 -261.136874 
L 686.528905 -261.009307 
L 695.361259 -261.014742 
L 704.193614 -260.875593 
L 713.025968 -260.451349 
L 721.858322 -260.10726 
L 730.690677 -259.683261 
L 739.523031 -259.253765 
L 748.355385 -258.876886 
L 757.18774 -258.632588 
L 766.020094 -258.057423 
L 774.852448 -257.595729 
L 783.684803 -257.555934 
L 792.517157 -257.519092 
L 801.349511 -257.141001 
L 810.181866 -257.011078 
L 819.01422 -256.88146 
L 827.846574 -256.368677 
L 836.678928 -255.646397 
L 845.511283 -255.340497 
L 854.343637 -255.130583 
L 863.175991 -254.70692 
L 872.008346 -254.426273 
L 880.8407 -254.011886 
L 889.673054 -253.50018 
L 898.505409 -253.403483 
L 907.337763 -253.309842 
L 916.170117 -252.889642 
L 925.002472 -252.555202 
L 933.834826 -252.306923 
L 942.66718 -251.911387 
L 951.499535 -251.524486 
L 960.331889 -251.137585 
L 969.164243 -250.750684 
L 977.996598 -250.363782 
L 986.828952 -249.950063 
L 995.661306 -249.430233 
L 1004.49366 -249.098071 
L 1013.326015 -248.776439 
L 1022.158369 -248.417554 
L 1022.158369 -325.030084 
L 1022.158369 -325.030084 
L 1013.326015 -324.233738 
L 1004.49366 -323.602257 
L 995.661306 -322.726668 
L 986.828952 -322.01357 
L 977.996598 -321.437697 
L 969.164243 -320.8376 
L 960.331889 -320.249552 
L 951.499535 -319.634585 
L 942.66718 -319.03501 
L 933.834826 -318.424503 
L 925.002472 -317.594612 
L 916.170117 -317.087836 
L 907.337763 -316.509158 
L 898.505409 -315.966431 
L 889.673054 -315.421686 
L 880.8407 -314.821667 
L 872.008346 -314.036576 
L 863.175991 -313.485277 
L 854.343637 -312.933977 
L 845.511283 -312.451848 
L 836.678928 -311.994317 
L 827.846574 -311.290686 
L 819.01422 -310.742684 
L 810.181866 -310.263971 
L 801.349511 -309.554329 
L 792.517157 -309.082154 
L 783.684803 -308.639757 
L 774.852448 -308.252128 
L 766.020094 -307.727667 
L 757.18774 -307.276698 
L 748.355385 -306.816235 
L 739.523031 -306.297826 
L 730.690677 -305.512195 
L 721.858322 -304.802218 
L 713.025968 -304.138804 
L 704.193614 -303.614231 
L 695.361259 -303.496623 
L 686.528905 -302.680099 
L 677.696551 -301.944227 
L 668.864196 -301.897345 
L 660.031842 -301.362326 
L 651.199488 -300.969946 
L 642.367134 -300.785049 
L 633.534779 -300.496427 
L 624.702425 -300.28768 
L 615.870071 -300.027948 
L 607.037716 -299.845845 
L 598.205362 -299.779774 
L 589.373008 -299.713386 
L 580.540653 -299.57408 
L 571.708299 -299.562097 
L 562.875945 -299.293104 
L 554.04359 -299.20668 
L 545.211236 -299.212747 
L 536.378882 -299.311072 
L 527.546527 -299.35088 
L 518.714173 -299.080271 
L 509.881819 -299.134046 
L 501.049464 -299.193716 
L 492.21711 -299.257618 
L 483.384756 -299.309689 
L 474.552402 -299.378091 
L 465.720047 -299.441309 
L 456.887693 -299.50254 
L 448.055339 -299.575815 
L 439.222984 -300.120584 
L 430.39063 -300.125864 
L 421.558276 -300.151338 
L 412.725921 -300.270867 
L 403.893567 -300.550184 
L 395.061213 -300.564495 
L 386.228858 -300.573185 
L 377.396504 -301.02012 
L 368.56415 -301.149434 
L 359.731795 -301.36247 
L 350.899441 -301.632247 
L 342.067087 -301.712685 
L 333.234732 -302.19709 
L 324.402378 -302.596236 
L 315.570024 -302.671307 
L 306.73767 -302.965674 
L 297.905315 -303.462863 
L 289.072961 -303.960052 
L 280.240607 -304.457241 
L 271.408252 -304.977906 
L 262.575898 -305.597188 
L 253.743544 -306.035666 
L 244.911189 -306.445997 
L 236.078835 -306.943186 
L 227.246481 -307.440375 
L 218.414126 -307.937564 
L 209.581772 -308.434753 
L 200.749418 -308.930152 
L 191.917063 -309.34225 
L 183.084709 -309.700268 
L 174.252355 -310.05735 
L 165.42 -310.700125 
L 156.587646 -311.402747 
L 147.755292 -311.889995 
z
" style="stroke: #ffffff; stroke-opacity: 0.15"/>
    </defs>
    <g clip-path="url(#pd7b6d3fa73)">
     <use xlink:href="#m481856fb4d" x="0" y="571.214766" style="fill: #ea5b0c; fill-opacity: 0.15; stroke: #ffffff; stroke-opacity: 0.15"/>
    </g>
   </g>
   <g id="PathCollection_2">
    <defs>
     <path id="m79763a03c6" d="M 0 3.535534 
C 0.937635 3.535534 1.836992 3.163008 2.5 2.5 
C 3.163008 1.836992 3.535534 0.937635 3.535534 0 
C 3.535534 -0.937635 3.163008 -1.836992 2.5 -2.5 
C 1.836992 -3.163008 0.937635 -3.535534 0 -3.535534 
C -0.937635 -3.535534 -1.836992 -3.163008 -2.5 -2.5 
C -3.163008 -1.836992 -3.535534 -0.937635 -3.535534 0 
C -3.535534 0.937635 -3.163008 1.836992 -2.5 2.5 
C -1.836992 3.163008 -0.937635 3.535534 0 3.535534 
z
" style="stroke: #1d71b8"/>
    </defs>
    <g clip-path="url(#pd7b6d3fa73)">
     <use xlink:href="#m79763a03c6" x="147.755292" y="241.254183" style="fill: #1d71b8; stroke: #1d71b8"/>
     <use xlink:href="#m79763a03c6" x="191.475446" y="296.627129" style="fill: #1d71b8; stroke: #1d71b8"/>
     <use xlink:href="#m79763a03c6" x="235.1956" y="316.762619" style="fill: #1d71b8; stroke: #1d71b8"/>
     <use xlink:href="#m79763a03c6" x="278.915753" y="266.37383" style="fill: #1d71b8; stroke: #1d71b8"/>
     <use xlink:href="#m79763a03c6" x="322.635907" y="221.494869" style="fill: #1d71b8; stroke: #1d71b8"/>
     <use xlink:href="#m79763a03c6" x="366.356061" y="271.911472" style="fill: #1d71b8; stroke: #1d71b8"/>
     <use xlink:href="#m79763a03c6" x="410.076215" y="306.869403" style="fill: #1d71b8; stroke: #1d71b8"/>
     <use xlink:href="#m79763a03c6" x="453.796369" y="272.766733" style="fill: #1d71b8; stroke: #1d71b8"/>
     <use xlink:href="#m79763a03c6" x="497.516523" y="284.424012" style="fill: #1d71b8; stroke: #1d71b8"/>
     <use xlink:href="#m79763a03c6" x="541.236677" y="256.582132" style="fill: #1d71b8; stroke: #1d71b8"/>
     <use xlink:href="#m79763a03c6" x="584.95683" y="219.524292" style="fill: #1d71b8; stroke: #1d71b8"/>
     <use xlink:href="#m79763a03c6" x="628.676984" y="259.480286" style="fill: #1d71b8; stroke: #1d71b8"/>
     <use xlink:href="#m79763a03c6" x="672.397138" y="260.417596" style="fill: #1d71b8; stroke: #1d71b8"/>
     <use xlink:href="#m79763a03c6" x="716.117292" y="318.111568" style="fill: #1d71b8; stroke: #1d71b8"/>
     <use xlink:href="#m79763a03c6" x="759.837446" y="309.206421" style="fill: #1d71b8; stroke: #1d71b8"/>
     <use xlink:href="#m79763a03c6" x="803.5576" y="385.372643" style="fill: #1d71b8; stroke: #1d71b8"/>
     <use xlink:href="#m79763a03c6" x="847.277754" y="267.992568" style="fill: #1d71b8; stroke: #1d71b8"/>
     <use xlink:href="#m79763a03c6" x="890.997907" y="276.760733" style="fill: #1d71b8; stroke: #1d71b8"/>
     <use xlink:href="#m79763a03c6" x="934.718061" y="218.93882" style="fill: #1d71b8; stroke: #1d71b8"/>
     <use xlink:href="#m79763a03c6" x="978.438215" y="305.82362" style="fill: #1d71b8; stroke: #1d71b8"/>
     <use xlink:href="#m79763a03c6" x="1022.158369" y="294.096808" style="fill: #1d71b8; stroke: #1d71b8"/>
    </g>
   </g>
   <g id="PolyCollection_2">
    <defs>
     <path id="mb8dfcb8572" d="M 147.755292 -343.238369 
L 147.755292 -261.819179 
L 156.587646 -262.267406 
L 165.42 -262.837561 
L 174.252355 -263.410557 
L 183.084709 -263.801725 
L 191.917063 -264.157031 
L 200.749418 -264.468743 
L 209.581772 -264.748245 
L 218.414126 -265.098905 
L 227.246481 -265.568587 
L 236.078835 -265.82362 
L 244.911189 -266.018308 
L 253.743544 -266.212995 
L 262.575898 -266.407683 
L 271.408252 -266.673234 
L 280.240607 -267.278622 
L 289.072961 -267.399507 
L 297.905315 -267.912029 
L 306.73767 -268.425625 
L 315.570024 -268.939222 
L 324.402378 -269.351952 
L 333.234732 -269.806004 
L 342.067087 -270.125522 
L 350.899441 -270.181745 
L 359.731795 -270.665388 
L 368.56415 -271.070452 
L 377.396504 -271.427836 
L 386.228858 -271.253793 
L 395.061213 -271.429341 
L 403.893567 -271.48002 
L 412.725921 -271.892228 
L 421.558276 -271.973676 
L 430.39063 -271.962005 
L 439.222984 -272.20472 
L 448.055339 -272.631518 
L 456.887693 -272.965151 
L 465.720047 -273.10797 
L 474.552402 -273.250789 
L 483.384756 -273.393608 
L 492.21711 -273.548418 
L 501.049464 -273.674978 
L 509.881819 -274.009416 
L 518.714173 -274.159017 
L 527.546527 -274.143765 
L 536.378882 -274.230807 
L 545.211236 -274.022988 
L 554.04359 -274.061762 
L 562.875945 -273.516409 
L 571.708299 -273.356418 
L 580.540653 -273.091252 
L 589.373008 -272.62019 
L 598.205362 -272.609836 
L 607.037716 -272.690332 
L 615.870071 -272.31185 
L 624.702425 -271.762942 
L 633.534779 -271.306885 
L 642.367134 -270.758651 
L 651.199488 -270.126612 
L 660.031842 -269.657491 
L 668.864196 -269.578239 
L 677.696551 -269.172715 
L 686.528905 -268.651827 
L 695.361259 -268.175036 
L 704.193614 -267.800783 
L 713.025968 -267.433095 
L 721.858322 -267.056833 
L 730.690677 -266.6867 
L 739.523031 -266.180836 
L 748.355385 -265.669088 
L 757.18774 -265.2743 
L 766.020094 -264.774713 
L 774.852448 -264.316243 
L 783.684803 -263.972531 
L 792.517157 -263.33224 
L 801.349511 -262.899242 
L 810.181866 -262.427348 
L 819.01422 -261.845204 
L 827.846574 -261.286147 
L 836.678928 -260.49634 
L 845.511283 -259.484483 
L 854.343637 -258.831619 
L 863.175991 -258.215065 
L 872.008346 -257.591178 
L 880.8407 -256.782026 
L 889.673054 -255.98325 
L 898.505409 -255.18668 
L 907.337763 -254.508289 
L 916.170117 -253.995561 
L 925.002472 -253.362111 
L 933.834826 -252.840327 
L 942.66718 -252.401131 
L 951.499535 -251.961935 
L 960.331889 -251.195147 
L 969.164243 -250.63579 
L 977.996598 -249.98818 
L 986.828952 -249.05346 
L 995.661306 -248.122252 
L 1004.49366 -247.370225 
L 1013.326015 -246.610913 
L 1022.158369 -245.57085 
L 1022.158369 -321.49798 
L 1022.158369 -321.49798 
L 1013.326015 -321.201352 
L 1004.49366 -320.846464 
L 995.661306 -320.582036 
L 986.828952 -320.337314 
L 977.996598 -320.054757 
L 969.164243 -319.766993 
L 960.331889 -319.482908 
L 951.499535 -319.142196 
L 942.66718 -318.904079 
L 933.834826 -318.582049 
L 925.002472 -318.082499 
L 916.170117 -317.582949 
L 907.337763 -317.083399 
L 898.505409 -316.801698 
L 889.673054 -316.756906 
L 880.8407 -316.317853 
L 872.008346 -316.159916 
L 863.175991 -315.765297 
L 854.343637 -315.281636 
L 845.511283 -314.790443 
L 836.678928 -314.086666 
L 827.846574 -313.643632 
L 819.01422 -313.344519 
L 810.181866 -313.352393 
L 801.349511 -313.091049 
L 792.517157 -312.574041 
L 783.684803 -312.385987 
L 774.852448 -312.266399 
L 766.020094 -312.498328 
L 757.18774 -312.497552 
L 748.355385 -312.051124 
L 739.523031 -311.719634 
L 730.690677 -311.800896 
L 721.858322 -311.453273 
L 713.025968 -311.336263 
L 704.193614 -311.20417 
L 695.361259 -311.171262 
L 686.528905 -311.090899 
L 677.696551 -310.800516 
L 668.864196 -310.926626 
L 660.031842 -310.541053 
L 651.199488 -310.769292 
L 642.367134 -310.686896 
L 633.534779 -310.564081 
L 624.702425 -310.530221 
L 615.870071 -310.833312 
L 607.037716 -310.88369 
L 598.205362 -311.032417 
L 589.373008 -311.259634 
L 580.540653 -311.420969 
L 571.708299 -312.026305 
L 562.875945 -312.321488 
L 554.04359 -313.012828 
L 545.211236 -313.449601 
L 536.378882 -313.707819 
L 527.546527 -314.222286 
L 518.714173 -314.604324 
L 509.881819 -315.090191 
L 501.049464 -315.380058 
L 492.21711 -315.861975 
L 483.384756 -316.273765 
L 474.552402 -316.32346 
L 465.720047 -317.071688 
L 456.887693 -317.534001 
L 448.055339 -317.848407 
L 439.222984 -318.232032 
L 430.39063 -318.988581 
L 421.558276 -319.723523 
L 412.725921 -320.413547 
L 403.893567 -321.175985 
L 395.061213 -321.938422 
L 386.228858 -322.871534 
L 377.396504 -323.804064 
L 368.56415 -324.731919 
L 359.731795 -325.659773 
L 350.899441 -326.587628 
L 342.067087 -327.288621 
L 333.234732 -327.820197 
L 324.402378 -328.275952 
L 315.570024 -328.997811 
L 306.73767 -330.031593 
L 297.905315 -330.776165 
L 289.072961 -331.743664 
L 280.240607 -332.357757 
L 271.408252 -332.869469 
L 262.575898 -333.485028 
L 253.743544 -334.171567 
L 244.911189 -334.86075 
L 236.078835 -335.555643 
L 227.246481 -336.23737 
L 218.414126 -337.067582 
L 209.581772 -337.949292 
L 200.749418 -338.832594 
L 191.917063 -339.73396 
L 183.084709 -340.720475 
L 174.252355 -341.568951 
L 165.42 -342.20252 
L 156.587646 -342.72445 
L 147.755292 -343.238369 
z
" style="stroke: #ffffff; stroke-opacity: 0.15"/>
    </defs>
    <g clip-path="url(#pd7b6d3fa73)">
     <use xlink:href="#mb8dfcb8572" x="0" y="571.214766" style="fill: #1d71b8; fill-opacity: 0.15; stroke: #ffffff; stroke-opacity: 0.15"/>
    </g>
   </g>
   <g id="PathCollection_3">
    <defs>
     <path id="m552779e51e" d="M 0 3.535534 
C 0.937635 3.535534 1.836992 3.163008 2.5 2.5 
C 3.163008 1.836992 3.535534 0.937635 3.535534 0 
C 3.535534 -0.937635 3.163008 -1.836992 2.5 -2.5 
C 1.836992 -3.163008 0.937635 -3.535534 0 -3.535534 
C -0.937635 -3.535534 -1.836992 -3.163008 -2.5 -2.5 
C -3.163008 -1.836992 -3.535534 -0.937635 -3.535534 0 
C -3.535534 0.937635 -3.163008 1.836992 -2.5 2.5 
C -1.836992 3.163008 -0.937635 3.535534 0 3.535534 
z
" style="stroke: #3aaa35"/>
    </defs>
    <g clip-path="url(#pd7b6d3fa73)">
     <use xlink:href="#m552779e51e" x="147.755292" y="294.354777" style="fill: #3aaa35; stroke: #3aaa35"/>
     <use xlink:href="#m552779e51e" x="191.475446" y="371.664823" style="fill: #3aaa35; stroke: #3aaa35"/>
     <use xlink:href="#m552779e51e" x="235.1956" y="387.110979" style="fill: #3aaa35; stroke: #3aaa35"/>
     <use xlink:href="#m552779e51e" x="278.915753" y="365.618196" style="fill: #3aaa35; stroke: #3aaa35"/>
     <use xlink:href="#m552779e51e" x="322.635907" y="355.27788" style="fill: #3aaa35; stroke: #3aaa35"/>
     <use xlink:href="#m552779e51e" x="366.356061" y="352.967284" style="fill: #3aaa35; stroke: #3aaa35"/>
     <use xlink:href="#m552779e51e" x="410.076215" y="389.318665" style="fill: #3aaa35; stroke: #3aaa35"/>
     <use xlink:href="#m552779e51e" x="453.796369" y="383.578681" style="fill: #3aaa35; stroke: #3aaa35"/>
     <use xlink:href="#m552779e51e" x="497.516523" y="371.344274" style="fill: #3aaa35; stroke: #3aaa35"/>
     <use xlink:href="#m552779e51e" x="541.236677" y="416.299026" style="fill: #3aaa35; stroke: #3aaa35"/>
     <use xlink:href="#m552779e51e" x="584.95683" y="417.362192" style="fill: #3aaa35; stroke: #3aaa35"/>
     <use xlink:href="#m552779e51e" x="628.676984" y="373.347532" style="fill: #3aaa35; stroke: #3aaa35"/>
     <use xlink:href="#m552779e51e" x="672.397138" y="384.194747" style="fill: #3aaa35; stroke: #3aaa35"/>
     <use xlink:href="#m552779e51e" x="716.117292" y="401.802697" style="fill: #3aaa35; stroke: #3aaa35"/>
     <use xlink:href="#m552779e51e" x="759.837446" y="424.588106" style="fill: #3aaa35; stroke: #3aaa35"/>
     <use xlink:href="#m552779e51e" x="803.5576" y="362.019146" style="fill: #3aaa35; stroke: #3aaa35"/>
     <use xlink:href="#m552779e51e" x="847.277754" y="394.281266" style="fill: #3aaa35; stroke: #3aaa35"/>
     <use xlink:href="#m552779e51e" x="890.997907" y="405.560979" style="fill: #3aaa35; stroke: #3aaa35"/>
     <use xlink:href="#m552779e51e" x="934.718061" y="401.534993" style="fill: #3aaa35; stroke: #3aaa35"/>
     <use xlink:href="#m552779e51e" x="978.438215" y="452.05242" style="fill: #3aaa35; stroke: #3aaa35"/>
     <use xlink:href="#m552779e51e" x="1022.158369" y="411.705648" style="fill: #3aaa35; stroke: #3aaa35"/>
    </g>
   </g>
   <g id="PolyCollection_3">
    <defs>
     <path id="m1a24d7a1f9" d="M 147.755292 -248.886779 
L 147.755292 -191.999936 
L 156.587646 -191.604152 
L 165.42 -191.208369 
L 174.252355 -190.812651 
L 183.084709 -190.417244 
L 191.917063 -190.067251 
L 200.749418 -189.871143 
L 209.581772 -189.617649 
L 218.414126 -189.227435 
L 227.246481 -188.954647 
L 236.078835 -188.683537 
L 244.911189 -188.315531 
L 253.743544 -188.034523 
L 262.575898 -187.841301 
L 271.408252 -187.53038 
L 280.240607 -187.330643 
L 289.072961 -187.052361 
L 297.905315 -186.645889 
L 306.73767 -186.293062 
L 315.570024 -186.00152 
L 324.402378 -185.662265 
L 333.234732 -185.241782 
L 342.067087 -184.955325 
L 350.899441 -184.302786 
L 359.731795 -183.839999 
L 368.56415 -183.489334 
L 377.396504 -183.20641 
L 386.228858 -182.772575 
L 395.061213 -182.34112 
L 403.893567 -181.799446 
L 412.725921 -181.408066 
L 421.558276 -181.017892 
L 430.39063 -180.552775 
L 439.222984 -179.95094 
L 448.055339 -179.532314 
L 456.887693 -178.997389 
L 465.720047 -178.426067 
L 474.552402 -177.91267 
L 483.384756 -177.380307 
L 492.21711 -176.961222 
L 501.049464 -176.605858 
L 509.881819 -176.04434 
L 518.714173 -175.484681 
L 527.546527 -175.080238 
L 536.378882 -174.672204 
L 545.211236 -174.073371 
L 554.04359 -173.672987 
L 562.875945 -172.977426 
L 571.708299 -172.363315 
L 580.540653 -171.527807 
L 589.373008 -170.887737 
L 598.205362 -170.363627 
L 607.037716 -169.823029 
L 615.870071 -169.166414 
L 624.702425 -168.579124 
L 633.534779 -167.977362 
L 642.367134 -167.177348 
L 651.199488 -166.37081 
L 660.031842 -165.447005 
L 668.864196 -164.749983 
L 677.696551 -163.93616 
L 686.528905 -163.145926 
L 695.361259 -162.637712 
L 704.193614 -161.541706 
L 713.025968 -160.683626 
L 721.858322 -159.802857 
L 730.690677 -159.064483 
L 739.523031 -158.081338 
L 748.355385 -157.07608 
L 757.18774 -156.133446 
L 766.020094 -155.446914 
L 774.852448 -154.553093 
L 783.684803 -153.47121 
L 792.517157 -152.386757 
L 801.349511 -151.297579 
L 810.181866 -150.212929 
L 819.01422 -149.146316 
L 827.846574 -148.045113 
L 836.678928 -147.066222 
L 845.511283 -146.01074 
L 854.343637 -145.002795 
L 863.175991 -143.99583 
L 872.008346 -142.989604 
L 880.8407 -141.948125 
L 889.673054 -140.83499 
L 898.505409 -139.706244 
L 907.337763 -138.515679 
L 916.170117 -137.320098 
L 925.002472 -136.236228 
L 933.834826 -135.153393 
L 942.66718 -134.036756 
L 951.499535 -132.817611 
L 960.331889 -131.726642 
L 969.164243 -130.639151 
L 977.996598 -129.55166 
L 986.828952 -128.464911 
L 995.661306 -127.325628 
L 1004.49366 -126.013208 
L 1013.326015 -124.834509 
L 1022.158369 -123.809781 
L 1022.158369 -174.556016 
L 1022.158369 -174.556016 
L 1013.326015 -174.952578 
L 1004.49366 -175.306745 
L 995.661306 -175.657841 
L 986.828952 -176.008937 
L 977.996598 -176.348744 
L 969.164243 -176.658796 
L 960.331889 -176.968848 
L 951.499535 -177.277093 
L 942.66718 -177.529752 
L 933.834826 -177.716084 
L 925.002472 -177.930905 
L 916.170117 -178.218287 
L 907.337763 -178.638036 
L 898.505409 -179.059329 
L 889.673054 -179.43879 
L 880.8407 -179.747709 
L 872.008346 -180.136703 
L 863.175991 -180.472209 
L 854.343637 -181.12121 
L 845.511283 -181.471103 
L 836.678928 -181.899631 
L 827.846574 -182.348443 
L 819.01422 -182.672349 
L 810.181866 -183.053786 
L 801.349511 -183.570697 
L 792.517157 -184.066028 
L 783.684803 -184.529648 
L 774.852448 -185.204 
L 766.020094 -185.661425 
L 757.18774 -186.245551 
L 748.355385 -186.774095 
L 739.523031 -187.209783 
L 730.690677 -187.678765 
L 721.858322 -188.249027 
L 713.025968 -188.818398 
L 704.193614 -189.322982 
L 695.361259 -189.818674 
L 686.528905 -190.376256 
L 677.696551 -190.962535 
L 668.864196 -191.50789 
L 660.031842 -192.134262 
L 651.199488 -192.809714 
L 642.367134 -193.380394 
L 633.534779 -194.078923 
L 624.702425 -194.529141 
L 615.870071 -195.159168 
L 607.037716 -195.899767 
L 598.205362 -196.636233 
L 589.373008 -197.201181 
L 580.540653 -198.111356 
L 571.708299 -198.880909 
L 562.875945 -199.693992 
L 554.04359 -200.684111 
L 545.211236 -201.46731 
L 536.378882 -202.204549 
L 527.546527 -203.128661 
L 518.714173 -204.035222 
L 509.881819 -204.935468 
L 501.049464 -205.62761 
L 492.21711 -206.915445 
L 483.384756 -208.170308 
L 474.552402 -209.094219 
L 465.720047 -210.018131 
L 456.887693 -210.97201 
L 448.055339 -212.058727 
L 439.222984 -213.146464 
L 430.39063 -214.203005 
L 421.558276 -215.003775 
L 412.725921 -216.128962 
L 403.893567 -216.910021 
L 395.061213 -217.594052 
L 386.228858 -218.515213 
L 377.396504 -219.318669 
L 368.56415 -220.246069 
L 359.731795 -221.32394 
L 350.899441 -222.650627 
L 342.067087 -223.558918 
L 333.234732 -224.463081 
L 324.402378 -225.578013 
L 315.570024 -226.718056 
L 306.73767 -227.892933 
L 297.905315 -229.162566 
L 289.072961 -230.432199 
L 280.240607 -231.701832 
L 271.408252 -232.971465 
L 262.575898 -234.21697 
L 253.743544 -235.163676 
L 244.911189 -236.006863 
L 236.078835 -237.165748 
L 227.246481 -238.359886 
L 218.414126 -239.554024 
L 209.581772 -240.748162 
L 200.749418 -241.940992 
L 191.917063 -243.126697 
L 183.084709 -244.097688 
L 174.252355 -245.201878 
L 165.42 -246.502115 
L 156.587646 -247.750417 
L 147.755292 -248.886779 
z
" style="stroke: #ffffff; stroke-opacity: 0.15"/>
    </defs>
    <g clip-path="url(#pd7b6d3fa73)">
     <use xlink:href="#m1a24d7a1f9" x="0" y="571.214766" style="fill: #3aaa35; fill-opacity: 0.15; stroke: #ffffff; stroke-opacity: 0.15"/>
    </g>
   </g>
   <g id="PathCollection_4">
    <defs>
     <path id="m00b41758c7" d="M 0 3.535534 
C 0.937635 3.535534 1.836992 3.163008 2.5 2.5 
C 3.163008 1.836992 3.535534 0.937635 3.535534 0 
C 3.535534 -0.937635 3.163008 -1.836992 2.5 -2.5 
C 1.836992 -3.163008 0.937635 -3.535534 0 -3.535534 
C -0.937635 -3.535534 -1.836992 -3.163008 -2.5 -2.5 
C -3.163008 -1.836992 -3.535534 -0.937635 -3.535534 0 
C -3.535534 0.937635 -3.163008 1.836992 -2.5 2.5 
C -1.836992 3.163008 -0.937635 3.535534 0 3.535534 
z
" style="stroke: #e7267a"/>
    </defs>
    <g clip-path="url(#pd7b6d3fa73)">
     <use xlink:href="#m00b41758c7" x="147.755292" y="272.992717" style="fill: #e7267a; stroke: #e7267a"/>
     <use xlink:href="#m00b41758c7" x="191.475446" y="326.783777" style="fill: #e7267a; stroke: #e7267a"/>
     <use xlink:href="#m00b41758c7" x="235.1956" y="351.018262" style="fill: #e7267a; stroke: #e7267a"/>
     <use xlink:href="#m00b41758c7" x="278.915753" y="324.023995" style="fill: #e7267a; stroke: #e7267a"/>
     <use xlink:href="#m00b41758c7" x="322.635907" y="276.329626" style="fill: #e7267a; stroke: #e7267a"/>
     <use xlink:href="#m00b41758c7" x="366.356061" y="347.429642" style="fill: #e7267a; stroke: #e7267a"/>
     <use xlink:href="#m00b41758c7" x="410.076215" y="373.320414" style="fill: #e7267a; stroke: #e7267a"/>
     <use xlink:href="#m00b41758c7" x="453.796369" y="367.737575" style="fill: #e7267a; stroke: #e7267a"/>
     <use xlink:href="#m00b41758c7" x="497.516523" y="408.955601" style="fill: #e7267a; stroke: #e7267a"/>
     <use xlink:href="#m00b41758c7" x="541.236677" y="407.492618" style="fill: #e7267a; stroke: #e7267a"/>
     <use xlink:href="#m00b41758c7" x="584.95683" y="385.72935" style="fill: #e7267a; stroke: #e7267a"/>
     <use xlink:href="#m00b41758c7" x="628.676984" y="369.73388" style="fill: #e7267a; stroke: #e7267a"/>
     <use xlink:href="#m00b41758c7" x="672.397138" y="419.501736" style="fill: #e7267a; stroke: #e7267a"/>
     <use xlink:href="#m00b41758c7" x="716.117292" y="389.442435" style="fill: #e7267a; stroke: #e7267a"/>
     <use xlink:href="#m00b41758c7" x="759.837446" y="423.95118" style="fill: #e7267a; stroke: #e7267a"/>
     <use xlink:href="#m00b41758c7" x="803.5576" y="448.010441" style="fill: #e7267a; stroke: #e7267a"/>
     <use xlink:href="#m00b41758c7" x="847.277754" y="383.564079" style="fill: #e7267a; stroke: #e7267a"/>
     <use xlink:href="#m00b41758c7" x="890.997907" y="406.184694" style="fill: #e7267a; stroke: #e7267a"/>
     <use xlink:href="#m00b41758c7" x="934.718061" y="444.206963" style="fill: #e7267a; stroke: #e7267a"/>
     <use xlink:href="#m00b41758c7" x="978.438215" y="400.724234" style="fill: #e7267a; stroke: #e7267a"/>
     <use xlink:href="#m00b41758c7" x="1022.158369" y="414.027369" style="fill: #e7267a; stroke: #e7267a"/>
    </g>
   </g>
   <g id="PolyCollection_4">
    <defs>
     <path id="md905f78d31" d="M 147.755292 -292.41573 
L 147.755292 -218.936706 
L 156.587646 -218.347821 
L 165.42 -217.682616 
L 174.252355 -216.875867 
L 183.084709 -216.093077 
L 191.917063 -215.299351 
L 200.749418 -214.561619 
L 209.581772 -213.780035 
L 218.414126 -213.121232 
L 227.246481 -212.463826 
L 236.078835 -211.542385 
L 244.911189 -210.769532 
L 253.743544 -210.121397 
L 262.575898 -209.473263 
L 271.408252 -208.716875 
L 280.240607 -207.922483 
L 289.072961 -207.329946 
L 297.905315 -206.76086 
L 306.73767 -205.945668 
L 315.570024 -205.148872 
L 324.402378 -204.392185 
L 333.234732 -203.67185 
L 342.067087 -202.730547 
L 350.899441 -201.846068 
L 359.731795 -201.264086 
L 368.56415 -200.677046 
L 377.396504 -200.082317 
L 386.228858 -199.210753 
L 395.061213 -198.329774 
L 403.893567 -197.240041 
L 412.725921 -196.15135 
L 421.558276 -195.231004 
L 430.39063 -194.400185 
L 439.222984 -193.579509 
L 448.055339 -192.755983 
L 456.887693 -191.907904 
L 465.720047 -190.986274 
L 474.552402 -190.017985 
L 483.384756 -189.178853 
L 492.21711 -188.503094 
L 501.049464 -187.573121 
L 509.881819 -186.582551 
L 518.714173 -185.680213 
L 527.546527 -184.942395 
L 536.378882 -184.123604 
L 545.211236 -183.162506 
L 554.04359 -182.222883 
L 562.875945 -181.109633 
L 571.708299 -180.031919 
L 580.540653 -179.143119 
L 589.373008 -178.199673 
L 598.205362 -177.114544 
L 607.037716 -175.943841 
L 615.870071 -174.735258 
L 624.702425 -173.752892 
L 633.534779 -172.568744 
L 642.367134 -171.496748 
L 651.199488 -170.151953 
L 660.031842 -168.793737 
L 668.864196 -167.668562 
L 677.696551 -166.415739 
L 686.528905 -165.151873 
L 695.361259 -163.773368 
L 704.193614 -162.396222 
L 713.025968 -161.075171 
L 721.858322 -159.934894 
L 730.690677 -158.435768 
L 739.523031 -156.855295 
L 748.355385 -155.35945 
L 757.18774 -153.679427 
L 766.020094 -152.453287 
L 774.852448 -151.029672 
L 783.684803 -149.516145 
L 792.517157 -148.011622 
L 801.349511 -146.477341 
L 810.181866 -145.001243 
L 819.01422 -143.340592 
L 827.846574 -141.704973 
L 836.678928 -140.113491 
L 845.511283 -138.526448 
L 854.343637 -136.933834 
L 863.175991 -135.426299 
L 872.008346 -133.950566 
L 880.8407 -132.556919 
L 889.673054 -130.804533 
L 898.505409 -129.292414 
L 907.337763 -127.872835 
L 916.170117 -126.078678 
L 925.002472 -124.314165 
L 933.834826 -122.701022 
L 942.66718 -121.030052 
L 951.499535 -119.229294 
L 960.331889 -117.698669 
L 969.164243 -116.094662 
L 977.996598 -114.068455 
L 986.828952 -112.265608 
L 995.661306 -110.790453 
L 1004.49366 -109.198521 
L 1013.326015 -107.595186 
L 1022.158369 -105.896292 
L 1022.158369 -156.787864 
L 1022.158369 -156.787864 
L 1013.326015 -157.728447 
L 1004.49366 -158.556858 
L 995.661306 -159.044376 
L 986.828952 -159.601109 
L 977.996598 -160.56491 
L 969.164243 -161.588249 
L 960.331889 -162.449493 
L 951.499535 -163.271602 
L 942.66718 -164.171705 
L 933.834826 -164.902748 
L 925.002472 -165.704818 
L 916.170117 -166.634048 
L 907.337763 -167.19844 
L 898.505409 -168.080536 
L 889.673054 -168.87729 
L 880.8407 -169.607051 
L 872.008346 -170.554876 
L 863.175991 -171.335876 
L 854.343637 -172.207246 
L 845.511283 -172.96735 
L 836.678928 -173.726725 
L 827.846574 -174.966124 
L 819.01422 -176.027166 
L 810.181866 -176.592227 
L 801.349511 -177.362236 
L 792.517157 -178.348967 
L 783.684803 -179.581986 
L 774.852448 -180.448922 
L 766.020094 -181.636295 
L 757.18774 -182.629657 
L 748.355385 -183.884107 
L 739.523031 -184.860527 
L 730.690677 -186.092122 
L 721.858322 -187.092196 
L 713.025968 -188.272608 
L 704.193614 -189.477404 
L 695.361259 -190.881091 
L 686.528905 -192.100067 
L 677.696551 -193.177221 
L 668.864196 -194.738971 
L 660.031842 -195.794572 
L 651.199488 -197.173419 
L 642.367134 -198.758951 
L 633.534779 -200.210266 
L 624.702425 -201.765018 
L 615.870071 -203.247121 
L 607.037716 -204.540475 
L 598.205362 -205.999726 
L 589.373008 -207.495405 
L 580.540653 -208.97832 
L 571.708299 -210.582795 
L 562.875945 -212.185731 
L 554.04359 -213.771539 
L 545.211236 -215.324079 
L 536.378882 -216.592098 
L 527.546527 -218.459543 
L 518.714173 -220.135714 
L 509.881819 -221.761817 
L 501.049464 -223.285045 
L 492.21711 -224.933233 
L 483.384756 -226.481954 
L 474.552402 -228.208553 
L 465.720047 -229.835474 
L 456.887693 -231.300661 
L 448.055339 -232.907047 
L 439.222984 -234.616674 
L 430.39063 -236.292267 
L 421.558276 -237.994038 
L 412.725921 -239.619636 
L 403.893567 -241.251523 
L 395.061213 -242.991292 
L 386.228858 -244.704701 
L 377.396504 -246.28157 
L 368.56415 -247.855307 
L 359.731795 -249.771247 
L 350.899441 -251.403179 
L 342.067087 -253.049937 
L 333.234732 -254.86272 
L 324.402378 -256.675504 
L 315.570024 -258.488288 
L 306.73767 -260.296279 
L 297.905315 -261.850294 
L 289.072961 -263.723095 
L 280.240607 -265.440231 
L 271.408252 -267.225408 
L 262.575898 -269.310203 
L 253.743544 -271.173538 
L 244.911189 -272.821597 
L 236.078835 -274.698559 
L 227.246481 -276.462207 
L 218.414126 -278.225096 
L 209.581772 -279.987985 
L 200.749418 -281.750874 
L 191.917063 -283.513764 
L 183.084709 -285.276653 
L 174.252355 -287.039542 
L 165.42 -288.799314 
L 156.587646 -290.593604 
L 147.755292 -292.41573 
z
" style="stroke: #ffffff; stroke-opacity: 0.15"/>
    </defs>
    <g clip-path="url(#pd7b6d3fa73)">
     <use xlink:href="#md905f78d31" x="0" y="571.214766" style="fill: #e7267a; fill-opacity: 0.15; stroke: #ffffff; stroke-opacity: 0.15"/>
    </g>
   </g>
   <g id="line2d_1">
    <path d="M 147.755292 371.328334 
L 147.755292 197.307857 
" clip-path="url(#pd7b6d3fa73)" style="fill: none; stroke: #ea5b0c; stroke-width: 2.625; stroke-linecap: round"/>
   </g>
   <g id="line2d_2">
    <path d="M 191.475446 378.804968 
L 191.475446 198.584422 
" clip-path="url(#pd7b6d3fa73)" style="fill: none; stroke: #ea5b0c; stroke-width: 2.625; stroke-linecap: round"/>
   </g>
   <g id="line2d_3">
    <path d="M 235.1956 324.261295 
L 235.1956 169.726936 
" clip-path="url(#pd7b6d3fa73)" style="fill: none; stroke: #ea5b0c; stroke-width: 2.625; stroke-linecap: round"/>
   </g>
   <g id="line2d_4">
    <path d="M 278.915753 361.284821 
L 278.915753 203.257868 
" clip-path="url(#pd7b6d3fa73)" style="fill: none; stroke: #ea5b0c; stroke-width: 2.625; stroke-linecap: round"/>
   </g>
   <g id="line2d_5">
    <path d="M 322.635907 331.77393 
L 322.635907 152.804742 
" clip-path="url(#pd7b6d3fa73)" style="fill: none; stroke: #ea5b0c; stroke-width: 2.625; stroke-linecap: round"/>
   </g>
   <g id="line2d_6">
    <path d="M 366.356061 412.55851 
L 366.356061 265.041482 
" clip-path="url(#pd7b6d3fa73)" style="fill: none; stroke: #ea5b0c; stroke-width: 2.625; stroke-linecap: round"/>
   </g>
   <g id="line2d_7">
    <path d="M 410.076215 418.291802 
L 410.076215 306.330293 
" clip-path="url(#pd7b6d3fa73)" style="fill: none; stroke: #ea5b0c; stroke-width: 2.625; stroke-linecap: round"/>
   </g>
   <g id="line2d_8">
    <path d="M 453.796369 371.149615 
L 453.796369 217.409919 
" clip-path="url(#pd7b6d3fa73)" style="fill: none; stroke: #ea5b0c; stroke-width: 2.625; stroke-linecap: round"/>
   </g>
   <g id="line2d_9">
    <path d="M 497.516523 390.615464 
L 497.516523 296.622192 
" clip-path="url(#pd7b6d3fa73)" style="fill: none; stroke: #ea5b0c; stroke-width: 2.625; stroke-linecap: round"/>
   </g>
   <g id="line2d_10">
    <path d="M 541.236677 380.678476 
L 541.236677 196.130274 
" clip-path="url(#pd7b6d3fa73)" style="fill: none; stroke: #ea5b0c; stroke-width: 2.625; stroke-linecap: round"/>
   </g>
   <g id="line2d_11">
    <path d="M 584.95683 362.313099 
L 584.95683 212.346982 
" clip-path="url(#pd7b6d3fa73)" style="fill: none; stroke: #ea5b0c; stroke-width: 2.625; stroke-linecap: round"/>
   </g>
   <g id="line2d_12">
    <path d="M 628.676984 344.870795 
L 628.676984 199.11677 
" clip-path="url(#pd7b6d3fa73)" style="fill: none; stroke: #ea5b0c; stroke-width: 2.625; stroke-linecap: round"/>
   </g>
   <g id="line2d_13">
    <path d="M 672.397138 372.59977 
L 672.397138 255.22517 
" clip-path="url(#pd7b6d3fa73)" style="fill: none; stroke: #ea5b0c; stroke-width: 2.625; stroke-linecap: round"/>
   </g>
   <g id="line2d_14">
    <path d="M 716.117292 396.515619 
L 716.117292 194.999973 
" clip-path="url(#pd7b6d3fa73)" style="fill: none; stroke: #ea5b0c; stroke-width: 2.625; stroke-linecap: round"/>
   </g>
   <g id="line2d_15">
    <path d="M 759.837446 391.821678 
L 759.837446 163.783358 
" clip-path="url(#pd7b6d3fa73)" style="fill: none; stroke: #ea5b0c; stroke-width: 2.625; stroke-linecap: round"/>
   </g>
   <g id="line2d_16">
    <path d="M 803.5576 291.035129 
L 803.5576 53.087983 
" clip-path="url(#pd7b6d3fa73)" style="fill: none; stroke: #ea5b0c; stroke-width: 2.625; stroke-linecap: round"/>
   </g>
   <g id="line2d_17">
    <path d="M 847.277754 378.46667 
L 847.277754 154.268717 
" clip-path="url(#pd7b6d3fa73)" style="fill: none; stroke: #ea5b0c; stroke-width: 2.625; stroke-linecap: round"/>
   </g>
   <g id="line2d_18">
    <path d="M 890.997907 331.258044 
L 890.997907 152.566695 
" clip-path="url(#pd7b6d3fa73)" style="fill: none; stroke: #ea5b0c; stroke-width: 2.625; stroke-linecap: round"/>
   </g>
   <g id="line2d_19">
    <path d="M 934.718061 375.395153 
L 934.718061 247.90888 
" clip-path="url(#pd7b6d3fa73)" style="fill: none; stroke: #ea5b0c; stroke-width: 2.625; stroke-linecap: round"/>
   </g>
   <g id="line2d_20">
    <path d="M 978.438215 352.437735 
L 978.438215 218.206599 
" clip-path="url(#pd7b6d3fa73)" style="fill: none; stroke: #ea5b0c; stroke-width: 2.625; stroke-linecap: round"/>
   </g>
   <g id="line2d_21">
    <path d="M 1022.158369 409.029202 
L 1022.158369 256.623644 
" clip-path="url(#pd7b6d3fa73)" style="fill: none; stroke: #ea5b0c; stroke-width: 2.625; stroke-linecap: round"/>
   </g>
   <g id="line2d_22">
    <path d="M 147.755292 295.788119 
L 156.587646 295.698327 
L 165.42 295.608535 
L 174.252355 295.518743 
L 183.084709 295.428951 
L 191.917063 295.339159 
L 200.749418 295.249367 
L 209.581772 295.159575 
L 218.414126 295.069783 
L 227.246481 294.979992 
L 236.078835 294.8902 
L 244.911189 294.800408 
L 253.743544 294.710616 
L 262.575898 294.620824 
L 271.408252 294.531032 
L 280.240607 294.44124 
L 289.072961 294.351448 
L 297.905315 294.261656 
L 306.73767 294.171864 
L 315.570024 294.082072 
L 324.402378 293.99228 
L 333.234732 293.902488 
L 342.067087 293.812696 
L 350.899441 293.722904 
L 359.731795 293.633112 
L 368.56415 293.54332 
L 377.396504 293.453528 
L 386.228858 293.363736 
L 395.061213 293.273944 
L 403.893567 293.184152 
L 412.725921 293.09436 
L 421.558276 293.004568 
L 430.39063 292.914776 
L 439.222984 292.824984 
L 448.055339 292.735192 
L 456.887693 292.6454 
L 465.720047 292.555608 
L 474.552402 292.465816 
L 483.384756 292.376024 
L 492.21711 292.286232 
L 501.049464 292.19644 
L 509.881819 292.106648 
L 518.714173 292.016856 
L 527.546527 291.927064 
L 536.378882 291.837272 
L 545.211236 291.74748 
L 554.04359 291.657688 
L 562.875945 291.567896 
L 571.708299 291.478104 
L 580.540653 291.388312 
L 589.373008 291.29852 
L 598.205362 291.208728 
L 607.037716 291.118936 
L 615.870071 291.029144 
L 624.702425 290.939352 
L 633.534779 290.84956 
L 642.367134 290.759768 
L 651.199488 290.669976 
L 660.031842 290.580184 
L 668.864196 290.490392 
L 677.696551 290.4006 
L 686.528905 290.310808 
L 695.361259 290.221016 
L 704.193614 290.131224 
L 713.025968 290.041432 
L 721.858322 289.95164 
L 730.690677 289.861848 
L 739.523031 289.772056 
L 748.355385 289.682265 
L 757.18774 289.592473 
L 766.020094 289.502681 
L 774.852448 289.412889 
L 783.684803 289.323097 
L 792.517157 289.233305 
L 801.349511 289.143513 
L 810.181866 289.053721 
L 819.01422 288.963929 
L 827.846574 288.874137 
L 836.678928 288.784345 
L 845.511283 288.694553 
L 854.343637 288.604761 
L 863.175991 288.514969 
L 872.008346 288.425177 
L 880.8407 288.335385 
L 889.673054 288.245593 
L 898.505409 288.155801 
L 907.337763 288.066009 
L 916.170117 287.976217 
L 925.002472 287.886425 
L 933.834826 287.796633 
L 942.66718 287.706841 
L 951.499535 287.617049 
L 960.331889 287.527257 
L 969.164243 287.437465 
L 977.996598 287.347673 
L 986.828952 287.257881 
L 995.661306 287.168089 
L 1004.49366 287.078297 
L 1013.326015 286.988505 
L 1022.158369 286.898713 
" clip-path="url(#pd7b6d3fa73)" style="fill: none; stroke: #ea5b0c; stroke-width: 2.25; stroke-linecap: round"/>
   </g>
   <g id="line2d_23">
    <path d="M 147.755292 313.418983 
L 147.755292 163.160964 
" clip-path="url(#pd7b6d3fa73)" style="fill: none; stroke: #1d71b8; stroke-width: 2.625; stroke-linecap: round"/>
   </g>
   <g id="line2d_24">
    <path d="M 191.475446 395.983375 
L 191.475446 156.551256 
" clip-path="url(#pd7b6d3fa73)" style="fill: none; stroke: #1d71b8; stroke-width: 2.625; stroke-linecap: round"/>
   </g>
   <g id="line2d_25">
    <path d="M 235.1956 394.740326 
L 235.1956 224.56218 
" clip-path="url(#pd7b6d3fa73)" style="fill: none; stroke: #1d71b8; stroke-width: 2.625; stroke-linecap: round"/>
   </g>
   <g id="line2d_26">
    <path d="M 278.915753 339.772499 
L 278.915753 188.980447 
" clip-path="url(#pd7b6d3fa73)" style="fill: none; stroke: #1d71b8; stroke-width: 2.625; stroke-linecap: round"/>
   </g>
   <g id="line2d_27">
    <path d="M 322.635907 332.022078 
L 322.635907 100.514214 
" clip-path="url(#pd7b6d3fa73)" style="fill: none; stroke: #1d71b8; stroke-width: 2.625; stroke-linecap: round"/>
   </g>
   <g id="line2d_28">
    <path d="M 366.356061 331.888539 
L 366.356061 207.232033 
" clip-path="url(#pd7b6d3fa73)" style="fill: none; stroke: #1d71b8; stroke-width: 2.625; stroke-linecap: round"/>
   </g>
   <g id="line2d_29">
    <path d="M 410.076215 391.43502 
L 410.076215 195.05108 
" clip-path="url(#pd7b6d3fa73)" style="fill: none; stroke: #1d71b8; stroke-width: 2.625; stroke-linecap: round"/>
   </g>
   <g id="line2d_30">
    <path d="M 453.796369 336.419319 
L 453.796369 197.215847 
" clip-path="url(#pd7b6d3fa73)" style="fill: none; stroke: #1d71b8; stroke-width: 2.625; stroke-linecap: round"/>
   </g>
   <g id="line2d_31">
    <path d="M 497.516523 358.519198 
L 497.516523 184.794726 
" clip-path="url(#pd7b6d3fa73)" style="fill: none; stroke: #1d71b8; stroke-width: 2.625; stroke-linecap: round"/>
   </g>
   <g id="line2d_32">
    <path d="M 541.236677 371.958446 
L 541.236677 136.993449 
" clip-path="url(#pd7b6d3fa73)" style="fill: none; stroke: #1d71b8; stroke-width: 2.625; stroke-linecap: round"/>
   </g>
   <g id="line2d_33">
    <path d="M 584.95683 309.150221 
L 584.95683 109.111362 
" clip-path="url(#pd7b6d3fa73)" style="fill: none; stroke: #1d71b8; stroke-width: 2.625; stroke-linecap: round"/>
   </g>
   <g id="line2d_34">
    <path d="M 628.676984 318.946351 
L 628.676984 197.813435 
" clip-path="url(#pd7b6d3fa73)" style="fill: none; stroke: #1d71b8; stroke-width: 2.625; stroke-linecap: round"/>
   </g>
   <g id="line2d_35">
    <path d="M 672.397138 330.382983 
L 672.397138 175.427895 
" clip-path="url(#pd7b6d3fa73)" style="fill: none; stroke: #1d71b8; stroke-width: 2.625; stroke-linecap: round"/>
   </g>
   <g id="line2d_36">
    <path d="M 716.117292 395.961854 
L 716.117292 236.000325 
" clip-path="url(#pd7b6d3fa73)" style="fill: none; stroke: #1d71b8; stroke-width: 2.625; stroke-linecap: round"/>
   </g>
   <g id="line2d_37">
    <path d="M 759.837446 372.427588 
L 759.837446 239.846618 
" clip-path="url(#pd7b6d3fa73)" style="fill: none; stroke: #1d71b8; stroke-width: 2.625; stroke-linecap: round"/>
   </g>
   <g id="line2d_38">
    <path d="M 803.5576 433.787865 
L 803.5576 334.916198 
" clip-path="url(#pd7b6d3fa73)" style="fill: none; stroke: #1d71b8; stroke-width: 2.625; stroke-linecap: round"/>
   </g>
   <g id="line2d_39">
    <path d="M 847.277754 343.431157 
L 847.277754 188.408569 
" clip-path="url(#pd7b6d3fa73)" style="fill: none; stroke: #1d71b8; stroke-width: 2.625; stroke-linecap: round"/>
   </g>
   <g id="line2d_40">
    <path d="M 890.997907 365.827527 
L 890.997907 178.024725 
" clip-path="url(#pd7b6d3fa73)" style="fill: none; stroke: #1d71b8; stroke-width: 2.625; stroke-linecap: round"/>
   </g>
   <g id="line2d_41">
    <path d="M 934.718061 327.455852 
L 934.718061 114.523166 
" clip-path="url(#pd7b6d3fa73)" style="fill: none; stroke: #1d71b8; stroke-width: 2.625; stroke-linecap: round"/>
   </g>
   <g id="line2d_42">
    <path d="M 978.438215 398.876626 
L 978.438215 193.110767 
" clip-path="url(#pd7b6d3fa73)" style="fill: none; stroke: #1d71b8; stroke-width: 2.625; stroke-linecap: round"/>
   </g>
   <g id="line2d_43">
    <path d="M 1022.158369 364.663815 
L 1022.158369 217.124867 
" clip-path="url(#pd7b6d3fa73)" style="fill: none; stroke: #1d71b8; stroke-width: 2.625; stroke-linecap: round"/>
   </g>
   <g id="line2d_44">
    <path d="M 147.755292 267.597799 
L 156.587646 267.82025 
L 165.42 268.042701 
L 174.252355 268.265152 
L 183.084709 268.487603 
L 191.917063 268.710054 
L 200.749418 268.932506 
L 209.581772 269.154957 
L 218.414126 269.377408 
L 227.246481 269.599859 
L 236.078835 269.82231 
L 244.911189 270.044761 
L 253.743544 270.267212 
L 262.575898 270.489664 
L 271.408252 270.712115 
L 280.240607 270.934566 
L 289.072961 271.157017 
L 297.905315 271.379468 
L 306.73767 271.601919 
L 315.570024 271.82437 
L 324.402378 272.046822 
L 333.234732 272.269273 
L 342.067087 272.491724 
L 350.899441 272.714175 
L 359.731795 272.936626 
L 368.56415 273.159077 
L 377.396504 273.381528 
L 386.228858 273.60398 
L 395.061213 273.826431 
L 403.893567 274.048882 
L 412.725921 274.271333 
L 421.558276 274.493784 
L 430.39063 274.716235 
L 439.222984 274.938686 
L 448.055339 275.161138 
L 456.887693 275.383589 
L 465.720047 275.60604 
L 474.552402 275.828491 
L 483.384756 276.050942 
L 492.21711 276.273393 
L 501.049464 276.495844 
L 509.881819 276.718296 
L 518.714173 276.940747 
L 527.546527 277.163198 
L 536.378882 277.385649 
L 545.211236 277.6081 
L 554.04359 277.830551 
L 562.875945 278.053003 
L 571.708299 278.275454 
L 580.540653 278.497905 
L 589.373008 278.720356 
L 598.205362 278.942807 
L 607.037716 279.165258 
L 615.870071 279.387709 
L 624.702425 279.610161 
L 633.534779 279.832612 
L 642.367134 280.055063 
L 651.199488 280.277514 
L 660.031842 280.499965 
L 668.864196 280.722416 
L 677.696551 280.944867 
L 686.528905 281.167319 
L 695.361259 281.38977 
L 704.193614 281.612221 
L 713.025968 281.834672 
L 721.858322 282.057123 
L 730.690677 282.279574 
L 739.523031 282.502025 
L 748.355385 282.724477 
L 757.18774 282.946928 
L 766.020094 283.169379 
L 774.852448 283.39183 
L 783.684803 283.614281 
L 792.517157 283.836732 
L 801.349511 284.059183 
L 810.181866 284.281635 
L 819.01422 284.504086 
L 827.846574 284.726537 
L 836.678928 284.948988 
L 845.511283 285.171439 
L 854.343637 285.39389 
L 863.175991 285.616341 
L 872.008346 285.838793 
L 880.8407 286.061244 
L 889.673054 286.283695 
L 898.505409 286.506146 
L 907.337763 286.728597 
L 916.170117 286.951048 
L 925.002472 287.1735 
L 933.834826 287.395951 
L 942.66718 287.618402 
L 951.499535 287.840853 
L 960.331889 288.063304 
L 969.164243 288.285755 
L 977.996598 288.508206 
L 986.828952 288.730658 
L 995.661306 288.953109 
L 1004.49366 289.17556 
L 1013.326015 289.398011 
L 1022.158369 289.620462 
" clip-path="url(#pd7b6d3fa73)" style="fill: none; stroke: #1d71b8; stroke-width: 2.25; stroke-linecap: round"/>
   </g>
   <g id="line2d_45">
    <path d="M 147.755292 366.435058 
L 147.755292 222.02268 
" clip-path="url(#pd7b6d3fa73)" style="fill: none; stroke: #3aaa35; stroke-width: 2.625; stroke-linecap: round"/>
   </g>
   <g id="line2d_46">
    <path d="M 191.475446 432.612681 
L 191.475446 302.604935 
" clip-path="url(#pd7b6d3fa73)" style="fill: none; stroke: #3aaa35; stroke-width: 2.625; stroke-linecap: round"/>
   </g>
   <g id="line2d_47">
    <path d="M 235.1956 458.262711 
L 235.1956 297.694676 
" clip-path="url(#pd7b6d3fa73)" style="fill: none; stroke: #3aaa35; stroke-width: 2.625; stroke-linecap: round"/>
   </g>
   <g id="line2d_48">
    <path d="M 278.915753 424.175443 
L 278.915753 300.046209 
" clip-path="url(#pd7b6d3fa73)" style="fill: none; stroke: #3aaa35; stroke-width: 2.625; stroke-linecap: round"/>
   </g>
   <g id="line2d_49">
    <path d="M 322.635907 416.595847 
L 322.635907 289.165479 
" clip-path="url(#pd7b6d3fa73)" style="fill: none; stroke: #3aaa35; stroke-width: 2.625; stroke-linecap: round"/>
   </g>
   <g id="line2d_50">
    <path d="M 366.356061 424.516661 
L 366.356061 267.11775 
" clip-path="url(#pd7b6d3fa73)" style="fill: none; stroke: #3aaa35; stroke-width: 2.625; stroke-linecap: round"/>
   </g>
   <g id="line2d_51">
    <path d="M 410.076215 447.408821 
L 410.076215 323.134471 
" clip-path="url(#pd7b6d3fa73)" style="fill: none; stroke: #3aaa35; stroke-width: 2.625; stroke-linecap: round"/>
   </g>
   <g id="line2d_52">
    <path d="M 453.796369 438.526968 
L 453.796369 320.22222 
" clip-path="url(#pd7b6d3fa73)" style="fill: none; stroke: #3aaa35; stroke-width: 2.625; stroke-linecap: round"/>
   </g>
   <g id="line2d_53">
    <path d="M 497.516523 417.516035 
L 497.516523 315.176666 
" clip-path="url(#pd7b6d3fa73)" style="fill: none; stroke: #3aaa35; stroke-width: 2.625; stroke-linecap: round"/>
   </g>
   <g id="line2d_54">
    <path d="M 541.236677 466.757453 
L 541.236677 364.749428 
" clip-path="url(#pd7b6d3fa73)" style="fill: none; stroke: #3aaa35; stroke-width: 2.625; stroke-linecap: round"/>
   </g>
   <g id="line2d_55">
    <path d="M 584.95683 444.790418 
L 584.95683 386.686408 
" clip-path="url(#pd7b6d3fa73)" style="fill: none; stroke: #3aaa35; stroke-width: 2.625; stroke-linecap: round"/>
   </g>
   <g id="line2d_56">
    <path d="M 628.676984 433.080902 
L 628.676984 312.831269 
" clip-path="url(#pd7b6d3fa73)" style="fill: none; stroke: #3aaa35; stroke-width: 2.625; stroke-linecap: round"/>
   </g>
   <g id="line2d_57">
    <path d="M 672.397138 436.500364 
L 672.397138 329.046881 
" clip-path="url(#pd7b6d3fa73)" style="fill: none; stroke: #3aaa35; stroke-width: 2.625; stroke-linecap: round"/>
   </g>
   <g id="line2d_58">
    <path d="M 716.117292 456.178881 
L 716.117292 340.293114 
" clip-path="url(#pd7b6d3fa73)" style="fill: none; stroke: #3aaa35; stroke-width: 2.625; stroke-linecap: round"/>
   </g>
   <g id="line2d_59">
    <path d="M 759.837446 473.422771 
L 759.837446 354.095777 
" clip-path="url(#pd7b6d3fa73)" style="fill: none; stroke: #3aaa35; stroke-width: 2.625; stroke-linecap: round"/>
   </g>
   <g id="line2d_60">
    <path d="M 803.5576 427.484695 
L 803.5576 287.965106 
" clip-path="url(#pd7b6d3fa73)" style="fill: none; stroke: #3aaa35; stroke-width: 2.625; stroke-linecap: round"/>
   </g>
   <g id="line2d_61">
    <path d="M 847.277754 445.628539 
L 847.277754 337.018819 
" clip-path="url(#pd7b6d3fa73)" style="fill: none; stroke: #3aaa35; stroke-width: 2.625; stroke-linecap: round"/>
   </g>
   <g id="line2d_62">
    <path d="M 890.997907 450.926865 
L 890.997907 345.457048 
" clip-path="url(#pd7b6d3fa73)" style="fill: none; stroke: #3aaa35; stroke-width: 2.625; stroke-linecap: round"/>
   </g>
   <g id="line2d_63">
    <path d="M 934.718061 458.030104 
L 934.718061 342.252861 
" clip-path="url(#pd7b6d3fa73)" style="fill: none; stroke: #3aaa35; stroke-width: 2.625; stroke-linecap: round"/>
   </g>
   <g id="line2d_64">
    <path d="M 978.438215 486.4832 
L 978.438215 413.288437 
" clip-path="url(#pd7b6d3fa73)" style="fill: none; stroke: #3aaa35; stroke-width: 2.625; stroke-linecap: round"/>
   </g>
   <g id="line2d_65">
    <path d="M 1022.158369 461.069584 
L 1022.158369 350.962549 
" clip-path="url(#pd7b6d3fa73)" style="fill: none; stroke: #3aaa35; stroke-width: 2.625; stroke-linecap: round"/>
   </g>
   <g id="line2d_66">
    <path d="M 147.755292 350.764177 
L 156.587646 351.485616 
L 165.42 352.207056 
L 174.252355 352.928496 
L 183.084709 353.649935 
L 191.917063 354.371375 
L 200.749418 355.092815 
L 209.581772 355.814255 
L 218.414126 356.535694 
L 227.246481 357.257134 
L 236.078835 357.978574 
L 244.911189 358.700014 
L 253.743544 359.421453 
L 262.575898 360.142893 
L 271.408252 360.864333 
L 280.240607 361.585773 
L 289.072961 362.307212 
L 297.905315 363.028652 
L 306.73767 363.750092 
L 315.570024 364.471532 
L 324.402378 365.192971 
L 333.234732 365.914411 
L 342.067087 366.635851 
L 350.899441 367.35729 
L 359.731795 368.07873 
L 368.56415 368.80017 
L 377.396504 369.52161 
L 386.228858 370.243049 
L 395.061213 370.964489 
L 403.893567 371.685929 
L 412.725921 372.407369 
L 421.558276 373.128808 
L 430.39063 373.850248 
L 439.222984 374.571688 
L 448.055339 375.293128 
L 456.887693 376.014567 
L 465.720047 376.736007 
L 474.552402 377.457447 
L 483.384756 378.178887 
L 492.21711 378.900326 
L 501.049464 379.621766 
L 509.881819 380.343206 
L 518.714173 381.064645 
L 527.546527 381.786085 
L 536.378882 382.507525 
L 545.211236 383.228965 
L 554.04359 383.950404 
L 562.875945 384.671844 
L 571.708299 385.393284 
L 580.540653 386.114724 
L 589.373008 386.836163 
L 598.205362 387.557603 
L 607.037716 388.279043 
L 615.870071 389.000483 
L 624.702425 389.721922 
L 633.534779 390.443362 
L 642.367134 391.164802 
L 651.199488 391.886242 
L 660.031842 392.607681 
L 668.864196 393.329121 
L 677.696551 394.050561 
L 686.528905 394.772 
L 695.361259 395.49344 
L 704.193614 396.21488 
L 713.025968 396.93632 
L 721.858322 397.657759 
L 730.690677 398.379199 
L 739.523031 399.100639 
L 748.355385 399.822079 
L 757.18774 400.543518 
L 766.020094 401.264958 
L 774.852448 401.986398 
L 783.684803 402.707838 
L 792.517157 403.429277 
L 801.349511 404.150717 
L 810.181866 404.872157 
L 819.01422 405.593597 
L 827.846574 406.315036 
L 836.678928 407.036476 
L 845.511283 407.757916 
L 854.343637 408.479356 
L 863.175991 409.200795 
L 872.008346 409.922235 
L 880.8407 410.643675 
L 889.673054 411.365114 
L 898.505409 412.086554 
L 907.337763 412.807994 
L 916.170117 413.529434 
L 925.002472 414.250873 
L 933.834826 414.972313 
L 942.66718 415.693753 
L 951.499535 416.415193 
L 960.331889 417.136632 
L 969.164243 417.858072 
L 977.996598 418.579512 
L 986.828952 419.300952 
L 995.661306 420.022391 
L 1004.49366 420.743831 
L 1013.326015 421.465271 
L 1022.158369 422.186711 
" clip-path="url(#pd7b6d3fa73)" style="fill: none; stroke: #3aaa35; stroke-width: 2.25; stroke-linecap: round"/>
   </g>
   <g id="line2d_67">
    <path d="M 147.755292 375.402106 
L 147.755292 150.710048 
" clip-path="url(#pd7b6d3fa73)" style="fill: none; stroke: #e7267a; stroke-width: 2.625; stroke-linecap: round"/>
   </g>
   <g id="line2d_68">
    <path d="M 191.475446 421.764441 
L 191.475446 211.390376 
" clip-path="url(#pd7b6d3fa73)" style="fill: none; stroke: #e7267a; stroke-width: 2.625; stroke-linecap: round"/>
   </g>
   <g id="line2d_69">
    <path d="M 235.1956 418.229552 
L 235.1956 280.980508 
" clip-path="url(#pd7b6d3fa73)" style="fill: none; stroke: #e7267a; stroke-width: 2.625; stroke-linecap: round"/>
   </g>
   <g id="line2d_70">
    <path d="M 278.915753 408.710739 
L 278.915753 222.971603 
" clip-path="url(#pd7b6d3fa73)" style="fill: none; stroke: #e7267a; stroke-width: 2.625; stroke-linecap: round"/>
   </g>
   <g id="line2d_71">
    <path d="M 322.635907 391.39921 
L 322.635907 116.965545 
" clip-path="url(#pd7b6d3fa73)" style="fill: none; stroke: #e7267a; stroke-width: 2.625; stroke-linecap: round"/>
   </g>
   <g id="line2d_72">
    <path d="M 366.356061 403.604847 
L 366.356061 289.628172 
" clip-path="url(#pd7b6d3fa73)" style="fill: none; stroke: #e7267a; stroke-width: 2.625; stroke-linecap: round"/>
   </g>
   <g id="line2d_73">
    <path d="M 410.076215 429.498487 
L 410.076215 311.550115 
" clip-path="url(#pd7b6d3fa73)" style="fill: none; stroke: #e7267a; stroke-width: 2.625; stroke-linecap: round"/>
   </g>
   <g id="line2d_74">
    <path d="M 453.796369 412.589679 
L 453.796369 320.204698 
" clip-path="url(#pd7b6d3fa73)" style="fill: none; stroke: #e7267a; stroke-width: 2.625; stroke-linecap: round"/>
   </g>
   <g id="line2d_75">
    <path d="M 497.516523 451.4391 
L 497.516523 356.273477 
" clip-path="url(#pd7b6d3fa73)" style="fill: none; stroke: #e7267a; stroke-width: 2.625; stroke-linecap: round"/>
   </g>
   <g id="line2d_76">
    <path d="M 541.236677 466.461032 
L 541.236677 345.854171 
" clip-path="url(#pd7b6d3fa73)" style="fill: none; stroke: #e7267a; stroke-width: 2.625; stroke-linecap: round"/>
   </g>
   <g id="line2d_77">
    <path d="M 584.95683 436.874732 
L 584.95683 328.223866 
" clip-path="url(#pd7b6d3fa73)" style="fill: none; stroke: #e7267a; stroke-width: 2.625; stroke-linecap: round"/>
   </g>
   <g id="line2d_78">
    <path d="M 628.676984 444.646831 
L 628.676984 260.313765 
" clip-path="url(#pd7b6d3fa73)" style="fill: none; stroke: #e7267a; stroke-width: 2.625; stroke-linecap: round"/>
   </g>
   <g id="line2d_79">
    <path d="M 672.397138 463.101768 
L 672.397138 370.056967 
" clip-path="url(#pd7b6d3fa73)" style="fill: none; stroke: #e7267a; stroke-width: 2.625; stroke-linecap: round"/>
   </g>
   <g id="line2d_80">
    <path d="M 716.117292 436.403383 
L 716.117292 337.706001 
" clip-path="url(#pd7b6d3fa73)" style="fill: none; stroke: #e7267a; stroke-width: 2.625; stroke-linecap: round"/>
   </g>
   <g id="line2d_81">
    <path d="M 759.837446 470.512276 
L 759.837446 365.718185 
" clip-path="url(#pd7b6d3fa73)" style="fill: none; stroke: #e7267a; stroke-width: 2.625; stroke-linecap: round"/>
   </g>
   <g id="line2d_82">
    <path d="M 803.5576 480.362659 
L 803.5576 411.375973 
" clip-path="url(#pd7b6d3fa73)" style="fill: none; stroke: #e7267a; stroke-width: 2.625; stroke-linecap: round"/>
   </g>
   <g id="line2d_83">
    <path d="M 847.277754 431.3733 
L 847.277754 329.655925 
" clip-path="url(#pd7b6d3fa73)" style="fill: none; stroke: #e7267a; stroke-width: 2.625; stroke-linecap: round"/>
   </g>
   <g id="line2d_84">
    <path d="M 890.997907 468.413948 
L 890.997907 345.660121 
" clip-path="url(#pd7b6d3fa73)" style="fill: none; stroke: #e7267a; stroke-width: 2.625; stroke-linecap: round"/>
   </g>
   <g id="line2d_85">
    <path d="M 934.718061 492.178892 
L 934.718061 399.403724 
" clip-path="url(#pd7b6d3fa73)" style="fill: none; stroke: #e7267a; stroke-width: 2.625; stroke-linecap: round"/>
   </g>
   <g id="line2d_86">
    <path d="M 978.438215 456.801987 
L 978.438215 337.728477 
" clip-path="url(#pd7b6d3fa73)" style="fill: none; stroke: #e7267a; stroke-width: 2.625; stroke-linecap: round"/>
   </g>
   <g id="line2d_87">
    <path d="M 1022.158369 457.056567 
L 1022.158369 368.053483 
" clip-path="url(#pd7b6d3fa73)" style="fill: none; stroke: #e7267a; stroke-width: 2.625; stroke-linecap: round"/>
   </g>
   <g id="line2d_88">
    <path d="M 147.755292 315.894309 
L 156.587646 317.15201 
L 165.42 318.409711 
L 174.252355 319.667412 
L 183.084709 320.925113 
L 191.917063 322.182814 
L 200.749418 323.440515 
L 209.581772 324.698215 
L 218.414126 325.955916 
L 227.246481 327.213617 
L 236.078835 328.471318 
L 244.911189 329.729019 
L 253.743544 330.98672 
L 262.575898 332.244421 
L 271.408252 333.502122 
L 280.240607 334.759823 
L 289.072961 336.017524 
L 297.905315 337.275225 
L 306.73767 338.532925 
L 315.570024 339.790626 
L 324.402378 341.048327 
L 333.234732 342.306028 
L 342.067087 343.563729 
L 350.899441 344.82143 
L 359.731795 346.079131 
L 368.56415 347.336832 
L 377.396504 348.594533 
L 386.228858 349.852234 
L 395.061213 351.109935 
L 403.893567 352.367636 
L 412.725921 353.625336 
L 421.558276 354.883037 
L 430.39063 356.140738 
L 439.222984 357.398439 
L 448.055339 358.65614 
L 456.887693 359.913841 
L 465.720047 361.171542 
L 474.552402 362.429243 
L 483.384756 363.686944 
L 492.21711 364.944645 
L 501.049464 366.202346 
L 509.881819 367.460046 
L 518.714173 368.717747 
L 527.546527 369.975448 
L 536.378882 371.233149 
L 545.211236 372.49085 
L 554.04359 373.748551 
L 562.875945 375.006252 
L 571.708299 376.263953 
L 580.540653 377.521654 
L 589.373008 378.779355 
L 598.205362 380.037056 
L 607.037716 381.294756 
L 615.870071 382.552457 
L 624.702425 383.810158 
L 633.534779 385.067859 
L 642.367134 386.32556 
L 651.199488 387.583261 
L 660.031842 388.840962 
L 668.864196 390.098663 
L 677.696551 391.356364 
L 686.528905 392.614065 
L 695.361259 393.871766 
L 704.193614 395.129466 
L 713.025968 396.387167 
L 721.858322 397.644868 
L 730.690677 398.902569 
L 739.523031 400.16027 
L 748.355385 401.417971 
L 757.18774 402.675672 
L 766.020094 403.933373 
L 774.852448 405.191074 
L 783.684803 406.448775 
L 792.517157 407.706476 
L 801.349511 408.964176 
L 810.181866 410.221877 
L 819.01422 411.479578 
L 827.846574 412.737279 
L 836.678928 413.99498 
L 845.511283 415.252681 
L 854.343637 416.510382 
L 863.175991 417.768083 
L 872.008346 419.025784 
L 880.8407 420.283485 
L 889.673054 421.541186 
L 898.505409 422.798886 
L 907.337763 424.056587 
L 916.170117 425.314288 
L 925.002472 426.571989 
L 933.834826 427.82969 
L 942.66718 429.087391 
L 951.499535 430.345092 
L 960.331889 431.602793 
L 969.164243 432.860494 
L 977.996598 434.118195 
L 986.828952 435.375896 
L 995.661306 436.633596 
L 1004.49366 437.891297 
L 1013.326015 439.148998 
L 1022.158369 440.406699 
" clip-path="url(#pd7b6d3fa73)" style="fill: none; stroke: #e7267a; stroke-width: 2.25; stroke-linecap: round"/>
   </g>
   <g id="patch_3">
    <path d="M 55.942969 518.963438 
L 55.942969 26.303437 
" style="fill: none; stroke: #262626; stroke-width: 1.25; stroke-linejoin: miter; stroke-linecap: square"/>
   </g>
   <g id="patch_4">
    <path d="M 55.942969 518.963438 
L 1113.970692 518.963438 
" style="fill: none; stroke: #262626; stroke-width: 1.25; stroke-linejoin: miter; stroke-linecap: square"/>
   </g>
   <g id="text_31">
    <!-- Duration (Cleaned) over the Block -->
    <g style="fill: #262626" transform="translate(449.398549 20.303437) scale(0.18 -0.18)">
     <defs>
      <path id="ArialMT-44" d="M 494 0 
L 494 4581 
L 2072 4581 
Q 2606 4581 2888 4516 
Q 3281 4425 3559 4188 
Q 3922 3881 4101 3404 
Q 4281 2928 4281 2316 
Q 4281 1794 4159 1391 
Q 4038 988 3847 723 
Q 3656 459 3429 307 
Q 3203 156 2883 78 
Q 2563 0 2147 0 
L 494 0 
z
M 1100 541 
L 2078 541 
Q 2531 541 2789 625 
Q 3047 709 3200 863 
Q 3416 1078 3536 1442 
Q 3656 1806 3656 2325 
Q 3656 3044 3420 3430 
Q 3184 3816 2847 3947 
Q 2603 4041 2063 4041 
L 1100 4041 
L 1100 541 
z
" transform="scale(0.015625)"/>
      <path id="ArialMT-74" d="M 1650 503 
L 1731 6 
Q 1494 -44 1306 -44 
Q 1000 -44 831 53 
Q 663 150 594 308 
Q 525 466 525 972 
L 525 2881 
L 113 2881 
L 113 3319 
L 525 3319 
L 525 4141 
L 1084 4478 
L 1084 3319 
L 1650 3319 
L 1650 2881 
L 1084 2881 
L 1084 941 
Q 1084 700 1114 631 
Q 1144 563 1211 522 
Q 1278 481 1403 481 
Q 1497 481 1650 503 
z
" transform="scale(0.015625)"/>
      <path id="ArialMT-6f" d="M 213 1659 
Q 213 2581 725 3025 
Q 1153 3394 1769 3394 
Q 2453 3394 2887 2945 
Q 3322 2497 3322 1706 
Q 3322 1066 3130 698 
Q 2938 331 2570 128 
Q 2203 -75 1769 -75 
Q 1072 -75 642 372 
Q 213 819 213 1659 
z
M 791 1659 
Q 791 1022 1069 705 
Q 1347 388 1769 388 
Q 2188 388 2466 706 
Q 2744 1025 2744 1678 
Q 2744 2294 2464 2611 
Q 2184 2928 1769 2928 
Q 1347 2928 1069 2612 
Q 791 2297 791 1659 
z
" transform="scale(0.015625)"/>
      <path id="ArialMT-6e" d="M 422 0 
L 422 3319 
L 928 3319 
L 928 2847 
Q 1294 3394 1984 3394 
Q 2284 3394 2536 3286 
Q 2788 3178 2913 3003 
Q 3038 2828 3088 2588 
Q 3119 2431 3119 2041 
L 3119 0 
L 2556 0 
L 2556 2019 
Q 2556 2363 2490 2533 
Q 2425 2703 2258 2804 
Q 2091 2906 1866 2906 
Q 1506 2906 1245 2678 
Q 984 2450 984 1813 
L 984 0 
L 422 0 
z
" transform="scale(0.015625)"/>
      <path id="ArialMT-43" d="M 3763 1606 
L 4369 1453 
Q 4178 706 3683 314 
Q 3188 -78 2472 -78 
Q 1731 -78 1267 223 
Q 803 525 561 1097 
Q 319 1669 319 2325 
Q 319 3041 592 3573 
Q 866 4106 1370 4382 
Q 1875 4659 2481 4659 
Q 3169 4659 3637 4309 
Q 4106 3959 4291 3325 
L 3694 3184 
Q 3534 3684 3231 3912 
Q 2928 4141 2469 4141 
Q 1941 4141 1586 3887 
Q 1231 3634 1087 3207 
Q 944 2781 944 2328 
Q 944 1744 1114 1308 
Q 1284 872 1643 656 
Q 2003 441 2422 441 
Q 2931 441 3284 734 
Q 3638 1028 3763 1606 
z
" transform="scale(0.015625)"/>
      <path id="ArialMT-64" d="M 2575 0 
L 2575 419 
Q 2259 -75 1647 -75 
Q 1250 -75 917 144 
Q 584 363 401 755 
Q 219 1147 219 1656 
Q 219 2153 384 2558 
Q 550 2963 881 3178 
Q 1213 3394 1622 3394 
Q 1922 3394 2156 3267 
Q 2391 3141 2538 2938 
L 2538 4581 
L 3097 4581 
L 3097 0 
L 2575 0 
z
M 797 1656 
Q 797 1019 1065 703 
Q 1334 388 1700 388 
Q 2069 388 2326 689 
Q 2584 991 2584 1609 
Q 2584 2291 2321 2609 
Q 2059 2928 1675 2928 
Q 1300 2928 1048 2622 
Q 797 2316 797 1656 
z
" transform="scale(0.015625)"/>
      <path id="ArialMT-76" d="M 1344 0 
L 81 3319 
L 675 3319 
L 1388 1331 
Q 1503 1009 1600 663 
Q 1675 925 1809 1294 
L 2547 3319 
L 3125 3319 
L 1869 0 
L 1344 0 
z
" transform="scale(0.015625)"/>
      <path id="ArialMT-68" d="M 422 0 
L 422 4581 
L 984 4581 
L 984 2938 
Q 1378 3394 1978 3394 
Q 2347 3394 2619 3248 
Q 2891 3103 3008 2847 
Q 3125 2591 3125 2103 
L 3125 0 
L 2563 0 
L 2563 2103 
Q 2563 2525 2380 2717 
Q 2197 2909 1863 2909 
Q 1613 2909 1392 2779 
Q 1172 2650 1078 2428 
Q 984 2206 984 1816 
L 984 0 
L 422 0 
z
" transform="scale(0.015625)"/>
      <path id="ArialMT-42" d="M 469 0 
L 469 4581 
L 2188 4581 
Q 2713 4581 3030 4442 
Q 3347 4303 3526 4014 
Q 3706 3725 3706 3409 
Q 3706 3116 3547 2856 
Q 3388 2597 3066 2438 
Q 3481 2316 3704 2022 
Q 3928 1728 3928 1328 
Q 3928 1006 3792 729 
Q 3656 453 3456 303 
Q 3256 153 2954 76 
Q 2653 0 2216 0 
L 469 0 
z
M 1075 2656 
L 2066 2656 
Q 2469 2656 2644 2709 
Q 2875 2778 2992 2937 
Q 3109 3097 3109 3338 
Q 3109 3566 3000 3739 
Q 2891 3913 2687 3977 
Q 2484 4041 1991 4041 
L 1075 4041 
L 1075 2656 
z
M 1075 541 
L 2216 541 
Q 2509 541 2628 563 
Q 2838 600 2978 687 
Q 3119 775 3209 942 
Q 3300 1109 3300 1328 
Q 3300 1584 3169 1773 
Q 3038 1963 2805 2039 
Q 2572 2116 2134 2116 
L 1075 2116 
L 1075 541 
z
" transform="scale(0.015625)"/>
      <path id="ArialMT-63" d="M 2588 1216 
L 3141 1144 
Q 3050 572 2676 248 
Q 2303 -75 1759 -75 
Q 1078 -75 664 370 
Q 250 816 250 1647 
Q 250 2184 428 2587 
Q 606 2991 970 3192 
Q 1334 3394 1763 3394 
Q 2303 3394 2647 3120 
Q 2991 2847 3088 2344 
L 2541 2259 
Q 2463 2594 2264 2762 
Q 2066 2931 1784 2931 
Q 1359 2931 1093 2626 
Q 828 2322 828 1663 
Q 828 994 1084 691 
Q 1341 388 1753 388 
Q 2084 388 2306 591 
Q 2528 794 2588 1216 
z
" transform="scale(0.015625)"/>
      <path id="ArialMT-6b" d="M 425 0 
L 425 4581 
L 988 4581 
L 988 1969 
L 2319 3319 
L 3047 3319 
L 1778 2088 
L 3175 0 
L 2481 0 
L 1384 1697 
L 988 1316 
L 988 0 
L 425 0 
z
" transform="scale(0.015625)"/>
     </defs>
     <use xlink:href="#ArialMT-44"/>
     <use xlink:href="#ArialMT-75" x="72.216797"/>
     <use xlink:href="#ArialMT-72" x="127.832031"/>
     <use xlink:href="#ArialMT-61" x="161.132812"/>
     <use xlink:href="#ArialMT-74" x="216.748047"/>
     <use xlink:href="#ArialMT-69" x="244.53125"/>
     <use xlink:href="#ArialMT-6f" x="266.748047"/>
     <use xlink:href="#ArialMT-6e" x="322.363281"/>
     <use xlink:href="#ArialMT-20" x="377.978516"/>
     <use xlink:href="#ArialMT-28" x="405.761719"/>
     <use xlink:href="#ArialMT-43" x="439.0625"/>
     <use xlink:href="#ArialMT-6c" x="511.279297"/>
     <use xlink:href="#ArialMT-65" x="533.496094"/>
     <use xlink:href="#ArialMT-61" x="589.111328"/>
     <use xlink:href="#ArialMT-6e" x="644.726562"/>
     <use xlink:href="#ArialMT-65" x="700.341797"/>
     <use xlink:href="#ArialMT-64" x="755.957031"/>
     <use xlink:href="#ArialMT-29" x="811.572266"/>
     <use xlink:href="#ArialMT-20" x="844.873047"/>
     <use xlink:href="#ArialMT-6f" x="872.65625"/>
     <use xlink:href="#ArialMT-76" x="928.271484"/>
     <use xlink:href="#ArialMT-65" x="978.271484"/>
     <use xlink:href="#ArialMT-72" x="1033.886719"/>
     <use xlink:href="#ArialMT-20" x="1067.1875"/>
     <use xlink:href="#ArialMT-74" x="1094.970703"/>
     <use xlink:href="#ArialMT-68" x="1122.753906"/>
     <use xlink:href="#ArialMT-65" x="1178.369141"/>
     <use xlink:href="#ArialMT-20" x="1233.984375"/>
     <use xlink:href="#ArialMT-42" x="1261.767578"/>
     <use xlink:href="#ArialMT-6c" x="1328.466797"/>
     <use xlink:href="#ArialMT-6f" x="1350.683594"/>
     <use xlink:href="#ArialMT-63" x="1406.298828"/>
     <use xlink:href="#ArialMT-6b" x="1456.298828"/>
    </g>
   </g>
  </g>
  <g id="legend_1">
   <g id="text_32">
    <!-- Condition -->
    <g style="fill: #262626" transform="translate(1186.23308 243.581133) scale(0.18 -0.18)">
     <use xlink:href="#ArialMT-43"/>
     <use xlink:href="#ArialMT-6f" x="72.216797"/>
     <use xlink:href="#ArialMT-6e" x="127.832031"/>
     <use xlink:href="#ArialMT-64" x="183.447266"/>
     <use xlink:href="#ArialMT-69" x="239.0625"/>
     <use xlink:href="#ArialMT-74" x="261.279297"/>
     <use xlink:href="#ArialMT-69" x="289.0625"/>
     <use xlink:href="#ArialMT-6f" x="311.279297"/>
     <use xlink:href="#ArialMT-6e" x="366.894531"/>
    </g>
   </g>
   <g id="PathCollection_5">
    <g>
     <use xlink:href="#m2f7b3368ca" x="1141.534955" y="262.887773" style="fill: #ea5b0c; stroke: #ea5b0c"/>
    </g>
   </g>
   <g id="text_33">
    <!-- No Feedback -->
    <g style="fill: #262626" transform="translate(1171.234955 267.219023) scale(0.165 -0.165)">
     <defs>
      <path id="ArialMT-46" d="M 525 0 
L 525 4581 
L 3616 4581 
L 3616 4041 
L 1131 4041 
L 1131 2622 
L 3281 2622 
L 3281 2081 
L 1131 2081 
L 1131 0 
L 525 0 
z
" transform="scale(0.015625)"/>
     </defs>
     <use xlink:href="#ArialMT-4e"/>
     <use xlink:href="#ArialMT-6f" x="72.216797"/>
     <use xlink:href="#ArialMT-20" x="127.832031"/>
     <use xlink:href="#ArialMT-46" x="155.615234"/>
     <use xlink:href="#ArialMT-65" x="216.699219"/>
     <use xlink:href="#ArialMT-65" x="272.314453"/>
     <use xlink:href="#ArialMT-64" x="327.929688"/>
     <use xlink:href="#ArialMT-62" x="383.544922"/>
     <use xlink:href="#ArialMT-61" x="439.160156"/>
     <use xlink:href="#ArialMT-63" x="494.775391"/>
     <use xlink:href="#ArialMT-6b" x="544.775391"/>
    </g>
   </g>
   <g id="PathCollection_6">
    <g>
     <use xlink:href="#m79763a03c6" x="1141.534955" y="286.227539" style="fill: #1d71b8; stroke: #1d71b8"/>
    </g>
   </g>
   <g id="text_34">
    <!-- Tactile Feedback -->
    <g style="fill: #262626" transform="translate(1171.234955 290.558789) scale(0.165 -0.165)">
     <use xlink:href="#ArialMT-54"/>
     <use xlink:href="#ArialMT-61" x="49.958984"/>
     <use xlink:href="#ArialMT-63" x="105.574219"/>
     <use xlink:href="#ArialMT-74" x="155.574219"/>
     <use xlink:href="#ArialMT-69" x="183.357422"/>
     <use xlink:href="#ArialMT-6c" x="205.574219"/>
     <use xlink:href="#ArialMT-65" x="227.791016"/>
     <use xlink:href="#ArialMT-20" x="283.40625"/>
     <use xlink:href="#ArialMT-46" x="311.189453"/>
     <use xlink:href="#ArialMT-65" x="372.273438"/>
     <use xlink:href="#ArialMT-65" x="427.888672"/>
     <use xlink:href="#ArialMT-64" x="483.503906"/>
     <use xlink:href="#ArialMT-62" x="539.119141"/>
     <use xlink:href="#ArialMT-61" x="594.734375"/>
     <use xlink:href="#ArialMT-63" x="650.349609"/>
     <use xlink:href="#ArialMT-6b" x="700.349609"/>
    </g>
   </g>
   <g id="PathCollection_7">
    <g>
     <use xlink:href="#m552779e51e" x="1141.534955" y="309.567305" style="fill: #3aaa35; stroke: #3aaa35"/>
    </g>
   </g>
   <g id="text_35">
    <!-- Visual Feedback -->
    <g style="fill: #262626" transform="translate(1171.234955 313.898555) scale(0.165 -0.165)">
     <defs>
      <path id="ArialMT-56" d="M 1803 0 
L 28 4581 
L 684 4581 
L 1875 1253 
Q 2019 853 2116 503 
Q 2222 878 2363 1253 
L 3600 4581 
L 4219 4581 
L 2425 0 
L 1803 0 
z
" transform="scale(0.015625)"/>
     </defs>
     <use xlink:href="#ArialMT-56"/>
     <use xlink:href="#ArialMT-69" x="64.949219"/>
     <use xlink:href="#ArialMT-73" x="87.166016"/>
     <use xlink:href="#ArialMT-75" x="137.166016"/>
     <use xlink:href="#ArialMT-61" x="192.78125"/>
     <use xlink:href="#ArialMT-6c" x="248.396484"/>
     <use xlink:href="#ArialMT-20" x="270.613281"/>
     <use xlink:href="#ArialMT-46" x="298.396484"/>
     <use xlink:href="#ArialMT-65" x="359.480469"/>
     <use xlink:href="#ArialMT-65" x="415.095703"/>
     <use xlink:href="#ArialMT-64" x="470.710938"/>
     <use xlink:href="#ArialMT-62" x="526.326172"/>
     <use xlink:href="#ArialMT-61" x="581.941406"/>
     <use xlink:href="#ArialMT-63" x="637.556641"/>
     <use xlink:href="#ArialMT-6b" x="687.556641"/>
    </g>
   </g>
   <g id="PathCollection_8">
    <g>
     <use xlink:href="#m00b41758c7" x="1141.534955" y="332.90707" style="fill: #e7267a; stroke: #e7267a"/>
    </g>
   </g>
   <g id="text_36">
    <!-- Combined Feedback -->
    <g style="fill: #262626" transform="translate(1171.234955 337.23832) scale(0.165 -0.165)">
     <use xlink:href="#ArialMT-43"/>
     <use xlink:href="#ArialMT-6f" x="72.216797"/>
     <use xlink:href="#ArialMT-6d" x="127.832031"/>
     <use xlink:href="#ArialMT-62" x="211.132812"/>
     <use xlink:href="#ArialMT-69" x="266.748047"/>
     <use xlink:href="#ArialMT-6e" x="288.964844"/>
     <use xlink:href="#ArialMT-65" x="344.580078"/>
     <use xlink:href="#ArialMT-64" x="400.195312"/>
     <use xlink:href="#ArialMT-20" x="455.810547"/>
     <use xlink:href="#ArialMT-46" x="483.59375"/>
     <use xlink:href="#ArialMT-65" x="544.677734"/>
     <use xlink:href="#ArialMT-65" x="600.292969"/>
     <use xlink:href="#ArialMT-64" x="655.908203"/>
     <use xlink:href="#ArialMT-62" x="711.523438"/>
     <use xlink:href="#ArialMT-61" x="767.138672"/>
     <use xlink:href="#ArialMT-63" x="822.753906"/>
     <use xlink:href="#ArialMT-6b" x="872.753906"/>
    </g>
   </g>
  </g>
 </g>
 <defs>
  <clipPath id="pd7b6d3fa73">
   <rect x="55.942969" y="26.303437" width="1058.027723" height="492.66"/>
  </clipPath>
 </defs>
</svg>
