<?xml version="1.0" encoding="utf-8" standalone="no"?>
<!DOCTYPE svg PUBLIC "-//W3C//DTD SVG 1.1//EN"
  "http://www.w3.org/Graphics/SVG/1.1/DTD/svg11.dtd">
<!-- Created with matplotlib (https://matplotlib.org/) -->
<svg height="576pt" version="1.1" viewBox="0 0 1800 576" width="1800pt" xmlns="http://www.w3.org/2000/svg" xmlns:xlink="http://www.w3.org/1999/xlink">
 <metadata>
  <rdf:RDF xmlns:cc="http://creativecommons.org/ns#" xmlns:dc="http://purl.org/dc/elements/1.1/" xmlns:rdf="http://www.w3.org/1999/02/22-rdf-syntax-ns#">
   <cc:Work>
    <dc:type rdf:resource="http://purl.org/dc/dcmitype/StillImage"/>
    <dc:date>2023-06-08T14:12:17.467248</dc:date>
    <dc:format>image/svg+xml</dc:format>
    <dc:creator>
     <cc:Agent>
      <dc:title>Matplotlib v3.3.4, https://matplotlib.org/</dc:title>
     </cc:Agent>
    </dc:creator>
   </cc:Work>
  </rdf:RDF>
 </metadata>
 <defs>
  <style type="text/css">*{stroke-linecap:butt;stroke-linejoin:round;}</style>
 </defs>
 <g id="figure_1">
  <g id="patch_1">
   <path d="M 0 576 
L 1800 576 
L 1800 0 
L 0 0 
z
" style="fill:#ffffff;"/>
  </g>
  <g id="axes_1">
   <g id="patch_2">
    <path d="M 225 504 
L 1620 504 
L 1620 69.12 
L 225 69.12 
z
" style="fill:#eaeaf2;"/>
   </g>
   <g id="matplotlib.axis_1">
    <g id="xtick_1">
     <g id="line2d_1">
      <path clip-path="url(#p1264bc7a8e)" d="M 283.366618 504 
L 283.366618 69.12 
" style="fill:none;stroke:#ffffff;stroke-linecap:round;"/>
     </g>
     <g id="text_1">
      <!-- 0 -->
      <g style="fill:#262626;" transform="translate(280.308103 521.373594)scale(0.11 -0.11)">
       <defs>
        <path d="M 4.15625 35.296875 
Q 4.15625 48 6.765625 55.734375 
Q 9.375 63.484375 14.515625 67.671875 
Q 19.671875 71.875 27.484375 71.875 
Q 33.25 71.875 37.59375 69.546875 
Q 41.9375 67.234375 44.765625 62.859375 
Q 47.609375 58.5 49.21875 52.21875 
Q 50.828125 45.953125 50.828125 35.296875 
Q 50.828125 22.703125 48.234375 14.96875 
Q 45.65625 7.234375 40.5 3 
Q 35.359375 -1.21875 27.484375 -1.21875 
Q 17.140625 -1.21875 11.234375 6.203125 
Q 4.15625 15.140625 4.15625 35.296875 
z
M 13.1875 35.296875 
Q 13.1875 17.671875 17.3125 11.828125 
Q 21.4375 6 27.484375 6 
Q 33.546875 6 37.671875 11.859375 
Q 41.796875 17.71875 41.796875 35.296875 
Q 41.796875 52.984375 37.671875 58.78125 
Q 33.546875 64.59375 27.390625 64.59375 
Q 21.34375 64.59375 17.71875 59.46875 
Q 13.1875 52.9375 13.1875 35.296875 
z
" id="ArialMT-48"/>
       </defs>
       <use xlink:href="#ArialMT-48"/>
      </g>
     </g>
    </g>
    <g id="xtick_2">
     <g id="line2d_2">
      <path clip-path="url(#p1264bc7a8e)" d="M 535.49024 504 
L 535.49024 69.12 
" style="fill:none;stroke:#ffffff;stroke-linecap:round;"/>
     </g>
     <g id="text_2">
      <!-- 100 -->
      <g style="fill:#262626;" transform="translate(526.314694 521.373594)scale(0.11 -0.11)">
       <defs>
        <path d="M 37.25 0 
L 28.46875 0 
L 28.46875 56 
Q 25.296875 52.984375 20.140625 49.953125 
Q 14.984375 46.921875 10.890625 45.40625 
L 10.890625 53.90625 
Q 18.265625 57.375 23.78125 62.296875 
Q 29.296875 67.234375 31.59375 71.875 
L 37.25 71.875 
z
" id="ArialMT-49"/>
       </defs>
       <use xlink:href="#ArialMT-49"/>
       <use x="55.615234" xlink:href="#ArialMT-48"/>
       <use x="111.230469" xlink:href="#ArialMT-48"/>
      </g>
     </g>
    </g>
    <g id="xtick_3">
     <g id="line2d_3">
      <path clip-path="url(#p1264bc7a8e)" d="M 787.613862 504 
L 787.613862 69.12 
" style="fill:none;stroke:#ffffff;stroke-linecap:round;"/>
     </g>
     <g id="text_3">
      <!-- 200 -->
      <g style="fill:#262626;" transform="translate(778.438315 521.373594)scale(0.11 -0.11)">
       <defs>
        <path d="M 50.34375 8.453125 
L 50.34375 0 
L 3.03125 0 
Q 2.9375 3.171875 4.046875 6.109375 
Q 5.859375 10.9375 9.828125 15.625 
Q 13.8125 20.3125 21.34375 26.46875 
Q 33.015625 36.03125 37.109375 41.625 
Q 41.21875 47.21875 41.21875 52.203125 
Q 41.21875 57.421875 37.46875 61 
Q 33.734375 64.59375 27.734375 64.59375 
Q 21.390625 64.59375 17.578125 60.78125 
Q 13.765625 56.984375 13.71875 50.25 
L 4.6875 51.171875 
Q 5.609375 61.28125 11.65625 66.578125 
Q 17.71875 71.875 27.9375 71.875 
Q 38.234375 71.875 44.234375 66.15625 
Q 50.25 60.453125 50.25 52 
Q 50.25 47.703125 48.484375 43.546875 
Q 46.734375 39.40625 42.65625 34.8125 
Q 38.578125 30.21875 29.109375 22.21875 
Q 21.1875 15.578125 18.9375 13.203125 
Q 16.703125 10.84375 15.234375 8.453125 
z
" id="ArialMT-50"/>
       </defs>
       <use xlink:href="#ArialMT-50"/>
       <use x="55.615234" xlink:href="#ArialMT-48"/>
       <use x="111.230469" xlink:href="#ArialMT-48"/>
      </g>
     </g>
    </g>
    <g id="xtick_4">
     <g id="line2d_4">
      <path clip-path="url(#p1264bc7a8e)" d="M 1039.737484 504 
L 1039.737484 69.12 
" style="fill:none;stroke:#ffffff;stroke-linecap:round;"/>
     </g>
     <g id="text_4">
      <!-- 300 -->
      <g style="fill:#262626;" transform="translate(1030.561937 521.373594)scale(0.11 -0.11)">
       <defs>
        <path d="M 4.203125 18.890625 
L 12.984375 20.0625 
Q 14.5 12.59375 18.140625 9.296875 
Q 21.78125 6 27 6 
Q 33.203125 6 37.46875 10.296875 
Q 41.75 14.59375 41.75 20.953125 
Q 41.75 27 37.796875 30.921875 
Q 33.84375 34.859375 27.734375 34.859375 
Q 25.25 34.859375 21.53125 33.890625 
L 22.515625 41.609375 
Q 23.390625 41.5 23.921875 41.5 
Q 29.546875 41.5 34.03125 44.421875 
Q 38.53125 47.359375 38.53125 53.46875 
Q 38.53125 58.296875 35.25 61.46875 
Q 31.984375 64.65625 26.8125 64.65625 
Q 21.6875 64.65625 18.265625 61.421875 
Q 14.84375 58.203125 13.875 51.765625 
L 5.078125 53.328125 
Q 6.6875 62.15625 12.390625 67.015625 
Q 18.109375 71.875 26.609375 71.875 
Q 32.46875 71.875 37.390625 69.359375 
Q 42.328125 66.84375 44.9375 62.5 
Q 47.5625 58.15625 47.5625 53.265625 
Q 47.5625 48.640625 45.0625 44.828125 
Q 42.578125 41.015625 37.703125 38.765625 
Q 44.046875 37.3125 47.5625 32.6875 
Q 51.078125 28.078125 51.078125 21.140625 
Q 51.078125 11.765625 44.234375 5.25 
Q 37.40625 -1.265625 26.953125 -1.265625 
Q 17.53125 -1.265625 11.296875 4.34375 
Q 5.078125 9.96875 4.203125 18.890625 
z
" id="ArialMT-51"/>
       </defs>
       <use xlink:href="#ArialMT-51"/>
       <use x="55.615234" xlink:href="#ArialMT-48"/>
       <use x="111.230469" xlink:href="#ArialMT-48"/>
      </g>
     </g>
    </g>
    <g id="xtick_5">
     <g id="line2d_5">
      <path clip-path="url(#p1264bc7a8e)" d="M 1291.861106 504 
L 1291.861106 69.12 
" style="fill:none;stroke:#ffffff;stroke-linecap:round;"/>
     </g>
     <g id="text_5">
      <!-- 400 -->
      <g style="fill:#262626;" transform="translate(1282.685559 521.373594)scale(0.11 -0.11)">
       <defs>
        <path d="M 32.328125 0 
L 32.328125 17.140625 
L 1.265625 17.140625 
L 1.265625 25.203125 
L 33.9375 71.578125 
L 41.109375 71.578125 
L 41.109375 25.203125 
L 50.78125 25.203125 
L 50.78125 17.140625 
L 41.109375 17.140625 
L 41.109375 0 
z
M 32.328125 25.203125 
L 32.328125 57.46875 
L 9.90625 25.203125 
z
" id="ArialMT-52"/>
       </defs>
       <use xlink:href="#ArialMT-52"/>
       <use x="55.615234" xlink:href="#ArialMT-48"/>
       <use x="111.230469" xlink:href="#ArialMT-48"/>
      </g>
     </g>
    </g>
    <g id="xtick_6">
     <g id="line2d_6">
      <path clip-path="url(#p1264bc7a8e)" d="M 1543.984728 504 
L 1543.984728 69.12 
" style="fill:none;stroke:#ffffff;stroke-linecap:round;"/>
     </g>
     <g id="text_6">
      <!-- 500 -->
      <g style="fill:#262626;" transform="translate(1534.809181 521.373594)scale(0.11 -0.11)">
       <defs>
        <path d="M 4.15625 18.75 
L 13.375 19.53125 
Q 14.40625 12.796875 18.140625 9.390625 
Q 21.875 6 27.15625 6 
Q 33.5 6 37.890625 10.78125 
Q 42.28125 15.578125 42.28125 23.484375 
Q 42.28125 31 38.0625 35.34375 
Q 33.84375 39.703125 27 39.703125 
Q 22.75 39.703125 19.328125 37.765625 
Q 15.921875 35.84375 13.96875 32.765625 
L 5.71875 33.84375 
L 12.640625 70.609375 
L 48.25 70.609375 
L 48.25 62.203125 
L 19.671875 62.203125 
L 15.828125 42.96875 
Q 22.265625 47.46875 29.34375 47.46875 
Q 38.71875 47.46875 45.15625 40.96875 
Q 51.609375 34.46875 51.609375 24.265625 
Q 51.609375 14.546875 45.953125 7.46875 
Q 39.0625 -1.21875 27.15625 -1.21875 
Q 17.390625 -1.21875 11.203125 4.25 
Q 5.03125 9.71875 4.15625 18.75 
z
" id="ArialMT-53"/>
       </defs>
       <use xlink:href="#ArialMT-53"/>
       <use x="55.615234" xlink:href="#ArialMT-48"/>
       <use x="111.230469" xlink:href="#ArialMT-48"/>
      </g>
     </g>
    </g>
    <g id="text_7">
     <!-- Trial -->
     <g style="fill:#262626;" transform="translate(911.059687 536.149219)scale(0.12 -0.12)">
      <defs>
       <path d="M 25.921875 0 
L 25.921875 63.140625 
L 2.34375 63.140625 
L 2.34375 71.578125 
L 59.078125 71.578125 
L 59.078125 63.140625 
L 35.40625 63.140625 
L 35.40625 0 
z
" id="ArialMT-84"/>
       <path d="M 6.5 0 
L 6.5 51.859375 
L 14.40625 51.859375 
L 14.40625 44 
Q 17.4375 49.515625 20 51.265625 
Q 22.5625 53.03125 25.640625 53.03125 
Q 30.078125 53.03125 34.671875 50.203125 
L 31.640625 42.046875 
Q 28.421875 43.953125 25.203125 43.953125 
Q 22.3125 43.953125 20.015625 42.21875 
Q 17.71875 40.484375 16.75 37.40625 
Q 15.28125 32.71875 15.28125 27.15625 
L 15.28125 0 
z
" id="ArialMT-114"/>
       <path d="M 6.640625 61.46875 
L 6.640625 71.578125 
L 15.4375 71.578125 
L 15.4375 61.46875 
z
M 6.640625 0 
L 6.640625 51.859375 
L 15.4375 51.859375 
L 15.4375 0 
z
" id="ArialMT-105"/>
       <path d="M 40.4375 6.390625 
Q 35.546875 2.25 31.03125 0.53125 
Q 26.515625 -1.171875 21.34375 -1.171875 
Q 12.796875 -1.171875 8.203125 3 
Q 3.609375 7.171875 3.609375 13.671875 
Q 3.609375 17.484375 5.34375 20.625 
Q 7.078125 23.78125 9.890625 25.6875 
Q 12.703125 27.59375 16.21875 28.5625 
Q 18.796875 29.25 24.03125 29.890625 
Q 34.671875 31.15625 39.703125 32.90625 
Q 39.75 34.71875 39.75 35.203125 
Q 39.75 40.578125 37.25 42.78125 
Q 33.890625 45.75 27.25 45.75 
Q 21.046875 45.75 18.09375 43.578125 
Q 15.140625 41.40625 13.71875 35.890625 
L 5.125 37.0625 
Q 6.296875 42.578125 8.984375 45.96875 
Q 11.671875 49.359375 16.75 51.1875 
Q 21.828125 53.03125 28.515625 53.03125 
Q 35.15625 53.03125 39.296875 51.46875 
Q 43.453125 49.90625 45.40625 47.53125 
Q 47.359375 45.171875 48.140625 41.546875 
Q 48.578125 39.3125 48.578125 33.453125 
L 48.578125 21.734375 
Q 48.578125 9.46875 49.140625 6.21875 
Q 49.703125 2.984375 51.375 0 
L 42.1875 0 
Q 40.828125 2.734375 40.4375 6.390625 
z
M 39.703125 26.03125 
Q 34.90625 24.078125 25.34375 22.703125 
Q 19.921875 21.921875 17.671875 20.9375 
Q 15.4375 19.96875 14.203125 18.09375 
Q 12.984375 16.21875 12.984375 13.921875 
Q 12.984375 10.40625 15.640625 8.0625 
Q 18.3125 5.71875 23.4375 5.71875 
Q 28.515625 5.71875 32.46875 7.9375 
Q 36.421875 10.15625 38.28125 14.015625 
Q 39.703125 17 39.703125 22.796875 
z
" id="ArialMT-97"/>
       <path d="M 6.390625 0 
L 6.390625 71.578125 
L 15.1875 71.578125 
L 15.1875 0 
z
" id="ArialMT-108"/>
      </defs>
      <use xlink:href="#ArialMT-84"/>
      <use x="57.333984" xlink:href="#ArialMT-114"/>
      <use x="90.634766" xlink:href="#ArialMT-105"/>
      <use x="112.851562" xlink:href="#ArialMT-97"/>
      <use x="168.466797" xlink:href="#ArialMT-108"/>
     </g>
    </g>
   </g>
   <g id="matplotlib.axis_2">
    <g id="ytick_1">
     <g id="line2d_7">
      <path clip-path="url(#p1264bc7a8e)" d="M 225 455.142583 
L 1620 455.142583 
" style="fill:none;stroke:#ffffff;stroke-linecap:round;"/>
     </g>
     <g id="text_8">
      <!-- 20 -->
      <g style="fill:#262626;" transform="translate(203.265938 459.07938)scale(0.11 -0.11)">
       <use xlink:href="#ArialMT-50"/>
       <use x="55.615234" xlink:href="#ArialMT-48"/>
      </g>
     </g>
    </g>
    <g id="ytick_2">
     <g id="line2d_8">
      <path clip-path="url(#p1264bc7a8e)" d="M 225 390.954269 
L 1620 390.954269 
" style="fill:none;stroke:#ffffff;stroke-linecap:round;"/>
     </g>
     <g id="text_9">
      <!-- 40 -->
      <g style="fill:#262626;" transform="translate(203.265938 394.891066)scale(0.11 -0.11)">
       <use xlink:href="#ArialMT-52"/>
       <use x="55.615234" xlink:href="#ArialMT-48"/>
      </g>
     </g>
    </g>
    <g id="ytick_3">
     <g id="line2d_9">
      <path clip-path="url(#p1264bc7a8e)" d="M 225 326.765955 
L 1620 326.765955 
" style="fill:none;stroke:#ffffff;stroke-linecap:round;"/>
     </g>
     <g id="text_10">
      <!-- 60 -->
      <g style="fill:#262626;" transform="translate(203.265938 330.702752)scale(0.11 -0.11)">
       <defs>
        <path d="M 49.75 54.046875 
L 41.015625 53.375 
Q 39.84375 58.546875 37.703125 60.890625 
Q 34.125 64.65625 28.90625 64.65625 
Q 24.703125 64.65625 21.53125 62.3125 
Q 17.390625 59.28125 14.984375 53.46875 
Q 12.59375 47.65625 12.5 36.921875 
Q 15.671875 41.75 20.265625 44.09375 
Q 24.859375 46.4375 29.890625 46.4375 
Q 38.671875 46.4375 44.84375 39.96875 
Q 51.03125 33.5 51.03125 23.25 
Q 51.03125 16.5 48.125 10.71875 
Q 45.21875 4.9375 40.140625 1.859375 
Q 35.0625 -1.21875 28.609375 -1.21875 
Q 17.625 -1.21875 10.6875 6.859375 
Q 3.765625 14.9375 3.765625 33.5 
Q 3.765625 54.25 11.421875 63.671875 
Q 18.109375 71.875 29.4375 71.875 
Q 37.890625 71.875 43.28125 67.140625 
Q 48.6875 62.40625 49.75 54.046875 
z
M 13.875 23.1875 
Q 13.875 18.65625 15.796875 14.5 
Q 17.71875 10.359375 21.1875 8.171875 
Q 24.65625 6 28.46875 6 
Q 34.03125 6 38.03125 10.484375 
Q 42.046875 14.984375 42.046875 22.703125 
Q 42.046875 30.125 38.078125 34.390625 
Q 34.125 38.671875 28.125 38.671875 
Q 22.171875 38.671875 18.015625 34.390625 
Q 13.875 30.125 13.875 23.1875 
z
" id="ArialMT-54"/>
       </defs>
       <use xlink:href="#ArialMT-54"/>
       <use x="55.615234" xlink:href="#ArialMT-48"/>
      </g>
     </g>
    </g>
    <g id="ytick_4">
     <g id="line2d_10">
      <path clip-path="url(#p1264bc7a8e)" d="M 225 262.577641 
L 1620 262.577641 
" style="fill:none;stroke:#ffffff;stroke-linecap:round;"/>
     </g>
     <g id="text_11">
      <!-- 80 -->
      <g style="fill:#262626;" transform="translate(203.265938 266.514438)scale(0.11 -0.11)">
       <defs>
        <path d="M 17.671875 38.8125 
Q 12.203125 40.828125 9.5625 44.53125 
Q 6.9375 48.25 6.9375 53.421875 
Q 6.9375 61.234375 12.546875 66.546875 
Q 18.171875 71.875 27.484375 71.875 
Q 36.859375 71.875 42.578125 66.421875 
Q 48.296875 60.984375 48.296875 53.171875 
Q 48.296875 48.1875 45.671875 44.5 
Q 43.0625 40.828125 37.75 38.8125 
Q 44.34375 36.671875 47.78125 31.875 
Q 51.21875 27.09375 51.21875 20.453125 
Q 51.21875 11.28125 44.71875 5.03125 
Q 38.234375 -1.21875 27.640625 -1.21875 
Q 17.046875 -1.21875 10.546875 5.046875 
Q 4.046875 11.328125 4.046875 20.703125 
Q 4.046875 27.6875 7.59375 32.390625 
Q 11.140625 37.109375 17.671875 38.8125 
z
M 15.921875 53.71875 
Q 15.921875 48.640625 19.1875 45.40625 
Q 22.46875 42.1875 27.6875 42.1875 
Q 32.765625 42.1875 36.015625 45.375 
Q 39.265625 48.578125 39.265625 53.21875 
Q 39.265625 58.0625 35.90625 61.359375 
Q 32.5625 64.65625 27.59375 64.65625 
Q 22.5625 64.65625 19.234375 61.421875 
Q 15.921875 58.203125 15.921875 53.71875 
z
M 13.09375 20.65625 
Q 13.09375 16.890625 14.875 13.375 
Q 16.65625 9.859375 20.171875 7.921875 
Q 23.6875 6 27.734375 6 
Q 34.03125 6 38.125 10.046875 
Q 42.234375 14.109375 42.234375 20.359375 
Q 42.234375 26.703125 38.015625 30.859375 
Q 33.796875 35.015625 27.4375 35.015625 
Q 21.234375 35.015625 17.15625 30.90625 
Q 13.09375 26.8125 13.09375 20.65625 
z
" id="ArialMT-56"/>
       </defs>
       <use xlink:href="#ArialMT-56"/>
       <use x="55.615234" xlink:href="#ArialMT-48"/>
      </g>
     </g>
    </g>
    <g id="ytick_5">
     <g id="line2d_11">
      <path clip-path="url(#p1264bc7a8e)" d="M 225 198.389327 
L 1620 198.389327 
" style="fill:none;stroke:#ffffff;stroke-linecap:round;"/>
     </g>
     <g id="text_12">
      <!-- 100 -->
      <g style="fill:#262626;" transform="translate(197.148906 202.326124)scale(0.11 -0.11)">
       <use xlink:href="#ArialMT-49"/>
       <use x="55.615234" xlink:href="#ArialMT-48"/>
       <use x="111.230469" xlink:href="#ArialMT-48"/>
      </g>
     </g>
    </g>
    <g id="ytick_6">
     <g id="line2d_12">
      <path clip-path="url(#p1264bc7a8e)" d="M 225 134.201013 
L 1620 134.201013 
" style="fill:none;stroke:#ffffff;stroke-linecap:round;"/>
     </g>
     <g id="text_13">
      <!-- 120 -->
      <g style="fill:#262626;" transform="translate(197.148906 138.13781)scale(0.11 -0.11)">
       <use xlink:href="#ArialMT-49"/>
       <use x="55.615234" xlink:href="#ArialMT-50"/>
       <use x="111.230469" xlink:href="#ArialMT-48"/>
      </g>
     </g>
    </g>
    <g id="ytick_7">
     <g id="line2d_13">
      <path clip-path="url(#p1264bc7a8e)" d="M 225 70.012699 
L 1620 70.012699 
" style="fill:none;stroke:#ffffff;stroke-linecap:round;"/>
     </g>
     <g id="text_14">
      <!-- 140 -->
      <g style="fill:#262626;" transform="translate(197.148906 73.949496)scale(0.11 -0.11)">
       <use xlink:href="#ArialMT-49"/>
       <use x="55.615234" xlink:href="#ArialMT-52"/>
       <use x="111.230469" xlink:href="#ArialMT-48"/>
      </g>
     </g>
    </g>
    <g id="text_15">
     <!-- Time (s) -->
     <g style="fill:#262626;" transform="translate(190.623281 308.329687)rotate(-90)scale(0.12 -0.12)">
      <defs>
       <path d="M 6.59375 0 
L 6.59375 51.859375 
L 14.453125 51.859375 
L 14.453125 44.578125 
Q 16.890625 48.390625 20.9375 50.703125 
Q 25 53.03125 30.171875 53.03125 
Q 35.9375 53.03125 39.625 50.640625 
Q 43.3125 48.25 44.828125 43.953125 
Q 50.984375 53.03125 60.84375 53.03125 
Q 68.5625 53.03125 72.703125 48.75 
Q 76.859375 44.484375 76.859375 35.59375 
L 76.859375 0 
L 68.109375 0 
L 68.109375 32.671875 
Q 68.109375 37.9375 67.25 40.25 
Q 66.40625 42.578125 64.15625 43.984375 
Q 61.921875 45.40625 58.890625 45.40625 
Q 53.421875 45.40625 49.796875 41.765625 
Q 46.1875 38.140625 46.1875 30.125 
L 46.1875 0 
L 37.40625 0 
L 37.40625 33.6875 
Q 37.40625 39.546875 35.25 42.46875 
Q 33.109375 45.40625 28.21875 45.40625 
Q 24.515625 45.40625 21.359375 43.453125 
Q 18.21875 41.5 16.796875 37.734375 
Q 15.375 33.984375 15.375 26.90625 
L 15.375 0 
z
" id="ArialMT-109"/>
       <path d="M 42.09375 16.703125 
L 51.171875 15.578125 
Q 49.03125 7.625 43.21875 3.21875 
Q 37.40625 -1.171875 28.375 -1.171875 
Q 17 -1.171875 10.328125 5.828125 
Q 3.65625 12.84375 3.65625 25.484375 
Q 3.65625 38.578125 10.390625 45.796875 
Q 17.140625 53.03125 27.875 53.03125 
Q 38.28125 53.03125 44.875 45.953125 
Q 51.46875 38.875 51.46875 26.03125 
Q 51.46875 25.25 51.421875 23.6875 
L 12.75 23.6875 
Q 13.234375 15.140625 17.578125 10.59375 
Q 21.921875 6.0625 28.421875 6.0625 
Q 33.25 6.0625 36.671875 8.59375 
Q 40.09375 11.140625 42.09375 16.703125 
z
M 13.234375 30.90625 
L 42.1875 30.90625 
Q 41.609375 37.453125 38.875 40.71875 
Q 34.671875 45.796875 27.984375 45.796875 
Q 21.921875 45.796875 17.796875 41.75 
Q 13.671875 37.703125 13.234375 30.90625 
z
" id="ArialMT-101"/>
       <path id="ArialMT-32"/>
       <path d="M 23.390625 -21.046875 
Q 16.109375 -11.859375 11.078125 0.4375 
Q 6.0625 12.75 6.0625 25.921875 
Q 6.0625 37.546875 9.8125 48.1875 
Q 14.203125 60.546875 23.390625 72.796875 
L 29.6875 72.796875 
Q 23.78125 62.640625 21.875 58.296875 
Q 18.890625 51.5625 17.1875 44.234375 
Q 15.09375 35.109375 15.09375 25.875 
Q 15.09375 2.390625 29.6875 -21.046875 
z
" id="ArialMT-40"/>
       <path d="M 3.078125 15.484375 
L 11.765625 16.84375 
Q 12.5 11.625 15.84375 8.84375 
Q 19.1875 6.0625 25.203125 6.0625 
Q 31.25 6.0625 34.171875 8.515625 
Q 37.109375 10.984375 37.109375 14.3125 
Q 37.109375 17.28125 34.515625 19 
Q 32.71875 20.171875 25.53125 21.96875 
Q 15.875 24.421875 12.140625 26.203125 
Q 8.40625 27.984375 6.46875 31.125 
Q 4.546875 34.28125 4.546875 38.09375 
Q 4.546875 41.546875 6.125 44.5 
Q 7.71875 47.46875 10.453125 49.421875 
Q 12.5 50.921875 16.03125 51.96875 
Q 19.578125 53.03125 23.640625 53.03125 
Q 29.734375 53.03125 34.34375 51.265625 
Q 38.96875 49.515625 41.15625 46.5 
Q 43.359375 43.5 44.1875 38.484375 
L 35.59375 37.3125 
Q 35.015625 41.3125 32.203125 43.546875 
Q 29.390625 45.796875 24.265625 45.796875 
Q 18.21875 45.796875 15.625 43.796875 
Q 13.03125 41.796875 13.03125 39.109375 
Q 13.03125 37.40625 14.109375 36.03125 
Q 15.1875 34.625 17.484375 33.6875 
Q 18.796875 33.203125 25.25 31.453125 
Q 34.578125 28.953125 38.25 27.359375 
Q 41.9375 25.78125 44.03125 22.75 
Q 46.140625 19.734375 46.140625 15.234375 
Q 46.140625 10.84375 43.578125 6.953125 
Q 41.015625 3.078125 36.171875 0.953125 
Q 31.34375 -1.171875 25.25 -1.171875 
Q 15.140625 -1.171875 9.84375 3.03125 
Q 4.546875 7.234375 3.078125 15.484375 
z
" id="ArialMT-115"/>
       <path d="M 12.359375 -21.046875 
L 6.0625 -21.046875 
Q 20.65625 2.390625 20.65625 25.875 
Q 20.65625 35.0625 18.5625 44.09375 
Q 16.890625 51.421875 13.921875 58.15625 
Q 12.015625 62.546875 6.0625 72.796875 
L 12.359375 72.796875 
Q 21.53125 60.546875 25.921875 48.1875 
Q 29.6875 37.546875 29.6875 25.921875 
Q 29.6875 12.75 24.625 0.4375 
Q 19.578125 -11.859375 12.359375 -21.046875 
z
" id="ArialMT-41"/>
      </defs>
      <use xlink:href="#ArialMT-84"/>
      <use x="57.333984" xlink:href="#ArialMT-105"/>
      <use x="79.550781" xlink:href="#ArialMT-109"/>
      <use x="162.851562" xlink:href="#ArialMT-101"/>
      <use x="218.466797" xlink:href="#ArialMT-32"/>
      <use x="246.25" xlink:href="#ArialMT-40"/>
      <use x="279.550781" xlink:href="#ArialMT-115"/>
      <use x="329.550781" xlink:href="#ArialMT-41"/>
     </g>
    </g>
   </g>
   <g id="line2d_14">
    <path clip-path="url(#p1264bc7a8e)" d="M 288.409091 267.269807 
L 290.930327 388.800751 
L 293.451563 335.331886 
L 295.9728 342.626888 
L 298.494036 348.025125 
L 301.015272 296.873457 
L 303.536508 418.587338 
L 306.057744 334.587301 
L 308.578981 398.323088 
L 311.100217 383.116876 
L 313.621453 318.601202 
L 316.142689 405.181609 
L 318.663926 431.932089 
L 321.185162 382.532762 
L 323.706398 378.761699 
L 326.227634 429.983974 
L 328.74887 388.794333 
L 331.270107 379.291253 
L 333.791343 396.99118 
L 336.312579 387.744854 
L 338.833815 441.09818 
L 404.385957 394.680401 
L 406.907193 428.164235 
L 409.428429 396.346088 
L 411.949666 383.691362 
L 414.470902 417.300363 
L 416.992138 413.163426 
L 419.513374 425.542142 
L 422.034611 352.752594 
L 424.555847 422.563805 
L 429.598319 388.595349 
L 432.119555 417.091751 
L 434.640792 384.997594 
L 437.162028 411.308384 
L 439.683264 415.605791 
L 442.2045 438.659024 
L 444.725736 392.138544 
L 447.246973 415.580116 
L 449.768209 419.280572 
L 452.289445 357.935801 
L 454.810681 417.618095 
L 462.37439 422.412962 
L 464.895626 403.410012 
L 467.416862 411.266661 
L 469.938099 411.98878 
L 472.459335 441.383818 
L 474.980571 444.204895 
L 477.501807 427.490258 
L 480.023044 433.373117 
L 482.54428 405.746466 
L 485.065516 429.030777 
L 487.586752 449.805325 
L 490.107988 426.877259 
L 492.629225 411.266661 
L 495.150461 427.056987 
L 497.671697 443.877534 
L 500.192933 224.321406 
L 502.71417 454.760663 
L 505.235406 434.217193 
L 507.756642 401.587064 
L 510.277878 405.585995 
L 512.799114 291.847512 
L 520.362823 407.98022 
L 522.884059 419.633608 
L 525.405295 429.005102 
L 527.926532 410.955348 
L 530.447768 401.763581 
L 532.969004 430.481433 
L 535.49024 349.694021 
L 538.011477 413.920848 
L 540.532713 390.392622 
L 543.053949 428.6296 
L 545.575185 399.529828 
L 548.096421 434.50925 
L 550.617658 421.921921 
L 553.138894 371.209944 
L 555.66013 446.400135 
L 558.181366 261.399786 
L 560.702603 444.490533 
L 563.223839 377.038243 
L 565.745075 359.829356 
L 568.266311 424.386753 
L 570.787547 434.40013 
L 578.351256 376.319334 
L 580.872492 417.772147 
L 583.393729 385.89944 
L 585.914965 384.461621 
L 588.436201 405.188028 
L 590.957437 414.707155 
L 593.478673 370.285632 
L 595.99991 392.032633 
L 598.521146 401.147374 
L 601.042382 387.748063 
L 603.563618 412.829647 
L 606.084855 376.454129 
L 608.606091 396.779359 
L 611.127327 423.972738 
L 613.648563 398.480349 
L 616.169799 305.48111 
L 618.691036 402.049219 
L 621.212272 403.25275 
L 623.733508 370.722113 
L 626.254744 395.251677 
L 628.77598 409.495064 
L 636.339689 391.079436 
L 638.860925 383.768388 
L 641.382162 421.713309 
L 643.903398 407.184284 
L 646.424634 264.265794 
L 648.94587 407.903194 
L 651.467106 437.375258 
L 653.988343 405.28431 
L 656.509579 360.095737 
L 659.030815 413.144169 
L 661.552051 414.062062 
L 664.073288 377.93046 
L 666.594524 412.348234 
L 669.11576 375.054824 
L 671.636996 383.248462 
L 674.158232 306.719945 
L 676.679469 381.884461 
L 679.200705 387.841136 
L 681.721941 419.380064 
L 684.243177 352.897018 
L 686.764414 401.378451 
L 694.328122 398.836594 
L 696.849358 407.774817 
L 699.370595 423.46565 
L 701.891831 333.005059 
L 704.413067 412.986908 
L 706.934303 363.253802 
L 709.455539 385.5111 
L 711.976776 409.803168 
L 714.498012 382.121957 
L 717.019248 399.147908 
L 719.540484 417.86522 
L 722.061721 412.422051 
L 724.582957 417.223337 
L 727.104193 409.51753 
L 729.625429 389.13774 
L 732.146665 437.019013 
L 734.667902 410.489983 
L 737.189138 423.510582 
L 739.710374 406.664359 
L 742.23161 428.058324 
L 744.752847 429.906948 
L 752.316555 392.058308 
L 754.837791 415.040934 
L 757.359028 367.461346 
L 759.880264 371.136127 
L 762.4015 374.602296 
L 764.922736 415.268803 
L 767.443973 407.1554 
L 769.965209 377.343137 
L 772.486445 362.920023 
L 775.007681 401.407336 
L 777.528917 433.886623 
L 780.050154 362.791646 
L 782.57139 392.340737 
L 785.092626 359.47632 
L 787.613862 410.319884 
L 790.135098 359.656047 
L 792.656335 414.113413 
L 795.177571 277.905811 
L 797.698807 335.838973 
L 802.74128 427.929948 
L 810.304988 428.282983 
L 812.826224 441.778576 
L 815.347461 394.500674 
L 817.868697 413.14096 
L 820.389933 281.680083 
L 822.911169 419.043076 
L 825.432406 441.923 
L 827.953642 437.429818 
L 830.474878 417.836335 
L 832.996114 425.33674 
L 835.51735 370.494244 
L 838.038587 388.826427 
L 840.559823 346.173292 
L 843.081059 421.511116 
L 845.602295 411.215311 
L 848.123532 337.344189 
L 850.644768 416.090413 
L 853.166004 343.612178 
L 855.68724 435.735247 
L 858.208476 323.505189 
L 860.729713 361.83845 
L 868.293421 394.677191 
L 870.814658 378.248193 
L 873.335894 334.622605 
L 875.85713 305.09919 
L 878.378366 401.176258 
L 880.899602 428.879935 
L 883.420839 425.205154 
L 885.942075 303.89245 
L 888.463311 415.451739 
L 890.984547 379.865738 
L 893.505783 419.325504 
L 896.02702 393.085321 
L 898.548256 402.225737 
L 901.069492 412.848903 
L 903.590728 434.140167 
L 906.111965 425.490792 
L 908.633201 408.622103 
L 911.154437 405.027557 
L 913.675673 420.866024 
L 916.196909 412.730155 
L 918.718146 420.044413 
L 926.281854 374.932866 
L 928.803091 369.756079 
L 931.324327 400.12357 
L 933.845563 404.128921 
L 936.366799 430.519946 
L 938.888035 427.159688 
L 941.409272 430.574506 
L 943.930508 373.549608 
L 946.451744 443.07839 
L 948.97298 443.335143 
L 951.494217 358.580893 
L 954.015453 392.491579 
L 956.536689 415.551231 
L 959.057925 368.388867 
L 961.579161 402.562726 
L 964.100398 394.914688 
L 966.621634 414.912558 
L 969.14287 409.751817 
L 971.664106 383.434608 
L 974.185342 400.251947 
L 976.706579 385.539985 
L 984.270287 367.512697 
L 986.791524 318.013879 
L 989.31276 317.474697 
L 991.833996 394.163685 
L 994.355232 353.856633 
L 996.876468 396.320412 
L 999.397705 429.852388 
L 1001.918941 377.811712 
L 1004.440177 349.26075 
L 1006.961413 382.539181 
L 1009.48265 364.739762 
L 1012.003886 414.017131 
L 1014.525122 370.154046 
L 1017.046358 416.350376 
L 1019.567594 425.285389 
L 1022.088831 342.50493 
L 1024.610067 171.760805 
L 1027.131303 395.861466 
L 1029.652539 411.60044 
L 1032.173776 419.739519 
L 1034.695012 379.220645 
L 1042.25872 417.608467 
L 1044.779957 431.701011 
L 1047.301193 441.024364 
L 1049.822429 393.939026 
L 1052.343665 423.536257 
L 1054.864902 399.119023 
L 1057.386138 410.775621 
L 1059.907374 339.500917 
L 1062.42861 390.857987 
L 1064.949846 233.875837 
L 1067.471083 404.84783 
L 1069.992319 300.936578 
L 1072.513555 429.467258 
L 1075.034791 423.385415 
L 1077.556027 451.137233 
L 1080.077264 280.476553 
L 1082.5985 339.654969 
L 1085.119736 319.300854 
L 1087.640972 445.408426 
L 1090.162209 406.4397 
L 1092.683445 441.53787 
L 1100.247153 368.106439 
L 1102.76839 201.104493 
L 1105.289626 316.720484 
L 1107.810862 396.93662 
L 1110.332098 382.378711 
L 1112.853335 333.547451 
L 1115.374571 383.277347 
L 1117.895807 409.726142 
L 1120.417043 408.36214 
L 1122.938279 380.096816 
L 1125.459516 414.883673 
L 1127.980752 384.667024 
L 1130.501988 378.504946 
L 1133.023224 406.381931 
L 1135.544461 409.620231 
L 1138.065697 415.965246 
L 1140.586933 337.886581 
L 1143.108169 406.978882 
L 1145.629405 385.5111 
L 1148.150642 405.460828 
L 1150.671878 400.17813 
L 1158.235586 414.068481 
L 1160.756823 382.972452 
L 1163.278059 404.003754 
L 1165.799295 342.55949 
L 1168.320531 352.855295 
L 1170.841768 423.74166 
L 1173.363004 370.750997 
L 1175.88424 413.503624 
L 1178.405476 408.644569 
L 1180.926712 423.074102 
L 1183.447949 363.170358 
L 1185.969185 348.795385 
L 1188.490421 342.482464 
L 1191.011657 433.395583 
L 1193.532894 241.806303 
L 1196.05413 426.999217 
L 1198.575366 359.065515 
L 1201.096602 367.133986 
L 1203.617838 427.621844 
L 1206.139075 364.819997 
L 1208.660311 436.505506 
L 1216.22402 428.671323 
L 1218.745256 418.606595 
L 1221.266492 414.447192 
L 1223.787728 440.228429 
L 1226.308964 409.418038 
L 1228.830201 440.818961 
L 1231.351437 428.584668 
L 1233.872673 434.39692 
L 1236.393909 437.577451 
L 1238.915145 445.360284 
L 1241.436382 417.120636 
L 1243.957618 445.976492 
L 1246.478854 422.406543 
L 1249.00009 451.342635 
L 1251.521327 439.047364 
L 1254.042563 423.667844 
L 1256.563799 445.154882 
L 1259.085035 416.783647 
L 1261.606271 440.148193 
L 1264.127508 445.979702 
L 1266.648744 412.855322 
L 1274.212453 318.681437 
L 1276.733689 292.258318 
L 1279.254925 343.252724 
L 1281.776161 341.891931 
L 1284.297397 347.66888 
L 1286.818634 381.248996 
L 1289.33987 371.469907 
L 1291.861106 407.617556 
L 1294.382342 400.226271 
L 1296.903579 369.053217 
L 1299.424815 384.715165 
L 1301.946051 347.485943 
L 1304.467287 405.743257 
L 1306.988523 372.134256 
L 1309.50976 294.05559 
L 1312.030996 372.727998 
L 1314.552232 380.867076 
L 1317.073468 378.86761 
L 1319.594705 358.629034 
L 1322.115941 378.75849 
L 1324.637177 411.882869 
L 1332.200886 310.176485 
L 1334.722122 334.503856 
L 1337.243358 339.118996 
L 1339.764594 353.339917 
L 1342.28583 330.386176 
L 1344.807067 386.717841 
L 1347.328303 369.618074 
L 1349.849539 387.054829 
L 1352.370775 425.949738 
L 1354.892012 317.984994 
L 1357.413248 321.19441 
L 1359.934484 329.384838 
L 1362.45572 353.031813 
L 1364.976956 188.119197 
L 1367.498193 382.744584 
L 1370.019429 334.032072 
L 1372.540665 329.311022 
L 1375.061901 321.370927 
L 1377.583138 330.723165 
L 1380.104374 295.702021 
L 1382.62561 375.661403 
L 1390.189319 392.931269 
L 1392.710555 441.409494 
L 1395.231791 394.115544 
L 1397.753027 443.925675 
L 1400.274264 435.247415 
L 1402.7955 369.053217 
L 1405.316736 423.536257 
L 1407.837972 343.868932 
L 1410.359208 433.065013 
L 1412.880445 410.136947 
L 1415.401681 312.288281 
L 1417.922917 356.501192 
L 1420.444153 330.151889 
L 1422.965389 409.543205 
L 1425.486626 253.41155 
L 1428.007862 314.907164 
L 1430.529098 438.813076 
L 1433.050334 292.717264 
L 1435.571571 388.393156 
L 1438.092807 422.361611 
L 1440.614043 310.359422 
L 1448.177752 406.905065 
L 1450.698988 380.972986 
L 1453.220224 408.904531 
L 1455.74146 413.830984 
L 1458.262697 421.357064 
L 1460.783933 441.380609 
L 1463.305169 436.81361 
L 1465.826405 428.674532 
L 1468.347641 415.759843 
L 1470.868878 419.530907 
L 1473.390114 411.160751 
L 1475.91135 401.407336 
L 1478.432586 432.936636 
L 1483.475059 415.734168 
L 1485.996295 403.467781 
L 1488.517531 420.175999 
L 1491.038767 433.010453 
L 1493.560004 421.761451 
L 1496.08124 409.774283 
L 1498.602476 424.258376 
L 1506.166185 484.232727 
L 1508.687421 454.529585 
L 1511.208657 304.428422 
L 1513.729893 467.174683 
L 1516.25113 402.074895 
L 1518.772366 435.196065 
L 1521.293602 397.710089 
L 1523.814838 464.109691 
L 1526.336074 395.270933 
L 1528.857311 375.500933 
L 1531.378547 429.23618 
L 1533.899783 435.55231 
L 1536.421019 421.716519 
L 1538.942256 364.765437 
L 1541.463492 375.703126 
L 1543.984728 400.223062 
L 1546.505964 399.709555 
L 1549.0272 418.3017 
L 1551.548437 337.575267 
L 1554.069673 397.475802 
L 1556.590909 426.565946 
L 1556.590909 426.565946 
" style="fill:none;stroke:#4c72b0;stroke-linecap:round;stroke-width:1.5;"/>
   </g>
   <g id="line2d_15">
    <path clip-path="url(#p1264bc7a8e)" d="M 288.409091 414.524218 
L 290.930327 435.375792 
L 293.451563 432.676673 
L 295.9728 424.129999 
L 298.494036 387.054829 
L 301.015272 419.941712 
L 303.536508 367.38432 
L 306.057744 407.37364 
L 308.578981 424.155675 
L 311.100217 422.868699 
L 313.621453 432.606066 
L 316.142689 369.159127 
L 318.663926 414.655804 
L 321.185162 414.090947 
L 323.706398 434.050303 
L 326.227634 402.713568 
L 328.74887 408.673453 
L 331.270107 433.809597 
L 333.791343 336.214475 
L 336.312579 444.342899 
L 338.833815 370.18935 
L 404.385957 417.245803 
L 406.907193 445.193395 
L 409.428429 380.430595 
L 411.949666 285.361283 
L 414.470902 231.465565 
L 416.992138 403.567273 
L 419.513374 373.315321 
L 422.034611 410.981023 
L 424.555847 398.939296 
L 427.077083 434.220402 
L 429.598319 358.401166 
L 432.119555 349.241493 
L 434.640792 383.977 
L 437.162028 437.246881 
L 439.683264 390.72961 
L 442.2045 394.783102 
L 444.725736 440.366433 
L 447.246973 334.26636 
L 449.768209 423.086939 
L 452.289445 427.878597 
L 454.810681 434.679349 
L 462.37439 430.603391 
L 464.895626 423.443184 
L 467.416862 444.159963 
L 469.938099 430.009649 
L 472.459335 445.748624 
L 474.980571 365.696168 
L 477.501807 422.303842 
L 480.023044 359.248452 
L 482.54428 403.384336 
L 485.065516 382.686814 
L 487.586752 369.723984 
L 490.107988 372.11179 
L 492.629225 427.599378 
L 495.150461 441.053248 
L 497.671697 437.323907 
L 500.192933 443.720273 
L 502.71417 394.706076 
L 505.235406 430.134816 
L 507.756642 443.027039 
L 510.277878 427.849712 
L 512.799114 400.714102 
L 520.362823 392.552558 
L 522.884059 424.492663 
L 525.405295 431.59831 
L 527.926532 413.240452 
L 530.447768 428.825375 
L 532.969004 383.909602 
L 535.49024 425.644844 
L 538.011477 365.744309 
L 540.532713 395.447451 
L 543.053949 407.492388 
L 545.575185 423.151128 
L 548.096421 384.923777 
L 550.617658 409.363478 
L 553.138894 417.990387 
L 555.66013 408.005895 
L 558.181366 429.518608 
L 560.702603 429.878063 
L 563.223839 402.456815 
L 565.745075 414.607663 
L 568.266311 431.447467 
L 570.787547 413.192311 
L 578.351256 369.650168 
L 580.872492 286.224616 
L 583.393729 380.096816 
L 585.914965 375.475257 
L 588.436201 385.228672 
L 590.957437 405.078908 
L 593.478673 395.219583 
L 595.99991 395.065531 
L 598.521146 393.855581 
L 601.042382 411.366153 
L 603.563618 370.519919 
L 606.084855 354.787364 
L 608.606091 375.857178 
L 611.127327 379.644288 
L 613.648563 350.0278 
L 616.169799 387.221719 
L 618.691036 387.898906 
L 621.212272 339.863581 
L 623.733508 358.686804 
L 626.254744 406.285648 
L 628.77598 297.679021 
L 636.339689 379.050546 
L 638.860925 186.450301 
L 641.382162 377.65766 
L 643.903398 366.460009 
L 646.424634 314.573385 
L 648.94587 386.079167 
L 651.467106 277.982837 
L 653.988343 268.4605 
L 656.509579 344.677704 
L 659.030815 397.584922 
L 661.552051 331.843251 
L 664.073288 380.668092 
L 666.594524 406.234297 
L 669.11576 306.097318 
L 671.636996 436.075445 
L 674.158232 369.589189 
L 676.679469 314.650411 
L 679.200705 269.208294 
L 681.721941 275.254833 
L 684.243177 392.680935 
L 686.764414 405.955078 
L 694.328122 392.594281 
L 696.849358 402.549888 
L 699.370595 380.478736 
L 701.891831 411.87966 
L 704.413067 405.387012 
L 706.934303 442.481438 
L 709.455539 445.43731 
L 711.976776 420.740856 
L 714.498012 441.460844 
L 717.019248 433.57531 
L 719.540484 432.500156 
L 722.061721 415.111541 
L 724.582957 434.191518 
L 727.104193 427.596168 
L 729.625429 416.167439 
L 732.146665 441.021154 
L 734.667902 365.150567 
L 737.189138 368.051879 
L 739.710374 397.222258 
L 742.23161 419.274153 
L 744.752847 414.190439 
L 752.316555 402.995997 
L 754.837791 368.992238 
L 757.359028 411.366153 
L 759.880264 421.05217 
L 762.4015 434.165842 
L 764.922736 404.205947 
L 767.443973 406.308114 
L 769.965209 379.939555 
L 772.486445 415.682817 
L 775.007681 381.483284 
L 777.528917 428.363219 
L 780.050154 366.280281 
L 782.57139 431.803712 
L 785.092626 450.854804 
L 787.613862 403.073023 
L 790.135098 421.790335 
L 792.656335 388.25836 
L 795.177571 422.897584 
L 797.698807 402.148711 
L 800.220043 430.266402 
L 802.74128 347.206724 
L 810.304988 284.645584 
L 812.826224 319.121127 
L 815.347461 268.970797 
L 817.868697 302.220344 
L 820.389933 268.486175 
L 822.911169 331.503053 
L 825.432406 229.716434 
L 827.953642 369.367739 
L 830.474878 215.672031 
L 832.996114 345.765696 
L 835.51735 333.906905 
L 838.038587 301.53032 
L 840.559823 341.29819 
L 843.081059 387.439959 
L 845.602295 378.838725 
L 848.123532 407.107259 
L 850.644768 352.056151 
L 853.166004 391.856115 
L 855.68724 367.284828 
L 858.208476 161.269225 
L 860.729713 389.166625 
L 868.293421 339.552267 
L 870.814658 412.775087 
L 873.335894 434.502831 
L 875.85713 401.429802 
L 878.378366 417.784985 
L 880.899602 378.658998 
L 883.420839 436.765469 
L 885.942075 367.053751 
L 888.463311 427.798362 
L 890.984547 297.444733 
L 893.505783 402.822689 
L 896.02702 407.26131 
L 898.548256 345.229724 
L 901.069492 371.209944 
L 903.590728 402.225737 
L 906.111965 418.221465 
L 908.633201 413.654467 
L 911.154437 406.028895 
L 913.675673 378.42792 
L 916.196909 369.890874 
L 918.718146 388.463763 
L 926.281854 400.897039 
L 928.803091 421.742194 
L 931.324327 328.158842 
L 933.845563 424.129999 
L 936.366799 357.143075 
L 938.888035 392.751542 
L 941.409272 393.85879 
L 943.930508 390.957479 
L 946.451744 400.380323 
L 948.97298 416.966584 
L 951.494217 441.820299 
L 954.015453 407.26131 
L 956.536689 381.820272 
L 959.057925 413.009374 
L 961.579161 371.158593 
L 964.100398 452.13857 
L 966.621634 422.435428 
L 969.14287 405.23296 
L 971.664106 312.875604 
L 974.185342 354.097339 
L 976.706579 331.875345 
L 984.270287 346.227852 
L 986.791524 434.047094 
L 989.31276 413.651257 
L 991.833996 407.360802 
L 994.355232 375.812246 
L 996.876468 322.01602 
L 999.397705 381.765712 
L 1001.918941 379.884995 
L 1004.440177 339.914931 
L 1006.961413 441.10139 
L 1009.48265 423.051636 
L 1012.003886 369.929387 
L 1014.525122 259.34255 
L 1017.046358 290.079124 
L 1019.567594 436.990128 
L 1022.088831 409.620231 
L 1024.610067 328.38992 
L 1027.131303 298.754175 
L 1029.652539 299.652811 
L 1032.173776 392.21557 
L 1034.695012 354.928578 
L 1042.25872 379.19497 
L 1044.779957 463.28808 
L 1047.301193 423.715985 
L 1049.822429 419.916037 
L 1052.343665 446.438648 
L 1054.864902 326.563762 
L 1057.386138 387.850764 
L 1059.907374 383.376839 
L 1062.42861 362.714621 
L 1064.949846 455.145793 
L 1067.471083 332.979384 
L 1069.992319 414.164764 
L 1072.513555 413.728283 
L 1075.034791 454.199015 
L 1077.556027 361.530346 
L 1080.077264 357.014698 
L 1082.5985 398.656867 
L 1085.119736 459.66465 
L 1087.640972 418.58092 
L 1090.162209 389.388074 
L 1092.683445 429.624519 
L 1100.247153 341.426566 
L 1102.76839 406.154062 
L 1105.289626 385.283232 
L 1107.810862 351.285891 
L 1110.332098 378.450386 
L 1112.853335 391.342609 
L 1115.374571 394.18936 
L 1117.895807 417.81066 
L 1120.417043 361.167682 
L 1122.938279 244.335322 
L 1125.459516 447.773765 
L 1127.980752 419.45709 
L 1130.501988 403.69244 
L 1133.023224 381.050012 
L 1135.544461 422.692181 
L 1138.065697 388.903453 
L 1140.586933 393.36775 
L 1143.108169 418.760647 
L 1145.629405 380.738699 
L 1148.150642 430.88261 
L 1150.671878 421.783917 
L 1158.235586 357.268242 
L 1160.756823 403.490247 
L 1163.278059 412.31614 
L 1165.799295 391.140415 
L 1168.320531 407.903194 
L 1170.841768 355.419619 
L 1173.363004 435.577985 
L 1175.88424 427.490258 
L 1178.405476 400.428464 
L 1180.926712 318.652552 
L 1183.447949 319.631424 
L 1185.969185 328.232658 
L 1188.490421 399.635739 
L 1191.011657 391.288049 
L 1193.532894 374.576621 
L 1196.05413 418.63548 
L 1198.575366 368.334307 
L 1201.096602 307.381084 
L 1203.617838 422.419381 
L 1206.139075 421.302504 
L 1208.660311 419.684959 
L 1216.22402 390.065261 
L 1218.745256 340.58249 
L 1221.266492 392.21236 
L 1223.787728 403.304101 
L 1226.308964 315.109357 
L 1228.830201 410.364815 
L 1231.351437 425.025426 
L 1233.872673 411.757702 
L 1236.393909 390.569139 
L 1238.915145 408.904531 
L 1241.436382 358.885788 
L 1243.957618 433.090688 
L 1246.478854 338.345527 
L 1249.00009 424.592155 
L 1251.521327 410.441841 
L 1254.042563 449.343169 
L 1256.563799 432.760118 
L 1259.085035 432.753699 
L 1261.606271 258.63006 
L 1264.127508 413.888754 
L 1266.648744 424.277633 
L 1274.212453 350.85262 
L 1276.733689 407.190703 
L 1279.254925 414.707155 
L 1281.776161 384.538647 
L 1284.297397 403.487038 
L 1286.818634 378.421501 
L 1289.33987 419.40253 
L 1291.861106 402.4857 
L 1294.382342 430.805584 
L 1296.903579 315.930968 
L 1299.424815 342.508139 
L 1301.946051 433.116363 
L 1304.467287 400.075429 
L 1306.988523 422.303842 
L 1309.50976 346.025659 
L 1312.030996 390.800217 
L 1314.552232 397.373101 
L 1317.073468 377.452257 
L 1319.594705 396.910945 
L 1322.115941 381.711152 
L 1324.637177 353.676906 
L 1332.200886 325.414791 
L 1334.722122 377.814921 
L 1337.243358 324.018695 
L 1339.764594 396.71838 
L 1342.28583 255.549021 
L 1344.807067 387.257022 
L 1347.328303 382.404386 
L 1349.849539 368.735484 
L 1352.370775 379.429257 
L 1354.892012 294.132616 
L 1357.413248 337.584896 
L 1359.934484 355.881774 
L 1364.976956 323.485932 
L 1367.498193 415.541603 
L 1370.019429 394.215036 
L 1372.540665 306.639709 
L 1375.061901 397.607388 
L 1377.583138 297.95824 
L 1380.104374 358.686804 
L 1382.62561 357.910125 
L 1390.189319 434.223612 
L 1392.710555 399.687089 
L 1395.231791 401.920843 
L 1397.753027 295.804722 
L 1400.274264 376.425244 
L 1402.7955 421.363483 
L 1405.316736 427.727754 
L 1407.837972 342.248177 
L 1410.359208 400.354648 
L 1412.880445 341.840581 
L 1415.401681 241.65546 
L 1417.922917 365.259687 
L 1420.444153 368.051879 
L 1422.965389 345.155907 
L 1425.486626 304.810342 
L 1428.007862 400.357857 
L 1430.529098 319.862502 
L 1433.050334 433.498284 
L 1435.571571 417.707959 
L 1438.092807 321.399812 
L 1440.614043 336.317176 
L 1448.177752 410.544543 
L 1450.698988 427.936366 
L 1453.220224 434.422596 
L 1455.74146 373.315321 
L 1458.262697 359.505205 
L 1460.783933 386.746725 
L 1463.305169 426.594831 
L 1465.826405 436.630674 
L 1468.347641 435.60687 
L 1470.868878 417.117426 
L 1473.390114 351.982334 
L 1475.91135 401.256494 
L 1478.432586 409.57209 
L 1480.953823 438.222544 
L 1483.475059 417.553907 
L 1485.996295 421.896246 
L 1488.517531 440.205963 
L 1491.038767 428.084 
L 1493.560004 424.284051 
L 1496.08124 423.975947 
L 1498.602476 441.361352 
L 1506.166185 351.468828 
L 1508.687421 442.699679 
L 1511.208657 442.150869 
L 1513.729893 401.018997 
L 1516.25113 428.363219 
L 1518.772366 426.078115 
L 1523.814838 418.378726 
L 1526.336074 387.080505 
L 1528.857311 476.376078 
L 1531.378547 381.428723 
L 1533.899783 418.795951 
L 1536.421019 370.619411 
L 1538.942256 398.066334 
L 1541.463492 370.208606 
L 1543.984728 436.76226 
L 1546.505964 391.313724 
L 1549.0272 419.145777 
L 1551.548437 432.394245 
L 1554.069673 447.282724 
L 1556.590909 444.846778 
L 1556.590909 444.846778 
" style="fill:none;stroke:#dd8452;stroke-linecap:round;stroke-width:1.5;"/>
   </g>
   <g id="line2d_16">
    <path clip-path="url(#p1264bc7a8e)" d="M 288.409091 355.265567 
L 290.930327 437.179484 
L 293.451563 447.542687 
L 295.9728 400.348229 
L 298.494036 438.328454 
L 301.015272 445.517546 
L 303.536508 444.076518 
L 306.057744 449.853466 
L 308.578981 424.662762 
L 311.100217 438.918987 
L 313.621453 435.038803 
L 316.142689 402.639752 
L 318.663926 457.402012 
L 321.185162 450.421533 
L 323.706398 448.829663 
L 326.227634 442.821636 
L 328.74887 443.46352 
L 331.270107 427.31374 
L 333.791343 339.4271 
L 336.312579 416.950536 
L 338.833815 446.387297 
L 404.385957 406.54882 
L 406.907193 422.599108 
L 409.428429 428.167444 
L 411.949666 438.184031 
L 414.470902 421.742194 
L 416.992138 448.906689 
L 419.513374 449.985052 
L 422.034611 427.393975 
L 424.555847 426.232167 
L 427.077083 444.362156 
L 429.598319 425.339949 
L 432.119555 431.113688 
L 434.640792 409.62344 
L 437.162028 444.384622 
L 439.683264 416.116088 
L 442.2045 414.655804 
L 444.725736 345.614854 
L 447.246973 417.101379 
L 449.768209 436.993338 
L 452.289445 415.602582 
L 454.810681 415.88501 
L 462.37439 365.84701 
L 464.895626 401.173049 
L 467.416862 282.347642 
L 469.938099 415.682817 
L 472.459335 402.254622 
L 474.980571 371.408928 
L 477.501807 357.377362 
L 480.023044 418.198999 
L 482.54428 411.805843 
L 485.065516 427.69566 
L 487.586752 427.570493 
L 490.107988 329.477911 
L 492.629225 371.569398 
L 497.671697 410.544543 
L 500.192933 347.768372 
L 502.71417 407.415362 
L 505.235406 428.363219 
L 507.756642 422.050298 
L 510.277878 439.814414 
L 512.799114 432.628532 
L 520.362823 394.622631 
L 522.884059 414.039596 
L 525.405295 428.674532 
L 527.926532 432.731233 
L 530.447768 369.614864 
L 532.969004 422.746741 
L 535.49024 413.291803 
L 538.011477 418.121973 
L 540.532713 427.669985 
L 543.053949 413.683351 
L 545.575185 409.081049 
L 548.096421 421.665168 
L 550.617658 386.724259 
L 553.138894 427.262389 
L 555.66013 427.442116 
L 558.181366 418.067413 
L 560.702603 431.569425 
L 563.223839 420.121439 
L 565.745075 418.63227 
L 568.266311 429.569959 
L 570.787547 366.514569 
L 578.351256 334.898615 
L 580.872492 298.83441 
L 583.393729 357.274661 
L 585.914965 322.548783 
L 588.436201 328.922683 
L 590.957437 388.64349 
L 593.478673 353.798864 
L 595.99991 324.143863 
L 598.521146 369.675843 
L 601.042382 412.117156 
L 603.563618 396.16957 
L 606.084855 372.76651 
L 608.606091 383.431399 
L 611.127327 346.320925 
L 613.648563 302.432165 
L 616.169799 394.885804 
L 618.691036 387.667828 
L 621.212272 411.802634 
L 623.733508 409.312127 
L 626.254744 388.694841 
L 628.77598 406.333789 
L 636.339689 316.213396 
L 638.860925 363.943827 
L 641.382162 408.028361 
L 643.903398 342.142266 
L 646.424634 343.881769 
L 648.94587 408.805039 
L 651.467106 433.578519 
L 653.988343 386.974594 
L 656.509579 424.258376 
L 659.030815 423.462441 
L 661.552051 413.343153 
L 664.073288 362.833369 
L 666.594524 322.828002 
L 669.11576 403.191771 
L 671.636996 432.342894 
L 674.158232 395.116881 
L 676.679469 413.211567 
L 679.200705 442.950013 
L 681.721941 407.999476 
L 684.243177 428.029439 
L 686.764414 438.35092 
L 694.328122 382.041722 
L 696.849358 400.45414 
L 699.370595 412.470192 
L 701.891831 407.518064 
L 704.413067 426.540271 
L 706.934303 418.118764 
L 709.455539 427.288064 
L 711.976776 414.065272 
L 714.498012 397.064997 
L 717.019248 398.579841 
L 719.540484 424.569689 
L 722.061721 342.992761 
L 724.582957 426.591621 
L 727.104193 348.564307 
L 729.625429 419.354389 
L 732.146665 419.691377 
L 734.667902 372.87884 
L 737.189138 427.031311 
L 739.710374 381.537844 
L 742.23161 416.093622 
L 744.752847 435.067688 
L 752.316555 426.594831 
L 754.837791 438.071701 
L 757.359028 428.337543 
L 759.880264 385.026478 
L 762.4015 439.073039 
L 764.922736 425.875922 
L 767.443973 407.258101 
L 769.965209 432.195261 
L 772.486445 428.212376 
L 775.007681 419.145777 
L 777.528917 436.81361 
L 780.050154 433.090688 
L 782.57139 432.984777 
L 785.092626 450.347716 
L 787.613862 451.602598 
L 790.135098 442.36269 
L 792.656335 448.726961 
L 795.177571 382.198983 
L 797.698807 427.724545 
L 800.220043 427.134013 
L 802.74128 432.320428 
L 810.304988 326.942473 
L 812.826224 418.950002 
L 815.347461 414.527428 
L 817.868697 421.045751 
L 820.389933 439.50631 
L 822.911169 452.427418 
L 825.432406 438.376596 
L 827.953642 441.284326 
L 830.474878 409.62344 
L 832.996114 431.755571 
L 835.51735 336.859568 
L 838.038587 332.06791 
L 840.559823 436.990128 
L 843.081059 431.065547 
L 845.602295 412.110738 
L 848.123532 437.814948 
L 850.644768 412.983699 
L 853.166004 400.791128 
L 855.68724 409.341012 
L 858.208476 362.583034 
L 860.729713 424.380334 
L 868.293421 383.354373 
L 870.814658 408.36214 
L 873.335894 409.620231 
L 875.85713 411.468854 
L 878.378366 392.112868 
L 880.899602 419.967387 
L 883.420839 422.6986 
L 885.942075 413.705817 
L 888.463311 414.29635 
L 890.984547 392.446648 
L 893.505783 432.548297 
L 896.02702 423.35974 
L 898.548256 412.450936 
L 901.069492 400.245528 
L 903.590728 382.407595 
L 906.111965 417.505765 
L 908.633201 432.269078 
L 911.154437 439.246347 
L 913.675673 436.454156 
L 916.196909 424.698066 
L 918.718146 435.93744 
L 926.281854 391.493451 
L 928.803091 416.299025 
L 931.324327 442.231104 
L 933.845563 440.741935 
L 936.366799 432.650998 
L 938.888035 277.700408 
L 941.409272 422.339145 
L 943.930508 411.703142 
L 946.451744 421.485441 
L 948.97298 390.854777 
L 951.494217 425.898387 
L 954.015453 420.891699 
L 956.536689 437.195531 
L 959.057925 435.064479 
L 961.579161 434.759584 
L 964.100398 351.571529 
L 966.621634 422.891165 
L 969.14287 398.557375 
L 971.664106 453.756116 
L 974.185342 435.60687 
L 976.706579 429.136688 
L 984.270287 412.932348 
L 986.791524 440.693794 
L 989.31276 314.93284 
L 991.833996 402.463234 
L 994.355232 370.420428 
L 996.876468 361.273593 
L 999.397705 376.319334 
L 1001.918941 407.26131 
L 1004.440177 418.170114 
L 1006.961413 436.37713 
L 1009.48265 382.715699 
L 1012.003886 433.296091 
L 1014.525122 399.016322 
L 1017.046358 441.945466 
L 1019.567594 428.337543 
L 1022.088831 413.445855 
L 1024.610067 374.41936 
L 1027.131303 316.216606 
L 1029.652539 375.366137 
L 1032.173776 403.461362 
L 1034.695012 340.351412 
L 1042.25872 448.136429 
L 1044.779957 404.972997 
L 1049.822429 453.319635 
L 1052.343665 439.329792 
L 1054.864902 446.108078 
L 1057.386138 347.412126 
L 1059.907374 395.707414 
L 1062.42861 410.955348 
L 1064.949846 426.951076 
L 1067.471083 426.309193 
L 1069.992319 432.548297 
L 1072.513555 397.504687 
L 1075.034791 406.410815 
L 1077.556027 432.80505 
L 1080.077264 413.91122 
L 1082.5985 448.595375 
L 1085.119736 417.274687 
L 1087.640972 406.259973 
L 1090.162209 444.747286 
L 1092.683445 404.796479 
L 1100.247153 432.342894 
L 1102.76839 404.318276 
L 1105.289626 430.05779 
L 1107.810862 409.719723 
L 1110.332098 379.503074 
L 1112.853335 419.761985 
L 1115.374571 385.925115 
L 1117.895807 418.815207 
L 1120.417043 410.592684 
L 1122.938279 450.187245 
L 1125.459516 414.835532 
L 1127.980752 390.106984 
L 1130.501988 420.432753 
L 1133.023224 430.622647 
L 1135.544461 444.076518 
L 1138.065697 311.052656 
L 1140.586933 409.032908 
L 1143.108169 437.429818 
L 1145.629405 451.239934 
L 1148.150642 448.826453 
L 1150.671878 411.061259 
L 1158.235586 331.053735 
L 1160.756823 386.907196 
L 1163.278059 430.009649 
L 1165.799295 372.670228 
L 1168.320531 338.169009 
L 1173.363004 429.059662 
L 1175.88424 411.263452 
L 1178.405476 408.057246 
L 1180.926712 376.550412 
L 1183.447949 401.378451 
L 1185.969185 410.441841 
L 1188.490421 433.909089 
L 1191.011657 420.814673 
L 1193.532894 434.705024 
L 1196.05413 415.708493 
L 1198.575366 434.294219 
L 1201.096602 411.853984 
L 1203.617838 425.975413 
L 1206.139075 430.751024 
L 1208.660311 383.944905 
L 1216.22402 418.118764 
L 1218.745256 448.906689 
L 1221.266492 450.98639 
L 1223.787728 454.012869 
L 1228.830201 447.234583 
L 1231.351437 452.010194 
L 1233.872673 443.357609 
L 1236.393909 453.268285 
L 1238.915145 455.887168 
L 1241.436382 455.810142 
L 1243.957618 458.814155 
L 1246.478854 441.897325 
L 1249.00009 453.630949 
L 1251.521327 425.590284 
L 1254.042563 457.584949 
L 1256.563799 371.184269 
L 1259.085035 456.429559 
L 1261.606271 451.599388 
L 1264.127508 455.993079 
L 1266.648744 461.124934 
L 1274.212453 448.595375 
L 1276.733689 429.701545 
L 1279.254925 456.660637 
L 1281.776161 449.112091 
L 1284.297397 443.896791 
L 1286.818634 425.230829 
L 1289.33987 455.553389 
L 1291.861106 465.54109 
L 1294.382342 421.077845 
L 1296.903579 460.174947 
L 1299.424815 428.84784 
L 1301.946051 433.62666 
L 1304.467287 405.309986 
L 1306.988523 457.30252 
L 1309.50976 457.276845 
L 1312.030996 434.550972 
L 1314.552232 440.125727 
L 1317.073468 414.244999 
L 1319.594705 459.735257 
L 1322.115941 456.015544 
L 1324.637177 441.435169 
L 1332.200886 409.087468 
L 1334.722122 407.059117 
L 1337.243358 437.737922 
L 1339.764594 409.851309 
L 1342.28583 397.068206 
L 1344.807067 378.248193 
L 1347.328303 386.464297 
L 1349.849539 353.882308 
L 1352.370775 384.281894 
L 1354.892012 357.910125 
L 1357.413248 415.066609 
L 1359.934484 401.227609 
L 1362.45572 388.540789 
L 1364.976956 405.101374 
L 1367.498193 423.844361 
L 1370.019429 420.22735 
L 1372.540665 423.74487 
L 1375.061901 424.12679 
L 1377.583138 430.471805 
L 1380.104374 417.454415 
L 1382.62561 399.507362 
L 1390.189319 387.253813 
L 1392.710555 444.525836 
L 1395.231791 436.993338 
L 1397.753027 431.084803 
L 1400.274264 416.70983 
L 1402.7955 364.072203 
L 1405.316736 454.11878 
L 1407.837972 424.643506 
L 1410.359208 377.195504 
L 1412.880445 438.35413 
L 1415.401681 426.492129 
L 1417.922917 440.940919 
L 1420.444153 439.021688 
L 1422.965389 411.343687 
L 1425.486626 442.921128 
L 1428.007862 426.527433 
L 1430.529098 446.258921 
L 1433.050334 439.609011 
L 1435.571571 341.044646 
L 1438.092807 445.125997 
L 1440.614043 450.755312 
L 1448.177752 416.064738 
L 1450.698988 435.090154 
L 1453.220224 430.88261 
L 1455.74146 399.067672 
L 1458.262697 436.094701 
L 1460.783933 404.488375 
L 1463.305169 412.187764 
L 1465.826405 404.257297 
L 1468.347641 429.804246 
L 1470.868878 432.426339 
L 1473.390114 429.62131 
L 1475.91135 440.664909 
L 1478.432586 429.390232 
L 1480.953823 414.906139 
L 1483.475059 427.134013 
L 1485.996295 426.463245 
L 1488.517531 420.098973 
L 1491.038767 417.531441 
L 1493.560004 416.889558 
L 1496.08124 423.022751 
L 1498.602476 421.536792 
L 1506.166185 327.382163 
L 1508.687421 387.135065 
L 1511.208657 388.518323 
L 1513.729893 356.035826 
L 1516.25113 374.704998 
L 1518.772366 392.21557 
L 1521.293602 393.547477 
L 1523.814838 371.855036 
L 1526.336074 318.857955 
L 1528.857311 364.540778 
L 1531.378547 392.523674 
L 1533.899783 401.121698 
L 1536.421019 410.955348 
L 1538.942256 332.263684 
L 1541.463492 379.169295 
L 1543.984728 326.358359 
L 1546.505964 377.346347 
L 1549.0272 423.128662 
L 1551.548437 368.437009 
L 1554.069673 424.335402 
L 1556.590909 372.368543 
L 1556.590909 372.368543 
" style="fill:none;stroke:#55a868;stroke-linecap:round;stroke-width:1.5;"/>
   </g>
   <g id="line2d_17">
    <path clip-path="url(#p1264bc7a8e)" d="M 288.409091 383.31586 
L 290.930327 420.047623 
L 293.451563 387.648571 
L 295.9728 433.934764 
L 298.494036 426.668647 
L 301.015272 443.261326 
L 303.536508 420.740856 
L 306.057744 409.491854 
L 308.578981 436.303313 
L 311.100217 437.041479 
L 313.621453 432.086141 
L 316.142689 436.300104 
L 318.663926 443.79088 
L 321.185162 448.470208 
L 323.706398 435.273091 
L 326.227634 436.582532 
L 328.74887 452.575051 
L 331.270107 431.139363 
L 333.791343 447.677482 
L 336.312579 446.258921 
L 338.833815 444.975154 
L 404.385957 356.404909 
L 406.907193 334.340176 
L 409.428429 364.438077 
L 411.949666 365.667283 
L 414.470902 375.269855 
L 416.992138 395.572618 
L 419.513374 414.630129 
L 422.034611 383.540519 
L 424.555847 422.660087 
L 427.077083 429.521818 
L 429.598319 405.435153 
L 432.119555 408.435957 
L 434.640792 377.734686 
L 437.162028 408.108596 
L 439.683264 426.880469 
L 442.2045 412.31935 
L 444.725736 430.468595 
L 447.246973 425.487582 
L 449.768209 428.315077 
L 452.289445 415.734168 
L 454.810681 396.634935 
L 462.37439 363.15752 
L 464.895626 449.702624 
L 467.416862 431.98344 
L 469.938099 412.085062 
L 472.459335 414.244999 
L 474.980571 404.591077 
L 477.501807 423.924597 
L 480.023044 380.912008 
L 482.54428 451.342635 
L 485.065516 436.842495 
L 487.586752 383.383258 
L 490.107988 352.085036 
L 492.629225 407.466713 
L 495.150461 446.136963 
L 497.671697 444.824312 
L 500.192933 412.598569 
L 502.71417 377.426582 
L 505.235406 406.436491 
L 507.756642 409.931544 
L 510.277878 438.251428 
L 512.799114 380.302219 
L 520.362823 365.744309 
L 522.884059 425.105662 
L 525.405295 430.369104 
L 527.926532 425.901597 
L 530.447768 393.136672 
L 532.969004 415.371504 
L 535.49024 410.650453 
L 538.011477 429.932623 
L 540.532713 422.666506 
L 543.053949 390.623699 
L 545.575185 427.25918 
L 548.096421 411.398247 
L 550.617658 435.950277 
L 553.138894 427.211038 
L 555.66013 428.032649 
L 558.181366 418.840882 
L 560.702603 426.283517 
L 563.223839 405.929403 
L 565.745075 432.496946 
L 568.266311 431.447467 
L 570.787547 442.054586 
L 578.351256 387.661409 
L 580.872492 404.087198 
L 583.393729 301.324917 
L 585.914965 295.291215 
L 588.436201 405.130258 
L 590.957437 415.88501 
L 593.478673 406.205413 
L 595.99991 398.400114 
L 598.521146 409.62344 
L 601.042382 408.878856 
L 603.563618 439.368305 
L 606.084855 420.843558 
L 608.606091 438.453622 
L 611.127327 392.549349 
L 613.648563 405.332452 
L 616.169799 409.209426 
L 618.691036 410.368025 
L 621.212272 414.010712 
L 623.733508 419.874314 
L 626.254744 426.92861 
L 628.77598 420.121439 
L 636.339689 442.494276 
L 638.860925 376.168491 
L 641.382162 391.11474 
L 643.903398 393.36775 
L 646.424634 401.526085 
L 648.94587 349.825607 
L 651.467106 355.021651 
L 653.988343 435.642174 
L 656.509579 439.381143 
L 659.030815 440.048701 
L 661.552051 359.784424 
L 664.073288 192.926902 
L 666.594524 430.109141 
L 669.11576 434.528506 
L 671.636996 458.534936 
L 674.158232 419.919246 
L 676.679469 427.852922 
L 679.200705 368.106439 
L 681.721941 446.801312 
L 684.243177 389.311048 
L 686.764414 428.199539 
L 694.328122 228.053956 
L 696.849358 318.119789 
L 699.370595 383.380048 
L 701.891831 381.714361 
L 704.413067 383.434608 
L 706.934303 404.924856 
L 709.455539 346.487815 
L 711.976776 419.097636 
L 714.498012 424.977285 
L 717.019248 392.241245 
L 722.061721 434.188308 
L 724.582957 393.983958 
L 727.104193 368.773997 
L 729.625429 408.236973 
L 732.146665 418.093088 
L 734.667902 403.487038 
L 737.189138 402.04601 
L 739.710374 413.063934 
L 742.23161 386.878311 
L 744.752847 405.306776 
L 752.316555 439.480635 
L 754.837791 462.283533 
L 757.359028 444.538674 
L 759.880264 424.434894 
L 762.4015 442.125193 
L 764.922736 439.201416 
L 767.443973 450.421533 
L 769.965209 451.599388 
L 772.486445 451.448546 
L 775.007681 446.181895 
L 777.528917 452.061544 
L 780.050154 428.979427 
L 782.57139 450.267481 
L 785.092626 415.400389 
L 787.613862 406.898646 
L 790.135098 446.156219 
L 792.656335 431.190714 
L 795.177571 448.364297 
L 797.698807 431.392907 
L 800.220043 418.272816 
L 802.74128 439.788739 
L 810.304988 427.461373 
L 812.826224 444.987992 
L 815.347461 370.853699 
L 817.868697 445.312143 
L 820.389933 414.553103 
L 822.911169 360.888463 
L 825.432406 433.95723 
L 827.953642 408.622103 
L 830.474878 394.885804 
L 832.996114 445.851325 
L 835.51735 444.593234 
L 838.038587 403.053766 
L 840.559823 434.913636 
L 843.081059 402.999206 
L 845.602295 365.253268 
L 848.123532 444.28513 
L 850.644768 376.755814 
L 853.166004 448.492674 
L 858.208476 305.968941 
L 860.729713 395.049484 
L 868.293421 336.374946 
L 870.814658 231.0002 
L 873.335894 400.306507 
L 875.85713 387.179996 
L 878.378366 368.000528 
L 880.899602 356.860646 
L 883.420839 374.647228 
L 885.942075 372.368543 
L 888.463311 406.619427 
L 890.984547 363.43353 
L 893.505783 372.805023 
L 896.02702 410.984233 
L 898.548256 394.5777 
L 901.069492 410.287789 
L 903.590728 357.967895 
L 906.111965 413.603116 
L 908.633201 392.292596 
L 911.154437 381.894089 
L 913.675673 422.58948 
L 916.196909 419.765194 
L 918.718146 376.219842 
L 926.281854 421.097102 
L 928.803091 386.952128 
L 931.324327 440.282989 
L 933.845563 443.12974 
L 936.366799 441.281117 
L 938.888035 453.066091 
L 941.409272 386.409737 
L 943.930508 413.503624 
L 946.451744 437.375258 
L 948.97298 440.921662 
L 951.494217 446.672935 
L 954.015453 454.760663 
L 956.536689 440.655281 
L 959.057925 443.309468 
L 961.579161 452.443465 
L 964.100398 450.777778 
L 966.621634 415.602582 
L 969.14287 385.357048 
L 971.664106 451.217468 
L 974.185342 438.273894 
L 976.706579 379.349022 
L 984.270287 407.335127 
L 986.791524 404.664893 
L 989.31276 418.535988 
L 991.833996 316.726903 
L 994.355232 388.31292 
L 996.876468 424.848909 
L 999.397705 439.275232 
L 1001.918941 387.208881 
L 1004.440177 418.558454 
L 1006.961413 422.20435 
L 1009.48265 411.263452 
L 1012.003886 420.715181 
L 1014.525122 390.62049 
L 1017.046358 421.148452 
L 1019.567594 439.580127 
L 1022.088831 426.078115 
L 1024.610067 435.500959 
L 1027.131303 429.595634 
L 1029.652539 417.168777 
L 1032.173776 417.836335 
L 1034.695012 432.346104 
L 1042.25872 350.050266 
L 1044.779957 455.274169 
L 1047.301193 449.625598 
L 1049.822429 442.972479 
L 1052.343665 453.605273 
L 1054.864902 412.136413 
L 1057.386138 418.378726 
L 1059.907374 437.943325 
L 1062.42861 401.27896 
L 1064.949846 399.735231 
L 1067.471083 438.068492 
L 1069.992319 396.920573 
L 1072.513555 421.071426 
L 1075.034791 452.343973 
L 1077.556027 453.935843 
L 1080.077264 458.637637 
L 1082.5985 448.133219 
L 1085.119736 469.369923 
L 1087.640972 460.277648 
L 1090.162209 457.170934 
L 1092.683445 457.761467 
L 1100.247153 424.662762 
L 1102.76839 369.293923 
L 1105.289626 410.826971 
L 1107.810862 409.674791 
L 1110.332098 433.472609 
L 1112.853335 394.677191 
L 1115.374571 389.105646 
L 1117.895807 377.320671 
L 1120.417043 428.674532 
L 1122.938279 438.537066 
L 1125.459516 416.578244 
L 1127.980752 417.86522 
L 1130.501988 441.563546 
L 1133.023224 357.370943 
L 1135.544461 400.072219 
L 1138.065697 426.48892 
L 1140.586933 397.809581 
L 1143.108169 434.83661 
L 1145.629405 376.219842 
L 1148.150642 360.557893 
L 1150.671878 436.216659 
L 1158.235586 425.410556 
L 1160.756823 416.562197 
L 1163.278059 428.395313 
L 1165.799295 399.276284 
L 1168.320531 436.341826 
L 1170.841768 389.670503 
L 1173.363004 439.406818 
L 1175.88424 426.87405 
L 1180.926712 429.528237 
L 1183.447949 348.564307 
L 1185.969185 420.66383 
L 1188.490421 410.698595 
L 1191.011657 395.010971 
L 1193.532894 415.297687 
L 1196.05413 427.005636 
L 1198.575366 416.116088 
L 1201.096602 367.464556 
L 1203.617838 411.802634 
L 1206.139075 391.933141 
L 1208.660311 408.622103 
L 1216.22402 357.964685 
L 1218.745256 444.490533 
L 1221.266492 444.66705 
L 1223.787728 445.466195 
L 1226.308964 370.314517 
L 1228.830201 416.196324 
L 1231.351437 388.287245 
L 1233.872673 439.503101 
L 1236.393909 448.113963 
L 1238.915145 386.024607 
L 1241.436382 441.10139 
L 1243.957618 449.930492 
L 1246.478854 421.816011 
L 1249.00009 431.421792 
L 1251.521327 439.377933 
L 1254.042563 442.000026 
L 1256.563799 454.683637 
L 1259.085035 452.218806 
L 1266.648744 405.589205 
L 1274.212453 406.205413 
L 1276.733689 453.993613 
L 1279.254925 384.025141 
L 1281.776161 439.201416 
L 1286.818634 350.695359 
L 1289.33987 416.915233 
L 1291.861106 406.362674 
L 1294.382342 428.308659 
L 1296.903579 463.483855 
L 1299.424815 436.091492 
L 1301.946051 419.453881 
L 1304.467287 453.014741 
L 1306.988523 439.150065 
L 1309.50976 461.20517 
L 1312.030996 414.167973 
L 1314.552232 434.143376 
L 1317.073468 406.4397 
L 1319.594705 450.11022 
L 1322.115941 445.976492 
L 1324.637177 443.46352 
L 1332.200886 444.410297 
L 1334.722122 418.298491 
L 1337.243358 433.96044 
L 1339.764594 430.574506 
L 1342.28583 423.334064 
L 1344.807067 438.277104 
L 1347.328303 412.239114 
L 1349.849539 403.743791 
L 1352.370775 381.143085 
L 1354.892012 425.516467 
L 1357.413248 415.580116 
L 1359.934484 422.942516 
L 1362.45572 410.210763 
L 1364.976956 388.181334 
L 1367.498193 374.188282 
L 1370.019429 405.849168 
L 1372.540665 338.011748 
L 1375.061901 359.53088 
L 1377.583138 375.959879 
L 1380.104374 410.213973 
L 1382.62561 395.245258 
L 1390.189319 240.708683 
L 1392.710555 347.765162 
L 1395.231791 351.95345 
L 1397.753027 311.976968 
L 1400.274264 88.887273 
L 1402.7955 383.69778 
L 1405.316736 354.780945 
L 1407.837972 376.142816 
L 1410.359208 358.603359 
L 1412.880445 324.175957 
L 1415.401681 365.840591 
L 1417.922917 425.054311 
L 1420.444153 425.513258 
L 1422.965389 413.474739 
L 1425.486626 419.303038 
L 1428.007862 435.93744 
L 1430.529098 379.300881 
L 1433.050334 451.214259 
L 1435.571571 434.499622 
L 1438.092807 387.131855 
L 1440.614043 438.046026 
L 1448.177752 413.115285 
L 1450.698988 431.948136 
L 1453.220224 423.096568 
L 1455.74146 414.986374 
L 1458.262697 385.052154 
L 1460.783933 412.550428 
L 1463.305169 437.734713 
L 1465.826405 437.969 
L 1468.347641 414.190439 
L 1470.868878 433.783922 
L 1473.390114 409.212635 
L 1475.91135 417.784985 
L 1478.432586 429.72722 
L 1480.953823 420.740856 
L 1483.475059 434.06635 
L 1485.996295 378.710348 
L 1488.517531 405.415896 
L 1491.038767 400.842479 
L 1493.560004 420.561129 
L 1496.08124 408.699129 
L 1498.602476 439.355467 
L 1506.166185 437.946534 
L 1508.687421 395.980214 
L 1511.208657 411.314803 
L 1513.729893 321.553864 
L 1516.25113 268.07537 
L 1518.772366 404.006963 
L 1521.293602 452.985856 
L 1523.814838 367.846476 
L 1526.336074 350.258878 
L 1528.857311 385.668362 
L 1531.378547 413.317478 
L 1533.899783 433.912298 
L 1536.421019 353.93045 
L 1538.942256 354.838714 
L 1541.463492 414.687898 
L 1543.984728 439.182159 
L 1546.505964 403.124374 
L 1549.0272 467.5213 
L 1551.548437 457.63309 
L 1554.069673 432.628532 
L 1556.590909 413.933686 
L 1556.590909 413.933686 
" style="fill:none;stroke:#c44e52;stroke-linecap:round;stroke-width:1.5;"/>
   </g>
   <g id="patch_3">
    <path d="M 225 504 
L 225 69.12 
" style="fill:none;stroke:#ffffff;stroke-linecap:square;stroke-linejoin:miter;stroke-width:1.25;"/>
   </g>
   <g id="patch_4">
    <path d="M 1620 504 
L 1620 69.12 
" style="fill:none;stroke:#ffffff;stroke-linecap:square;stroke-linejoin:miter;stroke-width:1.25;"/>
   </g>
   <g id="patch_5">
    <path d="M 225 504 
L 1620 504 
" style="fill:none;stroke:#ffffff;stroke-linecap:square;stroke-linejoin:miter;stroke-width:1.25;"/>
   </g>
   <g id="patch_6">
    <path d="M 225 69.12 
L 1620 69.12 
" style="fill:none;stroke:#ffffff;stroke-linecap:square;stroke-linejoin:miter;stroke-width:1.25;"/>
   </g>
   <g id="text_16">
    <!-- Duration of each trial by Condition -->
    <g style="fill:#262626;" transform="translate(832.122187 63.12)scale(0.12 -0.12)">
     <defs>
      <path d="M 7.71875 0 
L 7.71875 71.578125 
L 32.375 71.578125 
Q 40.71875 71.578125 45.125 70.5625 
Q 51.265625 69.140625 55.609375 65.4375 
Q 61.28125 60.640625 64.078125 53.1875 
Q 66.890625 45.75 66.890625 36.1875 
Q 66.890625 28.03125 64.984375 21.734375 
Q 63.09375 15.4375 60.109375 11.296875 
Q 57.125 7.171875 53.578125 4.796875 
Q 50.046875 2.4375 45.046875 1.21875 
Q 40.046875 0 33.546875 0 
z
M 17.1875 8.453125 
L 32.46875 8.453125 
Q 39.546875 8.453125 43.578125 9.765625 
Q 47.609375 11.078125 50 13.484375 
Q 53.375 16.84375 55.25 22.53125 
Q 57.125 28.21875 57.125 36.328125 
Q 57.125 47.5625 53.4375 53.59375 
Q 49.75 59.625 44.484375 61.671875 
Q 40.671875 63.140625 32.234375 63.140625 
L 17.1875 63.140625 
z
" id="ArialMT-68"/>
      <path d="M 40.578125 0 
L 40.578125 7.625 
Q 34.515625 -1.171875 24.125 -1.171875 
Q 19.53125 -1.171875 15.546875 0.578125 
Q 11.578125 2.34375 9.640625 5 
Q 7.71875 7.671875 6.9375 11.53125 
Q 6.390625 14.109375 6.390625 19.734375 
L 6.390625 51.859375 
L 15.1875 51.859375 
L 15.1875 23.09375 
Q 15.1875 16.21875 15.71875 13.8125 
Q 16.546875 10.359375 19.234375 8.375 
Q 21.921875 6.390625 25.875 6.390625 
Q 29.828125 6.390625 33.296875 8.421875 
Q 36.765625 10.453125 38.203125 13.9375 
Q 39.65625 17.4375 39.65625 24.078125 
L 39.65625 51.859375 
L 48.4375 51.859375 
L 48.4375 0 
z
" id="ArialMT-117"/>
      <path d="M 25.78125 7.859375 
L 27.046875 0.09375 
Q 23.34375 -0.6875 20.40625 -0.6875 
Q 15.625 -0.6875 12.984375 0.828125 
Q 10.359375 2.34375 9.28125 4.8125 
Q 8.203125 7.28125 8.203125 15.1875 
L 8.203125 45.015625 
L 1.765625 45.015625 
L 1.765625 51.859375 
L 8.203125 51.859375 
L 8.203125 64.703125 
L 16.9375 69.96875 
L 16.9375 51.859375 
L 25.78125 51.859375 
L 25.78125 45.015625 
L 16.9375 45.015625 
L 16.9375 14.703125 
Q 16.9375 10.9375 17.40625 9.859375 
Q 17.875 8.796875 18.921875 8.15625 
Q 19.96875 7.515625 21.921875 7.515625 
Q 23.390625 7.515625 25.78125 7.859375 
z
" id="ArialMT-116"/>
      <path d="M 3.328125 25.921875 
Q 3.328125 40.328125 11.328125 47.265625 
Q 18.015625 53.03125 27.640625 53.03125 
Q 38.328125 53.03125 45.109375 46.015625 
Q 51.90625 39.015625 51.90625 26.65625 
Q 51.90625 16.65625 48.90625 10.90625 
Q 45.90625 5.171875 40.15625 2 
Q 34.421875 -1.171875 27.640625 -1.171875 
Q 16.75 -1.171875 10.03125 5.8125 
Q 3.328125 12.796875 3.328125 25.921875 
z
M 12.359375 25.921875 
Q 12.359375 15.96875 16.703125 11.015625 
Q 21.046875 6.0625 27.640625 6.0625 
Q 34.1875 6.0625 38.53125 11.03125 
Q 42.875 16.015625 42.875 26.21875 
Q 42.875 35.84375 38.5 40.796875 
Q 34.125 45.75 27.640625 45.75 
Q 21.046875 45.75 16.703125 40.8125 
Q 12.359375 35.890625 12.359375 25.921875 
z
" id="ArialMT-111"/>
      <path d="M 6.59375 0 
L 6.59375 51.859375 
L 14.5 51.859375 
L 14.5 44.484375 
Q 20.21875 53.03125 31 53.03125 
Q 35.6875 53.03125 39.625 51.34375 
Q 43.5625 49.65625 45.515625 46.921875 
Q 47.46875 44.1875 48.25 40.4375 
Q 48.734375 37.984375 48.734375 31.890625 
L 48.734375 0 
L 39.9375 0 
L 39.9375 31.546875 
Q 39.9375 36.921875 38.90625 39.578125 
Q 37.890625 42.234375 35.28125 43.8125 
Q 32.671875 45.40625 29.15625 45.40625 
Q 23.53125 45.40625 19.453125 41.84375 
Q 15.375 38.28125 15.375 28.328125 
L 15.375 0 
z
" id="ArialMT-110"/>
      <path d="M 8.6875 0 
L 8.6875 45.015625 
L 0.921875 45.015625 
L 0.921875 51.859375 
L 8.6875 51.859375 
L 8.6875 57.375 
Q 8.6875 62.59375 9.625 65.140625 
Q 10.890625 68.5625 14.078125 70.671875 
Q 17.28125 72.796875 23.046875 72.796875 
Q 26.765625 72.796875 31.25 71.921875 
L 29.9375 64.265625 
Q 27.203125 64.75 24.75 64.75 
Q 20.75 64.75 19.09375 63.03125 
Q 17.4375 61.328125 17.4375 56.640625 
L 17.4375 51.859375 
L 27.546875 51.859375 
L 27.546875 45.015625 
L 17.4375 45.015625 
L 17.4375 0 
z
" id="ArialMT-102"/>
      <path d="M 40.4375 19 
L 49.078125 17.875 
Q 47.65625 8.9375 41.8125 3.875 
Q 35.984375 -1.171875 27.484375 -1.171875 
Q 16.84375 -1.171875 10.375 5.78125 
Q 3.90625 12.75 3.90625 25.734375 
Q 3.90625 34.125 6.6875 40.421875 
Q 9.46875 46.734375 15.15625 49.875 
Q 20.84375 53.03125 27.546875 53.03125 
Q 35.984375 53.03125 41.359375 48.75 
Q 46.734375 44.484375 48.25 36.625 
L 39.703125 35.296875 
Q 38.484375 40.53125 35.375 43.15625 
Q 32.28125 45.796875 27.875 45.796875 
Q 21.234375 45.796875 17.078125 41.03125 
Q 12.9375 36.28125 12.9375 25.984375 
Q 12.9375 15.53125 16.9375 10.796875 
Q 20.953125 6.0625 27.390625 6.0625 
Q 32.5625 6.0625 36.03125 9.234375 
Q 39.5 12.40625 40.4375 19 
z
" id="ArialMT-99"/>
      <path d="M 6.59375 0 
L 6.59375 71.578125 
L 15.375 71.578125 
L 15.375 45.90625 
Q 21.53125 53.03125 30.90625 53.03125 
Q 36.671875 53.03125 40.921875 50.75 
Q 45.171875 48.484375 47 44.484375 
Q 48.828125 40.484375 48.828125 32.859375 
L 48.828125 0 
L 40.046875 0 
L 40.046875 32.859375 
Q 40.046875 39.453125 37.1875 42.453125 
Q 34.328125 45.453125 29.109375 45.453125 
Q 25.203125 45.453125 21.75 43.421875 
Q 18.3125 41.40625 16.84375 37.9375 
Q 15.375 34.46875 15.375 28.375 
L 15.375 0 
z
" id="ArialMT-104"/>
      <path d="M 14.703125 0 
L 6.546875 0 
L 6.546875 71.578125 
L 15.328125 71.578125 
L 15.328125 46.046875 
Q 20.90625 53.03125 29.546875 53.03125 
Q 34.328125 53.03125 38.59375 51.09375 
Q 42.875 49.171875 45.625 45.671875 
Q 48.390625 42.1875 49.953125 37.25 
Q 51.515625 32.328125 51.515625 26.703125 
Q 51.515625 13.375 44.921875 6.09375 
Q 38.328125 -1.171875 29.109375 -1.171875 
Q 19.921875 -1.171875 14.703125 6.5 
z
M 14.59375 26.3125 
Q 14.59375 17 17.140625 12.84375 
Q 21.296875 6.0625 28.375 6.0625 
Q 34.125 6.0625 38.328125 11.0625 
Q 42.53125 16.0625 42.53125 25.984375 
Q 42.53125 36.140625 38.5 40.96875 
Q 34.46875 45.796875 28.765625 45.796875 
Q 23 45.796875 18.796875 40.796875 
Q 14.59375 35.796875 14.59375 26.3125 
z
" id="ArialMT-98"/>
      <path d="M 6.203125 -19.96875 
L 5.21875 -11.71875 
Q 8.109375 -12.5 10.25 -12.5 
Q 13.1875 -12.5 14.9375 -11.515625 
Q 16.703125 -10.546875 17.828125 -8.796875 
Q 18.65625 -7.46875 20.515625 -2.25 
Q 20.75 -1.515625 21.296875 -0.09375 
L 1.609375 51.859375 
L 11.078125 51.859375 
L 21.875 21.828125 
Q 23.96875 16.109375 25.640625 9.8125 
Q 27.15625 15.875 29.25 21.625 
L 40.328125 51.859375 
L 49.125 51.859375 
L 29.390625 -0.875 
Q 26.21875 -9.421875 24.46875 -12.640625 
Q 22.125 -17 19.09375 -19.015625 
Q 16.0625 -21.046875 11.859375 -21.046875 
Q 9.328125 -21.046875 6.203125 -19.96875 
z
" id="ArialMT-121"/>
      <path d="M 58.796875 25.09375 
L 68.265625 22.703125 
Q 65.28125 11.03125 57.546875 4.90625 
Q 49.8125 -1.21875 38.625 -1.21875 
Q 27.046875 -1.21875 19.796875 3.484375 
Q 12.546875 8.203125 8.765625 17.140625 
Q 4.984375 26.078125 4.984375 36.328125 
Q 4.984375 47.515625 9.25 55.828125 
Q 13.53125 64.15625 21.40625 68.46875 
Q 29.296875 72.796875 38.765625 72.796875 
Q 49.515625 72.796875 56.828125 67.328125 
Q 64.15625 61.859375 67.046875 51.953125 
L 57.71875 49.75 
Q 55.21875 57.5625 50.484375 61.125 
Q 45.75 64.703125 38.578125 64.703125 
Q 30.328125 64.703125 24.78125 60.734375 
Q 19.234375 56.78125 16.984375 50.109375 
Q 14.75 43.453125 14.75 36.375 
Q 14.75 27.25 17.40625 20.4375 
Q 20.0625 13.625 25.671875 10.25 
Q 31.296875 6.890625 37.84375 6.890625 
Q 45.796875 6.890625 51.3125 11.46875 
Q 56.84375 16.0625 58.796875 25.09375 
z
" id="ArialMT-67"/>
      <path d="M 40.234375 0 
L 40.234375 6.546875 
Q 35.296875 -1.171875 25.734375 -1.171875 
Q 19.53125 -1.171875 14.328125 2.25 
Q 9.125 5.671875 6.265625 11.796875 
Q 3.421875 17.921875 3.421875 25.875 
Q 3.421875 33.640625 6 39.96875 
Q 8.59375 46.296875 13.765625 49.65625 
Q 18.953125 53.03125 25.34375 53.03125 
Q 30.03125 53.03125 33.6875 51.046875 
Q 37.359375 49.078125 39.65625 45.90625 
L 39.65625 71.578125 
L 48.390625 71.578125 
L 48.390625 0 
z
M 12.453125 25.875 
Q 12.453125 15.921875 16.640625 10.984375 
Q 20.84375 6.0625 26.5625 6.0625 
Q 32.328125 6.0625 36.34375 10.765625 
Q 40.375 15.484375 40.375 25.140625 
Q 40.375 35.796875 36.265625 40.765625 
Q 32.171875 45.75 26.171875 45.75 
Q 20.3125 45.75 16.375 40.96875 
Q 12.453125 36.1875 12.453125 25.875 
z
" id="ArialMT-100"/>
     </defs>
     <use xlink:href="#ArialMT-68"/>
     <use x="72.216797" xlink:href="#ArialMT-117"/>
     <use x="127.832031" xlink:href="#ArialMT-114"/>
     <use x="161.132812" xlink:href="#ArialMT-97"/>
     <use x="216.748047" xlink:href="#ArialMT-116"/>
     <use x="244.53125" xlink:href="#ArialMT-105"/>
     <use x="266.748047" xlink:href="#ArialMT-111"/>
     <use x="322.363281" xlink:href="#ArialMT-110"/>
     <use x="377.978516" xlink:href="#ArialMT-32"/>
     <use x="405.761719" xlink:href="#ArialMT-111"/>
     <use x="461.376953" xlink:href="#ArialMT-102"/>
     <use x="489.160156" xlink:href="#ArialMT-32"/>
     <use x="516.943359" xlink:href="#ArialMT-101"/>
     <use x="572.558594" xlink:href="#ArialMT-97"/>
     <use x="628.173828" xlink:href="#ArialMT-99"/>
     <use x="678.173828" xlink:href="#ArialMT-104"/>
     <use x="733.789062" xlink:href="#ArialMT-32"/>
     <use x="761.572266" xlink:href="#ArialMT-116"/>
     <use x="789.355469" xlink:href="#ArialMT-114"/>
     <use x="822.65625" xlink:href="#ArialMT-105"/>
     <use x="844.873047" xlink:href="#ArialMT-97"/>
     <use x="900.488281" xlink:href="#ArialMT-108"/>
     <use x="922.705078" xlink:href="#ArialMT-32"/>
     <use x="950.488281" xlink:href="#ArialMT-98"/>
     <use x="1006.103516" xlink:href="#ArialMT-121"/>
     <use x="1056.103516" xlink:href="#ArialMT-32"/>
     <use x="1083.886719" xlink:href="#ArialMT-67"/>
     <use x="1156.103516" xlink:href="#ArialMT-111"/>
     <use x="1211.71875" xlink:href="#ArialMT-110"/>
     <use x="1267.333984" xlink:href="#ArialMT-100"/>
     <use x="1322.949219" xlink:href="#ArialMT-105"/>
     <use x="1345.166016" xlink:href="#ArialMT-116"/>
     <use x="1372.949219" xlink:href="#ArialMT-105"/>
     <use x="1395.166016" xlink:href="#ArialMT-111"/>
     <use x="1450.78125" xlink:href="#ArialMT-110"/>
    </g>
   </g>
   <g id="legend_1">
    <g id="patch_7">
     <path d="M 1475.604375 156.63375 
L 1612.3 156.63375 
Q 1614.5 156.63375 1614.5 154.43375 
L 1614.5 76.82 
Q 1614.5 74.62 1612.3 74.62 
L 1475.604375 74.62 
Q 1473.404375 74.62 1473.404375 76.82 
L 1473.404375 154.43375 
Q 1473.404375 156.63375 1475.604375 156.63375 
z
" style="fill:#eaeaf2;opacity:0.8;stroke:#cccccc;stroke-linejoin:miter;"/>
    </g>
    <g id="text_17">
     <!-- Condition -->
     <g style="fill:#262626;" transform="translate(1518.603125 87.609375)scale(0.12 -0.12)">
      <use xlink:href="#ArialMT-67"/>
      <use x="72.216797" xlink:href="#ArialMT-111"/>
      <use x="127.832031" xlink:href="#ArialMT-110"/>
      <use x="183.447266" xlink:href="#ArialMT-100"/>
      <use x="239.0625" xlink:href="#ArialMT-105"/>
      <use x="261.279297" xlink:href="#ArialMT-116"/>
      <use x="289.0625" xlink:href="#ArialMT-105"/>
      <use x="311.279297" xlink:href="#ArialMT-111"/>
      <use x="366.894531" xlink:href="#ArialMT-110"/>
     </g>
    </g>
    <g id="line2d_18">
     <path d="M 1477.804375 99.517969 
L 1499.804375 99.517969 
" style="fill:none;stroke:#4c72b0;stroke-linecap:round;stroke-width:1.5;"/>
    </g>
    <g id="line2d_19"/>
    <g id="text_18">
     <!-- No Feedback -->
     <g style="fill:#262626;" transform="translate(1508.604375 103.367969)scale(0.11 -0.11)">
      <defs>
       <path d="M 7.625 0 
L 7.625 71.578125 
L 17.328125 71.578125 
L 54.9375 15.375 
L 54.9375 71.578125 
L 64.015625 71.578125 
L 64.015625 0 
L 54.296875 0 
L 16.703125 56.25 
L 16.703125 0 
z
" id="ArialMT-78"/>
       <path d="M 8.203125 0 
L 8.203125 71.578125 
L 56.5 71.578125 
L 56.5 63.140625 
L 17.671875 63.140625 
L 17.671875 40.96875 
L 51.265625 40.96875 
L 51.265625 32.515625 
L 17.671875 32.515625 
L 17.671875 0 
z
" id="ArialMT-70"/>
       <path d="M 6.640625 0 
L 6.640625 71.578125 
L 15.4375 71.578125 
L 15.4375 30.765625 
L 36.234375 51.859375 
L 47.609375 51.859375 
L 27.78125 32.625 
L 49.609375 0 
L 38.765625 0 
L 21.625 26.515625 
L 15.4375 20.5625 
L 15.4375 0 
z
" id="ArialMT-107"/>
      </defs>
      <use xlink:href="#ArialMT-78"/>
      <use x="72.216797" xlink:href="#ArialMT-111"/>
      <use x="127.832031" xlink:href="#ArialMT-32"/>
      <use x="155.615234" xlink:href="#ArialMT-70"/>
      <use x="216.699219" xlink:href="#ArialMT-101"/>
      <use x="272.314453" xlink:href="#ArialMT-101"/>
      <use x="327.929688" xlink:href="#ArialMT-100"/>
      <use x="383.544922" xlink:href="#ArialMT-98"/>
      <use x="439.160156" xlink:href="#ArialMT-97"/>
      <use x="494.775391" xlink:href="#ArialMT-99"/>
      <use x="544.775391" xlink:href="#ArialMT-107"/>
     </g>
    </g>
    <g id="line2d_20">
     <path d="M 1477.804375 115.077812 
L 1499.804375 115.077812 
" style="fill:none;stroke:#dd8452;stroke-linecap:round;stroke-width:1.5;"/>
    </g>
    <g id="line2d_21"/>
    <g id="text_19">
     <!-- Tactile Feedback -->
     <g style="fill:#262626;" transform="translate(1508.604375 118.927812)scale(0.11 -0.11)">
      <use xlink:href="#ArialMT-84"/>
      <use x="49.958984" xlink:href="#ArialMT-97"/>
      <use x="105.574219" xlink:href="#ArialMT-99"/>
      <use x="155.574219" xlink:href="#ArialMT-116"/>
      <use x="183.357422" xlink:href="#ArialMT-105"/>
      <use x="205.574219" xlink:href="#ArialMT-108"/>
      <use x="227.791016" xlink:href="#ArialMT-101"/>
      <use x="283.40625" xlink:href="#ArialMT-32"/>
      <use x="311.189453" xlink:href="#ArialMT-70"/>
      <use x="372.273438" xlink:href="#ArialMT-101"/>
      <use x="427.888672" xlink:href="#ArialMT-101"/>
      <use x="483.503906" xlink:href="#ArialMT-100"/>
      <use x="539.119141" xlink:href="#ArialMT-98"/>
      <use x="594.734375" xlink:href="#ArialMT-97"/>
      <use x="650.349609" xlink:href="#ArialMT-99"/>
      <use x="700.349609" xlink:href="#ArialMT-107"/>
     </g>
    </g>
    <g id="line2d_22">
     <path d="M 1477.804375 130.637656 
L 1499.804375 130.637656 
" style="fill:none;stroke:#55a868;stroke-linecap:round;stroke-width:1.5;"/>
    </g>
    <g id="line2d_23"/>
    <g id="text_20">
     <!-- Visual Feedback -->
     <g style="fill:#262626;" transform="translate(1508.604375 134.487656)scale(0.11 -0.11)">
      <defs>
       <path d="M 28.171875 0 
L 0.4375 71.578125 
L 10.6875 71.578125 
L 29.296875 19.578125 
Q 31.546875 13.328125 33.0625 7.859375 
Q 34.71875 13.71875 36.921875 19.578125 
L 56.25 71.578125 
L 65.921875 71.578125 
L 37.890625 0 
z
" id="ArialMT-86"/>
      </defs>
      <use xlink:href="#ArialMT-86"/>
      <use x="64.949219" xlink:href="#ArialMT-105"/>
      <use x="87.166016" xlink:href="#ArialMT-115"/>
      <use x="137.166016" xlink:href="#ArialMT-117"/>
      <use x="192.78125" xlink:href="#ArialMT-97"/>
      <use x="248.396484" xlink:href="#ArialMT-108"/>
      <use x="270.613281" xlink:href="#ArialMT-32"/>
      <use x="298.396484" xlink:href="#ArialMT-70"/>
      <use x="359.480469" xlink:href="#ArialMT-101"/>
      <use x="415.095703" xlink:href="#ArialMT-101"/>
      <use x="470.710938" xlink:href="#ArialMT-100"/>
      <use x="526.326172" xlink:href="#ArialMT-98"/>
      <use x="581.941406" xlink:href="#ArialMT-97"/>
      <use x="637.556641" xlink:href="#ArialMT-99"/>
      <use x="687.556641" xlink:href="#ArialMT-107"/>
     </g>
    </g>
    <g id="line2d_24">
     <path d="M 1477.804375 146.1975 
L 1499.804375 146.1975 
" style="fill:none;stroke:#c44e52;stroke-linecap:round;stroke-width:1.5;"/>
    </g>
    <g id="line2d_25"/>
    <g id="text_21">
     <!-- Combined Feedback -->
     <g style="fill:#262626;" transform="translate(1508.604375 150.0475)scale(0.11 -0.11)">
      <use xlink:href="#ArialMT-67"/>
      <use x="72.216797" xlink:href="#ArialMT-111"/>
      <use x="127.832031" xlink:href="#ArialMT-109"/>
      <use x="211.132812" xlink:href="#ArialMT-98"/>
      <use x="266.748047" xlink:href="#ArialMT-105"/>
      <use x="288.964844" xlink:href="#ArialMT-110"/>
      <use x="344.580078" xlink:href="#ArialMT-101"/>
      <use x="400.195312" xlink:href="#ArialMT-100"/>
      <use x="455.810547" xlink:href="#ArialMT-32"/>
      <use x="483.59375" xlink:href="#ArialMT-70"/>
      <use x="544.677734" xlink:href="#ArialMT-101"/>
      <use x="600.292969" xlink:href="#ArialMT-101"/>
      <use x="655.908203" xlink:href="#ArialMT-100"/>
      <use x="711.523438" xlink:href="#ArialMT-98"/>
      <use x="767.138672" xlink:href="#ArialMT-97"/>
      <use x="822.753906" xlink:href="#ArialMT-99"/>
      <use x="872.753906" xlink:href="#ArialMT-107"/>
     </g>
    </g>
   </g>
  </g>
 </g>
 <defs>
  <clipPath id="p1264bc7a8e">
   <rect height="434.88" width="1395" x="225" y="69.12"/>
  </clipPath>
 </defs>
</svg>
