<?xml version="1.0" encoding="utf-8" standalone="no"?>
<!DOCTYPE svg PUBLIC "-//W3C//DTD SVG 1.1//EN"
  "http://www.w3.org/Graphics/SVG/1.1/DTD/svg11.dtd">
<svg xmlns:xlink="http://www.w3.org/1999/xlink" width="1338.328392pt" height="570.995391pt" viewBox="0 0 1338.328392 570.995391" xmlns="http://www.w3.org/2000/svg" version="1.1">
 <metadata>
  <rdf:RDF xmlns:dc="http://purl.org/dc/elements/1.1/" xmlns:cc="http://creativecommons.org/ns#" xmlns:rdf="http://www.w3.org/1999/02/22-rdf-syntax-ns#">
   <cc:Work>
    <dc:type rdf:resource="http://purl.org/dc/dcmitype/StillImage"/>
    <dc:date>2026-01-02T19:20:26.921710</dc:date>
    <dc:format>image/svg+xml</dc:format>
    <dc:creator>
     <cc:Agent>
      <dc:title>Matplotlib v3.8.0, https://matplotlib.org/</dc:title>
     </cc:Agent>
    </dc:creator>
   </cc:Work>
  </rdf:RDF>
 </metadata>
 <defs>
  <style type="text/css">*{stroke-linejoin: round; stroke-linecap: butt}</style>
 </defs>
 <g id="figure_1">
  <g id="patch_1">
   <path d="M 0 570.995391 
L 1338.328392 570.995391 
L 1338.328392 0 
L 0 0 
z
" style="fill: #ffffff"/>
  </g>
  <g id="axes_1">
   <g id="patch_2">
    <path d="M 55.942969 518.744063 
L 1113.970692 518.744063 
L 1113.970692 26.084062 
L 55.942969 26.084062 
z
" style="fill: #eaeaf2"/>
   </g>
   <g id="matplotlib.axis_1">
    <g id="xtick_1">
     <g id="line2d_1">
      <path d="M 147.755292 518.744063 
L 147.755292 26.084062 
" clip-path="url(#p903d7611fe)" style="fill: none; stroke: #ffffff; stroke-linecap: round"/>
     </g>
     <g id="text_1">
      <!-- 0 -->
      <g style="fill: #262626" transform="translate(143.167518 540.054453) scale(0.165 -0.165)">
       <defs>
        <path id="ArialMT-30" d="M 266 2259 
Q 266 3072 433 3567 
Q 600 4063 929 4331 
Q 1259 4600 1759 4600 
Q 2128 4600 2406 4451 
Q 2684 4303 2865 4023 
Q 3047 3744 3150 3342 
Q 3253 2941 3253 2259 
Q 3253 1453 3087 958 
Q 2922 463 2592 192 
Q 2263 -78 1759 -78 
Q 1097 -78 719 397 
Q 266 969 266 2259 
z
M 844 2259 
Q 844 1131 1108 757 
Q 1372 384 1759 384 
Q 2147 384 2411 759 
Q 2675 1134 2675 2259 
Q 2675 3391 2411 3762 
Q 2147 4134 1753 4134 
Q 1366 4134 1134 3806 
Q 844 3388 844 2259 
z
" transform="scale(0.015625)"/>
       </defs>
       <use xlink:href="#ArialMT-30"/>
      </g>
     </g>
    </g>
    <g id="xtick_2">
     <g id="line2d_2">
      <path d="M 191.475446 518.744063 
L 191.475446 26.084062 
" clip-path="url(#p903d7611fe)" style="fill: none; stroke: #ffffff; stroke-linecap: round"/>
     </g>
     <g id="text_2">
      <!-- 1 -->
      <g style="fill: #262626" transform="translate(186.887672 540.054453) scale(0.165 -0.165)">
       <defs>
        <path id="ArialMT-31" d="M 2384 0 
L 1822 0 
L 1822 3584 
Q 1619 3391 1289 3197 
Q 959 3003 697 2906 
L 697 3450 
Q 1169 3672 1522 3987 
Q 1875 4303 2022 4600 
L 2384 4600 
L 2384 0 
z
" transform="scale(0.015625)"/>
       </defs>
       <use xlink:href="#ArialMT-31"/>
      </g>
     </g>
    </g>
    <g id="xtick_3">
     <g id="line2d_3">
      <path d="M 235.1956 518.744063 
L 235.1956 26.084062 
" clip-path="url(#p903d7611fe)" style="fill: none; stroke: #ffffff; stroke-linecap: round"/>
     </g>
     <g id="text_3">
      <!-- 2 -->
      <g style="fill: #262626" transform="translate(230.607826 540.054453) scale(0.165 -0.165)">
       <defs>
        <path id="ArialMT-32" d="M 3222 541 
L 3222 0 
L 194 0 
Q 188 203 259 391 
Q 375 700 629 1000 
Q 884 1300 1366 1694 
Q 2113 2306 2375 2664 
Q 2638 3022 2638 3341 
Q 2638 3675 2398 3904 
Q 2159 4134 1775 4134 
Q 1369 4134 1125 3890 
Q 881 3647 878 3216 
L 300 3275 
Q 359 3922 746 4261 
Q 1134 4600 1788 4600 
Q 2447 4600 2831 4234 
Q 3216 3869 3216 3328 
Q 3216 3053 3103 2787 
Q 2991 2522 2730 2228 
Q 2469 1934 1863 1422 
Q 1356 997 1212 845 
Q 1069 694 975 541 
L 3222 541 
z
" transform="scale(0.015625)"/>
       </defs>
       <use xlink:href="#ArialMT-32"/>
      </g>
     </g>
    </g>
    <g id="xtick_4">
     <g id="line2d_4">
      <path d="M 278.915753 518.744063 
L 278.915753 26.084062 
" clip-path="url(#p903d7611fe)" style="fill: none; stroke: #ffffff; stroke-linecap: round"/>
     </g>
     <g id="text_4">
      <!-- 3 -->
      <g style="fill: #262626" transform="translate(274.32798 540.054453) scale(0.165 -0.165)">
       <defs>
        <path id="ArialMT-33" d="M 269 1209 
L 831 1284 
Q 928 806 1161 595 
Q 1394 384 1728 384 
Q 2125 384 2398 659 
Q 2672 934 2672 1341 
Q 2672 1728 2419 1979 
Q 2166 2231 1775 2231 
Q 1616 2231 1378 2169 
L 1441 2663 
Q 1497 2656 1531 2656 
Q 1891 2656 2178 2843 
Q 2466 3031 2466 3422 
Q 2466 3731 2256 3934 
Q 2047 4138 1716 4138 
Q 1388 4138 1169 3931 
Q 950 3725 888 3313 
L 325 3413 
Q 428 3978 793 4289 
Q 1159 4600 1703 4600 
Q 2078 4600 2393 4439 
Q 2709 4278 2876 4000 
Q 3044 3722 3044 3409 
Q 3044 3113 2884 2869 
Q 2725 2625 2413 2481 
Q 2819 2388 3044 2092 
Q 3269 1797 3269 1353 
Q 3269 753 2831 336 
Q 2394 -81 1725 -81 
Q 1122 -81 723 278 
Q 325 638 269 1209 
z
" transform="scale(0.015625)"/>
       </defs>
       <use xlink:href="#ArialMT-33"/>
      </g>
     </g>
    </g>
    <g id="xtick_5">
     <g id="line2d_5">
      <path d="M 322.635907 518.744063 
L 322.635907 26.084062 
" clip-path="url(#p903d7611fe)" style="fill: none; stroke: #ffffff; stroke-linecap: round"/>
     </g>
     <g id="text_5">
      <!-- 4 -->
      <g style="fill: #262626" transform="translate(318.048134 540.054453) scale(0.165 -0.165)">
       <defs>
        <path id="ArialMT-34" d="M 2069 0 
L 2069 1097 
L 81 1097 
L 81 1613 
L 2172 4581 
L 2631 4581 
L 2631 1613 
L 3250 1613 
L 3250 1097 
L 2631 1097 
L 2631 0 
L 2069 0 
z
M 2069 1613 
L 2069 3678 
L 634 1613 
L 2069 1613 
z
" transform="scale(0.015625)"/>
       </defs>
       <use xlink:href="#ArialMT-34"/>
      </g>
     </g>
    </g>
    <g id="xtick_6">
     <g id="line2d_6">
      <path d="M 366.356061 518.744063 
L 366.356061 26.084062 
" clip-path="url(#p903d7611fe)" style="fill: none; stroke: #ffffff; stroke-linecap: round"/>
     </g>
     <g id="text_6">
      <!-- 5 -->
      <g style="fill: #262626" transform="translate(361.768288 540.054453) scale(0.165 -0.165)">
       <defs>
        <path id="ArialMT-35" d="M 266 1200 
L 856 1250 
Q 922 819 1161 601 
Q 1400 384 1738 384 
Q 2144 384 2425 690 
Q 2706 997 2706 1503 
Q 2706 1984 2436 2262 
Q 2166 2541 1728 2541 
Q 1456 2541 1237 2417 
Q 1019 2294 894 2097 
L 366 2166 
L 809 4519 
L 3088 4519 
L 3088 3981 
L 1259 3981 
L 1013 2750 
Q 1425 3038 1878 3038 
Q 2478 3038 2890 2622 
Q 3303 2206 3303 1553 
Q 3303 931 2941 478 
Q 2500 -78 1738 -78 
Q 1113 -78 717 272 
Q 322 622 266 1200 
z
" transform="scale(0.015625)"/>
       </defs>
       <use xlink:href="#ArialMT-35"/>
      </g>
     </g>
    </g>
    <g id="xtick_7">
     <g id="line2d_7">
      <path d="M 410.076215 518.744063 
L 410.076215 26.084062 
" clip-path="url(#p903d7611fe)" style="fill: none; stroke: #ffffff; stroke-linecap: round"/>
     </g>
     <g id="text_7">
      <!-- 6 -->
      <g style="fill: #262626" transform="translate(405.488442 540.054453) scale(0.165 -0.165)">
       <defs>
        <path id="ArialMT-36" d="M 3184 3459 
L 2625 3416 
Q 2550 3747 2413 3897 
Q 2184 4138 1850 4138 
Q 1581 4138 1378 3988 
Q 1113 3794 959 3422 
Q 806 3050 800 2363 
Q 1003 2672 1297 2822 
Q 1591 2972 1913 2972 
Q 2475 2972 2870 2558 
Q 3266 2144 3266 1488 
Q 3266 1056 3080 686 
Q 2894 316 2569 119 
Q 2244 -78 1831 -78 
Q 1128 -78 684 439 
Q 241 956 241 2144 
Q 241 3472 731 4075 
Q 1159 4600 1884 4600 
Q 2425 4600 2770 4297 
Q 3116 3994 3184 3459 
z
M 888 1484 
Q 888 1194 1011 928 
Q 1134 663 1356 523 
Q 1578 384 1822 384 
Q 2178 384 2434 671 
Q 2691 959 2691 1453 
Q 2691 1928 2437 2201 
Q 2184 2475 1800 2475 
Q 1419 2475 1153 2201 
Q 888 1928 888 1484 
z
" transform="scale(0.015625)"/>
       </defs>
       <use xlink:href="#ArialMT-36"/>
      </g>
     </g>
    </g>
    <g id="xtick_8">
     <g id="line2d_8">
      <path d="M 453.796369 518.744063 
L 453.796369 26.084062 
" clip-path="url(#p903d7611fe)" style="fill: none; stroke: #ffffff; stroke-linecap: round"/>
     </g>
     <g id="text_8">
      <!-- 7 -->
      <g style="fill: #262626" transform="translate(449.208595 540.054453) scale(0.165 -0.165)">
       <defs>
        <path id="ArialMT-37" d="M 303 3981 
L 303 4522 
L 3269 4522 
L 3269 4084 
Q 2831 3619 2401 2847 
Q 1972 2075 1738 1259 
Q 1569 684 1522 0 
L 944 0 
Q 953 541 1156 1306 
Q 1359 2072 1739 2783 
Q 2119 3494 2547 3981 
L 303 3981 
z
" transform="scale(0.015625)"/>
       </defs>
       <use xlink:href="#ArialMT-37"/>
      </g>
     </g>
    </g>
    <g id="xtick_9">
     <g id="line2d_9">
      <path d="M 497.516523 518.744063 
L 497.516523 26.084062 
" clip-path="url(#p903d7611fe)" style="fill: none; stroke: #ffffff; stroke-linecap: round"/>
     </g>
     <g id="text_9">
      <!-- 8 -->
      <g style="fill: #262626" transform="translate(492.928749 540.054453) scale(0.165 -0.165)">
       <defs>
        <path id="ArialMT-38" d="M 1131 2484 
Q 781 2613 612 2850 
Q 444 3088 444 3419 
Q 444 3919 803 4259 
Q 1163 4600 1759 4600 
Q 2359 4600 2725 4251 
Q 3091 3903 3091 3403 
Q 3091 3084 2923 2848 
Q 2756 2613 2416 2484 
Q 2838 2347 3058 2040 
Q 3278 1734 3278 1309 
Q 3278 722 2862 322 
Q 2447 -78 1769 -78 
Q 1091 -78 675 323 
Q 259 725 259 1325 
Q 259 1772 486 2073 
Q 713 2375 1131 2484 
z
M 1019 3438 
Q 1019 3113 1228 2906 
Q 1438 2700 1772 2700 
Q 2097 2700 2305 2904 
Q 2513 3109 2513 3406 
Q 2513 3716 2298 3927 
Q 2084 4138 1766 4138 
Q 1444 4138 1231 3931 
Q 1019 3725 1019 3438 
z
M 838 1322 
Q 838 1081 952 856 
Q 1066 631 1291 507 
Q 1516 384 1775 384 
Q 2178 384 2440 643 
Q 2703 903 2703 1303 
Q 2703 1709 2433 1975 
Q 2163 2241 1756 2241 
Q 1359 2241 1098 1978 
Q 838 1716 838 1322 
z
" transform="scale(0.015625)"/>
       </defs>
       <use xlink:href="#ArialMT-38"/>
      </g>
     </g>
    </g>
    <g id="xtick_10">
     <g id="line2d_10">
      <path d="M 541.236677 518.744063 
L 541.236677 26.084062 
" clip-path="url(#p903d7611fe)" style="fill: none; stroke: #ffffff; stroke-linecap: round"/>
     </g>
     <g id="text_10">
      <!-- 9 -->
      <g style="fill: #262626" transform="translate(536.648903 540.054453) scale(0.165 -0.165)">
       <defs>
        <path id="ArialMT-39" d="M 350 1059 
L 891 1109 
Q 959 728 1153 556 
Q 1347 384 1650 384 
Q 1909 384 2104 503 
Q 2300 622 2425 820 
Q 2550 1019 2634 1356 
Q 2719 1694 2719 2044 
Q 2719 2081 2716 2156 
Q 2547 1888 2255 1720 
Q 1963 1553 1622 1553 
Q 1053 1553 659 1965 
Q 266 2378 266 3053 
Q 266 3750 677 4175 
Q 1088 4600 1706 4600 
Q 2153 4600 2523 4359 
Q 2894 4119 3086 3673 
Q 3278 3228 3278 2384 
Q 3278 1506 3087 986 
Q 2897 466 2520 194 
Q 2144 -78 1638 -78 
Q 1100 -78 759 220 
Q 419 519 350 1059 
z
M 2653 3081 
Q 2653 3566 2395 3850 
Q 2138 4134 1775 4134 
Q 1400 4134 1122 3828 
Q 844 3522 844 3034 
Q 844 2597 1108 2323 
Q 1372 2050 1759 2050 
Q 2150 2050 2401 2323 
Q 2653 2597 2653 3081 
z
" transform="scale(0.015625)"/>
       </defs>
       <use xlink:href="#ArialMT-39"/>
      </g>
     </g>
    </g>
    <g id="xtick_11">
     <g id="line2d_11">
      <path d="M 584.95683 518.744063 
L 584.95683 26.084062 
" clip-path="url(#p903d7611fe)" style="fill: none; stroke: #ffffff; stroke-linecap: round"/>
     </g>
     <g id="text_11">
      <!-- 10 -->
      <g style="fill: #262626" transform="translate(575.781284 540.054453) scale(0.165 -0.165)">
       <use xlink:href="#ArialMT-31"/>
       <use xlink:href="#ArialMT-30" x="55.615234"/>
      </g>
     </g>
    </g>
    <g id="xtick_12">
     <g id="line2d_12">
      <path d="M 628.676984 518.744063 
L 628.676984 26.084062 
" clip-path="url(#p903d7611fe)" style="fill: none; stroke: #ffffff; stroke-linecap: round"/>
     </g>
     <g id="text_12">
      <!-- 11 -->
      <g style="fill: #262626" transform="translate(620.109875 540.054453) scale(0.165 -0.165)">
       <use xlink:href="#ArialMT-31"/>
       <use xlink:href="#ArialMT-31" x="48.240234"/>
      </g>
     </g>
    </g>
    <g id="xtick_13">
     <g id="line2d_13">
      <path d="M 672.397138 518.744063 
L 672.397138 26.084062 
" clip-path="url(#p903d7611fe)" style="fill: none; stroke: #ffffff; stroke-linecap: round"/>
     </g>
     <g id="text_13">
      <!-- 12 -->
      <g style="fill: #262626" transform="translate(663.221591 540.054453) scale(0.165 -0.165)">
       <use xlink:href="#ArialMT-31"/>
       <use xlink:href="#ArialMT-32" x="55.615234"/>
      </g>
     </g>
    </g>
    <g id="xtick_14">
     <g id="line2d_14">
      <path d="M 716.117292 518.744063 
L 716.117292 26.084062 
" clip-path="url(#p903d7611fe)" style="fill: none; stroke: #ffffff; stroke-linecap: round"/>
     </g>
     <g id="text_14">
      <!-- 13 -->
      <g style="fill: #262626" transform="translate(706.941745 540.054453) scale(0.165 -0.165)">
       <use xlink:href="#ArialMT-31"/>
       <use xlink:href="#ArialMT-33" x="55.615234"/>
      </g>
     </g>
    </g>
    <g id="xtick_15">
     <g id="line2d_15">
      <path d="M 759.837446 518.744063 
L 759.837446 26.084062 
" clip-path="url(#p903d7611fe)" style="fill: none; stroke: #ffffff; stroke-linecap: round"/>
     </g>
     <g id="text_15">
      <!-- 14 -->
      <g style="fill: #262626" transform="translate(750.661899 540.054453) scale(0.165 -0.165)">
       <use xlink:href="#ArialMT-31"/>
       <use xlink:href="#ArialMT-34" x="55.615234"/>
      </g>
     </g>
    </g>
    <g id="xtick_16">
     <g id="line2d_16">
      <path d="M 803.5576 518.744063 
L 803.5576 26.084062 
" clip-path="url(#p903d7611fe)" style="fill: none; stroke: #ffffff; stroke-linecap: round"/>
     </g>
     <g id="text_16">
      <!-- 15 -->
      <g style="fill: #262626" transform="translate(794.382053 540.054453) scale(0.165 -0.165)">
       <use xlink:href="#ArialMT-31"/>
       <use xlink:href="#ArialMT-35" x="55.615234"/>
      </g>
     </g>
    </g>
    <g id="xtick_17">
     <g id="line2d_17">
      <path d="M 847.277754 518.744063 
L 847.277754 26.084062 
" clip-path="url(#p903d7611fe)" style="fill: none; stroke: #ffffff; stroke-linecap: round"/>
     </g>
     <g id="text_17">
      <!-- 16 -->
      <g style="fill: #262626" transform="translate(838.102207 540.054453) scale(0.165 -0.165)">
       <use xlink:href="#ArialMT-31"/>
       <use xlink:href="#ArialMT-36" x="55.615234"/>
      </g>
     </g>
    </g>
    <g id="xtick_18">
     <g id="line2d_18">
      <path d="M 890.997907 518.744063 
L 890.997907 26.084062 
" clip-path="url(#p903d7611fe)" style="fill: none; stroke: #ffffff; stroke-linecap: round"/>
     </g>
     <g id="text_18">
      <!-- 17 -->
      <g style="fill: #262626" transform="translate(881.822361 540.054453) scale(0.165 -0.165)">
       <use xlink:href="#ArialMT-31"/>
       <use xlink:href="#ArialMT-37" x="55.615234"/>
      </g>
     </g>
    </g>
    <g id="xtick_19">
     <g id="line2d_19">
      <path d="M 934.718061 518.744063 
L 934.718061 26.084062 
" clip-path="url(#p903d7611fe)" style="fill: none; stroke: #ffffff; stroke-linecap: round"/>
     </g>
     <g id="text_19">
      <!-- 18 -->
      <g style="fill: #262626" transform="translate(925.542514 540.054453) scale(0.165 -0.165)">
       <use xlink:href="#ArialMT-31"/>
       <use xlink:href="#ArialMT-38" x="55.615234"/>
      </g>
     </g>
    </g>
    <g id="xtick_20">
     <g id="line2d_20">
      <path d="M 978.438215 518.744063 
L 978.438215 26.084062 
" clip-path="url(#p903d7611fe)" style="fill: none; stroke: #ffffff; stroke-linecap: round"/>
     </g>
     <g id="text_20">
      <!-- 19 -->
      <g style="fill: #262626" transform="translate(969.262668 540.054453) scale(0.165 -0.165)">
       <use xlink:href="#ArialMT-31"/>
       <use xlink:href="#ArialMT-39" x="55.615234"/>
      </g>
     </g>
    </g>
    <g id="xtick_21">
     <g id="line2d_21">
      <path d="M 1022.158369 518.744063 
L 1022.158369 26.084062 
" clip-path="url(#p903d7611fe)" style="fill: none; stroke: #ffffff; stroke-linecap: round"/>
     </g>
     <g id="text_21">
      <!-- 20 -->
      <g style="fill: #262626" transform="translate(1012.982822 540.054453) scale(0.165 -0.165)">
       <use xlink:href="#ArialMT-32"/>
       <use xlink:href="#ArialMT-30" x="55.615234"/>
      </g>
     </g>
    </g>
    <g id="text_22">
     <!-- Trial Number -->
     <g style="fill: #262626" transform="translate(533.288393 560.217891) scale(0.18 -0.18)">
      <defs>
       <path id="ArialMT-54" d="M 1659 0 
L 1659 4041 
L 150 4041 
L 150 4581 
L 3781 4581 
L 3781 4041 
L 2266 4041 
L 2266 0 
L 1659 0 
z
" transform="scale(0.015625)"/>
       <path id="ArialMT-72" d="M 416 0 
L 416 3319 
L 922 3319 
L 922 2816 
Q 1116 3169 1280 3281 
Q 1444 3394 1641 3394 
Q 1925 3394 2219 3213 
L 2025 2691 
Q 1819 2813 1613 2813 
Q 1428 2813 1281 2702 
Q 1134 2591 1072 2394 
Q 978 2094 978 1738 
L 978 0 
L 416 0 
z
" transform="scale(0.015625)"/>
       <path id="ArialMT-69" d="M 425 3934 
L 425 4581 
L 988 4581 
L 988 3934 
L 425 3934 
z
M 425 0 
L 425 3319 
L 988 3319 
L 988 0 
L 425 0 
z
" transform="scale(0.015625)"/>
       <path id="ArialMT-61" d="M 2588 409 
Q 2275 144 1986 34 
Q 1697 -75 1366 -75 
Q 819 -75 525 192 
Q 231 459 231 875 
Q 231 1119 342 1320 
Q 453 1522 633 1644 
Q 813 1766 1038 1828 
Q 1203 1872 1538 1913 
Q 2219 1994 2541 2106 
Q 2544 2222 2544 2253 
Q 2544 2597 2384 2738 
Q 2169 2928 1744 2928 
Q 1347 2928 1158 2789 
Q 969 2650 878 2297 
L 328 2372 
Q 403 2725 575 2942 
Q 747 3159 1072 3276 
Q 1397 3394 1825 3394 
Q 2250 3394 2515 3294 
Q 2781 3194 2906 3042 
Q 3031 2891 3081 2659 
Q 3109 2516 3109 2141 
L 3109 1391 
Q 3109 606 3145 398 
Q 3181 191 3288 0 
L 2700 0 
Q 2613 175 2588 409 
z
M 2541 1666 
Q 2234 1541 1622 1453 
Q 1275 1403 1131 1340 
Q 988 1278 909 1158 
Q 831 1038 831 891 
Q 831 666 1001 516 
Q 1172 366 1500 366 
Q 1825 366 2078 508 
Q 2331 650 2450 897 
Q 2541 1088 2541 1459 
L 2541 1666 
z
" transform="scale(0.015625)"/>
       <path id="ArialMT-6c" d="M 409 0 
L 409 4581 
L 972 4581 
L 972 0 
L 409 0 
z
" transform="scale(0.015625)"/>
       <path id="ArialMT-20" transform="scale(0.015625)"/>
       <path id="ArialMT-4e" d="M 488 0 
L 488 4581 
L 1109 4581 
L 3516 984 
L 3516 4581 
L 4097 4581 
L 4097 0 
L 3475 0 
L 1069 3600 
L 1069 0 
L 488 0 
z
" transform="scale(0.015625)"/>
       <path id="ArialMT-75" d="M 2597 0 
L 2597 488 
Q 2209 -75 1544 -75 
Q 1250 -75 995 37 
Q 741 150 617 320 
Q 494 491 444 738 
Q 409 903 409 1263 
L 409 3319 
L 972 3319 
L 972 1478 
Q 972 1038 1006 884 
Q 1059 663 1231 536 
Q 1403 409 1656 409 
Q 1909 409 2131 539 
Q 2353 669 2445 892 
Q 2538 1116 2538 1541 
L 2538 3319 
L 3100 3319 
L 3100 0 
L 2597 0 
z
" transform="scale(0.015625)"/>
       <path id="ArialMT-6d" d="M 422 0 
L 422 3319 
L 925 3319 
L 925 2853 
Q 1081 3097 1340 3245 
Q 1600 3394 1931 3394 
Q 2300 3394 2536 3241 
Q 2772 3088 2869 2813 
Q 3263 3394 3894 3394 
Q 4388 3394 4653 3120 
Q 4919 2847 4919 2278 
L 4919 0 
L 4359 0 
L 4359 2091 
Q 4359 2428 4304 2576 
Q 4250 2725 4106 2815 
Q 3963 2906 3769 2906 
Q 3419 2906 3187 2673 
Q 2956 2441 2956 1928 
L 2956 0 
L 2394 0 
L 2394 2156 
Q 2394 2531 2256 2718 
Q 2119 2906 1806 2906 
Q 1569 2906 1367 2781 
Q 1166 2656 1075 2415 
Q 984 2175 984 1722 
L 984 0 
L 422 0 
z
" transform="scale(0.015625)"/>
       <path id="ArialMT-62" d="M 941 0 
L 419 0 
L 419 4581 
L 981 4581 
L 981 2947 
Q 1338 3394 1891 3394 
Q 2197 3394 2470 3270 
Q 2744 3147 2920 2923 
Q 3097 2700 3197 2384 
Q 3297 2069 3297 1709 
Q 3297 856 2875 390 
Q 2453 -75 1863 -75 
Q 1275 -75 941 416 
L 941 0 
z
M 934 1684 
Q 934 1088 1097 822 
Q 1363 388 1816 388 
Q 2184 388 2453 708 
Q 2722 1028 2722 1663 
Q 2722 2313 2464 2622 
Q 2206 2931 1841 2931 
Q 1472 2931 1203 2611 
Q 934 2291 934 1684 
z
" transform="scale(0.015625)"/>
       <path id="ArialMT-65" d="M 2694 1069 
L 3275 997 
Q 3138 488 2766 206 
Q 2394 -75 1816 -75 
Q 1088 -75 661 373 
Q 234 822 234 1631 
Q 234 2469 665 2931 
Q 1097 3394 1784 3394 
Q 2450 3394 2872 2941 
Q 3294 2488 3294 1666 
Q 3294 1616 3291 1516 
L 816 1516 
Q 847 969 1125 678 
Q 1403 388 1819 388 
Q 2128 388 2347 550 
Q 2566 713 2694 1069 
z
M 847 1978 
L 2700 1978 
Q 2663 2397 2488 2606 
Q 2219 2931 1791 2931 
Q 1403 2931 1139 2672 
Q 875 2413 847 1978 
z
" transform="scale(0.015625)"/>
      </defs>
      <use xlink:href="#ArialMT-54"/>
      <use xlink:href="#ArialMT-72" x="57.333984"/>
      <use xlink:href="#ArialMT-69" x="90.634766"/>
      <use xlink:href="#ArialMT-61" x="112.851562"/>
      <use xlink:href="#ArialMT-6c" x="168.466797"/>
      <use xlink:href="#ArialMT-20" x="190.683594"/>
      <use xlink:href="#ArialMT-4e" x="218.466797"/>
      <use xlink:href="#ArialMT-75" x="290.683594"/>
      <use xlink:href="#ArialMT-6d" x="346.298828"/>
      <use xlink:href="#ArialMT-62" x="429.599609"/>
      <use xlink:href="#ArialMT-65" x="485.214844"/>
      <use xlink:href="#ArialMT-72" x="540.830078"/>
     </g>
    </g>
   </g>
   <g id="matplotlib.axis_2">
    <g id="ytick_1">
     <g id="line2d_22">
      <path d="M 55.942969 510.800193 
L 1113.970692 510.800193 
" clip-path="url(#p903d7611fe)" style="fill: none; stroke: #ffffff; stroke-linecap: round"/>
     </g>
     <g id="text_23">
      <!-- 25 -->
      <g style="fill: #262626" transform="translate(28.091875 516.705388) scale(0.165 -0.165)">
       <use xlink:href="#ArialMT-32"/>
       <use xlink:href="#ArialMT-35" x="55.615234"/>
      </g>
     </g>
    </g>
    <g id="ytick_2">
     <g id="line2d_23">
      <path d="M 55.942969 438.620873 
L 1113.970692 438.620873 
" clip-path="url(#p903d7611fe)" style="fill: none; stroke: #ffffff; stroke-linecap: round"/>
     </g>
     <g id="text_24">
      <!-- 30 -->
      <g style="fill: #262626" transform="translate(28.091875 444.526069) scale(0.165 -0.165)">
       <use xlink:href="#ArialMT-33"/>
       <use xlink:href="#ArialMT-30" x="55.615234"/>
      </g>
     </g>
    </g>
    <g id="ytick_3">
     <g id="line2d_24">
      <path d="M 55.942969 366.441554 
L 1113.970692 366.441554 
" clip-path="url(#p903d7611fe)" style="fill: none; stroke: #ffffff; stroke-linecap: round"/>
     </g>
     <g id="text_25">
      <!-- 35 -->
      <g style="fill: #262626" transform="translate(28.091875 372.34675) scale(0.165 -0.165)">
       <use xlink:href="#ArialMT-33"/>
       <use xlink:href="#ArialMT-35" x="55.615234"/>
      </g>
     </g>
    </g>
    <g id="ytick_4">
     <g id="line2d_25">
      <path d="M 55.942969 294.262235 
L 1113.970692 294.262235 
" clip-path="url(#p903d7611fe)" style="fill: none; stroke: #ffffff; stroke-linecap: round"/>
     </g>
     <g id="text_26">
      <!-- 40 -->
      <g style="fill: #262626" transform="translate(28.091875 300.167431) scale(0.165 -0.165)">
       <use xlink:href="#ArialMT-34"/>
       <use xlink:href="#ArialMT-30" x="55.615234"/>
      </g>
     </g>
    </g>
    <g id="ytick_5">
     <g id="line2d_26">
      <path d="M 55.942969 222.082916 
L 1113.970692 222.082916 
" clip-path="url(#p903d7611fe)" style="fill: none; stroke: #ffffff; stroke-linecap: round"/>
     </g>
     <g id="text_27">
      <!-- 45 -->
      <g style="fill: #262626" transform="translate(28.091875 227.988112) scale(0.165 -0.165)">
       <use xlink:href="#ArialMT-34"/>
       <use xlink:href="#ArialMT-35" x="55.615234"/>
      </g>
     </g>
    </g>
    <g id="ytick_6">
     <g id="line2d_27">
      <path d="M 55.942969 149.903597 
L 1113.970692 149.903597 
" clip-path="url(#p903d7611fe)" style="fill: none; stroke: #ffffff; stroke-linecap: round"/>
     </g>
     <g id="text_28">
      <!-- 50 -->
      <g style="fill: #262626" transform="translate(28.091875 155.808793) scale(0.165 -0.165)">
       <use xlink:href="#ArialMT-35"/>
       <use xlink:href="#ArialMT-30" x="55.615234"/>
      </g>
     </g>
    </g>
    <g id="ytick_7">
     <g id="line2d_28">
      <path d="M 55.942969 77.724278 
L 1113.970692 77.724278 
" clip-path="url(#p903d7611fe)" style="fill: none; stroke: #ffffff; stroke-linecap: round"/>
     </g>
     <g id="text_29">
      <!-- 55 -->
      <g style="fill: #262626" transform="translate(28.091875 83.629474) scale(0.165 -0.165)">
       <use xlink:href="#ArialMT-35"/>
       <use xlink:href="#ArialMT-35" x="55.615234"/>
      </g>
     </g>
    </g>
    <g id="text_30">
     <!-- Time (s) -->
     <g style="fill: #262626" transform="translate(20.303438 305.068594) rotate(-90) scale(0.18 -0.18)">
      <defs>
       <path id="ArialMT-28" d="M 1497 -1347 
Q 1031 -759 709 28 
Q 388 816 388 1659 
Q 388 2403 628 3084 
Q 909 3875 1497 4659 
L 1900 4659 
Q 1522 4009 1400 3731 
Q 1209 3300 1100 2831 
Q 966 2247 966 1656 
Q 966 153 1900 -1347 
L 1497 -1347 
z
" transform="scale(0.015625)"/>
       <path id="ArialMT-73" d="M 197 991 
L 753 1078 
Q 800 744 1014 566 
Q 1228 388 1613 388 
Q 2000 388 2187 545 
Q 2375 703 2375 916 
Q 2375 1106 2209 1216 
Q 2094 1291 1634 1406 
Q 1016 1563 777 1677 
Q 538 1791 414 1992 
Q 291 2194 291 2438 
Q 291 2659 392 2848 
Q 494 3038 669 3163 
Q 800 3259 1026 3326 
Q 1253 3394 1513 3394 
Q 1903 3394 2198 3281 
Q 2494 3169 2634 2976 
Q 2775 2784 2828 2463 
L 2278 2388 
Q 2241 2644 2061 2787 
Q 1881 2931 1553 2931 
Q 1166 2931 1000 2803 
Q 834 2675 834 2503 
Q 834 2394 903 2306 
Q 972 2216 1119 2156 
Q 1203 2125 1616 2013 
Q 2213 1853 2448 1751 
Q 2684 1650 2818 1456 
Q 2953 1263 2953 975 
Q 2953 694 2789 445 
Q 2625 197 2315 61 
Q 2006 -75 1616 -75 
Q 969 -75 630 194 
Q 291 463 197 991 
z
" transform="scale(0.015625)"/>
       <path id="ArialMT-29" d="M 791 -1347 
L 388 -1347 
Q 1322 153 1322 1656 
Q 1322 2244 1188 2822 
Q 1081 3291 891 3722 
Q 769 4003 388 4659 
L 791 4659 
Q 1378 3875 1659 3084 
Q 1900 2403 1900 1659 
Q 1900 816 1576 28 
Q 1253 -759 791 -1347 
z
" transform="scale(0.015625)"/>
      </defs>
      <use xlink:href="#ArialMT-54"/>
      <use xlink:href="#ArialMT-69" x="57.333984"/>
      <use xlink:href="#ArialMT-6d" x="79.550781"/>
      <use xlink:href="#ArialMT-65" x="162.851562"/>
      <use xlink:href="#ArialMT-20" x="218.466797"/>
      <use xlink:href="#ArialMT-28" x="246.25"/>
      <use xlink:href="#ArialMT-73" x="279.550781"/>
      <use xlink:href="#ArialMT-29" x="329.550781"/>
     </g>
    </g>
   </g>
   <g id="PathCollection_1">
    <defs>
     <path id="mc53a8b8e26" d="M 0 3.535534 
C 0.937635 3.535534 1.836992 3.163008 2.5 2.5 
C 3.163008 1.836992 3.535534 0.937635 3.535534 0 
C 3.535534 -0.937635 3.163008 -1.836992 2.5 -2.5 
C 1.836992 -3.163008 0.937635 -3.535534 0 -3.535534 
C -0.937635 -3.535534 -1.836992 -3.163008 -2.5 -2.5 
C -3.163008 -1.836992 -3.535534 -0.937635 -3.535534 0 
C -3.535534 0.937635 -3.163008 1.836992 -2.5 2.5 
C -1.836992 3.163008 -0.937635 3.535534 0 3.535534 
z
" style="stroke: #4c72b0"/>
    </defs>
    <g clip-path="url(#p903d7611fe)">
     <use xlink:href="#mc53a8b8e26" x="147.755292" y="282.992638" style="fill: #4c72b0; stroke: #4c72b0"/>
     <use xlink:href="#mc53a8b8e26" x="191.475446" y="272.882034" style="fill: #4c72b0; stroke: #4c72b0"/>
     <use xlink:href="#mc53a8b8e26" x="235.1956" y="245.681429" style="fill: #4c72b0; stroke: #4c72b0"/>
     <use xlink:href="#mc53a8b8e26" x="278.915753" y="282.560937" style="fill: #4c72b0; stroke: #4c72b0"/>
     <use xlink:href="#mc53a8b8e26" x="322.635907" y="257.342857" style="fill: #4c72b0; stroke: #4c72b0"/>
     <use xlink:href="#mc53a8b8e26" x="366.356061" y="349.532346" style="fill: #4c72b0; stroke: #4c72b0"/>
     <use xlink:href="#mc53a8b8e26" x="410.076215" y="365.307308" style="fill: #4c72b0; stroke: #4c72b0"/>
     <use xlink:href="#mc53a8b8e26" x="453.796369" y="300.729502" style="fill: #4c72b0; stroke: #4c72b0"/>
     <use xlink:href="#mc53a8b8e26" x="497.516523" y="348.797492" style="fill: #4c72b0; stroke: #4c72b0"/>
     <use xlink:href="#mc53a8b8e26" x="541.236677" y="303.5115" style="fill: #4c72b0; stroke: #4c72b0"/>
     <use xlink:href="#mc53a8b8e26" x="584.95683" y="293.596811" style="fill: #4c72b0; stroke: #4c72b0"/>
     <use xlink:href="#mc53a8b8e26" x="628.676984" y="281.913385" style="fill: #4c72b0; stroke: #4c72b0"/>
     <use xlink:href="#mc53a8b8e26" x="672.397138" y="317.676519" style="fill: #4c72b0; stroke: #4c72b0"/>
     <use xlink:href="#mc53a8b8e26" x="716.117292" y="303.385014" style="fill: #4c72b0; stroke: #4c72b0"/>
     <use xlink:href="#mc53a8b8e26" x="759.837446" y="292.603486" style="fill: #4c72b0; stroke: #4c72b0"/>
     <use xlink:href="#mc53a8b8e26" x="803.5576" y="171.300985" style="fill: #4c72b0; stroke: #4c72b0"/>
     <use xlink:href="#mc53a8b8e26" x="847.277754" y="281.562112" style="fill: #4c72b0; stroke: #4c72b0"/>
     <use xlink:href="#mc53a8b8e26" x="890.997907" y="250.849468" style="fill: #4c72b0; stroke: #4c72b0"/>
     <use xlink:href="#mc53a8b8e26" x="934.718061" y="313.038482" style="fill: #4c72b0; stroke: #4c72b0"/>
     <use xlink:href="#mc53a8b8e26" x="978.438215" y="295.818559" style="fill: #4c72b0; stroke: #4c72b0"/>
     <use xlink:href="#mc53a8b8e26" x="1022.158369" y="343.543525" style="fill: #4c72b0; stroke: #4c72b0"/>
    </g>
   </g>
   <g id="PolyCollection_1">
    <defs>
     <path id="m166017ede4" d="M 147.755292 -316.049367 
L 147.755292 -240.344765 
L 156.587646 -240.813235 
L 165.42 -241.201967 
L 174.252355 -241.596508 
L 183.084709 -242.017795 
L 191.917063 -242.627712 
L 200.749418 -243.0184 
L 209.581772 -243.42763 
L 218.414126 -243.936066 
L 227.246481 -244.442885 
L 236.078835 -245.171424 
L 244.911189 -245.899962 
L 253.743544 -246.622995 
L 262.575898 -246.994277 
L 271.408252 -247.366482 
L 280.240607 -247.747229 
L 289.072961 -248.127977 
L 297.905315 -248.578109 
L 306.73767 -249.332208 
L 315.570024 -250.090172 
L 324.402378 -250.775152 
L 333.234732 -251.224613 
L 342.067087 -252.033986 
L 350.899441 -252.297994 
L 359.731795 -252.591882 
L 368.56415 -253.040161 
L 377.396504 -253.277941 
L 386.228858 -253.507934 
L 395.061213 -253.737568 
L 403.893567 -253.967438 
L 412.725921 -254.19813 
L 421.558276 -254.575482 
L 430.39063 -255.089719 
L 439.222984 -255.308493 
L 448.055339 -255.523023 
L 456.887693 -255.742946 
L 465.720047 -256.427052 
L 474.552402 -257.219808 
L 483.384756 -257.344022 
L 492.21711 -257.436638 
L 501.049464 -257.524396 
L 509.881819 -257.989282 
L 518.714173 -258.176863 
L 527.546527 -258.616954 
L 536.378882 -258.905755 
L 545.211236 -258.889126 
L 554.04359 -258.936066 
L 562.875945 -259.120807 
L 571.708299 -259.196681 
L 580.540653 -259.363276 
L 589.373008 -259.653444 
L 598.205362 -259.871074 
L 607.037716 -259.903666 
L 615.870071 -260.244297 
L 624.702425 -260.344089 
L 633.534779 -260.294594 
L 642.367134 -260.225464 
L 651.199488 -260.407104 
L 660.031842 -260.431082 
L 668.864196 -260.12052 
L 677.696551 -259.795943 
L 686.528905 -259.355903 
L 695.361259 -259.198419 
L 704.193614 -258.814443 
L 713.025968 -258.619744 
L 721.858322 -258.534108 
L 730.690677 -258.184819 
L 739.523031 -257.581396 
L 748.355385 -257.16712 
L 757.18774 -256.842201 
L 766.020094 -256.513419 
L 774.852448 -256.164096 
L 783.684803 -255.747642 
L 792.517157 -255.257825 
L 801.349511 -254.933921 
L 810.181866 -254.554206 
L 819.01422 -254.044136 
L 827.846574 -253.603166 
L 836.678928 -253.299503 
L 845.511283 -252.991911 
L 854.343637 -252.468997 
L 863.175991 -251.91489 
L 872.008346 -251.257607 
L 880.8407 -250.600324 
L 889.673054 -249.943041 
L 898.505409 -249.285759 
L 907.337763 -248.638223 
L 916.170117 -248.375475 
L 925.002472 -247.573484 
L 933.834826 -247.29243 
L 942.66718 -246.865737 
L 951.499535 -246.001503 
L 960.331889 -245.138447 
L 969.164243 -244.277503 
L 977.996598 -243.708443 
L 986.828952 -243.311502 
L 995.661306 -243.056801 
L 1004.49366 -242.613858 
L 1013.326015 -241.798976 
L 1022.158369 -241.208792 
L 1022.158369 -316.387952 
L 1022.158369 -316.387952 
L 1013.326015 -315.794819 
L 1004.49366 -315.200191 
L 995.661306 -314.595999 
L 986.828952 -314.029152 
L 977.996598 -313.64576 
L 969.164243 -313.347294 
L 960.331889 -313.048706 
L 951.499535 -312.582949 
L 942.66718 -312.034412 
L 933.834826 -311.552726 
L 925.002472 -311.219934 
L 916.170117 -310.338471 
L 907.337763 -309.696421 
L 898.505409 -309.109936 
L 889.673054 -308.52345 
L 880.8407 -307.936965 
L 872.008346 -307.348157 
L 863.175991 -306.755617 
L 854.343637 -306.230624 
L 845.511283 -305.741748 
L 836.678928 -305.367855 
L 827.846574 -305.062066 
L 819.01422 -304.369718 
L 810.181866 -303.822253 
L 801.349511 -303.41558 
L 792.517157 -303.059075 
L 783.684803 -302.822189 
L 774.852448 -302.534154 
L 766.020094 -301.896949 
L 757.18774 -301.446511 
L 748.355385 -301.542866 
L 739.523031 -301.485921 
L 730.690677 -300.934942 
L 721.858322 -300.383963 
L 713.025968 -299.989618 
L 704.193614 -299.397255 
L 695.361259 -299.234563 
L 686.528905 -298.934122 
L 677.696551 -298.454195 
L 668.864196 -298.159669 
L 660.031842 -298.45323 
L 651.199488 -298.099959 
L 642.367134 -298.102246 
L 633.534779 -297.983351 
L 624.702425 -297.577951 
L 615.870071 -297.430132 
L 607.037716 -297.214582 
L 598.205362 -297.086434 
L 589.373008 -296.96116 
L 580.540653 -297.12442 
L 571.708299 -296.885785 
L 562.875945 -296.604997 
L 554.04359 -296.557254 
L 545.211236 -296.763237 
L 536.378882 -296.982095 
L 527.546527 -297.191792 
L 518.714173 -297.177801 
L 509.881819 -297.084866 
L 501.049464 -297.442144 
L 492.21711 -297.14123 
L 483.384756 -297.044343 
L 474.552402 -297.416351 
L 465.720047 -297.954372 
L 456.887693 -298.240579 
L 448.055339 -298.85039 
L 439.222984 -298.91442 
L 430.39063 -298.973198 
L 421.558276 -299.422305 
L 412.725921 -299.882799 
L 403.893567 -300.244947 
L 395.061213 -300.802437 
L 386.228858 -301.285255 
L 377.396504 -301.924031 
L 368.56415 -302.526564 
L 359.731795 -302.756759 
L 350.899441 -303.227727 
L 342.067087 -303.727314 
L 333.234732 -304.265571 
L 324.402378 -305.066089 
L 315.570024 -305.490566 
L 306.73767 -305.752429 
L 297.905315 -306.181086 
L 289.072961 -306.56522 
L 280.240607 -307.187804 
L 271.408252 -307.625299 
L 262.575898 -308.149474 
L 253.743544 -308.678061 
L 244.911189 -309.182598 
L 236.078835 -309.676025 
L 227.246481 -310.164334 
L 218.414126 -310.79092 
L 209.581772 -311.448226 
L 200.749418 -312.105532 
L 191.917063 -312.762837 
L 183.084709 -313.420143 
L 174.252355 -314.076346 
L 165.42 -314.733602 
L 156.587646 -315.39162 
L 147.755292 -316.049367 
z
" style="stroke: #ffffff; stroke-opacity: 0.15"/>
    </defs>
    <g clip-path="url(#p903d7611fe)">
     <use xlink:href="#m166017ede4" x="0" y="570.995391" style="fill: #4c72b0; fill-opacity: 0.15; stroke: #ffffff; stroke-opacity: 0.15"/>
    </g>
   </g>
   <g id="PathCollection_2">
    <defs>
     <path id="m576683db26" d="M 0 3.535534 
C 0.937635 3.535534 1.836992 3.163008 2.5 2.5 
C 3.163008 1.836992 3.535534 0.937635 3.535534 0 
C 3.535534 -0.937635 3.163008 -1.836992 2.5 -2.5 
C 1.836992 -3.163008 0.937635 -3.535534 0 -3.535534 
C -0.937635 -3.535534 -1.836992 -3.163008 -2.5 -2.5 
C -3.163008 -1.836992 -3.535534 -0.937635 -3.535534 0 
C -3.535534 0.937635 -3.163008 1.836992 -2.5 2.5 
C -1.836992 3.163008 -0.937635 3.535534 0 3.535534 
z
" style="stroke: #dd8452"/>
    </defs>
    <g clip-path="url(#p903d7611fe)">
     <use xlink:href="#m576683db26" x="147.755292" y="230.210995" style="fill: #dd8452; stroke: #dd8452"/>
     <use xlink:href="#m576683db26" x="191.475446" y="298.377144" style="fill: #dd8452; stroke: #dd8452"/>
     <use xlink:href="#m576683db26" x="235.1956" y="316.635762" style="fill: #dd8452; stroke: #dd8452"/>
     <use xlink:href="#m576683db26" x="278.915753" y="266.364585" style="fill: #dd8452; stroke: #dd8452"/>
     <use xlink:href="#m576683db26" x="322.635907" y="211.342634" style="fill: #dd8452; stroke: #dd8452"/>
     <use xlink:href="#m576683db26" x="366.356061" y="274.858372" style="fill: #dd8452; stroke: #dd8452"/>
     <use xlink:href="#m576683db26" x="410.076215" y="308.551678" style="fill: #dd8452; stroke: #dd8452"/>
     <use xlink:href="#m576683db26" x="453.796369" y="275.776081" style="fill: #dd8452; stroke: #dd8452"/>
     <use xlink:href="#m576683db26" x="497.516523" y="281.300892" style="fill: #dd8452; stroke: #dd8452"/>
     <use xlink:href="#m576683db26" x="541.236677" y="258.910867" style="fill: #dd8452; stroke: #dd8452"/>
     <use xlink:href="#m576683db26" x="584.95683" y="219.960157" style="fill: #dd8452; stroke: #dd8452"/>
     <use xlink:href="#m576683db26" x="628.676984" y="259.452556" style="fill: #dd8452; stroke: #dd8452"/>
     <use xlink:href="#m576683db26" x="672.397138" y="260.97932" style="fill: #dd8452; stroke: #dd8452"/>
     <use xlink:href="#m576683db26" x="716.117292" y="316.674258" style="fill: #dd8452; stroke: #dd8452"/>
     <use xlink:href="#m576683db26" x="759.837446" y="310.970717" style="fill: #dd8452; stroke: #dd8452"/>
     <use xlink:href="#m576683db26" x="803.5576" y="385.364222" style="fill: #dd8452; stroke: #dd8452"/>
     <use xlink:href="#m576683db26" x="847.277754" y="269.543225" style="fill: #dd8452; stroke: #dd8452"/>
     <use xlink:href="#m576683db26" x="890.997907" y="287.165977" style="fill: #dd8452; stroke: #dd8452"/>
     <use xlink:href="#m576683db26" x="934.718061" y="218.883654" style="fill: #dd8452; stroke: #dd8452"/>
     <use xlink:href="#m576683db26" x="978.438215" y="301.968237" style="fill: #dd8452; stroke: #dd8452"/>
     <use xlink:href="#m576683db26" x="1022.158369" y="287.340582" style="fill: #dd8452; stroke: #dd8452"/>
    </g>
   </g>
   <g id="PolyCollection_2">
    <defs>
     <path id="m51a6ecce0f" d="M 147.755292 -341.54852 
L 147.755292 -268.626176 
L 156.587646 -269.10436 
L 165.42 -269.455789 
L 174.252355 -269.590753 
L 183.084709 -269.787151 
L 191.917063 -270.042273 
L 200.749418 -270.27309 
L 209.581772 -270.460425 
L 218.414126 -270.570594 
L 227.246481 -270.812935 
L 236.078835 -271.017244 
L 244.911189 -271.319532 
L 253.743544 -271.624844 
L 262.575898 -271.930157 
L 271.408252 -272.23547 
L 280.240607 -272.540783 
L 289.072961 -272.846096 
L 297.905315 -273.046233 
L 306.73767 -272.992334 
L 315.570024 -273.376414 
L 324.402378 -273.517446 
L 333.234732 -273.7798 
L 342.067087 -274.085765 
L 350.899441 -274.292616 
L 359.731795 -274.457294 
L 368.56415 -274.393312 
L 377.396504 -274.060531 
L 386.228858 -274.239403 
L 395.061213 -274.158828 
L 403.893567 -274.233059 
L 412.725921 -274.446469 
L 421.558276 -274.284118 
L 430.39063 -273.992135 
L 439.222984 -273.955864 
L 448.055339 -274.561824 
L 456.887693 -274.593154 
L 465.720047 -274.366542 
L 474.552402 -274.502659 
L 483.384756 -274.639641 
L 492.21711 -274.626175 
L 501.049464 -274.633901 
L 509.881819 -274.449907 
L 518.714173 -274.291017 
L 527.546527 -274.052505 
L 536.378882 -274.010121 
L 545.211236 -274.079557 
L 554.04359 -274.031905 
L 562.875945 -273.525536 
L 571.708299 -273.010167 
L 580.540653 -272.986376 
L 589.373008 -272.7332 
L 598.205362 -272.498594 
L 607.037716 -272.207631 
L 615.870071 -272.141532 
L 624.702425 -271.584709 
L 633.534779 -271.476416 
L 642.367134 -271.23559 
L 651.199488 -271.174757 
L 660.031842 -271.003746 
L 668.864196 -270.66834 
L 677.696551 -270.242349 
L 686.528905 -269.679718 
L 695.361259 -269.110548 
L 704.193614 -268.530247 
L 713.025968 -267.960549 
L 721.858322 -267.393949 
L 730.690677 -266.82283 
L 739.523031 -266.114672 
L 748.355385 -265.674998 
L 757.18774 -264.964024 
L 766.020094 -264.413312 
L 774.852448 -263.526355 
L 783.684803 -262.597719 
L 792.517157 -261.75151 
L 801.349511 -261.180052 
L 810.181866 -260.525301 
L 819.01422 -259.704183 
L 827.846574 -258.775415 
L 836.678928 -257.81348 
L 845.511283 -257.206737 
L 854.343637 -256.534248 
L 863.175991 -256.0116 
L 872.008346 -255.210893 
L 880.8407 -254.660544 
L 889.673054 -253.99625 
L 898.505409 -253.209435 
L 907.337763 -252.544665 
L 916.170117 -251.977837 
L 925.002472 -251.09642 
L 933.834826 -250.170109 
L 942.66718 -249.247711 
L 951.499535 -248.451613 
L 960.331889 -247.776646 
L 969.164243 -247.224302 
L 977.996598 -246.347072 
L 986.828952 -245.588587 
L 995.661306 -245.054746 
L 1004.49366 -244.189402 
L 1013.326015 -243.259732 
L 1022.158369 -242.377131 
L 1022.158369 -318.24632 
L 1022.158369 -318.24632 
L 1013.326015 -317.839824 
L 1004.49366 -317.433328 
L 995.661306 -317.126699 
L 986.828952 -316.977981 
L 977.996598 -316.829263 
L 969.164243 -316.510695 
L 960.331889 -316.144121 
L 951.499535 -315.77152 
L 942.66718 -315.494486 
L 933.834826 -315.037921 
L 925.002472 -314.665936 
L 916.170117 -314.292876 
L 907.337763 -313.924866 
L 898.505409 -313.56882 
L 889.673054 -313.211776 
L 880.8407 -312.842784 
L 872.008346 -312.46899 
L 863.175991 -312.095066 
L 854.343637 -312.302409 
L 845.511283 -311.841537 
L 836.678928 -311.824803 
L 827.846574 -311.304206 
L 819.01422 -310.997345 
L 810.181866 -311.110243 
L 801.349511 -311.163195 
L 792.517157 -311.476814 
L 783.684803 -311.587003 
L 774.852448 -311.617211 
L 766.020094 -311.558107 
L 757.18774 -311.228327 
L 748.355385 -310.98105 
L 739.523031 -311.241451 
L 730.690677 -311.501852 
L 721.858322 -311.75095 
L 713.025968 -311.409677 
L 704.193614 -311.42819 
L 695.361259 -311.192349 
L 686.528905 -311.192461 
L 677.696551 -311.52485 
L 668.864196 -311.821655 
L 660.031842 -311.681939 
L 651.199488 -311.537457 
L 642.367134 -311.438141 
L 633.534779 -311.502778 
L 624.702425 -311.39908 
L 615.870071 -311.856995 
L 607.037716 -312.334002 
L 598.205362 -312.450903 
L 589.373008 -312.274921 
L 580.540653 -312.470722 
L 571.708299 -312.996628 
L 562.875945 -313.591595 
L 554.04359 -313.759863 
L 545.211236 -313.780899 
L 536.378882 -313.875745 
L 527.546527 -314.420815 
L 518.714173 -314.964456 
L 509.881819 -315.371064 
L 501.049464 -315.954349 
L 492.21711 -316.731713 
L 483.384756 -317.067064 
L 474.552402 -317.77005 
L 465.720047 -318.472811 
L 456.887693 -319.175572 
L 448.055339 -319.594029 
L 439.222984 -320.165939 
L 430.39063 -320.468023 
L 421.558276 -321.178004 
L 412.725921 -321.674276 
L 403.893567 -322.634119 
L 395.061213 -323.306596 
L 386.228858 -323.47384 
L 377.396504 -323.641085 
L 368.56415 -324.42866 
L 359.731795 -325.218922 
L 350.899441 -325.699386 
L 342.067087 -326.172047 
L 333.234732 -326.644708 
L 324.402378 -327.117368 
L 315.570024 -327.589489 
L 306.73767 -328.116442 
L 297.905315 -328.535283 
L 289.072961 -329.256648 
L 280.240607 -329.753891 
L 271.408252 -330.283512 
L 262.575898 -330.918111 
L 253.743544 -331.647497 
L 244.911189 -332.376442 
L 236.078835 -333.127931 
L 227.246481 -333.837562 
L 218.414126 -334.756643 
L 209.581772 -335.706964 
L 200.749418 -336.641937 
L 191.917063 -337.528197 
L 183.084709 -338.247585 
L 174.252355 -339.054644 
L 165.42 -339.943491 
L 156.587646 -340.708128 
L 147.755292 -341.54852 
z
" style="stroke: #ffffff; stroke-opacity: 0.15"/>
    </defs>
    <g clip-path="url(#p903d7611fe)">
     <use xlink:href="#m51a6ecce0f" x="0" y="570.995391" style="fill: #dd8452; fill-opacity: 0.15; stroke: #ffffff; stroke-opacity: 0.15"/>
    </g>
   </g>
   <g id="PathCollection_3">
    <defs>
     <path id="mc95014ffc0" d="M 0 3.535534 
C 0.937635 3.535534 1.836992 3.163008 2.5 2.5 
C 3.163008 1.836992 3.535534 0.937635 3.535534 0 
C 3.535534 -0.937635 3.163008 -1.836992 2.5 -2.5 
C 1.836992 -3.163008 0.937635 -3.535534 0 -3.535534 
C -0.937635 -3.535534 -1.836992 -3.163008 -2.5 -2.5 
C -3.163008 -1.836992 -3.535534 -0.937635 -3.535534 0 
C -3.535534 0.937635 -3.163008 1.836992 -2.5 2.5 
C -1.836992 3.163008 -0.937635 3.535534 0 3.535534 
z
" style="stroke: #55a868"/>
    </defs>
    <g clip-path="url(#p903d7611fe)">
     <use xlink:href="#mc95014ffc0" x="147.755292" y="273.860923" style="fill: #55a868; stroke: #55a868"/>
     <use xlink:href="#mc95014ffc0" x="191.475446" y="379.761732" style="fill: #55a868; stroke: #55a868"/>
     <use xlink:href="#mc95014ffc0" x="235.1956" y="391.761372" style="fill: #55a868; stroke: #55a868"/>
     <use xlink:href="#mc95014ffc0" x="278.915753" y="368.100991" style="fill: #55a868; stroke: #55a868"/>
     <use xlink:href="#mc95014ffc0" x="322.635907" y="352.342527" style="fill: #55a868; stroke: #55a868"/>
     <use xlink:href="#mc95014ffc0" x="366.356061" y="356.831394" style="fill: #55a868; stroke: #55a868"/>
     <use xlink:href="#mc95014ffc0" x="410.076215" y="391.21006" style="fill: #55a868; stroke: #55a868"/>
     <use xlink:href="#mc95014ffc0" x="453.796369" y="385.118125" style="fill: #55a868; stroke: #55a868"/>
     <use xlink:href="#mc95014ffc0" x="497.516523" y="375.056328" style="fill: #55a868; stroke: #55a868"/>
     <use xlink:href="#mc95014ffc0" x="541.236677" y="418.993598" style="fill: #55a868; stroke: #55a868"/>
     <use xlink:href="#mc95014ffc0" x="584.95683" y="407.095697" style="fill: #55a868; stroke: #55a868"/>
     <use xlink:href="#mc95014ffc0" x="628.676984" y="359.728878" style="fill: #55a868; stroke: #55a868"/>
     <use xlink:href="#mc95014ffc0" x="672.397138" y="387.162518" style="fill: #55a868; stroke: #55a868"/>
     <use xlink:href="#mc95014ffc0" x="716.117292" y="399.736156" style="fill: #55a868; stroke: #55a868"/>
     <use xlink:href="#mc95014ffc0" x="759.837446" y="427.865468" style="fill: #55a868; stroke: #55a868"/>
     <use xlink:href="#mc95014ffc0" x="803.5576" y="362.385764" style="fill: #55a868; stroke: #55a868"/>
     <use xlink:href="#mc95014ffc0" x="847.277754" y="391.451345" style="fill: #55a868; stroke: #55a868"/>
     <use xlink:href="#mc95014ffc0" x="890.997907" y="410.627671" style="fill: #55a868; stroke: #55a868"/>
     <use xlink:href="#mc95014ffc0" x="934.718061" y="392.833751" style="fill: #55a868; stroke: #55a868"/>
     <use xlink:href="#mc95014ffc0" x="978.438215" y="449.436085" style="fill: #55a868; stroke: #55a868"/>
     <use xlink:href="#mc95014ffc0" x="1022.158369" y="409.878381" style="fill: #55a868; stroke: #55a868"/>
    </g>
   </g>
   <g id="PolyCollection_3">
    <defs>
     <path id="mc74e714ea0" d="M 147.755292 -252.815425 
L 147.755292 -191.290591 
L 156.587646 -191.000673 
L 165.42 -190.763855 
L 174.252355 -190.409894 
L 183.084709 -190.137695 
L 191.917063 -189.937072 
L 200.749418 -189.608833 
L 209.581772 -189.470561 
L 218.414126 -189.333611 
L 227.246481 -189.077504 
L 236.078835 -188.642127 
L 244.911189 -188.206751 
L 253.743544 -187.896824 
L 262.575898 -187.807375 
L 271.408252 -187.713739 
L 280.240607 -187.314525 
L 289.072961 -186.915311 
L 297.905315 -186.516097 
L 306.73767 -186.051541 
L 315.570024 -185.71517 
L 324.402378 -185.458764 
L 333.234732 -185.167067 
L 342.067087 -184.87778 
L 350.899441 -184.459892 
L 359.731795 -183.920639 
L 368.56415 -183.436798 
L 377.396504 -182.912532 
L 386.228858 -182.498008 
L 395.061213 -182.093637 
L 403.893567 -181.692949 
L 412.725921 -181.292261 
L 421.558276 -180.891573 
L 430.39063 -180.490885 
L 439.222984 -180.138752 
L 448.055339 -179.704786 
L 456.887693 -179.284115 
L 465.720047 -178.912498 
L 474.552402 -178.514767 
L 483.384756 -178.272196 
L 492.21711 -178.022783 
L 501.049464 -177.222726 
L 509.881819 -176.646831 
L 518.714173 -176.378934 
L 527.546527 -175.854799 
L 536.378882 -175.43445 
L 545.211236 -175.08017 
L 554.04359 -174.619733 
L 562.875945 -174.121202 
L 571.708299 -173.508711 
L 580.540653 -172.875528 
L 589.373008 -172.22579 
L 598.205362 -171.762046 
L 607.037716 -170.879894 
L 615.870071 -170.195018 
L 624.702425 -169.377346 
L 633.534779 -168.545101 
L 642.367134 -167.815167 
L 651.199488 -167.089676 
L 660.031842 -166.201302 
L 668.864196 -165.303687 
L 677.696551 -164.427893 
L 686.528905 -163.667568 
L 695.361259 -162.757859 
L 704.193614 -162.030108 
L 713.025968 -161.095327 
L 721.858322 -160.230622 
L 730.690677 -159.423722 
L 739.523031 -158.552671 
L 748.355385 -157.709285 
L 757.18774 -156.914234 
L 766.020094 -156.056665 
L 774.852448 -154.943301 
L 783.684803 -153.86672 
L 792.517157 -152.771748 
L 801.349511 -151.976032 
L 810.181866 -151.176733 
L 819.01422 -149.985847 
L 827.846574 -148.79496 
L 836.678928 -147.604093 
L 845.511283 -146.413322 
L 854.343637 -145.222551 
L 863.175991 -144.025895 
L 872.008346 -142.932307 
L 880.8407 -141.876276 
L 889.673054 -140.754165 
L 898.505409 -139.663589 
L 907.337763 -138.573012 
L 916.170117 -137.650223 
L 925.002472 -136.59371 
L 933.834826 -135.537197 
L 942.66718 -134.480684 
L 951.499535 -133.42417 
L 960.331889 -132.367657 
L 969.164243 -131.311144 
L 977.996598 -130.254935 
L 986.828952 -129.200071 
L 995.661306 -127.833709 
L 1004.49366 -126.783761 
L 1013.326015 -125.735857 
L 1022.158369 -124.614076 
L 1022.158369 -177.412626 
L 1022.158369 -177.412626 
L 1013.326015 -177.744598 
L 1004.49366 -178.074565 
L 995.661306 -178.266136 
L 986.828952 -178.442958 
L 977.996598 -178.61978 
L 969.164243 -178.796603 
L 960.331889 -179.116983 
L 951.499535 -179.525547 
L 942.66718 -180.244417 
L 933.834826 -180.753073 
L 925.002472 -181.141961 
L 916.170117 -181.581299 
L 907.337763 -181.750171 
L 898.505409 -181.976934 
L 889.673054 -182.385499 
L 880.8407 -182.751258 
L 872.008346 -183.177722 
L 863.175991 -183.618948 
L 854.343637 -184.027388 
L 845.511283 -184.387681 
L 836.678928 -184.718752 
L 827.846574 -185.049822 
L 819.01422 -185.380163 
L 810.181866 -185.707628 
L 801.349511 -186.104231 
L 792.517157 -186.480996 
L 783.684803 -186.874756 
L 774.852448 -187.186249 
L 766.020094 -187.357473 
L 757.18774 -187.842171 
L 748.355385 -188.329586 
L 739.523031 -188.81963 
L 730.690677 -189.303837 
L 721.858322 -189.682271 
L 713.025968 -189.935205 
L 704.193614 -190.365217 
L 695.361259 -190.795229 
L 686.528905 -191.410274 
L 677.696551 -192.22574 
L 668.864196 -192.715543 
L 660.031842 -193.214192 
L 651.199488 -193.812787 
L 642.367134 -194.703111 
L 633.534779 -195.598882 
L 624.702425 -196.568321 
L 615.870071 -197.383594 
L 607.037716 -197.919633 
L 598.205362 -198.667131 
L 589.373008 -199.526155 
L 580.540653 -200.353583 
L 571.708299 -201.523253 
L 562.875945 -202.686225 
L 554.04359 -203.398956 
L 545.211236 -204.272927 
L 536.378882 -205.005295 
L 527.546527 -205.734436 
L 518.714173 -206.702167 
L 509.881819 -207.494564 
L 501.049464 -208.499936 
L 492.21711 -209.581056 
L 483.384756 -210.721152 
L 474.552402 -211.796436 
L 465.720047 -212.704914 
L 456.887693 -213.829738 
L 448.055339 -214.972676 
L 439.222984 -216.23218 
L 430.39063 -217.339048 
L 421.558276 -218.420862 
L 412.725921 -219.556473 
L 403.893567 -220.664195 
L 395.061213 -221.765008 
L 386.228858 -222.846288 
L 377.396504 -223.81448 
L 368.56415 -225.008837 
L 359.731795 -226.090129 
L 350.899441 -227.171409 
L 342.067087 -228.264637 
L 333.234732 -229.375195 
L 324.402378 -230.41525 
L 315.570024 -231.540376 
L 306.73767 -232.727465 
L 297.905315 -233.914555 
L 289.072961 -235.07384 
L 280.240607 -236.184275 
L 271.408252 -237.29471 
L 262.575898 -238.405145 
L 253.743544 -239.51558 
L 244.911189 -240.626014 
L 236.078835 -241.736449 
L 227.246481 -242.846884 
L 218.414126 -243.952921 
L 209.581772 -245.053201 
L 200.749418 -246.164484 
L 191.917063 -247.272653 
L 183.084709 -248.376953 
L 174.252355 -249.479088 
L 165.42 -250.594984 
L 156.587646 -251.707519 
L 147.755292 -252.815425 
z
" style="stroke: #ffffff; stroke-opacity: 0.15"/>
    </defs>
    <g clip-path="url(#p903d7611fe)">
     <use xlink:href="#mc74e714ea0" x="0" y="570.995391" style="fill: #55a868; fill-opacity: 0.15; stroke: #ffffff; stroke-opacity: 0.15"/>
    </g>
   </g>
   <g id="PathCollection_4">
    <defs>
     <path id="m09c7a7dd79" d="M 0 3.535534 
C 0.937635 3.535534 1.836992 3.163008 2.5 2.5 
C 3.163008 1.836992 3.535534 0.937635 3.535534 0 
C 3.535534 -0.937635 3.163008 -1.836992 2.5 -2.5 
C 1.836992 -3.163008 0.937635 -3.535534 0 -3.535534 
C -0.937635 -3.535534 -1.836992 -3.163008 -2.5 -2.5 
C -3.163008 -1.836992 -3.535534 -0.937635 -3.535534 0 
C -3.535534 0.937635 -3.163008 1.836992 -2.5 2.5 
C -1.836992 3.163008 -0.937635 3.535534 0 3.535534 
z
" style="stroke: #c44e52"/>
    </defs>
    <g clip-path="url(#p903d7611fe)">
     <use xlink:href="#m09c7a7dd79" x="147.755292" y="261.923151" style="fill: #c44e52; stroke: #c44e52"/>
     <use xlink:href="#m09c7a7dd79" x="191.475446" y="333.036278" style="fill: #c44e52; stroke: #c44e52"/>
     <use xlink:href="#m09c7a7dd79" x="235.1956" y="356.934507" style="fill: #c44e52; stroke: #c44e52"/>
     <use xlink:href="#m09c7a7dd79" x="278.915753" y="322.190132" style="fill: #c44e52; stroke: #c44e52"/>
     <use xlink:href="#m09c7a7dd79" x="322.635907" y="272.447583" style="fill: #c44e52; stroke: #c44e52"/>
     <use xlink:href="#m09c7a7dd79" x="366.356061" y="349.130204" style="fill: #c44e52; stroke: #c44e52"/>
     <use xlink:href="#m09c7a7dd79" x="410.076215" y="371.834381" style="fill: #c44e52; stroke: #c44e52"/>
     <use xlink:href="#m09c7a7dd79" x="453.796369" y="370.082142" style="fill: #c44e52; stroke: #c44e52"/>
     <use xlink:href="#m09c7a7dd79" x="497.516523" y="410.895078" style="fill: #c44e52; stroke: #c44e52"/>
     <use xlink:href="#m09c7a7dd79" x="541.236677" y="407.826426" style="fill: #c44e52; stroke: #c44e52"/>
     <use xlink:href="#m09c7a7dd79" x="584.95683" y="393.253765" style="fill: #c44e52; stroke: #c44e52"/>
     <use xlink:href="#m09c7a7dd79" x="628.676984" y="373.332273" style="fill: #c44e52; stroke: #c44e52"/>
     <use xlink:href="#m09c7a7dd79" x="672.397138" y="421.925453" style="fill: #c44e52; stroke: #c44e52"/>
     <use xlink:href="#m09c7a7dd79" x="716.117292" y="393.092909" style="fill: #c44e52; stroke: #c44e52"/>
     <use xlink:href="#m09c7a7dd79" x="759.837446" y="429.491221" style="fill: #c44e52; stroke: #c44e52"/>
     <use xlink:href="#m09c7a7dd79" x="803.5576" y="449.849913" style="fill: #c44e52; stroke: #c44e52"/>
     <use xlink:href="#m09c7a7dd79" x="847.277754" y="389.898458" style="fill: #c44e52; stroke: #c44e52"/>
     <use xlink:href="#m09c7a7dd79" x="890.997907" y="411.264912" style="fill: #c44e52; stroke: #c44e52"/>
     <use xlink:href="#m09c7a7dd79" x="934.718061" y="446.407303" style="fill: #c44e52; stroke: #c44e52"/>
     <use xlink:href="#m09c7a7dd79" x="978.438215" y="388.635664" style="fill: #c44e52; stroke: #c44e52"/>
     <use xlink:href="#m09c7a7dd79" x="1022.158369" y="416.037683" style="fill: #c44e52; stroke: #c44e52"/>
    </g>
   </g>
   <g id="PolyCollection_4">
    <defs>
     <path id="md4797a7121" d="M 147.755292 -298.504731 
L 147.755292 -212.935046 
L 156.587646 -212.257161 
L 165.42 -211.579276 
L 174.252355 -210.901391 
L 183.084709 -210.223507 
L 191.917063 -209.599414 
L 200.749418 -208.976924 
L 209.581772 -208.184107 
L 218.414126 -207.505091 
L 227.246481 -206.824033 
L 236.078835 -206.141693 
L 244.911189 -205.396443 
L 253.743544 -204.676853 
L 262.575898 -204.088326 
L 271.408252 -203.48636 
L 280.240607 -202.771951 
L 289.072961 -202.063808 
L 297.905315 -201.386243 
L 306.73767 -200.679717 
L 315.570024 -199.939828 
L 324.402378 -199.275087 
L 333.234732 -198.495085 
L 342.067087 -197.715083 
L 350.899441 -196.935246 
L 359.731795 -196.162141 
L 368.56415 -195.567733 
L 377.396504 -195.027603 
L 386.228858 -194.487473 
L 395.061213 -193.897511 
L 403.893567 -192.882342 
L 412.725921 -191.6383 
L 421.558276 -190.893457 
L 430.39063 -190.318194 
L 439.222984 -189.627276 
L 448.055339 -188.823142 
L 456.887693 -188.090038 
L 465.720047 -187.197689 
L 474.552402 -186.249631 
L 483.384756 -185.431918 
L 492.21711 -184.697377 
L 501.049464 -183.771436 
L 509.881819 -182.913337 
L 518.714173 -181.953987 
L 527.546527 -180.98131 
L 536.378882 -180.186411 
L 545.211236 -179.116253 
L 554.04359 -178.191878 
L 562.875945 -177.358515 
L 571.708299 -176.318099 
L 580.540653 -175.42193 
L 589.373008 -174.212336 
L 598.205362 -173.267188 
L 607.037716 -172.346052 
L 615.870071 -171.295838 
L 624.702425 -170.121388 
L 633.534779 -168.911882 
L 642.367134 -167.862025 
L 651.199488 -166.713908 
L 660.031842 -165.388736 
L 668.864196 -164.055673 
L 677.696551 -162.723523 
L 686.528905 -161.389546 
L 695.361259 -160.140237 
L 704.193614 -158.855907 
L 713.025968 -157.661367 
L 721.858322 -156.253844 
L 730.690677 -154.997231 
L 739.523031 -153.512806 
L 748.355385 -152.077755 
L 757.18774 -150.702192 
L 766.020094 -149.270264 
L 774.852448 -147.79667 
L 783.684803 -146.465647 
L 792.517157 -145.102041 
L 801.349511 -143.859042 
L 810.181866 -142.274863 
L 819.01422 -140.981009 
L 827.846574 -139.352674 
L 836.678928 -137.973926 
L 845.511283 -136.314078 
L 854.343637 -134.492236 
L 863.175991 -132.755829 
L 872.008346 -131.230547 
L 880.8407 -129.580855 
L 889.673054 -128.069418 
L 898.505409 -126.407489 
L 907.337763 -124.741033 
L 916.170117 -122.927963 
L 925.002472 -121.118194 
L 933.834826 -119.525494 
L 942.66718 -117.495427 
L 951.499535 -115.683645 
L 960.331889 -113.868001 
L 969.164243 -112.443192 
L 977.996598 -110.772736 
L 986.828952 -108.845542 
L 995.661306 -106.920979 
L 1004.49366 -105.085512 
L 1013.326015 -103.354285 
L 1022.158369 -101.748654 
L 1022.158369 -156.057439 
L 1022.158369 -156.057439 
L 1013.326015 -156.590588 
L 1004.49366 -157.101914 
L 995.661306 -157.832311 
L 986.828952 -158.663212 
L 977.996598 -159.496359 
L 969.164243 -160.329506 
L 960.331889 -161.215242 
L 951.499535 -162.020559 
L 942.66718 -162.981844 
L 933.834826 -163.947301 
L 925.002472 -164.908087 
L 916.170117 -165.798192 
L 907.337763 -166.402603 
L 898.505409 -166.998016 
L 889.673054 -167.80904 
L 880.8407 -168.640986 
L 872.008346 -169.48096 
L 863.175991 -170.313162 
L 854.343637 -171.13585 
L 845.511283 -172.013248 
L 836.678928 -173.194533 
L 827.846574 -174.297578 
L 819.01422 -175.280921 
L 810.181866 -175.873592 
L 801.349511 -176.566998 
L 792.517157 -177.302465 
L 783.684803 -178.290092 
L 774.852448 -179.297377 
L 766.020094 -180.177442 
L 757.18774 -181.12037 
L 748.355385 -182.169038 
L 739.523031 -183.462698 
L 730.690677 -184.720481 
L 721.858322 -185.996203 
L 713.025968 -187.205717 
L 704.193614 -188.547646 
L 695.361259 -189.823269 
L 686.528905 -191.208204 
L 677.696551 -192.492727 
L 668.864196 -193.774005 
L 660.031842 -195.16676 
L 651.199488 -196.454964 
L 642.367134 -198.037932 
L 633.534779 -199.46251 
L 624.702425 -200.764873 
L 615.870071 -202.394927 
L 607.037716 -204.048962 
L 598.205362 -205.862165 
L 589.373008 -207.381318 
L 580.540653 -208.916684 
L 571.708299 -210.580577 
L 562.875945 -212.159502 
L 554.04359 -213.773301 
L 545.211236 -215.525335 
L 536.378882 -217.006712 
L 527.546527 -218.620665 
L 518.714173 -220.404596 
L 509.881819 -222.381372 
L 501.049464 -224.233164 
L 492.21711 -226.011473 
L 483.384756 -227.782387 
L 474.552402 -229.549344 
L 465.720047 -231.309359 
L 456.887693 -232.853266 
L 448.055339 -234.671828 
L 439.222984 -236.611825 
L 430.39063 -238.385064 
L 421.558276 -240.302337 
L 412.725921 -242.343683 
L 403.893567 -244.103875 
L 395.061213 -245.833623 
L 386.228858 -247.780171 
L 377.396504 -249.459683 
L 368.56415 -251.521041 
L 359.731795 -253.57717 
L 350.899441 -255.471114 
L 342.067087 -257.310275 
L 333.234732 -259.212829 
L 324.402378 -260.941405 
L 315.570024 -262.669982 
L 306.73767 -264.398558 
L 297.905315 -266.127135 
L 289.072961 -268.028961 
L 280.240607 -269.931497 
L 271.408252 -271.83356 
L 262.575898 -273.735624 
L 253.743544 -275.637688 
L 244.911189 -277.539751 
L 236.078835 -279.441815 
L 227.246481 -281.26727 
L 218.414126 -283.206539 
L 209.581772 -285.159031 
L 200.749418 -287.06693 
L 191.917063 -288.974829 
L 183.084709 -290.882728 
L 174.252355 -292.790628 
L 165.42 -294.696883 
L 156.587646 -296.600807 
L 147.755292 -298.504731 
z
" style="stroke: #ffffff; stroke-opacity: 0.15"/>
    </defs>
    <g clip-path="url(#p903d7611fe)">
     <use xlink:href="#md4797a7121" x="0" y="570.995391" style="fill: #c44e52; fill-opacity: 0.15; stroke: #ffffff; stroke-opacity: 0.15"/>
    </g>
   </g>
   <g id="line2d_29">
    <path d="M 147.755292 363.731908 
L 147.755292 193.608519 
" clip-path="url(#p903d7611fe)" style="fill: none; stroke: #4c72b0; stroke-width: 2.625; stroke-linecap: round"/>
   </g>
   <g id="line2d_30">
    <path d="M 191.475446 368.811133 
L 191.475446 152.512416 
" clip-path="url(#p903d7611fe)" style="fill: none; stroke: #4c72b0; stroke-width: 2.625; stroke-linecap: round"/>
   </g>
   <g id="line2d_31">
    <path d="M 235.1956 323.956876 
L 235.1956 162.727903 
" clip-path="url(#p903d7611fe)" style="fill: none; stroke: #4c72b0; stroke-width: 2.625; stroke-linecap: round"/>
   </g>
   <g id="line2d_32">
    <path d="M 278.915753 357.703732 
L 278.915753 208.112781 
" clip-path="url(#p903d7611fe)" style="fill: none; stroke: #4c72b0; stroke-width: 2.625; stroke-linecap: round"/>
   </g>
   <g id="line2d_33">
    <path d="M 322.635907 346.370015 
L 322.635907 162.489625 
" clip-path="url(#p903d7611fe)" style="fill: none; stroke: #4c72b0; stroke-width: 2.625; stroke-linecap: round"/>
   </g>
   <g id="line2d_34">
    <path d="M 366.356061 413.55566 
L 366.356061 276.092862 
" clip-path="url(#p903d7611fe)" style="fill: none; stroke: #4c72b0; stroke-width: 2.625; stroke-linecap: round"/>
   </g>
   <g id="line2d_35">
    <path d="M 410.076215 412.754761 
L 410.076215 312.179239 
" clip-path="url(#p903d7611fe)" style="fill: none; stroke: #4c72b0; stroke-width: 2.625; stroke-linecap: round"/>
   </g>
   <g id="line2d_36">
    <path d="M 453.796369 374.424759 
L 453.796369 225.687328 
" clip-path="url(#p903d7611fe)" style="fill: none; stroke: #4c72b0; stroke-width: 2.625; stroke-linecap: round"/>
   </g>
   <g id="line2d_37">
    <path d="M 497.516523 395.2537 
L 497.516523 299.930993 
" clip-path="url(#p903d7611fe)" style="fill: none; stroke: #4c72b0; stroke-width: 2.625; stroke-linecap: round"/>
   </g>
   <g id="line2d_38">
    <path d="M 541.236677 379.001925 
L 541.236677 207.253881 
" clip-path="url(#p903d7611fe)" style="fill: none; stroke: #4c72b0; stroke-width: 2.625; stroke-linecap: round"/>
   </g>
   <g id="line2d_39">
    <path d="M 584.95683 366.1814 
L 584.95683 216.345451 
" clip-path="url(#p903d7611fe)" style="fill: none; stroke: #4c72b0; stroke-width: 2.625; stroke-linecap: round"/>
   </g>
   <g id="line2d_40">
    <path d="M 628.676984 345.850548 
L 628.676984 214.440742 
" clip-path="url(#p903d7611fe)" style="fill: none; stroke: #4c72b0; stroke-width: 2.625; stroke-linecap: round"/>
   </g>
   <g id="line2d_41">
    <path d="M 672.397138 375.5831 
L 672.397138 252.952413 
" clip-path="url(#p903d7611fe)" style="fill: none; stroke: #4c72b0; stroke-width: 2.625; stroke-linecap: round"/>
   </g>
   <g id="line2d_42">
    <path d="M 716.117292 387.311242 
L 716.117292 189.342498 
" clip-path="url(#p903d7611fe)" style="fill: none; stroke: #4c72b0; stroke-width: 2.625; stroke-linecap: round"/>
   </g>
   <g id="line2d_43">
    <path d="M 759.837446 393.711829 
L 759.837446 177.876263 
" clip-path="url(#p903d7611fe)" style="fill: none; stroke: #4c72b0; stroke-width: 2.625; stroke-linecap: round"/>
   </g>
   <g id="line2d_44">
    <path d="M 803.5576 279.997282 
L 803.5576 52.868608 
" clip-path="url(#p903d7611fe)" style="fill: none; stroke: #4c72b0; stroke-width: 2.625; stroke-linecap: round"/>
   </g>
   <g id="line2d_45">
    <path d="M 847.277754 382.270187 
L 847.277754 154.562102 
" clip-path="url(#p903d7611fe)" style="fill: none; stroke: #4c72b0; stroke-width: 2.625; stroke-linecap: round"/>
   </g>
   <g id="line2d_46">
    <path d="M 890.997907 331.158688 
L 890.997907 166.677934 
" clip-path="url(#p903d7611fe)" style="fill: none; stroke: #4c72b0; stroke-width: 2.625; stroke-linecap: round"/>
   </g>
   <g id="line2d_47">
    <path d="M 934.718061 379.590891 
L 934.718061 244.162381 
" clip-path="url(#p903d7611fe)" style="fill: none; stroke: #4c72b0; stroke-width: 2.625; stroke-linecap: round"/>
   </g>
   <g id="line2d_48">
    <path d="M 978.438215 358.571431 
L 978.438215 225.735379 
" clip-path="url(#p903d7611fe)" style="fill: none; stroke: #4c72b0; stroke-width: 2.625; stroke-linecap: round"/>
   </g>
   <g id="line2d_49">
    <path d="M 1022.158369 411.213217 
L 1022.158369 265.041761 
" clip-path="url(#p903d7611fe)" style="fill: none; stroke: #4c72b0; stroke-width: 2.625; stroke-linecap: round"/>
   </g>
   <g id="line2d_50">
    <path d="M 147.755292 292.865971 
L 156.587646 292.870243 
L 165.42 292.874516 
L 174.252355 292.878788 
L 183.084709 292.88306 
L 191.917063 292.887332 
L 200.749418 292.891604 
L 209.581772 292.895877 
L 218.414126 292.900149 
L 227.246481 292.904421 
L 236.078835 292.908693 
L 244.911189 292.912966 
L 253.743544 292.917238 
L 262.575898 292.92151 
L 271.408252 292.925782 
L 280.240607 292.930055 
L 289.072961 292.934327 
L 297.905315 292.938599 
L 306.73767 292.942871 
L 315.570024 292.947144 
L 324.402378 292.951416 
L 333.234732 292.955688 
L 342.067087 292.95996 
L 350.899441 292.964233 
L 359.731795 292.968505 
L 368.56415 292.972777 
L 377.396504 292.977049 
L 386.228858 292.981322 
L 395.061213 292.985594 
L 403.893567 292.989866 
L 412.725921 292.994138 
L 421.558276 292.998411 
L 430.39063 293.002683 
L 439.222984 293.006955 
L 448.055339 293.011227 
L 456.887693 293.0155 
L 465.720047 293.019772 
L 474.552402 293.024044 
L 483.384756 293.028316 
L 492.21711 293.032589 
L 501.049464 293.036861 
L 509.881819 293.041133 
L 518.714173 293.045405 
L 527.546527 293.049677 
L 536.378882 293.05395 
L 545.211236 293.058222 
L 554.04359 293.062494 
L 562.875945 293.066766 
L 571.708299 293.071039 
L 580.540653 293.075311 
L 589.373008 293.079583 
L 598.205362 293.083855 
L 607.037716 293.088128 
L 615.870071 293.0924 
L 624.702425 293.096672 
L 633.534779 293.100944 
L 642.367134 293.105217 
L 651.199488 293.109489 
L 660.031842 293.113761 
L 668.864196 293.118033 
L 677.696551 293.122306 
L 686.528905 293.126578 
L 695.361259 293.13085 
L 704.193614 293.135122 
L 713.025968 293.139395 
L 721.858322 293.143667 
L 730.690677 293.147939 
L 739.523031 293.152211 
L 748.355385 293.156484 
L 757.18774 293.160756 
L 766.020094 293.165028 
L 774.852448 293.1693 
L 783.684803 293.173573 
L 792.517157 293.177845 
L 801.349511 293.182117 
L 810.181866 293.186389 
L 819.01422 293.190662 
L 827.846574 293.194934 
L 836.678928 293.199206 
L 845.511283 293.203478 
L 854.343637 293.20775 
L 863.175991 293.212023 
L 872.008346 293.216295 
L 880.8407 293.220567 
L 889.673054 293.224839 
L 898.505409 293.229112 
L 907.337763 293.233384 
L 916.170117 293.237656 
L 925.002472 293.241928 
L 933.834826 293.246201 
L 942.66718 293.250473 
L 951.499535 293.254745 
L 960.331889 293.259017 
L 969.164243 293.26329 
L 977.996598 293.267562 
L 986.828952 293.271834 
L 995.661306 293.276106 
L 1004.49366 293.280379 
L 1013.326015 293.284651 
L 1022.158369 293.288923 
" clip-path="url(#p903d7611fe)" style="fill: none; stroke: #4c72b0; stroke-width: 2.25; stroke-linecap: round"/>
   </g>
   <g id="line2d_51">
    <path d="M 147.755292 299.074379 
L 147.755292 155.400688 
" clip-path="url(#p903d7611fe)" style="fill: none; stroke: #dd8452; stroke-width: 2.625; stroke-linecap: round"/>
   </g>
   <g id="line2d_52">
    <path d="M 191.475446 406.542219 
L 191.475446 161.716929 
" clip-path="url(#p903d7611fe)" style="fill: none; stroke: #dd8452; stroke-width: 2.625; stroke-linecap: round"/>
   </g>
   <g id="line2d_53">
    <path d="M 235.1956 393.12551 
L 235.1956 221.608819 
" clip-path="url(#p903d7611fe)" style="fill: none; stroke: #dd8452; stroke-width: 2.625; stroke-linecap: round"/>
   </g>
   <g id="line2d_54">
    <path d="M 278.915753 339.193002 
L 278.915753 180.334192 
" clip-path="url(#p903d7611fe)" style="fill: none; stroke: #dd8452; stroke-width: 2.625; stroke-linecap: round"/>
   </g>
   <g id="line2d_55">
    <path d="M 322.635907 324.477547 
L 322.635907 87.774905 
" clip-path="url(#p903d7611fe)" style="fill: none; stroke: #dd8452; stroke-width: 2.625; stroke-linecap: round"/>
   </g>
   <g id="line2d_56">
    <path d="M 366.356061 334.254321 
L 366.356061 211.967346 
" clip-path="url(#p903d7611fe)" style="fill: none; stroke: #dd8452; stroke-width: 2.625; stroke-linecap: round"/>
   </g>
   <g id="line2d_57">
    <path d="M 410.076215 394.24563 
L 410.076215 207.930923 
" clip-path="url(#p903d7611fe)" style="fill: none; stroke: #dd8452; stroke-width: 2.625; stroke-linecap: round"/>
   </g>
   <g id="line2d_58">
    <path d="M 453.796369 337.397937 
L 453.796369 203.123454 
" clip-path="url(#p903d7611fe)" style="fill: none; stroke: #dd8452; stroke-width: 2.625; stroke-linecap: round"/>
   </g>
   <g id="line2d_59">
    <path d="M 497.516523 358.084444 
L 497.516523 184.427739 
" clip-path="url(#p903d7611fe)" style="fill: none; stroke: #dd8452; stroke-width: 2.625; stroke-linecap: round"/>
   </g>
   <g id="line2d_60">
    <path d="M 541.236677 366.354527 
L 541.236677 145.267417 
" clip-path="url(#p903d7611fe)" style="fill: none; stroke: #dd8452; stroke-width: 2.625; stroke-linecap: round"/>
   </g>
   <g id="line2d_61">
    <path d="M 584.95683 307.395245 
L 584.95683 117.750392 
" clip-path="url(#p903d7611fe)" style="fill: none; stroke: #dd8452; stroke-width: 2.625; stroke-linecap: round"/>
   </g>
   <g id="line2d_62">
    <path d="M 628.676984 325.664312 
L 628.676984 191.719758 
" clip-path="url(#p903d7611fe)" style="fill: none; stroke: #dd8452; stroke-width: 2.625; stroke-linecap: round"/>
   </g>
   <g id="line2d_63">
    <path d="M 672.397138 331.406761 
L 672.397138 177.908297 
" clip-path="url(#p903d7611fe)" style="fill: none; stroke: #dd8452; stroke-width: 2.625; stroke-linecap: round"/>
   </g>
   <g id="line2d_64">
    <path d="M 716.117292 401.364624 
L 716.117292 226.838502 
" clip-path="url(#p903d7611fe)" style="fill: none; stroke: #dd8452; stroke-width: 2.625; stroke-linecap: round"/>
   </g>
   <g id="line2d_65">
    <path d="M 759.837446 374.563773 
L 759.837446 236.571196 
" clip-path="url(#p903d7611fe)" style="fill: none; stroke: #dd8452; stroke-width: 2.625; stroke-linecap: round"/>
   </g>
   <g id="line2d_66">
    <path d="M 803.5576 432.470508 
L 803.5576 338.897101 
" clip-path="url(#p903d7611fe)" style="fill: none; stroke: #dd8452; stroke-width: 2.625; stroke-linecap: round"/>
   </g>
   <g id="line2d_67">
    <path d="M 847.277754 346.348465 
L 847.277754 187.254401 
" clip-path="url(#p903d7611fe)" style="fill: none; stroke: #dd8452; stroke-width: 2.625; stroke-linecap: round"/>
   </g>
   <g id="line2d_68">
    <path d="M 890.997907 376.17033 
L 890.997907 183.62263 
" clip-path="url(#p903d7611fe)" style="fill: none; stroke: #dd8452; stroke-width: 2.625; stroke-linecap: round"/>
   </g>
   <g id="line2d_69">
    <path d="M 934.718061 313.505362 
L 934.718061 106.186491 
" clip-path="url(#p903d7611fe)" style="fill: none; stroke: #dd8452; stroke-width: 2.625; stroke-linecap: round"/>
   </g>
   <g id="line2d_70">
    <path d="M 978.438215 401.064238 
L 978.438215 161.825919 
" clip-path="url(#p903d7611fe)" style="fill: none; stroke: #dd8452; stroke-width: 2.625; stroke-linecap: round"/>
   </g>
   <g id="line2d_71">
    <path d="M 1022.158369 360.305367 
L 1022.158369 208.591364 
" clip-path="url(#p903d7611fe)" style="fill: none; stroke: #dd8452; stroke-width: 2.625; stroke-linecap: round"/>
   </g>
   <g id="line2d_72">
    <path d="M 147.755292 265.642075 
L 156.587646 265.894261 
L 165.42 266.146448 
L 174.252355 266.398635 
L 183.084709 266.650822 
L 191.917063 266.903009 
L 200.749418 267.155196 
L 209.581772 267.407383 
L 218.414126 267.65957 
L 227.246481 267.911757 
L 236.078835 268.163944 
L 244.911189 268.416131 
L 253.743544 268.668318 
L 262.575898 268.920505 
L 271.408252 269.172692 
L 280.240607 269.424879 
L 289.072961 269.677066 
L 297.905315 269.929253 
L 306.73767 270.18144 
L 315.570024 270.433627 
L 324.402378 270.685814 
L 333.234732 270.938001 
L 342.067087 271.190188 
L 350.899441 271.442375 
L 359.731795 271.694562 
L 368.56415 271.946749 
L 377.396504 272.198936 
L 386.228858 272.451123 
L 395.061213 272.70331 
L 403.893567 272.955496 
L 412.725921 273.207683 
L 421.558276 273.45987 
L 430.39063 273.712057 
L 439.222984 273.964244 
L 448.055339 274.216431 
L 456.887693 274.468618 
L 465.720047 274.720805 
L 474.552402 274.972992 
L 483.384756 275.225179 
L 492.21711 275.477366 
L 501.049464 275.729553 
L 509.881819 275.98174 
L 518.714173 276.233927 
L 527.546527 276.486114 
L 536.378882 276.738301 
L 545.211236 276.990488 
L 554.04359 277.242675 
L 562.875945 277.494862 
L 571.708299 277.747049 
L 580.540653 277.999236 
L 589.373008 278.251423 
L 598.205362 278.50361 
L 607.037716 278.755797 
L 615.870071 279.007984 
L 624.702425 279.260171 
L 633.534779 279.512358 
L 642.367134 279.764545 
L 651.199488 280.016732 
L 660.031842 280.268918 
L 668.864196 280.521105 
L 677.696551 280.773292 
L 686.528905 281.025479 
L 695.361259 281.277666 
L 704.193614 281.529853 
L 713.025968 281.78204 
L 721.858322 282.034227 
L 730.690677 282.286414 
L 739.523031 282.538601 
L 748.355385 282.790788 
L 757.18774 283.042975 
L 766.020094 283.295162 
L 774.852448 283.547349 
L 783.684803 283.799536 
L 792.517157 284.051723 
L 801.349511 284.30391 
L 810.181866 284.556097 
L 819.01422 284.808284 
L 827.846574 285.060471 
L 836.678928 285.312658 
L 845.511283 285.564845 
L 854.343637 285.817032 
L 863.175991 286.069219 
L 872.008346 286.321406 
L 880.8407 286.573593 
L 889.673054 286.82578 
L 898.505409 287.077967 
L 907.337763 287.330153 
L 916.170117 287.58234 
L 925.002472 287.834527 
L 933.834826 288.086714 
L 942.66718 288.338901 
L 951.499535 288.591088 
L 960.331889 288.843275 
L 969.164243 289.095462 
L 977.996598 289.347649 
L 986.828952 289.599836 
L 995.661306 289.852023 
L 1004.49366 290.10421 
L 1013.326015 290.356397 
L 1022.158369 290.608584 
" clip-path="url(#p903d7611fe)" style="fill: none; stroke: #dd8452; stroke-width: 2.25; stroke-linecap: round"/>
   </g>
   <g id="line2d_73">
    <path d="M 147.755292 350.985745 
L 147.755292 195.783247 
" clip-path="url(#p903d7611fe)" style="fill: none; stroke: #55a868; stroke-width: 2.625; stroke-linecap: round"/>
   </g>
   <g id="line2d_74">
    <path d="M 191.475446 433.285533 
L 191.475446 309.447252 
" clip-path="url(#p903d7611fe)" style="fill: none; stroke: #55a868; stroke-width: 2.625; stroke-linecap: round"/>
   </g>
   <g id="line2d_75">
    <path d="M 235.1956 468.108823 
L 235.1956 299.598212 
" clip-path="url(#p903d7611fe)" style="fill: none; stroke: #55a868; stroke-width: 2.625; stroke-linecap: round"/>
   </g>
   <g id="line2d_76">
    <path d="M 278.915753 430.810831 
L 278.915753 295.592861 
" clip-path="url(#p903d7611fe)" style="fill: none; stroke: #55a868; stroke-width: 2.625; stroke-linecap: round"/>
   </g>
   <g id="line2d_77">
    <path d="M 322.635907 416.285671 
L 322.635907 283.636202 
" clip-path="url(#p903d7611fe)" style="fill: none; stroke: #55a868; stroke-width: 2.625; stroke-linecap: round"/>
   </g>
   <g id="line2d_78">
    <path d="M 366.356061 427.465216 
L 366.356061 277.084915 
" clip-path="url(#p903d7611fe)" style="fill: none; stroke: #55a868; stroke-width: 2.625; stroke-linecap: round"/>
   </g>
   <g id="line2d_79">
    <path d="M 410.076215 455.351885 
L 410.076215 322.932119 
" clip-path="url(#p903d7611fe)" style="fill: none; stroke: #55a868; stroke-width: 2.625; stroke-linecap: round"/>
   </g>
   <g id="line2d_80">
    <path d="M 453.796369 446.625887 
L 453.796369 326.064203 
" clip-path="url(#p903d7611fe)" style="fill: none; stroke: #55a868; stroke-width: 2.625; stroke-linecap: round"/>
   </g>
   <g id="line2d_81">
    <path d="M 497.516523 425.376329 
L 497.516523 316.719335 
" clip-path="url(#p903d7611fe)" style="fill: none; stroke: #55a868; stroke-width: 2.625; stroke-linecap: round"/>
   </g>
   <g id="line2d_82">
    <path d="M 541.236677 470.603478 
L 541.236677 362.346994 
" clip-path="url(#p903d7611fe)" style="fill: none; stroke: #55a868; stroke-width: 2.625; stroke-linecap: round"/>
   </g>
   <g id="line2d_83">
    <path d="M 584.95683 449.120747 
L 584.95683 356.949441 
" clip-path="url(#p903d7611fe)" style="fill: none; stroke: #55a868; stroke-width: 2.625; stroke-linecap: round"/>
   </g>
   <g id="line2d_84">
    <path d="M 628.676984 427.768077 
L 628.676984 284.534268 
" clip-path="url(#p903d7611fe)" style="fill: none; stroke: #55a868; stroke-width: 2.625; stroke-linecap: round"/>
   </g>
   <g id="line2d_85">
    <path d="M 672.397138 443.747839 
L 672.397138 322.876661 
" clip-path="url(#p903d7611fe)" style="fill: none; stroke: #55a868; stroke-width: 2.625; stroke-linecap: round"/>
   </g>
   <g id="line2d_86">
    <path d="M 716.117292 463.254919 
L 716.117292 328.182872 
" clip-path="url(#p903d7611fe)" style="fill: none; stroke: #55a868; stroke-width: 2.625; stroke-linecap: round"/>
   </g>
   <g id="line2d_87">
    <path d="M 759.837446 483.473532 
L 759.837446 357.640421 
" clip-path="url(#p903d7611fe)" style="fill: none; stroke: #55a868; stroke-width: 2.625; stroke-linecap: round"/>
   </g>
   <g id="line2d_88">
    <path d="M 803.5576 427.10389 
L 803.5576 282.421442 
" clip-path="url(#p903d7611fe)" style="fill: none; stroke: #55a868; stroke-width: 2.625; stroke-linecap: round"/>
   </g>
   <g id="line2d_89">
    <path d="M 847.277754 446.274528 
L 847.277754 340.753141 
" clip-path="url(#p903d7611fe)" style="fill: none; stroke: #55a868; stroke-width: 2.625; stroke-linecap: round"/>
   </g>
   <g id="line2d_90">
    <path d="M 890.997907 455.404043 
L 890.997907 352.341496 
" clip-path="url(#p903d7611fe)" style="fill: none; stroke: #55a868; stroke-width: 2.625; stroke-linecap: round"/>
   </g>
   <g id="line2d_91">
    <path d="M 934.718061 455.754147 
L 934.718061 322.9707 
" clip-path="url(#p903d7611fe)" style="fill: none; stroke: #55a868; stroke-width: 2.625; stroke-linecap: round"/>
   </g>
   <g id="line2d_92">
    <path d="M 978.438215 487.790594 
L 978.438215 406.001218 
" clip-path="url(#p903d7611fe)" style="fill: none; stroke: #55a868; stroke-width: 2.625; stroke-linecap: round"/>
   </g>
   <g id="line2d_93">
    <path d="M 1022.158369 461.489155 
L 1022.158369 350.554904 
" clip-path="url(#p903d7611fe)" style="fill: none; stroke: #55a868; stroke-width: 2.625; stroke-linecap: round"/>
   </g>
   <g id="line2d_94">
    <path d="M 147.755292 350.084646 
L 156.587646 350.796009 
L 165.42 351.507371 
L 174.252355 352.218734 
L 183.084709 352.930096 
L 191.917063 353.641458 
L 200.749418 354.352821 
L 209.581772 355.064183 
L 218.414126 355.775545 
L 227.246481 356.486908 
L 236.078835 357.19827 
L 244.911189 357.909633 
L 253.743544 358.620995 
L 262.575898 359.332357 
L 271.408252 360.04372 
L 280.240607 360.755082 
L 289.072961 361.466444 
L 297.905315 362.177807 
L 306.73767 362.889169 
L 315.570024 363.600532 
L 324.402378 364.311894 
L 333.234732 365.023256 
L 342.067087 365.734619 
L 350.899441 366.445981 
L 359.731795 367.157343 
L 368.56415 367.868706 
L 377.396504 368.580068 
L 386.228858 369.291431 
L 395.061213 370.002793 
L 403.893567 370.714155 
L 412.725921 371.425518 
L 421.558276 372.13688 
L 430.39063 372.848242 
L 439.222984 373.559605 
L 448.055339 374.270967 
L 456.887693 374.98233 
L 465.720047 375.693692 
L 474.552402 376.405054 
L 483.384756 377.116417 
L 492.21711 377.827779 
L 501.049464 378.539141 
L 509.881819 379.250504 
L 518.714173 379.961866 
L 527.546527 380.673229 
L 536.378882 381.384591 
L 545.211236 382.095953 
L 554.04359 382.807316 
L 562.875945 383.518678 
L 571.708299 384.23004 
L 580.540653 384.941403 
L 589.373008 385.652765 
L 598.205362 386.364128 
L 607.037716 387.07549 
L 615.870071 387.786852 
L 624.702425 388.498215 
L 633.534779 389.209577 
L 642.367134 389.920939 
L 651.199488 390.632302 
L 660.031842 391.343664 
L 668.864196 392.055027 
L 677.696551 392.766389 
L 686.528905 393.477751 
L 695.361259 394.189114 
L 704.193614 394.900476 
L 713.025968 395.611838 
L 721.858322 396.323201 
L 730.690677 397.034563 
L 739.523031 397.745926 
L 748.355385 398.457288 
L 757.18774 399.16865 
L 766.020094 399.880013 
L 774.852448 400.591375 
L 783.684803 401.302737 
L 792.517157 402.0141 
L 801.349511 402.725462 
L 810.181866 403.436825 
L 819.01422 404.148187 
L 827.846574 404.859549 
L 836.678928 405.570912 
L 845.511283 406.282274 
L 854.343637 406.993636 
L 863.175991 407.704999 
L 872.008346 408.416361 
L 880.8407 409.127724 
L 889.673054 409.839086 
L 898.505409 410.550448 
L 907.337763 411.261811 
L 916.170117 411.973173 
L 925.002472 412.684535 
L 933.834826 413.395898 
L 942.66718 414.10726 
L 951.499535 414.818623 
L 960.331889 415.529985 
L 969.164243 416.241347 
L 977.996598 416.95271 
L 986.828952 417.664072 
L 995.661306 418.375434 
L 1004.49366 419.086797 
L 1013.326015 419.798159 
L 1022.158369 420.509522 
" clip-path="url(#p903d7611fe)" style="fill: none; stroke: #55a868; stroke-width: 2.25; stroke-linecap: round"/>
   </g>
   <g id="line2d_95">
    <path d="M 147.755292 368.641597 
L 147.755292 147.256902 
" clip-path="url(#p903d7611fe)" style="fill: none; stroke: #c44e52; stroke-width: 2.625; stroke-linecap: round"/>
   </g>
   <g id="line2d_96">
    <path d="M 191.475446 424.036647 
L 191.475446 231.348369 
" clip-path="url(#p903d7611fe)" style="fill: none; stroke: #c44e52; stroke-width: 2.625; stroke-linecap: round"/>
   </g>
   <g id="line2d_97">
    <path d="M 235.1956 419.335281 
L 235.1956 280.004465 
" clip-path="url(#p903d7611fe)" style="fill: none; stroke: #c44e52; stroke-width: 2.625; stroke-linecap: round"/>
   </g>
   <g id="line2d_98">
    <path d="M 278.915753 400.440901 
L 278.915753 222.577173 
" clip-path="url(#p903d7611fe)" style="fill: none; stroke: #c44e52; stroke-width: 2.625; stroke-linecap: round"/>
   </g>
   <g id="line2d_99">
    <path d="M 322.635907 390.812867 
L 322.635907 110.014298 
" clip-path="url(#p903d7611fe)" style="fill: none; stroke: #c44e52; stroke-width: 2.625; stroke-linecap: round"/>
   </g>
   <g id="line2d_100">
    <path d="M 366.356061 401.319512 
L 366.356061 288.56519 
" clip-path="url(#p903d7611fe)" style="fill: none; stroke: #c44e52; stroke-width: 2.625; stroke-linecap: round"/>
   </g>
   <g id="line2d_101">
    <path d="M 410.076215 426.336125 
L 410.076215 308.929881 
" clip-path="url(#p903d7611fe)" style="fill: none; stroke: #c44e52; stroke-width: 2.625; stroke-linecap: round"/>
   </g>
   <g id="line2d_102">
    <path d="M 453.796369 417.843025 
L 453.796369 320.276074 
" clip-path="url(#p903d7611fe)" style="fill: none; stroke: #c44e52; stroke-width: 2.625; stroke-linecap: round"/>
   </g>
   <g id="line2d_103">
    <path d="M 497.516523 460.370977 
L 497.516523 359.452792 
" clip-path="url(#p903d7611fe)" style="fill: none; stroke: #c44e52; stroke-width: 2.625; stroke-linecap: round"/>
   </g>
   <g id="line2d_104">
    <path d="M 541.236677 464.297034 
L 541.236677 345.898581 
" clip-path="url(#p903d7611fe)" style="fill: none; stroke: #c44e52; stroke-width: 2.625; stroke-linecap: round"/>
   </g>
   <g id="line2d_105">
    <path d="M 584.95683 450.492533 
L 584.95683 334.843855 
" clip-path="url(#p903d7611fe)" style="fill: none; stroke: #c44e52; stroke-width: 2.625; stroke-linecap: round"/>
   </g>
   <g id="line2d_106">
    <path d="M 628.676984 451.813792 
L 628.676984 255.500497 
" clip-path="url(#p903d7611fe)" style="fill: none; stroke: #c44e52; stroke-width: 2.625; stroke-linecap: round"/>
   </g>
   <g id="line2d_107">
    <path d="M 672.397138 467.985328 
L 672.397138 372.078037 
" clip-path="url(#p903d7611fe)" style="fill: none; stroke: #c44e52; stroke-width: 2.625; stroke-linecap: round"/>
   </g>
   <g id="line2d_108">
    <path d="M 716.117292 443.967952 
L 716.117292 338.009897 
" clip-path="url(#p903d7611fe)" style="fill: none; stroke: #c44e52; stroke-width: 2.625; stroke-linecap: round"/>
   </g>
   <g id="line2d_109">
    <path d="M 759.837446 484.414235 
L 759.837446 374.456002 
" clip-path="url(#p903d7611fe)" style="fill: none; stroke: #c44e52; stroke-width: 2.625; stroke-linecap: round"/>
   </g>
   <g id="line2d_110">
    <path d="M 803.5576 483.554407 
L 803.5576 412.009871 
" clip-path="url(#p903d7611fe)" style="fill: none; stroke: #c44e52; stroke-width: 2.625; stroke-linecap: round"/>
   </g>
   <g id="line2d_111">
    <path d="M 847.277754 440.370586 
L 847.277754 335.120387 
" clip-path="url(#p903d7611fe)" style="fill: none; stroke: #c44e52; stroke-width: 2.625; stroke-linecap: round"/>
   </g>
   <g id="line2d_112">
    <path d="M 890.997907 466.479083 
L 890.997907 351.832477 
" clip-path="url(#p903d7611fe)" style="fill: none; stroke: #c44e52; stroke-width: 2.625; stroke-linecap: round"/>
   </g>
   <g id="line2d_113">
    <path d="M 934.718061 491.959517 
L 934.718061 400.982349 
" clip-path="url(#p903d7611fe)" style="fill: none; stroke: #c44e52; stroke-width: 2.625; stroke-linecap: round"/>
   </g>
   <g id="line2d_114">
    <path d="M 978.438215 448.822475 
L 978.438215 324.038937 
" clip-path="url(#p903d7611fe)" style="fill: none; stroke: #c44e52; stroke-width: 2.625; stroke-linecap: round"/>
   </g>
   <g id="line2d_115">
    <path d="M 1022.158369 459.166545 
L 1022.158369 370.521044 
" clip-path="url(#p903d7611fe)" style="fill: none; stroke: #c44e52; stroke-width: 2.625; stroke-linecap: round"/>
   </g>
   <g id="line2d_116">
    <path d="M 147.755292 316.169943 
L 156.587646 317.449328 
L 165.42 318.728713 
L 174.252355 320.008098 
L 183.084709 321.287483 
L 191.917063 322.566867 
L 200.749418 323.846252 
L 209.581772 325.125637 
L 218.414126 326.405022 
L 227.246481 327.684407 
L 236.078835 328.963792 
L 244.911189 330.243177 
L 253.743544 331.522562 
L 262.575898 332.801947 
L 271.408252 334.081332 
L 280.240607 335.360717 
L 289.072961 336.640102 
L 297.905315 337.919487 
L 306.73767 339.198872 
L 315.570024 340.478257 
L 324.402378 341.757641 
L 333.234732 343.037026 
L 342.067087 344.316411 
L 350.899441 345.595796 
L 359.731795 346.875181 
L 368.56415 348.154566 
L 377.396504 349.433951 
L 386.228858 350.713336 
L 395.061213 351.992721 
L 403.893567 353.272106 
L 412.725921 354.551491 
L 421.558276 355.830876 
L 430.39063 357.110261 
L 439.222984 358.389646 
L 448.055339 359.669031 
L 456.887693 360.948416 
L 465.720047 362.2278 
L 474.552402 363.507185 
L 483.384756 364.78657 
L 492.21711 366.065955 
L 501.049464 367.34534 
L 509.881819 368.624725 
L 518.714173 369.90411 
L 527.546527 371.183495 
L 536.378882 372.46288 
L 545.211236 373.742265 
L 554.04359 375.02165 
L 562.875945 376.301035 
L 571.708299 377.58042 
L 580.540653 378.859805 
L 589.373008 380.13919 
L 598.205362 381.418574 
L 607.037716 382.697959 
L 615.870071 383.977344 
L 624.702425 385.256729 
L 633.534779 386.536114 
L 642.367134 387.815499 
L 651.199488 389.094884 
L 660.031842 390.374269 
L 668.864196 391.653654 
L 677.696551 392.933039 
L 686.528905 394.212424 
L 695.361259 395.491809 
L 704.193614 396.771194 
L 713.025968 398.050579 
L 721.858322 399.329964 
L 730.690677 400.609348 
L 739.523031 401.888733 
L 748.355385 403.168118 
L 757.18774 404.447503 
L 766.020094 405.726888 
L 774.852448 407.006273 
L 783.684803 408.285658 
L 792.517157 409.565043 
L 801.349511 410.844428 
L 810.181866 412.123813 
L 819.01422 413.403198 
L 827.846574 414.682583 
L 836.678928 415.961968 
L 845.511283 417.241353 
L 854.343637 418.520738 
L 863.175991 419.800122 
L 872.008346 421.079507 
L 880.8407 422.358892 
L 889.673054 423.638277 
L 898.505409 424.917662 
L 907.337763 426.197047 
L 916.170117 427.476432 
L 925.002472 428.755817 
L 933.834826 430.035202 
L 942.66718 431.314587 
L 951.499535 432.593972 
L 960.331889 433.873357 
L 969.164243 435.152742 
L 977.996598 436.432127 
L 986.828952 437.711512 
L 995.661306 438.990896 
L 1004.49366 440.270281 
L 1013.326015 441.549666 
L 1022.158369 442.829051 
" clip-path="url(#p903d7611fe)" style="fill: none; stroke: #c44e52; stroke-width: 2.25; stroke-linecap: round"/>
   </g>
   <g id="patch_3">
    <path d="M 55.942969 518.744063 
L 55.942969 26.084062 
" style="fill: none; stroke: #ffffff; stroke-width: 1.25; stroke-linejoin: miter; stroke-linecap: square"/>
   </g>
   <g id="patch_4">
    <path d="M 55.942969 518.744063 
L 1113.970692 518.744063 
" style="fill: none; stroke: #ffffff; stroke-width: 1.25; stroke-linejoin: miter; stroke-linecap: square"/>
   </g>
   <g id="text_31">
    <!-- Duration over the Block -->
    <g style="fill: #262626" transform="translate(491.415893 20.084062) scale(0.18 -0.18)">
     <defs>
      <path id="ArialMT-44" d="M 494 0 
L 494 4581 
L 2072 4581 
Q 2606 4581 2888 4516 
Q 3281 4425 3559 4188 
Q 3922 3881 4101 3404 
Q 4281 2928 4281 2316 
Q 4281 1794 4159 1391 
Q 4038 988 3847 723 
Q 3656 459 3429 307 
Q 3203 156 2883 78 
Q 2563 0 2147 0 
L 494 0 
z
M 1100 541 
L 2078 541 
Q 2531 541 2789 625 
Q 3047 709 3200 863 
Q 3416 1078 3536 1442 
Q 3656 1806 3656 2325 
Q 3656 3044 3420 3430 
Q 3184 3816 2847 3947 
Q 2603 4041 2063 4041 
L 1100 4041 
L 1100 541 
z
" transform="scale(0.015625)"/>
      <path id="ArialMT-74" d="M 1650 503 
L 1731 6 
Q 1494 -44 1306 -44 
Q 1000 -44 831 53 
Q 663 150 594 308 
Q 525 466 525 972 
L 525 2881 
L 113 2881 
L 113 3319 
L 525 3319 
L 525 4141 
L 1084 4478 
L 1084 3319 
L 1650 3319 
L 1650 2881 
L 1084 2881 
L 1084 941 
Q 1084 700 1114 631 
Q 1144 563 1211 522 
Q 1278 481 1403 481 
Q 1497 481 1650 503 
z
" transform="scale(0.015625)"/>
      <path id="ArialMT-6f" d="M 213 1659 
Q 213 2581 725 3025 
Q 1153 3394 1769 3394 
Q 2453 3394 2887 2945 
Q 3322 2497 3322 1706 
Q 3322 1066 3130 698 
Q 2938 331 2570 128 
Q 2203 -75 1769 -75 
Q 1072 -75 642 372 
Q 213 819 213 1659 
z
M 791 1659 
Q 791 1022 1069 705 
Q 1347 388 1769 388 
Q 2188 388 2466 706 
Q 2744 1025 2744 1678 
Q 2744 2294 2464 2611 
Q 2184 2928 1769 2928 
Q 1347 2928 1069 2612 
Q 791 2297 791 1659 
z
" transform="scale(0.015625)"/>
      <path id="ArialMT-6e" d="M 422 0 
L 422 3319 
L 928 3319 
L 928 2847 
Q 1294 3394 1984 3394 
Q 2284 3394 2536 3286 
Q 2788 3178 2913 3003 
Q 3038 2828 3088 2588 
Q 3119 2431 3119 2041 
L 3119 0 
L 2556 0 
L 2556 2019 
Q 2556 2363 2490 2533 
Q 2425 2703 2258 2804 
Q 2091 2906 1866 2906 
Q 1506 2906 1245 2678 
Q 984 2450 984 1813 
L 984 0 
L 422 0 
z
" transform="scale(0.015625)"/>
      <path id="ArialMT-76" d="M 1344 0 
L 81 3319 
L 675 3319 
L 1388 1331 
Q 1503 1009 1600 663 
Q 1675 925 1809 1294 
L 2547 3319 
L 3125 3319 
L 1869 0 
L 1344 0 
z
" transform="scale(0.015625)"/>
      <path id="ArialMT-68" d="M 422 0 
L 422 4581 
L 984 4581 
L 984 2938 
Q 1378 3394 1978 3394 
Q 2347 3394 2619 3248 
Q 2891 3103 3008 2847 
Q 3125 2591 3125 2103 
L 3125 0 
L 2563 0 
L 2563 2103 
Q 2563 2525 2380 2717 
Q 2197 2909 1863 2909 
Q 1613 2909 1392 2779 
Q 1172 2650 1078 2428 
Q 984 2206 984 1816 
L 984 0 
L 422 0 
z
" transform="scale(0.015625)"/>
      <path id="ArialMT-42" d="M 469 0 
L 469 4581 
L 2188 4581 
Q 2713 4581 3030 4442 
Q 3347 4303 3526 4014 
Q 3706 3725 3706 3409 
Q 3706 3116 3547 2856 
Q 3388 2597 3066 2438 
Q 3481 2316 3704 2022 
Q 3928 1728 3928 1328 
Q 3928 1006 3792 729 
Q 3656 453 3456 303 
Q 3256 153 2954 76 
Q 2653 0 2216 0 
L 469 0 
z
M 1075 2656 
L 2066 2656 
Q 2469 2656 2644 2709 
Q 2875 2778 2992 2937 
Q 3109 3097 3109 3338 
Q 3109 3566 3000 3739 
Q 2891 3913 2687 3977 
Q 2484 4041 1991 4041 
L 1075 4041 
L 1075 2656 
z
M 1075 541 
L 2216 541 
Q 2509 541 2628 563 
Q 2838 600 2978 687 
Q 3119 775 3209 942 
Q 3300 1109 3300 1328 
Q 3300 1584 3169 1773 
Q 3038 1963 2805 2039 
Q 2572 2116 2134 2116 
L 1075 2116 
L 1075 541 
z
" transform="scale(0.015625)"/>
      <path id="ArialMT-63" d="M 2588 1216 
L 3141 1144 
Q 3050 572 2676 248 
Q 2303 -75 1759 -75 
Q 1078 -75 664 370 
Q 250 816 250 1647 
Q 250 2184 428 2587 
Q 606 2991 970 3192 
Q 1334 3394 1763 3394 
Q 2303 3394 2647 3120 
Q 2991 2847 3088 2344 
L 2541 2259 
Q 2463 2594 2264 2762 
Q 2066 2931 1784 2931 
Q 1359 2931 1093 2626 
Q 828 2322 828 1663 
Q 828 994 1084 691 
Q 1341 388 1753 388 
Q 2084 388 2306 591 
Q 2528 794 2588 1216 
z
" transform="scale(0.015625)"/>
      <path id="ArialMT-6b" d="M 425 0 
L 425 4581 
L 988 4581 
L 988 1969 
L 2319 3319 
L 3047 3319 
L 1778 2088 
L 3175 0 
L 2481 0 
L 1384 1697 
L 988 1316 
L 988 0 
L 425 0 
z
" transform="scale(0.015625)"/>
     </defs>
     <use xlink:href="#ArialMT-44"/>
     <use xlink:href="#ArialMT-75" x="72.216797"/>
     <use xlink:href="#ArialMT-72" x="127.832031"/>
     <use xlink:href="#ArialMT-61" x="161.132812"/>
     <use xlink:href="#ArialMT-74" x="216.748047"/>
     <use xlink:href="#ArialMT-69" x="244.53125"/>
     <use xlink:href="#ArialMT-6f" x="266.748047"/>
     <use xlink:href="#ArialMT-6e" x="322.363281"/>
     <use xlink:href="#ArialMT-20" x="377.978516"/>
     <use xlink:href="#ArialMT-6f" x="405.761719"/>
     <use xlink:href="#ArialMT-76" x="461.376953"/>
     <use xlink:href="#ArialMT-65" x="511.376953"/>
     <use xlink:href="#ArialMT-72" x="566.992188"/>
     <use xlink:href="#ArialMT-20" x="600.292969"/>
     <use xlink:href="#ArialMT-74" x="628.076172"/>
     <use xlink:href="#ArialMT-68" x="655.859375"/>
     <use xlink:href="#ArialMT-65" x="711.474609"/>
     <use xlink:href="#ArialMT-20" x="767.089844"/>
     <use xlink:href="#ArialMT-42" x="794.873047"/>
     <use xlink:href="#ArialMT-6c" x="861.572266"/>
     <use xlink:href="#ArialMT-6f" x="883.789062"/>
     <use xlink:href="#ArialMT-63" x="939.404297"/>
     <use xlink:href="#ArialMT-6b" x="989.404297"/>
    </g>
   </g>
  </g>
  <g id="legend_1">
   <g id="text_32">
    <!-- Condition -->
    <g style="fill: #262626" transform="translate(1186.23308 243.471445) scale(0.18 -0.18)">
     <defs>
      <path id="ArialMT-43" d="M 3763 1606 
L 4369 1453 
Q 4178 706 3683 314 
Q 3188 -78 2472 -78 
Q 1731 -78 1267 223 
Q 803 525 561 1097 
Q 319 1669 319 2325 
Q 319 3041 592 3573 
Q 866 4106 1370 4382 
Q 1875 4659 2481 4659 
Q 3169 4659 3637 4309 
Q 4106 3959 4291 3325 
L 3694 3184 
Q 3534 3684 3231 3912 
Q 2928 4141 2469 4141 
Q 1941 4141 1586 3887 
Q 1231 3634 1087 3207 
Q 944 2781 944 2328 
Q 944 1744 1114 1308 
Q 1284 872 1643 656 
Q 2003 441 2422 441 
Q 2931 441 3284 734 
Q 3638 1028 3763 1606 
z
" transform="scale(0.015625)"/>
      <path id="ArialMT-64" d="M 2575 0 
L 2575 419 
Q 2259 -75 1647 -75 
Q 1250 -75 917 144 
Q 584 363 401 755 
Q 219 1147 219 1656 
Q 219 2153 384 2558 
Q 550 2963 881 3178 
Q 1213 3394 1622 3394 
Q 1922 3394 2156 3267 
Q 2391 3141 2538 2938 
L 2538 4581 
L 3097 4581 
L 3097 0 
L 2575 0 
z
M 797 1656 
Q 797 1019 1065 703 
Q 1334 388 1700 388 
Q 2069 388 2326 689 
Q 2584 991 2584 1609 
Q 2584 2291 2321 2609 
Q 2059 2928 1675 2928 
Q 1300 2928 1048 2622 
Q 797 2316 797 1656 
z
" transform="scale(0.015625)"/>
     </defs>
     <use xlink:href="#ArialMT-43"/>
     <use xlink:href="#ArialMT-6f" x="72.216797"/>
     <use xlink:href="#ArialMT-6e" x="127.832031"/>
     <use xlink:href="#ArialMT-64" x="183.447266"/>
     <use xlink:href="#ArialMT-69" x="239.0625"/>
     <use xlink:href="#ArialMT-74" x="261.279297"/>
     <use xlink:href="#ArialMT-69" x="289.0625"/>
     <use xlink:href="#ArialMT-6f" x="311.279297"/>
     <use xlink:href="#ArialMT-6e" x="366.894531"/>
    </g>
   </g>
   <g id="PathCollection_5">
    <g>
     <use xlink:href="#mc53a8b8e26" x="1141.534955" y="262.778086" style="fill: #4c72b0; stroke: #4c72b0"/>
    </g>
   </g>
   <g id="text_33">
    <!-- No Feedback -->
    <g style="fill: #262626" transform="translate(1171.234955 267.109336) scale(0.165 -0.165)">
     <defs>
      <path id="ArialMT-46" d="M 525 0 
L 525 4581 
L 3616 4581 
L 3616 4041 
L 1131 4041 
L 1131 2622 
L 3281 2622 
L 3281 2081 
L 1131 2081 
L 1131 0 
L 525 0 
z
" transform="scale(0.015625)"/>
     </defs>
     <use xlink:href="#ArialMT-4e"/>
     <use xlink:href="#ArialMT-6f" x="72.216797"/>
     <use xlink:href="#ArialMT-20" x="127.832031"/>
     <use xlink:href="#ArialMT-46" x="155.615234"/>
     <use xlink:href="#ArialMT-65" x="216.699219"/>
     <use xlink:href="#ArialMT-65" x="272.314453"/>
     <use xlink:href="#ArialMT-64" x="327.929688"/>
     <use xlink:href="#ArialMT-62" x="383.544922"/>
     <use xlink:href="#ArialMT-61" x="439.160156"/>
     <use xlink:href="#ArialMT-63" x="494.775391"/>
     <use xlink:href="#ArialMT-6b" x="544.775391"/>
    </g>
   </g>
   <g id="PathCollection_6">
    <g>
     <use xlink:href="#m576683db26" x="1141.534955" y="286.117852" style="fill: #dd8452; stroke: #dd8452"/>
    </g>
   </g>
   <g id="text_34">
    <!-- Tactile Feedback -->
    <g style="fill: #262626" transform="translate(1171.234955 290.449102) scale(0.165 -0.165)">
     <use xlink:href="#ArialMT-54"/>
     <use xlink:href="#ArialMT-61" x="49.958984"/>
     <use xlink:href="#ArialMT-63" x="105.574219"/>
     <use xlink:href="#ArialMT-74" x="155.574219"/>
     <use xlink:href="#ArialMT-69" x="183.357422"/>
     <use xlink:href="#ArialMT-6c" x="205.574219"/>
     <use xlink:href="#ArialMT-65" x="227.791016"/>
     <use xlink:href="#ArialMT-20" x="283.40625"/>
     <use xlink:href="#ArialMT-46" x="311.189453"/>
     <use xlink:href="#ArialMT-65" x="372.273438"/>
     <use xlink:href="#ArialMT-65" x="427.888672"/>
     <use xlink:href="#ArialMT-64" x="483.503906"/>
     <use xlink:href="#ArialMT-62" x="539.119141"/>
     <use xlink:href="#ArialMT-61" x="594.734375"/>
     <use xlink:href="#ArialMT-63" x="650.349609"/>
     <use xlink:href="#ArialMT-6b" x="700.349609"/>
    </g>
   </g>
   <g id="PathCollection_7">
    <g>
     <use xlink:href="#mc95014ffc0" x="1141.534955" y="309.457617" style="fill: #55a868; stroke: #55a868"/>
    </g>
   </g>
   <g id="text_35">
    <!-- Visual Feedback -->
    <g style="fill: #262626" transform="translate(1171.234955 313.788867) scale(0.165 -0.165)">
     <defs>
      <path id="ArialMT-56" d="M 1803 0 
L 28 4581 
L 684 4581 
L 1875 1253 
Q 2019 853 2116 503 
Q 2222 878 2363 1253 
L 3600 4581 
L 4219 4581 
L 2425 0 
L 1803 0 
z
" transform="scale(0.015625)"/>
     </defs>
     <use xlink:href="#ArialMT-56"/>
     <use xlink:href="#ArialMT-69" x="64.949219"/>
     <use xlink:href="#ArialMT-73" x="87.166016"/>
     <use xlink:href="#ArialMT-75" x="137.166016"/>
     <use xlink:href="#ArialMT-61" x="192.78125"/>
     <use xlink:href="#ArialMT-6c" x="248.396484"/>
     <use xlink:href="#ArialMT-20" x="270.613281"/>
     <use xlink:href="#ArialMT-46" x="298.396484"/>
     <use xlink:href="#ArialMT-65" x="359.480469"/>
     <use xlink:href="#ArialMT-65" x="415.095703"/>
     <use xlink:href="#ArialMT-64" x="470.710938"/>
     <use xlink:href="#ArialMT-62" x="526.326172"/>
     <use xlink:href="#ArialMT-61" x="581.941406"/>
     <use xlink:href="#ArialMT-63" x="637.556641"/>
     <use xlink:href="#ArialMT-6b" x="687.556641"/>
    </g>
   </g>
   <g id="PathCollection_8">
    <g>
     <use xlink:href="#m09c7a7dd79" x="1141.534955" y="332.797383" style="fill: #c44e52; stroke: #c44e52"/>
    </g>
   </g>
   <g id="text_36">
    <!-- Combined Feedback -->
    <g style="fill: #262626" transform="translate(1171.234955 337.128633) scale(0.165 -0.165)">
     <use xlink:href="#ArialMT-43"/>
     <use xlink:href="#ArialMT-6f" x="72.216797"/>
     <use xlink:href="#ArialMT-6d" x="127.832031"/>
     <use xlink:href="#ArialMT-62" x="211.132812"/>
     <use xlink:href="#ArialMT-69" x="266.748047"/>
     <use xlink:href="#ArialMT-6e" x="288.964844"/>
     <use xlink:href="#ArialMT-65" x="344.580078"/>
     <use xlink:href="#ArialMT-64" x="400.195312"/>
     <use xlink:href="#ArialMT-20" x="455.810547"/>
     <use xlink:href="#ArialMT-46" x="483.59375"/>
     <use xlink:href="#ArialMT-65" x="544.677734"/>
     <use xlink:href="#ArialMT-65" x="600.292969"/>
     <use xlink:href="#ArialMT-64" x="655.908203"/>
     <use xlink:href="#ArialMT-62" x="711.523438"/>
     <use xlink:href="#ArialMT-61" x="767.138672"/>
     <use xlink:href="#ArialMT-63" x="822.753906"/>
     <use xlink:href="#ArialMT-6b" x="872.753906"/>
    </g>
   </g>
  </g>
 </g>
 <defs>
  <clipPath id="p903d7611fe">
   <rect x="55.942969" y="26.084062" width="1058.027723" height="492.66"/>
  </clipPath>
 </defs>
</svg>
