<?xml version="1.0" encoding="utf-8" standalone="no"?>
<!DOCTYPE svg PUBLIC "-//W3C//DTD SVG 1.1//EN"
  "http://www.w3.org/Graphics/SVG/1.1/DTD/svg11.dtd">
<svg xmlns:xlink="http://www.w3.org/1999/xlink" width="1338.328392pt" height="570.995391pt" viewBox="0 0 1338.328392 570.995391" xmlns="http://www.w3.org/2000/svg" version="1.1">
 <metadata>
  <rdf:RDF xmlns:dc="http://purl.org/dc/elements/1.1/" xmlns:cc="http://creativecommons.org/ns#" xmlns:rdf="http://www.w3.org/1999/02/22-rdf-syntax-ns#">
   <cc:Work>
    <dc:type rdf:resource="http://purl.org/dc/dcmitype/StillImage"/>
    <dc:date>2026-01-03T09:49:06.229002</dc:date>
    <dc:format>image/svg+xml</dc:format>
    <dc:creator>
     <cc:Agent>
      <dc:title>Matplotlib v3.8.0, https://matplotlib.org/</dc:title>
     </cc:Agent>
    </dc:creator>
   </cc:Work>
  </rdf:RDF>
 </metadata>
 <defs>
  <style type="text/css">*{stroke-linejoin: round; stroke-linecap: butt}</style>
 </defs>
 <g id="figure_1">
  <g id="patch_1">
   <path d="M 0 570.995391 
L 1338.328392 570.995391 
L 1338.328392 0 
L 0 0 
z
" style="fill: #ffffff"/>
  </g>
  <g id="axes_1">
   <g id="patch_2">
    <path d="M 55.942969 518.744063 
L 1113.970692 518.744063 
L 1113.970692 26.084062 
L 55.942969 26.084062 
z
" style="fill: #ffffff"/>
   </g>
   <g id="matplotlib.axis_1">
    <g id="xtick_1">
     <g id="text_1">
      <!-- 0 -->
      <g style="fill: #262626" transform="translate(143.167518 540.054453) scale(0.165 -0.165)">
       <defs>
        <path id="ArialMT-30" d="M 266 2259 
Q 266 3072 433 3567 
Q 600 4063 929 4331 
Q 1259 4600 1759 4600 
Q 2128 4600 2406 4451 
Q 2684 4303 2865 4023 
Q 3047 3744 3150 3342 
Q 3253 2941 3253 2259 
Q 3253 1453 3087 958 
Q 2922 463 2592 192 
Q 2263 -78 1759 -78 
Q 1097 -78 719 397 
Q 266 969 266 2259 
z
M 844 2259 
Q 844 1131 1108 757 
Q 1372 384 1759 384 
Q 2147 384 2411 759 
Q 2675 1134 2675 2259 
Q 2675 3391 2411 3762 
Q 2147 4134 1753 4134 
Q 1366 4134 1134 3806 
Q 844 3388 844 2259 
z
" transform="scale(0.015625)"/>
       </defs>
       <use xlink:href="#ArialMT-30"/>
      </g>
     </g>
    </g>
    <g id="xtick_2">
     <g id="text_2">
      <!-- 1 -->
      <g style="fill: #262626" transform="translate(186.887672 540.054453) scale(0.165 -0.165)">
       <defs>
        <path id="ArialMT-31" d="M 2384 0 
L 1822 0 
L 1822 3584 
Q 1619 3391 1289 3197 
Q 959 3003 697 2906 
L 697 3450 
Q 1169 3672 1522 3987 
Q 1875 4303 2022 4600 
L 2384 4600 
L 2384 0 
z
" transform="scale(0.015625)"/>
       </defs>
       <use xlink:href="#ArialMT-31"/>
      </g>
     </g>
    </g>
    <g id="xtick_3">
     <g id="text_3">
      <!-- 2 -->
      <g style="fill: #262626" transform="translate(230.607826 540.054453) scale(0.165 -0.165)">
       <defs>
        <path id="ArialMT-32" d="M 3222 541 
L 3222 0 
L 194 0 
Q 188 203 259 391 
Q 375 700 629 1000 
Q 884 1300 1366 1694 
Q 2113 2306 2375 2664 
Q 2638 3022 2638 3341 
Q 2638 3675 2398 3904 
Q 2159 4134 1775 4134 
Q 1369 4134 1125 3890 
Q 881 3647 878 3216 
L 300 3275 
Q 359 3922 746 4261 
Q 1134 4600 1788 4600 
Q 2447 4600 2831 4234 
Q 3216 3869 3216 3328 
Q 3216 3053 3103 2787 
Q 2991 2522 2730 2228 
Q 2469 1934 1863 1422 
Q 1356 997 1212 845 
Q 1069 694 975 541 
L 3222 541 
z
" transform="scale(0.015625)"/>
       </defs>
       <use xlink:href="#ArialMT-32"/>
      </g>
     </g>
    </g>
    <g id="xtick_4">
     <g id="text_4">
      <!-- 3 -->
      <g style="fill: #262626" transform="translate(274.32798 540.054453) scale(0.165 -0.165)">
       <defs>
        <path id="ArialMT-33" d="M 269 1209 
L 831 1284 
Q 928 806 1161 595 
Q 1394 384 1728 384 
Q 2125 384 2398 659 
Q 2672 934 2672 1341 
Q 2672 1728 2419 1979 
Q 2166 2231 1775 2231 
Q 1616 2231 1378 2169 
L 1441 2663 
Q 1497 2656 1531 2656 
Q 1891 2656 2178 2843 
Q 2466 3031 2466 3422 
Q 2466 3731 2256 3934 
Q 2047 4138 1716 4138 
Q 1388 4138 1169 3931 
Q 950 3725 888 3313 
L 325 3413 
Q 428 3978 793 4289 
Q 1159 4600 1703 4600 
Q 2078 4600 2393 4439 
Q 2709 4278 2876 4000 
Q 3044 3722 3044 3409 
Q 3044 3113 2884 2869 
Q 2725 2625 2413 2481 
Q 2819 2388 3044 2092 
Q 3269 1797 3269 1353 
Q 3269 753 2831 336 
Q 2394 -81 1725 -81 
Q 1122 -81 723 278 
Q 325 638 269 1209 
z
" transform="scale(0.015625)"/>
       </defs>
       <use xlink:href="#ArialMT-33"/>
      </g>
     </g>
    </g>
    <g id="xtick_5">
     <g id="text_5">
      <!-- 4 -->
      <g style="fill: #262626" transform="translate(318.048134 540.054453) scale(0.165 -0.165)">
       <defs>
        <path id="ArialMT-34" d="M 2069 0 
L 2069 1097 
L 81 1097 
L 81 1613 
L 2172 4581 
L 2631 4581 
L 2631 1613 
L 3250 1613 
L 3250 1097 
L 2631 1097 
L 2631 0 
L 2069 0 
z
M 2069 1613 
L 2069 3678 
L 634 1613 
L 2069 1613 
z
" transform="scale(0.015625)"/>
       </defs>
       <use xlink:href="#ArialMT-34"/>
      </g>
     </g>
    </g>
    <g id="xtick_6">
     <g id="text_6">
      <!-- 5 -->
      <g style="fill: #262626" transform="translate(361.768288 540.054453) scale(0.165 -0.165)">
       <defs>
        <path id="ArialMT-35" d="M 266 1200 
L 856 1250 
Q 922 819 1161 601 
Q 1400 384 1738 384 
Q 2144 384 2425 690 
Q 2706 997 2706 1503 
Q 2706 1984 2436 2262 
Q 2166 2541 1728 2541 
Q 1456 2541 1237 2417 
Q 1019 2294 894 2097 
L 366 2166 
L 809 4519 
L 3088 4519 
L 3088 3981 
L 1259 3981 
L 1013 2750 
Q 1425 3038 1878 3038 
Q 2478 3038 2890 2622 
Q 3303 2206 3303 1553 
Q 3303 931 2941 478 
Q 2500 -78 1738 -78 
Q 1113 -78 717 272 
Q 322 622 266 1200 
z
" transform="scale(0.015625)"/>
       </defs>
       <use xlink:href="#ArialMT-35"/>
      </g>
     </g>
    </g>
    <g id="xtick_7">
     <g id="text_7">
      <!-- 6 -->
      <g style="fill: #262626" transform="translate(405.488442 540.054453) scale(0.165 -0.165)">
       <defs>
        <path id="ArialMT-36" d="M 3184 3459 
L 2625 3416 
Q 2550 3747 2413 3897 
Q 2184 4138 1850 4138 
Q 1581 4138 1378 3988 
Q 1113 3794 959 3422 
Q 806 3050 800 2363 
Q 1003 2672 1297 2822 
Q 1591 2972 1913 2972 
Q 2475 2972 2870 2558 
Q 3266 2144 3266 1488 
Q 3266 1056 3080 686 
Q 2894 316 2569 119 
Q 2244 -78 1831 -78 
Q 1128 -78 684 439 
Q 241 956 241 2144 
Q 241 3472 731 4075 
Q 1159 4600 1884 4600 
Q 2425 4600 2770 4297 
Q 3116 3994 3184 3459 
z
M 888 1484 
Q 888 1194 1011 928 
Q 1134 663 1356 523 
Q 1578 384 1822 384 
Q 2178 384 2434 671 
Q 2691 959 2691 1453 
Q 2691 1928 2437 2201 
Q 2184 2475 1800 2475 
Q 1419 2475 1153 2201 
Q 888 1928 888 1484 
z
" transform="scale(0.015625)"/>
       </defs>
       <use xlink:href="#ArialMT-36"/>
      </g>
     </g>
    </g>
    <g id="xtick_8">
     <g id="text_8">
      <!-- 7 -->
      <g style="fill: #262626" transform="translate(449.208595 540.054453) scale(0.165 -0.165)">
       <defs>
        <path id="ArialMT-37" d="M 303 3981 
L 303 4522 
L 3269 4522 
L 3269 4084 
Q 2831 3619 2401 2847 
Q 1972 2075 1738 1259 
Q 1569 684 1522 0 
L 944 0 
Q 953 541 1156 1306 
Q 1359 2072 1739 2783 
Q 2119 3494 2547 3981 
L 303 3981 
z
" transform="scale(0.015625)"/>
       </defs>
       <use xlink:href="#ArialMT-37"/>
      </g>
     </g>
    </g>
    <g id="xtick_9">
     <g id="text_9">
      <!-- 8 -->
      <g style="fill: #262626" transform="translate(492.928749 540.054453) scale(0.165 -0.165)">
       <defs>
        <path id="ArialMT-38" d="M 1131 2484 
Q 781 2613 612 2850 
Q 444 3088 444 3419 
Q 444 3919 803 4259 
Q 1163 4600 1759 4600 
Q 2359 4600 2725 4251 
Q 3091 3903 3091 3403 
Q 3091 3084 2923 2848 
Q 2756 2613 2416 2484 
Q 2838 2347 3058 2040 
Q 3278 1734 3278 1309 
Q 3278 722 2862 322 
Q 2447 -78 1769 -78 
Q 1091 -78 675 323 
Q 259 725 259 1325 
Q 259 1772 486 2073 
Q 713 2375 1131 2484 
z
M 1019 3438 
Q 1019 3113 1228 2906 
Q 1438 2700 1772 2700 
Q 2097 2700 2305 2904 
Q 2513 3109 2513 3406 
Q 2513 3716 2298 3927 
Q 2084 4138 1766 4138 
Q 1444 4138 1231 3931 
Q 1019 3725 1019 3438 
z
M 838 1322 
Q 838 1081 952 856 
Q 1066 631 1291 507 
Q 1516 384 1775 384 
Q 2178 384 2440 643 
Q 2703 903 2703 1303 
Q 2703 1709 2433 1975 
Q 2163 2241 1756 2241 
Q 1359 2241 1098 1978 
Q 838 1716 838 1322 
z
" transform="scale(0.015625)"/>
       </defs>
       <use xlink:href="#ArialMT-38"/>
      </g>
     </g>
    </g>
    <g id="xtick_10">
     <g id="text_10">
      <!-- 9 -->
      <g style="fill: #262626" transform="translate(536.648903 540.054453) scale(0.165 -0.165)">
       <defs>
        <path id="ArialMT-39" d="M 350 1059 
L 891 1109 
Q 959 728 1153 556 
Q 1347 384 1650 384 
Q 1909 384 2104 503 
Q 2300 622 2425 820 
Q 2550 1019 2634 1356 
Q 2719 1694 2719 2044 
Q 2719 2081 2716 2156 
Q 2547 1888 2255 1720 
Q 1963 1553 1622 1553 
Q 1053 1553 659 1965 
Q 266 2378 266 3053 
Q 266 3750 677 4175 
Q 1088 4600 1706 4600 
Q 2153 4600 2523 4359 
Q 2894 4119 3086 3673 
Q 3278 3228 3278 2384 
Q 3278 1506 3087 986 
Q 2897 466 2520 194 
Q 2144 -78 1638 -78 
Q 1100 -78 759 220 
Q 419 519 350 1059 
z
M 2653 3081 
Q 2653 3566 2395 3850 
Q 2138 4134 1775 4134 
Q 1400 4134 1122 3828 
Q 844 3522 844 3034 
Q 844 2597 1108 2323 
Q 1372 2050 1759 2050 
Q 2150 2050 2401 2323 
Q 2653 2597 2653 3081 
z
" transform="scale(0.015625)"/>
       </defs>
       <use xlink:href="#ArialMT-39"/>
      </g>
     </g>
    </g>
    <g id="xtick_11">
     <g id="text_11">
      <!-- 10 -->
      <g style="fill: #262626" transform="translate(575.781284 540.054453) scale(0.165 -0.165)">
       <use xlink:href="#ArialMT-31"/>
       <use xlink:href="#ArialMT-30" x="55.615234"/>
      </g>
     </g>
    </g>
    <g id="xtick_12">
     <g id="text_12">
      <!-- 11 -->
      <g style="fill: #262626" transform="translate(620.109875 540.054453) scale(0.165 -0.165)">
       <use xlink:href="#ArialMT-31"/>
       <use xlink:href="#ArialMT-31" x="48.240234"/>
      </g>
     </g>
    </g>
    <g id="xtick_13">
     <g id="text_13">
      <!-- 12 -->
      <g style="fill: #262626" transform="translate(663.221591 540.054453) scale(0.165 -0.165)">
       <use xlink:href="#ArialMT-31"/>
       <use xlink:href="#ArialMT-32" x="55.615234"/>
      </g>
     </g>
    </g>
    <g id="xtick_14">
     <g id="text_14">
      <!-- 13 -->
      <g style="fill: #262626" transform="translate(706.941745 540.054453) scale(0.165 -0.165)">
       <use xlink:href="#ArialMT-31"/>
       <use xlink:href="#ArialMT-33" x="55.615234"/>
      </g>
     </g>
    </g>
    <g id="xtick_15">
     <g id="text_15">
      <!-- 14 -->
      <g style="fill: #262626" transform="translate(750.661899 540.054453) scale(0.165 -0.165)">
       <use xlink:href="#ArialMT-31"/>
       <use xlink:href="#ArialMT-34" x="55.615234"/>
      </g>
     </g>
    </g>
    <g id="xtick_16">
     <g id="text_16">
      <!-- 15 -->
      <g style="fill: #262626" transform="translate(794.382053 540.054453) scale(0.165 -0.165)">
       <use xlink:href="#ArialMT-31"/>
       <use xlink:href="#ArialMT-35" x="55.615234"/>
      </g>
     </g>
    </g>
    <g id="xtick_17">
     <g id="text_17">
      <!-- 16 -->
      <g style="fill: #262626" transform="translate(838.102207 540.054453) scale(0.165 -0.165)">
       <use xlink:href="#ArialMT-31"/>
       <use xlink:href="#ArialMT-36" x="55.615234"/>
      </g>
     </g>
    </g>
    <g id="xtick_18">
     <g id="text_18">
      <!-- 17 -->
      <g style="fill: #262626" transform="translate(881.822361 540.054453) scale(0.165 -0.165)">
       <use xlink:href="#ArialMT-31"/>
       <use xlink:href="#ArialMT-37" x="55.615234"/>
      </g>
     </g>
    </g>
    <g id="xtick_19">
     <g id="text_19">
      <!-- 18 -->
      <g style="fill: #262626" transform="translate(925.542514 540.054453) scale(0.165 -0.165)">
       <use xlink:href="#ArialMT-31"/>
       <use xlink:href="#ArialMT-38" x="55.615234"/>
      </g>
     </g>
    </g>
    <g id="xtick_20">
     <g id="text_20">
      <!-- 19 -->
      <g style="fill: #262626" transform="translate(969.262668 540.054453) scale(0.165 -0.165)">
       <use xlink:href="#ArialMT-31"/>
       <use xlink:href="#ArialMT-39" x="55.615234"/>
      </g>
     </g>
    </g>
    <g id="xtick_21">
     <g id="text_21">
      <!-- 20 -->
      <g style="fill: #262626" transform="translate(1012.982822 540.054453) scale(0.165 -0.165)">
       <use xlink:href="#ArialMT-32"/>
       <use xlink:href="#ArialMT-30" x="55.615234"/>
      </g>
     </g>
    </g>
    <g id="text_22">
     <!-- Trial Number -->
     <g style="fill: #262626" transform="translate(533.288393 560.217891) scale(0.18 -0.18)">
      <defs>
       <path id="ArialMT-54" d="M 1659 0 
L 1659 4041 
L 150 4041 
L 150 4581 
L 3781 4581 
L 3781 4041 
L 2266 4041 
L 2266 0 
L 1659 0 
z
" transform="scale(0.015625)"/>
       <path id="ArialMT-72" d="M 416 0 
L 416 3319 
L 922 3319 
L 922 2816 
Q 1116 3169 1280 3281 
Q 1444 3394 1641 3394 
Q 1925 3394 2219 3213 
L 2025 2691 
Q 1819 2813 1613 2813 
Q 1428 2813 1281 2702 
Q 1134 2591 1072 2394 
Q 978 2094 978 1738 
L 978 0 
L 416 0 
z
" transform="scale(0.015625)"/>
       <path id="ArialMT-69" d="M 425 3934 
L 425 4581 
L 988 4581 
L 988 3934 
L 425 3934 
z
M 425 0 
L 425 3319 
L 988 3319 
L 988 0 
L 425 0 
z
" transform="scale(0.015625)"/>
       <path id="ArialMT-61" d="M 2588 409 
Q 2275 144 1986 34 
Q 1697 -75 1366 -75 
Q 819 -75 525 192 
Q 231 459 231 875 
Q 231 1119 342 1320 
Q 453 1522 633 1644 
Q 813 1766 1038 1828 
Q 1203 1872 1538 1913 
Q 2219 1994 2541 2106 
Q 2544 2222 2544 2253 
Q 2544 2597 2384 2738 
Q 2169 2928 1744 2928 
Q 1347 2928 1158 2789 
Q 969 2650 878 2297 
L 328 2372 
Q 403 2725 575 2942 
Q 747 3159 1072 3276 
Q 1397 3394 1825 3394 
Q 2250 3394 2515 3294 
Q 2781 3194 2906 3042 
Q 3031 2891 3081 2659 
Q 3109 2516 3109 2141 
L 3109 1391 
Q 3109 606 3145 398 
Q 3181 191 3288 0 
L 2700 0 
Q 2613 175 2588 409 
z
M 2541 1666 
Q 2234 1541 1622 1453 
Q 1275 1403 1131 1340 
Q 988 1278 909 1158 
Q 831 1038 831 891 
Q 831 666 1001 516 
Q 1172 366 1500 366 
Q 1825 366 2078 508 
Q 2331 650 2450 897 
Q 2541 1088 2541 1459 
L 2541 1666 
z
" transform="scale(0.015625)"/>
       <path id="ArialMT-6c" d="M 409 0 
L 409 4581 
L 972 4581 
L 972 0 
L 409 0 
z
" transform="scale(0.015625)"/>
       <path id="ArialMT-20" transform="scale(0.015625)"/>
       <path id="ArialMT-4e" d="M 488 0 
L 488 4581 
L 1109 4581 
L 3516 984 
L 3516 4581 
L 4097 4581 
L 4097 0 
L 3475 0 
L 1069 3600 
L 1069 0 
L 488 0 
z
" transform="scale(0.015625)"/>
       <path id="ArialMT-75" d="M 2597 0 
L 2597 488 
Q 2209 -75 1544 -75 
Q 1250 -75 995 37 
Q 741 150 617 320 
Q 494 491 444 738 
Q 409 903 409 1263 
L 409 3319 
L 972 3319 
L 972 1478 
Q 972 1038 1006 884 
Q 1059 663 1231 536 
Q 1403 409 1656 409 
Q 1909 409 2131 539 
Q 2353 669 2445 892 
Q 2538 1116 2538 1541 
L 2538 3319 
L 3100 3319 
L 3100 0 
L 2597 0 
z
" transform="scale(0.015625)"/>
       <path id="ArialMT-6d" d="M 422 0 
L 422 3319 
L 925 3319 
L 925 2853 
Q 1081 3097 1340 3245 
Q 1600 3394 1931 3394 
Q 2300 3394 2536 3241 
Q 2772 3088 2869 2813 
Q 3263 3394 3894 3394 
Q 4388 3394 4653 3120 
Q 4919 2847 4919 2278 
L 4919 0 
L 4359 0 
L 4359 2091 
Q 4359 2428 4304 2576 
Q 4250 2725 4106 2815 
Q 3963 2906 3769 2906 
Q 3419 2906 3187 2673 
Q 2956 2441 2956 1928 
L 2956 0 
L 2394 0 
L 2394 2156 
Q 2394 2531 2256 2718 
Q 2119 2906 1806 2906 
Q 1569 2906 1367 2781 
Q 1166 2656 1075 2415 
Q 984 2175 984 1722 
L 984 0 
L 422 0 
z
" transform="scale(0.015625)"/>
       <path id="ArialMT-62" d="M 941 0 
L 419 0 
L 419 4581 
L 981 4581 
L 981 2947 
Q 1338 3394 1891 3394 
Q 2197 3394 2470 3270 
Q 2744 3147 2920 2923 
Q 3097 2700 3197 2384 
Q 3297 2069 3297 1709 
Q 3297 856 2875 390 
Q 2453 -75 1863 -75 
Q 1275 -75 941 416 
L 941 0 
z
M 934 1684 
Q 934 1088 1097 822 
Q 1363 388 1816 388 
Q 2184 388 2453 708 
Q 2722 1028 2722 1663 
Q 2722 2313 2464 2622 
Q 2206 2931 1841 2931 
Q 1472 2931 1203 2611 
Q 934 2291 934 1684 
z
" transform="scale(0.015625)"/>
       <path id="ArialMT-65" d="M 2694 1069 
L 3275 997 
Q 3138 488 2766 206 
Q 2394 -75 1816 -75 
Q 1088 -75 661 373 
Q 234 822 234 1631 
Q 234 2469 665 2931 
Q 1097 3394 1784 3394 
Q 2450 3394 2872 2941 
Q 3294 2488 3294 1666 
Q 3294 1616 3291 1516 
L 816 1516 
Q 847 969 1125 678 
Q 1403 388 1819 388 
Q 2128 388 2347 550 
Q 2566 713 2694 1069 
z
M 847 1978 
L 2700 1978 
Q 2663 2397 2488 2606 
Q 2219 2931 1791 2931 
Q 1403 2931 1139 2672 
Q 875 2413 847 1978 
z
" transform="scale(0.015625)"/>
      </defs>
      <use xlink:href="#ArialMT-54"/>
      <use xlink:href="#ArialMT-72" x="57.333984"/>
      <use xlink:href="#ArialMT-69" x="90.634766"/>
      <use xlink:href="#ArialMT-61" x="112.851562"/>
      <use xlink:href="#ArialMT-6c" x="168.466797"/>
      <use xlink:href="#ArialMT-20" x="190.683594"/>
      <use xlink:href="#ArialMT-4e" x="218.466797"/>
      <use xlink:href="#ArialMT-75" x="290.683594"/>
      <use xlink:href="#ArialMT-6d" x="346.298828"/>
      <use xlink:href="#ArialMT-62" x="429.599609"/>
      <use xlink:href="#ArialMT-65" x="485.214844"/>
      <use xlink:href="#ArialMT-72" x="540.830078"/>
     </g>
    </g>
   </g>
   <g id="matplotlib.axis_2">
    <g id="ytick_1">
     <g id="text_23">
      <!-- 25 -->
      <g style="fill: #262626" transform="translate(28.091875 517.729376) scale(0.165 -0.165)">
       <use xlink:href="#ArialMT-32"/>
       <use xlink:href="#ArialMT-35" x="55.615234"/>
      </g>
     </g>
    </g>
    <g id="ytick_2">
     <g id="text_24">
      <!-- 30 -->
      <g style="fill: #262626" transform="translate(28.091875 447.073502) scale(0.165 -0.165)">
       <use xlink:href="#ArialMT-33"/>
       <use xlink:href="#ArialMT-30" x="55.615234"/>
      </g>
     </g>
    </g>
    <g id="ytick_3">
     <g id="text_25">
      <!-- 35 -->
      <g style="fill: #262626" transform="translate(28.091875 376.417629) scale(0.165 -0.165)">
       <use xlink:href="#ArialMT-33"/>
       <use xlink:href="#ArialMT-35" x="55.615234"/>
      </g>
     </g>
    </g>
    <g id="ytick_4">
     <g id="text_26">
      <!-- 40 -->
      <g style="fill: #262626" transform="translate(28.091875 305.761755) scale(0.165 -0.165)">
       <use xlink:href="#ArialMT-34"/>
       <use xlink:href="#ArialMT-30" x="55.615234"/>
      </g>
     </g>
    </g>
    <g id="ytick_5">
     <g id="text_27">
      <!-- 45 -->
      <g style="fill: #262626" transform="translate(28.091875 235.105882) scale(0.165 -0.165)">
       <use xlink:href="#ArialMT-34"/>
       <use xlink:href="#ArialMT-35" x="55.615234"/>
      </g>
     </g>
    </g>
    <g id="ytick_6">
     <g id="text_28">
      <!-- 50 -->
      <g style="fill: #262626" transform="translate(28.091875 164.450008) scale(0.165 -0.165)">
       <use xlink:href="#ArialMT-35"/>
       <use xlink:href="#ArialMT-30" x="55.615234"/>
      </g>
     </g>
    </g>
    <g id="ytick_7">
     <g id="text_29">
      <!-- 55 -->
      <g style="fill: #262626" transform="translate(28.091875 93.794135) scale(0.165 -0.165)">
       <use xlink:href="#ArialMT-35"/>
       <use xlink:href="#ArialMT-35" x="55.615234"/>
      </g>
     </g>
    </g>
    <g id="text_30">
     <!-- Time (s) -->
     <g style="fill: #262626" transform="translate(20.303438 305.068594) rotate(-90) scale(0.18 -0.18)">
      <defs>
       <path id="ArialMT-28" d="M 1497 -1347 
Q 1031 -759 709 28 
Q 388 816 388 1659 
Q 388 2403 628 3084 
Q 909 3875 1497 4659 
L 1900 4659 
Q 1522 4009 1400 3731 
Q 1209 3300 1100 2831 
Q 966 2247 966 1656 
Q 966 153 1900 -1347 
L 1497 -1347 
z
" transform="scale(0.015625)"/>
       <path id="ArialMT-73" d="M 197 991 
L 753 1078 
Q 800 744 1014 566 
Q 1228 388 1613 388 
Q 2000 388 2187 545 
Q 2375 703 2375 916 
Q 2375 1106 2209 1216 
Q 2094 1291 1634 1406 
Q 1016 1563 777 1677 
Q 538 1791 414 1992 
Q 291 2194 291 2438 
Q 291 2659 392 2848 
Q 494 3038 669 3163 
Q 800 3259 1026 3326 
Q 1253 3394 1513 3394 
Q 1903 3394 2198 3281 
Q 2494 3169 2634 2976 
Q 2775 2784 2828 2463 
L 2278 2388 
Q 2241 2644 2061 2787 
Q 1881 2931 1553 2931 
Q 1166 2931 1000 2803 
Q 834 2675 834 2503 
Q 834 2394 903 2306 
Q 972 2216 1119 2156 
Q 1203 2125 1616 2013 
Q 2213 1853 2448 1751 
Q 2684 1650 2818 1456 
Q 2953 1263 2953 975 
Q 2953 694 2789 445 
Q 2625 197 2315 61 
Q 2006 -75 1616 -75 
Q 969 -75 630 194 
Q 291 463 197 991 
z
" transform="scale(0.015625)"/>
       <path id="ArialMT-29" d="M 791 -1347 
L 388 -1347 
Q 1322 153 1322 1656 
Q 1322 2244 1188 2822 
Q 1081 3291 891 3722 
Q 769 4003 388 4659 
L 791 4659 
Q 1378 3875 1659 3084 
Q 1900 2403 1900 1659 
Q 1900 816 1576 28 
Q 1253 -759 791 -1347 
z
" transform="scale(0.015625)"/>
      </defs>
      <use xlink:href="#ArialMT-54"/>
      <use xlink:href="#ArialMT-69" x="57.333984"/>
      <use xlink:href="#ArialMT-6d" x="79.550781"/>
      <use xlink:href="#ArialMT-65" x="162.851562"/>
      <use xlink:href="#ArialMT-20" x="218.466797"/>
      <use xlink:href="#ArialMT-28" x="246.25"/>
      <use xlink:href="#ArialMT-73" x="279.550781"/>
      <use xlink:href="#ArialMT-29" x="329.550781"/>
     </g>
    </g>
   </g>
   <g id="PathCollection_1">
    <defs>
     <path id="m3672549532" d="M 0 3.535534 
C 0.937635 3.535534 1.836992 3.163008 2.5 2.5 
C 3.163008 1.836992 3.535534 0.937635 3.535534 0 
C 3.535534 -0.937635 3.163008 -1.836992 2.5 -2.5 
C 1.836992 -3.163008 0.937635 -3.535534 0 -3.535534 
C -0.937635 -3.535534 -1.836992 -3.163008 -2.5 -2.5 
C -3.163008 -1.836992 -3.535534 -0.937635 -3.535534 0 
C -3.535534 0.937635 -3.163008 1.836992 -2.5 2.5 
C -1.836992 3.163008 -0.937635 3.535534 0 3.535534 
z
" style="stroke: #ea5b0c"/>
    </defs>
    <g clip-path="url(#p3ba6457a7d)">
     <use xlink:href="#m3672549532" x="147.755292" y="288.824823" style="fill: #ea5b0c; stroke: #ea5b0c"/>
     <use xlink:href="#m3672549532" x="191.475446" y="278.927617" style="fill: #ea5b0c; stroke: #ea5b0c"/>
     <use xlink:href="#m3672549532" x="235.1956" y="252.301119" style="fill: #ea5b0c; stroke: #ea5b0c"/>
     <use xlink:href="#m3672549532" x="278.915753" y="288.402233" style="fill: #ea5b0c; stroke: #ea5b0c"/>
     <use xlink:href="#m3672549532" x="322.635907" y="263.716417" style="fill: #ea5b0c; stroke: #ea5b0c"/>
     <use xlink:href="#m3672549532" x="366.356061" y="353.960117" style="fill: #ea5b0c; stroke: #ea5b0c"/>
     <use xlink:href="#m3672549532" x="410.076215" y="369.402127" style="fill: #ea5b0c; stroke: #ea5b0c"/>
     <use xlink:href="#m3672549532" x="453.796369" y="306.187326" style="fill: #ea5b0c; stroke: #ea5b0c"/>
     <use xlink:href="#m3672549532" x="497.516523" y="353.240773" style="fill: #ea5b0c; stroke: #ea5b0c"/>
     <use xlink:href="#m3672549532" x="541.236677" y="308.910605" style="fill: #ea5b0c; stroke: #ea5b0c"/>
     <use xlink:href="#m3672549532" x="584.95683" y="299.20518" style="fill: #ea5b0c; stroke: #ea5b0c"/>
     <use xlink:href="#m3672549532" x="628.676984" y="287.768349" style="fill: #ea5b0c; stroke: #ea5b0c"/>
     <use xlink:href="#m3672549532" x="672.397138" y="322.776652" style="fill: #ea5b0c; stroke: #ea5b0c"/>
     <use xlink:href="#m3672549532" x="716.117292" y="308.786789" style="fill: #ea5b0c; stroke: #ea5b0c"/>
     <use xlink:href="#m3672549532" x="759.837446" y="298.232821" style="fill: #ea5b0c; stroke: #ea5b0c"/>
     <use xlink:href="#m3672549532" x="803.5576" y="179.490578" style="fill: #ea5b0c; stroke: #ea5b0c"/>
     <use xlink:href="#m3672549532" x="847.277754" y="287.424491" style="fill: #ea5b0c; stroke: #ea5b0c"/>
     <use xlink:href="#m3672549532" x="890.997907" y="257.36008" style="fill: #ea5b0c; stroke: #ea5b0c"/>
     <use xlink:href="#m3672549532" x="934.718061" y="318.236508" style="fill: #ea5b0c; stroke: #ea5b0c"/>
     <use xlink:href="#m3672549532" x="978.438215" y="301.380035" style="fill: #ea5b0c; stroke: #ea5b0c"/>
     <use xlink:href="#m3672549532" x="1022.158369" y="348.097699" style="fill: #ea5b0c; stroke: #ea5b0c"/>
    </g>
   </g>
   <g id="PolyCollection_1">
    <defs>
     <path id="m77c2ae91b8" d="M 147.755292 -309.480311 
L 147.755292 -235.435939 
L 156.587646 -235.948902 
L 165.42 -236.461939 
L 174.252355 -237.049464 
L 183.084709 -238.068692 
L 191.917063 -238.970533 
L 200.749418 -239.660951 
L 209.581772 -240.351369 
L 218.414126 -240.819829 
L 227.246481 -241.556126 
L 236.078835 -242.205613 
L 244.911189 -242.259179 
L 253.743544 -242.567889 
L 262.575898 -243.242788 
L 271.408252 -243.925908 
L 280.240607 -244.609028 
L 289.072961 -245.13597 
L 297.905315 -245.774035 
L 306.73767 -246.615302 
L 315.570024 -247.203085 
L 324.402378 -247.595401 
L 333.234732 -247.851319 
L 342.067087 -247.871299 
L 350.899441 -248.057017 
L 359.731795 -248.628157 
L 368.56415 -248.870532 
L 377.396504 -249.459246 
L 386.228858 -250.051891 
L 395.061213 -250.401088 
L 403.893567 -250.507559 
L 412.725921 -250.790361 
L 421.558276 -251.029418 
L 430.39063 -251.493001 
L 439.222984 -251.807751 
L 448.055339 -251.991215 
L 456.887693 -252.149235 
L 465.720047 -252.319187 
L 474.552402 -252.479066 
L 483.384756 -252.964796 
L 492.21711 -253.195856 
L 501.049464 -253.2545 
L 509.881819 -253.171639 
L 518.714173 -253.306766 
L 527.546527 -253.431894 
L 536.378882 -253.562699 
L 545.211236 -253.418623 
L 554.04359 -253.416205 
L 562.875945 -253.530419 
L 571.708299 -253.639897 
L 580.540653 -253.494194 
L 589.373008 -253.629117 
L 598.205362 -253.757668 
L 607.037716 -253.534133 
L 615.870071 -253.551839 
L 624.702425 -253.575312 
L 633.534779 -253.32625 
L 642.367134 -252.974353 
L 651.199488 -253.056917 
L 660.031842 -253.053057 
L 668.864196 -252.647994 
L 677.696551 -252.529039 
L 686.528905 -252.099236 
L 695.361259 -251.665634 
L 704.193614 -251.414923 
L 713.025968 -251.010731 
L 721.858322 -250.560463 
L 730.690677 -249.720728 
L 739.523031 -249.294226 
L 748.355385 -249.155737 
L 757.18774 -249.025644 
L 766.020094 -248.847237 
L 774.852448 -248.519097 
L 783.684803 -248.031368 
L 792.517157 -247.543639 
L 801.349511 -247.206072 
L 810.181866 -246.573152 
L 819.01422 -246.23852 
L 827.846574 -245.7516 
L 836.678928 -245.265823 
L 845.511283 -244.774677 
L 854.343637 -244.526496 
L 863.175991 -243.990134 
L 872.008346 -243.408874 
L 880.8407 -242.827615 
L 889.673054 -242.395226 
L 898.505409 -241.847511 
L 907.337763 -241.359042 
L 916.170117 -240.871094 
L 925.002472 -240.383146 
L 933.834826 -239.895198 
L 942.66718 -239.333312 
L 951.499535 -238.785835 
L 960.331889 -238.294766 
L 969.164243 -237.803698 
L 977.996598 -237.314965 
L 986.828952 -236.83058 
L 995.661306 -236.346196 
L 1004.49366 -235.861811 
L 1013.326015 -235.377427 
L 1022.158369 -234.797584 
L 1022.158369 -307.766412 
L 1022.158369 -307.766412 
L 1013.326015 -307.269006 
L 1004.49366 -306.863641 
L 995.661306 -306.579051 
L 986.828952 -305.918619 
L 977.996598 -305.292175 
L 969.164243 -304.795154 
L 960.331889 -304.093182 
L 951.499535 -303.270746 
L 942.66718 -302.555272 
L 933.834826 -301.903948 
L 925.002472 -301.158416 
L 916.170117 -300.861799 
L 907.337763 -300.724662 
L 898.505409 -300.585377 
L 889.673054 -300.063799 
L 880.8407 -299.591443 
L 872.008346 -299.13038 
L 863.175991 -298.676981 
L 854.343637 -298.336931 
L 845.511283 -297.921769 
L 836.678928 -297.437779 
L 827.846574 -296.945618 
L 819.01422 -296.631658 
L 810.181866 -296.484657 
L 801.349511 -296.093522 
L 792.517157 -295.685098 
L 783.684803 -295.285218 
L 774.852448 -295.045018 
L 766.020094 -294.692004 
L 757.18774 -294.341372 
L 748.355385 -294.090918 
L 739.523031 -293.743234 
L 730.690677 -293.444165 
L 721.858322 -293.143308 
L 713.025968 -292.957806 
L 704.193614 -292.623055 
L 695.361259 -292.287395 
L 686.528905 -291.963771 
L 677.696551 -291.66749 
L 668.864196 -291.551115 
L 660.031842 -291.098712 
L 651.199488 -290.756608 
L 642.367134 -290.467457 
L 633.534779 -290.194846 
L 624.702425 -290.212038 
L 615.870071 -290.059902 
L 607.037716 -289.800685 
L 598.205362 -289.644417 
L 589.373008 -289.414518 
L 580.540653 -289.215349 
L 571.708299 -289.037329 
L 562.875945 -289.122895 
L 554.04359 -288.974916 
L 545.211236 -289.116832 
L 536.378882 -289.371395 
L 527.546527 -289.526738 
L 518.714173 -289.536775 
L 509.881819 -289.651801 
L 501.049464 -290.145247 
L 492.21711 -290.807736 
L 483.384756 -291.002864 
L 474.552402 -291.324906 
L 465.720047 -291.456253 
L 456.887693 -291.895759 
L 448.055339 -292.41477 
L 439.222984 -292.676697 
L 430.39063 -292.854077 
L 421.558276 -292.922644 
L 412.725921 -293.344492 
L 403.893567 -293.409884 
L 395.061213 -293.632724 
L 386.228858 -293.868872 
L 377.396504 -294.323051 
L 368.56415 -294.911653 
L 359.731795 -295.64019 
L 350.899441 -296.030204 
L 342.067087 -296.762051 
L 333.234732 -297.24557 
L 324.402378 -297.937756 
L 315.570024 -298.255154 
L 306.73767 -298.857352 
L 297.905315 -299.487867 
L 289.072961 -300.008825 
L 280.240607 -300.529782 
L 271.408252 -301.048446 
L 262.575898 -301.564599 
L 253.743544 -302.086921 
L 244.911189 -302.818454 
L 236.078835 -303.301479 
L 227.246481 -303.880933 
L 218.414126 -304.623099 
L 209.581772 -305.212152 
L 200.749418 -306.004276 
L 191.917063 -306.507256 
L 183.084709 -307.010236 
L 174.252355 -307.51278 
L 165.42 -308.007258 
L 156.587646 -308.618925 
L 147.755292 -309.480311 
z
" style="stroke: #ffffff; stroke-opacity: 0.15"/>
    </defs>
    <g clip-path="url(#p3ba6457a7d)">
     <use xlink:href="#m77c2ae91b8" x="0" y="570.995391" style="fill: #ea5b0c; fill-opacity: 0.15; stroke: #ffffff; stroke-opacity: 0.15"/>
    </g>
   </g>
   <g id="PathCollection_2">
    <defs>
     <path id="m6bce38c072" d="M 0 3.535534 
C 0.937635 3.535534 1.836992 3.163008 2.5 2.5 
C 3.163008 1.836992 3.535534 0.937635 3.535534 0 
C 3.535534 -0.937635 3.163008 -1.836992 2.5 -2.5 
C 1.836992 -3.163008 0.937635 -3.535534 0 -3.535534 
C -0.937635 -3.535534 -1.836992 -3.163008 -2.5 -2.5 
C -3.163008 -1.836992 -3.535534 -0.937635 -3.535534 0 
C -3.535534 0.937635 -3.163008 1.836992 -2.5 2.5 
C -1.836992 3.163008 -0.937635 3.535534 0 3.535534 
z
" style="stroke: #1d71b8"/>
    </defs>
    <g clip-path="url(#p3ba6457a7d)">
     <use xlink:href="#m6bce38c072" x="147.755292" y="237.157211" style="fill: #1d71b8; stroke: #1d71b8"/>
     <use xlink:href="#m6bce38c072" x="191.475446" y="303.884618" style="fill: #1d71b8; stroke: #1d71b8"/>
     <use xlink:href="#m6bce38c072" x="235.1956" y="321.757862" style="fill: #1d71b8; stroke: #1d71b8"/>
     <use xlink:href="#m6bce38c072" x="278.915753" y="272.547728" style="fill: #1d71b8; stroke: #1d71b8"/>
     <use xlink:href="#m6bce38c072" x="322.635907" y="218.687092" style="fill: #1d71b8; stroke: #1d71b8"/>
     <use xlink:href="#m6bce38c072" x="366.356061" y="280.862242" style="fill: #1d71b8; stroke: #1d71b8"/>
     <use xlink:href="#m6bce38c072" x="410.076215" y="313.844404" style="fill: #1d71b8; stroke: #1d71b8"/>
     <use xlink:href="#m6bce38c072" x="453.796369" y="281.760581" style="fill: #1d71b8; stroke: #1d71b8"/>
     <use xlink:href="#m6bce38c072" x="497.516523" y="287.168784" style="fill: #1d71b8; stroke: #1d71b8"/>
     <use xlink:href="#m6bce38c072" x="541.236677" y="265.251332" style="fill: #1d71b8; stroke: #1d71b8"/>
     <use xlink:href="#m6bce38c072" x="584.95683" y="227.122731" style="fill: #1d71b8; stroke: #1d71b8"/>
     <use xlink:href="#m6bce38c072" x="628.676984" y="265.781587" style="fill: #1d71b8; stroke: #1d71b8"/>
     <use xlink:href="#m6bce38c072" x="672.397138" y="267.276127" style="fill: #1d71b8; stroke: #1d71b8"/>
     <use xlink:href="#m6bce38c072" x="716.117292" y="321.795545" style="fill: #1d71b8; stroke: #1d71b8"/>
     <use xlink:href="#m6bce38c072" x="759.837446" y="316.212385" style="fill: #1d71b8; stroke: #1d71b8"/>
     <use xlink:href="#m6bce38c072" x="803.5576" y="389.035712" style="fill: #1d71b8; stroke: #1d71b8"/>
     <use xlink:href="#m6bce38c072" x="847.277754" y="275.659278" style="fill: #1d71b8; stroke: #1d71b8"/>
     <use xlink:href="#m6bce38c072" x="890.997907" y="292.910078" style="fill: #1d71b8; stroke: #1d71b8"/>
     <use xlink:href="#m6bce38c072" x="934.718061" y="226.068949" style="fill: #1d71b8; stroke: #1d71b8"/>
     <use xlink:href="#m6bce38c072" x="978.438215" y="307.399915" style="fill: #1d71b8; stroke: #1d71b8"/>
     <use xlink:href="#m6bce38c072" x="1022.158369" y="293.080998" style="fill: #1d71b8; stroke: #1d71b8"/>
    </g>
   </g>
   <g id="PolyCollection_2">
    <defs>
     <path id="mcc941e12fb" d="M 147.755292 -337.352417 
L 147.755292 -261.31185 
L 156.587646 -261.513471 
L 165.42 -261.709833 
L 174.252355 -262.007261 
L 183.084709 -262.447913 
L 191.917063 -262.991695 
L 200.749418 -263.70864 
L 209.581772 -263.998335 
L 218.414126 -264.226044 
L 227.246481 -264.663301 
L 236.078835 -265.105732 
L 244.911189 -265.509754 
L 253.743544 -265.641147 
L 262.575898 -265.834441 
L 271.408252 -265.874255 
L 280.240607 -265.91832 
L 289.072961 -265.998819 
L 297.905315 -266.30605 
L 306.73767 -266.604562 
L 315.570024 -266.904428 
L 324.402378 -267.223857 
L 333.234732 -267.786906 
L 342.067087 -267.886758 
L 350.899441 -268.147291 
L 359.731795 -268.552826 
L 368.56415 -268.762842 
L 377.396504 -269.065815 
L 386.228858 -269.221334 
L 395.061213 -269.18595 
L 403.893567 -269.153971 
L 412.725921 -269.272604 
L 421.558276 -269.177922 
L 430.39063 -269.160026 
L 439.222984 -269.35911 
L 448.055339 -269.494107 
L 456.887693 -269.482255 
L 465.720047 -269.43459 
L 474.552402 -269.344028 
L 483.384756 -269.384044 
L 492.21711 -269.335679 
L 501.049464 -269.346549 
L 509.881819 -269.361877 
L 518.714173 -269.483029 
L 527.546527 -269.506032 
L 536.378882 -269.179668 
L 545.211236 -268.947779 
L 554.04359 -268.71707 
L 562.875945 -268.558169 
L 571.708299 -268.252093 
L 580.540653 -267.90727 
L 589.373008 -267.859948 
L 598.205362 -267.672309 
L 607.037716 -267.522522 
L 615.870071 -267.393093 
L 624.702425 -266.918428 
L 633.534779 -266.76617 
L 642.367134 -266.106683 
L 651.199488 -265.80454 
L 660.031842 -265.553894 
L 668.864196 -264.991927 
L 677.696551 -264.365476 
L 686.528905 -263.736515 
L 695.361259 -263.32447 
L 704.193614 -263.202036 
L 713.025968 -262.666861 
L 721.858322 -262.266661 
L 730.690677 -261.914311 
L 739.523031 -261.545465 
L 748.355385 -260.98362 
L 757.18774 -260.364945 
L 766.020094 -259.897691 
L 774.852448 -259.257983 
L 783.684803 -258.584794 
L 792.517157 -257.897943 
L 801.349511 -257.217069 
L 810.181866 -256.573119 
L 819.01422 -256.01828 
L 827.846574 -255.416117 
L 836.678928 -254.777696 
L 845.511283 -254.131814 
L 854.343637 -253.485744 
L 863.175991 -252.438943 
L 872.008346 -251.799952 
L 880.8407 -251.223798 
L 889.673054 -250.252878 
L 898.505409 -249.574188 
L 907.337763 -248.908168 
L 916.170117 -248.247806 
L 925.002472 -247.575909 
L 933.834826 -246.901356 
L 942.66718 -246.237478 
L 951.499535 -245.5736 
L 960.331889 -244.909722 
L 969.164243 -244.017519 
L 977.996598 -243.175591 
L 986.828952 -242.370234 
L 995.661306 -241.73412 
L 1004.49366 -241.098006 
L 1013.326015 -240.461926 
L 1022.158369 -239.826267 
L 1022.158369 -311.054062 
L 1022.158369 -311.054062 
L 1013.326015 -310.783083 
L 1004.49366 -310.789972 
L 995.661306 -310.79686 
L 986.828952 -310.803748 
L 977.996598 -310.810637 
L 969.164243 -310.551147 
L 960.331889 -310.223677 
L 951.499535 -309.888384 
L 942.66718 -309.552772 
L 933.834826 -309.21716 
L 925.002472 -308.881549 
L 916.170117 -308.545937 
L 907.337763 -308.359086 
L 898.505409 -308.179323 
L 889.673054 -308.079325 
L 880.8407 -307.974607 
L 872.008346 -307.756223 
L 863.175991 -307.447961 
L 854.343637 -307.134075 
L 845.511283 -306.825793 
L 836.678928 -306.514194 
L 827.846574 -306.173242 
L 819.01422 -305.902106 
L 810.181866 -305.591266 
L 801.349511 -305.422205 
L 792.517157 -305.112457 
L 783.684803 -305.211361 
L 774.852448 -305.181711 
L 766.020094 -305.216073 
L 757.18774 -305.161411 
L 748.355385 -305.118413 
L 739.523031 -305.321374 
L 730.690677 -304.994568 
L 721.858322 -304.747272 
L 713.025968 -304.813949 
L 704.193614 -304.74819 
L 695.361259 -304.250101 
L 686.528905 -304.278034 
L 677.696551 -304.477578 
L 668.864196 -304.173024 
L 660.031842 -304.321291 
L 651.199488 -304.724311 
L 642.367134 -304.841247 
L 633.534779 -305.370147 
L 624.702425 -305.84127 
L 615.870071 -306.207482 
L 607.037716 -306.810088 
L 598.205362 -307.22414 
L 589.373008 -307.724987 
L 580.540653 -308.023622 
L 571.708299 -308.394715 
L 562.875945 -308.695584 
L 554.04359 -309.212462 
L 545.211236 -309.28819 
L 536.378882 -309.424018 
L 527.546527 -310.205729 
L 518.714173 -310.639578 
L 509.881819 -310.898348 
L 501.049464 -311.155118 
L 492.21711 -311.472052 
L 483.384756 -311.664215 
L 474.552402 -312.102957 
L 465.720047 -312.622216 
L 456.887693 -312.904749 
L 448.055339 -313.190984 
L 439.222984 -313.48171 
L 430.39063 -313.770191 
L 421.558276 -314.058672 
L 412.725921 -314.567616 
L 403.893567 -315.452185 
L 395.061213 -316.095299 
L 386.228858 -316.685881 
L 377.396504 -317.162313 
L 368.56415 -317.725479 
L 359.731795 -318.435021 
L 350.899441 -319.226058 
L 342.067087 -320.021372 
L 333.234732 -320.834028 
L 324.402378 -321.607025 
L 315.570024 -322.403139 
L 306.73767 -323.199254 
L 297.905315 -323.995368 
L 289.072961 -324.788613 
L 280.240607 -325.516419 
L 271.408252 -326.37389 
L 262.575898 -327.171594 
L 253.743544 -327.964567 
L 244.911189 -328.815456 
L 236.078835 -329.689408 
L 227.246481 -330.563361 
L 218.414126 -331.437313 
L 209.581772 -332.311265 
L 200.749418 -333.181718 
L 191.917063 -334.031632 
L 183.084709 -334.666655 
L 174.252355 -335.360244 
L 165.42 -335.984038 
L 156.587646 -336.685633 
L 147.755292 -337.352417 
z
" style="stroke: #ffffff; stroke-opacity: 0.15"/>
    </defs>
    <g clip-path="url(#p3ba6457a7d)">
     <use xlink:href="#mcc941e12fb" x="0" y="570.995391" style="fill: #1d71b8; fill-opacity: 0.15; stroke: #ffffff; stroke-opacity: 0.15"/>
    </g>
   </g>
   <g id="PathCollection_3">
    <defs>
     <path id="m9db22dc59d" d="M 0 3.535534 
C 0.937635 3.535534 1.836992 3.163008 2.5 2.5 
C 3.163008 1.836992 3.535534 0.937635 3.535534 0 
C 3.535534 -0.937635 3.163008 -1.836992 2.5 -2.5 
C 1.836992 -3.163008 0.937635 -3.535534 0 -3.535534 
C -0.937635 -3.535534 -1.836992 -3.163008 -2.5 -2.5 
C -3.163008 -1.836992 -3.535534 -0.937635 -3.535534 0 
C -3.535534 0.937635 -3.163008 1.836992 -2.5 2.5 
C -1.836992 3.163008 -0.937635 3.535534 0 3.535534 
z
" style="stroke: #3aaa35"/>
    </defs>
    <g clip-path="url(#p3ba6457a7d)">
     <use xlink:href="#m9db22dc59d" x="147.755292" y="279.885845" style="fill: #3aaa35; stroke: #3aaa35"/>
     <use xlink:href="#m9db22dc59d" x="191.475446" y="383.55147" style="fill: #3aaa35; stroke: #3aaa35"/>
     <use xlink:href="#m9db22dc59d" x="235.1956" y="395.297841" style="fill: #3aaa35; stroke: #3aaa35"/>
     <use xlink:href="#m9db22dc59d" x="278.915753" y="372.136846" style="fill: #3aaa35; stroke: #3aaa35"/>
     <use xlink:href="#m9db22dc59d" x="322.635907" y="356.710986" style="fill: #3aaa35; stroke: #3aaa35"/>
     <use xlink:href="#m9db22dc59d" x="366.356061" y="361.105108" style="fill: #3aaa35; stroke: #3aaa35"/>
     <use xlink:href="#m9db22dc59d" x="410.076215" y="394.758165" style="fill: #3aaa35; stroke: #3aaa35"/>
     <use xlink:href="#m9db22dc59d" x="453.796369" y="388.794809" style="fill: #3aaa35; stroke: #3aaa35"/>
     <use xlink:href="#m9db22dc59d" x="497.516523" y="378.94538" style="fill: #3aaa35; stroke: #3aaa35"/>
     <use xlink:href="#m9db22dc59d" x="541.236677" y="421.955293" style="fill: #3aaa35; stroke: #3aaa35"/>
     <use xlink:href="#m9db22dc59d" x="584.95683" y="410.308513" style="fill: #3aaa35; stroke: #3aaa35"/>
     <use xlink:href="#m9db22dc59d" x="628.676984" y="363.941437" style="fill: #3aaa35; stroke: #3aaa35"/>
     <use xlink:href="#m9db22dc59d" x="672.397138" y="390.796052" style="fill: #3aaa35; stroke: #3aaa35"/>
     <use xlink:href="#m9db22dc59d" x="716.117292" y="403.104306" style="fill: #3aaa35; stroke: #3aaa35"/>
     <use xlink:href="#m9db22dc59d" x="759.837446" y="430.639909" style="fill: #3aaa35; stroke: #3aaa35"/>
     <use xlink:href="#m9db22dc59d" x="803.5576" y="366.542246" style="fill: #3aaa35; stroke: #3aaa35"/>
     <use xlink:href="#m9db22dc59d" x="847.277754" y="394.994357" style="fill: #3aaa35; stroke: #3aaa35"/>
     <use xlink:href="#m9db22dc59d" x="890.997907" y="413.76594" style="fill: #3aaa35; stroke: #3aaa35"/>
     <use xlink:href="#m9db22dc59d" x="934.718061" y="396.347585" style="fill: #3aaa35; stroke: #3aaa35"/>
     <use xlink:href="#m9db22dc59d" x="978.438215" y="451.755248" style="fill: #3aaa35; stroke: #3aaa35"/>
     <use xlink:href="#m9db22dc59d" x="1022.158369" y="413.032465" style="fill: #3aaa35; stroke: #3aaa35"/>
    </g>
   </g>
   <g id="PolyCollection_3">
    <defs>
     <path id="m39a91d3e15" d="M 147.755292 -246.029105 
L 147.755292 -188.523288 
L 156.587646 -188.268253 
L 165.42 -187.907684 
L 174.252355 -187.616653 
L 183.084709 -187.32613 
L 191.917063 -187.035606 
L 200.749418 -186.746473 
L 209.581772 -186.457471 
L 218.414126 -186.168469 
L 227.246481 -185.879467 
L 236.078835 -185.590465 
L 244.911189 -185.17868 
L 253.743544 -184.894925 
L 262.575898 -184.620009 
L 271.408252 -184.345093 
L 280.240607 -184.070177 
L 289.072961 -183.795261 
L 297.905315 -183.478955 
L 306.73767 -183.151895 
L 315.570024 -182.918273 
L 324.402378 -182.695597 
L 333.234732 -182.334682 
L 342.067087 -181.99817 
L 350.899441 -181.699115 
L 359.731795 -181.464894 
L 368.56415 -181.123729 
L 377.396504 -180.570299 
L 386.228858 -180.034768 
L 395.061213 -179.637886 
L 403.893567 -179.241004 
L 412.725921 -178.772952 
L 421.558276 -178.213889 
L 430.39063 -177.744256 
L 439.222984 -177.408868 
L 448.055339 -177.01223 
L 456.887693 -176.448349 
L 465.720047 -175.645794 
L 474.552402 -175.328864 
L 483.384756 -174.872372 
L 492.21711 -174.282821 
L 501.049464 -174.044109 
L 509.881819 -173.437136 
L 518.714173 -172.834311 
L 527.546527 -172.305331 
L 536.378882 -171.885152 
L 545.211236 -171.392888 
L 554.04359 -170.844774 
L 562.875945 -170.089761 
L 571.708299 -169.508703 
L 580.540653 -168.86628 
L 589.373008 -168.210407 
L 598.205362 -167.473805 
L 607.037716 -166.984372 
L 615.870071 -166.349998 
L 624.702425 -165.435333 
L 633.534779 -164.662052 
L 642.367134 -163.969023 
L 651.199488 -163.085747 
L 660.031842 -162.289 
L 668.864196 -161.654627 
L 677.696551 -160.698698 
L 686.528905 -160.073124 
L 695.361259 -159.368097 
L 704.193614 -158.795737 
L 713.025968 -157.972059 
L 721.858322 -157.042182 
L 730.690677 -156.082234 
L 739.523031 -155.121715 
L 748.355385 -154.24744 
L 757.18774 -153.192913 
L 766.020094 -152.237876 
L 774.852448 -151.269399 
L 783.684803 -150.273197 
L 792.517157 -149.169632 
L 801.349511 -148.236274 
L 810.181866 -147.557966 
L 819.01422 -146.75884 
L 827.846574 -145.721922 
L 836.678928 -144.66975 
L 845.511283 -143.617577 
L 854.343637 -142.545579 
L 863.175991 -141.417886 
L 872.008346 -140.279288 
L 880.8407 -139.28568 
L 889.673054 -138.299088 
L 898.505409 -137.18662 
L 907.337763 -136.184414 
L 916.170117 -135.056246 
L 925.002472 -134.111924 
L 933.834826 -132.995353 
L 942.66718 -131.871607 
L 951.499535 -130.747946 
L 960.331889 -129.463331 
L 969.164243 -128.332971 
L 977.996598 -127.376964 
L 986.828952 -126.253303 
L 995.661306 -125.133222 
L 1004.49366 -124.013348 
L 1013.326015 -123.09298 
L 1022.158369 -122.182223 
L 1022.158369 -173.62329 
L 1022.158369 -173.62329 
L 1013.326015 -173.962067 
L 1004.49366 -174.300021 
L 995.661306 -174.63962 
L 986.828952 -174.980542 
L 977.996598 -175.319591 
L 969.164243 -175.643786 
L 960.331889 -175.997026 
L 951.499535 -176.33749 
L 942.66718 -176.677635 
L 933.834826 -177.014238 
L 925.002472 -177.313926 
L 916.170117 -177.647326 
L 907.337763 -177.966802 
L 898.505409 -178.372847 
L 889.673054 -178.712067 
L 880.8407 -178.937147 
L 872.008346 -179.181112 
L 863.175991 -179.542987 
L 854.343637 -179.849726 
L 845.511283 -180.159681 
L 836.678928 -180.535799 
L 827.846574 -180.914544 
L 819.01422 -181.208521 
L 810.181866 -181.704103 
L 801.349511 -182.103747 
L 792.517157 -182.740002 
L 783.684803 -183.160052 
L 774.852448 -183.639061 
L 766.020094 -184.150833 
L 757.18774 -184.78064 
L 748.355385 -185.132879 
L 739.523031 -185.481888 
L 730.690677 -186.095959 
L 721.858322 -186.476587 
L 713.025968 -186.912724 
L 704.193614 -187.365374 
L 695.361259 -188.027567 
L 686.528905 -188.818362 
L 677.696551 -189.18952 
L 668.864196 -189.855555 
L 660.031842 -190.501767 
L 651.199488 -191.265923 
L 642.367134 -191.817797 
L 633.534779 -192.595983 
L 624.702425 -193.046925 
L 615.870071 -193.800465 
L 607.037716 -194.514953 
L 598.205362 -195.094517 
L 589.373008 -195.896998 
L 580.540653 -196.957793 
L 571.708299 -197.822363 
L 562.875945 -198.717463 
L 554.04359 -199.634369 
L 545.211236 -200.372691 
L 536.378882 -201.250039 
L 527.546527 -202.133432 
L 518.714173 -202.941897 
L 509.881819 -203.798816 
L 501.049464 -204.634075 
L 492.21711 -205.468721 
L 483.384756 -206.303367 
L 474.552402 -207.295302 
L 465.720047 -208.329088 
L 456.887693 -209.321085 
L 448.055339 -210.156866 
L 439.222984 -210.989511 
L 430.39063 -211.895174 
L 421.558276 -212.86799 
L 412.725921 -213.670641 
L 403.893567 -214.637609 
L 395.061213 -215.76853 
L 386.228858 -216.786779 
L 377.396504 -217.876888 
L 368.56415 -218.953571 
L 359.731795 -220.015985 
L 350.899441 -221.154902 
L 342.067087 -222.244672 
L 333.234732 -223.361431 
L 324.402378 -224.441331 
L 315.570024 -225.513983 
L 306.73767 -226.625603 
L 297.905315 -227.697438 
L 289.072961 -228.790076 
L 280.240607 -229.771583 
L 271.408252 -230.82077 
L 262.575898 -231.869956 
L 253.743544 -232.981129 
L 244.911189 -234.210133 
L 236.078835 -235.246765 
L 227.246481 -236.283397 
L 218.414126 -237.320029 
L 209.581772 -238.482063 
L 200.749418 -239.69539 
L 191.917063 -240.855441 
L 183.084709 -241.905033 
L 174.252355 -242.966754 
L 165.42 -244.011769 
L 156.587646 -245.020437 
L 147.755292 -246.029105 
z
" style="stroke: #ffffff; stroke-opacity: 0.15"/>
    </defs>
    <g clip-path="url(#p3ba6457a7d)">
     <use xlink:href="#m39a91d3e15" x="0" y="570.995391" style="fill: #3aaa35; fill-opacity: 0.15; stroke: #ffffff; stroke-opacity: 0.15"/>
    </g>
   </g>
   <g id="PathCollection_4">
    <defs>
     <path id="md62419ebd6" d="M 0 3.535534 
C 0.937635 3.535534 1.836992 3.163008 2.5 2.5 
C 3.163008 1.836992 3.535534 0.937635 3.535534 0 
C 3.535534 -0.937635 3.163008 -1.836992 2.5 -2.5 
C 1.836992 -3.163008 0.937635 -3.535534 0 -3.535534 
C -0.937635 -3.535534 -1.836992 -3.163008 -2.5 -2.5 
C -3.163008 -1.836992 -3.535534 -0.937635 -3.535534 0 
C -3.535534 0.937635 -3.163008 1.836992 -2.5 2.5 
C -1.836992 3.163008 -0.937635 3.535534 0 3.535534 
z
" style="stroke: #e7267a"/>
    </defs>
    <g clip-path="url(#p3ba6457a7d)">
     <use xlink:href="#md62419ebd6" x="147.755292" y="268.200037" style="fill: #e7267a; stroke: #e7267a"/>
     <use xlink:href="#md62419ebd6" x="191.475446" y="337.812222" style="fill: #e7267a; stroke: #e7267a"/>
     <use xlink:href="#md62419ebd6" x="235.1956" y="361.206045" style="fill: #e7267a; stroke: #e7267a"/>
     <use xlink:href="#md62419ebd6" x="278.915753" y="327.195" style="fill: #e7267a; stroke: #e7267a"/>
     <use xlink:href="#md62419ebd6" x="322.635907" y="278.502336" style="fill: #e7267a; stroke: #e7267a"/>
     <use xlink:href="#md62419ebd6" x="366.356061" y="353.566463" style="fill: #e7267a; stroke: #e7267a"/>
     <use xlink:href="#md62419ebd6" x="410.076215" y="375.791436" style="fill: #e7267a; stroke: #e7267a"/>
     <use xlink:href="#md62419ebd6" x="453.796369" y="374.076181" style="fill: #e7267a; stroke: #e7267a"/>
     <use xlink:href="#md62419ebd6" x="497.516523" y="414.027704" style="fill: #e7267a; stroke: #e7267a"/>
     <use xlink:href="#md62419ebd6" x="541.236677" y="411.02382" style="fill: #e7267a; stroke: #e7267a"/>
     <use xlink:href="#md62419ebd6" x="584.95683" y="396.758735" style="fill: #e7267a; stroke: #e7267a"/>
     <use xlink:href="#md62419ebd6" x="628.676984" y="377.257714" style="fill: #e7267a; stroke: #e7267a"/>
     <use xlink:href="#md62419ebd6" x="672.397138" y="424.825267" style="fill: #e7267a; stroke: #e7267a"/>
     <use xlink:href="#md62419ebd6" x="716.117292" y="396.601273" style="fill: #e7267a; stroke: #e7267a"/>
     <use xlink:href="#md62419ebd6" x="759.837446" y="432.231348" style="fill: #e7267a; stroke: #e7267a"/>
     <use xlink:href="#md62419ebd6" x="803.5576" y="452.160342" style="fill: #e7267a; stroke: #e7267a"/>
     <use xlink:href="#md62419ebd6" x="847.277754" y="393.474246" style="fill: #e7267a; stroke: #e7267a"/>
     <use xlink:href="#md62419ebd6" x="890.997907" y="414.389731" style="fill: #e7267a; stroke: #e7267a"/>
     <use xlink:href="#md62419ebd6" x="934.718061" y="448.790393" style="fill: #e7267a; stroke: #e7267a"/>
     <use xlink:href="#md62419ebd6" x="978.438215" y="392.238105" style="fill: #e7267a; stroke: #e7267a"/>
     <use xlink:href="#md62419ebd6" x="1022.158369" y="419.061766" style="fill: #e7267a; stroke: #e7267a"/>
    </g>
   </g>
   <g id="PolyCollection_4">
    <defs>
     <path id="m1735bdd9ac" d="M 147.755292 -287.370467 
L 147.755292 -211.225778 
L 156.587646 -210.447869 
L 165.42 -209.669961 
L 174.252355 -208.966161 
L 183.084709 -208.287807 
L 191.917063 -207.611468 
L 200.749418 -206.936711 
L 209.581772 -206.231542 
L 218.414126 -205.461149 
L 227.246481 -204.855831 
L 236.078835 -204.213509 
L 244.911189 -203.54425 
L 253.743544 -202.864215 
L 262.575898 -202.059909 
L 271.408252 -201.121706 
L 280.240607 -200.14802 
L 289.072961 -199.488774 
L 297.905315 -198.781232 
L 306.73767 -197.834428 
L 315.570024 -196.775541 
L 324.402378 -195.844167 
L 333.234732 -195.108683 
L 342.067087 -194.375503 
L 350.899441 -193.635181 
L 359.731795 -192.639705 
L 368.56415 -191.721762 
L 377.396504 -191.087739 
L 386.228858 -190.456618 
L 395.061213 -189.693225 
L 403.893567 -188.934526 
L 412.725921 -188.10814 
L 421.558276 -187.081305 
L 430.39063 -186.199946 
L 439.222984 -185.110813 
L 448.055339 -184.201761 
L 456.887693 -183.600416 
L 465.720047 -183.114583 
L 474.552402 -182.335958 
L 483.384756 -181.534216 
L 492.21711 -180.645199 
L 501.049464 -179.695706 
L 509.881819 -178.990742 
L 518.714173 -177.99711 
L 527.546527 -177.210796 
L 536.378882 -176.544838 
L 545.211236 -175.875891 
L 554.04359 -174.967699 
L 562.875945 -174.008441 
L 571.708299 -173.02259 
L 580.540653 -172.036901 
L 589.373008 -171.001126 
L 598.205362 -170.065037 
L 607.037716 -168.873583 
L 615.870071 -167.915793 
L 624.702425 -167.02531 
L 633.534779 -165.889623 
L 642.367134 -164.961149 
L 651.199488 -163.841377 
L 660.031842 -162.804387 
L 668.864196 -161.62825 
L 677.696551 -160.428149 
L 686.528905 -158.97793 
L 695.361259 -157.899593 
L 704.193614 -156.83668 
L 713.025968 -155.777713 
L 721.858322 -154.641959 
L 730.690677 -153.28734 
L 739.523031 -151.930246 
L 748.355385 -150.533894 
L 757.18774 -149.027624 
L 766.020094 -147.487206 
L 774.852448 -145.959862 
L 783.684803 -144.56294 
L 792.517157 -143.143806 
L 801.349511 -141.616157 
L 810.181866 -140.376022 
L 819.01422 -138.980004 
L 827.846574 -137.580862 
L 836.678928 -135.974971 
L 845.511283 -134.570345 
L 854.343637 -133.038869 
L 863.175991 -131.277908 
L 872.008346 -129.775327 
L 880.8407 -128.381338 
L 889.673054 -126.853165 
L 898.505409 -125.315602 
L 907.337763 -123.538336 
L 916.170117 -121.765391 
L 925.002472 -120.301671 
L 933.834826 -118.568839 
L 942.66718 -116.831776 
L 951.499535 -115.371561 
L 960.331889 -113.847656 
L 969.164243 -112.072755 
L 977.996598 -110.241659 
L 986.828952 -108.590114 
L 995.661306 -106.949659 
L 1004.49366 -105.400944 
L 1013.326015 -103.668343 
L 1022.158369 -101.909555 
L 1022.158369 -150.664101 
L 1022.158369 -150.664101 
L 1013.326015 -151.593687 
L 1004.49366 -152.523732 
L 995.661306 -153.44795 
L 986.828952 -154.262992 
L 977.996598 -155.158225 
L 969.164243 -155.738 
L 960.331889 -156.212627 
L 951.499535 -156.738788 
L 942.66718 -157.466437 
L 933.834826 -158.468564 
L 925.002472 -159.600712 
L 916.170117 -160.55465 
L 907.337763 -161.41226 
L 898.505409 -162.296181 
L 889.673054 -163.175889 
L 880.8407 -164.264063 
L 872.008346 -165.307137 
L 863.175991 -166.353447 
L 854.343637 -167.293059 
L 845.511283 -168.144334 
L 836.678928 -169.065846 
L 827.846574 -170.078643 
L 819.01422 -170.956043 
L 810.181866 -171.910883 
L 801.349511 -172.648615 
L 792.517157 -173.918838 
L 783.684803 -174.853207 
L 774.852448 -175.805886 
L 766.020094 -176.804966 
L 757.18774 -178.003226 
L 748.355385 -178.852699 
L 739.523031 -180.253006 
L 730.690677 -181.290222 
L 721.858322 -182.220559 
L 713.025968 -183.570779 
L 704.193614 -184.755653 
L 695.361259 -186.220813 
L 686.528905 -187.708756 
L 677.696551 -188.781198 
L 668.864196 -189.936149 
L 660.031842 -191.179024 
L 651.199488 -192.837463 
L 642.367134 -194.198901 
L 633.534779 -195.478771 
L 624.702425 -197.146323 
L 615.870071 -198.705805 
L 607.037716 -200.170381 
L 598.205362 -201.679912 
L 589.373008 -203.095594 
L 580.540653 -204.592275 
L 571.708299 -206.000343 
L 562.875945 -207.454523 
L 554.04359 -209.088603 
L 545.211236 -210.711856 
L 536.378882 -212.331192 
L 527.546527 -213.948111 
L 518.714173 -215.561071 
L 509.881819 -216.978255 
L 501.049464 -218.805819 
L 492.21711 -220.167017 
L 483.384756 -221.680366 
L 474.552402 -223.343129 
L 465.720047 -224.990612 
L 456.887693 -226.607414 
L 448.055339 -228.224215 
L 439.222984 -229.841016 
L 430.39063 -231.457818 
L 421.558276 -233.074619 
L 412.725921 -234.696567 
L 403.893567 -236.572075 
L 395.061213 -238.282108 
L 386.228858 -240.066564 
L 377.396504 -241.610913 
L 368.56415 -243.615645 
L 359.731795 -245.608134 
L 350.899441 -247.441665 
L 342.067087 -249.100916 
L 333.234732 -250.675854 
L 324.402378 -252.250766 
L 315.570024 -253.825679 
L 306.73767 -255.554198 
L 297.905315 -257.416788 
L 289.072961 -258.835911 
L 280.240607 -260.251338 
L 271.408252 -262.211071 
L 262.575898 -264.225655 
L 253.743544 -265.846209 
L 244.911189 -267.399588 
L 236.078835 -269.203906 
L 227.246481 -271.008224 
L 218.414126 -272.738055 
L 209.581772 -274.425072 
L 200.749418 -276.301155 
L 191.917063 -278.235332 
L 183.084709 -280.047337 
L 174.252355 -281.857992 
L 165.42 -283.668647 
L 156.587646 -285.512723 
L 147.755292 -287.370467 
z
" style="stroke: #ffffff; stroke-opacity: 0.15"/>
    </defs>
    <g clip-path="url(#p3ba6457a7d)">
     <use xlink:href="#m1735bdd9ac" x="0" y="570.995391" style="fill: #e7267a; fill-opacity: 0.15; stroke: #ffffff; stroke-opacity: 0.15"/>
    </g>
   </g>
   <g id="line2d_1">
    <path d="M 147.755292 368.491288 
L 147.755292 202.532754 
" clip-path="url(#p3ba6457a7d)" style="fill: none; stroke: #ea5b0c; stroke-width: 2.625; stroke-linecap: round"/>
   </g>
   <g id="line2d_2">
    <path d="M 191.475446 374.857013 
L 191.475446 147.084834 
" clip-path="url(#p3ba6457a7d)" style="fill: none; stroke: #ea5b0c; stroke-width: 2.625; stroke-linecap: round"/>
   </g>
   <g id="line2d_3">
    <path d="M 235.1956 328.158325 
L 235.1956 175.028475 
" clip-path="url(#p3ba6457a7d)" style="fill: none; stroke: #ea5b0c; stroke-width: 2.625; stroke-linecap: round"/>
   </g>
   <g id="line2d_4">
    <path d="M 278.915753 362.474789 
L 278.915753 216.719511 
" clip-path="url(#p3ba6457a7d)" style="fill: none; stroke: #ea5b0c; stroke-width: 2.625; stroke-linecap: round"/>
   </g>
   <g id="line2d_5">
    <path d="M 322.635907 346.686028 
L 322.635907 168.950387 
" clip-path="url(#p3ba6457a7d)" style="fill: none; stroke: #ea5b0c; stroke-width: 2.625; stroke-linecap: round"/>
   </g>
   <g id="line2d_6">
    <path d="M 366.356061 417.768831 
L 366.356061 281.115914 
" clip-path="url(#p3ba6457a7d)" style="fill: none; stroke: #ea5b0c; stroke-width: 2.625; stroke-linecap: round"/>
   </g>
   <g id="line2d_7">
    <path d="M 410.076215 418.732207 
L 410.076215 316.276346 
" clip-path="url(#p3ba6457a7d)" style="fill: none; stroke: #ea5b0c; stroke-width: 2.625; stroke-linecap: round"/>
   </g>
   <g id="line2d_8">
    <path d="M 453.796369 375.080268 
L 453.796369 227.445359 
" clip-path="url(#p3ba6457a7d)" style="fill: none; stroke: #ea5b0c; stroke-width: 2.625; stroke-linecap: round"/>
   </g>
   <g id="line2d_9">
    <path d="M 497.516523 399.143169 
L 497.516523 304.311598 
" clip-path="url(#p3ba6457a7d)" style="fill: none; stroke: #ea5b0c; stroke-width: 2.625; stroke-linecap: round"/>
   </g>
   <g id="line2d_10">
    <path d="M 541.236677 383.613765 
L 541.236677 213.356695 
" clip-path="url(#p3ba6457a7d)" style="fill: none; stroke: #ea5b0c; stroke-width: 2.625; stroke-linecap: round"/>
   </g>
   <g id="line2d_11">
    <path d="M 584.95683 367.658659 
L 584.95683 223.932786 
" clip-path="url(#p3ba6457a7d)" style="fill: none; stroke: #ea5b0c; stroke-width: 2.625; stroke-linecap: round"/>
   </g>
   <g id="line2d_12">
    <path d="M 628.676984 349.283186 
L 628.676984 208.583555 
" clip-path="url(#p3ba6457a7d)" style="fill: none; stroke: #ea5b0c; stroke-width: 2.625; stroke-linecap: round"/>
   </g>
   <g id="line2d_13">
    <path d="M 672.397138 378.598224 
L 672.397138 262.67569 
" clip-path="url(#p3ba6457a7d)" style="fill: none; stroke: #ea5b0c; stroke-width: 2.625; stroke-linecap: round"/>
   </g>
   <g id="line2d_14">
    <path d="M 716.117292 385.54977 
L 716.117292 192.232759 
" clip-path="url(#p3ba6457a7d)" style="fill: none; stroke: #ea5b0c; stroke-width: 2.625; stroke-linecap: round"/>
   </g>
   <g id="line2d_15">
    <path d="M 759.837446 394.76555 
L 759.837446 191.036808 
" clip-path="url(#p3ba6457a7d)" style="fill: none; stroke: #ea5b0c; stroke-width: 2.625; stroke-linecap: round"/>
   </g>
   <g id="line2d_16">
    <path d="M 803.5576 294.238728 
L 803.5576 52.868608 
" clip-path="url(#p3ba6457a7d)" style="fill: none; stroke: #ea5b0c; stroke-width: 2.625; stroke-linecap: round"/>
   </g>
   <g id="line2d_17">
    <path d="M 847.277754 386.774623 
L 847.277754 162.027592 
" clip-path="url(#p3ba6457a7d)" style="fill: none; stroke: #ea5b0c; stroke-width: 2.625; stroke-linecap: round"/>
   </g>
   <g id="line2d_18">
    <path d="M 890.997907 337.288208 
L 890.997907 170.926531 
" clip-path="url(#p3ba6457a7d)" style="fill: none; stroke: #ea5b0c; stroke-width: 2.625; stroke-linecap: round"/>
   </g>
   <g id="line2d_19">
    <path d="M 934.718061 381.871644 
L 934.718061 257.584665 
" clip-path="url(#p3ba6457a7d)" style="fill: none; stroke: #ea5b0c; stroke-width: 2.625; stroke-linecap: round"/>
   </g>
   <g id="line2d_20">
    <path d="M 978.438215 362.739059 
L 978.438215 227.518118 
" clip-path="url(#p3ba6457a7d)" style="fill: none; stroke: #ea5b0c; stroke-width: 2.625; stroke-linecap: round"/>
   </g>
   <g id="line2d_21">
    <path d="M 1022.158369 414.846874 
L 1022.158369 263.049964 
" clip-path="url(#p3ba6457a7d)" style="fill: none; stroke: #ea5b0c; stroke-width: 2.625; stroke-linecap: round"/>
   </g>
   <g id="line2d_22">
    <path d="M 147.755292 298.489766 
L 156.587646 298.493948 
L 165.42 298.49813 
L 174.252355 298.502312 
L 183.084709 298.506494 
L 191.917063 298.510676 
L 200.749418 298.514858 
L 209.581772 298.51904 
L 218.414126 298.523222 
L 227.246481 298.527404 
L 236.078835 298.531586 
L 244.911189 298.535768 
L 253.743544 298.53995 
L 262.575898 298.544133 
L 271.408252 298.548315 
L 280.240607 298.552497 
L 289.072961 298.556679 
L 297.905315 298.560861 
L 306.73767 298.565043 
L 315.570024 298.569225 
L 324.402378 298.573407 
L 333.234732 298.577589 
L 342.067087 298.581771 
L 350.899441 298.585953 
L 359.731795 298.590135 
L 368.56415 298.594317 
L 377.396504 298.598499 
L 386.228858 298.602682 
L 395.061213 298.606864 
L 403.893567 298.611046 
L 412.725921 298.615228 
L 421.558276 298.61941 
L 430.39063 298.623592 
L 439.222984 298.627774 
L 448.055339 298.631956 
L 456.887693 298.636138 
L 465.720047 298.64032 
L 474.552402 298.644502 
L 483.384756 298.648684 
L 492.21711 298.652866 
L 501.049464 298.657048 
L 509.881819 298.661231 
L 518.714173 298.665413 
L 527.546527 298.669595 
L 536.378882 298.673777 
L 545.211236 298.677959 
L 554.04359 298.682141 
L 562.875945 298.686323 
L 571.708299 298.690505 
L 580.540653 298.694687 
L 589.373008 298.698869 
L 598.205362 298.703051 
L 607.037716 298.707233 
L 615.870071 298.711415 
L 624.702425 298.715597 
L 633.534779 298.71978 
L 642.367134 298.723962 
L 651.199488 298.728144 
L 660.031842 298.732326 
L 668.864196 298.736508 
L 677.696551 298.74069 
L 686.528905 298.744872 
L 695.361259 298.749054 
L 704.193614 298.753236 
L 713.025968 298.757418 
L 721.858322 298.7616 
L 730.690677 298.765782 
L 739.523031 298.769964 
L 748.355385 298.774146 
L 757.18774 298.778329 
L 766.020094 298.782511 
L 774.852448 298.786693 
L 783.684803 298.790875 
L 792.517157 298.795057 
L 801.349511 298.799239 
L 810.181866 298.803421 
L 819.01422 298.807603 
L 827.846574 298.811785 
L 836.678928 298.815967 
L 845.511283 298.820149 
L 854.343637 298.824331 
L 863.175991 298.828513 
L 872.008346 298.832695 
L 880.8407 298.836878 
L 889.673054 298.84106 
L 898.505409 298.845242 
L 907.337763 298.849424 
L 916.170117 298.853606 
L 925.002472 298.857788 
L 933.834826 298.86197 
L 942.66718 298.866152 
L 951.499535 298.870334 
L 960.331889 298.874516 
L 969.164243 298.878698 
L 977.996598 298.88288 
L 986.828952 298.887062 
L 995.661306 298.891244 
L 1004.49366 298.895427 
L 1013.326015 298.899609 
L 1022.158369 298.903791 
" clip-path="url(#p3ba6457a7d)" style="fill: none; stroke: #ea5b0c; stroke-width: 2.25; stroke-linecap: round"/>
   </g>
   <g id="line2d_23">
    <path d="M 147.755292 304.086946 
L 147.755292 164.592754 
" clip-path="url(#p3ba6457a7d)" style="fill: none; stroke: #1d71b8; stroke-width: 2.625; stroke-linecap: round"/>
   </g>
   <g id="line2d_24">
    <path d="M 191.475446 413.8173 
L 191.475446 173.968586 
" clip-path="url(#p3ba6457a7d)" style="fill: none; stroke: #1d71b8; stroke-width: 2.625; stroke-linecap: round"/>
   </g>
   <g id="line2d_25">
    <path d="M 235.1956 402.297971 
L 235.1956 232.519982 
" clip-path="url(#p3ba6457a7d)" style="fill: none; stroke: #1d71b8; stroke-width: 2.625; stroke-linecap: round"/>
   </g>
   <g id="line2d_26">
    <path d="M 278.915753 346.998243 
L 278.915753 186.471934 
" clip-path="url(#p3ba6457a7d)" style="fill: none; stroke: #1d71b8; stroke-width: 2.625; stroke-linecap: round"/>
   </g>
   <g id="line2d_27">
    <path d="M 322.635907 331.387652 
L 322.635907 97.489676 
" clip-path="url(#p3ba6457a7d)" style="fill: none; stroke: #1d71b8; stroke-width: 2.625; stroke-linecap: round"/>
   </g>
   <g id="line2d_28">
    <path d="M 366.356061 341.491223 
L 366.356061 219.773948 
" clip-path="url(#p3ba6457a7d)" style="fill: none; stroke: #1d71b8; stroke-width: 2.625; stroke-linecap: round"/>
   </g>
   <g id="line2d_29">
    <path d="M 410.076215 403.22437 
L 410.076215 204.376603 
" clip-path="url(#p3ba6457a7d)" style="fill: none; stroke: #1d71b8; stroke-width: 2.625; stroke-linecap: round"/>
   </g>
   <g id="line2d_30">
    <path d="M 453.796369 341.442454 
L 453.796369 208.757065 
" clip-path="url(#p3ba6457a7d)" style="fill: none; stroke: #1d71b8; stroke-width: 2.625; stroke-linecap: round"/>
   </g>
   <g id="line2d_31">
    <path d="M 497.516523 369.239484 
L 497.516523 190.629729 
" clip-path="url(#p3ba6457a7d)" style="fill: none; stroke: #1d71b8; stroke-width: 2.625; stroke-linecap: round"/>
   </g>
   <g id="line2d_32">
    <path d="M 541.236677 371.511726 
L 541.236677 152.365334 
" clip-path="url(#p3ba6457a7d)" style="fill: none; stroke: #1d71b8; stroke-width: 2.625; stroke-linecap: round"/>
   </g>
   <g id="line2d_33">
    <path d="M 584.95683 320.09008 
L 584.95683 137.130649 
" clip-path="url(#p3ba6457a7d)" style="fill: none; stroke: #1d71b8; stroke-width: 2.625; stroke-linecap: round"/>
   </g>
   <g id="line2d_34">
    <path d="M 628.676984 329.616124 
L 628.676984 199.262985 
" clip-path="url(#p3ba6457a7d)" style="fill: none; stroke: #1d71b8; stroke-width: 2.625; stroke-linecap: round"/>
   </g>
   <g id="line2d_35">
    <path d="M 672.397138 339.386418 
L 672.397138 188.150263 
" clip-path="url(#p3ba6457a7d)" style="fill: none; stroke: #1d71b8; stroke-width: 2.625; stroke-linecap: round"/>
   </g>
   <g id="line2d_36">
    <path d="M 716.117292 403.323658 
L 716.117292 224.774836 
" clip-path="url(#p3ba6457a7d)" style="fill: none; stroke: #1d71b8; stroke-width: 2.625; stroke-linecap: round"/>
   </g>
   <g id="line2d_37">
    <path d="M 759.837446 380.751176 
L 759.837446 253.427273 
" clip-path="url(#p3ba6457a7d)" style="fill: none; stroke: #1d71b8; stroke-width: 2.625; stroke-linecap: round"/>
   </g>
   <g id="line2d_38">
    <path d="M 803.5576 437.542231 
L 803.5576 342.336536 
" clip-path="url(#p3ba6457a7d)" style="fill: none; stroke: #1d71b8; stroke-width: 2.625; stroke-linecap: round"/>
   </g>
   <g id="line2d_39">
    <path d="M 847.277754 346.849849 
L 847.277754 193.126775 
" clip-path="url(#p3ba6457a7d)" style="fill: none; stroke: #1d71b8; stroke-width: 2.625; stroke-linecap: round"/>
   </g>
   <g id="line2d_40">
    <path d="M 890.997907 385.059031 
L 890.997907 195.764813 
" clip-path="url(#p3ba6457a7d)" style="fill: none; stroke: #1d71b8; stroke-width: 2.625; stroke-linecap: round"/>
   </g>
   <g id="line2d_41">
    <path d="M 934.718061 324.136071 
L 934.718061 119.081085 
" clip-path="url(#p3ba6457a7d)" style="fill: none; stroke: #1d71b8; stroke-width: 2.625; stroke-linecap: round"/>
   </g>
   <g id="line2d_42">
    <path d="M 978.438215 401.941125 
L 978.438215 171.728509 
" clip-path="url(#p3ba6457a7d)" style="fill: none; stroke: #1d71b8; stroke-width: 2.625; stroke-linecap: round"/>
   </g>
   <g id="line2d_43">
    <path d="M 1022.158369 368.792434 
L 1022.158369 217.836362 
" clip-path="url(#p3ba6457a7d)" style="fill: none; stroke: #1d71b8; stroke-width: 2.625; stroke-linecap: round"/>
   </g>
   <g id="line2d_44">
    <path d="M 147.755292 271.840467 
L 156.587646 272.087332 
L 165.42 272.334196 
L 174.252355 272.58106 
L 183.084709 272.827924 
L 191.917063 273.074789 
L 200.749418 273.321653 
L 209.581772 273.568517 
L 218.414126 273.815381 
L 227.246481 274.062245 
L 236.078835 274.30911 
L 244.911189 274.555974 
L 253.743544 274.802838 
L 262.575898 275.049702 
L 271.408252 275.296566 
L 280.240607 275.543431 
L 289.072961 275.790295 
L 297.905315 276.037159 
L 306.73767 276.284023 
L 315.570024 276.530887 
L 324.402378 276.777752 
L 333.234732 277.024616 
L 342.067087 277.27148 
L 350.899441 277.518344 
L 359.731795 277.765208 
L 368.56415 278.012073 
L 377.396504 278.258937 
L 386.228858 278.505801 
L 395.061213 278.752665 
L 403.893567 278.999529 
L 412.725921 279.246394 
L 421.558276 279.493258 
L 430.39063 279.740122 
L 439.222984 279.986986 
L 448.055339 280.233851 
L 456.887693 280.480715 
L 465.720047 280.727579 
L 474.552402 280.974443 
L 483.384756 281.221307 
L 492.21711 281.468172 
L 501.049464 281.715036 
L 509.881819 281.9619 
L 518.714173 282.208764 
L 527.546527 282.455628 
L 536.378882 282.702493 
L 545.211236 282.949357 
L 554.04359 283.196221 
L 562.875945 283.443085 
L 571.708299 283.689949 
L 580.540653 283.936814 
L 589.373008 284.183678 
L 598.205362 284.430542 
L 607.037716 284.677406 
L 615.870071 284.92427 
L 624.702425 285.171135 
L 633.534779 285.417999 
L 642.367134 285.664863 
L 651.199488 285.911727 
L 660.031842 286.158591 
L 668.864196 286.405456 
L 677.696551 286.65232 
L 686.528905 286.899184 
L 695.361259 287.146048 
L 704.193614 287.392912 
L 713.025968 287.639777 
L 721.858322 287.886641 
L 730.690677 288.133505 
L 739.523031 288.380369 
L 748.355385 288.627234 
L 757.18774 288.874098 
L 766.020094 289.120962 
L 774.852448 289.367826 
L 783.684803 289.61469 
L 792.517157 289.861555 
L 801.349511 290.108419 
L 810.181866 290.355283 
L 819.01422 290.602147 
L 827.846574 290.849011 
L 836.678928 291.095876 
L 845.511283 291.34274 
L 854.343637 291.589604 
L 863.175991 291.836468 
L 872.008346 292.083332 
L 880.8407 292.330197 
L 889.673054 292.577061 
L 898.505409 292.823925 
L 907.337763 293.070789 
L 916.170117 293.317653 
L 925.002472 293.564518 
L 933.834826 293.811382 
L 942.66718 294.058246 
L 951.499535 294.30511 
L 960.331889 294.551974 
L 969.164243 294.798839 
L 977.996598 295.045703 
L 986.828952 295.292567 
L 995.661306 295.539431 
L 1004.49366 295.786295 
L 1013.326015 296.03316 
L 1022.158369 296.280024 
" clip-path="url(#p3ba6457a7d)" style="fill: none; stroke: #1d71b8; stroke-width: 2.25; stroke-linecap: round"/>
   </g>
   <g id="line2d_45">
    <path d="M 147.755292 354.815087 
L 147.755292 201.797714 
" clip-path="url(#p3ba6457a7d)" style="fill: none; stroke: #3aaa35; stroke-width: 2.625; stroke-linecap: round"/>
   </g>
   <g id="line2d_46">
    <path d="M 191.475446 438.278936 
L 191.475446 312.69167 
" clip-path="url(#p3ba6457a7d)" style="fill: none; stroke: #3aaa35; stroke-width: 2.625; stroke-linecap: round"/>
   </g>
   <g id="line2d_47">
    <path d="M 235.1956 463.423326 
L 235.1956 306.324382 
" clip-path="url(#p3ba6457a7d)" style="fill: none; stroke: #3aaa35; stroke-width: 2.625; stroke-linecap: round"/>
   </g>
   <g id="line2d_48">
    <path d="M 278.915753 433.203102 
L 278.915753 303.034947 
" clip-path="url(#p3ba6457a7d)" style="fill: none; stroke: #3aaa35; stroke-width: 2.625; stroke-linecap: round"/>
   </g>
   <g id="line2d_49">
    <path d="M 322.635907 428.967854 
L 322.635907 287.36593 
" clip-path="url(#p3ba6457a7d)" style="fill: none; stroke: #3aaa35; stroke-width: 2.625; stroke-linecap: round"/>
   </g>
   <g id="line2d_50">
    <path d="M 366.356061 427.580711 
L 366.356061 277.03446 
" clip-path="url(#p3ba6457a7d)" style="fill: none; stroke: #3aaa35; stroke-width: 2.625; stroke-linecap: round"/>
   </g>
   <g id="line2d_51">
    <path d="M 410.076215 454.271691 
L 410.076215 334.371904 
" clip-path="url(#p3ba6457a7d)" style="fill: none; stroke: #3aaa35; stroke-width: 2.625; stroke-linecap: round"/>
   </g>
   <g id="line2d_52">
    <path d="M 453.796369 445.131933 
L 453.796369 327.961734 
" clip-path="url(#p3ba6457a7d)" style="fill: none; stroke: #3aaa35; stroke-width: 2.625; stroke-linecap: round"/>
   </g>
   <g id="line2d_53">
    <path d="M 497.516523 426.302479 
L 497.516523 325.228428 
" clip-path="url(#p3ba6457a7d)" style="fill: none; stroke: #3aaa35; stroke-width: 2.625; stroke-linecap: round"/>
   </g>
   <g id="line2d_54">
    <path d="M 541.236677 473.783664 
L 541.236677 365.843443 
" clip-path="url(#p3ba6457a7d)" style="fill: none; stroke: #3aaa35; stroke-width: 2.625; stroke-linecap: round"/>
   </g>
   <g id="line2d_55">
    <path d="M 584.95683 452.328873 
L 584.95683 361.051191 
" clip-path="url(#p3ba6457a7d)" style="fill: none; stroke: #3aaa35; stroke-width: 2.625; stroke-linecap: round"/>
   </g>
   <g id="line2d_56">
    <path d="M 628.676984 438.991753 
L 628.676984 293.441343 
" clip-path="url(#p3ba6457a7d)" style="fill: none; stroke: #3aaa35; stroke-width: 2.625; stroke-linecap: round"/>
   </g>
   <g id="line2d_57">
    <path d="M 672.397138 442.597759 
L 672.397138 333.580289 
" clip-path="url(#p3ba6457a7d)" style="fill: none; stroke: #3aaa35; stroke-width: 2.625; stroke-linecap: round"/>
   </g>
   <g id="line2d_58">
    <path d="M 716.117292 464.721493 
L 716.117292 334.046853 
" clip-path="url(#p3ba6457a7d)" style="fill: none; stroke: #3aaa35; stroke-width: 2.625; stroke-linecap: round"/>
   </g>
   <g id="line2d_59">
    <path d="M 759.837446 484.59874 
L 759.837446 366.849179 
" clip-path="url(#p3ba6457a7d)" style="fill: none; stroke: #3aaa35; stroke-width: 2.625; stroke-linecap: round"/>
   </g>
   <g id="line2d_60">
    <path d="M 803.5576 432.484246 
L 803.5576 286.690595 
" clip-path="url(#p3ba6457a7d)" style="fill: none; stroke: #3aaa35; stroke-width: 2.625; stroke-linecap: round"/>
   </g>
   <g id="line2d_61">
    <path d="M 847.277754 444.110434 
L 847.277754 334.784786 
" clip-path="url(#p3ba6457a7d)" style="fill: none; stroke: #3aaa35; stroke-width: 2.625; stroke-linecap: round"/>
   </g>
   <g id="line2d_62">
    <path d="M 890.997907 463.283797 
L 890.997907 361.539121 
" clip-path="url(#p3ba6457a7d)" style="fill: none; stroke: #3aaa35; stroke-width: 2.625; stroke-linecap: round"/>
   </g>
   <g id="line2d_63">
    <path d="M 934.718061 452.798079 
L 934.718061 327.93618 
" clip-path="url(#p3ba6457a7d)" style="fill: none; stroke: #3aaa35; stroke-width: 2.625; stroke-linecap: round"/>
   </g>
   <g id="line2d_64">
    <path d="M 978.438215 491.959517 
L 978.438215 406.014924 
" clip-path="url(#p3ba6457a7d)" style="fill: none; stroke: #3aaa35; stroke-width: 2.625; stroke-linecap: round"/>
   </g>
   <g id="line2d_65">
    <path d="M 1022.158369 467.772514 
L 1022.158369 351.90282 
" clip-path="url(#p3ba6457a7d)" style="fill: none; stroke: #3aaa35; stroke-width: 2.625; stroke-linecap: round"/>
   </g>
   <g id="line2d_66">
    <path d="M 147.755292 354.500761 
L 156.587646 355.197109 
L 165.42 355.893457 
L 174.252355 356.589805 
L 183.084709 357.286153 
L 191.917063 357.982501 
L 200.749418 358.678849 
L 209.581772 359.375197 
L 218.414126 360.071545 
L 227.246481 360.767893 
L 236.078835 361.464242 
L 244.911189 362.16059 
L 253.743544 362.856938 
L 262.575898 363.553286 
L 271.408252 364.249634 
L 280.240607 364.945982 
L 289.072961 365.64233 
L 297.905315 366.338678 
L 306.73767 367.035026 
L 315.570024 367.731374 
L 324.402378 368.427722 
L 333.234732 369.12407 
L 342.067087 369.820418 
L 350.899441 370.516767 
L 359.731795 371.213115 
L 368.56415 371.909463 
L 377.396504 372.605811 
L 386.228858 373.302159 
L 395.061213 373.998507 
L 403.893567 374.694855 
L 412.725921 375.391203 
L 421.558276 376.087551 
L 430.39063 376.783899 
L 439.222984 377.480247 
L 448.055339 378.176595 
L 456.887693 378.872943 
L 465.720047 379.569292 
L 474.552402 380.26564 
L 483.384756 380.961988 
L 492.21711 381.658336 
L 501.049464 382.354684 
L 509.881819 383.051032 
L 518.714173 383.74738 
L 527.546527 384.443728 
L 536.378882 385.140076 
L 545.211236 385.836424 
L 554.04359 386.532772 
L 562.875945 387.22912 
L 571.708299 387.925468 
L 580.540653 388.621817 
L 589.373008 389.318165 
L 598.205362 390.014513 
L 607.037716 390.710861 
L 615.870071 391.407209 
L 624.702425 392.103557 
L 633.534779 392.799905 
L 642.367134 393.496253 
L 651.199488 394.192601 
L 660.031842 394.888949 
L 668.864196 395.585297 
L 677.696551 396.281645 
L 686.528905 396.977993 
L 695.361259 397.674341 
L 704.193614 398.37069 
L 713.025968 399.067038 
L 721.858322 399.763386 
L 730.690677 400.459734 
L 739.523031 401.156082 
L 748.355385 401.85243 
L 757.18774 402.548778 
L 766.020094 403.245126 
L 774.852448 403.941474 
L 783.684803 404.637822 
L 792.517157 405.33417 
L 801.349511 406.030518 
L 810.181866 406.726866 
L 819.01422 407.423215 
L 827.846574 408.119563 
L 836.678928 408.815911 
L 845.511283 409.512259 
L 854.343637 410.208607 
L 863.175991 410.904955 
L 872.008346 411.601303 
L 880.8407 412.297651 
L 889.673054 412.993999 
L 898.505409 413.690347 
L 907.337763 414.386695 
L 916.170117 415.083043 
L 925.002472 415.779391 
L 933.834826 416.47574 
L 942.66718 417.172088 
L 951.499535 417.868436 
L 960.331889 418.564784 
L 969.164243 419.261132 
L 977.996598 419.95748 
L 986.828952 420.653828 
L 995.661306 421.350176 
L 1004.49366 422.046524 
L 1013.326015 422.742872 
L 1022.158369 423.43922 
" clip-path="url(#p3ba6457a7d)" style="fill: none; stroke: #3aaa35; stroke-width: 2.25; stroke-linecap: round"/>
   </g>
   <g id="line2d_67">
    <path d="M 147.755292 368.404197 
L 147.755292 155.424195 
" clip-path="url(#p3ba6457a7d)" style="fill: none; stroke: #e7267a; stroke-width: 2.625; stroke-linecap: round"/>
   </g>
   <g id="line2d_68">
    <path d="M 191.475446 429.789145 
L 191.475446 234.697511 
" clip-path="url(#p3ba6457a7d)" style="fill: none; stroke: #e7267a; stroke-width: 2.625; stroke-linecap: round"/>
   </g>
   <g id="line2d_69">
    <path d="M 235.1956 422.944256 
L 235.1956 294.204241 
" clip-path="url(#p3ba6457a7d)" style="fill: none; stroke: #e7267a; stroke-width: 2.625; stroke-linecap: round"/>
   </g>
   <g id="line2d_70">
    <path d="M 278.915753 410.45329 
L 278.915753 239.145534 
" clip-path="url(#p3ba6457a7d)" style="fill: none; stroke: #e7267a; stroke-width: 2.625; stroke-linecap: round"/>
   </g>
   <g id="line2d_71">
    <path d="M 322.635907 396.766995 
L 322.635907 117.762815 
" clip-path="url(#p3ba6457a7d)" style="fill: none; stroke: #e7267a; stroke-width: 2.625; stroke-linecap: round"/>
   </g>
   <g id="line2d_72">
    <path d="M 366.356061 409.768012 
L 366.356061 295.577018 
" clip-path="url(#p3ba6457a7d)" style="fill: none; stroke: #e7267a; stroke-width: 2.625; stroke-linecap: round"/>
   </g>
   <g id="line2d_73">
    <path d="M 410.076215 428.697528 
L 410.076215 314.370858 
" clip-path="url(#p3ba6457a7d)" style="fill: none; stroke: #e7267a; stroke-width: 2.625; stroke-linecap: round"/>
   </g>
   <g id="line2d_74">
    <path d="M 453.796369 422.409812 
L 453.796369 323.922808 
" clip-path="url(#p3ba6457a7d)" style="fill: none; stroke: #e7267a; stroke-width: 2.625; stroke-linecap: round"/>
   </g>
   <g id="line2d_75">
    <path d="M 497.516523 461.574817 
L 497.516523 361.510976 
" clip-path="url(#p3ba6457a7d)" style="fill: none; stroke: #e7267a; stroke-width: 2.625; stroke-linecap: round"/>
   </g>
   <g id="line2d_76">
    <path d="M 541.236677 466.820578 
L 541.236677 342.439425 
" clip-path="url(#p3ba6457a7d)" style="fill: none; stroke: #e7267a; stroke-width: 2.625; stroke-linecap: round"/>
   </g>
   <g id="line2d_77">
    <path d="M 584.95683 451.028284 
L 584.95683 337.586241 
" clip-path="url(#p3ba6457a7d)" style="fill: none; stroke: #e7267a; stroke-width: 2.625; stroke-linecap: round"/>
   </g>
   <g id="line2d_78">
    <path d="M 628.676984 452.864663 
L 628.676984 261.685229 
" clip-path="url(#p3ba6457a7d)" style="fill: none; stroke: #e7267a; stroke-width: 2.625; stroke-linecap: round"/>
   </g>
   <g id="line2d_79">
    <path d="M 672.397138 469.010573 
L 672.397138 379.869929 
" clip-path="url(#p3ba6457a7d)" style="fill: none; stroke: #e7267a; stroke-width: 2.625; stroke-linecap: round"/>
   </g>
   <g id="line2d_80">
    <path d="M 716.117292 444.788344 
L 716.117292 341.163868 
" clip-path="url(#p3ba6457a7d)" style="fill: none; stroke: #e7267a; stroke-width: 2.625; stroke-linecap: round"/>
   </g>
   <g id="line2d_81">
    <path d="M 759.837446 480.955252 
L 759.837446 374.959497 
" clip-path="url(#p3ba6457a7d)" style="fill: none; stroke: #e7267a; stroke-width: 2.625; stroke-linecap: round"/>
   </g>
   <g id="line2d_82">
    <path d="M 803.5576 483.647039 
L 803.5576 417.708521 
" clip-path="url(#p3ba6457a7d)" style="fill: none; stroke: #e7267a; stroke-width: 2.625; stroke-linecap: round"/>
   </g>
   <g id="line2d_83">
    <path d="M 847.277754 444.780286 
L 847.277754 339.150798 
" clip-path="url(#p3ba6457a7d)" style="fill: none; stroke: #e7267a; stroke-width: 2.625; stroke-linecap: round"/>
   </g>
   <g id="line2d_84">
    <path d="M 890.997907 476.008735 
L 890.997907 349.620282 
" clip-path="url(#p3ba6457a7d)" style="fill: none; stroke: #e7267a; stroke-width: 2.625; stroke-linecap: round"/>
   </g>
   <g id="line2d_85">
    <path d="M 934.718061 491.265878 
L 934.718061 401.157921 
" clip-path="url(#p3ba6457a7d)" style="fill: none; stroke: #e7267a; stroke-width: 2.625; stroke-linecap: round"/>
   </g>
   <g id="line2d_86">
    <path d="M 978.438215 448.666594 
L 978.438215 323.688063 
" clip-path="url(#p3ba6457a7d)" style="fill: none; stroke: #e7267a; stroke-width: 2.625; stroke-linecap: round"/>
   </g>
   <g id="line2d_87">
    <path d="M 1022.158369 461.915361 
L 1022.158369 373.944425 
" clip-path="url(#p3ba6457a7d)" style="fill: none; stroke: #e7267a; stroke-width: 2.625; stroke-linecap: round"/>
   </g>
   <g id="line2d_88">
    <path d="M 147.755292 321.301874 
L 156.587646 322.554256 
L 165.42 323.806638 
L 174.252355 325.05902 
L 183.084709 326.311401 
L 191.917063 327.563783 
L 200.749418 328.816165 
L 209.581772 330.068547 
L 218.414126 331.320928 
L 227.246481 332.57331 
L 236.078835 333.825692 
L 244.911189 335.078073 
L 253.743544 336.330455 
L 262.575898 337.582837 
L 271.408252 338.835219 
L 280.240607 340.0876 
L 289.072961 341.339982 
L 297.905315 342.592364 
L 306.73767 343.844745 
L 315.570024 345.097127 
L 324.402378 346.349509 
L 333.234732 347.601891 
L 342.067087 348.854272 
L 350.899441 350.106654 
L 359.731795 351.359036 
L 368.56415 352.611418 
L 377.396504 353.863799 
L 386.228858 355.116181 
L 395.061213 356.368563 
L 403.893567 357.620944 
L 412.725921 358.873326 
L 421.558276 360.125708 
L 430.39063 361.37809 
L 439.222984 362.630471 
L 448.055339 363.882853 
L 456.887693 365.135235 
L 465.720047 366.387617 
L 474.552402 367.639998 
L 483.384756 368.89238 
L 492.21711 370.144762 
L 501.049464 371.397143 
L 509.881819 372.649525 
L 518.714173 373.901907 
L 527.546527 375.154289 
L 536.378882 376.40667 
L 545.211236 377.659052 
L 554.04359 378.911434 
L 562.875945 380.163815 
L 571.708299 381.416197 
L 580.540653 382.668579 
L 589.373008 383.920961 
L 598.205362 385.173342 
L 607.037716 386.425724 
L 615.870071 387.678106 
L 624.702425 388.930488 
L 633.534779 390.182869 
L 642.367134 391.435251 
L 651.199488 392.687633 
L 660.031842 393.940014 
L 668.864196 395.192396 
L 677.696551 396.444778 
L 686.528905 397.69716 
L 695.361259 398.949541 
L 704.193614 400.201923 
L 713.025968 401.454305 
L 721.858322 402.706687 
L 730.690677 403.959068 
L 739.523031 405.21145 
L 748.355385 406.463832 
L 757.18774 407.716213 
L 766.020094 408.968595 
L 774.852448 410.220977 
L 783.684803 411.473359 
L 792.517157 412.72574 
L 801.349511 413.978122 
L 810.181866 415.230504 
L 819.01422 416.482886 
L 827.846574 417.735267 
L 836.678928 418.987649 
L 845.511283 420.240031 
L 854.343637 421.492412 
L 863.175991 422.744794 
L 872.008346 423.997176 
L 880.8407 425.249558 
L 889.673054 426.501939 
L 898.505409 427.754321 
L 907.337763 429.006703 
L 916.170117 430.259084 
L 925.002472 431.511466 
L 933.834826 432.763848 
L 942.66718 434.01623 
L 951.499535 435.268611 
L 960.331889 436.520993 
L 969.164243 437.773375 
L 977.996598 439.025757 
L 986.828952 440.278138 
L 995.661306 441.53052 
L 1004.49366 442.782902 
L 1013.326015 444.035283 
L 1022.158369 445.287665 
" clip-path="url(#p3ba6457a7d)" style="fill: none; stroke: #e7267a; stroke-width: 2.25; stroke-linecap: round"/>
   </g>
   <g id="patch_3">
    <path d="M 55.942969 518.744063 
L 55.942969 26.084062 
" style="fill: none; stroke: #262626; stroke-width: 1.25; stroke-linejoin: miter; stroke-linecap: square"/>
   </g>
   <g id="patch_4">
    <path d="M 55.942969 518.744063 
L 1113.970692 518.744063 
" style="fill: none; stroke: #262626; stroke-width: 1.25; stroke-linejoin: miter; stroke-linecap: square"/>
   </g>
   <g id="text_31">
    <!-- Duration over the Block -->
    <g style="fill: #262626" transform="translate(491.415893 20.084062) scale(0.18 -0.18)">
     <defs>
      <path id="ArialMT-44" d="M 494 0 
L 494 4581 
L 2072 4581 
Q 2606 4581 2888 4516 
Q 3281 4425 3559 4188 
Q 3922 3881 4101 3404 
Q 4281 2928 4281 2316 
Q 4281 1794 4159 1391 
Q 4038 988 3847 723 
Q 3656 459 3429 307 
Q 3203 156 2883 78 
Q 2563 0 2147 0 
L 494 0 
z
M 1100 541 
L 2078 541 
Q 2531 541 2789 625 
Q 3047 709 3200 863 
Q 3416 1078 3536 1442 
Q 3656 1806 3656 2325 
Q 3656 3044 3420 3430 
Q 3184 3816 2847 3947 
Q 2603 4041 2063 4041 
L 1100 4041 
L 1100 541 
z
" transform="scale(0.015625)"/>
      <path id="ArialMT-74" d="M 1650 503 
L 1731 6 
Q 1494 -44 1306 -44 
Q 1000 -44 831 53 
Q 663 150 594 308 
Q 525 466 525 972 
L 525 2881 
L 113 2881 
L 113 3319 
L 525 3319 
L 525 4141 
L 1084 4478 
L 1084 3319 
L 1650 3319 
L 1650 2881 
L 1084 2881 
L 1084 941 
Q 1084 700 1114 631 
Q 1144 563 1211 522 
Q 1278 481 1403 481 
Q 1497 481 1650 503 
z
" transform="scale(0.015625)"/>
      <path id="ArialMT-6f" d="M 213 1659 
Q 213 2581 725 3025 
Q 1153 3394 1769 3394 
Q 2453 3394 2887 2945 
Q 3322 2497 3322 1706 
Q 3322 1066 3130 698 
Q 2938 331 2570 128 
Q 2203 -75 1769 -75 
Q 1072 -75 642 372 
Q 213 819 213 1659 
z
M 791 1659 
Q 791 1022 1069 705 
Q 1347 388 1769 388 
Q 2188 388 2466 706 
Q 2744 1025 2744 1678 
Q 2744 2294 2464 2611 
Q 2184 2928 1769 2928 
Q 1347 2928 1069 2612 
Q 791 2297 791 1659 
z
" transform="scale(0.015625)"/>
      <path id="ArialMT-6e" d="M 422 0 
L 422 3319 
L 928 3319 
L 928 2847 
Q 1294 3394 1984 3394 
Q 2284 3394 2536 3286 
Q 2788 3178 2913 3003 
Q 3038 2828 3088 2588 
Q 3119 2431 3119 2041 
L 3119 0 
L 2556 0 
L 2556 2019 
Q 2556 2363 2490 2533 
Q 2425 2703 2258 2804 
Q 2091 2906 1866 2906 
Q 1506 2906 1245 2678 
Q 984 2450 984 1813 
L 984 0 
L 422 0 
z
" transform="scale(0.015625)"/>
      <path id="ArialMT-76" d="M 1344 0 
L 81 3319 
L 675 3319 
L 1388 1331 
Q 1503 1009 1600 663 
Q 1675 925 1809 1294 
L 2547 3319 
L 3125 3319 
L 1869 0 
L 1344 0 
z
" transform="scale(0.015625)"/>
      <path id="ArialMT-68" d="M 422 0 
L 422 4581 
L 984 4581 
L 984 2938 
Q 1378 3394 1978 3394 
Q 2347 3394 2619 3248 
Q 2891 3103 3008 2847 
Q 3125 2591 3125 2103 
L 3125 0 
L 2563 0 
L 2563 2103 
Q 2563 2525 2380 2717 
Q 2197 2909 1863 2909 
Q 1613 2909 1392 2779 
Q 1172 2650 1078 2428 
Q 984 2206 984 1816 
L 984 0 
L 422 0 
z
" transform="scale(0.015625)"/>
      <path id="ArialMT-42" d="M 469 0 
L 469 4581 
L 2188 4581 
Q 2713 4581 3030 4442 
Q 3347 4303 3526 4014 
Q 3706 3725 3706 3409 
Q 3706 3116 3547 2856 
Q 3388 2597 3066 2438 
Q 3481 2316 3704 2022 
Q 3928 1728 3928 1328 
Q 3928 1006 3792 729 
Q 3656 453 3456 303 
Q 3256 153 2954 76 
Q 2653 0 2216 0 
L 469 0 
z
M 1075 2656 
L 2066 2656 
Q 2469 2656 2644 2709 
Q 2875 2778 2992 2937 
Q 3109 3097 3109 3338 
Q 3109 3566 3000 3739 
Q 2891 3913 2687 3977 
Q 2484 4041 1991 4041 
L 1075 4041 
L 1075 2656 
z
M 1075 541 
L 2216 541 
Q 2509 541 2628 563 
Q 2838 600 2978 687 
Q 3119 775 3209 942 
Q 3300 1109 3300 1328 
Q 3300 1584 3169 1773 
Q 3038 1963 2805 2039 
Q 2572 2116 2134 2116 
L 1075 2116 
L 1075 541 
z
" transform="scale(0.015625)"/>
      <path id="ArialMT-63" d="M 2588 1216 
L 3141 1144 
Q 3050 572 2676 248 
Q 2303 -75 1759 -75 
Q 1078 -75 664 370 
Q 250 816 250 1647 
Q 250 2184 428 2587 
Q 606 2991 970 3192 
Q 1334 3394 1763 3394 
Q 2303 3394 2647 3120 
Q 2991 2847 3088 2344 
L 2541 2259 
Q 2463 2594 2264 2762 
Q 2066 2931 1784 2931 
Q 1359 2931 1093 2626 
Q 828 2322 828 1663 
Q 828 994 1084 691 
Q 1341 388 1753 388 
Q 2084 388 2306 591 
Q 2528 794 2588 1216 
z
" transform="scale(0.015625)"/>
      <path id="ArialMT-6b" d="M 425 0 
L 425 4581 
L 988 4581 
L 988 1969 
L 2319 3319 
L 3047 3319 
L 1778 2088 
L 3175 0 
L 2481 0 
L 1384 1697 
L 988 1316 
L 988 0 
L 425 0 
z
" transform="scale(0.015625)"/>
     </defs>
     <use xlink:href="#ArialMT-44"/>
     <use xlink:href="#ArialMT-75" x="72.216797"/>
     <use xlink:href="#ArialMT-72" x="127.832031"/>
     <use xlink:href="#ArialMT-61" x="161.132812"/>
     <use xlink:href="#ArialMT-74" x="216.748047"/>
     <use xlink:href="#ArialMT-69" x="244.53125"/>
     <use xlink:href="#ArialMT-6f" x="266.748047"/>
     <use xlink:href="#ArialMT-6e" x="322.363281"/>
     <use xlink:href="#ArialMT-20" x="377.978516"/>
     <use xlink:href="#ArialMT-6f" x="405.761719"/>
     <use xlink:href="#ArialMT-76" x="461.376953"/>
     <use xlink:href="#ArialMT-65" x="511.376953"/>
     <use xlink:href="#ArialMT-72" x="566.992188"/>
     <use xlink:href="#ArialMT-20" x="600.292969"/>
     <use xlink:href="#ArialMT-74" x="628.076172"/>
     <use xlink:href="#ArialMT-68" x="655.859375"/>
     <use xlink:href="#ArialMT-65" x="711.474609"/>
     <use xlink:href="#ArialMT-20" x="767.089844"/>
     <use xlink:href="#ArialMT-42" x="794.873047"/>
     <use xlink:href="#ArialMT-6c" x="861.572266"/>
     <use xlink:href="#ArialMT-6f" x="883.789062"/>
     <use xlink:href="#ArialMT-63" x="939.404297"/>
     <use xlink:href="#ArialMT-6b" x="989.404297"/>
    </g>
   </g>
  </g>
  <g id="legend_1">
   <g id="text_32">
    <!-- Condition -->
    <g style="fill: #262626" transform="translate(1186.23308 243.471445) scale(0.18 -0.18)">
     <defs>
      <path id="ArialMT-43" d="M 3763 1606 
L 4369 1453 
Q 4178 706 3683 314 
Q 3188 -78 2472 -78 
Q 1731 -78 1267 223 
Q 803 525 561 1097 
Q 319 1669 319 2325 
Q 319 3041 592 3573 
Q 866 4106 1370 4382 
Q 1875 4659 2481 4659 
Q 3169 4659 3637 4309 
Q 4106 3959 4291 3325 
L 3694 3184 
Q 3534 3684 3231 3912 
Q 2928 4141 2469 4141 
Q 1941 4141 1586 3887 
Q 1231 3634 1087 3207 
Q 944 2781 944 2328 
Q 944 1744 1114 1308 
Q 1284 872 1643 656 
Q 2003 441 2422 441 
Q 2931 441 3284 734 
Q 3638 1028 3763 1606 
z
" transform="scale(0.015625)"/>
      <path id="ArialMT-64" d="M 2575 0 
L 2575 419 
Q 2259 -75 1647 -75 
Q 1250 -75 917 144 
Q 584 363 401 755 
Q 219 1147 219 1656 
Q 219 2153 384 2558 
Q 550 2963 881 3178 
Q 1213 3394 1622 3394 
Q 1922 3394 2156 3267 
Q 2391 3141 2538 2938 
L 2538 4581 
L 3097 4581 
L 3097 0 
L 2575 0 
z
M 797 1656 
Q 797 1019 1065 703 
Q 1334 388 1700 388 
Q 2069 388 2326 689 
Q 2584 991 2584 1609 
Q 2584 2291 2321 2609 
Q 2059 2928 1675 2928 
Q 1300 2928 1048 2622 
Q 797 2316 797 1656 
z
" transform="scale(0.015625)"/>
     </defs>
     <use xlink:href="#ArialMT-43"/>
     <use xlink:href="#ArialMT-6f" x="72.216797"/>
     <use xlink:href="#ArialMT-6e" x="127.832031"/>
     <use xlink:href="#ArialMT-64" x="183.447266"/>
     <use xlink:href="#ArialMT-69" x="239.0625"/>
     <use xlink:href="#ArialMT-74" x="261.279297"/>
     <use xlink:href="#ArialMT-69" x="289.0625"/>
     <use xlink:href="#ArialMT-6f" x="311.279297"/>
     <use xlink:href="#ArialMT-6e" x="366.894531"/>
    </g>
   </g>
   <g id="PathCollection_5">
    <g>
     <use xlink:href="#m3672549532" x="1141.534955" y="262.778086" style="fill: #ea5b0c; stroke: #ea5b0c"/>
    </g>
   </g>
   <g id="text_33">
    <!-- No Feedback -->
    <g style="fill: #262626" transform="translate(1171.234955 267.109336) scale(0.165 -0.165)">
     <defs>
      <path id="ArialMT-46" d="M 525 0 
L 525 4581 
L 3616 4581 
L 3616 4041 
L 1131 4041 
L 1131 2622 
L 3281 2622 
L 3281 2081 
L 1131 2081 
L 1131 0 
L 525 0 
z
" transform="scale(0.015625)"/>
     </defs>
     <use xlink:href="#ArialMT-4e"/>
     <use xlink:href="#ArialMT-6f" x="72.216797"/>
     <use xlink:href="#ArialMT-20" x="127.832031"/>
     <use xlink:href="#ArialMT-46" x="155.615234"/>
     <use xlink:href="#ArialMT-65" x="216.699219"/>
     <use xlink:href="#ArialMT-65" x="272.314453"/>
     <use xlink:href="#ArialMT-64" x="327.929688"/>
     <use xlink:href="#ArialMT-62" x="383.544922"/>
     <use xlink:href="#ArialMT-61" x="439.160156"/>
     <use xlink:href="#ArialMT-63" x="494.775391"/>
     <use xlink:href="#ArialMT-6b" x="544.775391"/>
    </g>
   </g>
   <g id="PathCollection_6">
    <g>
     <use xlink:href="#m6bce38c072" x="1141.534955" y="286.117852" style="fill: #1d71b8; stroke: #1d71b8"/>
    </g>
   </g>
   <g id="text_34">
    <!-- Tactile Feedback -->
    <g style="fill: #262626" transform="translate(1171.234955 290.449102) scale(0.165 -0.165)">
     <use xlink:href="#ArialMT-54"/>
     <use xlink:href="#ArialMT-61" x="49.958984"/>
     <use xlink:href="#ArialMT-63" x="105.574219"/>
     <use xlink:href="#ArialMT-74" x="155.574219"/>
     <use xlink:href="#ArialMT-69" x="183.357422"/>
     <use xlink:href="#ArialMT-6c" x="205.574219"/>
     <use xlink:href="#ArialMT-65" x="227.791016"/>
     <use xlink:href="#ArialMT-20" x="283.40625"/>
     <use xlink:href="#ArialMT-46" x="311.189453"/>
     <use xlink:href="#ArialMT-65" x="372.273438"/>
     <use xlink:href="#ArialMT-65" x="427.888672"/>
     <use xlink:href="#ArialMT-64" x="483.503906"/>
     <use xlink:href="#ArialMT-62" x="539.119141"/>
     <use xlink:href="#ArialMT-61" x="594.734375"/>
     <use xlink:href="#ArialMT-63" x="650.349609"/>
     <use xlink:href="#ArialMT-6b" x="700.349609"/>
    </g>
   </g>
   <g id="PathCollection_7">
    <g>
     <use xlink:href="#m9db22dc59d" x="1141.534955" y="309.457617" style="fill: #3aaa35; stroke: #3aaa35"/>
    </g>
   </g>
   <g id="text_35">
    <!-- Visual Feedback -->
    <g style="fill: #262626" transform="translate(1171.234955 313.788867) scale(0.165 -0.165)">
     <defs>
      <path id="ArialMT-56" d="M 1803 0 
L 28 4581 
L 684 4581 
L 1875 1253 
Q 2019 853 2116 503 
Q 2222 878 2363 1253 
L 3600 4581 
L 4219 4581 
L 2425 0 
L 1803 0 
z
" transform="scale(0.015625)"/>
     </defs>
     <use xlink:href="#ArialMT-56"/>
     <use xlink:href="#ArialMT-69" x="64.949219"/>
     <use xlink:href="#ArialMT-73" x="87.166016"/>
     <use xlink:href="#ArialMT-75" x="137.166016"/>
     <use xlink:href="#ArialMT-61" x="192.78125"/>
     <use xlink:href="#ArialMT-6c" x="248.396484"/>
     <use xlink:href="#ArialMT-20" x="270.613281"/>
     <use xlink:href="#ArialMT-46" x="298.396484"/>
     <use xlink:href="#ArialMT-65" x="359.480469"/>
     <use xlink:href="#ArialMT-65" x="415.095703"/>
     <use xlink:href="#ArialMT-64" x="470.710938"/>
     <use xlink:href="#ArialMT-62" x="526.326172"/>
     <use xlink:href="#ArialMT-61" x="581.941406"/>
     <use xlink:href="#ArialMT-63" x="637.556641"/>
     <use xlink:href="#ArialMT-6b" x="687.556641"/>
    </g>
   </g>
   <g id="PathCollection_8">
    <g>
     <use xlink:href="#md62419ebd6" x="1141.534955" y="332.797383" style="fill: #e7267a; stroke: #e7267a"/>
    </g>
   </g>
   <g id="text_36">
    <!-- Combined Feedback -->
    <g style="fill: #262626" transform="translate(1171.234955 337.128633) scale(0.165 -0.165)">
     <use xlink:href="#ArialMT-43"/>
     <use xlink:href="#ArialMT-6f" x="72.216797"/>
     <use xlink:href="#ArialMT-6d" x="127.832031"/>
     <use xlink:href="#ArialMT-62" x="211.132812"/>
     <use xlink:href="#ArialMT-69" x="266.748047"/>
     <use xlink:href="#ArialMT-6e" x="288.964844"/>
     <use xlink:href="#ArialMT-65" x="344.580078"/>
     <use xlink:href="#ArialMT-64" x="400.195312"/>
     <use xlink:href="#ArialMT-20" x="455.810547"/>
     <use xlink:href="#ArialMT-46" x="483.59375"/>
     <use xlink:href="#ArialMT-65" x="544.677734"/>
     <use xlink:href="#ArialMT-65" x="600.292969"/>
     <use xlink:href="#ArialMT-64" x="655.908203"/>
     <use xlink:href="#ArialMT-62" x="711.523438"/>
     <use xlink:href="#ArialMT-61" x="767.138672"/>
     <use xlink:href="#ArialMT-63" x="822.753906"/>
     <use xlink:href="#ArialMT-6b" x="872.753906"/>
    </g>
   </g>
  </g>
 </g>
 <defs>
  <clipPath id="p3ba6457a7d">
   <rect x="55.942969" y="26.084062" width="1058.027723" height="492.66"/>
  </clipPath>
 </defs>
</svg>
