<?xml version="1.0" encoding="utf-8" standalone="no"?>
<!DOCTYPE svg PUBLIC "-//W3C//DTD SVG 1.1//EN"
  "http://www.w3.org/Graphics/SVG/1.1/DTD/svg11.dtd">
<!-- Created with matplotlib (https://matplotlib.org/) -->
<svg height="576pt" version="1.1" viewBox="0 0 1800 576" width="1800pt" xmlns="http://www.w3.org/2000/svg" xmlns:xlink="http://www.w3.org/1999/xlink">
 <metadata>
  <rdf:RDF xmlns:cc="http://creativecommons.org/ns#" xmlns:dc="http://purl.org/dc/elements/1.1/" xmlns:rdf="http://www.w3.org/1999/02/22-rdf-syntax-ns#">
   <cc:Work>
    <dc:type rdf:resource="http://purl.org/dc/dcmitype/StillImage"/>
    <dc:date>2023-06-08T14:12:24.021221</dc:date>
    <dc:format>image/svg+xml</dc:format>
    <dc:creator>
     <cc:Agent>
      <dc:title>Matplotlib v3.3.4, https://matplotlib.org/</dc:title>
     </cc:Agent>
    </dc:creator>
   </cc:Work>
  </rdf:RDF>
 </metadata>
 <defs>
  <style type="text/css">*{stroke-linecap:butt;stroke-linejoin:round;}</style>
 </defs>
 <g id="figure_1">
  <g id="patch_1">
   <path d="M 0 576 
L 1800 576 
L 1800 0 
L 0 0 
z
" style="fill:#ffffff;"/>
  </g>
  <g id="axes_1">
   <g id="patch_2">
    <path d="M 225 504 
L 1620 504 
L 1620 69.12 
L 225 69.12 
z
" style="fill:#eaeaf2;"/>
   </g>
   <g id="matplotlib.axis_1">
    <g id="xtick_1">
     <g id="line2d_1">
      <path clip-path="url(#p0e47e02734)" d="M 283.366618 504 
L 283.366618 69.12 
" style="fill:none;stroke:#ffffff;stroke-linecap:round;"/>
     </g>
     <g id="text_1">
      <!-- 0 -->
      <g style="fill:#262626;" transform="translate(278.778845 525.310391)scale(0.165 -0.165)">
       <defs>
        <path d="M 4.15625 35.296875 
Q 4.15625 48 6.765625 55.734375 
Q 9.375 63.484375 14.515625 67.671875 
Q 19.671875 71.875 27.484375 71.875 
Q 33.25 71.875 37.59375 69.546875 
Q 41.9375 67.234375 44.765625 62.859375 
Q 47.609375 58.5 49.21875 52.21875 
Q 50.828125 45.953125 50.828125 35.296875 
Q 50.828125 22.703125 48.234375 14.96875 
Q 45.65625 7.234375 40.5 3 
Q 35.359375 -1.21875 27.484375 -1.21875 
Q 17.140625 -1.21875 11.234375 6.203125 
Q 4.15625 15.140625 4.15625 35.296875 
z
M 13.1875 35.296875 
Q 13.1875 17.671875 17.3125 11.828125 
Q 21.4375 6 27.484375 6 
Q 33.546875 6 37.671875 11.859375 
Q 41.796875 17.71875 41.796875 35.296875 
Q 41.796875 52.984375 37.671875 58.78125 
Q 33.546875 64.59375 27.390625 64.59375 
Q 21.34375 64.59375 17.71875 59.46875 
Q 13.1875 52.9375 13.1875 35.296875 
z
" id="ArialMT-48"/>
       </defs>
       <use xlink:href="#ArialMT-48"/>
      </g>
     </g>
    </g>
    <g id="xtick_2">
     <g id="line2d_2">
      <path clip-path="url(#p0e47e02734)" d="M 535.49024 504 
L 535.49024 69.12 
" style="fill:none;stroke:#ffffff;stroke-linecap:round;"/>
     </g>
     <g id="text_2">
      <!-- 100 -->
      <g style="fill:#262626;" transform="translate(521.72692 525.310391)scale(0.165 -0.165)">
       <defs>
        <path d="M 37.25 0 
L 28.46875 0 
L 28.46875 56 
Q 25.296875 52.984375 20.140625 49.953125 
Q 14.984375 46.921875 10.890625 45.40625 
L 10.890625 53.90625 
Q 18.265625 57.375 23.78125 62.296875 
Q 29.296875 67.234375 31.59375 71.875 
L 37.25 71.875 
z
" id="ArialMT-49"/>
       </defs>
       <use xlink:href="#ArialMT-49"/>
       <use x="55.615234" xlink:href="#ArialMT-48"/>
       <use x="111.230469" xlink:href="#ArialMT-48"/>
      </g>
     </g>
    </g>
    <g id="xtick_3">
     <g id="line2d_3">
      <path clip-path="url(#p0e47e02734)" d="M 787.613862 504 
L 787.613862 69.12 
" style="fill:none;stroke:#ffffff;stroke-linecap:round;"/>
     </g>
     <g id="text_3">
      <!-- 200 -->
      <g style="fill:#262626;" transform="translate(773.850542 525.310391)scale(0.165 -0.165)">
       <defs>
        <path d="M 50.34375 8.453125 
L 50.34375 0 
L 3.03125 0 
Q 2.9375 3.171875 4.046875 6.109375 
Q 5.859375 10.9375 9.828125 15.625 
Q 13.8125 20.3125 21.34375 26.46875 
Q 33.015625 36.03125 37.109375 41.625 
Q 41.21875 47.21875 41.21875 52.203125 
Q 41.21875 57.421875 37.46875 61 
Q 33.734375 64.59375 27.734375 64.59375 
Q 21.390625 64.59375 17.578125 60.78125 
Q 13.765625 56.984375 13.71875 50.25 
L 4.6875 51.171875 
Q 5.609375 61.28125 11.65625 66.578125 
Q 17.71875 71.875 27.9375 71.875 
Q 38.234375 71.875 44.234375 66.15625 
Q 50.25 60.453125 50.25 52 
Q 50.25 47.703125 48.484375 43.546875 
Q 46.734375 39.40625 42.65625 34.8125 
Q 38.578125 30.21875 29.109375 22.21875 
Q 21.1875 15.578125 18.9375 13.203125 
Q 16.703125 10.84375 15.234375 8.453125 
z
" id="ArialMT-50"/>
       </defs>
       <use xlink:href="#ArialMT-50"/>
       <use x="55.615234" xlink:href="#ArialMT-48"/>
       <use x="111.230469" xlink:href="#ArialMT-48"/>
      </g>
     </g>
    </g>
    <g id="xtick_4">
     <g id="line2d_4">
      <path clip-path="url(#p0e47e02734)" d="M 1039.737484 504 
L 1039.737484 69.12 
" style="fill:none;stroke:#ffffff;stroke-linecap:round;"/>
     </g>
     <g id="text_4">
      <!-- 300 -->
      <g style="fill:#262626;" transform="translate(1025.974164 525.310391)scale(0.165 -0.165)">
       <defs>
        <path d="M 4.203125 18.890625 
L 12.984375 20.0625 
Q 14.5 12.59375 18.140625 9.296875 
Q 21.78125 6 27 6 
Q 33.203125 6 37.46875 10.296875 
Q 41.75 14.59375 41.75 20.953125 
Q 41.75 27 37.796875 30.921875 
Q 33.84375 34.859375 27.734375 34.859375 
Q 25.25 34.859375 21.53125 33.890625 
L 22.515625 41.609375 
Q 23.390625 41.5 23.921875 41.5 
Q 29.546875 41.5 34.03125 44.421875 
Q 38.53125 47.359375 38.53125 53.46875 
Q 38.53125 58.296875 35.25 61.46875 
Q 31.984375 64.65625 26.8125 64.65625 
Q 21.6875 64.65625 18.265625 61.421875 
Q 14.84375 58.203125 13.875 51.765625 
L 5.078125 53.328125 
Q 6.6875 62.15625 12.390625 67.015625 
Q 18.109375 71.875 26.609375 71.875 
Q 32.46875 71.875 37.390625 69.359375 
Q 42.328125 66.84375 44.9375 62.5 
Q 47.5625 58.15625 47.5625 53.265625 
Q 47.5625 48.640625 45.0625 44.828125 
Q 42.578125 41.015625 37.703125 38.765625 
Q 44.046875 37.3125 47.5625 32.6875 
Q 51.078125 28.078125 51.078125 21.140625 
Q 51.078125 11.765625 44.234375 5.25 
Q 37.40625 -1.265625 26.953125 -1.265625 
Q 17.53125 -1.265625 11.296875 4.34375 
Q 5.078125 9.96875 4.203125 18.890625 
z
" id="ArialMT-51"/>
       </defs>
       <use xlink:href="#ArialMT-51"/>
       <use x="55.615234" xlink:href="#ArialMT-48"/>
       <use x="111.230469" xlink:href="#ArialMT-48"/>
      </g>
     </g>
    </g>
    <g id="xtick_5">
     <g id="line2d_5">
      <path clip-path="url(#p0e47e02734)" d="M 1291.861106 504 
L 1291.861106 69.12 
" style="fill:none;stroke:#ffffff;stroke-linecap:round;"/>
     </g>
     <g id="text_5">
      <!-- 400 -->
      <g style="fill:#262626;" transform="translate(1278.097786 525.310391)scale(0.165 -0.165)">
       <defs>
        <path d="M 32.328125 0 
L 32.328125 17.140625 
L 1.265625 17.140625 
L 1.265625 25.203125 
L 33.9375 71.578125 
L 41.109375 71.578125 
L 41.109375 25.203125 
L 50.78125 25.203125 
L 50.78125 17.140625 
L 41.109375 17.140625 
L 41.109375 0 
z
M 32.328125 25.203125 
L 32.328125 57.46875 
L 9.90625 25.203125 
z
" id="ArialMT-52"/>
       </defs>
       <use xlink:href="#ArialMT-52"/>
       <use x="55.615234" xlink:href="#ArialMT-48"/>
       <use x="111.230469" xlink:href="#ArialMT-48"/>
      </g>
     </g>
    </g>
    <g id="xtick_6">
     <g id="line2d_6">
      <path clip-path="url(#p0e47e02734)" d="M 1543.984728 504 
L 1543.984728 69.12 
" style="fill:none;stroke:#ffffff;stroke-linecap:round;"/>
     </g>
     <g id="text_6">
      <!-- 500 -->
      <g style="fill:#262626;" transform="translate(1530.221408 525.310391)scale(0.165 -0.165)">
       <defs>
        <path d="M 4.15625 18.75 
L 13.375 19.53125 
Q 14.40625 12.796875 18.140625 9.390625 
Q 21.875 6 27.15625 6 
Q 33.5 6 37.890625 10.78125 
Q 42.28125 15.578125 42.28125 23.484375 
Q 42.28125 31 38.0625 35.34375 
Q 33.84375 39.703125 27 39.703125 
Q 22.75 39.703125 19.328125 37.765625 
Q 15.921875 35.84375 13.96875 32.765625 
L 5.71875 33.84375 
L 12.640625 70.609375 
L 48.25 70.609375 
L 48.25 62.203125 
L 19.671875 62.203125 
L 15.828125 42.96875 
Q 22.265625 47.46875 29.34375 47.46875 
Q 38.71875 47.46875 45.15625 40.96875 
Q 51.609375 34.46875 51.609375 24.265625 
Q 51.609375 14.546875 45.953125 7.46875 
Q 39.0625 -1.21875 27.15625 -1.21875 
Q 17.390625 -1.21875 11.203125 4.25 
Q 5.03125 9.71875 4.15625 18.75 
z
" id="ArialMT-53"/>
       </defs>
       <use xlink:href="#ArialMT-53"/>
       <use x="55.615234" xlink:href="#ArialMT-48"/>
       <use x="111.230469" xlink:href="#ArialMT-48"/>
      </g>
     </g>
    </g>
    <g id="text_7">
     <!-- Trial -->
     <g style="fill:#262626;" transform="translate(905.339531 545.473828)scale(0.18 -0.18)">
      <defs>
       <path d="M 25.921875 0 
L 25.921875 63.140625 
L 2.34375 63.140625 
L 2.34375 71.578125 
L 59.078125 71.578125 
L 59.078125 63.140625 
L 35.40625 63.140625 
L 35.40625 0 
z
" id="ArialMT-84"/>
       <path d="M 6.5 0 
L 6.5 51.859375 
L 14.40625 51.859375 
L 14.40625 44 
Q 17.4375 49.515625 20 51.265625 
Q 22.5625 53.03125 25.640625 53.03125 
Q 30.078125 53.03125 34.671875 50.203125 
L 31.640625 42.046875 
Q 28.421875 43.953125 25.203125 43.953125 
Q 22.3125 43.953125 20.015625 42.21875 
Q 17.71875 40.484375 16.75 37.40625 
Q 15.28125 32.71875 15.28125 27.15625 
L 15.28125 0 
z
" id="ArialMT-114"/>
       <path d="M 6.640625 61.46875 
L 6.640625 71.578125 
L 15.4375 71.578125 
L 15.4375 61.46875 
z
M 6.640625 0 
L 6.640625 51.859375 
L 15.4375 51.859375 
L 15.4375 0 
z
" id="ArialMT-105"/>
       <path d="M 40.4375 6.390625 
Q 35.546875 2.25 31.03125 0.53125 
Q 26.515625 -1.171875 21.34375 -1.171875 
Q 12.796875 -1.171875 8.203125 3 
Q 3.609375 7.171875 3.609375 13.671875 
Q 3.609375 17.484375 5.34375 20.625 
Q 7.078125 23.78125 9.890625 25.6875 
Q 12.703125 27.59375 16.21875 28.5625 
Q 18.796875 29.25 24.03125 29.890625 
Q 34.671875 31.15625 39.703125 32.90625 
Q 39.75 34.71875 39.75 35.203125 
Q 39.75 40.578125 37.25 42.78125 
Q 33.890625 45.75 27.25 45.75 
Q 21.046875 45.75 18.09375 43.578125 
Q 15.140625 41.40625 13.71875 35.890625 
L 5.125 37.0625 
Q 6.296875 42.578125 8.984375 45.96875 
Q 11.671875 49.359375 16.75 51.1875 
Q 21.828125 53.03125 28.515625 53.03125 
Q 35.15625 53.03125 39.296875 51.46875 
Q 43.453125 49.90625 45.40625 47.53125 
Q 47.359375 45.171875 48.140625 41.546875 
Q 48.578125 39.3125 48.578125 33.453125 
L 48.578125 21.734375 
Q 48.578125 9.46875 49.140625 6.21875 
Q 49.703125 2.984375 51.375 0 
L 42.1875 0 
Q 40.828125 2.734375 40.4375 6.390625 
z
M 39.703125 26.03125 
Q 34.90625 24.078125 25.34375 22.703125 
Q 19.921875 21.921875 17.671875 20.9375 
Q 15.4375 19.96875 14.203125 18.09375 
Q 12.984375 16.21875 12.984375 13.921875 
Q 12.984375 10.40625 15.640625 8.0625 
Q 18.3125 5.71875 23.4375 5.71875 
Q 28.515625 5.71875 32.46875 7.9375 
Q 36.421875 10.15625 38.28125 14.015625 
Q 39.703125 17 39.703125 22.796875 
z
" id="ArialMT-97"/>
       <path d="M 6.390625 0 
L 6.390625 71.578125 
L 15.1875 71.578125 
L 15.1875 0 
z
" id="ArialMT-108"/>
      </defs>
      <use xlink:href="#ArialMT-84"/>
      <use x="57.333984" xlink:href="#ArialMT-114"/>
      <use x="90.634766" xlink:href="#ArialMT-105"/>
      <use x="112.851562" xlink:href="#ArialMT-97"/>
      <use x="168.466797" xlink:href="#ArialMT-108"/>
     </g>
    </g>
   </g>
   <g id="matplotlib.axis_2">
    <g id="ytick_1">
     <g id="line2d_7">
      <path clip-path="url(#p0e47e02734)" d="M 225 448.836238 
L 1620 448.836238 
" style="fill:none;stroke:#ffffff;stroke-linecap:round;"/>
     </g>
     <g id="text_8">
      <!-- 20 -->
      <g style="fill:#262626;" transform="translate(197.148906 454.741433)scale(0.165 -0.165)">
       <use xlink:href="#ArialMT-50"/>
       <use x="55.615234" xlink:href="#ArialMT-48"/>
      </g>
     </g>
    </g>
    <g id="ytick_2">
     <g id="line2d_8">
      <path clip-path="url(#p0e47e02734)" d="M 225 381.561716 
L 1620 381.561716 
" style="fill:none;stroke:#ffffff;stroke-linecap:round;"/>
     </g>
     <g id="text_9">
      <!-- 40 -->
      <g style="fill:#262626;" transform="translate(197.148906 387.466911)scale(0.165 -0.165)">
       <use xlink:href="#ArialMT-52"/>
       <use x="55.615234" xlink:href="#ArialMT-48"/>
      </g>
     </g>
    </g>
    <g id="ytick_3">
     <g id="line2d_9">
      <path clip-path="url(#p0e47e02734)" d="M 225 314.287194 
L 1620 314.287194 
" style="fill:none;stroke:#ffffff;stroke-linecap:round;"/>
     </g>
     <g id="text_10">
      <!-- 60 -->
      <g style="fill:#262626;" transform="translate(197.148906 320.192389)scale(0.165 -0.165)">
       <defs>
        <path d="M 49.75 54.046875 
L 41.015625 53.375 
Q 39.84375 58.546875 37.703125 60.890625 
Q 34.125 64.65625 28.90625 64.65625 
Q 24.703125 64.65625 21.53125 62.3125 
Q 17.390625 59.28125 14.984375 53.46875 
Q 12.59375 47.65625 12.5 36.921875 
Q 15.671875 41.75 20.265625 44.09375 
Q 24.859375 46.4375 29.890625 46.4375 
Q 38.671875 46.4375 44.84375 39.96875 
Q 51.03125 33.5 51.03125 23.25 
Q 51.03125 16.5 48.125 10.71875 
Q 45.21875 4.9375 40.140625 1.859375 
Q 35.0625 -1.21875 28.609375 -1.21875 
Q 17.625 -1.21875 10.6875 6.859375 
Q 3.765625 14.9375 3.765625 33.5 
Q 3.765625 54.25 11.421875 63.671875 
Q 18.109375 71.875 29.4375 71.875 
Q 37.890625 71.875 43.28125 67.140625 
Q 48.6875 62.40625 49.75 54.046875 
z
M 13.875 23.1875 
Q 13.875 18.65625 15.796875 14.5 
Q 17.71875 10.359375 21.1875 8.171875 
Q 24.65625 6 28.46875 6 
Q 34.03125 6 38.03125 10.484375 
Q 42.046875 14.984375 42.046875 22.703125 
Q 42.046875 30.125 38.078125 34.390625 
Q 34.125 38.671875 28.125 38.671875 
Q 22.171875 38.671875 18.015625 34.390625 
Q 13.875 30.125 13.875 23.1875 
z
" id="ArialMT-54"/>
       </defs>
       <use xlink:href="#ArialMT-54"/>
       <use x="55.615234" xlink:href="#ArialMT-48"/>
      </g>
     </g>
    </g>
    <g id="ytick_4">
     <g id="line2d_10">
      <path clip-path="url(#p0e47e02734)" d="M 225 247.012672 
L 1620 247.012672 
" style="fill:none;stroke:#ffffff;stroke-linecap:round;"/>
     </g>
     <g id="text_11">
      <!-- 80 -->
      <g style="fill:#262626;" transform="translate(197.148906 252.917868)scale(0.165 -0.165)">
       <defs>
        <path d="M 17.671875 38.8125 
Q 12.203125 40.828125 9.5625 44.53125 
Q 6.9375 48.25 6.9375 53.421875 
Q 6.9375 61.234375 12.546875 66.546875 
Q 18.171875 71.875 27.484375 71.875 
Q 36.859375 71.875 42.578125 66.421875 
Q 48.296875 60.984375 48.296875 53.171875 
Q 48.296875 48.1875 45.671875 44.5 
Q 43.0625 40.828125 37.75 38.8125 
Q 44.34375 36.671875 47.78125 31.875 
Q 51.21875 27.09375 51.21875 20.453125 
Q 51.21875 11.28125 44.71875 5.03125 
Q 38.234375 -1.21875 27.640625 -1.21875 
Q 17.046875 -1.21875 10.546875 5.046875 
Q 4.046875 11.328125 4.046875 20.703125 
Q 4.046875 27.6875 7.59375 32.390625 
Q 11.140625 37.109375 17.671875 38.8125 
z
M 15.921875 53.71875 
Q 15.921875 48.640625 19.1875 45.40625 
Q 22.46875 42.1875 27.6875 42.1875 
Q 32.765625 42.1875 36.015625 45.375 
Q 39.265625 48.578125 39.265625 53.21875 
Q 39.265625 58.0625 35.90625 61.359375 
Q 32.5625 64.65625 27.59375 64.65625 
Q 22.5625 64.65625 19.234375 61.421875 
Q 15.921875 58.203125 15.921875 53.71875 
z
M 13.09375 20.65625 
Q 13.09375 16.890625 14.875 13.375 
Q 16.65625 9.859375 20.171875 7.921875 
Q 23.6875 6 27.734375 6 
Q 34.03125 6 38.125 10.046875 
Q 42.234375 14.109375 42.234375 20.359375 
Q 42.234375 26.703125 38.015625 30.859375 
Q 33.796875 35.015625 27.4375 35.015625 
Q 21.234375 35.015625 17.15625 30.90625 
Q 13.09375 26.8125 13.09375 20.65625 
z
" id="ArialMT-56"/>
       </defs>
       <use xlink:href="#ArialMT-56"/>
       <use x="55.615234" xlink:href="#ArialMT-48"/>
      </g>
     </g>
    </g>
    <g id="ytick_5">
     <g id="line2d_11">
      <path clip-path="url(#p0e47e02734)" d="M 225 179.738151 
L 1620 179.738151 
" style="fill:none;stroke:#ffffff;stroke-linecap:round;"/>
     </g>
     <g id="text_12">
      <!-- 100 -->
      <g style="fill:#262626;" transform="translate(187.973359 185.643346)scale(0.165 -0.165)">
       <use xlink:href="#ArialMT-49"/>
       <use x="55.615234" xlink:href="#ArialMT-48"/>
       <use x="111.230469" xlink:href="#ArialMT-48"/>
      </g>
     </g>
    </g>
    <g id="ytick_6">
     <g id="line2d_12">
      <path clip-path="url(#p0e47e02734)" d="M 225 112.463629 
L 1620 112.463629 
" style="fill:none;stroke:#ffffff;stroke-linecap:round;"/>
     </g>
     <g id="text_13">
      <!-- 120 -->
      <g style="fill:#262626;" transform="translate(187.973359 118.368824)scale(0.165 -0.165)">
       <use xlink:href="#ArialMT-49"/>
       <use x="55.615234" xlink:href="#ArialMT-50"/>
       <use x="111.230469" xlink:href="#ArialMT-48"/>
      </g>
     </g>
    </g>
    <g id="text_14">
     <!-- Time (s) -->
     <g style="fill:#262626;" transform="translate(180.184922 319.214531)rotate(-90)scale(0.18 -0.18)">
      <defs>
       <path d="M 6.59375 0 
L 6.59375 51.859375 
L 14.453125 51.859375 
L 14.453125 44.578125 
Q 16.890625 48.390625 20.9375 50.703125 
Q 25 53.03125 30.171875 53.03125 
Q 35.9375 53.03125 39.625 50.640625 
Q 43.3125 48.25 44.828125 43.953125 
Q 50.984375 53.03125 60.84375 53.03125 
Q 68.5625 53.03125 72.703125 48.75 
Q 76.859375 44.484375 76.859375 35.59375 
L 76.859375 0 
L 68.109375 0 
L 68.109375 32.671875 
Q 68.109375 37.9375 67.25 40.25 
Q 66.40625 42.578125 64.15625 43.984375 
Q 61.921875 45.40625 58.890625 45.40625 
Q 53.421875 45.40625 49.796875 41.765625 
Q 46.1875 38.140625 46.1875 30.125 
L 46.1875 0 
L 37.40625 0 
L 37.40625 33.6875 
Q 37.40625 39.546875 35.25 42.46875 
Q 33.109375 45.40625 28.21875 45.40625 
Q 24.515625 45.40625 21.359375 43.453125 
Q 18.21875 41.5 16.796875 37.734375 
Q 15.375 33.984375 15.375 26.90625 
L 15.375 0 
z
" id="ArialMT-109"/>
       <path d="M 42.09375 16.703125 
L 51.171875 15.578125 
Q 49.03125 7.625 43.21875 3.21875 
Q 37.40625 -1.171875 28.375 -1.171875 
Q 17 -1.171875 10.328125 5.828125 
Q 3.65625 12.84375 3.65625 25.484375 
Q 3.65625 38.578125 10.390625 45.796875 
Q 17.140625 53.03125 27.875 53.03125 
Q 38.28125 53.03125 44.875 45.953125 
Q 51.46875 38.875 51.46875 26.03125 
Q 51.46875 25.25 51.421875 23.6875 
L 12.75 23.6875 
Q 13.234375 15.140625 17.578125 10.59375 
Q 21.921875 6.0625 28.421875 6.0625 
Q 33.25 6.0625 36.671875 8.59375 
Q 40.09375 11.140625 42.09375 16.703125 
z
M 13.234375 30.90625 
L 42.1875 30.90625 
Q 41.609375 37.453125 38.875 40.71875 
Q 34.671875 45.796875 27.984375 45.796875 
Q 21.921875 45.796875 17.796875 41.75 
Q 13.671875 37.703125 13.234375 30.90625 
z
" id="ArialMT-101"/>
       <path id="ArialMT-32"/>
       <path d="M 23.390625 -21.046875 
Q 16.109375 -11.859375 11.078125 0.4375 
Q 6.0625 12.75 6.0625 25.921875 
Q 6.0625 37.546875 9.8125 48.1875 
Q 14.203125 60.546875 23.390625 72.796875 
L 29.6875 72.796875 
Q 23.78125 62.640625 21.875 58.296875 
Q 18.890625 51.5625 17.1875 44.234375 
Q 15.09375 35.109375 15.09375 25.875 
Q 15.09375 2.390625 29.6875 -21.046875 
z
" id="ArialMT-40"/>
       <path d="M 3.078125 15.484375 
L 11.765625 16.84375 
Q 12.5 11.625 15.84375 8.84375 
Q 19.1875 6.0625 25.203125 6.0625 
Q 31.25 6.0625 34.171875 8.515625 
Q 37.109375 10.984375 37.109375 14.3125 
Q 37.109375 17.28125 34.515625 19 
Q 32.71875 20.171875 25.53125 21.96875 
Q 15.875 24.421875 12.140625 26.203125 
Q 8.40625 27.984375 6.46875 31.125 
Q 4.546875 34.28125 4.546875 38.09375 
Q 4.546875 41.546875 6.125 44.5 
Q 7.71875 47.46875 10.453125 49.421875 
Q 12.5 50.921875 16.03125 51.96875 
Q 19.578125 53.03125 23.640625 53.03125 
Q 29.734375 53.03125 34.34375 51.265625 
Q 38.96875 49.515625 41.15625 46.5 
Q 43.359375 43.5 44.1875 38.484375 
L 35.59375 37.3125 
Q 35.015625 41.3125 32.203125 43.546875 
Q 29.390625 45.796875 24.265625 45.796875 
Q 18.21875 45.796875 15.625 43.796875 
Q 13.03125 41.796875 13.03125 39.109375 
Q 13.03125 37.40625 14.109375 36.03125 
Q 15.1875 34.625 17.484375 33.6875 
Q 18.796875 33.203125 25.25 31.453125 
Q 34.578125 28.953125 38.25 27.359375 
Q 41.9375 25.78125 44.03125 22.75 
Q 46.140625 19.734375 46.140625 15.234375 
Q 46.140625 10.84375 43.578125 6.953125 
Q 41.015625 3.078125 36.171875 0.953125 
Q 31.34375 -1.171875 25.25 -1.171875 
Q 15.140625 -1.171875 9.84375 3.03125 
Q 4.546875 7.234375 3.078125 15.484375 
z
" id="ArialMT-115"/>
       <path d="M 12.359375 -21.046875 
L 6.0625 -21.046875 
Q 20.65625 2.390625 20.65625 25.875 
Q 20.65625 35.0625 18.5625 44.09375 
Q 16.890625 51.421875 13.921875 58.15625 
Q 12.015625 62.546875 6.0625 72.796875 
L 12.359375 72.796875 
Q 21.53125 60.546875 25.921875 48.1875 
Q 29.6875 37.546875 29.6875 25.921875 
Q 29.6875 12.75 24.625 0.4375 
Q 19.578125 -11.859375 12.359375 -21.046875 
z
" id="ArialMT-41"/>
      </defs>
      <use xlink:href="#ArialMT-84"/>
      <use x="57.333984" xlink:href="#ArialMT-105"/>
      <use x="79.550781" xlink:href="#ArialMT-109"/>
      <use x="162.851562" xlink:href="#ArialMT-101"/>
      <use x="218.466797" xlink:href="#ArialMT-32"/>
      <use x="246.25" xlink:href="#ArialMT-40"/>
      <use x="279.550781" xlink:href="#ArialMT-115"/>
      <use x="329.550781" xlink:href="#ArialMT-41"/>
     </g>
    </g>
   </g>
   <g id="line2d_13">
    <path clip-path="url(#p0e47e02734)" d="M 288.409091 270.481389 
L 290.930327 399.231369 
L 293.451563 332.740595 
L 295.9728 339.067764 
L 298.494036 347.762996 
L 301.015272 293.391728 
L 303.536508 419.692915 
L 306.057744 332.326857 
L 308.578981 399.022818 
L 311.100217 381.51126 
L 313.621453 328.75458 
L 316.142689 408.044331 
L 318.663926 432.367435 
L 321.185162 381.935089 
L 323.706398 378.386358 
L 326.227634 432.051244 
L 328.74887 387.905703 
L 331.270107 380.027857 
L 333.791343 398.010336 
L 336.312579 386.701489 
L 338.833815 443.669554 
L 404.385957 400.449038 
L 406.907193 431.906604 
L 409.428429 400.536495 
L 411.949666 387.286778 
L 414.470902 418.996624 
L 416.992138 418.788073 
L 419.513374 428.04841 
L 422.034611 355.200195 
L 424.555847 425.259882 
L 427.077083 407.792052 
L 429.598319 387.99316 
L 432.119555 418.068235 
L 434.640792 387.892248 
L 437.162028 413.436384 
L 439.683264 420.887038 
L 442.2045 443.053993 
L 444.725736 394.38424 
L 447.246973 418.609795 
L 449.768209 421.428597 
L 452.289445 358.180456 
L 454.810681 420.120108 
L 462.37439 426.292545 
L 464.895626 401.078055 
L 467.416862 408.942446 
L 469.938099 409.961655 
L 472.459335 440.537925 
L 474.980571 444.732492 
L 477.501807 432.882085 
L 480.023044 435.875801 
L 482.54428 406.335559 
L 485.065516 429.703364 
L 487.586752 448.358589 
L 490.107988 425.280064 
L 492.629225 410.102932 
L 497.671697 446.949187 
L 500.192933 215.777112 
L 502.71417 456.438259 
L 505.235406 438.085769 
L 507.756642 400.775319 
L 510.277878 404.808427 
L 512.799114 287.693576 
L 520.362823 410.863134 
L 522.884059 418.983169 
L 525.405295 429.299717 
L 527.926532 409.840561 
L 530.447768 401.18233 
L 532.969004 431.455865 
L 535.49024 345.734669 
L 538.011477 421.71115 
L 540.532713 393.610583 
L 543.053949 432.041153 
L 545.575185 401.989624 
L 548.096421 435.606703 
L 550.617658 423.174371 
L 553.138894 369.055382 
L 555.66013 447.507566 
L 558.181366 252.367724 
L 560.702603 443.666191 
L 563.223839 371.494084 
L 565.745075 356.088218 
L 568.266311 424.56359 
L 570.787547 435.717706 
L 578.351256 382.557379 
L 580.872492 421.875973 
L 583.393729 387.340597 
L 585.914965 402.329361 
L 588.436201 406.503745 
L 590.957437 419.265722 
L 593.478673 373.475318 
L 595.99991 397.240043 
L 598.521146 407.731505 
L 601.042382 390.630321 
L 603.563618 418.350788 
L 606.084855 378.564636 
L 608.606091 404.552784 
L 611.127327 432.586077 
L 613.648563 405.400443 
L 616.169799 309.073419 
L 618.691036 410.708402 
L 621.212272 409.732922 
L 623.733508 373.394589 
L 626.254744 403.288023 
L 628.77598 414.112493 
L 636.339689 395.171352 
L 638.860925 385.648643 
L 641.382162 422.013886 
L 643.903398 407.808871 
L 646.424634 257.117306 
L 648.94587 407.210127 
L 651.467106 439.219345 
L 653.988343 403.644578 
L 656.509579 366.165942 
L 659.030815 415.158612 
L 661.552051 414.704509 
L 664.073288 375.692014 
L 666.594524 414.771784 
L 669.11576 380.549234 
L 671.636996 381.48435 
L 674.158232 302.228236 
L 676.679469 397.677328 
L 679.200705 392.594737 
L 681.721941 427.200751 
L 684.243177 351.903743 
L 686.764414 410.974137 
L 694.328122 402.504275 
L 696.849358 407.240401 
L 699.370595 420.769307 
L 701.891831 327.324996 
L 704.413067 411.680519 
L 706.934303 364.12416 
L 709.455539 384.370427 
L 711.976776 408.202427 
L 714.498012 377.740523 
L 717.019248 398.777266 
L 719.540484 416.235004 
L 722.061721 408.848262 
L 724.582957 415.962543 
L 727.104193 407.946783 
L 729.625429 386.284387 
L 732.146665 437.524027 
L 734.667902 410.351847 
L 737.189138 422.763997 
L 739.710374 403.654669 
L 742.23161 427.698583 
L 744.752847 427.802858 
L 752.316555 394.2396 
L 754.837791 417.028844 
L 757.359028 365.045821 
L 759.880264 369.385027 
L 762.4015 374.877992 
L 764.922736 417.398854 
L 767.443973 405.477808 
L 769.965209 374.642531 
L 772.486445 364.278891 
L 775.007681 400.819048 
L 777.528917 441.055939 
L 780.050154 360.003595 
L 782.57139 393.082478 
L 785.092626 360.481245 
L 787.613862 412.006801 
L 790.135098 356.794601 
L 792.656335 418.111964 
L 795.177571 271.625056 
L 797.698807 360.087689 
L 800.220043 380.703966 
L 802.74128 427.086385 
L 810.304988 433.928204 
L 812.826224 443.52155 
L 815.347461 394.091596 
L 817.868697 424.967237 
L 820.389933 284.662858 
L 822.911169 419.53482 
L 825.432406 444.332208 
L 827.953642 443.767102 
L 830.474878 419.285904 
L 832.996114 426.746648 
L 835.51735 367.41052 
L 838.038587 391.800898 
L 840.559823 358.035816 
L 843.081059 430.130557 
L 845.602295 415.760719 
L 848.123532 346.245956 
L 850.644768 420.634758 
L 853.166004 342.912503 
L 855.68724 439.545626 
L 858.208476 328.633486 
L 860.729713 363.138588 
L 868.293421 400.085755 
L 870.814658 379.937036 
L 873.335894 332.081305 
L 875.85713 304.589572 
L 878.378366 410.597399 
L 880.899602 432.229522 
L 883.420839 433.820564 
L 885.942075 301.427669 
L 888.463311 416.779928 
L 890.984547 380.290227 
L 893.505783 422.282984 
L 896.02702 393.227118 
L 898.548256 403.577303 
L 901.069492 414.990426 
L 903.590728 436.935375 
L 906.111965 429.202168 
L 908.633201 413.150468 
L 911.154437 407.438861 
L 913.675673 425.841806 
L 916.196909 414.896241 
L 918.718146 423.456924 
L 926.281854 372.842938 
L 928.803091 372.543566 
L 931.324327 397.515869 
L 933.845563 402.369725 
L 936.366799 427.997955 
L 938.888035 423.339194 
L 941.409272 427.61449 
L 943.930508 368.217815 
L 946.451744 441.399039 
L 948.97298 440.685929 
L 951.494217 353.471239 
L 954.015453 389.190647 
L 956.536689 412.548361 
L 959.057925 371.023162 
L 961.579161 399.651835 
L 964.100398 400.620588 
L 966.621634 415.696808 
L 969.14287 405.101071 
L 971.664106 379.782305 
L 974.185342 395.107441 
L 976.706579 382.641472 
L 984.270287 374.743443 
L 986.791524 333.063513 
L 989.31276 316.355886 
L 991.833996 393.035386 
L 994.355232 349.784596 
L 996.876468 407.17649 
L 999.397705 433.32946 
L 1001.918941 378.746277 
L 1004.440177 347.046523 
L 1006.961413 396.967581 
L 1009.48265 362.916582 
L 1012.003886 413.6853 
L 1014.525122 369.055382 
L 1017.046358 432.438073 
L 1019.567594 433.369825 
L 1022.088831 342.720771 
L 1024.610067 163.161708 
L 1027.131303 409.820379 
L 1029.652539 413.463294 
L 1032.173776 424.496316 
L 1034.695012 380.845242 
L 1042.25872 419.716461 
L 1044.779957 430.914305 
L 1047.301193 439.905545 
L 1049.822429 390.280494 
L 1052.343665 422.276256 
L 1054.864902 393.381849 
L 1057.386138 407.213491 
L 1059.907374 332.696867 
L 1062.42861 392.187727 
L 1064.949846 223.301767 
L 1067.471083 402.911285 
L 1069.992319 293.738191 
L 1072.513555 428.139231 
L 1075.034791 422.393987 
L 1077.556027 453.283084 
L 1080.077264 273.313647 
L 1082.5985 334.563735 
L 1085.119736 314.068552 
L 1087.640972 446.108256 
L 1090.162209 402.46391 
L 1092.683445 439.791178 
L 1100.247153 368.436457 
L 1102.76839 255.014977 
L 1105.289626 321.973308 
L 1107.810862 403.483119 
L 1110.332098 384.740437 
L 1112.853335 333.783351 
L 1115.374571 382.900479 
L 1117.895807 413.813122 
L 1120.417043 414.125948 
L 1122.938279 381.544897 
L 1125.459516 419.716461 
L 1127.980752 387.118591 
L 1130.501988 386.607305 
L 1133.023224 409.470551 
L 1135.544461 413.029373 
L 1138.065697 418.93944 
L 1140.586933 336.185051 
L 1143.108169 411.946254 
L 1145.629405 387.545785 
L 1148.150642 407.788688 
L 1150.671878 401.01078 
L 1158.235586 422.235892 
L 1160.756823 386.809129 
L 1163.278059 412.743457 
L 1165.799295 341.900022 
L 1168.320531 352.354482 
L 1170.841768 426.955199 
L 1173.363004 373.263404 
L 1175.88424 416.719381 
L 1178.405476 411.841978 
L 1180.926712 427.177205 
L 1183.447949 364.49417 
L 1185.969185 347.985002 
L 1188.490421 340.843812 
L 1191.011657 436.619185 
L 1193.532894 236.161292 
L 1196.05413 430.184376 
L 1198.575366 359.011296 
L 1201.096602 368.974653 
L 1203.617838 431.533231 
L 1206.139075 364.971819 
L 1208.660311 438.290956 
L 1216.22402 435.882528 
L 1218.745256 418.239785 
L 1221.266492 413.503659 
L 1223.787728 442.687346 
L 1226.308964 408.80117 
L 1228.830201 441.738776 
L 1231.351437 429.128167 
L 1233.872673 434.442854 
L 1236.393909 437.971402 
L 1238.915145 445.761792 
L 1241.436382 415.595896 
L 1243.957618 446.363899 
L 1246.478854 422.353622 
L 1249.00009 452.062051 
L 1251.521327 438.694603 
L 1254.042563 423.238282 
L 1256.563799 445.546514 
L 1259.085035 415.975998 
L 1261.606271 441.466314 
L 1264.127508 446.481629 
L 1266.648744 412.158168 
L 1274.212453 273.85857 
L 1276.733689 267.834137 
L 1279.254925 324.768565 
L 1281.776161 333.298974 
L 1284.297397 327.062626 
L 1286.818634 358.119909 
L 1289.33987 349.861961 
L 1291.861106 384.017236 
L 1294.382342 376.8895 
L 1296.903579 343.958622 
L 1299.424815 359.825318 
L 1301.946051 319.712884 
L 1304.467287 380.011038 
L 1306.988523 346.437688 
L 1309.50976 265.240704 
L 1312.030996 345.361296 
L 1314.552232 363.168862 
L 1317.073468 353.060865 
L 1319.594705 337.042801 
L 1322.115941 354.853731 
L 1324.637177 390.344405 
L 1332.200886 309.806711 
L 1334.722122 383.159486 
L 1337.243358 342.081663 
L 1339.764594 356.407772 
L 1342.28583 328.374479 
L 1344.807067 395.033439 
L 1347.328303 373.152401 
L 1349.849539 391.814353 
L 1352.370775 432.024335 
L 1354.892012 317.193453 
L 1357.413248 325.966051 
L 1359.934484 337.456539 
L 1362.45572 353.844613 
L 1364.976956 181.372922 
L 1367.498193 390.5025 
L 1370.019429 335.878952 
L 1372.540665 329.575329 
L 1375.061901 319.137687 
L 1377.583138 335.892407 
L 1380.104374 297.552657 
L 1382.62561 386.355026 
L 1390.189319 404.327414 
L 1392.710555 442.969899 
L 1395.231791 393.166571 
L 1397.753027 446.101528 
L 1400.274264 436.383724 
L 1402.7955 366.546043 
L 1405.316736 431.143038 
L 1407.837972 350.840806 
L 1410.359208 434.281395 
L 1412.880445 409.362912 
L 1415.401681 308.219032 
L 1417.922917 356.915695 
L 1420.444153 328.075107 
L 1422.965389 413.759302 
L 1425.486626 247.429774 
L 1428.007862 311.542394 
L 1430.529098 441.035757 
L 1433.050334 286.025168 
L 1435.571571 392.796561 
L 1438.092807 424.072486 
L 1440.614043 305.642418 
L 1448.177752 421.822153 
L 1450.698988 389.631295 
L 1453.220224 437.678758 
L 1455.74146 419.659278 
L 1458.262697 426.743285 
L 1460.783933 449.946267 
L 1463.305169 445.374964 
L 1465.826405 432.20934 
L 1468.347641 420.113381 
L 1470.868878 428.623608 
L 1473.390114 414.775147 
L 1475.91135 409.611828 
L 1478.432586 441.308219 
L 1480.953823 429.397265 
L 1483.475059 424.435769 
L 1485.996295 408.861717 
L 1488.517531 424.550135 
L 1491.038767 439.185708 
L 1493.560004 428.875887 
L 1496.08124 414.307589 
L 1498.602476 427.829768 
L 1506.166185 484.232727 
L 1508.687421 457.491105 
L 1511.208657 301.666494 
L 1513.729893 475.056483 
L 1516.25113 402.336088 
L 1518.772366 437.968039 
L 1521.293602 396.927217 
L 1523.814838 465.564047 
L 1526.336074 393.079114 
L 1528.857311 376.512763 
L 1531.378547 441.045848 
L 1533.899783 437.994948 
L 1536.421019 421.690968 
L 1538.942256 363.138588 
L 1541.463492 373.165856 
L 1543.984728 405.77718 
L 1546.505964 399.436556 
L 1549.0272 417.930322 
L 1551.548437 332.024122 
L 1554.069673 398.935361 
L 1556.590909 427.140204 
L 1556.590909 427.140204 
" style="fill:none;stroke:#4c72b0;stroke-linecap:round;stroke-width:1.5;"/>
   </g>
   <g id="line2d_14">
    <path clip-path="url(#p0e47e02734)" d="M 288.409091 417.049026 
L 290.930327 435.929621 
L 293.451563 436.55191 
L 295.9728 427.079657 
L 298.494036 383.216669 
L 301.015272 417.876503 
L 303.536508 364.447078 
L 306.057744 406.826663 
L 308.578981 422.811089 
L 311.100217 423.800024 
L 313.621453 441.678229 
L 316.142689 365.479741 
L 318.663926 412.16826 
L 321.185162 412.74682 
L 323.706398 436.245811 
L 326.227634 401.86853 
L 328.74887 408.387431 
L 331.270107 436.020441 
L 333.791343 331.785297 
L 336.312579 447.62866 
L 338.833815 367.494613 
L 404.385957 426.063812 
L 406.907193 449.350888 
L 409.428429 379.762122 
L 411.949666 281.262131 
L 414.470902 224.845717 
L 416.992138 404.8387 
L 419.513374 375.991385 
L 422.034611 414.495958 
L 424.555847 406.809844 
L 427.077083 435.89262 
L 429.598319 359.47549 
L 432.119555 352.758129 
L 434.640792 388.289168 
L 437.162028 440.558108 
L 439.683264 393.983956 
L 442.2045 397.435139 
L 444.725736 444.608034 
L 447.246973 336.000046 
L 449.768209 429.800912 
L 452.289445 432.831629 
L 454.810681 439.481715 
L 462.37439 436.55191 
L 464.895626 425.148879 
L 467.416862 447.342743 
L 469.938099 428.61688 
L 472.459335 444.184204 
L 474.980571 361.375996 
L 477.501807 421.206592 
L 480.023044 355.597114 
L 482.54428 402.406726 
L 487.586752 364.484079 
L 490.107988 367.417248 
L 492.629225 427.466486 
L 495.150461 442.034784 
L 497.671697 436.8681 
L 500.192933 444.238024 
L 502.71417 392.302093 
L 505.235406 390.351132 
L 507.756642 437.587938 
L 510.277878 429.155076 
L 512.799114 401.131874 
L 520.362823 391.969084 
L 522.884059 426.252181 
L 525.405295 431.980606 
L 527.926532 413.281653 
L 530.447768 428.240143 
L 532.969004 381.578535 
L 535.49024 426.861015 
L 538.011477 362.344749 
L 540.532713 401.387517 
L 543.053949 406.268284 
L 545.575185 425.616436 
L 548.096421 386.546758 
L 550.617658 409.860743 
L 553.138894 421.492508 
L 555.66013 407.751687 
L 558.181366 430.968125 
L 560.702603 434.079571 
L 563.223839 402.295724 
L 565.745075 414.573324 
L 568.266311 431.798965 
L 570.787547 413.133649 
L 578.351256 385.100356 
L 580.872492 284.033842 
L 583.393729 380.636691 
L 585.914965 377.679976 
L 588.436201 389.584203 
L 590.957437 413.470022 
L 593.478673 404.004496 
L 595.99991 396.594208 
L 598.521146 397.330864 
L 601.042382 426.790377 
L 603.563618 375.194182 
L 606.084855 361.409633 
L 608.606091 383.344491 
L 611.127327 383.031664 
L 613.648563 351.974381 
L 616.169799 394.390967 
L 618.691036 398.400529 
L 621.212272 343.850983 
L 623.733508 374.346523 
L 626.254744 422.837999 
L 628.77598 296.651178 
L 636.339689 382.927389 
L 638.860925 181.27201 
L 641.382162 380.976428 
L 643.903398 369.916496 
L 646.424634 324.539831 
L 648.94587 390.240129 
L 651.467106 281.487501 
L 653.988343 269.455453 
L 656.509579 369.146203 
L 659.030815 406.507109 
L 661.552051 344.903829 
L 664.073288 396.883488 
L 666.594524 415.118247 
L 669.11576 303.910099 
L 671.636996 441.072758 
L 674.158232 371.891003 
L 676.679469 311.93595 
L 679.200705 268.537156 
L 681.721941 280.777755 
L 684.243177 399.799839 
L 686.764414 409.258637 
L 694.328122 397.929607 
L 696.849358 401.424518 
L 699.370595 379.294565 
L 701.891831 411.017865 
L 704.413067 405.312986 
L 706.934303 441.506679 
L 709.455539 445.008317 
L 711.976776 420.052834 
L 714.498012 443.047265 
L 717.019248 435.260239 
L 719.540484 433.06709 
L 722.061721 417.25085 
L 724.582957 433.7802 
L 727.104193 427.678401 
L 729.625429 417.772227 
L 732.146665 441.553771 
L 734.667902 363.064586 
L 737.189138 369.193295 
L 739.710374 395.225171 
L 742.23161 418.552612 
L 744.752847 416.642015 
L 752.316555 409.436914 
L 754.837791 364.309165 
L 757.359028 415.646352 
L 759.880264 422.020613 
L 762.4015 435.751343 
L 764.922736 401.649888 
L 767.443973 405.491263 
L 769.965209 381.255617 
L 772.486445 413.54066 
L 775.007681 377.895254 
L 777.528917 427.180569 
L 780.050154 365.042457 
L 782.57139 432.834993 
L 785.092626 452.203327 
L 787.613862 401.7508 
L 790.135098 421.095589 
L 792.656335 386.526576 
L 795.177571 424.429041 
L 797.698807 404.32405 
L 800.220043 429.639453 
L 802.74128 343.110963 
L 810.304988 285.012686 
L 812.826224 318.07475 
L 815.347461 267.319487 
L 817.868697 300.781834 
L 820.389933 268.779344 
L 822.911169 332.75405 
L 825.432406 223.173946 
L 827.953642 368.752647 
L 830.474878 213.920335 
L 832.996114 347.715904 
L 835.51735 331.337922 
L 838.038587 299.268157 
L 840.559823 339.306589 
L 843.081059 388.487628 
L 845.602295 378.265264 
L 848.123532 408.437887 
L 850.644768 354.436629 
L 853.166004 392.682194 
L 855.68724 368.772829 
L 858.208476 170.373537 
L 860.729713 393.920046 
L 868.293421 347.810088 
L 870.814658 417.91014 
L 873.335894 437.03965 
L 875.85713 403.920403 
L 878.378366 420.641486 
L 880.899602 380.609781 
L 883.420839 440.601836 
L 885.942075 367.235606 
L 888.463311 431.402045 
L 890.984547 295.093773 
L 893.505783 409.211544 
L 896.02702 412.396993 
L 898.548256 345.99704 
L 901.069492 371.393172 
L 903.590728 406.560928 
L 906.111965 421.62033 
L 908.633201 417.31476 
L 911.154437 408.619529 
L 913.675673 383.512677 
L 916.196909 370.986161 
L 918.718146 390.606775 
L 926.281854 402.689279 
L 928.803091 423.843753 
L 931.324327 323.594624 
L 933.845563 424.36513 
L 936.366799 353.703336 
L 938.888035 393.348212 
L 941.409272 395.58509 
L 943.930508 390.489045 
L 946.451744 402.137628 
L 948.97298 415.999544 
L 951.494217 441.493224 
L 954.015453 404.966522 
L 956.536689 379.240745 
L 959.057925 411.118777 
L 961.579161 369.237024 
L 964.100398 451.792953 
L 966.621634 420.184019 
L 969.14287 401.939169 
L 971.664106 308.737046 
L 974.185342 348.782205 
L 976.706579 331.603656 
L 984.270287 348.210372 
L 986.791524 437.063196 
L 989.31276 425.724076 
L 991.833996 408.565709 
L 994.355232 376.734769 
L 996.876468 318.27321 
L 999.397705 380.488687 
L 1001.918941 379.042285 
L 1004.440177 341.11291 
L 1006.961413 443.467731 
L 1009.48265 427.09984 
L 1012.003886 374.033697 
L 1014.525122 263.427656 
L 1017.046358 300.828926 
L 1019.567594 440.864207 
L 1022.088831 411.899161 
L 1024.610067 327.506638 
L 1027.131303 296.711725 
L 1029.652539 296.086072 
L 1032.173776 393.008476 
L 1034.695012 352.980135 
L 1042.25872 377.636248 
L 1044.779957 464.147919 
L 1047.301193 421.838972 
L 1049.822429 418.340697 
L 1052.343665 445.553241 
L 1054.864902 318.575945 
L 1057.386138 388.346351 
L 1059.907374 382.577561 
L 1062.42861 358.476464 
L 1064.949846 455.540144 
L 1067.471083 326.420154 
L 1069.992319 415.118247 
L 1072.513555 411.838614 
L 1075.034791 454.504116 
L 1077.556027 358.321732 
L 1080.077264 353.346781 
L 1082.5985 396.375566 
L 1085.119736 459.892805 
L 1087.640972 416.894295 
L 1090.162209 385.917741 
L 1092.683445 430.732664 
L 1100.247153 338.990399 
L 1102.76839 409.272091 
L 1105.289626 386.092655 
L 1107.810862 351.015719 
L 1110.332098 379.57039 
L 1112.853335 391.434252 
L 1115.374571 395.719639 
L 1117.895807 419.366633 
L 1120.417043 360.353423 
L 1122.938279 239.659567 
L 1125.459516 454.039922 
L 1127.980752 421.569874 
L 1130.501988 404.347596 
L 1133.023224 383.812049 
L 1135.544461 424.647683 
L 1138.065697 390.092125 
L 1140.586933 398.87145 
L 1143.108169 420.594393 
L 1145.629405 379.456023 
L 1148.150642 432.67017 
L 1150.671878 425.031148 
L 1158.235586 359.223211 
L 1160.756823 405.871364 
L 1163.278059 415.891904 
L 1165.799295 392.75956 
L 1168.320531 409.628646 
L 1170.841768 355.479384 
L 1173.363004 437.419751 
L 1175.88424 430.33238 
L 1178.405476 402.665733 
L 1180.926712 317.499553 
L 1183.447949 318.454851 
L 1185.969185 325.851684 
L 1188.490421 402.992015 
L 1191.011657 395.019984 
L 1193.532894 376.664131 
L 1196.05413 422.908637 
L 1198.575366 372.039007 
L 1201.096602 305.813968 
L 1203.617838 425.269973 
L 1206.139075 423.860571 
L 1208.660311 422.145071 
L 1216.22402 412.380174 
L 1218.745256 339.43441 
L 1221.266492 391.488072 
L 1223.787728 404.290413 
L 1226.308964 311.084927 
L 1228.830201 409.305729 
L 1231.351437 424.358403 
L 1233.872673 412.497905 
L 1236.393909 389.02246 
L 1238.915145 407.300948 
L 1241.436382 355.425564 
L 1243.957618 433.995478 
L 1246.478854 333.611801 
L 1249.00009 425.350702 
L 1251.521327 409.823742 
L 1254.042563 450.060634 
L 1256.563799 434.456309 
L 1259.085035 436.60573 
L 1261.606271 251.809346 
L 1264.127508 415.494985 
L 1266.648744 424.318038 
L 1274.212453 320.012256 
L 1276.733689 392.281911 
L 1279.254925 395.797005 
L 1281.776161 369.085656 
L 1284.297397 384.16524 
L 1286.818634 361.75946 
L 1289.33987 397.791694 
L 1291.861106 384.972534 
L 1294.382342 415.918814 
L 1296.903579 291.709865 
L 1299.424815 321.330837 
L 1301.946051 412.161532 
L 1304.467287 382.496832 
L 1306.988523 405.413898 
L 1309.50976 330.318713 
L 1312.030996 386.119565 
L 1314.552232 385.396364 
L 1317.073468 367.709892 
L 1319.594705 381.914907 
L 1322.115941 373.219675 
L 1324.637177 345.785125 
L 1332.200886 327.008806 
L 1334.722122 382.644836 
L 1337.243358 323.032882 
L 1339.764594 412.296081 
L 1342.28583 272.328075 
L 1344.807067 394.932527 
L 1347.328303 386.435755 
L 1349.849539 374.689623 
L 1352.370775 382.305099 
L 1354.892012 293.724737 
L 1357.413248 337.715546 
L 1359.934484 355.291015 
L 1362.45572 344.829827 
L 1364.976956 324.52974 
L 1367.498193 425.865352 
L 1370.019429 400.936778 
L 1372.540665 303.257536 
L 1375.061901 398.430802 
L 1377.583138 296.651178 
L 1380.104374 361.924283 
L 1382.62561 369.60367 
L 1390.189319 442.475432 
L 1392.710555 406.893937 
L 1395.231791 418.128782 
L 1397.753027 299.335432 
L 1400.274264 430.651934 
L 1402.7955 437.530754 
L 1405.316736 439.293347 
L 1407.837972 345.70776 
L 1410.359208 404.529238 
L 1412.880445 343.672705 
L 1415.401681 239.62593 
L 1417.922917 368.89056 
L 1420.444153 371.224986 
L 1422.965389 362.997312 
L 1425.486626 309.440065 
L 1428.007862 403.708488 
L 1430.529098 323.338981 
L 1433.050334 439.000703 
L 1435.571571 428.034956 
L 1438.092807 324.607106 
L 1440.614043 363.976156 
L 1448.177752 416.578104 
L 1450.698988 435.028142 
L 1453.220224 438.405323 
L 1455.74146 379.244109 
L 1458.262697 361.524 
L 1460.783933 391.834535 
L 1463.305169 432.168975 
L 1465.826405 444.28848 
L 1468.347641 441.348583 
L 1470.868878 421.859154 
L 1473.390114 354.847003 
L 1475.91135 410.22739 
L 1478.432586 414.522868 
L 1480.953823 445.015045 
L 1483.475059 420.850037 
L 1485.996295 428.421784 
L 1488.517531 443.35 
L 1491.038767 429.397265 
L 1493.560004 429.683181 
L 1496.08124 427.940771 
L 1498.602476 446.42781 
L 1506.166185 351.705283 
L 1508.687421 444.443211 
L 1511.208657 445.492694 
L 1513.729893 403.402389 
L 1516.25113 431.132947 
L 1518.772366 426.692829 
L 1521.293602 428.297326 
L 1523.814838 422.629448 
L 1526.336074 385.924469 
L 1528.857311 482.177491 
L 1531.378547 383.038392 
L 1533.899783 418.37097 
L 1536.421019 372.765572 
L 1538.942256 396.436113 
L 1541.463492 367.205333 
L 1543.984728 441.156851 
L 1546.505964 390.27713 
L 1549.0272 420.449753 
L 1551.548437 433.564921 
L 1554.069673 448.08949 
L 1556.590909 448.355225 
L 1556.590909 448.355225 
" style="fill:none;stroke:#dd8452;stroke-linecap:round;stroke-width:1.5;"/>
   </g>
   <g id="line2d_15">
    <path clip-path="url(#p0e47e02734)" d="M 288.409091 362.916582 
L 290.930327 440.474015 
L 293.451563 448.708416 
L 295.9728 402.019898 
L 298.494036 439.330348 
L 301.015272 444.941043 
L 303.536508 444.365846 
L 306.057744 449.05488 
L 308.578981 423.359376 
L 311.100217 438.166499 
L 313.621453 435.842164 
L 316.142689 400.119393 
L 318.663926 457.097549 
L 321.185162 449.784808 
L 323.706398 448.244222 
L 326.227634 441.536952 
L 328.74887 442.209697 
L 331.270107 434.066116 
L 333.791343 347.746178 
L 336.312579 429.790821 
L 338.833815 447.928032 
L 404.385957 417.032207 
L 406.907193 426.881197 
L 409.428429 438.765242 
L 411.949666 441.843051 
L 414.470902 424.153216 
L 416.992138 453.02744 
L 419.513374 453.104806 
L 422.034611 431.674507 
L 424.555847 430.312198 
L 427.077083 450.077453 
L 429.598319 426.554916 
L 432.119555 436.797462 
L 434.640792 413.988035 
L 437.162028 448.795873 
L 439.683264 418.640069 
L 442.2045 419.208538 
L 444.725736 346.013859 
L 447.246973 421.246956 
L 449.768209 441.190488 
L 452.289445 418.377698 
L 454.810681 417.523312 
L 462.37439 365.604199 
L 464.895626 404.038134 
L 467.416862 278.315507 
L 469.938099 424.486225 
L 472.459335 406.207737 
L 474.980571 372.795846 
L 477.501807 360.699887 
L 480.023044 421.949975 
L 482.54428 413.436384 
L 485.065516 430.0431 
L 487.586752 428.875887 
L 490.107988 327.119809 
L 492.629225 380.707329 
L 495.150461 392.635102 
L 497.671697 413.927488 
L 500.192933 351.510187 
L 502.71417 408.80117 
L 505.235406 430.715845 
L 507.756642 423.302193 
L 510.277878 440.884389 
L 512.799114 436.689823 
L 520.362823 396.843124 
L 522.884059 413.850123 
L 525.405295 428.970071 
L 527.926532 433.743199 
L 530.447768 367.471067 
L 532.969004 423.197917 
L 535.49024 414.546414 
L 538.011477 421.045133 
L 540.532713 429.545269 
L 543.053949 414.805421 
L 545.575185 409.759832 
L 548.096421 422.777452 
L 550.617658 385.662098 
L 553.138894 428.240143 
L 555.66013 431.933514 
L 558.181366 419.433908 
L 560.702603 433.975296 
L 563.223839 422.003795 
L 565.745075 420.389206 
L 568.266311 432.851811 
L 570.787547 366.03812 
L 578.351256 337.591088 
L 580.872492 297.344106 
L 583.393729 356.475047 
L 585.914965 328.677214 
L 588.436201 354.813366 
L 590.957437 392.194454 
L 593.478673 352.946498 
L 595.99991 325.818047 
L 598.521146 377.979348 
L 601.042382 423.621747 
L 603.563618 403.26784 
L 606.084855 377.77416 
L 608.606091 387.414599 
L 611.127327 352.206478 
L 613.648563 305.558325 
L 616.169799 402.847375 
L 618.691036 391.612529 
L 621.212272 415.77081 
L 623.733508 411.357602 
L 626.254744 397.041583 
L 628.77598 419.497819 
L 636.339689 321.636936 
L 638.860925 361.594638 
L 641.382162 412.481086 
L 643.903398 338.926488 
L 646.424634 339.683326 
L 648.94587 424.970601 
L 651.467106 435.778253 
L 653.988343 387.512147 
L 656.509579 424.02203 
L 659.030815 422.938911 
L 661.552051 418.751072 
L 664.073288 359.848864 
L 666.594524 321.525933 
L 669.11576 418.071599 
L 671.636996 433.797018 
L 674.158232 393.5904 
L 676.679469 420.173928 
L 679.200705 444.520577 
L 681.721941 425.865352 
L 684.243177 428.606789 
L 686.764414 442.461977 
L 694.328122 383.785139 
L 696.849358 405.151527 
L 699.370595 409.194726 
L 701.891831 405.622449 
L 704.413067 426.363184 
L 706.934303 416.938023 
L 709.455539 428.704337 
L 714.498012 398.417347 
L 717.019248 397.818604 
L 719.540484 423.776478 
L 722.061721 341.651106 
L 724.582957 424.728413 
L 727.104193 343.612158 
L 729.625429 416.927932 
L 732.146665 419.400271 
L 734.667902 369.781947 
L 737.189138 427.419394 
L 739.710374 382.416102 
L 742.23161 417.297942 
L 744.752847 435.492336 
L 752.316555 437.877218 
L 754.837791 443.289453 
L 757.359028 429.377082 
L 759.880264 381.864451 
L 762.4015 441.187125 
L 764.922736 425.579435 
L 767.443973 414.358045 
L 769.965209 433.908021 
L 772.486445 428.438603 
L 775.007681 420.056197 
L 777.528917 438.449051 
L 780.050154 432.821538 
L 782.57139 432.172339 
L 785.092626 450.827563 
L 787.613862 452.337877 
L 790.135098 444.819949 
L 792.656335 451.769407 
L 795.177571 384.925442 
L 797.698807 432.771082 
L 800.220043 428.307417 
L 802.74128 435.69416 
L 810.304988 354.362627 
L 812.826224 422.686631 
L 815.347461 428.15605 
L 817.868697 428.41842 
L 820.389933 442.529251 
L 822.911169 455.940427 
L 825.432406 440.83057 
L 827.953642 447.561385 
L 830.474878 417.728499 
L 832.996114 439.215981 
L 835.51735 415.669898 
L 838.038587 416.470465 
L 840.559823 440.494197 
L 843.081059 434.459672 
L 845.602295 412.497905 
L 848.123532 438.882972 
L 850.644768 419.369997 
L 853.166004 402.877648 
L 855.68724 413.618026 
L 858.208476 363.202499 
L 860.729713 432.538985 
L 868.293421 388.484264 
L 870.814658 410.617582 
L 875.85713 412.023619 
L 878.378366 394.707157 
L 880.899602 423.342558 
L 883.420839 425.656801 
L 885.942075 416.890931 
L 888.463311 417.627587 
L 890.984547 392.95802 
L 893.505783 433.988751 
L 896.02702 425.290155 
L 901.069492 401.952623 
L 903.590728 383.078756 
L 906.111965 418.646796 
L 908.633201 435.226602 
L 911.154437 440.6052 
L 913.675673 437.100197 
L 916.196909 426.800468 
L 918.718146 439.895454 
L 926.281854 390.721142 
L 928.803091 413.3422 
L 931.324327 439.619628 
L 933.845563 437.386114 
L 936.366799 430.631752 
L 938.888035 269.785098 
L 941.409272 422.827908 
L 943.930508 410.456123 
L 946.451744 420.422843 
L 948.97298 390.499136 
L 951.494217 426.198361 
L 954.015453 418.25324 
L 956.536689 441.799323 
L 959.057925 434.362124 
L 961.579161 433.191548 
L 964.100398 348.583745 
L 966.621634 421.842336 
L 969.14287 395.776822 
L 971.664106 451.782862 
L 974.185342 433.820564 
L 976.706579 425.172425 
L 984.270287 419.016806 
L 986.791524 447.241831 
L 989.31276 310.671189 
L 991.833996 403.732035 
L 994.355232 370.347053 
L 996.876468 359.334214 
L 999.397705 376.734769 
L 1001.918941 410.301392 
L 1004.440177 419.077353 
L 1006.961413 438.549963 
L 1009.48265 382.160459 
L 1012.003886 435.744616 
L 1014.525122 407.704595 
L 1017.046358 448.953968 
L 1019.567594 435.512519 
L 1022.088831 417.419036 
L 1024.610067 374.935176 
L 1027.131303 314.085371 
L 1029.652539 389.197374 
L 1032.173776 404.021315 
L 1034.695012 340.88754 
L 1042.25872 450.151455 
L 1044.779957 403.368752 
L 1049.822429 453.535363 
L 1052.343665 438.398596 
L 1054.864902 446.088073 
L 1057.386138 341.207094 
L 1059.907374 392.53419 
L 1062.42861 411.159142 
L 1064.949846 426.003265 
L 1067.471083 424.785596 
L 1069.992319 432.269887 
L 1072.513555 394.606246 
L 1075.034791 408.932355 
L 1077.556027 432.848448 
L 1080.077264 414.058674 
L 1082.5985 449.421526 
L 1085.119736 415.609351 
L 1087.640972 405.040524 
L 1090.162209 445.230323 
L 1092.683445 403.758944 
L 1100.247153 434.140118 
L 1102.76839 404.391325 
L 1105.289626 433.295823 
L 1107.810862 412.864551 
L 1110.332098 384.73371 
L 1112.853335 419.820736 
L 1115.374571 387.027771 
L 1117.895807 426.652464 
L 1120.417043 411.616608 
L 1122.938279 453.286447 
L 1125.459516 414.183131 
L 1127.980752 392.386186 
L 1130.501988 421.428597 
L 1133.023224 436.666277 
L 1135.544461 447.117374 
L 1138.065697 319.292419 
L 1140.586933 412.25908 
L 1143.108169 440.110732 
L 1145.629405 454.524298 
L 1148.150642 455.56369 
L 1150.671878 416.28546 
L 1158.235586 333.877535 
L 1160.756823 387.7947 
L 1163.278059 432.599532 
L 1165.799295 374.477709 
L 1168.320531 339.084583 
L 1173.363004 431.351589 
L 1175.88424 412.921734 
L 1178.405476 410.987592 
L 1180.926712 379.176834 
L 1183.447949 403.17702 
L 1185.969185 414.707873 
L 1188.490421 435.37797 
L 1191.011657 422.787543 
L 1193.532894 438.987248 
L 1196.05413 416.561286 
L 1198.575366 435.852255 
L 1201.096602 414.862604 
L 1203.617838 430.426565 
L 1206.139075 432.636533 
L 1208.660311 383.297399 
L 1216.22402 421.213319 
L 1218.745256 450.837655 
L 1221.266492 452.035141 
L 1223.787728 455.062495 
L 1226.308964 452.014959 
L 1228.830201 447.685843 
L 1231.351437 453.064441 
L 1233.872673 443.54846 
L 1236.393909 453.770824 
L 1238.915145 456.56608 
L 1241.436382 456.969727 
L 1243.957618 459.862532 
L 1246.478854 441.624409 
L 1249.00009 454.665575 
L 1251.521327 424.395404 
L 1254.042563 457.941844 
L 1256.563799 383.744774 
L 1259.085035 456.848633 
L 1261.606271 456.73763 
L 1264.127508 456.478623 
L 1266.648744 461.625124 
L 1274.212453 447.948214 
L 1276.733689 384.118148 
L 1279.254925 438.2405 
L 1281.776161 438.576873 
L 1284.297397 437.036287 
L 1286.818634 412.767003 
L 1289.33987 449.192793 
L 1291.861106 458.749138 
L 1294.382342 402.948286 
L 1296.903579 449.979905 
L 1299.424815 411.027956 
L 1301.946051 424.600591 
L 1304.467287 389.775935 
L 1306.988523 443.319727 
L 1309.50976 450.861201 
L 1312.030996 427.07293 
L 1314.552232 425.562617 
L 1317.073468 397.710965 
L 1319.594705 456.30371 
L 1322.115941 449.784808 
L 1324.637177 437.789761 
L 1332.200886 398.363528 
L 1334.722122 410.045748 
L 1337.243358 441.913689 
L 1339.764594 417.324852 
L 1342.28583 404.660423 
L 1344.807067 383.593406 
L 1347.328303 391.498163 
L 1349.849539 358.126636 
L 1352.370775 390.862419 
L 1354.892012 360.461062 
L 1357.413248 421.351232 
L 1359.934484 409.410004 
L 1362.45572 395.400085 
L 1364.976956 416.282097 
L 1367.498193 432.542348 
L 1370.019429 430.063282 
L 1372.540665 427.146932 
L 1375.061901 427.503487 
L 1377.583138 435.586521 
L 1380.104374 430.147376 
L 1382.62561 404.862247 
L 1390.189319 397.398138 
L 1392.710555 446.410991 
L 1395.231791 436.588911 
L 1397.753027 429.962371 
L 1400.274264 416.191276 
L 1402.7955 361.571092 
L 1405.316736 455.035585 
L 1407.837972 426.191634 
L 1410.359208 374.195156 
L 1412.880445 437.867127 
L 1415.401681 425.337247 
L 1417.922917 442.40143 
L 1420.444153 438.590328 
L 1422.965389 415.706899 
L 1425.486626 442.899261 
L 1428.007862 425.562617 
L 1430.529098 454.295565 
L 1433.050334 439.32362 
L 1435.571571 342.078299 
L 1438.092807 447.564749 
L 1440.614043 452.458971 
L 1448.177752 424.180125 
L 1450.698988 445.647425 
L 1453.220224 438.728241 
L 1455.74146 401.313515 
L 1458.262697 440.366375 
L 1460.783933 404.714243 
L 1463.305169 416.672289 
L 1465.826405 407.163035 
L 1468.347641 433.571649 
L 1470.868878 436.89501 
L 1473.390114 434.870047 
L 1475.91135 443.235634 
L 1478.432586 434.113209 
L 1480.953823 418.996624 
L 1483.475059 430.295379 
L 1485.996295 429.908551 
L 1488.517531 422.568901 
L 1491.038767 422.652994 
L 1493.560004 422.868272 
L 1496.08124 428.028228 
L 1498.602476 424.001848 
L 1506.166185 350.494342 
L 1508.687421 388.504447 
L 1511.208657 388.258895 
L 1513.729893 356.518775 
L 1516.25113 378.446906 
L 1518.772366 394.000775 
L 1521.293602 397.428412 
L 1523.814838 369.54985 
L 1526.336074 316.601438 
L 1528.857311 364.564808 
L 1531.378547 393.69804 
L 1536.421019 410.657947 
L 1538.942256 332.165398 
L 1541.463492 378.056713 
L 1543.984728 324.627288 
L 1546.505964 390.47559 
L 1549.0272 422.969184 
L 1551.548437 371.827093 
L 1554.069673 430.073374 
L 1556.590909 377.43106 
L 1556.590909 377.43106 
" style="fill:none;stroke:#55a868;stroke-linecap:round;stroke-width:1.5;"/>
   </g>
   <g id="line2d_16">
    <path clip-path="url(#p0e47e02734)" d="M 288.409091 387.727426 
L 290.930327 425.000875 
L 293.451563 386.233931 
L 295.9728 436.306358 
L 298.494036 433.72638 
L 301.015272 446.96937 
L 303.536508 420.950948 
L 306.057744 409.928018 
L 308.578981 440.09055 
L 311.100217 440.416831 
L 313.621453 433.23864 
L 316.142689 436.763825 
L 318.663926 443.518187 
L 321.185162 449.303796 
L 323.706398 435.357787 
L 326.227634 438.317866 
L 328.74887 454.779942 
L 331.270107 429.639453 
L 333.791343 453.979375 
L 336.312579 446.521994 
L 338.833815 446.592632 
L 404.385957 362.792124 
L 406.907193 335.630036 
L 409.428429 365.610927 
L 414.470902 378.191262 
L 416.992138 401.363971 
L 419.513374 420.765943 
L 422.034611 387.633241 
L 424.555847 427.95759 
L 427.077083 435.788344 
L 429.598319 410.301392 
L 432.119555 415.417619 
L 434.640792 381.33971 
L 437.162028 413.079829 
L 439.683264 433.453918 
L 442.2045 417.123028 
L 444.725736 434.113209 
L 447.246973 429.18535 
L 449.768209 431.819147 
L 452.289445 419.642459 
L 454.810681 397.684055 
L 462.37439 366.650318 
L 464.895626 449.616622 
L 467.416862 429.420811 
L 469.938099 411.418149 
L 472.459335 413.295108 
L 474.980571 402.467274 
L 477.501807 423.315648 
L 480.023044 377.942347 
L 482.54428 451.33885 
L 485.065516 436.945466 
L 487.586752 380.2835 
L 490.107988 354.157439 
L 492.629225 408.067877 
L 495.150461 444.584488 
L 497.671697 443.787285 
L 500.192933 423.406468 
L 502.71417 384.827894 
L 505.235406 409.897744 
L 507.756642 418.182602 
L 510.277878 441.506679 
L 512.799114 378.820279 
L 520.362823 364.75654 
L 522.884059 428.731247 
L 525.405295 431.526503 
L 527.926532 429.195441 
L 530.447768 392.968111 
L 532.969004 418.249876 
L 535.49024 414.59687 
L 538.011477 434.429399 
L 540.532713 423.049913 
L 543.053949 391.440979 
L 545.575185 428.408329 
L 548.096421 411.024593 
L 550.617658 441.099668 
L 553.138894 430.382836 
L 555.66013 429.363627 
L 558.181366 421.02495 
L 560.702603 429.245897 
L 563.223839 404.579694 
L 565.745075 434.167028 
L 568.266311 434.984414 
L 570.787547 443.783921 
L 578.351256 389.819663 
L 580.872492 405.107799 
L 583.393729 297.350833 
L 585.914965 291.343218 
L 588.436201 409.120724 
L 590.957437 421.522782 
L 593.478673 406.917483 
L 595.99991 402.450455 
L 598.521146 413.725665 
L 601.042382 410.671401 
L 603.563618 441.34522 
L 606.084855 425.354066 
L 608.606091 442.024692 
L 611.127327 392.211273 
L 613.648563 408.414341 
L 616.169799 411.37442 
L 618.691036 411.727611 
L 621.212272 415.868358 
L 623.733508 421.828881 
L 626.254744 433.26555 
L 628.77598 423.544381 
L 636.339689 451.446489 
L 638.860925 378.05335 
L 641.382162 395.238626 
L 643.903398 405.672904 
L 646.424634 416.732836 
L 648.94587 355.751846 
L 651.467106 361.419724 
L 653.988343 436.588911 
L 656.509579 440.833933 
L 659.030815 446.020799 
L 661.552051 357.211703 
L 664.073288 180.552172 
L 666.594524 429.498176 
L 669.11576 440.574926 
L 671.636996 460.235905 
L 674.158232 420.890401 
L 676.679469 430.265106 
L 679.200705 365.079458 
L 681.721941 447.426836 
L 684.243177 402.056899 
L 686.764414 427.900406 
L 694.328122 228.643364 
L 696.849358 313.84991 
L 699.370595 379.661211 
L 701.891831 378.783278 
L 704.413067 385.046536 
L 706.934303 403.900221 
L 709.455539 341.886567 
L 711.976776 417.415672 
L 714.498012 426.231998 
L 717.019248 390.613503 
L 719.540484 410.250936 
L 722.061721 431.284315 
L 724.582957 390.418407 
L 727.104193 365.520106 
L 729.625429 405.824272 
L 732.146665 416.31237 
L 734.667902 402.860829 
L 737.189138 399.803202 
L 739.710374 412.565179 
L 742.23161 385.773101 
L 744.752847 404.842064 
L 752.316555 443.494641 
L 754.837791 464.343015 
L 759.880264 424.947055 
L 762.4015 442.620072 
L 764.922736 439.111706 
L 767.443973 451.951048 
L 769.965209 455.553599 
L 772.486445 455.963973 
L 775.007681 447.288924 
L 777.528917 451.951048 
L 780.050154 428.909524 
L 782.57139 450.245639 
L 785.092626 412.958735 
L 787.613862 405.027069 
L 790.135098 445.05541 
L 792.656335 430.470293 
L 795.177571 447.679116 
L 797.698807 430.880668 
L 800.220043 425.626528 
L 802.74128 439.979547 
L 810.304988 434.930594 
L 812.826224 445.341326 
L 815.347461 374.992359 
L 817.868697 447.65557 
L 820.389933 418.074963 
L 822.911169 358.493282 
L 825.432406 434.933958 
L 827.953642 409.181271 
L 830.474878 405.773816 
L 832.996114 451.584402 
L 835.51735 445.469148 
L 838.038587 405.104435 
L 840.559823 447.124101 
L 843.081059 405.047251 
L 845.602295 365.059276 
L 848.123532 445.966979 
L 850.644768 374.985631 
L 853.166004 450.693014 
L 855.68724 375.520464 
L 858.208476 316.389523 
L 860.729713 409.551281 
L 868.293421 343.921621 
L 870.814658 231.670718 
L 873.335894 402.659006 
L 875.85713 393.735041 
L 878.378366 372.879939 
L 880.899602 356.952696 
L 883.420839 378.564636 
L 885.942075 374.417162 
L 888.463311 410.14666 
L 890.984547 363.760877 
L 893.505783 372.711753 
L 896.02702 415.747264 
L 898.548256 395.494269 
L 901.069492 415.545441 
L 903.590728 356.000761 
L 906.111965 414.79533 
L 908.633201 393.782133 
L 911.154437 383.670772 
L 913.675673 425.142151 
L 916.196909 422.430988 
L 918.718146 377.434424 
L 926.281854 427.540488 
L 928.803091 383.707773 
L 931.324327 438.233773 
L 933.845563 441.062667 
L 936.366799 439.306802 
L 938.888035 452.14278 
L 941.409272 380.952881 
L 943.930508 410.257663 
L 946.451744 434.95414 
L 948.97298 437.631666 
L 951.494217 444.238024 
L 954.015453 452.371514 
L 956.536689 438.697967 
L 959.057925 440.410104 
L 961.579161 449.727625 
L 964.100398 447.349471 
L 966.621634 411.663701 
L 969.14287 380.024493 
L 971.664106 449.350888 
L 974.185342 446.686817 
L 976.706579 373.683869 
L 984.270287 410.250936 
L 986.791524 405.016978 
L 989.31276 418.428154 
L 991.833996 326.036689 
L 994.355232 395.675911 
L 996.876468 426.390093 
L 999.397705 443.03381 
L 1001.918941 385.813466 
L 1004.440177 419.770281 
L 1006.961413 422.185436 
L 1009.48265 410.432577 
L 1012.003886 423.53429 
L 1014.525122 390.704323 
L 1017.046358 423.147462 
L 1019.567594 442.435067 
L 1022.088831 427.042656 
L 1024.610067 439.448078 
L 1027.131303 433.218457 
L 1029.652539 425.226244 
L 1032.173776 438.620602 
L 1034.695012 433.901294 
L 1042.25872 350.632255 
L 1044.779957 455.822697 
L 1047.301193 449.751171 
L 1049.822429 443.168359 
L 1052.343665 453.764096 
L 1054.864902 411.138959 
L 1057.386138 442.586435 
L 1059.907374 439.451442 
L 1062.42861 398.884905 
L 1064.949846 397.203042 
L 1067.471083 437.621575 
L 1069.992319 404.051589 
L 1072.513555 420.184019 
L 1075.034791 452.90971 
L 1077.556027 454.127379 
L 1080.077264 458.089848 
L 1082.5985 447.527748 
L 1085.119736 470.404449 
L 1087.640972 460.52855 
L 1090.162209 456.875543 
L 1092.683445 457.689565 
L 1100.247153 427.318482 
L 1102.76839 371.416718 
L 1105.289626 416.776564 
L 1107.810862 410.163479 
L 1110.332098 436.444271 
L 1112.853335 395.33281 
L 1115.374571 394.333784 
L 1117.895807 381.329619 
L 1120.417043 430.884032 
L 1122.938279 442.805077 
L 1125.459516 421.549692 
L 1127.980752 419.178265 
L 1130.501988 446.505175 
L 1133.023224 354.749455 
L 1135.544461 404.307232 
L 1138.065697 428.949889 
L 1140.586933 397.310681 
L 1143.108169 440.100641 
L 1145.629405 374.60553 
L 1148.150642 363.377413 
L 1150.671878 442.034784 
L 1158.235586 427.648127 
L 1160.756823 418.407971 
L 1163.278059 428.44533 
L 1165.799295 399.762838 
L 1168.320531 439.821452 
L 1170.841768 388.558266 
L 1173.363004 440.2621 
L 1175.88424 427.056111 
L 1178.405476 430.423201 
L 1180.926712 430.258378 
L 1183.447949 347.662084 
L 1185.969185 419.881283 
L 1188.490421 410.711766 
L 1191.011657 395.699457 
L 1193.532894 416.742927 
L 1196.05413 429.181986 
L 1198.575366 416.14082 
L 1201.096602 365.957391 
L 1203.617838 411.640155 
L 1206.139075 395.04353 
L 1208.660311 410.324938 
L 1216.22402 359.075207 
L 1218.745256 447.497475 
L 1221.266492 447.712753 
L 1223.787728 448.913603 
L 1226.308964 368.106812 
L 1228.830201 418.219603 
L 1231.351437 388.258895 
L 1233.872673 443.138086 
L 1236.393909 451.322031 
L 1238.915145 385.981652 
L 1241.436382 442.599889 
L 1243.957618 451.792953 
L 1246.478854 423.699113 
L 1251.521327 442.387975 
L 1254.042563 443.027083 
L 1256.563799 455.9337 
L 1259.085035 453.683367 
L 1261.606271 438.449051 
L 1264.127508 421.923065 
L 1266.648744 408.125061 
L 1274.212453 394.70043 
L 1276.733689 433.400099 
L 1279.254925 372.728571 
L 1281.776161 432.316979 
L 1284.297397 374.279249 
L 1286.818634 343.457427 
L 1289.33987 401.737345 
L 1291.861106 394.057958 
L 1294.382342 409.638738 
L 1296.903579 450.353278 
L 1299.424815 421.388233 
L 1301.946051 401.548976 
L 1304.467287 441.217398 
L 1306.988523 433.353006 
L 1309.50976 455.445959 
L 1312.030996 405.585448 
L 1314.552232 421.724605 
L 1317.073468 399.961298 
L 1319.594705 442.781531 
L 1322.115941 441.543679 
L 1324.637177 436.363541 
L 1332.200886 450.622376 
L 1334.722122 420.244566 
L 1337.243358 438.422142 
L 1339.764594 436.178536 
L 1342.28583 427.113295 
L 1344.807067 441.405767 
L 1347.328303 417.876503 
L 1349.849539 408.363885 
L 1352.370775 381.319528 
L 1354.892012 430.177649 
L 1357.413248 418.811619 
L 1359.934484 429.343445 
L 1362.45572 414.68769 
L 1364.976956 392.002722 
L 1367.498193 376.344577 
L 1370.019429 414.257133 
L 1372.540665 337.712183 
L 1375.061901 361.735914 
L 1377.583138 380.899062 
L 1380.104374 417.44931 
L 1382.62561 399.816657 
L 1390.189319 242.427914 
L 1392.710555 347.446806 
L 1395.231791 351.237725 
L 1397.753027 311.488574 
L 1400.274264 88.887273 
L 1402.7955 387.909067 
L 1405.316736 354.998371 
L 1407.837972 378.948101 
L 1410.359208 368.197632 
L 1412.880445 324.620561 
L 1415.401681 368.372546 
L 1417.922917 434.402489 
L 1420.444153 429.599088 
L 1422.965389 415.632897 
L 1425.486626 422.834635 
L 1428.007862 437.577846 
L 1430.529098 377.447879 
L 1433.050334 456.744358 
L 1435.571571 435.566338 
L 1438.092807 389.903757 
L 1440.614043 440.40674 
L 1448.177752 421.357959 
L 1450.698988 435.969985 
L 1453.220224 426.443913 
L 1455.74146 419.639095 
L 1458.262697 391.578892 
L 1460.783933 417.671315 
L 1463.305169 440.753204 
L 1465.826405 441.913689 
L 1468.347641 419.238812 
L 1470.868878 440.026639 
L 1473.390114 412.181714 
L 1475.91135 423.53429 
L 1478.432586 434.183847 
L 1480.953823 423.85048 
L 1483.475059 437.981494 
L 1485.996295 378.571363 
L 1488.517531 408.219245 
L 1491.038767 406.682022 
L 1493.560004 424.22049 
L 1496.08124 414.54305 
L 1498.602476 446.199076 
L 1506.166185 444.540759 
L 1508.687421 394.2396 
L 1511.208657 412.376811 
L 1513.729893 317.502916 
L 1516.25113 268.806254 
L 1518.772366 403.382207 
L 1521.293602 455.543507 
L 1523.814838 372.762208 
L 1526.336074 348.28101 
L 1528.857311 405.175073 
L 1533.899783 434.335214 
L 1536.421019 360.023778 
L 1538.942256 359.721042 
L 1541.463492 415.710263 
L 1543.984728 453.057714 
L 1546.505964 405.006887 
L 1549.0272 470.014257 
L 1551.548437 463.777909 
L 1554.069673 434.04257 
L 1556.590909 413.88376 
L 1556.590909 413.88376 
" style="fill:none;stroke:#c44e52;stroke-linecap:round;stroke-width:1.5;"/>
   </g>
   <g id="patch_3">
    <path d="M 225 504 
L 225 69.12 
" style="fill:none;stroke:#ffffff;stroke-linecap:square;stroke-linejoin:miter;stroke-width:1.25;"/>
   </g>
   <g id="patch_4">
    <path d="M 1620 504 
L 1620 69.12 
" style="fill:none;stroke:#ffffff;stroke-linecap:square;stroke-linejoin:miter;stroke-width:1.25;"/>
   </g>
   <g id="patch_5">
    <path d="M 225 504 
L 1620 504 
" style="fill:none;stroke:#ffffff;stroke-linecap:square;stroke-linejoin:miter;stroke-width:1.25;"/>
   </g>
   <g id="patch_6">
    <path d="M 225 69.12 
L 1620 69.12 
" style="fill:none;stroke:#ffffff;stroke-linecap:square;stroke-linejoin:miter;stroke-width:1.25;"/>
   </g>
   <g id="text_15">
    <!-- Duration (Cleaned) of each trial by Condition -->
    <g style="fill:#262626;" transform="translate(744.915938 63.12)scale(0.18 -0.18)">
     <defs>
      <path d="M 7.71875 0 
L 7.71875 71.578125 
L 32.375 71.578125 
Q 40.71875 71.578125 45.125 70.5625 
Q 51.265625 69.140625 55.609375 65.4375 
Q 61.28125 60.640625 64.078125 53.1875 
Q 66.890625 45.75 66.890625 36.1875 
Q 66.890625 28.03125 64.984375 21.734375 
Q 63.09375 15.4375 60.109375 11.296875 
Q 57.125 7.171875 53.578125 4.796875 
Q 50.046875 2.4375 45.046875 1.21875 
Q 40.046875 0 33.546875 0 
z
M 17.1875 8.453125 
L 32.46875 8.453125 
Q 39.546875 8.453125 43.578125 9.765625 
Q 47.609375 11.078125 50 13.484375 
Q 53.375 16.84375 55.25 22.53125 
Q 57.125 28.21875 57.125 36.328125 
Q 57.125 47.5625 53.4375 53.59375 
Q 49.75 59.625 44.484375 61.671875 
Q 40.671875 63.140625 32.234375 63.140625 
L 17.1875 63.140625 
z
" id="ArialMT-68"/>
      <path d="M 40.578125 0 
L 40.578125 7.625 
Q 34.515625 -1.171875 24.125 -1.171875 
Q 19.53125 -1.171875 15.546875 0.578125 
Q 11.578125 2.34375 9.640625 5 
Q 7.71875 7.671875 6.9375 11.53125 
Q 6.390625 14.109375 6.390625 19.734375 
L 6.390625 51.859375 
L 15.1875 51.859375 
L 15.1875 23.09375 
Q 15.1875 16.21875 15.71875 13.8125 
Q 16.546875 10.359375 19.234375 8.375 
Q 21.921875 6.390625 25.875 6.390625 
Q 29.828125 6.390625 33.296875 8.421875 
Q 36.765625 10.453125 38.203125 13.9375 
Q 39.65625 17.4375 39.65625 24.078125 
L 39.65625 51.859375 
L 48.4375 51.859375 
L 48.4375 0 
z
" id="ArialMT-117"/>
      <path d="M 25.78125 7.859375 
L 27.046875 0.09375 
Q 23.34375 -0.6875 20.40625 -0.6875 
Q 15.625 -0.6875 12.984375 0.828125 
Q 10.359375 2.34375 9.28125 4.8125 
Q 8.203125 7.28125 8.203125 15.1875 
L 8.203125 45.015625 
L 1.765625 45.015625 
L 1.765625 51.859375 
L 8.203125 51.859375 
L 8.203125 64.703125 
L 16.9375 69.96875 
L 16.9375 51.859375 
L 25.78125 51.859375 
L 25.78125 45.015625 
L 16.9375 45.015625 
L 16.9375 14.703125 
Q 16.9375 10.9375 17.40625 9.859375 
Q 17.875 8.796875 18.921875 8.15625 
Q 19.96875 7.515625 21.921875 7.515625 
Q 23.390625 7.515625 25.78125 7.859375 
z
" id="ArialMT-116"/>
      <path d="M 3.328125 25.921875 
Q 3.328125 40.328125 11.328125 47.265625 
Q 18.015625 53.03125 27.640625 53.03125 
Q 38.328125 53.03125 45.109375 46.015625 
Q 51.90625 39.015625 51.90625 26.65625 
Q 51.90625 16.65625 48.90625 10.90625 
Q 45.90625 5.171875 40.15625 2 
Q 34.421875 -1.171875 27.640625 -1.171875 
Q 16.75 -1.171875 10.03125 5.8125 
Q 3.328125 12.796875 3.328125 25.921875 
z
M 12.359375 25.921875 
Q 12.359375 15.96875 16.703125 11.015625 
Q 21.046875 6.0625 27.640625 6.0625 
Q 34.1875 6.0625 38.53125 11.03125 
Q 42.875 16.015625 42.875 26.21875 
Q 42.875 35.84375 38.5 40.796875 
Q 34.125 45.75 27.640625 45.75 
Q 21.046875 45.75 16.703125 40.8125 
Q 12.359375 35.890625 12.359375 25.921875 
z
" id="ArialMT-111"/>
      <path d="M 6.59375 0 
L 6.59375 51.859375 
L 14.5 51.859375 
L 14.5 44.484375 
Q 20.21875 53.03125 31 53.03125 
Q 35.6875 53.03125 39.625 51.34375 
Q 43.5625 49.65625 45.515625 46.921875 
Q 47.46875 44.1875 48.25 40.4375 
Q 48.734375 37.984375 48.734375 31.890625 
L 48.734375 0 
L 39.9375 0 
L 39.9375 31.546875 
Q 39.9375 36.921875 38.90625 39.578125 
Q 37.890625 42.234375 35.28125 43.8125 
Q 32.671875 45.40625 29.15625 45.40625 
Q 23.53125 45.40625 19.453125 41.84375 
Q 15.375 38.28125 15.375 28.328125 
L 15.375 0 
z
" id="ArialMT-110"/>
      <path d="M 58.796875 25.09375 
L 68.265625 22.703125 
Q 65.28125 11.03125 57.546875 4.90625 
Q 49.8125 -1.21875 38.625 -1.21875 
Q 27.046875 -1.21875 19.796875 3.484375 
Q 12.546875 8.203125 8.765625 17.140625 
Q 4.984375 26.078125 4.984375 36.328125 
Q 4.984375 47.515625 9.25 55.828125 
Q 13.53125 64.15625 21.40625 68.46875 
Q 29.296875 72.796875 38.765625 72.796875 
Q 49.515625 72.796875 56.828125 67.328125 
Q 64.15625 61.859375 67.046875 51.953125 
L 57.71875 49.75 
Q 55.21875 57.5625 50.484375 61.125 
Q 45.75 64.703125 38.578125 64.703125 
Q 30.328125 64.703125 24.78125 60.734375 
Q 19.234375 56.78125 16.984375 50.109375 
Q 14.75 43.453125 14.75 36.375 
Q 14.75 27.25 17.40625 20.4375 
Q 20.0625 13.625 25.671875 10.25 
Q 31.296875 6.890625 37.84375 6.890625 
Q 45.796875 6.890625 51.3125 11.46875 
Q 56.84375 16.0625 58.796875 25.09375 
z
" id="ArialMT-67"/>
      <path d="M 40.234375 0 
L 40.234375 6.546875 
Q 35.296875 -1.171875 25.734375 -1.171875 
Q 19.53125 -1.171875 14.328125 2.25 
Q 9.125 5.671875 6.265625 11.796875 
Q 3.421875 17.921875 3.421875 25.875 
Q 3.421875 33.640625 6 39.96875 
Q 8.59375 46.296875 13.765625 49.65625 
Q 18.953125 53.03125 25.34375 53.03125 
Q 30.03125 53.03125 33.6875 51.046875 
Q 37.359375 49.078125 39.65625 45.90625 
L 39.65625 71.578125 
L 48.390625 71.578125 
L 48.390625 0 
z
M 12.453125 25.875 
Q 12.453125 15.921875 16.640625 10.984375 
Q 20.84375 6.0625 26.5625 6.0625 
Q 32.328125 6.0625 36.34375 10.765625 
Q 40.375 15.484375 40.375 25.140625 
Q 40.375 35.796875 36.265625 40.765625 
Q 32.171875 45.75 26.171875 45.75 
Q 20.3125 45.75 16.375 40.96875 
Q 12.453125 36.1875 12.453125 25.875 
z
" id="ArialMT-100"/>
      <path d="M 8.6875 0 
L 8.6875 45.015625 
L 0.921875 45.015625 
L 0.921875 51.859375 
L 8.6875 51.859375 
L 8.6875 57.375 
Q 8.6875 62.59375 9.625 65.140625 
Q 10.890625 68.5625 14.078125 70.671875 
Q 17.28125 72.796875 23.046875 72.796875 
Q 26.765625 72.796875 31.25 71.921875 
L 29.9375 64.265625 
Q 27.203125 64.75 24.75 64.75 
Q 20.75 64.75 19.09375 63.03125 
Q 17.4375 61.328125 17.4375 56.640625 
L 17.4375 51.859375 
L 27.546875 51.859375 
L 27.546875 45.015625 
L 17.4375 45.015625 
L 17.4375 0 
z
" id="ArialMT-102"/>
      <path d="M 40.4375 19 
L 49.078125 17.875 
Q 47.65625 8.9375 41.8125 3.875 
Q 35.984375 -1.171875 27.484375 -1.171875 
Q 16.84375 -1.171875 10.375 5.78125 
Q 3.90625 12.75 3.90625 25.734375 
Q 3.90625 34.125 6.6875 40.421875 
Q 9.46875 46.734375 15.15625 49.875 
Q 20.84375 53.03125 27.546875 53.03125 
Q 35.984375 53.03125 41.359375 48.75 
Q 46.734375 44.484375 48.25 36.625 
L 39.703125 35.296875 
Q 38.484375 40.53125 35.375 43.15625 
Q 32.28125 45.796875 27.875 45.796875 
Q 21.234375 45.796875 17.078125 41.03125 
Q 12.9375 36.28125 12.9375 25.984375 
Q 12.9375 15.53125 16.9375 10.796875 
Q 20.953125 6.0625 27.390625 6.0625 
Q 32.5625 6.0625 36.03125 9.234375 
Q 39.5 12.40625 40.4375 19 
z
" id="ArialMT-99"/>
      <path d="M 6.59375 0 
L 6.59375 71.578125 
L 15.375 71.578125 
L 15.375 45.90625 
Q 21.53125 53.03125 30.90625 53.03125 
Q 36.671875 53.03125 40.921875 50.75 
Q 45.171875 48.484375 47 44.484375 
Q 48.828125 40.484375 48.828125 32.859375 
L 48.828125 0 
L 40.046875 0 
L 40.046875 32.859375 
Q 40.046875 39.453125 37.1875 42.453125 
Q 34.328125 45.453125 29.109375 45.453125 
Q 25.203125 45.453125 21.75 43.421875 
Q 18.3125 41.40625 16.84375 37.9375 
Q 15.375 34.46875 15.375 28.375 
L 15.375 0 
z
" id="ArialMT-104"/>
      <path d="M 14.703125 0 
L 6.546875 0 
L 6.546875 71.578125 
L 15.328125 71.578125 
L 15.328125 46.046875 
Q 20.90625 53.03125 29.546875 53.03125 
Q 34.328125 53.03125 38.59375 51.09375 
Q 42.875 49.171875 45.625 45.671875 
Q 48.390625 42.1875 49.953125 37.25 
Q 51.515625 32.328125 51.515625 26.703125 
Q 51.515625 13.375 44.921875 6.09375 
Q 38.328125 -1.171875 29.109375 -1.171875 
Q 19.921875 -1.171875 14.703125 6.5 
z
M 14.59375 26.3125 
Q 14.59375 17 17.140625 12.84375 
Q 21.296875 6.0625 28.375 6.0625 
Q 34.125 6.0625 38.328125 11.0625 
Q 42.53125 16.0625 42.53125 25.984375 
Q 42.53125 36.140625 38.5 40.96875 
Q 34.46875 45.796875 28.765625 45.796875 
Q 23 45.796875 18.796875 40.796875 
Q 14.59375 35.796875 14.59375 26.3125 
z
" id="ArialMT-98"/>
      <path d="M 6.203125 -19.96875 
L 5.21875 -11.71875 
Q 8.109375 -12.5 10.25 -12.5 
Q 13.1875 -12.5 14.9375 -11.515625 
Q 16.703125 -10.546875 17.828125 -8.796875 
Q 18.65625 -7.46875 20.515625 -2.25 
Q 20.75 -1.515625 21.296875 -0.09375 
L 1.609375 51.859375 
L 11.078125 51.859375 
L 21.875 21.828125 
Q 23.96875 16.109375 25.640625 9.8125 
Q 27.15625 15.875 29.25 21.625 
L 40.328125 51.859375 
L 49.125 51.859375 
L 29.390625 -0.875 
Q 26.21875 -9.421875 24.46875 -12.640625 
Q 22.125 -17 19.09375 -19.015625 
Q 16.0625 -21.046875 11.859375 -21.046875 
Q 9.328125 -21.046875 6.203125 -19.96875 
z
" id="ArialMT-121"/>
     </defs>
     <use xlink:href="#ArialMT-68"/>
     <use x="72.216797" xlink:href="#ArialMT-117"/>
     <use x="127.832031" xlink:href="#ArialMT-114"/>
     <use x="161.132812" xlink:href="#ArialMT-97"/>
     <use x="216.748047" xlink:href="#ArialMT-116"/>
     <use x="244.53125" xlink:href="#ArialMT-105"/>
     <use x="266.748047" xlink:href="#ArialMT-111"/>
     <use x="322.363281" xlink:href="#ArialMT-110"/>
     <use x="377.978516" xlink:href="#ArialMT-32"/>
     <use x="405.761719" xlink:href="#ArialMT-40"/>
     <use x="439.0625" xlink:href="#ArialMT-67"/>
     <use x="511.279297" xlink:href="#ArialMT-108"/>
     <use x="533.496094" xlink:href="#ArialMT-101"/>
     <use x="589.111328" xlink:href="#ArialMT-97"/>
     <use x="644.726562" xlink:href="#ArialMT-110"/>
     <use x="700.341797" xlink:href="#ArialMT-101"/>
     <use x="755.957031" xlink:href="#ArialMT-100"/>
     <use x="811.572266" xlink:href="#ArialMT-41"/>
     <use x="844.873047" xlink:href="#ArialMT-32"/>
     <use x="872.65625" xlink:href="#ArialMT-111"/>
     <use x="928.271484" xlink:href="#ArialMT-102"/>
     <use x="956.054688" xlink:href="#ArialMT-32"/>
     <use x="983.837891" xlink:href="#ArialMT-101"/>
     <use x="1039.453125" xlink:href="#ArialMT-97"/>
     <use x="1095.068359" xlink:href="#ArialMT-99"/>
     <use x="1145.068359" xlink:href="#ArialMT-104"/>
     <use x="1200.683594" xlink:href="#ArialMT-32"/>
     <use x="1228.466797" xlink:href="#ArialMT-116"/>
     <use x="1256.25" xlink:href="#ArialMT-114"/>
     <use x="1289.550781" xlink:href="#ArialMT-105"/>
     <use x="1311.767578" xlink:href="#ArialMT-97"/>
     <use x="1367.382812" xlink:href="#ArialMT-108"/>
     <use x="1389.599609" xlink:href="#ArialMT-32"/>
     <use x="1417.382812" xlink:href="#ArialMT-98"/>
     <use x="1472.998047" xlink:href="#ArialMT-121"/>
     <use x="1522.998047" xlink:href="#ArialMT-32"/>
     <use x="1550.78125" xlink:href="#ArialMT-67"/>
     <use x="1622.998047" xlink:href="#ArialMT-111"/>
     <use x="1678.613281" xlink:href="#ArialMT-110"/>
     <use x="1734.228516" xlink:href="#ArialMT-100"/>
     <use x="1789.84375" xlink:href="#ArialMT-105"/>
     <use x="1812.060547" xlink:href="#ArialMT-116"/>
     <use x="1839.84375" xlink:href="#ArialMT-105"/>
     <use x="1862.060547" xlink:href="#ArialMT-111"/>
     <use x="1917.675781" xlink:href="#ArialMT-110"/>
    </g>
   </g>
   <g id="legend_1">
    <g id="patch_7">
     <path d="M 236.55 200.390625 
L 441.593437 200.390625 
Q 444.893438 200.390625 444.893438 197.090625 
L 444.893438 80.67 
Q 444.893438 77.37 441.593437 77.37 
L 236.55 77.37 
Q 233.25 77.37 233.25 80.67 
L 233.25 197.090625 
Q 233.25 200.390625 236.55 200.390625 
z
" style="fill:#eaeaf2;opacity:0.8;stroke:#cccccc;stroke-linejoin:miter;"/>
    </g>
    <g id="text_16">
     <!-- Condition -->
     <g style="fill:#262626;" transform="translate(301.048125 96.854062)scale(0.18 -0.18)">
      <use xlink:href="#ArialMT-67"/>
      <use x="72.216797" xlink:href="#ArialMT-111"/>
      <use x="127.832031" xlink:href="#ArialMT-110"/>
      <use x="183.447266" xlink:href="#ArialMT-100"/>
      <use x="239.0625" xlink:href="#ArialMT-105"/>
      <use x="261.279297" xlink:href="#ArialMT-116"/>
      <use x="289.0625" xlink:href="#ArialMT-105"/>
      <use x="311.279297" xlink:href="#ArialMT-111"/>
      <use x="366.894531" xlink:href="#ArialMT-110"/>
     </g>
    </g>
    <g id="line2d_17">
     <path d="M 239.85 114.716953 
L 272.85 114.716953 
" style="fill:none;stroke:#4c72b0;stroke-linecap:round;stroke-width:1.5;"/>
    </g>
    <g id="line2d_18"/>
    <g id="text_17">
     <!-- No Feedback -->
     <g style="fill:#262626;" transform="translate(286.05 120.491953)scale(0.165 -0.165)">
      <defs>
       <path d="M 7.625 0 
L 7.625 71.578125 
L 17.328125 71.578125 
L 54.9375 15.375 
L 54.9375 71.578125 
L 64.015625 71.578125 
L 64.015625 0 
L 54.296875 0 
L 16.703125 56.25 
L 16.703125 0 
z
" id="ArialMT-78"/>
       <path d="M 8.203125 0 
L 8.203125 71.578125 
L 56.5 71.578125 
L 56.5 63.140625 
L 17.671875 63.140625 
L 17.671875 40.96875 
L 51.265625 40.96875 
L 51.265625 32.515625 
L 17.671875 32.515625 
L 17.671875 0 
z
" id="ArialMT-70"/>
       <path d="M 6.640625 0 
L 6.640625 71.578125 
L 15.4375 71.578125 
L 15.4375 30.765625 
L 36.234375 51.859375 
L 47.609375 51.859375 
L 27.78125 32.625 
L 49.609375 0 
L 38.765625 0 
L 21.625 26.515625 
L 15.4375 20.5625 
L 15.4375 0 
z
" id="ArialMT-107"/>
      </defs>
      <use xlink:href="#ArialMT-78"/>
      <use x="72.216797" xlink:href="#ArialMT-111"/>
      <use x="127.832031" xlink:href="#ArialMT-32"/>
      <use x="155.615234" xlink:href="#ArialMT-70"/>
      <use x="216.699219" xlink:href="#ArialMT-101"/>
      <use x="272.314453" xlink:href="#ArialMT-101"/>
      <use x="327.929688" xlink:href="#ArialMT-100"/>
      <use x="383.544922" xlink:href="#ArialMT-98"/>
      <use x="439.160156" xlink:href="#ArialMT-97"/>
      <use x="494.775391" xlink:href="#ArialMT-99"/>
      <use x="544.775391" xlink:href="#ArialMT-107"/>
     </g>
    </g>
    <g id="line2d_19">
     <path d="M 239.85 138.056719 
L 272.85 138.056719 
" style="fill:none;stroke:#dd8452;stroke-linecap:round;stroke-width:1.5;"/>
    </g>
    <g id="line2d_20"/>
    <g id="text_18">
     <!-- Tactile Feedback -->
     <g style="fill:#262626;" transform="translate(286.05 143.831719)scale(0.165 -0.165)">
      <use xlink:href="#ArialMT-84"/>
      <use x="49.958984" xlink:href="#ArialMT-97"/>
      <use x="105.574219" xlink:href="#ArialMT-99"/>
      <use x="155.574219" xlink:href="#ArialMT-116"/>
      <use x="183.357422" xlink:href="#ArialMT-105"/>
      <use x="205.574219" xlink:href="#ArialMT-108"/>
      <use x="227.791016" xlink:href="#ArialMT-101"/>
      <use x="283.40625" xlink:href="#ArialMT-32"/>
      <use x="311.189453" xlink:href="#ArialMT-70"/>
      <use x="372.273438" xlink:href="#ArialMT-101"/>
      <use x="427.888672" xlink:href="#ArialMT-101"/>
      <use x="483.503906" xlink:href="#ArialMT-100"/>
      <use x="539.119141" xlink:href="#ArialMT-98"/>
      <use x="594.734375" xlink:href="#ArialMT-97"/>
      <use x="650.349609" xlink:href="#ArialMT-99"/>
      <use x="700.349609" xlink:href="#ArialMT-107"/>
     </g>
    </g>
    <g id="line2d_21">
     <path d="M 239.85 161.396484 
L 272.85 161.396484 
" style="fill:none;stroke:#55a868;stroke-linecap:round;stroke-width:1.5;"/>
    </g>
    <g id="line2d_22"/>
    <g id="text_19">
     <!-- Visual Feedback -->
     <g style="fill:#262626;" transform="translate(286.05 167.171484)scale(0.165 -0.165)">
      <defs>
       <path d="M 28.171875 0 
L 0.4375 71.578125 
L 10.6875 71.578125 
L 29.296875 19.578125 
Q 31.546875 13.328125 33.0625 7.859375 
Q 34.71875 13.71875 36.921875 19.578125 
L 56.25 71.578125 
L 65.921875 71.578125 
L 37.890625 0 
z
" id="ArialMT-86"/>
      </defs>
      <use xlink:href="#ArialMT-86"/>
      <use x="64.949219" xlink:href="#ArialMT-105"/>
      <use x="87.166016" xlink:href="#ArialMT-115"/>
      <use x="137.166016" xlink:href="#ArialMT-117"/>
      <use x="192.78125" xlink:href="#ArialMT-97"/>
      <use x="248.396484" xlink:href="#ArialMT-108"/>
      <use x="270.613281" xlink:href="#ArialMT-32"/>
      <use x="298.396484" xlink:href="#ArialMT-70"/>
      <use x="359.480469" xlink:href="#ArialMT-101"/>
      <use x="415.095703" xlink:href="#ArialMT-101"/>
      <use x="470.710938" xlink:href="#ArialMT-100"/>
      <use x="526.326172" xlink:href="#ArialMT-98"/>
      <use x="581.941406" xlink:href="#ArialMT-97"/>
      <use x="637.556641" xlink:href="#ArialMT-99"/>
      <use x="687.556641" xlink:href="#ArialMT-107"/>
     </g>
    </g>
    <g id="line2d_23">
     <path d="M 239.85 184.73625 
L 272.85 184.73625 
" style="fill:none;stroke:#c44e52;stroke-linecap:round;stroke-width:1.5;"/>
    </g>
    <g id="line2d_24"/>
    <g id="text_20">
     <!-- Combined Feedback -->
     <g style="fill:#262626;" transform="translate(286.05 190.51125)scale(0.165 -0.165)">
      <use xlink:href="#ArialMT-67"/>
      <use x="72.216797" xlink:href="#ArialMT-111"/>
      <use x="127.832031" xlink:href="#ArialMT-109"/>
      <use x="211.132812" xlink:href="#ArialMT-98"/>
      <use x="266.748047" xlink:href="#ArialMT-105"/>
      <use x="288.964844" xlink:href="#ArialMT-110"/>
      <use x="344.580078" xlink:href="#ArialMT-101"/>
      <use x="400.195312" xlink:href="#ArialMT-100"/>
      <use x="455.810547" xlink:href="#ArialMT-32"/>
      <use x="483.59375" xlink:href="#ArialMT-70"/>
      <use x="544.677734" xlink:href="#ArialMT-101"/>
      <use x="600.292969" xlink:href="#ArialMT-101"/>
      <use x="655.908203" xlink:href="#ArialMT-100"/>
      <use x="711.523438" xlink:href="#ArialMT-98"/>
      <use x="767.138672" xlink:href="#ArialMT-97"/>
      <use x="822.753906" xlink:href="#ArialMT-99"/>
      <use x="872.753906" xlink:href="#ArialMT-107"/>
     </g>
    </g>
   </g>
  </g>
 </g>
 <defs>
  <clipPath id="p0e47e02734">
   <rect height="434.88" width="1395" x="225" y="69.12"/>
  </clipPath>
 </defs>
</svg>
