<?xml version="1.0" encoding="utf-8" standalone="no"?>
<!DOCTYPE svg PUBLIC "-//W3C//DTD SVG 1.1//EN"
  "http://www.w3.org/Graphics/SVG/1.1/DTD/svg11.dtd">
<svg xmlns:xlink="http://www.w3.org/1999/xlink" width="1800pt" height="576pt" viewBox="0 0 1800 576" xmlns="http://www.w3.org/2000/svg" version="1.1">
 <metadata>
  <rdf:RDF xmlns:dc="http://purl.org/dc/elements/1.1/" xmlns:cc="http://creativecommons.org/ns#" xmlns:rdf="http://www.w3.org/1999/02/22-rdf-syntax-ns#">
   <cc:Work>
    <dc:type rdf:resource="http://purl.org/dc/dcmitype/StillImage"/>
    <dc:date>2026-01-02T20:22:31.925257</dc:date>
    <dc:format>image/svg+xml</dc:format>
    <dc:creator>
     <cc:Agent>
      <dc:title>Matplotlib v3.8.0, https://matplotlib.org/</dc:title>
     </cc:Agent>
    </dc:creator>
   </cc:Work>
  </rdf:RDF>
 </metadata>
 <defs>
  <style type="text/css">*{stroke-linejoin: round; stroke-linecap: butt}</style>
 </defs>
 <g id="figure_1">
  <g id="patch_1">
   <path d="M 0 576 
L 1800 576 
L 1800 0 
L 0 0 
z
" style="fill: #ffffff"/>
  </g>
  <g id="axes_1">
   <g id="patch_2">
    <path d="M 225 512.64 
L 1620 512.64 
L 1620 69.12 
L 225 69.12 
z
" style="fill: #eaeaf2"/>
   </g>
   <g id="matplotlib.axis_1">
    <g id="xtick_1">
     <g id="line2d_1">
      <path d="M 283.366618 512.64 
L 283.366618 69.12 
" clip-path="url(#p30da8713df)" style="fill: none; stroke: #ffffff; stroke-linecap: round"/>
     </g>
     <g id="text_1">
      <!-- 0 -->
      <g style="fill: #262626" transform="translate(280.308103 530.013594) scale(0.11 -0.11)">
       <defs>
        <path id="ArialMT-30" d="M 266 2259 
Q 266 3072 433 3567 
Q 600 4063 929 4331 
Q 1259 4600 1759 4600 
Q 2128 4600 2406 4451 
Q 2684 4303 2865 4023 
Q 3047 3744 3150 3342 
Q 3253 2941 3253 2259 
Q 3253 1453 3087 958 
Q 2922 463 2592 192 
Q 2263 -78 1759 -78 
Q 1097 -78 719 397 
Q 266 969 266 2259 
z
M 844 2259 
Q 844 1131 1108 757 
Q 1372 384 1759 384 
Q 2147 384 2411 759 
Q 2675 1134 2675 2259 
Q 2675 3391 2411 3762 
Q 2147 4134 1753 4134 
Q 1366 4134 1134 3806 
Q 844 3388 844 2259 
z
" transform="scale(0.015625)"/>
       </defs>
       <use xlink:href="#ArialMT-30"/>
      </g>
     </g>
    </g>
    <g id="xtick_2">
     <g id="line2d_2">
      <path d="M 535.49024 512.64 
L 535.49024 69.12 
" clip-path="url(#p30da8713df)" style="fill: none; stroke: #ffffff; stroke-linecap: round"/>
     </g>
     <g id="text_2">
      <!-- 100 -->
      <g style="fill: #262626" transform="translate(526.314694 530.013594) scale(0.11 -0.11)">
       <defs>
        <path id="ArialMT-31" d="M 2384 0 
L 1822 0 
L 1822 3584 
Q 1619 3391 1289 3197 
Q 959 3003 697 2906 
L 697 3450 
Q 1169 3672 1522 3987 
Q 1875 4303 2022 4600 
L 2384 4600 
L 2384 0 
z
" transform="scale(0.015625)"/>
       </defs>
       <use xlink:href="#ArialMT-31"/>
       <use xlink:href="#ArialMT-30" x="55.615234"/>
       <use xlink:href="#ArialMT-30" x="111.230469"/>
      </g>
     </g>
    </g>
    <g id="xtick_3">
     <g id="line2d_3">
      <path d="M 787.613862 512.64 
L 787.613862 69.12 
" clip-path="url(#p30da8713df)" style="fill: none; stroke: #ffffff; stroke-linecap: round"/>
     </g>
     <g id="text_3">
      <!-- 200 -->
      <g style="fill: #262626" transform="translate(778.438315 530.013594) scale(0.11 -0.11)">
       <defs>
        <path id="ArialMT-32" d="M 3222 541 
L 3222 0 
L 194 0 
Q 188 203 259 391 
Q 375 700 629 1000 
Q 884 1300 1366 1694 
Q 2113 2306 2375 2664 
Q 2638 3022 2638 3341 
Q 2638 3675 2398 3904 
Q 2159 4134 1775 4134 
Q 1369 4134 1125 3890 
Q 881 3647 878 3216 
L 300 3275 
Q 359 3922 746 4261 
Q 1134 4600 1788 4600 
Q 2447 4600 2831 4234 
Q 3216 3869 3216 3328 
Q 3216 3053 3103 2787 
Q 2991 2522 2730 2228 
Q 2469 1934 1863 1422 
Q 1356 997 1212 845 
Q 1069 694 975 541 
L 3222 541 
z
" transform="scale(0.015625)"/>
       </defs>
       <use xlink:href="#ArialMT-32"/>
       <use xlink:href="#ArialMT-30" x="55.615234"/>
       <use xlink:href="#ArialMT-30" x="111.230469"/>
      </g>
     </g>
    </g>
    <g id="xtick_4">
     <g id="line2d_4">
      <path d="M 1039.737484 512.64 
L 1039.737484 69.12 
" clip-path="url(#p30da8713df)" style="fill: none; stroke: #ffffff; stroke-linecap: round"/>
     </g>
     <g id="text_4">
      <!-- 300 -->
      <g style="fill: #262626" transform="translate(1030.561937 530.013594) scale(0.11 -0.11)">
       <defs>
        <path id="ArialMT-33" d="M 269 1209 
L 831 1284 
Q 928 806 1161 595 
Q 1394 384 1728 384 
Q 2125 384 2398 659 
Q 2672 934 2672 1341 
Q 2672 1728 2419 1979 
Q 2166 2231 1775 2231 
Q 1616 2231 1378 2169 
L 1441 2663 
Q 1497 2656 1531 2656 
Q 1891 2656 2178 2843 
Q 2466 3031 2466 3422 
Q 2466 3731 2256 3934 
Q 2047 4138 1716 4138 
Q 1388 4138 1169 3931 
Q 950 3725 888 3313 
L 325 3413 
Q 428 3978 793 4289 
Q 1159 4600 1703 4600 
Q 2078 4600 2393 4439 
Q 2709 4278 2876 4000 
Q 3044 3722 3044 3409 
Q 3044 3113 2884 2869 
Q 2725 2625 2413 2481 
Q 2819 2388 3044 2092 
Q 3269 1797 3269 1353 
Q 3269 753 2831 336 
Q 2394 -81 1725 -81 
Q 1122 -81 723 278 
Q 325 638 269 1209 
z
" transform="scale(0.015625)"/>
       </defs>
       <use xlink:href="#ArialMT-33"/>
       <use xlink:href="#ArialMT-30" x="55.615234"/>
       <use xlink:href="#ArialMT-30" x="111.230469"/>
      </g>
     </g>
    </g>
    <g id="xtick_5">
     <g id="line2d_5">
      <path d="M 1291.861106 512.64 
L 1291.861106 69.12 
" clip-path="url(#p30da8713df)" style="fill: none; stroke: #ffffff; stroke-linecap: round"/>
     </g>
     <g id="text_5">
      <!-- 400 -->
      <g style="fill: #262626" transform="translate(1282.685559 530.013594) scale(0.11 -0.11)">
       <defs>
        <path id="ArialMT-34" d="M 2069 0 
L 2069 1097 
L 81 1097 
L 81 1613 
L 2172 4581 
L 2631 4581 
L 2631 1613 
L 3250 1613 
L 3250 1097 
L 2631 1097 
L 2631 0 
L 2069 0 
z
M 2069 1613 
L 2069 3678 
L 634 1613 
L 2069 1613 
z
" transform="scale(0.015625)"/>
       </defs>
       <use xlink:href="#ArialMT-34"/>
       <use xlink:href="#ArialMT-30" x="55.615234"/>
       <use xlink:href="#ArialMT-30" x="111.230469"/>
      </g>
     </g>
    </g>
    <g id="xtick_6">
     <g id="line2d_6">
      <path d="M 1543.984728 512.64 
L 1543.984728 69.12 
" clip-path="url(#p30da8713df)" style="fill: none; stroke: #ffffff; stroke-linecap: round"/>
     </g>
     <g id="text_6">
      <!-- 500 -->
      <g style="fill: #262626" transform="translate(1534.809181 530.013594) scale(0.11 -0.11)">
       <defs>
        <path id="ArialMT-35" d="M 266 1200 
L 856 1250 
Q 922 819 1161 601 
Q 1400 384 1738 384 
Q 2144 384 2425 690 
Q 2706 997 2706 1503 
Q 2706 1984 2436 2262 
Q 2166 2541 1728 2541 
Q 1456 2541 1237 2417 
Q 1019 2294 894 2097 
L 366 2166 
L 809 4519 
L 3088 4519 
L 3088 3981 
L 1259 3981 
L 1013 2750 
Q 1425 3038 1878 3038 
Q 2478 3038 2890 2622 
Q 3303 2206 3303 1553 
Q 3303 931 2941 478 
Q 2500 -78 1738 -78 
Q 1113 -78 717 272 
Q 322 622 266 1200 
z
" transform="scale(0.015625)"/>
       </defs>
       <use xlink:href="#ArialMT-35"/>
       <use xlink:href="#ArialMT-30" x="55.615234"/>
       <use xlink:href="#ArialMT-30" x="111.230469"/>
      </g>
     </g>
    </g>
    <g id="text_7">
     <!-- Trial -->
     <g style="fill: #262626" transform="translate(911.059687 544.789219) scale(0.12 -0.12)">
      <defs>
       <path id="ArialMT-54" d="M 1659 0 
L 1659 4041 
L 150 4041 
L 150 4581 
L 3781 4581 
L 3781 4041 
L 2266 4041 
L 2266 0 
L 1659 0 
z
" transform="scale(0.015625)"/>
       <path id="ArialMT-72" d="M 416 0 
L 416 3319 
L 922 3319 
L 922 2816 
Q 1116 3169 1280 3281 
Q 1444 3394 1641 3394 
Q 1925 3394 2219 3213 
L 2025 2691 
Q 1819 2813 1613 2813 
Q 1428 2813 1281 2702 
Q 1134 2591 1072 2394 
Q 978 2094 978 1738 
L 978 0 
L 416 0 
z
" transform="scale(0.015625)"/>
       <path id="ArialMT-69" d="M 425 3934 
L 425 4581 
L 988 4581 
L 988 3934 
L 425 3934 
z
M 425 0 
L 425 3319 
L 988 3319 
L 988 0 
L 425 0 
z
" transform="scale(0.015625)"/>
       <path id="ArialMT-61" d="M 2588 409 
Q 2275 144 1986 34 
Q 1697 -75 1366 -75 
Q 819 -75 525 192 
Q 231 459 231 875 
Q 231 1119 342 1320 
Q 453 1522 633 1644 
Q 813 1766 1038 1828 
Q 1203 1872 1538 1913 
Q 2219 1994 2541 2106 
Q 2544 2222 2544 2253 
Q 2544 2597 2384 2738 
Q 2169 2928 1744 2928 
Q 1347 2928 1158 2789 
Q 969 2650 878 2297 
L 328 2372 
Q 403 2725 575 2942 
Q 747 3159 1072 3276 
Q 1397 3394 1825 3394 
Q 2250 3394 2515 3294 
Q 2781 3194 2906 3042 
Q 3031 2891 3081 2659 
Q 3109 2516 3109 2141 
L 3109 1391 
Q 3109 606 3145 398 
Q 3181 191 3288 0 
L 2700 0 
Q 2613 175 2588 409 
z
M 2541 1666 
Q 2234 1541 1622 1453 
Q 1275 1403 1131 1340 
Q 988 1278 909 1158 
Q 831 1038 831 891 
Q 831 666 1001 516 
Q 1172 366 1500 366 
Q 1825 366 2078 508 
Q 2331 650 2450 897 
Q 2541 1088 2541 1459 
L 2541 1666 
z
" transform="scale(0.015625)"/>
       <path id="ArialMT-6c" d="M 409 0 
L 409 4581 
L 972 4581 
L 972 0 
L 409 0 
z
" transform="scale(0.015625)"/>
      </defs>
      <use xlink:href="#ArialMT-54"/>
      <use xlink:href="#ArialMT-72" x="57.333984"/>
      <use xlink:href="#ArialMT-69" x="90.634766"/>
      <use xlink:href="#ArialMT-61" x="112.851562"/>
      <use xlink:href="#ArialMT-6c" x="168.466797"/>
     </g>
    </g>
   </g>
   <g id="matplotlib.axis_2">
    <g id="ytick_1">
     <g id="line2d_7">
      <path d="M 225 462.811906 
L 1620 462.811906 
" clip-path="url(#p30da8713df)" style="fill: none; stroke: #ffffff; stroke-linecap: round"/>
     </g>
     <g id="text_8">
      <!-- 20 -->
      <g style="fill: #262626" transform="translate(203.265938 466.748703) scale(0.11 -0.11)">
       <use xlink:href="#ArialMT-32"/>
       <use xlink:href="#ArialMT-30" x="55.615234"/>
      </g>
     </g>
    </g>
    <g id="ytick_2">
     <g id="line2d_8">
      <path d="M 225 397.348328 
L 1620 397.348328 
" clip-path="url(#p30da8713df)" style="fill: none; stroke: #ffffff; stroke-linecap: round"/>
     </g>
     <g id="text_9">
      <!-- 40 -->
      <g style="fill: #262626" transform="translate(203.265938 401.285124) scale(0.11 -0.11)">
       <use xlink:href="#ArialMT-34"/>
       <use xlink:href="#ArialMT-30" x="55.615234"/>
      </g>
     </g>
    </g>
    <g id="ytick_3">
     <g id="line2d_9">
      <path d="M 225 331.884749 
L 1620 331.884749 
" clip-path="url(#p30da8713df)" style="fill: none; stroke: #ffffff; stroke-linecap: round"/>
     </g>
     <g id="text_10">
      <!-- 60 -->
      <g style="fill: #262626" transform="translate(203.265938 335.821546) scale(0.11 -0.11)">
       <defs>
        <path id="ArialMT-36" d="M 3184 3459 
L 2625 3416 
Q 2550 3747 2413 3897 
Q 2184 4138 1850 4138 
Q 1581 4138 1378 3988 
Q 1113 3794 959 3422 
Q 806 3050 800 2363 
Q 1003 2672 1297 2822 
Q 1591 2972 1913 2972 
Q 2475 2972 2870 2558 
Q 3266 2144 3266 1488 
Q 3266 1056 3080 686 
Q 2894 316 2569 119 
Q 2244 -78 1831 -78 
Q 1128 -78 684 439 
Q 241 956 241 2144 
Q 241 3472 731 4075 
Q 1159 4600 1884 4600 
Q 2425 4600 2770 4297 
Q 3116 3994 3184 3459 
z
M 888 1484 
Q 888 1194 1011 928 
Q 1134 663 1356 523 
Q 1578 384 1822 384 
Q 2178 384 2434 671 
Q 2691 959 2691 1453 
Q 2691 1928 2437 2201 
Q 2184 2475 1800 2475 
Q 1419 2475 1153 2201 
Q 888 1928 888 1484 
z
" transform="scale(0.015625)"/>
       </defs>
       <use xlink:href="#ArialMT-36"/>
       <use xlink:href="#ArialMT-30" x="55.615234"/>
      </g>
     </g>
    </g>
    <g id="ytick_4">
     <g id="line2d_10">
      <path d="M 225 266.42117 
L 1620 266.42117 
" clip-path="url(#p30da8713df)" style="fill: none; stroke: #ffffff; stroke-linecap: round"/>
     </g>
     <g id="text_11">
      <!-- 80 -->
      <g style="fill: #262626" transform="translate(203.265938 270.357967) scale(0.11 -0.11)">
       <defs>
        <path id="ArialMT-38" d="M 1131 2484 
Q 781 2613 612 2850 
Q 444 3088 444 3419 
Q 444 3919 803 4259 
Q 1163 4600 1759 4600 
Q 2359 4600 2725 4251 
Q 3091 3903 3091 3403 
Q 3091 3084 2923 2848 
Q 2756 2613 2416 2484 
Q 2838 2347 3058 2040 
Q 3278 1734 3278 1309 
Q 3278 722 2862 322 
Q 2447 -78 1769 -78 
Q 1091 -78 675 323 
Q 259 725 259 1325 
Q 259 1772 486 2073 
Q 713 2375 1131 2484 
z
M 1019 3438 
Q 1019 3113 1228 2906 
Q 1438 2700 1772 2700 
Q 2097 2700 2305 2904 
Q 2513 3109 2513 3406 
Q 2513 3716 2298 3927 
Q 2084 4138 1766 4138 
Q 1444 4138 1231 3931 
Q 1019 3725 1019 3438 
z
M 838 1322 
Q 838 1081 952 856 
Q 1066 631 1291 507 
Q 1516 384 1775 384 
Q 2178 384 2440 643 
Q 2703 903 2703 1303 
Q 2703 1709 2433 1975 
Q 2163 2241 1756 2241 
Q 1359 2241 1098 1978 
Q 838 1716 838 1322 
z
" transform="scale(0.015625)"/>
       </defs>
       <use xlink:href="#ArialMT-38"/>
       <use xlink:href="#ArialMT-30" x="55.615234"/>
      </g>
     </g>
    </g>
    <g id="ytick_5">
     <g id="line2d_11">
      <path d="M 225 200.957592 
L 1620 200.957592 
" clip-path="url(#p30da8713df)" style="fill: none; stroke: #ffffff; stroke-linecap: round"/>
     </g>
     <g id="text_12">
      <!-- 100 -->
      <g style="fill: #262626" transform="translate(197.148906 204.894389) scale(0.11 -0.11)">
       <use xlink:href="#ArialMT-31"/>
       <use xlink:href="#ArialMT-30" x="55.615234"/>
       <use xlink:href="#ArialMT-30" x="111.230469"/>
      </g>
     </g>
    </g>
    <g id="ytick_6">
     <g id="line2d_12">
      <path d="M 225 135.494013 
L 1620 135.494013 
" clip-path="url(#p30da8713df)" style="fill: none; stroke: #ffffff; stroke-linecap: round"/>
     </g>
     <g id="text_13">
      <!-- 120 -->
      <g style="fill: #262626" transform="translate(197.148906 139.43081) scale(0.11 -0.11)">
       <use xlink:href="#ArialMT-31"/>
       <use xlink:href="#ArialMT-32" x="55.615234"/>
       <use xlink:href="#ArialMT-30" x="111.230469"/>
      </g>
     </g>
    </g>
    <g id="ytick_7">
     <g id="line2d_13">
      <path d="M 225 70.030435 
L 1620 70.030435 
" clip-path="url(#p30da8713df)" style="fill: none; stroke: #ffffff; stroke-linecap: round"/>
     </g>
     <g id="text_14">
      <!-- 140 -->
      <g style="fill: #262626" transform="translate(197.148906 73.967232) scale(0.11 -0.11)">
       <use xlink:href="#ArialMT-31"/>
       <use xlink:href="#ArialMT-34" x="55.615234"/>
       <use xlink:href="#ArialMT-30" x="111.230469"/>
      </g>
     </g>
    </g>
    <g id="text_15">
     <!-- Time (s) -->
     <g style="fill: #262626" transform="translate(190.623281 312.649687) rotate(-90) scale(0.12 -0.12)">
      <defs>
       <path id="ArialMT-6d" d="M 422 0 
L 422 3319 
L 925 3319 
L 925 2853 
Q 1081 3097 1340 3245 
Q 1600 3394 1931 3394 
Q 2300 3394 2536 3241 
Q 2772 3088 2869 2813 
Q 3263 3394 3894 3394 
Q 4388 3394 4653 3120 
Q 4919 2847 4919 2278 
L 4919 0 
L 4359 0 
L 4359 2091 
Q 4359 2428 4304 2576 
Q 4250 2725 4106 2815 
Q 3963 2906 3769 2906 
Q 3419 2906 3187 2673 
Q 2956 2441 2956 1928 
L 2956 0 
L 2394 0 
L 2394 2156 
Q 2394 2531 2256 2718 
Q 2119 2906 1806 2906 
Q 1569 2906 1367 2781 
Q 1166 2656 1075 2415 
Q 984 2175 984 1722 
L 984 0 
L 422 0 
z
" transform="scale(0.015625)"/>
       <path id="ArialMT-65" d="M 2694 1069 
L 3275 997 
Q 3138 488 2766 206 
Q 2394 -75 1816 -75 
Q 1088 -75 661 373 
Q 234 822 234 1631 
Q 234 2469 665 2931 
Q 1097 3394 1784 3394 
Q 2450 3394 2872 2941 
Q 3294 2488 3294 1666 
Q 3294 1616 3291 1516 
L 816 1516 
Q 847 969 1125 678 
Q 1403 388 1819 388 
Q 2128 388 2347 550 
Q 2566 713 2694 1069 
z
M 847 1978 
L 2700 1978 
Q 2663 2397 2488 2606 
Q 2219 2931 1791 2931 
Q 1403 2931 1139 2672 
Q 875 2413 847 1978 
z
" transform="scale(0.015625)"/>
       <path id="ArialMT-20" transform="scale(0.015625)"/>
       <path id="ArialMT-28" d="M 1497 -1347 
Q 1031 -759 709 28 
Q 388 816 388 1659 
Q 388 2403 628 3084 
Q 909 3875 1497 4659 
L 1900 4659 
Q 1522 4009 1400 3731 
Q 1209 3300 1100 2831 
Q 966 2247 966 1656 
Q 966 153 1900 -1347 
L 1497 -1347 
z
" transform="scale(0.015625)"/>
       <path id="ArialMT-73" d="M 197 991 
L 753 1078 
Q 800 744 1014 566 
Q 1228 388 1613 388 
Q 2000 388 2187 545 
Q 2375 703 2375 916 
Q 2375 1106 2209 1216 
Q 2094 1291 1634 1406 
Q 1016 1563 777 1677 
Q 538 1791 414 1992 
Q 291 2194 291 2438 
Q 291 2659 392 2848 
Q 494 3038 669 3163 
Q 800 3259 1026 3326 
Q 1253 3394 1513 3394 
Q 1903 3394 2198 3281 
Q 2494 3169 2634 2976 
Q 2775 2784 2828 2463 
L 2278 2388 
Q 2241 2644 2061 2787 
Q 1881 2931 1553 2931 
Q 1166 2931 1000 2803 
Q 834 2675 834 2503 
Q 834 2394 903 2306 
Q 972 2216 1119 2156 
Q 1203 2125 1616 2013 
Q 2213 1853 2448 1751 
Q 2684 1650 2818 1456 
Q 2953 1263 2953 975 
Q 2953 694 2789 445 
Q 2625 197 2315 61 
Q 2006 -75 1616 -75 
Q 969 -75 630 194 
Q 291 463 197 991 
z
" transform="scale(0.015625)"/>
       <path id="ArialMT-29" d="M 791 -1347 
L 388 -1347 
Q 1322 153 1322 1656 
Q 1322 2244 1188 2822 
Q 1081 3291 891 3722 
Q 769 4003 388 4659 
L 791 4659 
Q 1378 3875 1659 3084 
Q 1900 2403 1900 1659 
Q 1900 816 1576 28 
Q 1253 -759 791 -1347 
z
" transform="scale(0.015625)"/>
      </defs>
      <use xlink:href="#ArialMT-54"/>
      <use xlink:href="#ArialMT-69" x="57.333984"/>
      <use xlink:href="#ArialMT-6d" x="79.550781"/>
      <use xlink:href="#ArialMT-65" x="162.851562"/>
      <use xlink:href="#ArialMT-20" x="218.466797"/>
      <use xlink:href="#ArialMT-28" x="246.25"/>
      <use xlink:href="#ArialMT-73" x="279.550781"/>
      <use xlink:href="#ArialMT-29" x="329.550781"/>
     </g>
    </g>
   </g>
   <g id="line2d_14">
    <path d="M 288.409091 271.206558 
L 290.930327 395.152025 
L 293.451563 340.620864 
L 295.9728 348.060799 
L 298.494036 353.566286 
L 301.015272 301.39836 
L 303.536508 425.530398 
L 306.057744 339.861486 
L 308.578981 404.863546 
L 311.100217 389.355225 
L 313.621453 323.557782 
L 316.142689 411.85833 
L 318.663926 439.140276 
L 321.185162 388.759506 
L 323.706398 384.913521 
L 326.227634 437.153457 
L 328.74887 395.145478 
L 331.270107 385.453595 
L 333.791343 403.505177 
L 336.312579 394.075149 
L 338.833815 448.488475 
L 404.385957 401.148488 
L 406.907193 435.297564 
L 409.428429 402.847268 
L 411.949666 389.941124 
L 414.470902 424.217853 
L 416.992138 419.998726 
L 419.513374 432.623377 
L 422.034611 358.387679 
L 424.555847 429.585867 
L 429.598319 394.942541 
L 432.119555 424.005097 
L 434.640792 391.273308 
L 437.162028 418.106828 
L 439.683264 422.489615 
L 442.2045 446.000859 
L 444.725736 398.556131 
L 447.246973 422.46343 
L 449.768209 426.237405 
L 452.289445 363.673863 
L 454.810681 424.541898 
L 462.37439 429.432027 
L 464.895626 410.051535 
L 467.416862 418.064277 
L 469.938099 418.800742 
L 472.459335 448.779788 
L 474.980571 451.656912 
L 477.501807 434.610197 
L 480.023044 440.609934 
L 482.54428 412.434409 
L 485.065516 436.181322 
L 487.586752 457.36861 
L 490.107988 433.985019 
L 492.629225 418.064277 
L 495.150461 434.168317 
L 497.671697 451.323048 
L 500.192933 227.404878 
L 502.71417 462.422398 
L 505.235406 441.47078 
L 507.756642 408.192369 
L 510.277878 412.27075 
L 512.799114 296.272562 
L 520.362823 414.712542 
L 522.884059 426.597455 
L 525.405295 436.155137 
L 527.926532 417.746779 
L 530.447768 408.372394 
L 532.969004 437.660799 
L 535.49024 355.268339 
L 538.011477 420.771196 
L 540.532713 396.775521 
L 543.053949 435.772175 
L 545.575185 406.094262 
L 548.096421 441.768639 
L 550.617658 428.931231 
L 553.138894 377.211731 
L 555.66013 453.895767 
L 558.181366 265.219914 
L 560.702603 451.948225 
L 563.223839 383.155824 
L 565.745075 365.605038 
L 568.266311 431.445033 
L 570.787547 441.657351 
L 578.351256 382.422632 
L 580.872492 424.699011 
L 583.393729 392.193071 
L 585.914965 390.726687 
L 588.436201 411.864876 
L 590.957437 421.573125 
L 593.478673 376.269055 
L 595.99991 398.448116 
L 598.521146 407.743944 
L 601.042382 394.078422 
L 603.563618 419.658315 
L 606.084855 382.560105 
L 608.606091 403.289147 
L 611.127327 431.022792 
L 613.648563 405.023932 
L 616.169799 310.177026 
L 618.691036 408.663707 
L 621.212272 409.891149 
L 623.733508 376.714208 
L 626.254744 401.731114 
L 628.77598 416.257482 
L 636.339689 397.475982 
L 638.860925 390.01968 
L 641.382162 428.718474 
L 643.903398 413.900793 
L 646.424634 268.142863 
L 648.94587 414.633986 
L 651.467106 444.691588 
L 653.988343 411.963072 
L 656.509579 365.876712 
L 659.030815 419.979087 
L 661.552051 420.915216 
L 664.073288 384.065768 
L 666.594524 419.167338 
L 669.11576 381.132999 
L 671.636996 389.489425 
L 674.158232 311.440473 
L 676.679469 388.098324 
L 679.200705 394.173344 
L 681.721941 426.338873 
L 684.243177 358.534972 
L 686.764414 407.979613 
L 694.328122 405.387255 
L 696.849358 414.503058 
L 699.370595 430.50563 
L 701.891831 338.247809 
L 704.413067 419.818701 
L 706.934303 369.09752 
L 709.455539 391.797016 
L 711.976776 416.571707 
L 714.498012 388.340539 
L 717.019248 405.704753 
L 719.540484 424.793933 
L 722.061721 419.242621 
L 724.582957 424.139297 
L 727.104193 416.280395 
L 729.625429 395.495708 
L 732.146665 444.328265 
L 734.667902 417.272168 
L 737.189138 430.551455 
L 739.710374 413.370538 
L 742.23161 435.189549 
L 744.752847 437.0749 
L 752.316555 398.474301 
L 754.837791 421.913535 
L 757.359028 373.388658 
L 759.880264 377.136448 
L 762.4015 380.671481 
L 764.922736 422.145931 
L 767.443973 413.871335 
L 769.965209 383.466776 
L 772.486445 368.75711 
L 775.007681 408.009071 
L 777.528917 441.133642 
L 780.050154 368.626183 
L 782.57139 398.762341 
L 785.092626 365.244989 
L 787.613862 417.098689 
L 790.135098 365.428287 
L 792.656335 420.967587 
L 795.177571 282.053873 
L 797.698807 341.138026 
L 802.74128 435.058622 
L 810.304988 435.418672 
L 812.826224 449.182389 
L 815.347461 400.96519 
L 817.868697 419.975814 
L 820.389933 285.903131 
L 822.911169 425.99519 
L 825.432406 449.329682 
L 827.953642 444.747232 
L 830.474878 424.764474 
L 832.996114 432.413893 
L 835.51735 376.481812 
L 838.038587 395.17821 
L 840.559823 351.677662 
L 843.081059 428.512264 
L 845.602295 418.011906 
L 848.123532 342.673147 
L 850.644768 422.983865 
L 853.166004 349.065665 
L 855.68724 443.018993 
L 858.208476 328.559199 
L 860.729713 367.654048 
L 868.293421 401.145215 
L 870.814658 384.389812 
L 873.335894 339.897491 
L 875.85713 309.787518 
L 878.378366 407.773402 
L 880.899602 436.027483 
L 883.420839 432.279693 
L 885.942075 308.556803 
L 888.463311 422.332502 
L 890.984547 386.039494 
L 893.505783 426.283229 
L 896.02702 399.521718 
L 898.548256 408.843732 
L 901.069492 419.677954 
L 903.590728 441.392223 
L 906.111965 432.571006 
L 908.633201 415.367178 
L 911.154437 411.701217 
L 913.675673 427.854355 
L 916.196909 419.556847 
L 918.718146 427.016421 
L 926.281854 381.008618 
L 928.803091 375.728981 
L 931.324327 406.6998 
L 933.845563 410.784727 
L 936.366799 437.700077 
L 938.888035 434.273059 
L 941.409272 437.755721 
L 943.930508 379.597878 
L 946.451744 450.508027 
L 948.97298 450.769881 
L 951.494217 364.331772 
L 954.015453 398.91618 
L 956.536689 422.433971 
L 959.057925 374.334607 
L 961.579161 409.187416 
L 964.100398 401.38743 
L 966.621634 421.782608 
L 969.14287 416.519337 
L 971.664106 389.679269 
L 974.185342 406.830727 
L 976.706579 391.826475 
L 984.270287 373.441029 
L 986.791524 322.95879 
L 989.31276 322.408896 
L 991.833996 400.621507 
L 994.355232 359.513652 
L 996.876468 402.821083 
L 999.397705 437.019256 
L 1001.918941 383.94466 
L 1004.440177 354.82646 
L 1006.961413 388.766052 
L 1009.48265 370.613002 
L 1012.003886 420.869391 
L 1014.525122 376.134855 
L 1017.046358 423.248992 
L 1019.567594 432.361523 
L 1022.088831 347.936418 
L 1024.610067 173.800026 
L 1027.131303 402.353018 
L 1029.652539 418.404688 
L 1032.173776 426.705469 
L 1034.695012 385.381585 
L 1042.25872 424.532079 
L 1044.779957 438.904607 
L 1047.301193 448.413192 
L 1049.822429 400.392384 
L 1052.343665 430.57764 
L 1054.864902 405.675295 
L 1057.386138 417.563481 
L 1059.907374 344.872723 
L 1062.42861 397.250132 
L 1064.949846 237.149131 
L 1067.471083 411.517919 
L 1069.992319 305.542205 
L 1072.513555 436.626475 
L 1075.034791 430.423801 
L 1077.556027 458.726979 
L 1080.077264 284.675689 
L 1082.5985 345.029836 
L 1085.119736 324.271335 
L 1087.640972 452.884354 
L 1090.162209 413.141416 
L 1092.683445 448.936901 
L 1100.247153 374.046567 
L 1102.76839 203.726701 
L 1105.289626 321.639699 
L 1107.810862 403.449533 
L 1110.332098 388.602394 
L 1112.853335 338.800976 
L 1115.374571 389.518884 
L 1117.895807 416.493151 
L 1120.417043 415.10205 
L 1122.938279 386.275163 
L 1125.459516 421.75315 
L 1127.980752 390.93617 
L 1130.501988 384.651667 
L 1133.023224 413.082499 
L 1135.544461 416.385136 
L 1138.065697 422.856211 
L 1140.586933 343.226314 
L 1143.108169 413.69131 
L 1145.629405 391.797016 
L 1148.150642 412.143096 
L 1150.671878 406.755444 
L 1158.235586 420.921762 
L 1160.756823 389.207932 
L 1163.278059 410.657073 
L 1165.799295 347.992063 
L 1168.320531 358.492421 
L 1170.841768 430.787124 
L 1173.363004 376.743666 
L 1175.88424 420.345683 
L 1178.405476 415.39009 
L 1180.926712 430.106302 
L 1183.447949 369.012418 
L 1185.969185 354.351849 
L 1188.490421 347.913506 
L 1191.011657 440.632846 
L 1193.532894 245.237156 
L 1196.05413 434.1094 
L 1198.575366 364.826022 
L 1201.096602 373.054794 
L 1203.617838 434.744397 
L 1206.139075 370.694832 
L 1208.660311 443.804556 
L 1216.22402 435.814726 
L 1218.745256 425.550037 
L 1221.266492 421.307997 
L 1223.787728 447.601444 
L 1226.308964 416.178926 
L 1228.830201 448.203709 
L 1231.351437 435.726351 
L 1233.872673 441.654078 
L 1236.393909 444.897798 
L 1238.915145 452.835257 
L 1241.436382 424.034555 
L 1243.957618 453.463707 
L 1246.478854 429.425481 
L 1249.00009 458.936462 
L 1251.521327 446.396914 
L 1254.042563 430.71184 
L 1256.563799 452.625773 
L 1259.085035 423.690872 
L 1261.606271 447.519614 
L 1264.127508 453.46698 
L 1266.648744 419.684501 
L 1274.212453 323.639611 
L 1276.733689 296.691529 
L 1279.254925 348.699069 
L 1281.776161 347.311241 
L 1284.297397 353.202963 
L 1286.818634 387.450235 
L 1289.33987 377.476858 
L 1291.861106 414.342673 
L 1294.382342 406.804542 
L 1296.903579 375.012155 
L 1299.424815 390.985268 
L 1301.946051 353.016392 
L 1304.467287 412.431136 
L 1306.988523 378.154406 
L 1309.50976 298.524509 
L 1312.030996 378.759944 
L 1314.552232 387.060726 
L 1317.073468 385.021536 
L 1319.594705 364.380869 
L 1322.115941 384.910248 
L 1324.637177 418.692727 
L 1332.200886 314.965687 
L 1334.722122 339.776383 
L 1337.243358 344.483215 
L 1339.764594 358.986671 
L 1342.28583 335.576895 
L 1344.807067 393.027731 
L 1347.328303 375.588234 
L 1349.849539 393.371415 
L 1352.370775 433.039071 
L 1354.892012 322.929331 
L 1357.413248 326.20251 
L 1359.934484 334.555663 
L 1362.45572 358.672445 
L 1364.976956 190.483419 
L 1367.498193 388.975536 
L 1370.019429 339.295226 
L 1372.540665 334.48038 
L 1375.061901 326.382535 
L 1377.583138 335.920579 
L 1380.104374 300.20365 
L 1382.62561 381.75163 
L 1390.189319 399.364606 
L 1392.710555 448.805974 
L 1395.231791 400.572409 
L 1397.753027 451.372146 
L 1400.274264 442.52147 
L 1402.7955 375.012155 
L 1405.316736 430.57764 
L 1407.837972 349.32752 
L 1410.359208 440.295708 
L 1412.880445 416.912118 
L 1415.401681 317.119439 
L 1417.922917 362.210752 
L 1420.444153 335.337953 
L 1422.965389 416.30658 
L 1425.486626 257.072971 
L 1428.007862 319.790353 
L 1430.529098 446.157972 
L 1433.050334 297.159594 
L 1435.571571 394.736331 
L 1438.092807 429.379657 
L 1440.614043 315.152258 
L 1448.177752 413.616027 
L 1450.698988 387.168741 
L 1453.220224 415.655217 
L 1455.74146 420.679547 
L 1458.262697 428.355152 
L 1460.783933 448.776515 
L 1463.305169 444.118781 
L 1465.826405 435.818 
L 1468.347641 422.646728 
L 1470.868878 426.492713 
L 1473.390114 417.956262 
L 1475.91135 408.009071 
L 1478.432586 440.164781 
L 1483.475059 422.620542 
L 1485.996295 410.110452 
L 1488.517531 427.150622 
L 1491.038767 440.240064 
L 1493.560004 428.767572 
L 1496.08124 416.542249 
L 1498.602476 431.314105 
L 1506.166185 492.48 
L 1508.687421 462.186729 
L 1511.208657 309.103424 
L 1513.729893 475.083054 
L 1516.25113 408.689893 
L 1518.772366 442.469099 
L 1521.293602 404.238369 
L 1523.814838 471.957168 
L 1526.336074 401.750753 
L 1528.857311 381.587971 
L 1531.378547 436.390806 
L 1533.899783 442.832422 
L 1536.421019 428.721748 
L 1538.942256 370.639188 
L 1541.463492 381.794181 
L 1543.984728 406.801268 
L 1546.505964 406.27756 
L 1549.0272 425.239085 
L 1551.548437 342.908816 
L 1554.069673 403.999427 
L 1556.590909 433.667521 
L 1556.590909 433.667521 
" clip-path="url(#p30da8713df)" style="fill: none; stroke: #4c72b0; stroke-width: 1.5; stroke-linecap: round"/>
   </g>
   <g id="line2d_15">
    <path d="M 288.409091 421.386554 
L 290.930327 442.652397 
L 293.451563 439.899654 
L 295.9728 431.183178 
L 298.494036 393.371415 
L 301.015272 426.91168 
L 303.536508 373.310102 
L 306.057744 414.093911 
L 308.578981 431.209364 
L 311.100217 429.896819 
L 313.621453 439.827644 
L 316.142689 375.12017 
L 318.663926 421.520754 
L 321.185162 420.944675 
L 323.706398 441.300574 
L 326.227634 409.341255 
L 328.74887 415.419548 
L 331.270107 441.055086 
L 333.791343 341.520988 
L 336.312579 451.797659 
L 338.833815 376.17086 
L 404.385957 424.162209 
L 406.907193 452.665052 
L 409.428429 386.615574 
L 411.949666 289.657468 
L 414.470902 234.690974 
L 416.992138 410.211921 
L 419.513374 379.358936 
L 422.034611 417.772964 
L 424.555847 405.491997 
L 427.077083 441.474053 
L 429.598319 364.148474 
L 432.119555 354.806821 
L 434.640792 390.232437 
L 437.162028 444.56066 
L 439.683264 397.119205 
L 442.2045 401.25323 
L 444.725736 447.74219 
L 447.246973 339.534168 
L 449.768209 430.119395 
L 452.289445 435.006251 
L 454.810681 441.942117 
L 462.37439 437.78518 
L 464.895626 430.482718 
L 467.416862 451.611088 
L 469.938099 437.179642 
L 472.459335 453.231311 
L 474.980571 371.588409 
L 477.501807 429.320739 
L 480.023044 365.012593 
L 482.54428 410.02535 
L 485.065516 388.916619 
L 487.586752 375.696249 
L 490.107988 378.131494 
L 492.629225 434.721485 
L 495.150461 448.442651 
L 497.671697 444.639217 
L 500.192933 451.162662 
L 502.71417 401.174674 
L 505.235406 437.307296 
L 507.756642 450.455656 
L 510.277878 434.976793 
L 512.799114 407.302065 
L 520.362823 398.978371 
L 522.884059 431.553047 
L 525.405295 438.799866 
L 527.926532 420.077282 
L 530.447768 435.971839 
L 532.969004 390.1637 
L 535.49024 432.728119 
L 538.011477 371.637507 
L 540.532713 401.930778 
L 543.053949 414.215019 
L 545.575185 430.184859 
L 548.096421 391.198024 
L 550.617658 416.123282 
L 553.138894 424.921587 
L 555.66013 414.738727 
L 558.181366 436.678846 
L 560.702603 437.045442 
L 563.223839 409.079401 
L 565.745075 421.471656 
L 568.266311 438.646026 
L 570.787547 420.028184 
L 578.351256 375.620966 
L 580.872492 290.537953 
L 583.393729 386.275163 
L 585.914965 381.561786 
L 588.436201 391.508976 
L 590.957437 411.753588 
L 593.478673 401.698382 
L 595.99991 401.54127 
L 598.521146 400.307281 
L 601.042382 418.165746 
L 603.563618 376.507997 
L 606.084855 360.462874 
L 608.606091 381.951294 
L 611.127327 385.813645 
L 613.648563 355.60875 
L 616.169799 393.541621 
L 618.691036 394.232261 
L 621.212272 345.242592 
L 623.733508 364.439787 
L 626.254744 412.984303 
L 628.77598 302.219928 
L 636.339689 385.208107 
L 638.860925 188.781366 
L 641.382162 383.787547 
L 643.903398 372.367426 
L 646.424634 319.449942 
L 648.94587 392.376369 
L 651.467106 282.132429 
L 653.988343 272.420907 
L 656.509579 350.152361 
L 659.030815 404.110715 
L 661.552051 337.062918 
L 664.073288 386.857789 
L 666.594524 412.931932 
L 669.11576 310.805477 
L 671.636996 443.36595 
L 674.158232 375.558775 
L 676.679469 319.528499 
L 679.200705 273.183558 
L 681.721941 279.350227 
L 684.243177 399.109298 
L 686.764414 412.647166 
L 694.328122 399.020922 
L 696.849358 409.174323 
L 699.370595 386.664672 
L 701.891831 418.689454 
L 704.413067 412.067813 
L 706.934303 449.899215 
L 709.455539 452.913813 
L 711.976776 427.726701 
L 714.498012 448.858344 
L 717.019248 440.816144 
L 719.540484 439.719629 
L 722.061721 421.985545 
L 724.582957 441.444594 
L 727.104193 434.718211 
L 729.625429 423.062421 
L 732.146665 448.409919 
L 734.667902 371.031969 
L 737.189138 373.990923 
L 739.710374 403.740846 
L 742.23161 426.230858 
L 744.752847 421.046143 
L 752.316555 409.629295 
L 754.837791 374.949964 
L 757.359028 418.165746 
L 759.880264 428.0442 
L 762.4015 441.418409 
L 764.922736 410.863283 
L 767.443973 413.007216 
L 769.965209 386.114778 
L 772.486445 422.568171 
L 775.007681 387.689177 
L 777.528917 435.500501 
L 780.050154 372.184128 
L 782.57139 439.009349 
L 785.092626 458.438939 
L 787.613862 409.707851 
L 790.135098 428.797031 
L 792.656335 394.598857 
L 795.177571 429.926277 
L 797.698807 408.765176 
L 800.220043 437.441496 
L 802.74128 352.731626 
L 810.304988 288.927549 
L 812.826224 324.088037 
L 815.347461 272.941343 
L 817.868697 306.851477 
L 820.389933 272.447093 
L 822.911169 336.715961 
L 825.432406 232.907091 
L 827.953642 375.332926 
L 830.474878 218.58366 
L 832.996114 351.261968 
L 835.51735 339.167572 
L 838.038587 306.147743 
L 840.559823 346.705703 
L 843.081059 393.764197 
L 845.602295 384.992077 
L 848.123532 413.822237 
L 850.644768 357.677399 
L 853.166004 398.268091 
L 855.68724 373.208633 
L 858.208476 163.100004 
L 860.729713 395.525167 
L 868.293421 344.925094 
L 870.814658 419.602671 
L 873.335894 441.762092 
L 875.85713 408.031984 
L 878.378366 424.712103 
L 880.899602 384.808779 
L 883.420839 444.069684 
L 885.942075 372.972964 
L 888.463311 434.924422 
L 890.984547 301.980986 
L 893.505783 409.452543 
L 896.02702 413.97935 
L 898.548256 350.715347 
L 901.069492 377.211731 
L 903.590728 408.843732 
L 906.111965 425.157256 
L 908.633201 420.499522 
L 911.154437 412.722449 
L 913.675673 384.57311 
L 916.196909 375.866454 
L 918.718146 394.808341 
L 926.281854 407.488636 
L 928.803091 428.747933 
L 931.324327 333.305309 
L 933.845563 431.183178 
L 936.366799 362.865388 
L 938.888035 399.181308 
L 941.409272 400.310555 
L 943.930508 397.351601 
L 946.451744 406.961654 
L 948.97298 423.877443 
L 951.494217 449.22494 
L 954.015453 413.97935 
L 956.536689 388.03286 
L 959.057925 419.841613 
L 961.579161 377.15936 
L 964.100398 459.748211 
L 966.621634 429.45494 
L 969.14287 411.910701 
L 971.664106 317.718431 
L 974.185342 359.759141 
L 976.706579 337.09565 
L 984.270287 351.733306 
L 986.791524 441.297301 
L 989.31276 420.496249 
L 991.833996 414.080818 
L 994.355232 381.905469 
L 996.876468 327.040444 
L 999.397705 387.977216 
L 1001.918941 386.059133 
L 1004.440177 345.294963 
L 1006.961413 448.491748 
L 1009.48265 430.08339 
L 1012.003886 375.905732 
L 1014.525122 263.121806 
L 1017.046358 294.469041 
L 1019.567594 444.298806 
L 1022.088831 416.385136 
L 1024.610067 333.540978 
L 1027.131303 303.316443 
L 1029.652539 304.232933 
L 1032.173776 398.634687 
L 1034.695012 360.606894 
L 1042.25872 385.3554 
L 1044.779957 471.119234 
L 1047.301193 430.760938 
L 1049.822429 426.885494 
L 1052.343665 453.935045 
L 1054.864902 331.678539 
L 1057.386138 394.183164 
L 1059.907374 389.620352 
L 1062.42861 368.547626 
L 1064.949846 462.815179 
L 1067.471083 338.221623 
L 1069.992319 421.019958 
L 1072.513555 420.574805 
L 1075.034791 461.849592 
L 1077.556027 367.339823 
L 1080.077264 362.73446 
L 1082.5985 405.203957 
L 1085.119736 467.423815 
L 1087.640972 425.523852 
L 1090.162209 395.751016 
L 1092.683445 436.786861 
L 1100.247153 346.83663 
L 1102.76839 412.850103 
L 1105.289626 391.56462 
L 1107.810862 356.891836 
L 1110.332098 384.596023 
L 1112.853335 397.744382 
L 1115.374571 400.647692 
L 1117.895807 424.738289 
L 1120.417043 366.969954 
L 1122.938279 247.816421 
L 1125.459516 455.296687 
L 1127.980752 426.41743 
L 1130.501988 410.339575 
L 1133.023224 387.247297 
L 1135.544461 429.716794 
L 1138.065697 395.256766 
L 1140.586933 399.809758 
L 1143.108169 425.70715 
L 1145.629405 386.929799 
L 1148.150642 438.069947 
L 1150.671878 428.790484 
L 1158.235586 362.993042 
L 1160.756823 410.133365 
L 1163.278059 419.134607 
L 1165.799295 397.538172 
L 1168.320531 414.633986 
L 1170.841768 361.107691 
L 1173.363004 442.858607 
L 1175.88424 434.610197 
L 1178.405476 407.010752 
L 1180.926712 323.610153 
L 1183.447949 324.608472 
L 1185.969185 333.380592 
L 1188.490421 406.202277 
L 1191.011657 397.688738 
L 1193.532894 380.645296 
L 1196.05413 425.579496 
L 1198.575366 374.278963 
L 1201.096602 312.114748 
L 1203.617838 429.438574 
L 1206.139075 428.299508 
L 1208.660311 426.649825 
L 1216.22402 396.441657 
L 1218.745256 345.975784 
L 1221.266492 398.631414 
L 1223.787728 409.94352 
L 1226.308964 319.996563 
L 1228.830201 417.144514 
L 1231.351437 432.096395 
L 1233.872673 418.565073 
L 1236.393909 396.955546 
L 1238.915145 415.655217 
L 1241.436382 364.642724 
L 1243.957618 440.321894 
L 1246.478854 343.694379 
L 1249.00009 431.654516 
L 1251.521327 417.22307 
L 1254.042563 456.897272 
L 1256.563799 439.984756 
L 1259.085035 439.97821 
L 1261.606271 262.39516 
L 1264.127508 420.738464 
L 1266.648744 431.333744 
L 1274.212453 356.449957 
L 1276.733689 413.90734 
L 1279.254925 421.573125 
L 1281.776161 390.805243 
L 1284.297397 410.130091 
L 1286.818634 384.566564 
L 1289.33987 426.361786 
L 1291.861106 409.10886 
L 1294.382342 437.99139 
L 1296.903579 320.834497 
L 1299.424815 347.939692 
L 1301.946051 440.348079 
L 1304.467287 406.650702 
L 1306.988523 429.320739 
L 1309.50976 351.527096 
L 1312.030996 397.191215 
L 1314.552232 403.894685 
L 1317.073468 383.578064 
L 1319.594705 403.423348 
L 1322.115941 387.921572 
L 1324.637177 359.330354 
L 1332.200886 330.506741 
L 1334.722122 383.947933 
L 1337.243358 329.082908 
L 1339.764594 403.226957 
L 1342.28583 259.252909 
L 1344.807067 393.577625 
L 1347.328303 388.628579 
L 1349.849539 374.68811 
L 1352.370775 385.594342 
L 1354.892012 298.603066 
L 1357.413248 342.918635 
L 1359.934484 361.579028 
L 1364.976956 328.53956 
L 1367.498193 422.424151 
L 1370.019429 400.673877 
L 1372.540665 311.358644 
L 1375.061901 404.133628 
L 1377.583138 302.504695 
L 1380.104374 364.439787 
L 1382.62561 363.647677 
L 1390.189319 441.477326 
L 1392.710555 406.254647 
L 1395.231791 408.53278 
L 1397.753027 300.308392 
L 1400.274264 382.530647 
L 1402.7955 428.361698 
L 1405.316736 434.852412 
L 1407.837972 347.674564 
L 1410.359208 406.935469 
L 1412.880445 347.25887 
L 1415.401681 245.083317 
L 1417.922917 371.143257 
L 1420.444153 373.990923 
L 1422.965389 350.640064 
L 1425.486626 309.492932 
L 1428.007862 406.938742 
L 1430.529098 324.844141 
L 1433.050334 440.737587 
L 1435.571571 424.633547 
L 1438.092807 326.411994 
L 1440.614043 341.62573 
L 1448.177752 417.327812 
L 1450.698988 435.065168 
L 1453.220224 441.680263 
L 1455.74146 379.358936 
L 1458.262697 365.274447 
L 1460.783933 393.05719 
L 1463.305169 433.69698 
L 1465.826405 443.93221 
L 1468.347641 442.888066 
L 1470.868878 424.031282 
L 1473.390114 357.602116 
L 1475.91135 407.855232 
L 1478.432586 416.336039 
L 1480.953823 445.555707 
L 1483.475059 424.476435 
L 1485.996295 428.905046 
L 1488.517531 447.578531 
L 1491.038767 435.215735 
L 1493.560004 431.340291 
L 1496.08124 431.026066 
L 1498.602476 448.756876 
L 1506.166185 357.078407 
L 1508.687421 450.121791 
L 1511.208657 449.562078 
L 1513.729893 407.613017 
L 1516.25113 435.500501 
L 1518.772366 433.169998 
L 1523.814838 425.317642 
L 1526.336074 393.397601 
L 1528.857311 484.467258 
L 1531.378547 387.633533 
L 1533.899783 425.743155 
L 1536.421019 376.609466 
L 1538.942256 404.601692 
L 1541.463492 376.190499 
L 1543.984728 444.06641 
L 1546.505964 397.714924 
L 1549.0272 426.099931 
L 1551.548437 439.611614 
L 1554.069673 454.795891 
L 1556.590909 452.311548 
L 1556.590909 452.311548 
" clip-path="url(#p30da8713df)" style="fill: none; stroke: #dd8452; stroke-width: 1.5; stroke-linecap: round"/>
   </g>
   <g id="line2d_16">
    <path d="M 288.409091 360.950578 
L 290.930327 444.491924 
L 293.451563 455.061018 
L 295.9728 406.928922 
L 298.494036 445.663722 
L 301.015272 452.995643 
L 303.536508 451.525985 
L 306.057744 457.417707 
L 308.578981 431.726526 
L 311.100217 446.265987 
L 313.621453 442.308713 
L 316.142689 409.265972 
L 318.663926 465.116224 
L 321.185162 457.99706 
L 323.706398 456.373563 
L 326.227634 450.246172 
L 328.74887 450.900808 
L 331.270107 434.430172 
L 333.791343 344.79744 
L 336.312579 423.861077 
L 338.833815 453.882674 
L 404.385957 413.252704 
L 406.907193 429.621872 
L 409.428429 435.300837 
L 411.949666 445.516429 
L 414.470902 428.747933 
L 416.992138 456.45212 
L 419.513374 457.551908 
L 422.034611 434.512001 
L 424.555847 433.32711 
L 427.077083 451.817298 
L 429.598319 432.417167 
L 432.119555 438.305616 
L 434.640792 416.388409 
L 437.162028 451.84021 
L 439.683264 423.01005 
L 442.2045 421.520754 
L 444.725736 351.108129 
L 447.246973 424.014916 
L 449.768209 444.302079 
L 452.289445 422.486342 
L 454.810681 422.774382 
L 462.37439 371.742249 
L 464.895626 407.770129 
L 467.416862 286.583953 
L 469.938099 422.568171 
L 472.459335 408.873191 
L 474.980571 377.414668 
L 477.501807 363.10433 
L 480.023044 425.134344 
L 482.54428 418.614171 
L 485.065516 434.81968 
L 487.586752 434.692026 
L 490.107988 334.650585 
L 492.629225 377.578327 
L 497.671697 417.327812 
L 500.192933 353.304432 
L 502.71417 414.136462 
L 505.235406 435.500501 
L 507.756642 429.062158 
L 510.277878 447.179204 
L 512.799114 439.850556 
L 520.362823 401.089571 
L 522.884059 420.892304 
L 525.405295 435.818 
L 527.926532 439.955298 
L 530.447768 375.584961 
L 532.969004 429.772438 
L 535.49024 420.129653 
L 538.011477 425.055787 
L 540.532713 434.793495 
L 543.053949 420.528981 
L 545.575185 415.835242 
L 548.096421 428.669377 
L 550.617658 393.034278 
L 553.138894 434.377801 
L 555.66013 434.561099 
L 558.181366 425.000143 
L 560.702603 438.770407 
L 563.223839 427.094978 
L 565.745075 425.576223 
L 568.266311 436.731216 
L 570.787547 372.42307 
L 578.351256 340.178984 
L 580.872492 303.398273 
L 583.393729 362.999588 
L 585.914965 327.583792 
L 588.436201 334.084325 
L 590.957437 394.991639 
L 593.478673 359.454735 
L 595.99991 329.210562 
L 598.521146 375.647151 
L 601.042382 418.931669 
L 603.563618 402.667243 
L 606.084855 378.799223 
L 608.606091 389.675996 
L 611.127327 351.828228 
L 613.648563 307.067506 
L 616.169799 401.357972 
L 618.691036 393.996592 
L 621.212272 418.610898 
L 623.733508 416.070911 
L 626.254744 395.04401 
L 628.77598 413.033401 
L 636.339689 321.122537 
L 638.860925 369.801254 
L 641.382162 414.76164 
L 643.903398 347.566549 
L 646.424634 349.340612 
L 648.94587 415.553749 
L 651.467106 440.819417 
L 653.988343 393.289586 
L 656.509579 431.314105 
L 659.030815 430.502357 
L 661.552051 420.182024 
L 664.073288 368.668734 
L 666.594524 327.868558 
L 669.11576 409.828959 
L 671.636996 439.559243 
L 674.158232 401.593641 
L 676.679469 420.047823 
L 679.200705 450.377099 
L 681.721941 414.732181 
L 684.243177 435.160091 
L 686.764414 445.686634 
L 694.328122 388.25871 
L 696.849358 407.036937 
L 699.370595 419.291719 
L 701.891831 414.241204 
L 704.413067 433.641336 
L 706.934303 425.052514 
L 709.455539 434.403986 
L 711.976776 420.918489 
L 714.498012 403.58046 
L 717.019248 405.125401 
L 719.540484 431.631604 
L 722.061721 348.433942 
L 724.582957 433.693706 
L 727.104193 354.11618 
L 729.625429 426.312688 
L 732.146665 426.656372 
L 734.667902 378.913784 
L 737.189138 434.142132 
L 739.710374 387.744821 
L 742.23161 422.987138 
L 744.752847 442.338172 
L 752.316555 433.69698 
L 754.837791 445.401867 
L 757.359028 435.474316 
L 759.880264 391.302766 
L 762.4015 446.423099 
L 764.922736 432.963788 
L 767.443973 413.976077 
L 769.965209 439.408677 
L 772.486445 435.346662 
L 775.007681 426.099931 
L 777.528917 444.118781 
L 780.050154 440.321894 
L 782.57139 440.213879 
L 785.092626 457.921777 
L 787.613862 459.20159 
L 790.135098 449.778108 
L 792.656335 456.268822 
L 795.177571 388.419095 
L 797.698807 434.849139 
L 800.220043 434.246874 
L 802.74128 439.536331 
L 810.304988 332.064774 
L 812.826224 425.900267 
L 815.347461 421.389827 
L 817.868697 428.037653 
L 820.389933 446.864978 
L 822.911169 460.042797 
L 825.432406 445.712819 
L 827.953642 448.67832 
L 830.474878 416.388409 
L 832.996114 438.960251 
L 835.51735 342.178897 
L 838.038587 337.292041 
L 840.559823 444.298806 
L 843.081059 438.256518 
L 845.602295 418.925123 
L 848.123532 445.140013 
L 850.644768 419.815428 
L 853.166004 407.380621 
L 855.68724 416.10037 
L 858.208476 368.413426 
L 860.729713 431.438486 
L 868.293421 389.59744 
L 870.814658 415.10205 
L 873.335894 416.385136 
L 875.85713 418.270487 
L 878.378366 398.529945 
L 880.899602 426.937865 
L 883.420839 429.72334 
L 885.942075 420.551893 
L 888.463311 421.154158 
L 890.984547 398.870356 
L 893.505783 439.768727 
L 896.02702 430.397615 
L 898.548256 419.27208 
L 901.069492 406.824181 
L 903.590728 388.631852 
L 906.111965 424.427337 
L 908.633201 439.48396 
L 911.154437 446.599851 
L 913.675673 443.752185 
L 916.196909 431.762531 
L 918.718146 443.225203 
L 926.281854 397.898222 
L 928.803091 423.196622 
L 931.324327 449.643907 
L 933.845563 448.125152 
L 936.366799 439.873468 
L 938.888035 281.84439 
L 941.409272 429.356744 
L 943.930508 418.509429 
L 946.451744 428.486079 
L 948.97298 397.246859 
L 951.494217 432.9867 
L 954.015453 427.880541 
L 956.536689 444.50829 
L 959.057925 442.334899 
L 961.579161 442.023947 
L 964.100398 357.183149 
L 966.621634 429.919731 
L 969.14287 405.102488 
L 971.664106 461.397893 
L 974.185342 442.888066 
L 976.706579 436.289337 
L 984.270287 419.763057 
L 986.791524 448.076055 
L 989.31276 319.816538 
L 991.833996 409.085947 
L 994.355232 376.406529 
L 996.876468 367.077969 
L 999.397705 382.422632 
L 1001.918941 413.97935 
L 1004.440177 425.104885 
L 1006.961413 443.673629 
L 1009.48265 388.946077 
L 1012.003886 440.531377 
L 1014.525122 405.570553 
L 1017.046358 449.352594 
L 1019.567594 435.474316 
L 1022.088831 420.286766 
L 1024.610067 380.48491 
L 1027.131303 321.12581 
L 1029.652539 381.450498 
L 1032.173776 410.103906 
L 1034.695012 345.740115 
L 1042.25872 455.666557 
L 1044.779957 411.645573 
L 1049.822429 460.952741 
L 1052.343665 446.684954 
L 1054.864902 453.597908 
L 1057.386138 352.941109 
L 1059.907374 402.195906 
L 1062.42861 417.746779 
L 1064.949846 434.060302 
L 1067.471083 433.405667 
L 1069.992319 439.768727 
L 1072.513555 404.028886 
L 1075.034791 413.111957 
L 1077.556027 440.030581 
L 1080.077264 420.761376 
L 1082.5985 456.134621 
L 1085.119736 424.191668 
L 1087.640972 412.958118 
L 1090.162209 452.21008 
L 1092.683445 411.465548 
L 1100.247153 439.559243 
L 1102.76839 410.977845 
L 1105.289626 437.22874 
L 1107.810862 416.486605 
L 1110.332098 385.669625 
L 1112.853335 426.728382 
L 1115.374571 392.219256 
L 1117.895807 425.762794 
L 1120.417043 417.376909 
L 1122.938279 457.758118 
L 1125.459516 421.704052 
L 1127.980752 396.484208 
L 1130.501988 427.412476 
L 1133.023224 437.804819 
L 1135.544461 451.525985 
L 1138.065697 315.859265 
L 1140.586933 415.786145 
L 1143.108169 444.747232 
L 1145.629405 458.831721 
L 1148.150642 456.37029 
L 1150.671878 417.854794 
L 1158.235586 336.257716 
L 1160.756823 393.220849 
L 1163.278059 437.179642 
L 1165.799295 378.701027 
L 1168.320531 343.514354 
L 1173.363004 436.210781 
L 1175.88424 418.061004 
L 1178.405476 414.791098 
L 1180.926712 382.658301 
L 1183.447949 407.979613 
L 1185.969185 417.22307 
L 1188.490421 441.156554 
L 1191.011657 427.801984 
L 1193.532894 441.968303 
L 1196.05413 422.594357 
L 1198.575366 441.549336 
L 1201.096602 418.663269 
L 1203.617838 433.065256 
L 1206.139075 437.935746 
L 1208.660311 390.199705 
L 1216.22402 425.052514 
L 1218.745256 456.45212 
L 1221.266492 458.573139 
L 1223.787728 461.659747 
L 1228.830201 454.746793 
L 1231.351437 459.617284 
L 1233.872673 450.792793 
L 1236.393909 460.90037 
L 1238.915145 463.571284 
L 1241.436382 463.492727 
L 1243.957618 466.556423 
L 1246.478854 449.303497 
L 1249.00009 461.270239 
L 1251.521327 432.672475 
L 1254.042563 465.302795 
L 1256.563799 377.185545 
L 1259.085035 464.124451 
L 1261.606271 459.198317 
L 1264.127508 463.679299 
L 1266.648744 468.913112 
L 1274.212453 456.134621 
L 1276.733689 436.865417 
L 1279.254925 464.36012 
L 1281.776161 456.661603 
L 1284.297397 451.342687 
L 1286.818634 432.305879 
L 1289.33987 463.230873 
L 1291.861106 473.417006 
L 1294.382342 428.070385 
L 1296.903579 467.944251 
L 1299.424815 435.994751 
L 1301.946051 440.868515 
L 1304.467287 411.989257 
L 1306.988523 465.014756 
L 1309.50976 464.98857 
L 1312.030996 441.81119 
L 1314.552232 447.496702 
L 1317.073468 421.101787 
L 1319.594705 467.495825 
L 1322.115941 463.702211 
L 1324.637177 448.832159 
L 1332.200886 415.841789 
L 1334.722122 413.773139 
L 1337.243358 445.061457 
L 1339.764594 416.620805 
L 1342.28583 403.583733 
L 1344.807067 384.389812 
L 1347.328303 392.76915 
L 1349.849539 359.539838 
L 1352.370775 390.543389 
L 1354.892012 363.647677 
L 1357.413248 421.939721 
L 1359.934484 407.825773 
L 1362.45572 394.886897 
L 1364.976956 411.7765 
L 1367.498193 430.891865 
L 1370.019429 427.202993 
L 1372.540665 430.790397 
L 1375.061901 431.179905 
L 1377.583138 437.65098 
L 1380.104374 424.374966 
L 1382.62561 406.071349 
L 1390.189319 393.574352 
L 1392.710555 451.98423 
L 1395.231791 444.302079 
L 1397.753027 438.276157 
L 1400.274264 423.615589 
L 1402.7955 369.932181 
L 1405.316736 461.767762 
L 1407.837972 431.706887 
L 1410.359208 383.31621 
L 1412.880445 445.689907 
L 1415.401681 433.592238 
L 1417.922917 448.328089 
L 1420.444153 446.370728 
L 1422.965389 418.142833 
L 1425.486626 450.347641 
L 1428.007862 433.628243 
L 1430.529098 453.751747 
L 1433.050334 446.96972 
L 1435.571571 346.447122 
L 1438.092807 452.596315 
L 1440.614043 458.337471 
L 1448.177752 422.95768 
L 1450.698988 442.361084 
L 1453.220224 438.069947 
L 1455.74146 405.622924 
L 1458.262697 443.385589 
L 1460.783933 411.151323 
L 1463.305169 419.003679 
L 1465.826405 410.915654 
L 1468.347641 436.970159 
L 1470.868878 439.644346 
L 1473.390114 436.783587 
L 1475.91135 448.046596 
L 1478.432586 436.547918 
L 1480.953823 421.776062 
L 1483.475059 434.246874 
L 1485.996295 433.562779 
L 1488.517531 427.072065 
L 1491.038767 424.453522 
L 1493.560004 423.798887 
L 1496.08124 430.053931 
L 1498.602476 428.53845 
L 1506.166185 332.513199 
L 1508.687421 393.453245 
L 1511.208657 394.863985 
L 1513.729893 361.736141 
L 1516.25113 380.776223 
L 1518.772366 398.634687 
L 1521.293602 399.993056 
L 1523.814838 377.86964 
L 1526.336074 323.819636 
L 1528.857311 370.410065 
L 1531.378547 398.948912 
L 1533.899783 407.717758 
L 1536.421019 417.746779 
L 1538.942256 337.491705 
L 1541.463492 385.329215 
L 1543.984728 331.469055 
L 1546.505964 383.470049 
L 1549.0272 430.161946 
L 1551.548437 374.383704 
L 1554.069673 431.392662 
L 1556.590909 378.393348 
L 1556.590909 378.393348 
" clip-path="url(#p30da8713df)" style="fill: none; stroke: #55a868; stroke-width: 1.5; stroke-linecap: round"/>
   </g>
   <g id="line2d_17">
    <path d="M 288.409091 389.558162 
L 290.930327 427.019695 
L 293.451563 393.976953 
L 295.9728 441.18274 
L 298.494036 433.772263 
L 301.015272 450.694598 
L 303.536508 427.726701 
L 306.057744 416.254209 
L 308.578981 443.598346 
L 311.100217 444.351177 
L 313.621453 439.297389 
L 316.142689 443.595073 
L 318.663926 451.234672 
L 321.185162 456.006967 
L 323.706398 442.547655 
L 326.227634 443.883112 
L 328.74887 460.193363 
L 331.270107 438.331801 
L 333.791343 455.198492 
L 336.312579 453.751747 
L 338.833815 452.442475 
L 404.385957 362.112556 
L 406.907193 339.609451 
L 409.428429 370.305323 
L 411.949666 371.558951 
L 414.470902 381.352302 
L 416.992138 402.058432 
L 419.513374 421.494569 
L 422.034611 389.787284 
L 424.555847 429.684062 
L 427.077083 436.682119 
L 429.598319 412.116911 
L 432.119555 415.177333 
L 434.640792 383.866104 
L 437.162028 414.843469 
L 439.683264 433.988293 
L 442.2045 419.13788 
L 444.725736 437.647707 
L 447.246973 432.567733 
L 449.768209 435.451404 
L 452.289445 422.620542 
L 454.810681 403.141854 
L 462.37439 368.999325 
L 464.895626 457.263868 
L 467.416862 439.192647 
L 469.938099 418.898938 
L 472.459335 421.101787 
L 474.980571 411.256065 
L 477.501807 430.973695 
L 480.023044 387.106551 
L 482.54428 458.936462 
L 485.065516 444.14824 
L 487.586752 389.626899 
L 490.107988 357.706858 
L 492.629225 414.188833 
L 495.150461 453.627366 
L 497.671697 452.288636 
L 500.192933 419.422646 
L 502.71417 383.551878 
L 505.235406 413.138143 
L 507.756642 416.702635 
L 510.277878 445.585165 
L 512.799114 386.484647 
L 520.362823 371.637507 
L 522.884059 432.178225 
L 525.405295 437.546238 
L 527.926532 432.989973 
L 530.447768 399.574089 
L 532.969004 422.250673 
L 535.49024 417.435827 
L 538.011477 437.101086 
L 540.532713 429.690609 
L 543.053949 397.01119 
L 545.575185 434.374528 
L 548.096421 418.198477 
L 550.617658 443.238296 
L 553.138894 434.32543 
L 555.66013 435.163364 
L 558.181366 425.788979 
L 560.702603 433.379481 
L 563.223839 412.62098 
L 565.745075 439.716356 
L 568.266311 438.646026 
L 570.787547 449.463883 
L 578.351256 393.990046 
L 580.872492 410.742176 
L 583.393729 305.93826 
L 585.914965 299.784683 
L 588.436201 411.805959 
L 590.957437 422.774382 
L 593.478673 412.902474 
L 595.99991 404.942103 
L 598.521146 416.388409 
L 601.042382 415.629032 
L 603.563618 446.724232 
L 606.084855 427.831443 
L 608.606091 445.791376 
L 611.127327 398.975098 
L 613.648563 412.012169 
L 616.169799 415.966169 
L 618.691036 417.147787 
L 621.212272 420.862845 
L 623.733508 426.842943 
L 626.254744 434.03739 
L 628.77598 427.094978 
L 636.339689 449.912308 
L 638.860925 382.268792 
L 641.382162 397.511987 
L 643.903398 399.809758 
L 646.424634 408.130179 
L 648.94587 355.40254 
L 651.467106 360.701816 
L 653.988343 442.924071 
L 656.509579 446.737324 
L 659.030815 447.418146 
L 661.552051 365.559214 
L 664.073288 195.386641 
L 666.594524 437.281111 
L 669.11576 441.788278 
L 671.636996 466.271656 
L 674.158232 426.888767 
L 676.679469 434.980066 
L 679.200705 374.046567 
L 681.721941 454.304914 
L 684.243177 395.67246 
L 686.764414 435.333569 
L 694.328122 231.211585 
L 696.849358 323.066805 
L 699.370595 389.623625 
L 701.891831 387.924845 
L 704.413067 389.679269 
L 706.934303 411.596475 
L 709.455539 351.998434 
L 711.976776 426.050834 
L 714.498012 432.047297 
L 717.019248 398.660872 
L 722.061721 441.441321 
L 724.582957 400.438209 
L 727.104193 374.727388 
L 729.625429 414.974396 
L 732.146665 425.026329 
L 734.667902 410.130091 
L 737.189138 408.660434 
L 739.710374 419.897257 
L 742.23161 393.19139 
L 744.752847 411.985984 
L 752.316555 446.838793 
L 754.837791 470.094729 
L 757.359028 451.997323 
L 759.880264 431.49413 
L 762.4015 449.535892 
L 764.922736 446.554026 
L 767.443973 457.99706 
L 769.965209 459.198317 
L 772.486445 459.044477 
L 775.007681 453.673191 
L 777.528917 459.669654 
L 780.050154 436.128952 
L 782.57139 457.839947 
L 785.092626 422.280132 
L 787.613862 413.609481 
L 790.135098 453.647005 
L 792.656335 438.384172 
L 795.177571 455.898952 
L 797.698807 438.590382 
L 800.220043 425.209627 
L 802.74128 447.153018 
L 810.304988 434.580738 
L 812.826224 452.455568 
L 815.347461 376.848408 
L 817.868697 452.786159 
L 820.389933 421.416012 
L 822.911169 366.685187 
L 825.432406 441.205652 
L 827.953642 415.367178 
L 830.474878 401.357972 
L 832.996114 453.336053 
L 835.51735 452.052967 
L 838.038587 409.688212 
L 840.559823 442.181059 
L 843.081059 409.632568 
L 845.602295 371.136711 
L 848.123532 451.738742 
L 850.644768 382.867784 
L 853.166004 456.029879 
L 858.208476 310.67455 
L 860.729713 401.524904 
L 868.293421 341.684647 
L 870.814658 234.216363 
L 873.335894 406.886371 
L 875.85713 393.499069 
L 878.378366 373.938552 
L 880.899602 362.577348 
L 883.420839 380.717305 
L 885.942075 378.393348 
L 888.463311 413.324714 
L 890.984547 369.280818 
L 893.505783 378.838501 
L 896.02702 417.776237 
L 898.548256 401.043747 
L 901.069492 417.065957 
L 903.590728 363.706595 
L 906.111965 420.447151 
L 908.633201 398.713243 
L 911.154437 388.108143 
L 913.675673 429.612052 
L 916.196909 426.731655 
L 918.718146 382.321163 
L 926.281854 428.090024 
L 928.803091 393.266673 
L 931.324327 447.657088 
L 933.845563 450.560397 
L 936.366799 448.675046 
L 938.888035 460.694159 
L 941.409272 392.713506 
L 943.930508 420.345683 
L 946.451744 444.691588 
L 948.97298 448.30845 
L 951.494217 454.173987 
L 954.015453 462.422398 
L 956.536689 448.036777 
L 959.057925 450.743695 
L 961.579161 460.059163 
L 964.100398 458.360383 
L 966.621634 422.486342 
L 969.14287 391.639904 
L 971.664106 458.808808 
L 974.185342 445.608078 
L 976.706579 385.512513 
L 984.270287 414.054633 
L 986.791524 411.331348 
L 989.31276 425.478027 
L 991.833996 321.646245 
L 994.355232 394.654501 
L 996.876468 431.91637 
L 999.397705 446.62931 
L 1001.918941 393.528528 
L 1004.440177 425.50094 
L 1006.961413 429.219271 
L 1009.48265 418.061004 
L 1012.003886 427.700516 
L 1014.525122 397.007917 
L 1017.046358 428.142395 
L 1019.567594 446.940262 
L 1022.088831 433.169998 
L 1024.610067 442.780051 
L 1027.131303 436.757402 
L 1029.652539 424.083653 
L 1032.173776 424.764474 
L 1034.695012 439.562516 
L 1042.25872 355.631662 
L 1044.779957 462.946107 
L 1047.301193 457.185312 
L 1049.822429 450.400012 
L 1052.343665 461.244053 
L 1054.864902 418.951309 
L 1057.386138 425.317642 
L 1059.907374 445.27094 
L 1062.42861 407.878144 
L 1064.949846 406.303745 
L 1067.471083 445.398594 
L 1069.992319 403.433167 
L 1072.513555 428.063839 
L 1075.034791 459.957694 
L 1077.556027 461.581191 
L 1080.077264 466.376398 
L 1082.5985 455.663283 
L 1085.119736 477.321908 
L 1087.640972 468.048992 
L 1090.162209 464.880555 
L 1092.683445 465.48282 
L 1100.247153 431.726526 
L 1102.76839 375.257643 
L 1105.289626 417.615852 
L 1107.810862 416.44078 
L 1110.332098 440.711402 
L 1112.853335 401.145215 
L 1115.374571 395.462977 
L 1117.895807 383.443864 
L 1120.417043 435.818 
L 1122.938279 445.876478 
L 1125.459516 423.481388 
L 1127.980752 424.793933 
L 1130.501988 448.963086 
L 1133.023224 363.097783 
L 1135.544461 406.647429 
L 1138.065697 433.588965 
L 1140.586933 404.339838 
L 1143.108169 442.102503 
L 1145.629405 382.321163 
L 1148.150642 366.34805 
L 1150.671878 443.50997 
L 1158.235586 432.489177 
L 1160.756823 423.465022 
L 1163.278059 435.533233 
L 1165.799295 405.835681 
L 1168.320531 443.637624 
L 1170.841768 396.039056 
L 1173.363004 446.76351 
L 1175.88424 433.981746 
L 1180.926712 436.688665 
L 1183.447949 354.11618 
L 1185.969185 427.648145 
L 1188.490421 417.484924 
L 1191.011657 401.485626 
L 1193.532894 422.17539 
L 1196.05413 434.115947 
L 1198.575366 423.01005 
L 1201.096602 373.391931 
L 1203.617838 418.610898 
L 1206.139075 398.346647 
L 1208.660311 415.367178 
L 1216.22402 363.703321 
L 1218.745256 451.948225 
L 1221.266492 452.12825 
L 1223.787728 452.943272 
L 1226.308964 376.298514 
L 1228.830201 423.09188 
L 1231.351437 394.628316 
L 1233.872673 446.861705 
L 1236.393909 455.643644 
L 1238.915145 392.320725 
L 1241.436382 448.491748 
L 1243.957618 457.496264 
L 1246.478854 428.823216 
L 1249.00009 438.619841 
L 1251.521327 446.734051 
L 1254.042563 449.408238 
L 1256.563799 462.343842 
L 1259.085035 459.83004 
L 1266.648744 412.274024 
L 1274.212453 412.902474 
L 1276.733689 461.640108 
L 1279.254925 390.281534 
L 1281.776161 446.554026 
L 1286.818634 356.289571 
L 1289.33987 423.825072 
L 1291.861106 413.06286 
L 1294.382342 435.444857 
L 1296.903579 471.318898 
L 1299.424815 443.382316 
L 1301.946051 426.414156 
L 1304.467287 460.641789 
L 1306.988523 446.501656 
L 1309.50976 468.994941 
L 1312.030996 421.023231 
L 1314.552232 441.395496 
L 1317.073468 413.141416 
L 1319.594705 457.679562 
L 1322.115941 453.463707 
L 1324.637177 450.900808 
L 1332.200886 451.866396 
L 1334.722122 425.235812 
L 1337.243358 441.208925 
L 1339.764594 437.755721 
L 1342.28583 430.37143 
L 1344.807067 445.611351 
L 1347.328303 419.05605 
L 1349.849539 410.391946 
L 1352.370775 387.34222 
L 1354.892012 432.597191 
L 1357.413248 422.46343 
L 1359.934484 429.972102 
L 1362.45572 416.987401 
L 1364.976956 394.520301 
L 1367.498193 380.249241 
L 1370.019429 412.539151 
L 1372.540665 343.353968 
L 1375.061901 365.300633 
L 1377.583138 382.056036 
L 1380.104374 416.990674 
L 1382.62561 401.724568 
L 1390.189319 244.117729 
L 1392.710555 353.301159 
L 1395.231791 357.572657 
L 1397.753027 316.801941 
L 1400.274264 89.28 
L 1402.7955 389.94767 
L 1405.316736 360.456328 
L 1407.837972 382.242607 
L 1410.359208 364.354684 
L 1412.880445 329.243294 
L 1415.401681 371.735702 
L 1417.922917 432.125854 
L 1420.444153 432.593918 
L 1422.965389 420.316224 
L 1425.486626 426.260317 
L 1428.007862 443.225203 
L 1430.529098 385.463415 
L 1433.050334 458.805535 
L 1435.571571 441.758819 
L 1438.092807 393.449972 
L 1440.614043 445.375682 
L 1448.177752 419.949628 
L 1450.698988 439.156642 
L 1453.220224 430.129215 
L 1455.74146 421.857891 
L 1458.262697 391.328952 
L 1460.783933 419.373549 
L 1463.305169 445.058184 
L 1465.826405 445.297126 
L 1468.347641 421.046143 
L 1470.868878 441.0289 
L 1473.390114 415.969443 
L 1475.91135 424.712103 
L 1478.432586 436.891602 
L 1480.953823 427.726701 
L 1483.475059 441.31694 
L 1485.996295 384.86115 
L 1488.517531 412.097272 
L 1491.038767 407.432992 
L 1493.560004 427.543403 
L 1496.08124 415.445734 
L 1498.602476 446.711139 
L 1506.166185 445.274213 
L 1508.687421 402.474126 
L 1511.208657 418.113375 
L 1513.729893 326.569106 
L 1516.25113 272.028126 
L 1518.772366 410.660346 
L 1521.293602 460.61233 
L 1523.814838 373.781439 
L 1526.336074 355.844419 
L 1528.857311 391.957402 
L 1531.378547 420.155838 
L 1533.899783 441.159828 
L 1536.421019 359.588935 
L 1538.942256 360.515245 
L 1541.463492 421.553486 
L 1543.984728 446.534387 
L 1546.505964 409.760222 
L 1549.0272 475.436557 
L 1551.548437 465.351893 
L 1554.069673 439.850556 
L 1556.590909 420.784289 
L 1556.590909 420.784289 
" clip-path="url(#p30da8713df)" style="fill: none; stroke: #c44e52; stroke-width: 1.5; stroke-linecap: round"/>
   </g>
   <g id="patch_3">
    <path d="M 225 512.64 
L 225 69.12 
" style="fill: none; stroke: #ffffff; stroke-width: 1.25; stroke-linejoin: miter; stroke-linecap: square"/>
   </g>
   <g id="patch_4">
    <path d="M 1620 512.64 
L 1620 69.12 
" style="fill: none; stroke: #ffffff; stroke-width: 1.25; stroke-linejoin: miter; stroke-linecap: square"/>
   </g>
   <g id="patch_5">
    <path d="M 225 512.64 
L 1620 512.64 
" style="fill: none; stroke: #ffffff; stroke-width: 1.25; stroke-linejoin: miter; stroke-linecap: square"/>
   </g>
   <g id="patch_6">
    <path d="M 225 69.12 
L 1620 69.12 
" style="fill: none; stroke: #ffffff; stroke-width: 1.25; stroke-linejoin: miter; stroke-linecap: square"/>
   </g>
   <g id="text_16">
    <!-- Duration of each trial by Condition -->
    <g style="fill: #262626" transform="translate(832.122187 63.12) scale(0.12 -0.12)">
     <defs>
      <path id="ArialMT-44" d="M 494 0 
L 494 4581 
L 2072 4581 
Q 2606 4581 2888 4516 
Q 3281 4425 3559 4188 
Q 3922 3881 4101 3404 
Q 4281 2928 4281 2316 
Q 4281 1794 4159 1391 
Q 4038 988 3847 723 
Q 3656 459 3429 307 
Q 3203 156 2883 78 
Q 2563 0 2147 0 
L 494 0 
z
M 1100 541 
L 2078 541 
Q 2531 541 2789 625 
Q 3047 709 3200 863 
Q 3416 1078 3536 1442 
Q 3656 1806 3656 2325 
Q 3656 3044 3420 3430 
Q 3184 3816 2847 3947 
Q 2603 4041 2063 4041 
L 1100 4041 
L 1100 541 
z
" transform="scale(0.015625)"/>
      <path id="ArialMT-75" d="M 2597 0 
L 2597 488 
Q 2209 -75 1544 -75 
Q 1250 -75 995 37 
Q 741 150 617 320 
Q 494 491 444 738 
Q 409 903 409 1263 
L 409 3319 
L 972 3319 
L 972 1478 
Q 972 1038 1006 884 
Q 1059 663 1231 536 
Q 1403 409 1656 409 
Q 1909 409 2131 539 
Q 2353 669 2445 892 
Q 2538 1116 2538 1541 
L 2538 3319 
L 3100 3319 
L 3100 0 
L 2597 0 
z
" transform="scale(0.015625)"/>
      <path id="ArialMT-74" d="M 1650 503 
L 1731 6 
Q 1494 -44 1306 -44 
Q 1000 -44 831 53 
Q 663 150 594 308 
Q 525 466 525 972 
L 525 2881 
L 113 2881 
L 113 3319 
L 525 3319 
L 525 4141 
L 1084 4478 
L 1084 3319 
L 1650 3319 
L 1650 2881 
L 1084 2881 
L 1084 941 
Q 1084 700 1114 631 
Q 1144 563 1211 522 
Q 1278 481 1403 481 
Q 1497 481 1650 503 
z
" transform="scale(0.015625)"/>
      <path id="ArialMT-6f" d="M 213 1659 
Q 213 2581 725 3025 
Q 1153 3394 1769 3394 
Q 2453 3394 2887 2945 
Q 3322 2497 3322 1706 
Q 3322 1066 3130 698 
Q 2938 331 2570 128 
Q 2203 -75 1769 -75 
Q 1072 -75 642 372 
Q 213 819 213 1659 
z
M 791 1659 
Q 791 1022 1069 705 
Q 1347 388 1769 388 
Q 2188 388 2466 706 
Q 2744 1025 2744 1678 
Q 2744 2294 2464 2611 
Q 2184 2928 1769 2928 
Q 1347 2928 1069 2612 
Q 791 2297 791 1659 
z
" transform="scale(0.015625)"/>
      <path id="ArialMT-6e" d="M 422 0 
L 422 3319 
L 928 3319 
L 928 2847 
Q 1294 3394 1984 3394 
Q 2284 3394 2536 3286 
Q 2788 3178 2913 3003 
Q 3038 2828 3088 2588 
Q 3119 2431 3119 2041 
L 3119 0 
L 2556 0 
L 2556 2019 
Q 2556 2363 2490 2533 
Q 2425 2703 2258 2804 
Q 2091 2906 1866 2906 
Q 1506 2906 1245 2678 
Q 984 2450 984 1813 
L 984 0 
L 422 0 
z
" transform="scale(0.015625)"/>
      <path id="ArialMT-66" d="M 556 0 
L 556 2881 
L 59 2881 
L 59 3319 
L 556 3319 
L 556 3672 
Q 556 4006 616 4169 
Q 697 4388 901 4523 
Q 1106 4659 1475 4659 
Q 1713 4659 2000 4603 
L 1916 4113 
Q 1741 4144 1584 4144 
Q 1328 4144 1222 4034 
Q 1116 3925 1116 3625 
L 1116 3319 
L 1763 3319 
L 1763 2881 
L 1116 2881 
L 1116 0 
L 556 0 
z
" transform="scale(0.015625)"/>
      <path id="ArialMT-63" d="M 2588 1216 
L 3141 1144 
Q 3050 572 2676 248 
Q 2303 -75 1759 -75 
Q 1078 -75 664 370 
Q 250 816 250 1647 
Q 250 2184 428 2587 
Q 606 2991 970 3192 
Q 1334 3394 1763 3394 
Q 2303 3394 2647 3120 
Q 2991 2847 3088 2344 
L 2541 2259 
Q 2463 2594 2264 2762 
Q 2066 2931 1784 2931 
Q 1359 2931 1093 2626 
Q 828 2322 828 1663 
Q 828 994 1084 691 
Q 1341 388 1753 388 
Q 2084 388 2306 591 
Q 2528 794 2588 1216 
z
" transform="scale(0.015625)"/>
      <path id="ArialMT-68" d="M 422 0 
L 422 4581 
L 984 4581 
L 984 2938 
Q 1378 3394 1978 3394 
Q 2347 3394 2619 3248 
Q 2891 3103 3008 2847 
Q 3125 2591 3125 2103 
L 3125 0 
L 2563 0 
L 2563 2103 
Q 2563 2525 2380 2717 
Q 2197 2909 1863 2909 
Q 1613 2909 1392 2779 
Q 1172 2650 1078 2428 
Q 984 2206 984 1816 
L 984 0 
L 422 0 
z
" transform="scale(0.015625)"/>
      <path id="ArialMT-62" d="M 941 0 
L 419 0 
L 419 4581 
L 981 4581 
L 981 2947 
Q 1338 3394 1891 3394 
Q 2197 3394 2470 3270 
Q 2744 3147 2920 2923 
Q 3097 2700 3197 2384 
Q 3297 2069 3297 1709 
Q 3297 856 2875 390 
Q 2453 -75 1863 -75 
Q 1275 -75 941 416 
L 941 0 
z
M 934 1684 
Q 934 1088 1097 822 
Q 1363 388 1816 388 
Q 2184 388 2453 708 
Q 2722 1028 2722 1663 
Q 2722 2313 2464 2622 
Q 2206 2931 1841 2931 
Q 1472 2931 1203 2611 
Q 934 2291 934 1684 
z
" transform="scale(0.015625)"/>
      <path id="ArialMT-79" d="M 397 -1278 
L 334 -750 
Q 519 -800 656 -800 
Q 844 -800 956 -737 
Q 1069 -675 1141 -563 
Q 1194 -478 1313 -144 
Q 1328 -97 1363 -6 
L 103 3319 
L 709 3319 
L 1400 1397 
Q 1534 1031 1641 628 
Q 1738 1016 1872 1384 
L 2581 3319 
L 3144 3319 
L 1881 -56 
Q 1678 -603 1566 -809 
Q 1416 -1088 1222 -1217 
Q 1028 -1347 759 -1347 
Q 597 -1347 397 -1278 
z
" transform="scale(0.015625)"/>
      <path id="ArialMT-43" d="M 3763 1606 
L 4369 1453 
Q 4178 706 3683 314 
Q 3188 -78 2472 -78 
Q 1731 -78 1267 223 
Q 803 525 561 1097 
Q 319 1669 319 2325 
Q 319 3041 592 3573 
Q 866 4106 1370 4382 
Q 1875 4659 2481 4659 
Q 3169 4659 3637 4309 
Q 4106 3959 4291 3325 
L 3694 3184 
Q 3534 3684 3231 3912 
Q 2928 4141 2469 4141 
Q 1941 4141 1586 3887 
Q 1231 3634 1087 3207 
Q 944 2781 944 2328 
Q 944 1744 1114 1308 
Q 1284 872 1643 656 
Q 2003 441 2422 441 
Q 2931 441 3284 734 
Q 3638 1028 3763 1606 
z
" transform="scale(0.015625)"/>
      <path id="ArialMT-64" d="M 2575 0 
L 2575 419 
Q 2259 -75 1647 -75 
Q 1250 -75 917 144 
Q 584 363 401 755 
Q 219 1147 219 1656 
Q 219 2153 384 2558 
Q 550 2963 881 3178 
Q 1213 3394 1622 3394 
Q 1922 3394 2156 3267 
Q 2391 3141 2538 2938 
L 2538 4581 
L 3097 4581 
L 3097 0 
L 2575 0 
z
M 797 1656 
Q 797 1019 1065 703 
Q 1334 388 1700 388 
Q 2069 388 2326 689 
Q 2584 991 2584 1609 
Q 2584 2291 2321 2609 
Q 2059 2928 1675 2928 
Q 1300 2928 1048 2622 
Q 797 2316 797 1656 
z
" transform="scale(0.015625)"/>
     </defs>
     <use xlink:href="#ArialMT-44"/>
     <use xlink:href="#ArialMT-75" x="72.216797"/>
     <use xlink:href="#ArialMT-72" x="127.832031"/>
     <use xlink:href="#ArialMT-61" x="161.132812"/>
     <use xlink:href="#ArialMT-74" x="216.748047"/>
     <use xlink:href="#ArialMT-69" x="244.53125"/>
     <use xlink:href="#ArialMT-6f" x="266.748047"/>
     <use xlink:href="#ArialMT-6e" x="322.363281"/>
     <use xlink:href="#ArialMT-20" x="377.978516"/>
     <use xlink:href="#ArialMT-6f" x="405.761719"/>
     <use xlink:href="#ArialMT-66" x="461.376953"/>
     <use xlink:href="#ArialMT-20" x="489.160156"/>
     <use xlink:href="#ArialMT-65" x="516.943359"/>
     <use xlink:href="#ArialMT-61" x="572.558594"/>
     <use xlink:href="#ArialMT-63" x="628.173828"/>
     <use xlink:href="#ArialMT-68" x="678.173828"/>
     <use xlink:href="#ArialMT-20" x="733.789062"/>
     <use xlink:href="#ArialMT-74" x="761.572266"/>
     <use xlink:href="#ArialMT-72" x="789.355469"/>
     <use xlink:href="#ArialMT-69" x="822.65625"/>
     <use xlink:href="#ArialMT-61" x="844.873047"/>
     <use xlink:href="#ArialMT-6c" x="900.488281"/>
     <use xlink:href="#ArialMT-20" x="922.705078"/>
     <use xlink:href="#ArialMT-62" x="950.488281"/>
     <use xlink:href="#ArialMT-79" x="1006.103516"/>
     <use xlink:href="#ArialMT-20" x="1056.103516"/>
     <use xlink:href="#ArialMT-43" x="1083.886719"/>
     <use xlink:href="#ArialMT-6f" x="1156.103516"/>
     <use xlink:href="#ArialMT-6e" x="1211.71875"/>
     <use xlink:href="#ArialMT-64" x="1267.333984"/>
     <use xlink:href="#ArialMT-69" x="1322.949219"/>
     <use xlink:href="#ArialMT-74" x="1345.166016"/>
     <use xlink:href="#ArialMT-69" x="1372.949219"/>
     <use xlink:href="#ArialMT-6f" x="1395.166016"/>
     <use xlink:href="#ArialMT-6e" x="1450.78125"/>
    </g>
   </g>
   <g id="legend_1">
    <g id="patch_7">
     <path d="M 1475.604375 156.63375 
L 1612.3 156.63375 
Q 1614.5 156.63375 1614.5 154.43375 
L 1614.5 76.82 
Q 1614.5 74.62 1612.3 74.62 
L 1475.604375 74.62 
Q 1473.404375 74.62 1473.404375 76.82 
L 1473.404375 154.43375 
Q 1473.404375 156.63375 1475.604375 156.63375 
z
" style="fill: #eaeaf2; opacity: 0.8; stroke: #cccccc; stroke-linejoin: miter"/>
    </g>
    <g id="text_17">
     <!-- Condition -->
     <g style="fill: #262626" transform="translate(1518.603125 87.609375) scale(0.12 -0.12)">
      <use xlink:href="#ArialMT-43"/>
      <use xlink:href="#ArialMT-6f" x="72.216797"/>
      <use xlink:href="#ArialMT-6e" x="127.832031"/>
      <use xlink:href="#ArialMT-64" x="183.447266"/>
      <use xlink:href="#ArialMT-69" x="239.0625"/>
      <use xlink:href="#ArialMT-74" x="261.279297"/>
      <use xlink:href="#ArialMT-69" x="289.0625"/>
      <use xlink:href="#ArialMT-6f" x="311.279297"/>
      <use xlink:href="#ArialMT-6e" x="366.894531"/>
     </g>
    </g>
    <g id="line2d_18">
     <path d="M 1477.804375 99.517969 
L 1488.804375 99.517969 
L 1499.804375 99.517969 
" style="fill: none; stroke: #4c72b0; stroke-width: 1.5; stroke-linecap: round"/>
    </g>
    <g id="text_18">
     <!-- No Feedback -->
     <g style="fill: #262626" transform="translate(1508.604375 103.367969) scale(0.11 -0.11)">
      <defs>
       <path id="ArialMT-4e" d="M 488 0 
L 488 4581 
L 1109 4581 
L 3516 984 
L 3516 4581 
L 4097 4581 
L 4097 0 
L 3475 0 
L 1069 3600 
L 1069 0 
L 488 0 
z
" transform="scale(0.015625)"/>
       <path id="ArialMT-46" d="M 525 0 
L 525 4581 
L 3616 4581 
L 3616 4041 
L 1131 4041 
L 1131 2622 
L 3281 2622 
L 3281 2081 
L 1131 2081 
L 1131 0 
L 525 0 
z
" transform="scale(0.015625)"/>
       <path id="ArialMT-6b" d="M 425 0 
L 425 4581 
L 988 4581 
L 988 1969 
L 2319 3319 
L 3047 3319 
L 1778 2088 
L 3175 0 
L 2481 0 
L 1384 1697 
L 988 1316 
L 988 0 
L 425 0 
z
" transform="scale(0.015625)"/>
      </defs>
      <use xlink:href="#ArialMT-4e"/>
      <use xlink:href="#ArialMT-6f" x="72.216797"/>
      <use xlink:href="#ArialMT-20" x="127.832031"/>
      <use xlink:href="#ArialMT-46" x="155.615234"/>
      <use xlink:href="#ArialMT-65" x="216.699219"/>
      <use xlink:href="#ArialMT-65" x="272.314453"/>
      <use xlink:href="#ArialMT-64" x="327.929688"/>
      <use xlink:href="#ArialMT-62" x="383.544922"/>
      <use xlink:href="#ArialMT-61" x="439.160156"/>
      <use xlink:href="#ArialMT-63" x="494.775391"/>
      <use xlink:href="#ArialMT-6b" x="544.775391"/>
     </g>
    </g>
    <g id="line2d_19">
     <path d="M 1477.804375 115.077813 
L 1488.804375 115.077813 
L 1499.804375 115.077813 
" style="fill: none; stroke: #dd8452; stroke-width: 1.5; stroke-linecap: round"/>
    </g>
    <g id="text_19">
     <!-- Tactile Feedback -->
     <g style="fill: #262626" transform="translate(1508.604375 118.927813) scale(0.11 -0.11)">
      <use xlink:href="#ArialMT-54"/>
      <use xlink:href="#ArialMT-61" x="49.958984"/>
      <use xlink:href="#ArialMT-63" x="105.574219"/>
      <use xlink:href="#ArialMT-74" x="155.574219"/>
      <use xlink:href="#ArialMT-69" x="183.357422"/>
      <use xlink:href="#ArialMT-6c" x="205.574219"/>
      <use xlink:href="#ArialMT-65" x="227.791016"/>
      <use xlink:href="#ArialMT-20" x="283.40625"/>
      <use xlink:href="#ArialMT-46" x="311.189453"/>
      <use xlink:href="#ArialMT-65" x="372.273438"/>
      <use xlink:href="#ArialMT-65" x="427.888672"/>
      <use xlink:href="#ArialMT-64" x="483.503906"/>
      <use xlink:href="#ArialMT-62" x="539.119141"/>
      <use xlink:href="#ArialMT-61" x="594.734375"/>
      <use xlink:href="#ArialMT-63" x="650.349609"/>
      <use xlink:href="#ArialMT-6b" x="700.349609"/>
     </g>
    </g>
    <g id="line2d_20">
     <path d="M 1477.804375 130.637656 
L 1488.804375 130.637656 
L 1499.804375 130.637656 
" style="fill: none; stroke: #55a868; stroke-width: 1.5; stroke-linecap: round"/>
    </g>
    <g id="text_20">
     <!-- Visual Feedback -->
     <g style="fill: #262626" transform="translate(1508.604375 134.487656) scale(0.11 -0.11)">
      <defs>
       <path id="ArialMT-56" d="M 1803 0 
L 28 4581 
L 684 4581 
L 1875 1253 
Q 2019 853 2116 503 
Q 2222 878 2363 1253 
L 3600 4581 
L 4219 4581 
L 2425 0 
L 1803 0 
z
" transform="scale(0.015625)"/>
      </defs>
      <use xlink:href="#ArialMT-56"/>
      <use xlink:href="#ArialMT-69" x="64.949219"/>
      <use xlink:href="#ArialMT-73" x="87.166016"/>
      <use xlink:href="#ArialMT-75" x="137.166016"/>
      <use xlink:href="#ArialMT-61" x="192.78125"/>
      <use xlink:href="#ArialMT-6c" x="248.396484"/>
      <use xlink:href="#ArialMT-20" x="270.613281"/>
      <use xlink:href="#ArialMT-46" x="298.396484"/>
      <use xlink:href="#ArialMT-65" x="359.480469"/>
      <use xlink:href="#ArialMT-65" x="415.095703"/>
      <use xlink:href="#ArialMT-64" x="470.710938"/>
      <use xlink:href="#ArialMT-62" x="526.326172"/>
      <use xlink:href="#ArialMT-61" x="581.941406"/>
      <use xlink:href="#ArialMT-63" x="637.556641"/>
      <use xlink:href="#ArialMT-6b" x="687.556641"/>
     </g>
    </g>
    <g id="line2d_21">
     <path d="M 1477.804375 146.1975 
L 1488.804375 146.1975 
L 1499.804375 146.1975 
" style="fill: none; stroke: #c44e52; stroke-width: 1.5; stroke-linecap: round"/>
    </g>
    <g id="text_21">
     <!-- Combined Feedback -->
     <g style="fill: #262626" transform="translate(1508.604375 150.0475) scale(0.11 -0.11)">
      <use xlink:href="#ArialMT-43"/>
      <use xlink:href="#ArialMT-6f" x="72.216797"/>
      <use xlink:href="#ArialMT-6d" x="127.832031"/>
      <use xlink:href="#ArialMT-62" x="211.132812"/>
      <use xlink:href="#ArialMT-69" x="266.748047"/>
      <use xlink:href="#ArialMT-6e" x="288.964844"/>
      <use xlink:href="#ArialMT-65" x="344.580078"/>
      <use xlink:href="#ArialMT-64" x="400.195312"/>
      <use xlink:href="#ArialMT-20" x="455.810547"/>
      <use xlink:href="#ArialMT-46" x="483.59375"/>
      <use xlink:href="#ArialMT-65" x="544.677734"/>
      <use xlink:href="#ArialMT-65" x="600.292969"/>
      <use xlink:href="#ArialMT-64" x="655.908203"/>
      <use xlink:href="#ArialMT-62" x="711.523438"/>
      <use xlink:href="#ArialMT-61" x="767.138672"/>
      <use xlink:href="#ArialMT-63" x="822.753906"/>
      <use xlink:href="#ArialMT-6b" x="872.753906"/>
     </g>
    </g>
   </g>
  </g>
 </g>
 <defs>
  <clipPath id="p30da8713df">
   <rect x="225" y="69.12" width="1395" height="443.52"/>
  </clipPath>
 </defs>
</svg>
