<?xml version="1.0" encoding="utf-8" standalone="no"?>
<!DOCTYPE svg PUBLIC "-//W3C//DTD SVG 1.1//EN"
  "http://www.w3.org/Graphics/SVG/1.1/DTD/svg11.dtd">
<svg xmlns:xlink="http://www.w3.org/1999/xlink" width="648pt" height="648pt" viewBox="0 0 648 648" xmlns="http://www.w3.org/2000/svg" version="1.1">
 <metadata>
  <rdf:RDF xmlns:dc="http://purl.org/dc/elements/1.1/" xmlns:cc="http://creativecommons.org/ns#" xmlns:rdf="http://www.w3.org/1999/02/22-rdf-syntax-ns#">
   <cc:Work>
    <dc:type rdf:resource="http://purl.org/dc/dcmitype/StillImage"/>
    <dc:date>2026-01-02T19:20:30.091243</dc:date>
    <dc:format>image/svg+xml</dc:format>
    <dc:creator>
     <cc:Agent>
      <dc:title>Matplotlib v3.8.0, https://matplotlib.org/</dc:title>
     </cc:Agent>
    </dc:creator>
   </cc:Work>
  </rdf:RDF>
 </metadata>
 <defs>
  <style type="text/css">*{stroke-linejoin: round; stroke-linecap: butt}</style>
 </defs>
 <g id="figure_1">
  <g id="patch_1">
   <path d="M 0 648 
L 648 648 
L 648 0 
L 0 0 
z
" style="fill: #ffffff"/>
  </g>
  <g id="axes_1">
   <g id="patch_2">
    <path d="M 81 576.72 
L 583.2 576.72 
L 583.2 77.76 
L 81 77.76 
z
" style="fill: #eaeaf2"/>
   </g>
   <g id="matplotlib.axis_1">
    <g id="xtick_1">
     <g id="text_1">
      <!-- No Feedback -->
      <g style="fill: #262626" transform="translate(94.709414 598.030391) scale(0.165 -0.165)">
       <defs>
        <path id="ArialMT-4e" d="M 488 0 
L 488 4581 
L 1109 4581 
L 3516 984 
L 3516 4581 
L 4097 4581 
L 4097 0 
L 3475 0 
L 1069 3600 
L 1069 0 
L 488 0 
z
" transform="scale(0.015625)"/>
        <path id="ArialMT-6f" d="M 213 1659 
Q 213 2581 725 3025 
Q 1153 3394 1769 3394 
Q 2453 3394 2887 2945 
Q 3322 2497 3322 1706 
Q 3322 1066 3130 698 
Q 2938 331 2570 128 
Q 2203 -75 1769 -75 
Q 1072 -75 642 372 
Q 213 819 213 1659 
z
M 791 1659 
Q 791 1022 1069 705 
Q 1347 388 1769 388 
Q 2188 388 2466 706 
Q 2744 1025 2744 1678 
Q 2744 2294 2464 2611 
Q 2184 2928 1769 2928 
Q 1347 2928 1069 2612 
Q 791 2297 791 1659 
z
" transform="scale(0.015625)"/>
        <path id="ArialMT-20" transform="scale(0.015625)"/>
        <path id="ArialMT-46" d="M 525 0 
L 525 4581 
L 3616 4581 
L 3616 4041 
L 1131 4041 
L 1131 2622 
L 3281 2622 
L 3281 2081 
L 1131 2081 
L 1131 0 
L 525 0 
z
" transform="scale(0.015625)"/>
        <path id="ArialMT-65" d="M 2694 1069 
L 3275 997 
Q 3138 488 2766 206 
Q 2394 -75 1816 -75 
Q 1088 -75 661 373 
Q 234 822 234 1631 
Q 234 2469 665 2931 
Q 1097 3394 1784 3394 
Q 2450 3394 2872 2941 
Q 3294 2488 3294 1666 
Q 3294 1616 3291 1516 
L 816 1516 
Q 847 969 1125 678 
Q 1403 388 1819 388 
Q 2128 388 2347 550 
Q 2566 713 2694 1069 
z
M 847 1978 
L 2700 1978 
Q 2663 2397 2488 2606 
Q 2219 2931 1791 2931 
Q 1403 2931 1139 2672 
Q 875 2413 847 1978 
z
" transform="scale(0.015625)"/>
        <path id="ArialMT-64" d="M 2575 0 
L 2575 419 
Q 2259 -75 1647 -75 
Q 1250 -75 917 144 
Q 584 363 401 755 
Q 219 1147 219 1656 
Q 219 2153 384 2558 
Q 550 2963 881 3178 
Q 1213 3394 1622 3394 
Q 1922 3394 2156 3267 
Q 2391 3141 2538 2938 
L 2538 4581 
L 3097 4581 
L 3097 0 
L 2575 0 
z
M 797 1656 
Q 797 1019 1065 703 
Q 1334 388 1700 388 
Q 2069 388 2326 689 
Q 2584 991 2584 1609 
Q 2584 2291 2321 2609 
Q 2059 2928 1675 2928 
Q 1300 2928 1048 2622 
Q 797 2316 797 1656 
z
" transform="scale(0.015625)"/>
        <path id="ArialMT-62" d="M 941 0 
L 419 0 
L 419 4581 
L 981 4581 
L 981 2947 
Q 1338 3394 1891 3394 
Q 2197 3394 2470 3270 
Q 2744 3147 2920 2923 
Q 3097 2700 3197 2384 
Q 3297 2069 3297 1709 
Q 3297 856 2875 390 
Q 2453 -75 1863 -75 
Q 1275 -75 941 416 
L 941 0 
z
M 934 1684 
Q 934 1088 1097 822 
Q 1363 388 1816 388 
Q 2184 388 2453 708 
Q 2722 1028 2722 1663 
Q 2722 2313 2464 2622 
Q 2206 2931 1841 2931 
Q 1472 2931 1203 2611 
Q 934 2291 934 1684 
z
" transform="scale(0.015625)"/>
        <path id="ArialMT-61" d="M 2588 409 
Q 2275 144 1986 34 
Q 1697 -75 1366 -75 
Q 819 -75 525 192 
Q 231 459 231 875 
Q 231 1119 342 1320 
Q 453 1522 633 1644 
Q 813 1766 1038 1828 
Q 1203 1872 1538 1913 
Q 2219 1994 2541 2106 
Q 2544 2222 2544 2253 
Q 2544 2597 2384 2738 
Q 2169 2928 1744 2928 
Q 1347 2928 1158 2789 
Q 969 2650 878 2297 
L 328 2372 
Q 403 2725 575 2942 
Q 747 3159 1072 3276 
Q 1397 3394 1825 3394 
Q 2250 3394 2515 3294 
Q 2781 3194 2906 3042 
Q 3031 2891 3081 2659 
Q 3109 2516 3109 2141 
L 3109 1391 
Q 3109 606 3145 398 
Q 3181 191 3288 0 
L 2700 0 
Q 2613 175 2588 409 
z
M 2541 1666 
Q 2234 1541 1622 1453 
Q 1275 1403 1131 1340 
Q 988 1278 909 1158 
Q 831 1038 831 891 
Q 831 666 1001 516 
Q 1172 366 1500 366 
Q 1825 366 2078 508 
Q 2331 650 2450 897 
Q 2541 1088 2541 1459 
L 2541 1666 
z
" transform="scale(0.015625)"/>
        <path id="ArialMT-63" d="M 2588 1216 
L 3141 1144 
Q 3050 572 2676 248 
Q 2303 -75 1759 -75 
Q 1078 -75 664 370 
Q 250 816 250 1647 
Q 250 2184 428 2587 
Q 606 2991 970 3192 
Q 1334 3394 1763 3394 
Q 2303 3394 2647 3120 
Q 2991 2847 3088 2344 
L 2541 2259 
Q 2463 2594 2264 2762 
Q 2066 2931 1784 2931 
Q 1359 2931 1093 2626 
Q 828 2322 828 1663 
Q 828 994 1084 691 
Q 1341 388 1753 388 
Q 2084 388 2306 591 
Q 2528 794 2588 1216 
z
" transform="scale(0.015625)"/>
        <path id="ArialMT-6b" d="M 425 0 
L 425 4581 
L 988 4581 
L 988 1969 
L 2319 3319 
L 3047 3319 
L 1778 2088 
L 3175 0 
L 2481 0 
L 1384 1697 
L 988 1316 
L 988 0 
L 425 0 
z
" transform="scale(0.015625)"/>
       </defs>
       <use xlink:href="#ArialMT-4e"/>
       <use xlink:href="#ArialMT-6f" x="72.216797"/>
       <use xlink:href="#ArialMT-20" x="127.832031"/>
       <use xlink:href="#ArialMT-46" x="155.615234"/>
       <use xlink:href="#ArialMT-65" x="216.699219"/>
       <use xlink:href="#ArialMT-65" x="272.314453"/>
       <use xlink:href="#ArialMT-64" x="327.929688"/>
       <use xlink:href="#ArialMT-62" x="383.544922"/>
       <use xlink:href="#ArialMT-61" x="439.160156"/>
       <use xlink:href="#ArialMT-63" x="494.775391"/>
       <use xlink:href="#ArialMT-6b" x="544.775391"/>
      </g>
     </g>
    </g>
    <g id="xtick_2">
     <g id="text_2">
      <!-- Tactile Feedback -->
      <g style="fill: #262626" transform="translate(207.425508 598.030391) scale(0.165 -0.165)">
       <defs>
        <path id="ArialMT-54" d="M 1659 0 
L 1659 4041 
L 150 4041 
L 150 4581 
L 3781 4581 
L 3781 4041 
L 2266 4041 
L 2266 0 
L 1659 0 
z
" transform="scale(0.015625)"/>
        <path id="ArialMT-74" d="M 1650 503 
L 1731 6 
Q 1494 -44 1306 -44 
Q 1000 -44 831 53 
Q 663 150 594 308 
Q 525 466 525 972 
L 525 2881 
L 113 2881 
L 113 3319 
L 525 3319 
L 525 4141 
L 1084 4478 
L 1084 3319 
L 1650 3319 
L 1650 2881 
L 1084 2881 
L 1084 941 
Q 1084 700 1114 631 
Q 1144 563 1211 522 
Q 1278 481 1403 481 
Q 1497 481 1650 503 
z
" transform="scale(0.015625)"/>
        <path id="ArialMT-69" d="M 425 3934 
L 425 4581 
L 988 4581 
L 988 3934 
L 425 3934 
z
M 425 0 
L 425 3319 
L 988 3319 
L 988 0 
L 425 0 
z
" transform="scale(0.015625)"/>
        <path id="ArialMT-6c" d="M 409 0 
L 409 4581 
L 972 4581 
L 972 0 
L 409 0 
z
" transform="scale(0.015625)"/>
       </defs>
       <use xlink:href="#ArialMT-54"/>
       <use xlink:href="#ArialMT-61" x="49.958984"/>
       <use xlink:href="#ArialMT-63" x="105.574219"/>
       <use xlink:href="#ArialMT-74" x="155.574219"/>
       <use xlink:href="#ArialMT-69" x="183.357422"/>
       <use xlink:href="#ArialMT-6c" x="205.574219"/>
       <use xlink:href="#ArialMT-65" x="227.791016"/>
       <use xlink:href="#ArialMT-20" x="283.40625"/>
       <use xlink:href="#ArialMT-46" x="311.189453"/>
       <use xlink:href="#ArialMT-65" x="372.273438"/>
       <use xlink:href="#ArialMT-65" x="427.888672"/>
       <use xlink:href="#ArialMT-64" x="483.503906"/>
       <use xlink:href="#ArialMT-62" x="539.119141"/>
       <use xlink:href="#ArialMT-61" x="594.734375"/>
       <use xlink:href="#ArialMT-63" x="650.349609"/>
       <use xlink:href="#ArialMT-6b" x="700.349609"/>
      </g>
     </g>
    </g>
    <g id="xtick_3">
     <g id="text_3">
      <!-- Visual Feedback -->
      <g style="fill: #262626" transform="translate(334.029961 598.030391) scale(0.165 -0.165)">
       <defs>
        <path id="ArialMT-56" d="M 1803 0 
L 28 4581 
L 684 4581 
L 1875 1253 
Q 2019 853 2116 503 
Q 2222 878 2363 1253 
L 3600 4581 
L 4219 4581 
L 2425 0 
L 1803 0 
z
" transform="scale(0.015625)"/>
        <path id="ArialMT-73" d="M 197 991 
L 753 1078 
Q 800 744 1014 566 
Q 1228 388 1613 388 
Q 2000 388 2187 545 
Q 2375 703 2375 916 
Q 2375 1106 2209 1216 
Q 2094 1291 1634 1406 
Q 1016 1563 777 1677 
Q 538 1791 414 1992 
Q 291 2194 291 2438 
Q 291 2659 392 2848 
Q 494 3038 669 3163 
Q 800 3259 1026 3326 
Q 1253 3394 1513 3394 
Q 1903 3394 2198 3281 
Q 2494 3169 2634 2976 
Q 2775 2784 2828 2463 
L 2278 2388 
Q 2241 2644 2061 2787 
Q 1881 2931 1553 2931 
Q 1166 2931 1000 2803 
Q 834 2675 834 2503 
Q 834 2394 903 2306 
Q 972 2216 1119 2156 
Q 1203 2125 1616 2013 
Q 2213 1853 2448 1751 
Q 2684 1650 2818 1456 
Q 2953 1263 2953 975 
Q 2953 694 2789 445 
Q 2625 197 2315 61 
Q 2006 -75 1616 -75 
Q 969 -75 630 194 
Q 291 463 197 991 
z
" transform="scale(0.015625)"/>
        <path id="ArialMT-75" d="M 2597 0 
L 2597 488 
Q 2209 -75 1544 -75 
Q 1250 -75 995 37 
Q 741 150 617 320 
Q 494 491 444 738 
Q 409 903 409 1263 
L 409 3319 
L 972 3319 
L 972 1478 
Q 972 1038 1006 884 
Q 1059 663 1231 536 
Q 1403 409 1656 409 
Q 1909 409 2131 539 
Q 2353 669 2445 892 
Q 2538 1116 2538 1541 
L 2538 3319 
L 3100 3319 
L 3100 0 
L 2597 0 
z
" transform="scale(0.015625)"/>
       </defs>
       <use xlink:href="#ArialMT-56"/>
       <use xlink:href="#ArialMT-69" x="64.949219"/>
       <use xlink:href="#ArialMT-73" x="87.166016"/>
       <use xlink:href="#ArialMT-75" x="137.166016"/>
       <use xlink:href="#ArialMT-61" x="192.78125"/>
       <use xlink:href="#ArialMT-6c" x="248.396484"/>
       <use xlink:href="#ArialMT-20" x="270.613281"/>
       <use xlink:href="#ArialMT-46" x="298.396484"/>
       <use xlink:href="#ArialMT-65" x="359.480469"/>
       <use xlink:href="#ArialMT-65" x="415.095703"/>
       <use xlink:href="#ArialMT-64" x="470.710938"/>
       <use xlink:href="#ArialMT-62" x="526.326172"/>
       <use xlink:href="#ArialMT-61" x="581.941406"/>
       <use xlink:href="#ArialMT-63" x="637.556641"/>
       <use xlink:href="#ArialMT-6b" x="687.556641"/>
      </g>
     </g>
    </g>
    <g id="xtick_4">
     <g id="text_4">
      <!-- Combined Feedback -->
      <g style="fill: #262626" transform="translate(444.303281 598.030391) scale(0.165 -0.165)">
       <defs>
        <path id="ArialMT-43" d="M 3763 1606 
L 4369 1453 
Q 4178 706 3683 314 
Q 3188 -78 2472 -78 
Q 1731 -78 1267 223 
Q 803 525 561 1097 
Q 319 1669 319 2325 
Q 319 3041 592 3573 
Q 866 4106 1370 4382 
Q 1875 4659 2481 4659 
Q 3169 4659 3637 4309 
Q 4106 3959 4291 3325 
L 3694 3184 
Q 3534 3684 3231 3912 
Q 2928 4141 2469 4141 
Q 1941 4141 1586 3887 
Q 1231 3634 1087 3207 
Q 944 2781 944 2328 
Q 944 1744 1114 1308 
Q 1284 872 1643 656 
Q 2003 441 2422 441 
Q 2931 441 3284 734 
Q 3638 1028 3763 1606 
z
" transform="scale(0.015625)"/>
        <path id="ArialMT-6d" d="M 422 0 
L 422 3319 
L 925 3319 
L 925 2853 
Q 1081 3097 1340 3245 
Q 1600 3394 1931 3394 
Q 2300 3394 2536 3241 
Q 2772 3088 2869 2813 
Q 3263 3394 3894 3394 
Q 4388 3394 4653 3120 
Q 4919 2847 4919 2278 
L 4919 0 
L 4359 0 
L 4359 2091 
Q 4359 2428 4304 2576 
Q 4250 2725 4106 2815 
Q 3963 2906 3769 2906 
Q 3419 2906 3187 2673 
Q 2956 2441 2956 1928 
L 2956 0 
L 2394 0 
L 2394 2156 
Q 2394 2531 2256 2718 
Q 2119 2906 1806 2906 
Q 1569 2906 1367 2781 
Q 1166 2656 1075 2415 
Q 984 2175 984 1722 
L 984 0 
L 422 0 
z
" transform="scale(0.015625)"/>
        <path id="ArialMT-6e" d="M 422 0 
L 422 3319 
L 928 3319 
L 928 2847 
Q 1294 3394 1984 3394 
Q 2284 3394 2536 3286 
Q 2788 3178 2913 3003 
Q 3038 2828 3088 2588 
Q 3119 2431 3119 2041 
L 3119 0 
L 2556 0 
L 2556 2019 
Q 2556 2363 2490 2533 
Q 2425 2703 2258 2804 
Q 2091 2906 1866 2906 
Q 1506 2906 1245 2678 
Q 984 2450 984 1813 
L 984 0 
L 422 0 
z
" transform="scale(0.015625)"/>
       </defs>
       <use xlink:href="#ArialMT-43"/>
       <use xlink:href="#ArialMT-6f" x="72.216797"/>
       <use xlink:href="#ArialMT-6d" x="127.832031"/>
       <use xlink:href="#ArialMT-62" x="211.132812"/>
       <use xlink:href="#ArialMT-69" x="266.748047"/>
       <use xlink:href="#ArialMT-6e" x="288.964844"/>
       <use xlink:href="#ArialMT-65" x="344.580078"/>
       <use xlink:href="#ArialMT-64" x="400.195312"/>
       <use xlink:href="#ArialMT-20" x="455.810547"/>
       <use xlink:href="#ArialMT-46" x="483.59375"/>
       <use xlink:href="#ArialMT-65" x="544.677734"/>
       <use xlink:href="#ArialMT-65" x="600.292969"/>
       <use xlink:href="#ArialMT-64" x="655.908203"/>
       <use xlink:href="#ArialMT-62" x="711.523438"/>
       <use xlink:href="#ArialMT-61" x="767.138672"/>
       <use xlink:href="#ArialMT-63" x="822.753906"/>
       <use xlink:href="#ArialMT-6b" x="872.753906"/>
      </g>
     </g>
    </g>
    <g id="text_5">
     <!-- Condition -->
     <g style="fill: #262626" transform="translate(294.076406 618.193828) scale(0.18 -0.18)">
      <use xlink:href="#ArialMT-43"/>
      <use xlink:href="#ArialMT-6f" x="72.216797"/>
      <use xlink:href="#ArialMT-6e" x="127.832031"/>
      <use xlink:href="#ArialMT-64" x="183.447266"/>
      <use xlink:href="#ArialMT-69" x="239.0625"/>
      <use xlink:href="#ArialMT-74" x="261.279297"/>
      <use xlink:href="#ArialMT-69" x="289.0625"/>
      <use xlink:href="#ArialMT-6f" x="311.279297"/>
      <use xlink:href="#ArialMT-6e" x="366.894531"/>
     </g>
    </g>
   </g>
   <g id="matplotlib.axis_2">
    <g id="ytick_1">
     <g id="text_6">
      <!-- 20 -->
      <g style="fill: #262626" transform="translate(53.148906 519.332998) scale(0.165 -0.165)">
       <defs>
        <path id="ArialMT-32" d="M 3222 541 
L 3222 0 
L 194 0 
Q 188 203 259 391 
Q 375 700 629 1000 
Q 884 1300 1366 1694 
Q 2113 2306 2375 2664 
Q 2638 3022 2638 3341 
Q 2638 3675 2398 3904 
Q 2159 4134 1775 4134 
Q 1369 4134 1125 3890 
Q 881 3647 878 3216 
L 300 3275 
Q 359 3922 746 4261 
Q 1134 4600 1788 4600 
Q 2447 4600 2831 4234 
Q 3216 3869 3216 3328 
Q 3216 3053 3103 2787 
Q 2991 2522 2730 2228 
Q 2469 1934 1863 1422 
Q 1356 997 1212 845 
Q 1069 694 975 541 
L 3222 541 
z
" transform="scale(0.015625)"/>
        <path id="ArialMT-30" d="M 266 2259 
Q 266 3072 433 3567 
Q 600 4063 929 4331 
Q 1259 4600 1759 4600 
Q 2128 4600 2406 4451 
Q 2684 4303 2865 4023 
Q 3047 3744 3150 3342 
Q 3253 2941 3253 2259 
Q 3253 1453 3087 958 
Q 2922 463 2592 192 
Q 2263 -78 1759 -78 
Q 1097 -78 719 397 
Q 266 969 266 2259 
z
M 844 2259 
Q 844 1131 1108 757 
Q 1372 384 1759 384 
Q 2147 384 2411 759 
Q 2675 1134 2675 2259 
Q 2675 3391 2411 3762 
Q 2147 4134 1753 4134 
Q 1366 4134 1134 3806 
Q 844 3388 844 2259 
z
" transform="scale(0.015625)"/>
       </defs>
       <use xlink:href="#ArialMT-32"/>
       <use xlink:href="#ArialMT-30" x="55.615234"/>
      </g>
     </g>
    </g>
    <g id="ytick_2">
     <g id="text_7">
      <!-- 40 -->
      <g style="fill: #262626" transform="translate(53.148906 442.145508) scale(0.165 -0.165)">
       <defs>
        <path id="ArialMT-34" d="M 2069 0 
L 2069 1097 
L 81 1097 
L 81 1613 
L 2172 4581 
L 2631 4581 
L 2631 1613 
L 3250 1613 
L 3250 1097 
L 2631 1097 
L 2631 0 
L 2069 0 
z
M 2069 1613 
L 2069 3678 
L 634 1613 
L 2069 1613 
z
" transform="scale(0.015625)"/>
       </defs>
       <use xlink:href="#ArialMT-34"/>
       <use xlink:href="#ArialMT-30" x="55.615234"/>
      </g>
     </g>
    </g>
    <g id="ytick_3">
     <g id="text_8">
      <!-- 60 -->
      <g style="fill: #262626" transform="translate(53.148906 364.958019) scale(0.165 -0.165)">
       <defs>
        <path id="ArialMT-36" d="M 3184 3459 
L 2625 3416 
Q 2550 3747 2413 3897 
Q 2184 4138 1850 4138 
Q 1581 4138 1378 3988 
Q 1113 3794 959 3422 
Q 806 3050 800 2363 
Q 1003 2672 1297 2822 
Q 1591 2972 1913 2972 
Q 2475 2972 2870 2558 
Q 3266 2144 3266 1488 
Q 3266 1056 3080 686 
Q 2894 316 2569 119 
Q 2244 -78 1831 -78 
Q 1128 -78 684 439 
Q 241 956 241 2144 
Q 241 3472 731 4075 
Q 1159 4600 1884 4600 
Q 2425 4600 2770 4297 
Q 3116 3994 3184 3459 
z
M 888 1484 
Q 888 1194 1011 928 
Q 1134 663 1356 523 
Q 1578 384 1822 384 
Q 2178 384 2434 671 
Q 2691 959 2691 1453 
Q 2691 1928 2437 2201 
Q 2184 2475 1800 2475 
Q 1419 2475 1153 2201 
Q 888 1928 888 1484 
z
" transform="scale(0.015625)"/>
       </defs>
       <use xlink:href="#ArialMT-36"/>
       <use xlink:href="#ArialMT-30" x="55.615234"/>
      </g>
     </g>
    </g>
    <g id="ytick_4">
     <g id="text_9">
      <!-- 80 -->
      <g style="fill: #262626" transform="translate(53.148906 287.77053) scale(0.165 -0.165)">
       <defs>
        <path id="ArialMT-38" d="M 1131 2484 
Q 781 2613 612 2850 
Q 444 3088 444 3419 
Q 444 3919 803 4259 
Q 1163 4600 1759 4600 
Q 2359 4600 2725 4251 
Q 3091 3903 3091 3403 
Q 3091 3084 2923 2848 
Q 2756 2613 2416 2484 
Q 2838 2347 3058 2040 
Q 3278 1734 3278 1309 
Q 3278 722 2862 322 
Q 2447 -78 1769 -78 
Q 1091 -78 675 323 
Q 259 725 259 1325 
Q 259 1772 486 2073 
Q 713 2375 1131 2484 
z
M 1019 3438 
Q 1019 3113 1228 2906 
Q 1438 2700 1772 2700 
Q 2097 2700 2305 2904 
Q 2513 3109 2513 3406 
Q 2513 3716 2298 3927 
Q 2084 4138 1766 4138 
Q 1444 4138 1231 3931 
Q 1019 3725 1019 3438 
z
M 838 1322 
Q 838 1081 952 856 
Q 1066 631 1291 507 
Q 1516 384 1775 384 
Q 2178 384 2440 643 
Q 2703 903 2703 1303 
Q 2703 1709 2433 1975 
Q 2163 2241 1756 2241 
Q 1359 2241 1098 1978 
Q 838 1716 838 1322 
z
" transform="scale(0.015625)"/>
       </defs>
       <use xlink:href="#ArialMT-38"/>
       <use xlink:href="#ArialMT-30" x="55.615234"/>
      </g>
     </g>
    </g>
    <g id="ytick_5">
     <g id="text_10">
      <!-- 100 -->
      <g style="fill: #262626" transform="translate(43.973359 210.58304) scale(0.165 -0.165)">
       <defs>
        <path id="ArialMT-31" d="M 2384 0 
L 1822 0 
L 1822 3584 
Q 1619 3391 1289 3197 
Q 959 3003 697 2906 
L 697 3450 
Q 1169 3672 1522 3987 
Q 1875 4303 2022 4600 
L 2384 4600 
L 2384 0 
z
" transform="scale(0.015625)"/>
       </defs>
       <use xlink:href="#ArialMT-31"/>
       <use xlink:href="#ArialMT-30" x="55.615234"/>
       <use xlink:href="#ArialMT-30" x="111.230469"/>
      </g>
     </g>
    </g>
    <g id="ytick_6">
     <g id="text_11">
      <!-- 120 -->
      <g style="fill: #262626" transform="translate(43.973359 133.395551) scale(0.165 -0.165)">
       <use xlink:href="#ArialMT-31"/>
       <use xlink:href="#ArialMT-32" x="55.615234"/>
       <use xlink:href="#ArialMT-30" x="111.230469"/>
      </g>
     </g>
    </g>
    <g id="text_12">
     <!-- Time (s) -->
     <g style="fill: #262626" transform="translate(36.184922 359.894531) rotate(-90) scale(0.18 -0.18)">
      <defs>
       <path id="ArialMT-28" d="M 1497 -1347 
Q 1031 -759 709 28 
Q 388 816 388 1659 
Q 388 2403 628 3084 
Q 909 3875 1497 4659 
L 1900 4659 
Q 1522 4009 1400 3731 
Q 1209 3300 1100 2831 
Q 966 2247 966 1656 
Q 966 153 1900 -1347 
L 1497 -1347 
z
" transform="scale(0.015625)"/>
       <path id="ArialMT-29" d="M 791 -1347 
L 388 -1347 
Q 1322 153 1322 1656 
Q 1322 2244 1188 2822 
Q 1081 3291 891 3722 
Q 769 4003 388 4659 
L 791 4659 
Q 1378 3875 1659 3084 
Q 1900 2403 1900 1659 
Q 1900 816 1576 28 
Q 1253 -759 791 -1347 
z
" transform="scale(0.015625)"/>
      </defs>
      <use xlink:href="#ArialMT-54"/>
      <use xlink:href="#ArialMT-69" x="57.333984"/>
      <use xlink:href="#ArialMT-6d" x="79.550781"/>
      <use xlink:href="#ArialMT-65" x="162.851562"/>
      <use xlink:href="#ArialMT-20" x="218.466797"/>
      <use xlink:href="#ArialMT-28" x="246.25"/>
      <use xlink:href="#ArialMT-73" x="279.550781"/>
      <use xlink:href="#ArialMT-29" x="329.550781"/>
     </g>
    </g>
   </g>
   <g id="line2d_1">
    <path d="M 115.52625 484.308822 
L 172.02375 484.308822 
L 172.02375 421.891159 
L 115.52625 421.891159 
L 115.52625 484.308822 
" clip-path="url(#p854f98dfee)" style="fill: none; stroke: #4c4c4c; stroke-linecap: round"/>
   </g>
   <g id="line2d_2">
    <path d="M 143.775 484.308822 
L 143.775 554.04 
" clip-path="url(#p854f98dfee)" style="fill: none; stroke: #4c4c4c; stroke-linecap: round"/>
   </g>
   <g id="line2d_3">
    <path d="M 143.775 421.891159 
L 143.775 328.540609 
" clip-path="url(#p854f98dfee)" style="fill: none; stroke: #4c4c4c; stroke-linecap: round"/>
   </g>
   <g id="line2d_4">
    <path d="M 129.650625 554.04 
L 157.899375 554.04 
" clip-path="url(#p854f98dfee)" style="fill: none; stroke: #1a1a1a; stroke-linecap: round"/>
   </g>
   <g id="line2d_5">
    <path d="M 129.650625 328.540609 
L 157.899375 328.540609 
" clip-path="url(#p854f98dfee)" style="fill: none; stroke: #1a1a1a; stroke-linecap: round"/>
   </g>
   <g id="line2d_6">
    <defs>
     <path id="mf870368ed4" d="M 0 3 
C 0.795609 3 1.55874 2.683901 2.12132 2.12132 
C 2.683901 1.55874 3 0.795609 3 0 
C 3 -0.795609 2.683901 -1.55874 2.12132 -2.12132 
C 1.55874 -2.683901 0.795609 -3 0 -3 
C -0.795609 -3 -1.55874 -2.683901 -2.12132 -2.12132 
C -2.683901 -1.55874 -3 -0.795609 -3 0 
C -3 0.795609 -2.683901 1.55874 -2.12132 2.12132 
C -1.55874 2.683901 -0.795609 3 0 3 
z
" style="stroke: #000000"/>
    </defs>
    <g clip-path="url(#p854f98dfee)">
     <use xlink:href="#mf870368ed4" x="143.775" y="308.79219" style="fill-opacity: 0; stroke: #000000"/>
     <use xlink:href="#mf870368ed4" x="143.775" y="246.027183" style="fill-opacity: 0; stroke: #000000"/>
     <use xlink:href="#mf870368ed4" x="143.775" y="288.009459" style="fill-opacity: 0; stroke: #000000"/>
     <use xlink:href="#mf870368ed4" x="143.775" y="293.458895" style="fill-opacity: 0; stroke: #000000"/>
     <use xlink:href="#mf870368ed4" x="143.775" y="310.104377" style="fill-opacity: 0; stroke: #000000"/>
     <use xlink:href="#mf870368ed4" x="143.775" y="325.063313" style="fill-opacity: 0; stroke: #000000"/>
     <use xlink:href="#mf870368ed4" x="143.775" y="185.658848" style="fill-opacity: 0; stroke: #000000"/>
     <use xlink:href="#mf870368ed4" x="143.775" y="254.660604" style="fill-opacity: 0; stroke: #000000"/>
     <use xlink:href="#mf870368ed4" x="143.775" y="312.041783" style="fill-opacity: 0; stroke: #000000"/>
     <use xlink:href="#mf870368ed4" x="143.775" y="291.046786" style="fill-opacity: 0; stroke: #000000"/>
     <use xlink:href="#mf870368ed4" x="143.775" y="269.414992" style="fill-opacity: 0; stroke: #000000"/>
     <use xlink:href="#mf870368ed4" x="143.775" y="312.667002" style="fill-opacity: 0; stroke: #000000"/>
     <use xlink:href="#mf870368ed4" x="143.775" y="305.754862" style="fill-opacity: 0; stroke: #000000"/>
     <use xlink:href="#mf870368ed4" x="143.775" y="302.779285" style="fill-opacity: 0; stroke: #000000"/>
     <use xlink:href="#mf870368ed4" x="143.775" y="206.553501" style="fill-opacity: 0; stroke: #000000"/>
     <use xlink:href="#mf870368ed4" x="143.775" y="282.343897" style="fill-opacity: 0; stroke: #000000"/>
     <use xlink:href="#mf870368ed4" x="143.775" y="326.626359" style="fill-opacity: 0; stroke: #000000"/>
    </g>
   </g>
   <g id="line2d_7">
    <path d="M 241.07625 484.771947 
L 297.57375 484.771947 
L 297.57375 419.768503 
L 241.07625 419.768503 
L 241.07625 484.771947 
" clip-path="url(#p854f98dfee)" style="fill: none; stroke: #4c4c4c; stroke-linecap: round"/>
   </g>
   <g id="line2d_8">
    <path d="M 269.325 484.771947 
L 269.325 551.681922 
" clip-path="url(#p854f98dfee)" style="fill: none; stroke: #4c4c4c; stroke-linecap: round"/>
   </g>
   <g id="line2d_9">
    <path d="M 269.325 419.768503 
L 269.325 324.34161 
" clip-path="url(#p854f98dfee)" style="fill: none; stroke: #4c4c4c; stroke-linecap: round"/>
   </g>
   <g id="line2d_10">
    <path d="M 255.200625 551.681922 
L 283.449375 551.681922 
" clip-path="url(#p854f98dfee)" style="fill: none; stroke: #1a1a1a; stroke-linecap: round"/>
   </g>
   <g id="line2d_11">
    <path d="M 255.200625 324.34161 
L 283.449375 324.34161 
" clip-path="url(#p854f98dfee)" style="fill: none; stroke: #1a1a1a; stroke-linecap: round"/>
   </g>
   <g id="line2d_12">
    <g clip-path="url(#p854f98dfee)">
     <use xlink:href="#mf870368ed4" x="269.325" y="321.161485" style="fill-opacity: 0; stroke: #000000"/>
     <use xlink:href="#mf870368ed4" x="269.325" y="256.432057" style="fill-opacity: 0; stroke: #000000"/>
     <use xlink:href="#mf870368ed4" x="269.325" y="206.43772" style="fill-opacity: 0; stroke: #000000"/>
     <use xlink:href="#mf870368ed4" x="269.325" y="321.420063" style="fill-opacity: 0; stroke: #000000"/>
     <use xlink:href="#mf870368ed4" x="269.325" y="307.615081" style="fill-opacity: 0; stroke: #000000"/>
     <use xlink:href="#mf870368ed4" x="269.325" y="306.561472" style="fill-opacity: 0; stroke: #000000"/>
     <use xlink:href="#mf870368ed4" x="269.325" y="320.605735" style="fill-opacity: 0; stroke: #000000"/>
     <use xlink:href="#mf870368ed4" x="269.325" y="305.164378" style="fill-opacity: 0; stroke: #000000"/>
     <use xlink:href="#mf870368ed4" x="269.325" y="306.839347" style="fill-opacity: 0; stroke: #000000"/>
     <use xlink:href="#mf870368ed4" x="269.325" y="254.513948" style="fill-opacity: 0; stroke: #000000"/>
     <use xlink:href="#mf870368ed4" x="269.325" y="243.896808" style="fill-opacity: 0; stroke: #000000"/>
     <use xlink:href="#mf870368ed4" x="269.325" y="193.933346" style="fill-opacity: 0; stroke: #000000"/>
     <use xlink:href="#mf870368ed4" x="269.325" y="300.699082" style="fill-opacity: 0; stroke: #000000"/>
     <use xlink:href="#mf870368ed4" x="269.325" y="273.428742" style="fill-opacity: 0; stroke: #000000"/>
     <use xlink:href="#mf870368ed4" x="269.325" y="287.368802" style="fill-opacity: 0; stroke: #000000"/>
     <use xlink:href="#mf870368ed4" x="269.325" y="310.910987" style="fill-opacity: 0; stroke: #000000"/>
     <use xlink:href="#mf870368ed4" x="269.325" y="273.390148" style="fill-opacity: 0; stroke: #000000"/>
    </g>
   </g>
   <g id="line2d_13">
    <path d="M 366.62625 498.530617 
L 423.12375 498.530617 
L 423.12375 454.89267 
L 366.62625 454.89267 
L 366.62625 498.530617 
" clip-path="url(#p854f98dfee)" style="fill: none; stroke: #4c4c4c; stroke-linecap: round"/>
   </g>
   <g id="line2d_14">
    <path d="M 394.875 498.530617 
L 394.875 528.101144 
" clip-path="url(#p854f98dfee)" style="fill: none; stroke: #4c4c4c; stroke-linecap: round"/>
   </g>
   <g id="line2d_15">
    <path d="M 394.875 454.89267 
L 394.875 389.572757 
" clip-path="url(#p854f98dfee)" style="fill: none; stroke: #4c4c4c; stroke-linecap: round"/>
   </g>
   <g id="line2d_16">
    <path d="M 380.750625 528.101144 
L 408.999375 528.101144 
" clip-path="url(#p854f98dfee)" style="fill: none; stroke: #1a1a1a; stroke-linecap: round"/>
   </g>
   <g id="line2d_17">
    <path d="M 380.750625 389.572757 
L 408.999375 389.572757 
" clip-path="url(#p854f98dfee)" style="fill: none; stroke: #1a1a1a; stroke-linecap: round"/>
   </g>
   <g id="line2d_18">
    <g clip-path="url(#p854f98dfee)">
     <use xlink:href="#mf870368ed4" x="394.875" y="317.780673" style="fill-opacity: 0; stroke: #000000"/>
     <use xlink:href="#mf870368ed4" x="394.875" y="373.776337" style="fill-opacity: 0; stroke: #000000"/>
     <use xlink:href="#mf870368ed4" x="394.875" y="385.79057" style="fill-opacity: 0; stroke: #000000"/>
     <use xlink:href="#mf870368ed4" x="394.875" y="339.613155" style="fill-opacity: 0; stroke: #000000"/>
     <use xlink:href="#mf870368ed4" x="394.875" y="375.563228" style="fill-opacity: 0; stroke: #000000"/>
     <use xlink:href="#mf870368ed4" x="394.875" y="372.282759" style="fill-opacity: 0; stroke: #000000"/>
     <use xlink:href="#mf870368ed4" x="394.875" y="349.037747" style="fill-opacity: 0; stroke: #000000"/>
     <use xlink:href="#mf870368ed4" x="394.875" y="367.485557" style="fill-opacity: 0; stroke: #000000"/>
     <use xlink:href="#mf870368ed4" x="394.875" y="387.322742" style="fill-opacity: 0; stroke: #000000"/>
     <use xlink:href="#mf870368ed4" x="394.875" y="388.191101" style="fill-opacity: 0; stroke: #000000"/>
     <use xlink:href="#mf870368ed4" x="394.875" y="367.358198" style="fill-opacity: 0; stroke: #000000"/>
     <use xlink:href="#mf870368ed4" x="394.875" y="307.9933" style="fill-opacity: 0; stroke: #000000"/>
     <use xlink:href="#mf870368ed4" x="394.875" y="354.903996" style="fill-opacity: 0; stroke: #000000"/>
     <use xlink:href="#mf870368ed4" x="394.875" y="358.821261" style="fill-opacity: 0; stroke: #000000"/>
     <use xlink:href="#mf870368ed4" x="394.875" y="364.795573" style="fill-opacity: 0; stroke: #000000"/>
     <use xlink:href="#mf870368ed4" x="394.875" y="381.529821" style="fill-opacity: 0; stroke: #000000"/>
     <use xlink:href="#mf870368ed4" x="394.875" y="387.504132" style="fill-opacity: 0; stroke: #000000"/>
     <use xlink:href="#mf870368ed4" x="394.875" y="361.708073" style="fill-opacity: 0; stroke: #000000"/>
     <use xlink:href="#mf870368ed4" x="394.875" y="379.565399" style="fill-opacity: 0; stroke: #000000"/>
     <use xlink:href="#mf870368ed4" x="394.875" y="370.916541" style="fill-opacity: 0; stroke: #000000"/>
    </g>
   </g>
   <g id="line2d_19">
    <path d="M 492.17625 501.479179 
L 548.67375 501.479179 
L 548.67375 451.31503 
L 492.17625 451.31503 
L 492.17625 501.479179 
" clip-path="url(#p854f98dfee)" style="fill: none; stroke: #4c4c4c; stroke-linecap: round"/>
   </g>
   <g id="line2d_20">
    <path d="M 520.425 501.479179 
L 520.425 538.174112 
" clip-path="url(#p854f98dfee)" style="fill: none; stroke: #4c4c4c; stroke-linecap: round"/>
   </g>
   <g id="line2d_21">
    <path d="M 520.425 451.31503 
L 520.425 383.540555 
" clip-path="url(#p854f98dfee)" style="fill: none; stroke: #4c4c4c; stroke-linecap: round"/>
   </g>
   <g id="line2d_22">
    <path d="M 506.300625 538.174112 
L 534.549375 538.174112 
" clip-path="url(#p854f98dfee)" style="fill: none; stroke: #1a1a1a; stroke-linecap: round"/>
   </g>
   <g id="line2d_23">
    <path d="M 506.300625 383.540555 
L 534.549375 383.540555 
" clip-path="url(#p854f98dfee)" style="fill: none; stroke: #1a1a1a; stroke-linecap: round"/>
   </g>
   <g id="line2d_24">
    <g clip-path="url(#p854f98dfee)">
     <use xlink:href="#mf870368ed4" x="520.425" y="339.620873" style="fill-opacity: 0; stroke: #000000"/>
     <use xlink:href="#mf870368ed4" x="520.425" y="332.72803" style="fill-opacity: 0; stroke: #000000"/>
     <use xlink:href="#mf870368ed4" x="520.425" y="205.611814" style="fill-opacity: 0; stroke: #000000"/>
     <use xlink:href="#mf870368ed4" x="520.425" y="260.78929" style="fill-opacity: 0; stroke: #000000"/>
     <use xlink:href="#mf870368ed4" x="520.425" y="358.551105" style="fill-opacity: 0; stroke: #000000"/>
     <use xlink:href="#mf870368ed4" x="520.425" y="361.464933" style="fill-opacity: 0; stroke: #000000"/>
     <use xlink:href="#mf870368ed4" x="520.425" y="264.262727" style="fill-opacity: 0; stroke: #000000"/>
     <use xlink:href="#mf870368ed4" x="520.425" y="372.533619" style="fill-opacity: 0; stroke: #000000"/>
     <use xlink:href="#mf870368ed4" x="520.425" y="276.605007" style="fill-opacity: 0; stroke: #000000"/>
     <use xlink:href="#mf870368ed4" x="520.425" y="355.841824" style="fill-opacity: 0; stroke: #000000"/>
     <use xlink:href="#mf870368ed4" x="520.425" y="100.44" style="fill-opacity: 0; stroke: #000000"/>
     <use xlink:href="#mf870368ed4" x="520.425" y="370.908822" style="fill-opacity: 0; stroke: #000000"/>
     <use xlink:href="#mf870368ed4" x="520.425" y="362.742386" style="fill-opacity: 0; stroke: #000000"/>
     <use xlink:href="#mf870368ed4" x="520.425" y="306.870222" style="fill-opacity: 0; stroke: #000000"/>
    </g>
   </g>
   <g id="line2d_25">
    <path d="M 115.52625 461.588685 
L 172.02375 461.588685 
" clip-path="url(#p854f98dfee)" style="fill: none; stroke: #b0b0b0"/>
   </g>
   <g id="line2d_26">
    <path d="M 241.07625 457.165841 
L 297.57375 457.165841 
" clip-path="url(#p854f98dfee)" style="fill: none; stroke: #b0b0b0"/>
   </g>
   <g id="line2d_27">
    <path d="M 366.62625 482.456322 
L 423.12375 482.456322 
" clip-path="url(#p854f98dfee)" style="fill: none; stroke: #b0b0b0"/>
   </g>
   <g id="line2d_28">
    <path d="M 492.17625 479.932291 
L 548.67375 479.932291 
" clip-path="url(#p854f98dfee)" style="fill: none; stroke: #b0b0b0"/>
   </g>
   <g id="patch_3">
    <path d="M 81 576.72 
L 81 77.76 
" style="fill: none; stroke: #ffffff; stroke-width: 1.25; stroke-linejoin: miter; stroke-linecap: square"/>
   </g>
   <g id="patch_4">
    <path d="M 583.2 576.72 
L 583.2 77.76 
" style="fill: none; stroke: #ffffff; stroke-width: 1.25; stroke-linejoin: miter; stroke-linecap: square"/>
   </g>
   <g id="patch_5">
    <path d="M 81 576.72 
L 583.2 576.72 
" style="fill: none; stroke: #ffffff; stroke-width: 1.25; stroke-linejoin: miter; stroke-linecap: square"/>
   </g>
   <g id="patch_6">
    <path d="M 81 77.76 
L 583.2 77.76 
" style="fill: none; stroke: #ffffff; stroke-width: 1.25; stroke-linejoin: miter; stroke-linecap: square"/>
   </g>
   <g id="text_13">
    <!-- Median Duration (Cleaned) per Condition -->
    <g style="fill: #262626" transform="translate(168.020156 71.76) scale(0.18 -0.18)">
     <defs>
      <path id="ArialMT-4d" d="M 475 0 
L 475 4581 
L 1388 4581 
L 2472 1338 
Q 2622 884 2691 659 
Q 2769 909 2934 1394 
L 4031 4581 
L 4847 4581 
L 4847 0 
L 4263 0 
L 4263 3834 
L 2931 0 
L 2384 0 
L 1059 3900 
L 1059 0 
L 475 0 
z
" transform="scale(0.015625)"/>
      <path id="ArialMT-44" d="M 494 0 
L 494 4581 
L 2072 4581 
Q 2606 4581 2888 4516 
Q 3281 4425 3559 4188 
Q 3922 3881 4101 3404 
Q 4281 2928 4281 2316 
Q 4281 1794 4159 1391 
Q 4038 988 3847 723 
Q 3656 459 3429 307 
Q 3203 156 2883 78 
Q 2563 0 2147 0 
L 494 0 
z
M 1100 541 
L 2078 541 
Q 2531 541 2789 625 
Q 3047 709 3200 863 
Q 3416 1078 3536 1442 
Q 3656 1806 3656 2325 
Q 3656 3044 3420 3430 
Q 3184 3816 2847 3947 
Q 2603 4041 2063 4041 
L 1100 4041 
L 1100 541 
z
" transform="scale(0.015625)"/>
      <path id="ArialMT-72" d="M 416 0 
L 416 3319 
L 922 3319 
L 922 2816 
Q 1116 3169 1280 3281 
Q 1444 3394 1641 3394 
Q 1925 3394 2219 3213 
L 2025 2691 
Q 1819 2813 1613 2813 
Q 1428 2813 1281 2702 
Q 1134 2591 1072 2394 
Q 978 2094 978 1738 
L 978 0 
L 416 0 
z
" transform="scale(0.015625)"/>
      <path id="ArialMT-70" d="M 422 -1272 
L 422 3319 
L 934 3319 
L 934 2888 
Q 1116 3141 1344 3267 
Q 1572 3394 1897 3394 
Q 2322 3394 2647 3175 
Q 2972 2956 3137 2557 
Q 3303 2159 3303 1684 
Q 3303 1175 3120 767 
Q 2938 359 2589 142 
Q 2241 -75 1856 -75 
Q 1575 -75 1351 44 
Q 1128 163 984 344 
L 984 -1272 
L 422 -1272 
z
M 931 1641 
Q 931 1000 1190 694 
Q 1450 388 1819 388 
Q 2194 388 2461 705 
Q 2728 1022 2728 1688 
Q 2728 2322 2467 2637 
Q 2206 2953 1844 2953 
Q 1484 2953 1207 2617 
Q 931 2281 931 1641 
z
" transform="scale(0.015625)"/>
     </defs>
     <use xlink:href="#ArialMT-4d"/>
     <use xlink:href="#ArialMT-65" x="83.300781"/>
     <use xlink:href="#ArialMT-64" x="138.916016"/>
     <use xlink:href="#ArialMT-69" x="194.53125"/>
     <use xlink:href="#ArialMT-61" x="216.748047"/>
     <use xlink:href="#ArialMT-6e" x="272.363281"/>
     <use xlink:href="#ArialMT-20" x="327.978516"/>
     <use xlink:href="#ArialMT-44" x="355.761719"/>
     <use xlink:href="#ArialMT-75" x="427.978516"/>
     <use xlink:href="#ArialMT-72" x="483.59375"/>
     <use xlink:href="#ArialMT-61" x="516.894531"/>
     <use xlink:href="#ArialMT-74" x="572.509766"/>
     <use xlink:href="#ArialMT-69" x="600.292969"/>
     <use xlink:href="#ArialMT-6f" x="622.509766"/>
     <use xlink:href="#ArialMT-6e" x="678.125"/>
     <use xlink:href="#ArialMT-20" x="733.740234"/>
     <use xlink:href="#ArialMT-28" x="761.523438"/>
     <use xlink:href="#ArialMT-43" x="794.824219"/>
     <use xlink:href="#ArialMT-6c" x="867.041016"/>
     <use xlink:href="#ArialMT-65" x="889.257812"/>
     <use xlink:href="#ArialMT-61" x="944.873047"/>
     <use xlink:href="#ArialMT-6e" x="1000.488281"/>
     <use xlink:href="#ArialMT-65" x="1056.103516"/>
     <use xlink:href="#ArialMT-64" x="1111.71875"/>
     <use xlink:href="#ArialMT-29" x="1167.333984"/>
     <use xlink:href="#ArialMT-20" x="1200.634766"/>
     <use xlink:href="#ArialMT-70" x="1228.417969"/>
     <use xlink:href="#ArialMT-65" x="1284.033203"/>
     <use xlink:href="#ArialMT-72" x="1339.648438"/>
     <use xlink:href="#ArialMT-20" x="1372.949219"/>
     <use xlink:href="#ArialMT-43" x="1400.732422"/>
     <use xlink:href="#ArialMT-6f" x="1472.949219"/>
     <use xlink:href="#ArialMT-6e" x="1528.564453"/>
     <use xlink:href="#ArialMT-64" x="1584.179688"/>
     <use xlink:href="#ArialMT-69" x="1639.794922"/>
     <use xlink:href="#ArialMT-74" x="1662.011719"/>
     <use xlink:href="#ArialMT-69" x="1689.794922"/>
     <use xlink:href="#ArialMT-6f" x="1712.011719"/>
     <use xlink:href="#ArialMT-6e" x="1767.626953"/>
    </g>
   </g>
  </g>
 </g>
 <defs>
  <clipPath id="p854f98dfee">
   <rect x="81" y="77.76" width="502.2" height="498.96"/>
  </clipPath>
 </defs>
</svg>
