<?xml version="1.0" encoding="utf-8" standalone="no"?>
<!DOCTYPE svg PUBLIC "-//W3C//DTD SVG 1.1//EN"
  "http://www.w3.org/Graphics/SVG/1.1/DTD/svg11.dtd">
<svg xmlns:xlink="http://www.w3.org/1999/xlink" width="1338.328392pt" height="570.995391pt" viewBox="0 0 1338.328392 570.995391" xmlns="http://www.w3.org/2000/svg" version="1.1">
 <metadata>
  <rdf:RDF xmlns:dc="http://purl.org/dc/elements/1.1/" xmlns:cc="http://creativecommons.org/ns#" xmlns:rdf="http://www.w3.org/1999/02/22-rdf-syntax-ns#">
   <cc:Work>
    <dc:type rdf:resource="http://purl.org/dc/dcmitype/StillImage"/>
    <dc:date>2026-01-02T20:22:34.144675</dc:date>
    <dc:format>image/svg+xml</dc:format>
    <dc:creator>
     <cc:Agent>
      <dc:title>Matplotlib v3.8.0, https://matplotlib.org/</dc:title>
     </cc:Agent>
    </dc:creator>
   </cc:Work>
  </rdf:RDF>
 </metadata>
 <defs>
  <style type="text/css">*{stroke-linejoin: round; stroke-linecap: butt}</style>
 </defs>
 <g id="figure_1">
  <g id="patch_1">
   <path d="M 0 570.995391 
L 1338.328392 570.995391 
L 1338.328392 0 
L 0 0 
z
" style="fill: #ffffff"/>
  </g>
  <g id="axes_1">
   <g id="patch_2">
    <path d="M 55.942969 518.744063 
L 1113.970692 518.744063 
L 1113.970692 26.084062 
L 55.942969 26.084062 
z
" style="fill: #eaeaf2"/>
   </g>
   <g id="matplotlib.axis_1">
    <g id="xtick_1">
     <g id="line2d_1">
      <path d="M 147.755292 518.744063 
L 147.755292 26.084062 
" clip-path="url(#pfe03e135d2)" style="fill: none; stroke: #ffffff; stroke-linecap: round"/>
     </g>
     <g id="text_1">
      <!-- 0 -->
      <g style="fill: #262626" transform="translate(143.167518 540.054453) scale(0.165 -0.165)">
       <defs>
        <path id="ArialMT-30" d="M 266 2259 
Q 266 3072 433 3567 
Q 600 4063 929 4331 
Q 1259 4600 1759 4600 
Q 2128 4600 2406 4451 
Q 2684 4303 2865 4023 
Q 3047 3744 3150 3342 
Q 3253 2941 3253 2259 
Q 3253 1453 3087 958 
Q 2922 463 2592 192 
Q 2263 -78 1759 -78 
Q 1097 -78 719 397 
Q 266 969 266 2259 
z
M 844 2259 
Q 844 1131 1108 757 
Q 1372 384 1759 384 
Q 2147 384 2411 759 
Q 2675 1134 2675 2259 
Q 2675 3391 2411 3762 
Q 2147 4134 1753 4134 
Q 1366 4134 1134 3806 
Q 844 3388 844 2259 
z
" transform="scale(0.015625)"/>
       </defs>
       <use xlink:href="#ArialMT-30"/>
      </g>
     </g>
    </g>
    <g id="xtick_2">
     <g id="line2d_2">
      <path d="M 191.475446 518.744063 
L 191.475446 26.084062 
" clip-path="url(#pfe03e135d2)" style="fill: none; stroke: #ffffff; stroke-linecap: round"/>
     </g>
     <g id="text_2">
      <!-- 1 -->
      <g style="fill: #262626" transform="translate(186.887672 540.054453) scale(0.165 -0.165)">
       <defs>
        <path id="ArialMT-31" d="M 2384 0 
L 1822 0 
L 1822 3584 
Q 1619 3391 1289 3197 
Q 959 3003 697 2906 
L 697 3450 
Q 1169 3672 1522 3987 
Q 1875 4303 2022 4600 
L 2384 4600 
L 2384 0 
z
" transform="scale(0.015625)"/>
       </defs>
       <use xlink:href="#ArialMT-31"/>
      </g>
     </g>
    </g>
    <g id="xtick_3">
     <g id="line2d_3">
      <path d="M 235.1956 518.744063 
L 235.1956 26.084062 
" clip-path="url(#pfe03e135d2)" style="fill: none; stroke: #ffffff; stroke-linecap: round"/>
     </g>
     <g id="text_3">
      <!-- 2 -->
      <g style="fill: #262626" transform="translate(230.607826 540.054453) scale(0.165 -0.165)">
       <defs>
        <path id="ArialMT-32" d="M 3222 541 
L 3222 0 
L 194 0 
Q 188 203 259 391 
Q 375 700 629 1000 
Q 884 1300 1366 1694 
Q 2113 2306 2375 2664 
Q 2638 3022 2638 3341 
Q 2638 3675 2398 3904 
Q 2159 4134 1775 4134 
Q 1369 4134 1125 3890 
Q 881 3647 878 3216 
L 300 3275 
Q 359 3922 746 4261 
Q 1134 4600 1788 4600 
Q 2447 4600 2831 4234 
Q 3216 3869 3216 3328 
Q 3216 3053 3103 2787 
Q 2991 2522 2730 2228 
Q 2469 1934 1863 1422 
Q 1356 997 1212 845 
Q 1069 694 975 541 
L 3222 541 
z
" transform="scale(0.015625)"/>
       </defs>
       <use xlink:href="#ArialMT-32"/>
      </g>
     </g>
    </g>
    <g id="xtick_4">
     <g id="line2d_4">
      <path d="M 278.915753 518.744063 
L 278.915753 26.084062 
" clip-path="url(#pfe03e135d2)" style="fill: none; stroke: #ffffff; stroke-linecap: round"/>
     </g>
     <g id="text_4">
      <!-- 3 -->
      <g style="fill: #262626" transform="translate(274.32798 540.054453) scale(0.165 -0.165)">
       <defs>
        <path id="ArialMT-33" d="M 269 1209 
L 831 1284 
Q 928 806 1161 595 
Q 1394 384 1728 384 
Q 2125 384 2398 659 
Q 2672 934 2672 1341 
Q 2672 1728 2419 1979 
Q 2166 2231 1775 2231 
Q 1616 2231 1378 2169 
L 1441 2663 
Q 1497 2656 1531 2656 
Q 1891 2656 2178 2843 
Q 2466 3031 2466 3422 
Q 2466 3731 2256 3934 
Q 2047 4138 1716 4138 
Q 1388 4138 1169 3931 
Q 950 3725 888 3313 
L 325 3413 
Q 428 3978 793 4289 
Q 1159 4600 1703 4600 
Q 2078 4600 2393 4439 
Q 2709 4278 2876 4000 
Q 3044 3722 3044 3409 
Q 3044 3113 2884 2869 
Q 2725 2625 2413 2481 
Q 2819 2388 3044 2092 
Q 3269 1797 3269 1353 
Q 3269 753 2831 336 
Q 2394 -81 1725 -81 
Q 1122 -81 723 278 
Q 325 638 269 1209 
z
" transform="scale(0.015625)"/>
       </defs>
       <use xlink:href="#ArialMT-33"/>
      </g>
     </g>
    </g>
    <g id="xtick_5">
     <g id="line2d_5">
      <path d="M 322.635907 518.744063 
L 322.635907 26.084062 
" clip-path="url(#pfe03e135d2)" style="fill: none; stroke: #ffffff; stroke-linecap: round"/>
     </g>
     <g id="text_5">
      <!-- 4 -->
      <g style="fill: #262626" transform="translate(318.048134 540.054453) scale(0.165 -0.165)">
       <defs>
        <path id="ArialMT-34" d="M 2069 0 
L 2069 1097 
L 81 1097 
L 81 1613 
L 2172 4581 
L 2631 4581 
L 2631 1613 
L 3250 1613 
L 3250 1097 
L 2631 1097 
L 2631 0 
L 2069 0 
z
M 2069 1613 
L 2069 3678 
L 634 1613 
L 2069 1613 
z
" transform="scale(0.015625)"/>
       </defs>
       <use xlink:href="#ArialMT-34"/>
      </g>
     </g>
    </g>
    <g id="xtick_6">
     <g id="line2d_6">
      <path d="M 366.356061 518.744063 
L 366.356061 26.084062 
" clip-path="url(#pfe03e135d2)" style="fill: none; stroke: #ffffff; stroke-linecap: round"/>
     </g>
     <g id="text_6">
      <!-- 5 -->
      <g style="fill: #262626" transform="translate(361.768288 540.054453) scale(0.165 -0.165)">
       <defs>
        <path id="ArialMT-35" d="M 266 1200 
L 856 1250 
Q 922 819 1161 601 
Q 1400 384 1738 384 
Q 2144 384 2425 690 
Q 2706 997 2706 1503 
Q 2706 1984 2436 2262 
Q 2166 2541 1728 2541 
Q 1456 2541 1237 2417 
Q 1019 2294 894 2097 
L 366 2166 
L 809 4519 
L 3088 4519 
L 3088 3981 
L 1259 3981 
L 1013 2750 
Q 1425 3038 1878 3038 
Q 2478 3038 2890 2622 
Q 3303 2206 3303 1553 
Q 3303 931 2941 478 
Q 2500 -78 1738 -78 
Q 1113 -78 717 272 
Q 322 622 266 1200 
z
" transform="scale(0.015625)"/>
       </defs>
       <use xlink:href="#ArialMT-35"/>
      </g>
     </g>
    </g>
    <g id="xtick_7">
     <g id="line2d_7">
      <path d="M 410.076215 518.744063 
L 410.076215 26.084062 
" clip-path="url(#pfe03e135d2)" style="fill: none; stroke: #ffffff; stroke-linecap: round"/>
     </g>
     <g id="text_7">
      <!-- 6 -->
      <g style="fill: #262626" transform="translate(405.488442 540.054453) scale(0.165 -0.165)">
       <defs>
        <path id="ArialMT-36" d="M 3184 3459 
L 2625 3416 
Q 2550 3747 2413 3897 
Q 2184 4138 1850 4138 
Q 1581 4138 1378 3988 
Q 1113 3794 959 3422 
Q 806 3050 800 2363 
Q 1003 2672 1297 2822 
Q 1591 2972 1913 2972 
Q 2475 2972 2870 2558 
Q 3266 2144 3266 1488 
Q 3266 1056 3080 686 
Q 2894 316 2569 119 
Q 2244 -78 1831 -78 
Q 1128 -78 684 439 
Q 241 956 241 2144 
Q 241 3472 731 4075 
Q 1159 4600 1884 4600 
Q 2425 4600 2770 4297 
Q 3116 3994 3184 3459 
z
M 888 1484 
Q 888 1194 1011 928 
Q 1134 663 1356 523 
Q 1578 384 1822 384 
Q 2178 384 2434 671 
Q 2691 959 2691 1453 
Q 2691 1928 2437 2201 
Q 2184 2475 1800 2475 
Q 1419 2475 1153 2201 
Q 888 1928 888 1484 
z
" transform="scale(0.015625)"/>
       </defs>
       <use xlink:href="#ArialMT-36"/>
      </g>
     </g>
    </g>
    <g id="xtick_8">
     <g id="line2d_8">
      <path d="M 453.796369 518.744063 
L 453.796369 26.084062 
" clip-path="url(#pfe03e135d2)" style="fill: none; stroke: #ffffff; stroke-linecap: round"/>
     </g>
     <g id="text_8">
      <!-- 7 -->
      <g style="fill: #262626" transform="translate(449.208595 540.054453) scale(0.165 -0.165)">
       <defs>
        <path id="ArialMT-37" d="M 303 3981 
L 303 4522 
L 3269 4522 
L 3269 4084 
Q 2831 3619 2401 2847 
Q 1972 2075 1738 1259 
Q 1569 684 1522 0 
L 944 0 
Q 953 541 1156 1306 
Q 1359 2072 1739 2783 
Q 2119 3494 2547 3981 
L 303 3981 
z
" transform="scale(0.015625)"/>
       </defs>
       <use xlink:href="#ArialMT-37"/>
      </g>
     </g>
    </g>
    <g id="xtick_9">
     <g id="line2d_9">
      <path d="M 497.516523 518.744063 
L 497.516523 26.084062 
" clip-path="url(#pfe03e135d2)" style="fill: none; stroke: #ffffff; stroke-linecap: round"/>
     </g>
     <g id="text_9">
      <!-- 8 -->
      <g style="fill: #262626" transform="translate(492.928749 540.054453) scale(0.165 -0.165)">
       <defs>
        <path id="ArialMT-38" d="M 1131 2484 
Q 781 2613 612 2850 
Q 444 3088 444 3419 
Q 444 3919 803 4259 
Q 1163 4600 1759 4600 
Q 2359 4600 2725 4251 
Q 3091 3903 3091 3403 
Q 3091 3084 2923 2848 
Q 2756 2613 2416 2484 
Q 2838 2347 3058 2040 
Q 3278 1734 3278 1309 
Q 3278 722 2862 322 
Q 2447 -78 1769 -78 
Q 1091 -78 675 323 
Q 259 725 259 1325 
Q 259 1772 486 2073 
Q 713 2375 1131 2484 
z
M 1019 3438 
Q 1019 3113 1228 2906 
Q 1438 2700 1772 2700 
Q 2097 2700 2305 2904 
Q 2513 3109 2513 3406 
Q 2513 3716 2298 3927 
Q 2084 4138 1766 4138 
Q 1444 4138 1231 3931 
Q 1019 3725 1019 3438 
z
M 838 1322 
Q 838 1081 952 856 
Q 1066 631 1291 507 
Q 1516 384 1775 384 
Q 2178 384 2440 643 
Q 2703 903 2703 1303 
Q 2703 1709 2433 1975 
Q 2163 2241 1756 2241 
Q 1359 2241 1098 1978 
Q 838 1716 838 1322 
z
" transform="scale(0.015625)"/>
       </defs>
       <use xlink:href="#ArialMT-38"/>
      </g>
     </g>
    </g>
    <g id="xtick_10">
     <g id="line2d_10">
      <path d="M 541.236677 518.744063 
L 541.236677 26.084062 
" clip-path="url(#pfe03e135d2)" style="fill: none; stroke: #ffffff; stroke-linecap: round"/>
     </g>
     <g id="text_10">
      <!-- 9 -->
      <g style="fill: #262626" transform="translate(536.648903 540.054453) scale(0.165 -0.165)">
       <defs>
        <path id="ArialMT-39" d="M 350 1059 
L 891 1109 
Q 959 728 1153 556 
Q 1347 384 1650 384 
Q 1909 384 2104 503 
Q 2300 622 2425 820 
Q 2550 1019 2634 1356 
Q 2719 1694 2719 2044 
Q 2719 2081 2716 2156 
Q 2547 1888 2255 1720 
Q 1963 1553 1622 1553 
Q 1053 1553 659 1965 
Q 266 2378 266 3053 
Q 266 3750 677 4175 
Q 1088 4600 1706 4600 
Q 2153 4600 2523 4359 
Q 2894 4119 3086 3673 
Q 3278 3228 3278 2384 
Q 3278 1506 3087 986 
Q 2897 466 2520 194 
Q 2144 -78 1638 -78 
Q 1100 -78 759 220 
Q 419 519 350 1059 
z
M 2653 3081 
Q 2653 3566 2395 3850 
Q 2138 4134 1775 4134 
Q 1400 4134 1122 3828 
Q 844 3522 844 3034 
Q 844 2597 1108 2323 
Q 1372 2050 1759 2050 
Q 2150 2050 2401 2323 
Q 2653 2597 2653 3081 
z
" transform="scale(0.015625)"/>
       </defs>
       <use xlink:href="#ArialMT-39"/>
      </g>
     </g>
    </g>
    <g id="xtick_11">
     <g id="line2d_11">
      <path d="M 584.95683 518.744063 
L 584.95683 26.084062 
" clip-path="url(#pfe03e135d2)" style="fill: none; stroke: #ffffff; stroke-linecap: round"/>
     </g>
     <g id="text_11">
      <!-- 10 -->
      <g style="fill: #262626" transform="translate(575.781284 540.054453) scale(0.165 -0.165)">
       <use xlink:href="#ArialMT-31"/>
       <use xlink:href="#ArialMT-30" x="55.615234"/>
      </g>
     </g>
    </g>
    <g id="xtick_12">
     <g id="line2d_12">
      <path d="M 628.676984 518.744063 
L 628.676984 26.084062 
" clip-path="url(#pfe03e135d2)" style="fill: none; stroke: #ffffff; stroke-linecap: round"/>
     </g>
     <g id="text_12">
      <!-- 11 -->
      <g style="fill: #262626" transform="translate(620.109875 540.054453) scale(0.165 -0.165)">
       <use xlink:href="#ArialMT-31"/>
       <use xlink:href="#ArialMT-31" x="48.240234"/>
      </g>
     </g>
    </g>
    <g id="xtick_13">
     <g id="line2d_13">
      <path d="M 672.397138 518.744063 
L 672.397138 26.084062 
" clip-path="url(#pfe03e135d2)" style="fill: none; stroke: #ffffff; stroke-linecap: round"/>
     </g>
     <g id="text_13">
      <!-- 12 -->
      <g style="fill: #262626" transform="translate(663.221591 540.054453) scale(0.165 -0.165)">
       <use xlink:href="#ArialMT-31"/>
       <use xlink:href="#ArialMT-32" x="55.615234"/>
      </g>
     </g>
    </g>
    <g id="xtick_14">
     <g id="line2d_14">
      <path d="M 716.117292 518.744063 
L 716.117292 26.084062 
" clip-path="url(#pfe03e135d2)" style="fill: none; stroke: #ffffff; stroke-linecap: round"/>
     </g>
     <g id="text_14">
      <!-- 13 -->
      <g style="fill: #262626" transform="translate(706.941745 540.054453) scale(0.165 -0.165)">
       <use xlink:href="#ArialMT-31"/>
       <use xlink:href="#ArialMT-33" x="55.615234"/>
      </g>
     </g>
    </g>
    <g id="xtick_15">
     <g id="line2d_15">
      <path d="M 759.837446 518.744063 
L 759.837446 26.084062 
" clip-path="url(#pfe03e135d2)" style="fill: none; stroke: #ffffff; stroke-linecap: round"/>
     </g>
     <g id="text_15">
      <!-- 14 -->
      <g style="fill: #262626" transform="translate(750.661899 540.054453) scale(0.165 -0.165)">
       <use xlink:href="#ArialMT-31"/>
       <use xlink:href="#ArialMT-34" x="55.615234"/>
      </g>
     </g>
    </g>
    <g id="xtick_16">
     <g id="line2d_16">
      <path d="M 803.5576 518.744063 
L 803.5576 26.084062 
" clip-path="url(#pfe03e135d2)" style="fill: none; stroke: #ffffff; stroke-linecap: round"/>
     </g>
     <g id="text_16">
      <!-- 15 -->
      <g style="fill: #262626" transform="translate(794.382053 540.054453) scale(0.165 -0.165)">
       <use xlink:href="#ArialMT-31"/>
       <use xlink:href="#ArialMT-35" x="55.615234"/>
      </g>
     </g>
    </g>
    <g id="xtick_17">
     <g id="line2d_17">
      <path d="M 847.277754 518.744063 
L 847.277754 26.084062 
" clip-path="url(#pfe03e135d2)" style="fill: none; stroke: #ffffff; stroke-linecap: round"/>
     </g>
     <g id="text_17">
      <!-- 16 -->
      <g style="fill: #262626" transform="translate(838.102207 540.054453) scale(0.165 -0.165)">
       <use xlink:href="#ArialMT-31"/>
       <use xlink:href="#ArialMT-36" x="55.615234"/>
      </g>
     </g>
    </g>
    <g id="xtick_18">
     <g id="line2d_18">
      <path d="M 890.997907 518.744063 
L 890.997907 26.084062 
" clip-path="url(#pfe03e135d2)" style="fill: none; stroke: #ffffff; stroke-linecap: round"/>
     </g>
     <g id="text_18">
      <!-- 17 -->
      <g style="fill: #262626" transform="translate(881.822361 540.054453) scale(0.165 -0.165)">
       <use xlink:href="#ArialMT-31"/>
       <use xlink:href="#ArialMT-37" x="55.615234"/>
      </g>
     </g>
    </g>
    <g id="xtick_19">
     <g id="line2d_19">
      <path d="M 934.718061 518.744063 
L 934.718061 26.084062 
" clip-path="url(#pfe03e135d2)" style="fill: none; stroke: #ffffff; stroke-linecap: round"/>
     </g>
     <g id="text_19">
      <!-- 18 -->
      <g style="fill: #262626" transform="translate(925.542514 540.054453) scale(0.165 -0.165)">
       <use xlink:href="#ArialMT-31"/>
       <use xlink:href="#ArialMT-38" x="55.615234"/>
      </g>
     </g>
    </g>
    <g id="xtick_20">
     <g id="line2d_20">
      <path d="M 978.438215 518.744063 
L 978.438215 26.084062 
" clip-path="url(#pfe03e135d2)" style="fill: none; stroke: #ffffff; stroke-linecap: round"/>
     </g>
     <g id="text_20">
      <!-- 19 -->
      <g style="fill: #262626" transform="translate(969.262668 540.054453) scale(0.165 -0.165)">
       <use xlink:href="#ArialMT-31"/>
       <use xlink:href="#ArialMT-39" x="55.615234"/>
      </g>
     </g>
    </g>
    <g id="xtick_21">
     <g id="line2d_21">
      <path d="M 1022.158369 518.744063 
L 1022.158369 26.084062 
" clip-path="url(#pfe03e135d2)" style="fill: none; stroke: #ffffff; stroke-linecap: round"/>
     </g>
     <g id="text_21">
      <!-- 20 -->
      <g style="fill: #262626" transform="translate(1012.982822 540.054453) scale(0.165 -0.165)">
       <use xlink:href="#ArialMT-32"/>
       <use xlink:href="#ArialMT-30" x="55.615234"/>
      </g>
     </g>
    </g>
    <g id="text_22">
     <!-- Trial Number -->
     <g style="fill: #262626" transform="translate(533.288393 560.217891) scale(0.18 -0.18)">
      <defs>
       <path id="ArialMT-54" d="M 1659 0 
L 1659 4041 
L 150 4041 
L 150 4581 
L 3781 4581 
L 3781 4041 
L 2266 4041 
L 2266 0 
L 1659 0 
z
" transform="scale(0.015625)"/>
       <path id="ArialMT-72" d="M 416 0 
L 416 3319 
L 922 3319 
L 922 2816 
Q 1116 3169 1280 3281 
Q 1444 3394 1641 3394 
Q 1925 3394 2219 3213 
L 2025 2691 
Q 1819 2813 1613 2813 
Q 1428 2813 1281 2702 
Q 1134 2591 1072 2394 
Q 978 2094 978 1738 
L 978 0 
L 416 0 
z
" transform="scale(0.015625)"/>
       <path id="ArialMT-69" d="M 425 3934 
L 425 4581 
L 988 4581 
L 988 3934 
L 425 3934 
z
M 425 0 
L 425 3319 
L 988 3319 
L 988 0 
L 425 0 
z
" transform="scale(0.015625)"/>
       <path id="ArialMT-61" d="M 2588 409 
Q 2275 144 1986 34 
Q 1697 -75 1366 -75 
Q 819 -75 525 192 
Q 231 459 231 875 
Q 231 1119 342 1320 
Q 453 1522 633 1644 
Q 813 1766 1038 1828 
Q 1203 1872 1538 1913 
Q 2219 1994 2541 2106 
Q 2544 2222 2544 2253 
Q 2544 2597 2384 2738 
Q 2169 2928 1744 2928 
Q 1347 2928 1158 2789 
Q 969 2650 878 2297 
L 328 2372 
Q 403 2725 575 2942 
Q 747 3159 1072 3276 
Q 1397 3394 1825 3394 
Q 2250 3394 2515 3294 
Q 2781 3194 2906 3042 
Q 3031 2891 3081 2659 
Q 3109 2516 3109 2141 
L 3109 1391 
Q 3109 606 3145 398 
Q 3181 191 3288 0 
L 2700 0 
Q 2613 175 2588 409 
z
M 2541 1666 
Q 2234 1541 1622 1453 
Q 1275 1403 1131 1340 
Q 988 1278 909 1158 
Q 831 1038 831 891 
Q 831 666 1001 516 
Q 1172 366 1500 366 
Q 1825 366 2078 508 
Q 2331 650 2450 897 
Q 2541 1088 2541 1459 
L 2541 1666 
z
" transform="scale(0.015625)"/>
       <path id="ArialMT-6c" d="M 409 0 
L 409 4581 
L 972 4581 
L 972 0 
L 409 0 
z
" transform="scale(0.015625)"/>
       <path id="ArialMT-20" transform="scale(0.015625)"/>
       <path id="ArialMT-4e" d="M 488 0 
L 488 4581 
L 1109 4581 
L 3516 984 
L 3516 4581 
L 4097 4581 
L 4097 0 
L 3475 0 
L 1069 3600 
L 1069 0 
L 488 0 
z
" transform="scale(0.015625)"/>
       <path id="ArialMT-75" d="M 2597 0 
L 2597 488 
Q 2209 -75 1544 -75 
Q 1250 -75 995 37 
Q 741 150 617 320 
Q 494 491 444 738 
Q 409 903 409 1263 
L 409 3319 
L 972 3319 
L 972 1478 
Q 972 1038 1006 884 
Q 1059 663 1231 536 
Q 1403 409 1656 409 
Q 1909 409 2131 539 
Q 2353 669 2445 892 
Q 2538 1116 2538 1541 
L 2538 3319 
L 3100 3319 
L 3100 0 
L 2597 0 
z
" transform="scale(0.015625)"/>
       <path id="ArialMT-6d" d="M 422 0 
L 422 3319 
L 925 3319 
L 925 2853 
Q 1081 3097 1340 3245 
Q 1600 3394 1931 3394 
Q 2300 3394 2536 3241 
Q 2772 3088 2869 2813 
Q 3263 3394 3894 3394 
Q 4388 3394 4653 3120 
Q 4919 2847 4919 2278 
L 4919 0 
L 4359 0 
L 4359 2091 
Q 4359 2428 4304 2576 
Q 4250 2725 4106 2815 
Q 3963 2906 3769 2906 
Q 3419 2906 3187 2673 
Q 2956 2441 2956 1928 
L 2956 0 
L 2394 0 
L 2394 2156 
Q 2394 2531 2256 2718 
Q 2119 2906 1806 2906 
Q 1569 2906 1367 2781 
Q 1166 2656 1075 2415 
Q 984 2175 984 1722 
L 984 0 
L 422 0 
z
" transform="scale(0.015625)"/>
       <path id="ArialMT-62" d="M 941 0 
L 419 0 
L 419 4581 
L 981 4581 
L 981 2947 
Q 1338 3394 1891 3394 
Q 2197 3394 2470 3270 
Q 2744 3147 2920 2923 
Q 3097 2700 3197 2384 
Q 3297 2069 3297 1709 
Q 3297 856 2875 390 
Q 2453 -75 1863 -75 
Q 1275 -75 941 416 
L 941 0 
z
M 934 1684 
Q 934 1088 1097 822 
Q 1363 388 1816 388 
Q 2184 388 2453 708 
Q 2722 1028 2722 1663 
Q 2722 2313 2464 2622 
Q 2206 2931 1841 2931 
Q 1472 2931 1203 2611 
Q 934 2291 934 1684 
z
" transform="scale(0.015625)"/>
       <path id="ArialMT-65" d="M 2694 1069 
L 3275 997 
Q 3138 488 2766 206 
Q 2394 -75 1816 -75 
Q 1088 -75 661 373 
Q 234 822 234 1631 
Q 234 2469 665 2931 
Q 1097 3394 1784 3394 
Q 2450 3394 2872 2941 
Q 3294 2488 3294 1666 
Q 3294 1616 3291 1516 
L 816 1516 
Q 847 969 1125 678 
Q 1403 388 1819 388 
Q 2128 388 2347 550 
Q 2566 713 2694 1069 
z
M 847 1978 
L 2700 1978 
Q 2663 2397 2488 2606 
Q 2219 2931 1791 2931 
Q 1403 2931 1139 2672 
Q 875 2413 847 1978 
z
" transform="scale(0.015625)"/>
      </defs>
      <use xlink:href="#ArialMT-54"/>
      <use xlink:href="#ArialMT-72" x="57.333984"/>
      <use xlink:href="#ArialMT-69" x="90.634766"/>
      <use xlink:href="#ArialMT-61" x="112.851562"/>
      <use xlink:href="#ArialMT-6c" x="168.466797"/>
      <use xlink:href="#ArialMT-20" x="190.683594"/>
      <use xlink:href="#ArialMT-4e" x="218.466797"/>
      <use xlink:href="#ArialMT-75" x="290.683594"/>
      <use xlink:href="#ArialMT-6d" x="346.298828"/>
      <use xlink:href="#ArialMT-62" x="429.599609"/>
      <use xlink:href="#ArialMT-65" x="485.214844"/>
      <use xlink:href="#ArialMT-72" x="540.830078"/>
     </g>
    </g>
   </g>
   <g id="matplotlib.axis_2">
    <g id="ytick_1">
     <g id="line2d_22">
      <path d="M 55.942969 512.190306 
L 1113.970692 512.190306 
" clip-path="url(#pfe03e135d2)" style="fill: none; stroke: #ffffff; stroke-linecap: round"/>
     </g>
     <g id="text_23">
      <!-- 25 -->
      <g style="fill: #262626" transform="translate(28.091875 518.095501) scale(0.165 -0.165)">
       <use xlink:href="#ArialMT-32"/>
       <use xlink:href="#ArialMT-35" x="55.615234"/>
      </g>
     </g>
    </g>
    <g id="ytick_2">
     <g id="line2d_23">
      <path d="M 55.942969 439.498059 
L 1113.970692 439.498059 
" clip-path="url(#pfe03e135d2)" style="fill: none; stroke: #ffffff; stroke-linecap: round"/>
     </g>
     <g id="text_24">
      <!-- 30 -->
      <g style="fill: #262626" transform="translate(28.091875 445.403254) scale(0.165 -0.165)">
       <use xlink:href="#ArialMT-33"/>
       <use xlink:href="#ArialMT-30" x="55.615234"/>
      </g>
     </g>
    </g>
    <g id="ytick_3">
     <g id="line2d_24">
      <path d="M 55.942969 366.805811 
L 1113.970692 366.805811 
" clip-path="url(#pfe03e135d2)" style="fill: none; stroke: #ffffff; stroke-linecap: round"/>
     </g>
     <g id="text_25">
      <!-- 35 -->
      <g style="fill: #262626" transform="translate(28.091875 372.711006) scale(0.165 -0.165)">
       <use xlink:href="#ArialMT-33"/>
       <use xlink:href="#ArialMT-35" x="55.615234"/>
      </g>
     </g>
    </g>
    <g id="ytick_4">
     <g id="line2d_25">
      <path d="M 55.942969 294.113564 
L 1113.970692 294.113564 
" clip-path="url(#pfe03e135d2)" style="fill: none; stroke: #ffffff; stroke-linecap: round"/>
     </g>
     <g id="text_26">
      <!-- 40 -->
      <g style="fill: #262626" transform="translate(28.091875 300.018759) scale(0.165 -0.165)">
       <use xlink:href="#ArialMT-34"/>
       <use xlink:href="#ArialMT-30" x="55.615234"/>
      </g>
     </g>
    </g>
    <g id="ytick_5">
     <g id="line2d_26">
      <path d="M 55.942969 221.421316 
L 1113.970692 221.421316 
" clip-path="url(#pfe03e135d2)" style="fill: none; stroke: #ffffff; stroke-linecap: round"/>
     </g>
     <g id="text_27">
      <!-- 45 -->
      <g style="fill: #262626" transform="translate(28.091875 227.326512) scale(0.165 -0.165)">
       <use xlink:href="#ArialMT-34"/>
       <use xlink:href="#ArialMT-35" x="55.615234"/>
      </g>
     </g>
    </g>
    <g id="ytick_6">
     <g id="line2d_27">
      <path d="M 55.942969 148.729069 
L 1113.970692 148.729069 
" clip-path="url(#pfe03e135d2)" style="fill: none; stroke: #ffffff; stroke-linecap: round"/>
     </g>
     <g id="text_28">
      <!-- 50 -->
      <g style="fill: #262626" transform="translate(28.091875 154.634264) scale(0.165 -0.165)">
       <use xlink:href="#ArialMT-35"/>
       <use xlink:href="#ArialMT-30" x="55.615234"/>
      </g>
     </g>
    </g>
    <g id="ytick_7">
     <g id="line2d_28">
      <path d="M 55.942969 76.036821 
L 1113.970692 76.036821 
" clip-path="url(#pfe03e135d2)" style="fill: none; stroke: #ffffff; stroke-linecap: round"/>
     </g>
     <g id="text_29">
      <!-- 55 -->
      <g style="fill: #262626" transform="translate(28.091875 81.942017) scale(0.165 -0.165)">
       <use xlink:href="#ArialMT-35"/>
       <use xlink:href="#ArialMT-35" x="55.615234"/>
      </g>
     </g>
    </g>
    <g id="text_30">
     <!-- Time (s) -->
     <g style="fill: #262626" transform="translate(20.303438 305.068594) rotate(-90) scale(0.18 -0.18)">
      <defs>
       <path id="ArialMT-28" d="M 1497 -1347 
Q 1031 -759 709 28 
Q 388 816 388 1659 
Q 388 2403 628 3084 
Q 909 3875 1497 4659 
L 1900 4659 
Q 1522 4009 1400 3731 
Q 1209 3300 1100 2831 
Q 966 2247 966 1656 
Q 966 153 1900 -1347 
L 1497 -1347 
z
" transform="scale(0.015625)"/>
       <path id="ArialMT-73" d="M 197 991 
L 753 1078 
Q 800 744 1014 566 
Q 1228 388 1613 388 
Q 2000 388 2187 545 
Q 2375 703 2375 916 
Q 2375 1106 2209 1216 
Q 2094 1291 1634 1406 
Q 1016 1563 777 1677 
Q 538 1791 414 1992 
Q 291 2194 291 2438 
Q 291 2659 392 2848 
Q 494 3038 669 3163 
Q 800 3259 1026 3326 
Q 1253 3394 1513 3394 
Q 1903 3394 2198 3281 
Q 2494 3169 2634 2976 
Q 2775 2784 2828 2463 
L 2278 2388 
Q 2241 2644 2061 2787 
Q 1881 2931 1553 2931 
Q 1166 2931 1000 2803 
Q 834 2675 834 2503 
Q 834 2394 903 2306 
Q 972 2216 1119 2156 
Q 1203 2125 1616 2013 
Q 2213 1853 2448 1751 
Q 2684 1650 2818 1456 
Q 2953 1263 2953 975 
Q 2953 694 2789 445 
Q 2625 197 2315 61 
Q 2006 -75 1616 -75 
Q 969 -75 630 194 
Q 291 463 197 991 
z
" transform="scale(0.015625)"/>
       <path id="ArialMT-29" d="M 791 -1347 
L 388 -1347 
Q 1322 153 1322 1656 
Q 1322 2244 1188 2822 
Q 1081 3291 891 3722 
Q 769 4003 388 4659 
L 791 4659 
Q 1378 3875 1659 3084 
Q 1900 2403 1900 1659 
Q 1900 816 1576 28 
Q 1253 -759 791 -1347 
z
" transform="scale(0.015625)"/>
      </defs>
      <use xlink:href="#ArialMT-54"/>
      <use xlink:href="#ArialMT-69" x="57.333984"/>
      <use xlink:href="#ArialMT-6d" x="79.550781"/>
      <use xlink:href="#ArialMT-65" x="162.851562"/>
      <use xlink:href="#ArialMT-20" x="218.466797"/>
      <use xlink:href="#ArialMT-28" x="246.25"/>
      <use xlink:href="#ArialMT-73" x="279.550781"/>
      <use xlink:href="#ArialMT-29" x="329.550781"/>
     </g>
    </g>
   </g>
   <g id="PathCollection_1">
    <defs>
     <path id="mbcf99f7bb7" d="M 0 3.535534 
C 0.937635 3.535534 1.836992 3.163008 2.5 2.5 
C 3.163008 1.836992 3.535534 0.937635 3.535534 0 
C 3.535534 -0.937635 3.163008 -1.836992 2.5 -2.5 
C 1.836992 -3.163008 0.937635 -3.535534 0 -3.535534 
C -0.937635 -3.535534 -1.836992 -3.163008 -2.5 -2.5 
C -3.163008 -1.836992 -3.535534 -0.937635 -3.535534 0 
C -3.535534 0.937635 -3.163008 1.836992 -2.5 2.5 
C -1.836992 3.163008 -0.937635 3.535534 0 3.535534 
z
" style="stroke: #4c72b0"/>
    </defs>
    <g clip-path="url(#pfe03e135d2)">
     <use xlink:href="#mbcf99f7bb7" x="147.755292" y="282.763881" style="fill: #4c72b0; stroke: #4c72b0"/>
     <use xlink:href="#mbcf99f7bb7" x="191.475446" y="272.581428" style="fill: #4c72b0; stroke: #4c72b0"/>
     <use xlink:href="#mbcf99f7bb7" x="235.1956" y="245.187527" style="fill: #4c72b0; stroke: #4c72b0"/>
     <use xlink:href="#mbcf99f7bb7" x="278.915753" y="282.329112" style="fill: #4c72b0; stroke: #4c72b0"/>
     <use xlink:href="#mbcf99f7bb7" x="322.635907" y="256.931825" style="fill: #4c72b0; stroke: #4c72b0"/>
     <use xlink:href="#mbcf99f7bb7" x="366.356061" y="349.776441" style="fill: #4c72b0; stroke: #4c72b0"/>
     <use xlink:href="#mbcf99f7bb7" x="410.076215" y="365.663504" style="fill: #4c72b0; stroke: #4c72b0"/>
     <use xlink:href="#mbcf99f7bb7" x="453.796369" y="300.626789" style="fill: #4c72b0; stroke: #4c72b0"/>
     <use xlink:href="#mbcf99f7bb7" x="497.516523" y="349.036364" style="fill: #4c72b0; stroke: #4c72b0"/>
     <use xlink:href="#mbcf99f7bb7" x="541.236677" y="303.428556" style="fill: #4c72b0; stroke: #4c72b0"/>
     <use xlink:href="#mbcf99f7bb7" x="584.95683" y="293.44341" style="fill: #4c72b0; stroke: #4c72b0"/>
     <use xlink:href="#mbcf99f7bb7" x="628.676984" y="281.676959" style="fill: #4c72b0; stroke: #4c72b0"/>
     <use xlink:href="#mbcf99f7bb7" x="672.397138" y="317.694237" style="fill: #4c72b0; stroke: #4c72b0"/>
     <use xlink:href="#mbcf99f7bb7" x="716.117292" y="303.301172" style="fill: #4c72b0; stroke: #4c72b0"/>
     <use xlink:href="#mbcf99f7bb7" x="759.837446" y="292.443027" style="fill: #4c72b0; stroke: #4c72b0"/>
     <use xlink:href="#mbcf99f7bb7" x="803.5576" y="170.278513" style="fill: #4c72b0; stroke: #4c72b0"/>
     <use xlink:href="#mbcf99f7bb7" x="847.277754" y="281.32319" style="fill: #4c72b0; stroke: #4c72b0"/>
     <use xlink:href="#mbcf99f7bb7" x="890.997907" y="250.392292" style="fill: #4c72b0; stroke: #4c72b0"/>
     <use xlink:href="#mbcf99f7bb7" x="934.718061" y="313.02324" style="fill: #4c72b0; stroke: #4c72b0"/>
     <use xlink:href="#mbcf99f7bb7" x="978.438215" y="295.680947" style="fill: #4c72b0; stroke: #4c72b0"/>
     <use xlink:href="#mbcf99f7bb7" x="1022.158369" y="343.745061" style="fill: #4c72b0; stroke: #4c72b0"/>
    </g>
   </g>
   <g id="PolyCollection_1">
    <defs>
     <path id="maf8adc18e3" d="M 147.755292 -312.845716 
L 147.755292 -240.81149 
L 156.587646 -241.513188 
L 165.42 -242.214885 
L 174.252355 -242.916583 
L 183.084709 -243.618281 
L 191.917063 -244.319978 
L 200.749418 -244.929181 
L 209.581772 -245.462115 
L 218.414126 -246.165147 
L 227.246481 -246.85859 
L 236.078835 -247.550792 
L 244.911189 -248.114231 
L 253.743544 -248.498293 
L 262.575898 -248.882355 
L 271.408252 -249.27021 
L 280.240607 -249.663648 
L 289.072961 -250.029976 
L 297.905315 -250.434874 
L 306.73767 -250.992602 
L 315.570024 -251.746119 
L 324.402378 -252.090727 
L 333.234732 -252.247915 
L 342.067087 -253.012605 
L 350.899441 -253.360037 
L 359.731795 -253.685656 
L 368.56415 -254.018466 
L 377.396504 -254.351276 
L 386.228858 -254.686916 
L 395.061213 -255.023191 
L 403.893567 -255.476499 
L 412.725921 -256.117261 
L 421.558276 -256.48143 
L 430.39063 -256.496899 
L 439.222984 -256.680947 
L 448.055339 -257.013757 
L 456.887693 -257.356896 
L 465.720047 -257.677757 
L 474.552402 -258.063221 
L 483.384756 -258.348036 
L 492.21711 -258.863043 
L 501.049464 -258.989834 
L 509.881819 -259.267499 
L 518.714173 -259.642682 
L 527.546527 -259.535578 
L 536.378882 -259.797465 
L 545.211236 -259.872556 
L 554.04359 -259.816777 
L 562.875945 -259.812477 
L 571.708299 -259.95235 
L 580.540653 -259.840244 
L 589.373008 -259.984332 
L 598.205362 -260.064127 
L 607.037716 -260.05048 
L 615.870071 -259.715814 
L 624.702425 -259.694647 
L 633.534779 -259.673479 
L 642.367134 -259.611286 
L 651.199488 -259.346017 
L 660.031842 -259.399015 
L 668.864196 -259.315686 
L 677.696551 -259.121247 
L 686.528905 -258.926808 
L 695.361259 -258.679635 
L 704.193614 -258.349272 
L 713.025968 -257.931259 
L 721.858322 -257.592425 
L 730.690677 -257.182751 
L 739.523031 -256.80665 
L 748.355385 -256.42966 
L 757.18774 -256.072079 
L 766.020094 -255.909312 
L 774.852448 -255.806072 
L 783.684803 -255.628866 
L 792.517157 -255.420672 
L 801.349511 -254.96284 
L 810.181866 -254.401991 
L 819.01422 -253.703359 
L 827.846574 -253.150482 
L 836.678928 -252.700398 
L 845.511283 -252.30228 
L 854.343637 -251.926643 
L 863.175991 -251.684587 
L 872.008346 -251.176638 
L 880.8407 -250.563219 
L 889.673054 -249.952055 
L 898.505409 -249.286512 
L 907.337763 -249.044325 
L 916.170117 -248.709953 
L 925.002472 -248.481327 
L 933.834826 -247.873892 
L 942.66718 -247.295505 
L 951.499535 -246.838898 
L 960.331889 -246.383612 
L 969.164243 -245.928327 
L 977.996598 -245.478257 
L 986.828952 -245.031297 
L 995.661306 -244.572682 
L 1004.49366 -243.923272 
L 1013.326015 -243.462513 
L 1022.158369 -243.206352 
L 1022.158369 -312.915203 
L 1022.158369 -312.915203 
L 1013.326015 -312.600387 
L 1004.49366 -312.285543 
L 995.661306 -311.914207 
L 986.828952 -311.312603 
L 977.996598 -311.063672 
L 969.164243 -310.404165 
L 960.331889 -310.012578 
L 951.499535 -309.472811 
L 942.66718 -308.884009 
L 933.834826 -308.391833 
L 925.002472 -307.992308 
L 916.170117 -307.543831 
L 907.337763 -306.970648 
L 898.505409 -306.397465 
L 889.673054 -306.001885 
L 880.8407 -305.929475 
L 872.008346 -305.618503 
L 863.175991 -305.038475 
L 854.343637 -304.457553 
L 845.511283 -303.883316 
L 836.678928 -303.95245 
L 827.846574 -303.636995 
L 819.01422 -303.314747 
L 810.181866 -302.910896 
L 801.349511 -302.579803 
L 792.517157 -302.173595 
L 783.684803 -301.749422 
L 774.852448 -301.324987 
L 766.020094 -300.900553 
L 757.18774 -300.785324 
L 748.355385 -300.553397 
L 739.523031 -300.39743 
L 730.690677 -300.120488 
L 721.858322 -299.800479 
L 713.025968 -299.278754 
L 704.193614 -298.899216 
L 695.361259 -298.849523 
L 686.528905 -298.537419 
L 677.696551 -298.566355 
L 668.864196 -298.533855 
L 660.031842 -298.216972 
L 651.199488 -298.002816 
L 642.367134 -297.393268 
L 633.534779 -297.225516 
L 624.702425 -297.073305 
L 615.870071 -296.880232 
L 607.037716 -296.768881 
L 598.205362 -296.61667 
L 589.373008 -296.539235 
L 580.540653 -296.475852 
L 571.708299 -296.352659 
L 562.875945 -296.219281 
L 554.04359 -296.202304 
L 545.211236 -295.96607 
L 536.378882 -295.906118 
L 527.546527 -296.229555 
L 518.714173 -296.300917 
L 509.881819 -296.469775 
L 501.049464 -296.689552 
L 492.21711 -296.909335 
L 483.384756 -296.9663 
L 474.552402 -297.12903 
L 465.720047 -297.152191 
L 456.887693 -297.136874 
L 448.055339 -297.36772 
L 439.222984 -297.604447 
L 430.39063 -297.970611 
L 421.558276 -298.1417 
L 412.725921 -298.705112 
L 403.893567 -299.199032 
L 395.061213 -299.437768 
L 386.228858 -300.057873 
L 377.396504 -300.379344 
L 368.56415 -300.77966 
L 359.731795 -301.31735 
L 350.899441 -301.418543 
L 342.067087 -301.574718 
L 333.234732 -301.936982 
L 324.402378 -302.131344 
L 315.570024 -302.760157 
L 306.73767 -303.028627 
L 297.905315 -303.759741 
L 289.072961 -304.490855 
L 280.240607 -305.221968 
L 271.408252 -305.953082 
L 262.575898 -306.348868 
L 253.743544 -306.66031 
L 244.911189 -306.970873 
L 236.078835 -307.561594 
L 227.246481 -308.284883 
L 218.414126 -308.83184 
L 209.581772 -309.275325 
L 200.749418 -309.718811 
L 191.917063 -310.162297 
L 183.084709 -310.605783 
L 174.252355 -311.166292 
L 165.42 -311.729098 
L 156.587646 -312.287407 
L 147.755292 -312.845716 
z
" style="stroke: #ffffff; stroke-opacity: 0.15"/>
    </defs>
    <g clip-path="url(#pfe03e135d2)">
     <use xlink:href="#maf8adc18e3" x="0" y="570.995391" style="fill: #4c72b0; fill-opacity: 0.15; stroke: #ffffff; stroke-opacity: 0.15"/>
    </g>
   </g>
   <g id="PathCollection_2">
    <defs>
     <path id="me817cca687" d="M 0 3.535534 
C 0.937635 3.535534 1.836992 3.163008 2.5 2.5 
C 3.163008 1.836992 3.535534 0.937635 3.535534 0 
C 3.535534 -0.937635 3.163008 -1.836992 2.5 -2.5 
C 1.836992 -3.163008 0.937635 -3.535534 0 -3.535534 
C -0.937635 -3.535534 -1.836992 -3.163008 -2.5 -2.5 
C -3.163008 -1.836992 -3.535534 -0.937635 -3.535534 0 
C -3.535534 0.937635 -3.163008 1.836992 -2.5 2.5 
C -1.836992 3.163008 -0.937635 3.535534 0 3.535534 
z
" style="stroke: #dd8452"/>
    </defs>
    <g clip-path="url(#pfe03e135d2)">
     <use xlink:href="#me817cca687" x="147.755292" y="229.607156" style="fill: #dd8452; stroke: #dd8452"/>
     <use xlink:href="#me817cca687" x="191.475446" y="298.257714" style="fill: #dd8452; stroke: #dd8452"/>
     <use xlink:href="#me817cca687" x="235.1956" y="316.646084" style="fill: #dd8452; stroke: #dd8452"/>
     <use xlink:href="#me817cca687" x="278.915753" y="266.017664" style="fill: #dd8452; stroke: #dd8452"/>
     <use xlink:href="#me817cca687" x="322.635907" y="210.60471" style="fill: #dd8452; stroke: #dd8452"/>
     <use xlink:href="#me817cca687" x="366.356061" y="274.571811" style="fill: #dd8452; stroke: #dd8452"/>
     <use xlink:href="#me817cca687" x="410.076215" y="308.504552" style="fill: #dd8452; stroke: #dd8452"/>
     <use xlink:href="#me817cca687" x="453.796369" y="275.496041" style="fill: #dd8452; stroke: #dd8452"/>
     <use xlink:href="#me817cca687" x="497.516523" y="281.060113" style="fill: #dd8452; stroke: #dd8452"/>
     <use xlink:href="#me817cca687" x="541.236677" y="258.510978" style="fill: #dd8452; stroke: #dd8452"/>
     <use xlink:href="#me817cca687" x="584.95683" y="219.283472" style="fill: #dd8452; stroke: #dd8452"/>
     <use xlink:href="#me817cca687" x="628.676984" y="259.056516" style="fill: #dd8452; stroke: #dd8452"/>
     <use xlink:href="#me817cca687" x="672.397138" y="260.59413" style="fill: #dd8452; stroke: #dd8452"/>
     <use xlink:href="#me817cca687" x="716.117292" y="316.684853" style="fill: #dd8452; stroke: #dd8452"/>
     <use xlink:href="#me817cca687" x="759.837446" y="310.940781" style="fill: #dd8452; stroke: #dd8452"/>
     <use xlink:href="#me817cca687" x="803.5576" y="385.862949" style="fill: #dd8452; stroke: #dd8452"/>
     <use xlink:href="#me817cca687" x="847.277754" y="269.218892" style="fill: #dd8452; stroke: #dd8452"/>
     <use xlink:href="#me817cca687" x="890.997907" y="286.966877" style="fill: #dd8452; stroke: #dd8452"/>
     <use xlink:href="#me817cca687" x="934.718061" y="218.199319" style="fill: #dd8452; stroke: #dd8452"/>
     <use xlink:href="#me817cca687" x="978.438215" y="301.874327" style="fill: #dd8452; stroke: #dd8452"/>
     <use xlink:href="#me817cca687" x="1022.158369" y="287.142723" style="fill: #dd8452; stroke: #dd8452"/>
    </g>
   </g>
   <g id="PolyCollection_2">
    <defs>
     <path id="m043c3e61ca" d="M 147.755292 -347.95052 
L 147.755292 -265.986594 
L 156.587646 -266.504159 
L 165.42 -267.021724 
L 174.252355 -267.27463 
L 183.084709 -267.394748 
L 191.917063 -267.531434 
L 200.749418 -268.132216 
L 209.581772 -268.813422 
L 218.414126 -269.494628 
L 227.246481 -270.170592 
L 236.078835 -270.299425 
L 244.911189 -270.41067 
L 253.743544 -270.531908 
L 262.575898 -270.617185 
L 271.408252 -270.644742 
L 280.240607 -270.647971 
L 289.072961 -270.916608 
L 297.905315 -271.024852 
L 306.73767 -271.136704 
L 315.570024 -271.229094 
L 324.402378 -271.529754 
L 333.234732 -272.009747 
L 342.067087 -272.489741 
L 350.899441 -272.61556 
L 359.731795 -272.621019 
L 368.56415 -272.749446 
L 377.396504 -272.542508 
L 386.228858 -272.707682 
L 395.061213 -273.107452 
L 403.893567 -273.277594 
L 412.725921 -273.338713 
L 421.558276 -273.709397 
L 430.39063 -273.828895 
L 439.222984 -274.313024 
L 448.055339 -274.073471 
L 456.887693 -273.73048 
L 465.720047 -274.238372 
L 474.552402 -274.298294 
L 483.384756 -274.195626 
L 492.21711 -274.431091 
L 501.049464 -274.271513 
L 509.881819 -273.929139 
L 518.714173 -273.642966 
L 527.546527 -273.691001 
L 536.378882 -273.69438 
L 545.211236 -273.713244 
L 554.04359 -273.493819 
L 562.875945 -273.203456 
L 571.708299 -272.865341 
L 580.540653 -272.434821 
L 589.373008 -272.091024 
L 598.205362 -271.728005 
L 607.037716 -271.390899 
L 615.870071 -271.088863 
L 624.702425 -270.804386 
L 633.534779 -270.566709 
L 642.367134 -270.185188 
L 651.199488 -269.749681 
L 660.031842 -269.181992 
L 668.864196 -268.6806 
L 677.696551 -268.253288 
L 686.528905 -268.088778 
L 695.361259 -267.312389 
L 704.193614 -266.885442 
L 713.025968 -266.464757 
L 721.858322 -265.976555 
L 730.690677 -265.373988 
L 739.523031 -264.766066 
L 748.355385 -264.172249 
L 757.18774 -263.696149 
L 766.020094 -263.168251 
L 774.852448 -262.642062 
L 783.684803 -261.820017 
L 792.517157 -261.18207 
L 801.349511 -260.118113 
L 810.181866 -259.44863 
L 819.01422 -258.574064 
L 827.846574 -257.655971 
L 836.678928 -256.771227 
L 845.511283 -256.207778 
L 854.343637 -255.624044 
L 863.175991 -255.21949 
L 872.008346 -254.476569 
L 880.8407 -253.969997 
L 889.673054 -253.259708 
L 898.505409 -252.144625 
L 907.337763 -251.47405 
L 916.170117 -250.584734 
L 925.002472 -249.694238 
L 933.834826 -248.790077 
L 942.66718 -247.897531 
L 951.499535 -247.04352 
L 960.331889 -246.130665 
L 969.164243 -245.215033 
L 977.996598 -244.385768 
L 986.828952 -243.467812 
L 995.661306 -242.53567 
L 1004.49366 -241.634273 
L 1013.326015 -240.737774 
L 1022.158369 -239.875891 
L 1022.158369 -321.864043 
L 1022.158369 -321.864043 
L 1013.326015 -321.486166 
L 1004.49366 -321.10829 
L 995.661306 -320.730414 
L 986.828952 -320.352538 
L 977.996598 -320.253812 
L 969.164243 -320.182128 
L 960.331889 -319.851595 
L 951.499535 -319.619368 
L 942.66718 -319.341954 
L 933.834826 -318.980865 
L 925.002472 -318.613966 
L 916.170117 -318.226778 
L 907.337763 -317.889763 
L 898.505409 -317.743206 
L 889.673054 -317.625167 
L 880.8407 -317.049251 
L 872.008346 -316.467397 
L 863.175991 -316.087944 
L 854.343637 -315.723914 
L 845.511283 -315.357957 
L 836.678928 -315.328775 
L 827.846574 -314.837347 
L 819.01422 -314.741026 
L 810.181866 -314.370001 
L 801.349511 -314.21933 
L 792.517157 -313.781937 
L 783.684803 -313.473799 
L 774.852448 -313.306737 
L 766.020094 -313.00084 
L 757.18774 -313.054783 
L 748.355385 -312.928277 
L 739.523031 -312.87996 
L 730.690677 -312.918169 
L 721.858322 -312.548759 
L 713.025968 -312.420921 
L 704.193614 -312.3168 
L 695.361259 -312.451336 
L 686.528905 -312.555196 
L 677.696551 -312.669244 
L 668.864196 -312.79273 
L 660.031842 -312.903245 
L 651.199488 -312.776989 
L 642.367134 -312.954963 
L 633.534779 -313.069745 
L 624.702425 -313.375674 
L 615.870071 -313.253469 
L 607.037716 -313.391443 
L 598.205362 -313.642646 
L 589.373008 -313.85196 
L 580.540653 -314.039817 
L 571.708299 -314.493255 
L 562.875945 -314.970778 
L 554.04359 -315.66433 
L 545.211236 -316.352375 
L 536.378882 -316.614826 
L 527.546527 -316.820824 
L 518.714173 -317.406236 
L 509.881819 -317.953312 
L 501.049464 -318.431969 
L 492.21711 -319.380843 
L 483.384756 -319.427212 
L 474.552402 -319.908424 
L 465.720047 -320.514777 
L 456.887693 -320.937132 
L 448.055339 -321.254357 
L 439.222984 -321.443046 
L 430.39063 -322.154734 
L 421.558276 -322.501178 
L 412.725921 -323.180095 
L 403.893567 -324.017541 
L 395.061213 -324.582429 
L 386.228858 -325.421163 
L 377.396504 -326.254856 
L 368.56415 -326.937103 
L 359.731795 -327.893969 
L 350.899441 -328.512381 
L 342.067087 -328.946415 
L 333.234732 -329.400611 
L 324.402378 -330.587123 
L 315.570024 -331.230966 
L 306.73767 -331.897599 
L 297.905315 -332.970329 
L 289.072961 -334.043058 
L 280.240607 -334.960599 
L 271.408252 -335.715059 
L 262.575898 -336.598642 
L 253.743544 -337.411951 
L 244.911189 -338.418174 
L 236.078835 -339.10666 
L 227.246481 -340.4439 
L 218.414126 -341.111035 
L 209.581772 -341.778169 
L 200.749418 -342.445304 
L 191.917063 -343.112438 
L 183.084709 -344.287824 
L 174.252355 -345.481222 
L 165.42 -346.304321 
L 156.587646 -347.12742 
L 147.755292 -347.95052 
z
" style="stroke: #ffffff; stroke-opacity: 0.15"/>
    </defs>
    <g clip-path="url(#pfe03e135d2)">
     <use xlink:href="#m043c3e61ca" x="0" y="570.995391" style="fill: #dd8452; fill-opacity: 0.15; stroke: #ffffff; stroke-opacity: 0.15"/>
    </g>
   </g>
   <g id="PathCollection_3">
    <defs>
     <path id="m9c307a3ca4" d="M 0 3.535534 
C 0.937635 3.535534 1.836992 3.163008 2.5 2.5 
C 3.163008 1.836992 3.535534 0.937635 3.535534 0 
C 3.535534 -0.937635 3.163008 -1.836992 2.5 -2.5 
C 1.836992 -3.163008 0.937635 -3.535534 0 -3.535534 
C -0.937635 -3.535534 -1.836992 -3.163008 -2.5 -2.5 
C -3.163008 -1.836992 -3.535534 -0.937635 -3.535534 0 
C -3.535534 0.937635 -3.163008 1.836992 -2.5 2.5 
C -1.836992 3.163008 -0.937635 3.535534 0 3.535534 
z
" style="stroke: #55a868"/>
    </defs>
    <g clip-path="url(#pfe03e135d2)">
     <use xlink:href="#m9c307a3ca4" x="147.755292" y="273.567273" style="fill: #55a868; stroke: #55a868"/>
     <use xlink:href="#m9c307a3ca4" x="191.475446" y="380.220646" style="fill: #55a868; stroke: #55a868"/>
     <use xlink:href="#m9c307a3ca4" x="235.1956" y="392.305559" style="fill: #55a868; stroke: #55a868"/>
     <use xlink:href="#m9c307a3ca4" x="278.915753" y="368.477041" style="fill: #55a868; stroke: #55a868"/>
     <use xlink:href="#m9c307a3ca4" x="322.635907" y="352.606592" style="fill: #55a868; stroke: #55a868"/>
     <use xlink:href="#m9c307a3ca4" x="366.356061" y="357.127358" style="fill: #55a868; stroke: #55a868"/>
     <use xlink:href="#m9c307a3ca4" x="410.076215" y="391.750329" style="fill: #55a868; stroke: #55a868"/>
     <use xlink:href="#m9c307a3ca4" x="453.796369" y="385.615103" style="fill: #55a868; stroke: #55a868"/>
     <use xlink:href="#m9c307a3ca4" x="497.516523" y="375.481804" style="fill: #55a868; stroke: #55a868"/>
     <use xlink:href="#m9c307a3ca4" x="541.236677" y="419.731306" style="fill: #55a868; stroke: #55a868"/>
     <use xlink:href="#m9c307a3ca4" x="584.95683" y="407.748854" style="fill: #55a868; stroke: #55a868"/>
     <use xlink:href="#m9c307a3ca4" x="628.676984" y="360.045432" style="fill: #55a868; stroke: #55a868"/>
     <use xlink:href="#m9c307a3ca4" x="672.397138" y="387.674025" style="fill: #55a868; stroke: #55a868"/>
     <use xlink:href="#m9c307a3ca4" x="716.117292" y="400.337014" style="fill: #55a868; stroke: #55a868"/>
     <use xlink:href="#m9c307a3ca4" x="759.837446" y="428.666221" style="fill: #55a868; stroke: #55a868"/>
     <use xlink:href="#m9c307a3ca4" x="803.5576" y="362.721199" style="fill: #55a868; stroke: #55a868"/>
     <use xlink:href="#m9c307a3ca4" x="847.277754" y="391.993329" style="fill: #55a868; stroke: #55a868"/>
     <use xlink:href="#m9c307a3ca4" x="890.997907" y="411.305928" style="fill: #55a868; stroke: #55a868"/>
     <use xlink:href="#m9c307a3ca4" x="934.718061" y="393.385558" style="fill: #55a868; stroke: #55a868"/>
     <use xlink:href="#m9c307a3ca4" x="978.438215" y="450.390127" style="fill: #55a868; stroke: #55a868"/>
     <use xlink:href="#m9c307a3ca4" x="1022.158369" y="410.551313" style="fill: #55a868; stroke: #55a868"/>
    </g>
   </g>
   <g id="PolyCollection_3">
    <defs>
     <path id="mde0dc5b676" d="M 147.755292 -251.915572 
L 147.755292 -191.413241 
L 156.587646 -191.187888 
L 165.42 -190.96301 
L 174.252355 -190.6762 
L 183.084709 -190.231723 
L 191.917063 -189.984223 
L 200.749418 -189.736724 
L 209.581772 -189.489224 
L 218.414126 -189.241725 
L 227.246481 -188.879006 
L 236.078835 -188.337463 
L 244.911189 -188.003196 
L 253.743544 -187.619255 
L 262.575898 -187.269069 
L 271.408252 -186.90153 
L 280.240607 -186.590409 
L 289.072961 -186.282512 
L 297.905315 -185.974874 
L 306.73767 -185.667236 
L 315.570024 -185.359598 
L 324.402378 -185.05196 
L 333.234732 -184.739482 
L 342.067087 -184.157233 
L 350.899441 -183.591618 
L 359.731795 -183.301304 
L 368.56415 -182.974427 
L 377.396504 -182.762261 
L 386.228858 -182.315976 
L 395.061213 -181.980398 
L 403.893567 -181.53885 
L 412.725921 -180.90169 
L 421.558276 -180.246875 
L 430.39063 -179.596515 
L 439.222984 -179.059818 
L 448.055339 -178.796095 
L 456.887693 -178.426169 
L 465.720047 -177.728009 
L 474.552402 -177.001372 
L 483.384756 -176.593661 
L 492.21711 -176.255855 
L 501.049464 -175.686392 
L 509.881819 -174.995623 
L 518.714173 -174.494091 
L 527.546527 -173.878034 
L 536.378882 -173.261977 
L 545.211236 -172.575978 
L 554.04359 -172.049368 
L 562.875945 -171.418729 
L 571.708299 -170.933392 
L 580.540653 -170.465714 
L 589.373008 -169.783187 
L 598.205362 -169.048369 
L 607.037716 -168.418135 
L 615.870071 -167.735608 
L 624.702425 -167.110953 
L 633.534779 -166.493962 
L 642.367134 -165.877732 
L 651.199488 -165.143947 
L 660.031842 -164.362938 
L 668.864196 -163.712678 
L 677.696551 -163.078392 
L 686.528905 -162.258805 
L 695.361259 -161.575489 
L 704.193614 -160.837331 
L 713.025968 -159.901284 
L 721.858322 -159.050621 
L 730.690677 -158.135378 
L 739.523031 -157.274498 
L 748.355385 -156.512061 
L 757.18774 -155.435311 
L 766.020094 -154.481966 
L 774.852448 -153.79876 
L 783.684803 -152.804697 
L 792.517157 -152.029402 
L 801.349511 -150.991036 
L 810.181866 -149.871209 
L 819.01422 -148.795194 
L 827.846574 -148.139907 
L 836.678928 -147.484922 
L 845.511283 -146.677992 
L 854.343637 -145.68955 
L 863.175991 -144.712598 
L 872.008346 -143.577521 
L 880.8407 -142.519585 
L 889.673054 -141.729245 
L 898.505409 -140.616563 
L 907.337763 -139.405783 
L 916.170117 -138.442215 
L 925.002472 -137.263319 
L 933.834826 -136.256572 
L 942.66718 -135.280429 
L 951.499535 -134.196223 
L 960.331889 -133.074532 
L 969.164243 -131.962453 
L 977.996598 -130.828303 
L 986.828952 -129.709623 
L 995.661306 -128.676587 
L 1004.49366 -127.687315 
L 1013.326015 -126.346166 
L 1022.158369 -125.214011 
L 1022.158369 -173.233989 
L 1022.158369 -173.233989 
L 1013.326015 -173.554399 
L 1004.49366 -173.934683 
L 995.661306 -174.314967 
L 986.828952 -174.70927 
L 977.996598 -175.096862 
L 969.164243 -175.554523 
L 960.331889 -176.009182 
L 951.499535 -176.463841 
L 942.66718 -176.922925 
L 933.834826 -177.381128 
L 925.002472 -177.767266 
L 916.170117 -178.289265 
L 907.337763 -178.750579 
L 898.505409 -179.211892 
L 889.673054 -179.671032 
L 880.8407 -180.12327 
L 872.008346 -180.681923 
L 863.175991 -181.1403 
L 854.343637 -181.486188 
L 845.511283 -181.902342 
L 836.678928 -182.25133 
L 827.846574 -182.730544 
L 819.01422 -183.0485 
L 810.181866 -183.433163 
L 801.349511 -184.076562 
L 792.517157 -184.551194 
L 783.684803 -184.921746 
L 774.852448 -185.299528 
L 766.020094 -185.839637 
L 757.18774 -186.113441 
L 748.355385 -186.558878 
L 739.523031 -187.193992 
L 730.690677 -187.754451 
L 721.858322 -188.33792 
L 713.025968 -188.80072 
L 704.193614 -189.488004 
L 695.361259 -190.103252 
L 686.528905 -190.644198 
L 677.696551 -191.39699 
L 668.864196 -192.183104 
L 660.031842 -192.915502 
L 651.199488 -193.690631 
L 642.367134 -194.493485 
L 633.534779 -195.326747 
L 624.702425 -195.997957 
L 615.870071 -196.627478 
L 607.037716 -197.632074 
L 598.205362 -198.379901 
L 589.373008 -199.211505 
L 580.540653 -200.04063 
L 571.708299 -200.857199 
L 562.875945 -201.610178 
L 554.04359 -202.396044 
L 545.211236 -203.184896 
L 536.378882 -204.132241 
L 527.546527 -205.003316 
L 518.714173 -205.74242 
L 509.881819 -206.545765 
L 501.049464 -207.349109 
L 492.21711 -208.312959 
L 483.384756 -209.157626 
L 474.552402 -209.9706 
L 465.720047 -210.977435 
L 456.887693 -212.092161 
L 448.055339 -212.975489 
L 439.222984 -213.977532 
L 430.39063 -215.008436 
L 421.558276 -215.982696 
L 412.725921 -217.103742 
L 403.893567 -218.288961 
L 395.061213 -219.39091 
L 386.228858 -220.617114 
L 377.396504 -221.843318 
L 368.56415 -222.804592 
L 359.731795 -223.815764 
L 350.899441 -224.958219 
L 342.067087 -226.100503 
L 333.234732 -227.116519 
L 324.402378 -228.173204 
L 315.570024 -229.19973 
L 306.73767 -230.557336 
L 297.905315 -231.642991 
L 289.072961 -232.914383 
L 280.240607 -234.094038 
L 271.408252 -235.238256 
L 262.575898 -236.516998 
L 253.743544 -237.795741 
L 244.911189 -239.078569 
L 236.078835 -240.351774 
L 227.246481 -241.507024 
L 218.414126 -242.655757 
L 209.581772 -243.809176 
L 200.749418 -244.927354 
L 191.917063 -245.904579 
L 183.084709 -246.881803 
L 174.252355 -247.996762 
L 165.42 -249.302202 
L 156.587646 -250.720359 
L 147.755292 -251.915572 
z
" style="stroke: #ffffff; stroke-opacity: 0.15"/>
    </defs>
    <g clip-path="url(#pfe03e135d2)">
     <use xlink:href="#mde0dc5b676" x="0" y="570.995391" style="fill: #55a868; fill-opacity: 0.15; stroke: #ffffff; stroke-opacity: 0.15"/>
    </g>
   </g>
   <g id="PathCollection_4">
    <defs>
     <path id="m8cb422ce61" d="M 0 3.535534 
C 0.937635 3.535534 1.836992 3.163008 2.5 2.5 
C 3.163008 1.836992 3.535534 0.937635 3.535534 0 
C 3.535534 -0.937635 3.163008 -1.836992 2.5 -2.5 
C 1.836992 -3.163008 0.937635 -3.535534 0 -3.535534 
C -0.937635 -3.535534 -1.836992 -3.163008 -2.5 -2.5 
C -3.163008 -1.836992 -3.535534 -0.937635 -3.535534 0 
C -3.535534 0.937635 -3.163008 1.836992 -2.5 2.5 
C -1.836992 3.163008 -0.937635 3.535534 0 3.535534 
z
" style="stroke: #c44e52"/>
    </defs>
    <g clip-path="url(#pfe03e135d2)">
     <use xlink:href="#m8cb422ce61" x="147.755292" y="261.544668" style="fill: #c44e52; stroke: #c44e52"/>
     <use xlink:href="#m8cb422ce61" x="191.475446" y="333.163147" style="fill: #c44e52; stroke: #c44e52"/>
     <use xlink:href="#m8cb422ce61" x="235.1956" y="357.231204" style="fill: #c44e52; stroke: #c44e52"/>
     <use xlink:href="#m8cb422ce61" x="278.915753" y="322.239925" style="fill: #c44e52; stroke: #c44e52"/>
     <use xlink:href="#m8cb422ce61" x="322.635907" y="272.14389" style="fill: #c44e52; stroke: #c44e52"/>
     <use xlink:href="#m8cb422ce61" x="366.356061" y="349.371441" style="fill: #c44e52; stroke: #c44e52"/>
     <use xlink:href="#m8cb422ce61" x="410.076215" y="372.236961" style="fill: #c44e52; stroke: #c44e52"/>
     <use xlink:href="#m8cb422ce61" x="453.796369" y="370.47227" style="fill: #c44e52; stroke: #c44e52"/>
     <use xlink:href="#m8cb422ce61" x="497.516523" y="411.575236" style="fill: #c44e52; stroke: #c44e52"/>
     <use xlink:href="#m8cb422ce61" x="541.236677" y="408.484777" style="fill: #c44e52; stroke: #c44e52"/>
     <use xlink:href="#m8cb422ce61" x="584.95683" y="393.808558" style="fill: #c44e52; stroke: #c44e52"/>
     <use xlink:href="#m8cb422ce61" x="628.676984" y="373.745498" style="fill: #c44e52; stroke: #c44e52"/>
     <use xlink:href="#m8cb422ce61" x="672.397138" y="422.683996" style="fill: #c44e52; stroke: #c44e52"/>
     <use xlink:href="#m8cb422ce61" x="716.117292" y="393.646558" style="fill: #c44e52; stroke: #c44e52"/>
     <use xlink:href="#m8cb422ce61" x="759.837446" y="430.303528" style="fill: #c44e52; stroke: #c44e52"/>
     <use xlink:href="#m8cb422ce61" x="803.5576" y="450.806895" style="fill: #c44e52; stroke: #c44e52"/>
     <use xlink:href="#m8cb422ce61" x="847.277754" y="390.429407" style="fill: #c44e52; stroke: #c44e52"/>
     <use xlink:href="#m8cb422ce61" x="890.997907" y="411.947697" style="fill: #c44e52; stroke: #c44e52"/>
     <use xlink:href="#m8cb422ce61" x="934.718061" y="447.339821" style="fill: #c44e52; stroke: #c44e52"/>
     <use xlink:href="#m8cb422ce61" x="978.438215" y="389.157639" style="fill: #c44e52; stroke: #c44e52"/>
     <use xlink:href="#m8cb422ce61" x="1022.158369" y="416.754385" style="fill: #c44e52; stroke: #c44e52"/>
    </g>
   </g>
   <g id="PolyCollection_4">
    <defs>
     <path id="md52c7936d4" d="M 147.755292 -296.824228 
L 147.755292 -218.448096 
L 156.587646 -217.730758 
L 165.42 -217.013419 
L 174.252355 -216.17861 
L 183.084709 -215.253331 
L 191.917063 -214.261453 
L 200.749418 -213.540965 
L 209.581772 -212.821414 
L 218.414126 -212.102548 
L 227.246481 -211.387472 
L 236.078835 -210.672874 
L 244.911189 -209.958275 
L 253.743544 -209.243948 
L 262.575898 -208.538565 
L 271.408252 -207.75003 
L 280.240607 -206.8801 
L 289.072961 -206.097334 
L 297.905315 -205.26203 
L 306.73767 -204.426726 
L 315.570024 -203.527139 
L 324.402378 -202.455294 
L 333.234732 -201.791499 
L 342.067087 -201.088363 
L 350.899441 -200.259239 
L 359.731795 -199.328843 
L 368.56415 -198.60099 
L 377.396504 -197.77596 
L 386.228858 -197.090947 
L 395.061213 -196.212818 
L 403.893567 -195.266378 
L 412.725921 -194.341346 
L 421.558276 -193.450159 
L 430.39063 -192.593334 
L 439.222984 -191.561834 
L 448.055339 -190.550938 
L 456.887693 -189.530663 
L 465.720047 -188.640692 
L 474.552402 -187.806785 
L 483.384756 -186.803406 
L 492.21711 -185.939767 
L 501.049464 -185.006259 
L 509.881819 -183.9965 
L 518.714173 -182.94657 
L 527.546527 -182.122578 
L 536.378882 -181.216297 
L 545.211236 -180.054189 
L 554.04359 -179.157649 
L 562.875945 -178.243051 
L 571.708299 -177.152904 
L 580.540653 -175.936479 
L 589.373008 -174.724162 
L 598.205362 -173.493912 
L 607.037716 -172.532329 
L 615.870071 -171.403273 
L 624.702425 -170.127799 
L 633.534779 -168.928333 
L 642.367134 -167.631903 
L 651.199488 -166.362797 
L 660.031842 -165.195714 
L 668.864196 -164.045289 
L 677.696551 -162.740534 
L 686.528905 -161.673478 
L 695.361259 -160.303265 
L 704.193614 -158.724357 
L 713.025968 -157.456958 
L 721.858322 -156.075639 
L 730.690677 -154.739883 
L 739.523031 -153.308402 
L 748.355385 -151.830079 
L 757.18774 -150.209743 
L 766.020094 -148.591256 
L 774.852448 -147.137558 
L 783.684803 -145.744181 
L 792.517157 -144.173369 
L 801.349511 -142.422597 
L 810.181866 -141.062352 
L 819.01422 -139.216651 
L 827.846574 -137.680392 
L 836.678928 -136.199131 
L 845.511283 -134.568346 
L 854.343637 -132.816273 
L 863.175991 -131.009667 
L 872.008346 -129.429851 
L 880.8407 -127.65335 
L 889.673054 -125.84421 
L 898.505409 -124.096218 
L 907.337763 -122.322672 
L 916.170117 -120.544695 
L 925.002472 -118.766538 
L 933.834826 -116.985423 
L 942.66718 -115.207766 
L 951.499535 -113.568723 
L 960.331889 -111.698425 
L 969.164243 -109.875089 
L 977.996598 -107.966412 
L 986.828952 -106.079569 
L 995.661306 -104.20459 
L 1004.49366 -102.36982 
L 1013.326015 -100.468753 
L 1022.158369 -98.721936 
L 1022.158369 -151.803932 
L 1022.158369 -151.803932 
L 1013.326015 -152.583519 
L 1004.49366 -153.363107 
L 995.661306 -154.142694 
L 986.828952 -155.020512 
L 977.996598 -156.141938 
L 969.164243 -156.727361 
L 960.331889 -157.587134 
L 951.499535 -158.455286 
L 942.66718 -159.2289 
L 933.834826 -159.840438 
L 925.002472 -160.963925 
L 916.170117 -161.912272 
L 907.337763 -162.722433 
L 898.505409 -163.642695 
L 889.673054 -164.507263 
L 880.8407 -165.371831 
L 872.008346 -166.427308 
L 863.175991 -167.694457 
L 854.343637 -168.95379 
L 845.511283 -169.764119 
L 836.678928 -170.504016 
L 827.846574 -171.601005 
L 819.01422 -172.645029 
L 810.181866 -173.84419 
L 801.349511 -174.735253 
L 792.517157 -176.500625 
L 783.684803 -177.138501 
L 774.852448 -178.188226 
L 766.020094 -179.507031 
L 757.18774 -180.419347 
L 748.355385 -181.383244 
L 739.523031 -182.587508 
L 730.690677 -183.877283 
L 721.858322 -185.028343 
L 713.025968 -186.20102 
L 704.193614 -187.712335 
L 695.361259 -189.220325 
L 686.528905 -190.172355 
L 677.696551 -191.827027 
L 668.864196 -193.644709 
L 660.031842 -195.272796 
L 651.199488 -196.627958 
L 642.367134 -198.302558 
L 633.534779 -199.975225 
L 624.702425 -201.408154 
L 615.870071 -203.011667 
L 607.037716 -204.354778 
L 598.205362 -205.892577 
L 589.373008 -207.662911 
L 580.540653 -209.050433 
L 571.708299 -210.53629 
L 562.875945 -212.276008 
L 554.04359 -214.008627 
L 545.211236 -215.595713 
L 536.378882 -216.971006 
L 527.546527 -218.708071 
L 518.714173 -220.484029 
L 509.881819 -222.013005 
L 501.049464 -223.856703 
L 492.21711 -225.693486 
L 483.384756 -227.363628 
L 474.552402 -229.160691 
L 465.720047 -231.034984 
L 456.887693 -232.748492 
L 448.055339 -234.546311 
L 439.222984 -236.37953 
L 430.39063 -238.251808 
L 421.558276 -240.041858 
L 412.725921 -241.843178 
L 403.893567 -243.519611 
L 395.061213 -245.311275 
L 386.228858 -247.099645 
L 377.396504 -248.842891 
L 368.56415 -250.586137 
L 359.731795 -252.329384 
L 350.899441 -254.07263 
L 342.067087 -255.813187 
L 333.234732 -257.551373 
L 324.402378 -259.232343 
L 315.570024 -261.037257 
L 306.73767 -262.946368 
L 297.905315 -264.938885 
L 289.072961 -266.840671 
L 280.240607 -268.741277 
L 271.408252 -270.646762 
L 262.575898 -272.504624 
L 253.743544 -274.300349 
L 244.911189 -276.096074 
L 236.078835 -278.189194 
L 227.246481 -280.160572 
L 218.414126 -282.062071 
L 209.581772 -283.938549 
L 200.749418 -285.733121 
L 191.917063 -287.767282 
L 183.084709 -289.671473 
L 174.252355 -291.529569 
L 165.42 -293.294455 
L 156.587646 -295.059341 
L 147.755292 -296.824228 
z
" style="stroke: #ffffff; stroke-opacity: 0.15"/>
    </defs>
    <g clip-path="url(#pfe03e135d2)">
     <use xlink:href="#md52c7936d4" x="0" y="570.995391" style="fill: #c44e52; fill-opacity: 0.15; stroke: #ffffff; stroke-opacity: 0.15"/>
    </g>
   </g>
   <g id="line2d_29">
    <path d="M 147.755292 373.980536 
L 147.755292 189.949606 
" clip-path="url(#pfe03e135d2)" style="fill: none; stroke: #4c72b0; stroke-width: 2.625; stroke-linecap: round"/>
   </g>
   <g id="line2d_30">
    <path d="M 191.475446 369.259192 
L 191.475446 150.31035 
" clip-path="url(#pfe03e135d2)" style="fill: none; stroke: #4c72b0; stroke-width: 2.625; stroke-linecap: round"/>
   </g>
   <g id="line2d_31">
    <path d="M 235.1956 321.444655 
L 235.1956 172.083876 
" clip-path="url(#pfe03e135d2)" style="fill: none; stroke: #4c72b0; stroke-width: 2.625; stroke-linecap: round"/>
   </g>
   <g id="line2d_32">
    <path d="M 278.915753 356.996615 
L 278.915753 206.358531 
" clip-path="url(#pfe03e135d2)" style="fill: none; stroke: #4c72b0; stroke-width: 2.625; stroke-linecap: round"/>
   </g>
   <g id="line2d_33">
    <path d="M 322.635907 341.31598 
L 322.635907 156.913437 
" clip-path="url(#pfe03e135d2)" style="fill: none; stroke: #4c72b0; stroke-width: 2.625; stroke-linecap: round"/>
   </g>
   <g id="line2d_34">
    <path d="M 366.356061 411.998581 
L 366.356061 265.478357 
" clip-path="url(#pfe03e135d2)" style="fill: none; stroke: #4c72b0; stroke-width: 2.625; stroke-linecap: round"/>
   </g>
   <g id="line2d_35">
    <path d="M 410.076215 412.006872 
L 410.076215 309.312993 
" clip-path="url(#pfe03e135d2)" style="fill: none; stroke: #4c72b0; stroke-width: 2.625; stroke-linecap: round"/>
   </g>
   <g id="line2d_36">
    <path d="M 453.796369 377.630846 
L 453.796369 218.72632 
" clip-path="url(#pfe03e135d2)" style="fill: none; stroke: #4c72b0; stroke-width: 2.625; stroke-linecap: round"/>
   </g>
   <g id="line2d_37">
    <path d="M 497.516523 392.930453 
L 497.516523 299.689648 
" clip-path="url(#pfe03e135d2)" style="fill: none; stroke: #4c72b0; stroke-width: 2.625; stroke-linecap: round"/>
   </g>
   <g id="line2d_38">
    <path d="M 541.236677 385.818797 
L 541.236677 212.80147 
" clip-path="url(#pfe03e135d2)" style="fill: none; stroke: #4c72b0; stroke-width: 2.625; stroke-linecap: round"/>
   </g>
   <g id="line2d_39">
    <path d="M 584.95683 363.730964 
L 584.95683 221.660889 
" clip-path="url(#pfe03e135d2)" style="fill: none; stroke: #4c72b0; stroke-width: 2.625; stroke-linecap: round"/>
   </g>
   <g id="line2d_40">
    <path d="M 628.676984 354.724931 
L 628.676984 208.39966 
" clip-path="url(#pfe03e135d2)" style="fill: none; stroke: #4c72b0; stroke-width: 2.625; stroke-linecap: round"/>
   </g>
   <g id="line2d_41">
    <path d="M 672.397138 373.10025 
L 672.397138 252.118456 
" clip-path="url(#pfe03e135d2)" style="fill: none; stroke: #4c72b0; stroke-width: 2.625; stroke-linecap: round"/>
   </g>
   <g id="line2d_42">
    <path d="M 716.117292 388.528487 
L 716.117292 200.860764 
" clip-path="url(#pfe03e135d2)" style="fill: none; stroke: #4c72b0; stroke-width: 2.625; stroke-linecap: round"/>
   </g>
   <g id="line2d_43">
    <path d="M 759.837446 393.717052 
L 759.837446 173.638279 
" clip-path="url(#pfe03e135d2)" style="fill: none; stroke: #4c72b0; stroke-width: 2.625; stroke-linecap: round"/>
   </g>
   <g id="line2d_44">
    <path d="M 803.5576 279.857143 
L 803.5576 52.868608 
" clip-path="url(#pfe03e135d2)" style="fill: none; stroke: #4c72b0; stroke-width: 2.625; stroke-linecap: round"/>
   </g>
   <g id="line2d_45">
    <path d="M 847.277754 379.833872 
L 847.277754 151.066125 
" clip-path="url(#pfe03e135d2)" style="fill: none; stroke: #4c72b0; stroke-width: 2.625; stroke-linecap: round"/>
   </g>
   <g id="line2d_46">
    <path d="M 890.997907 331.987073 
L 890.997907 158.846151 
" clip-path="url(#pfe03e135d2)" style="fill: none; stroke: #4c72b0; stroke-width: 2.625; stroke-linecap: round"/>
   </g>
   <g id="line2d_47">
    <path d="M 934.718061 380.035541 
L 934.718061 244.748345 
" clip-path="url(#pfe03e135d2)" style="fill: none; stroke: #4c72b0; stroke-width: 2.625; stroke-linecap: round"/>
   </g>
   <g id="line2d_48">
    <path d="M 978.438215 360.222265 
L 978.438215 227.385144 
" clip-path="url(#pfe03e135d2)" style="fill: none; stroke: #4c72b0; stroke-width: 2.625; stroke-linecap: round"/>
   </g>
   <g id="line2d_49">
    <path d="M 1022.158369 411.490549 
L 1022.158369 257.745252 
" clip-path="url(#pfe03e135d2)" style="fill: none; stroke: #4c72b0; stroke-width: 2.625; stroke-linecap: round"/>
   </g>
   <g id="line2d_50">
    <path d="M 147.755292 292.707377 
L 156.587646 292.71168 
L 165.42 292.715982 
L 174.252355 292.720285 
L 183.084709 292.724588 
L 191.917063 292.72889 
L 200.749418 292.733193 
L 209.581772 292.737495 
L 218.414126 292.741798 
L 227.246481 292.746101 
L 236.078835 292.750403 
L 244.911189 292.754706 
L 253.743544 292.759008 
L 262.575898 292.763311 
L 271.408252 292.767614 
L 280.240607 292.771916 
L 289.072961 292.776219 
L 297.905315 292.780521 
L 306.73767 292.784824 
L 315.570024 292.789127 
L 324.402378 292.793429 
L 333.234732 292.797732 
L 342.067087 292.802034 
L 350.899441 292.806337 
L 359.731795 292.81064 
L 368.56415 292.814942 
L 377.396504 292.819245 
L 386.228858 292.823547 
L 395.061213 292.82785 
L 403.893567 292.832153 
L 412.725921 292.836455 
L 421.558276 292.840758 
L 430.39063 292.84506 
L 439.222984 292.849363 
L 448.055339 292.853666 
L 456.887693 292.857968 
L 465.720047 292.862271 
L 474.552402 292.866573 
L 483.384756 292.870876 
L 492.21711 292.875179 
L 501.049464 292.879481 
L 509.881819 292.883784 
L 518.714173 292.888086 
L 527.546527 292.892389 
L 536.378882 292.896692 
L 545.211236 292.900994 
L 554.04359 292.905297 
L 562.875945 292.909599 
L 571.708299 292.913902 
L 580.540653 292.918205 
L 589.373008 292.922507 
L 598.205362 292.92681 
L 607.037716 292.931112 
L 615.870071 292.935415 
L 624.702425 292.939718 
L 633.534779 292.94402 
L 642.367134 292.948323 
L 651.199488 292.952625 
L 660.031842 292.956928 
L 668.864196 292.961231 
L 677.696551 292.965533 
L 686.528905 292.969836 
L 695.361259 292.974138 
L 704.193614 292.978441 
L 713.025968 292.982744 
L 721.858322 292.987046 
L 730.690677 292.991349 
L 739.523031 292.995651 
L 748.355385 292.999954 
L 757.18774 293.004257 
L 766.020094 293.008559 
L 774.852448 293.012862 
L 783.684803 293.017165 
L 792.517157 293.021467 
L 801.349511 293.02577 
L 810.181866 293.030072 
L 819.01422 293.034375 
L 827.846574 293.038678 
L 836.678928 293.04298 
L 845.511283 293.047283 
L 854.343637 293.051585 
L 863.175991 293.055888 
L 872.008346 293.060191 
L 880.8407 293.064493 
L 889.673054 293.068796 
L 898.505409 293.073098 
L 907.337763 293.077401 
L 916.170117 293.081704 
L 925.002472 293.086006 
L 933.834826 293.090309 
L 942.66718 293.094611 
L 951.499535 293.098914 
L 960.331889 293.103217 
L 969.164243 293.107519 
L 977.996598 293.111822 
L 986.828952 293.116124 
L 995.661306 293.120427 
L 1004.49366 293.12473 
L 1013.326015 293.129032 
L 1022.158369 293.133335 
" clip-path="url(#pfe03e135d2)" style="fill: none; stroke: #4c72b0; stroke-width: 2.25; stroke-linecap: round"/>
   </g>
   <g id="line2d_51">
    <path d="M 147.755292 300.669349 
L 147.755292 152.338949 
" clip-path="url(#pfe03e135d2)" style="fill: none; stroke: #dd8452; stroke-width: 2.625; stroke-linecap: round"/>
   </g>
   <g id="line2d_52">
    <path d="M 191.475446 409.91915 
L 191.475446 167.655119 
" clip-path="url(#pfe03e135d2)" style="fill: none; stroke: #dd8452; stroke-width: 2.625; stroke-linecap: round"/>
   </g>
   <g id="line2d_53">
    <path d="M 235.1956 394.78369 
L 235.1956 220.800403 
" clip-path="url(#pfe03e135d2)" style="fill: none; stroke: #dd8452; stroke-width: 2.625; stroke-linecap: round"/>
   </g>
   <g id="line2d_54">
    <path d="M 278.915753 343.280765 
L 278.915753 182.799977 
" clip-path="url(#pfe03e135d2)" style="fill: none; stroke: #dd8452; stroke-width: 2.625; stroke-linecap: round"/>
   </g>
   <g id="line2d_55">
    <path d="M 322.635907 318.621893 
L 322.635907 86.058954 
" clip-path="url(#pfe03e135d2)" style="fill: none; stroke: #dd8452; stroke-width: 2.625; stroke-linecap: round"/>
   </g>
   <g id="line2d_56">
    <path d="M 366.356061 338.365471 
L 366.356061 211.29494 
" clip-path="url(#pfe03e135d2)" style="fill: none; stroke: #dd8452; stroke-width: 2.625; stroke-linecap: round"/>
   </g>
   <g id="line2d_57">
    <path d="M 410.076215 391.979448 
L 410.076215 196.360768 
" clip-path="url(#pfe03e135d2)" style="fill: none; stroke: #dd8452; stroke-width: 2.625; stroke-linecap: round"/>
   </g>
   <g id="line2d_58">
    <path d="M 453.796369 343.761676 
L 453.796369 199.603604 
" clip-path="url(#pfe03e135d2)" style="fill: none; stroke: #dd8452; stroke-width: 2.625; stroke-linecap: round"/>
   </g>
   <g id="line2d_59">
    <path d="M 497.516523 358.634285 
L 497.516523 176.807661 
" clip-path="url(#pfe03e135d2)" style="fill: none; stroke: #dd8452; stroke-width: 2.625; stroke-linecap: round"/>
   </g>
   <g id="line2d_60">
    <path d="M 541.236677 365.056853 
L 541.236677 143.909538 
" clip-path="url(#pfe03e135d2)" style="fill: none; stroke: #dd8452; stroke-width: 2.625; stroke-linecap: round"/>
   </g>
   <g id="line2d_61">
    <path d="M 584.95683 318.257498 
L 584.95683 117.60365 
" clip-path="url(#pfe03e135d2)" style="fill: none; stroke: #dd8452; stroke-width: 2.625; stroke-linecap: round"/>
   </g>
   <g id="line2d_62">
    <path d="M 628.676984 328.239839 
L 628.676984 191.300176 
" clip-path="url(#pfe03e135d2)" style="fill: none; stroke: #dd8452; stroke-width: 2.625; stroke-linecap: round"/>
   </g>
   <g id="line2d_63">
    <path d="M 672.397138 333.296416 
L 672.397138 184.157816 
" clip-path="url(#pfe03e135d2)" style="fill: none; stroke: #dd8452; stroke-width: 2.625; stroke-linecap: round"/>
   </g>
   <g id="line2d_64">
    <path d="M 716.117292 399.640951 
L 716.117292 222.067897 
" clip-path="url(#pfe03e135d2)" style="fill: none; stroke: #dd8452; stroke-width: 2.625; stroke-linecap: round"/>
   </g>
   <g id="line2d_65">
    <path d="M 759.837446 374.185078 
L 759.837446 232.837616 
" clip-path="url(#pfe03e135d2)" style="fill: none; stroke: #dd8452; stroke-width: 2.625; stroke-linecap: round"/>
   </g>
   <g id="line2d_66">
    <path d="M 803.5576 433.350146 
L 803.5576 340.618966 
" clip-path="url(#pfe03e135d2)" style="fill: none; stroke: #dd8452; stroke-width: 2.625; stroke-linecap: round"/>
   </g>
   <g id="line2d_67">
    <path d="M 847.277754 339.279317 
L 847.277754 185.760144 
" clip-path="url(#pfe03e135d2)" style="fill: none; stroke: #dd8452; stroke-width: 2.625; stroke-linecap: round"/>
   </g>
   <g id="line2d_68">
    <path d="M 890.997907 371.151371 
L 890.997907 181.568294 
" clip-path="url(#pfe03e135d2)" style="fill: none; stroke: #dd8452; stroke-width: 2.625; stroke-linecap: round"/>
   </g>
   <g id="line2d_69">
    <path d="M 934.718061 313.027671 
L 934.718061 109.879926 
" clip-path="url(#pfe03e135d2)" style="fill: none; stroke: #dd8452; stroke-width: 2.625; stroke-linecap: round"/>
   </g>
   <g id="line2d_70">
    <path d="M 978.438215 405.820952 
L 978.438215 166.950575 
" clip-path="url(#pfe03e135d2)" style="fill: none; stroke: #dd8452; stroke-width: 2.625; stroke-linecap: round"/>
   </g>
   <g id="line2d_71">
    <path d="M 1022.158369 365.919122 
L 1022.158369 212.101824 
" clip-path="url(#pfe03e135d2)" style="fill: none; stroke: #dd8452; stroke-width: 2.625; stroke-linecap: round"/>
   </g>
   <g id="line2d_72">
    <path d="M 147.755292 265.290019 
L 156.587646 265.543998 
L 165.42 265.797977 
L 174.252355 266.051956 
L 183.084709 266.305936 
L 191.917063 266.559915 
L 200.749418 266.813894 
L 209.581772 267.067873 
L 218.414126 267.321852 
L 227.246481 267.575831 
L 236.078835 267.82981 
L 244.911189 268.083789 
L 253.743544 268.337768 
L 262.575898 268.591747 
L 271.408252 268.845726 
L 280.240607 269.099705 
L 289.072961 269.353685 
L 297.905315 269.607664 
L 306.73767 269.861643 
L 315.570024 270.115622 
L 324.402378 270.369601 
L 333.234732 270.62358 
L 342.067087 270.877559 
L 350.899441 271.131538 
L 359.731795 271.385517 
L 368.56415 271.639496 
L 377.396504 271.893475 
L 386.228858 272.147454 
L 395.061213 272.401434 
L 403.893567 272.655413 
L 412.725921 272.909392 
L 421.558276 273.163371 
L 430.39063 273.41735 
L 439.222984 273.671329 
L 448.055339 273.925308 
L 456.887693 274.179287 
L 465.720047 274.433266 
L 474.552402 274.687245 
L 483.384756 274.941224 
L 492.21711 275.195203 
L 501.049464 275.449183 
L 509.881819 275.703162 
L 518.714173 275.957141 
L 527.546527 276.21112 
L 536.378882 276.465099 
L 545.211236 276.719078 
L 554.04359 276.973057 
L 562.875945 277.227036 
L 571.708299 277.481015 
L 580.540653 277.734994 
L 589.373008 277.988973 
L 598.205362 278.242952 
L 607.037716 278.496932 
L 615.870071 278.750911 
L 624.702425 279.00489 
L 633.534779 279.258869 
L 642.367134 279.512848 
L 651.199488 279.766827 
L 660.031842 280.020806 
L 668.864196 280.274785 
L 677.696551 280.528764 
L 686.528905 280.782743 
L 695.361259 281.036722 
L 704.193614 281.290701 
L 713.025968 281.544681 
L 721.858322 281.79866 
L 730.690677 282.052639 
L 739.523031 282.306618 
L 748.355385 282.560597 
L 757.18774 282.814576 
L 766.020094 283.068555 
L 774.852448 283.322534 
L 783.684803 283.576513 
L 792.517157 283.830492 
L 801.349511 284.084471 
L 810.181866 284.33845 
L 819.01422 284.59243 
L 827.846574 284.846409 
L 836.678928 285.100388 
L 845.511283 285.354367 
L 854.343637 285.608346 
L 863.175991 285.862325 
L 872.008346 286.116304 
L 880.8407 286.370283 
L 889.673054 286.624262 
L 898.505409 286.878241 
L 907.337763 287.13222 
L 916.170117 287.386199 
L 925.002472 287.640178 
L 933.834826 287.894158 
L 942.66718 288.148137 
L 951.499535 288.402116 
L 960.331889 288.656095 
L 969.164243 288.910074 
L 977.996598 289.164053 
L 986.828952 289.418032 
L 995.661306 289.672011 
L 1004.49366 289.92599 
L 1013.326015 290.179969 
L 1022.158369 290.433948 
" clip-path="url(#pfe03e135d2)" style="fill: none; stroke: #dd8452; stroke-width: 2.25; stroke-linecap: round"/>
   </g>
   <g id="line2d_73">
    <path d="M 147.755292 348.795805 
L 147.755292 196.270733 
" clip-path="url(#pfe03e135d2)" style="fill: none; stroke: #55a868; stroke-width: 2.625; stroke-linecap: round"/>
   </g>
   <g id="line2d_74">
    <path d="M 191.475446 434.894043 
L 191.475446 310.441835 
" clip-path="url(#pfe03e135d2)" style="fill: none; stroke: #55a868; stroke-width: 2.625; stroke-linecap: round"/>
   </g>
   <g id="line2d_75">
    <path d="M 235.1956 466.890955 
L 235.1956 301.503856 
" clip-path="url(#pfe03e135d2)" style="fill: none; stroke: #55a868; stroke-width: 2.625; stroke-linecap: round"/>
   </g>
   <g id="line2d_76">
    <path d="M 278.915753 435.309964 
L 278.915753 295.585184 
" clip-path="url(#pfe03e135d2)" style="fill: none; stroke: #55a868; stroke-width: 2.625; stroke-linecap: round"/>
   </g>
   <g id="line2d_77">
    <path d="M 322.635907 421.025539 
L 322.635907 276.983289 
" clip-path="url(#pfe03e135d2)" style="fill: none; stroke: #55a868; stroke-width: 2.625; stroke-linecap: round"/>
   </g>
   <g id="line2d_78">
    <path d="M 366.356061 431.957155 
L 366.356061 270.666852 
" clip-path="url(#pfe03e135d2)" style="fill: none; stroke: #55a868; stroke-width: 2.625; stroke-linecap: round"/>
   </g>
   <g id="line2d_79">
    <path d="M 410.076215 449.959269 
L 410.076215 329.005479 
" clip-path="url(#pfe03e135d2)" style="fill: none; stroke: #55a868; stroke-width: 2.625; stroke-linecap: round"/>
   </g>
   <g id="line2d_80">
    <path d="M 453.796369 447.017864 
L 453.796369 326.997304 
" clip-path="url(#pfe03e135d2)" style="fill: none; stroke: #55a868; stroke-width: 2.625; stroke-linecap: round"/>
   </g>
   <g id="line2d_81">
    <path d="M 497.516523 423.291911 
L 497.516523 325.484717 
" clip-path="url(#pfe03e135d2)" style="fill: none; stroke: #55a868; stroke-width: 2.625; stroke-linecap: round"/>
   </g>
   <g id="line2d_82">
    <path d="M 541.236677 469.997129 
L 541.236677 362.41783 
" clip-path="url(#pfe03e135d2)" style="fill: none; stroke: #55a868; stroke-width: 2.625; stroke-linecap: round"/>
   </g>
   <g id="line2d_83">
    <path d="M 584.95683 450.073933 
L 584.95683 353.645987 
" clip-path="url(#pfe03e135d2)" style="fill: none; stroke: #55a868; stroke-width: 2.625; stroke-linecap: round"/>
   </g>
   <g id="line2d_84">
    <path d="M 628.676984 427.362226 
L 628.676984 279.737806 
" clip-path="url(#pfe03e135d2)" style="fill: none; stroke: #55a868; stroke-width: 2.625; stroke-linecap: round"/>
   </g>
   <g id="line2d_85">
    <path d="M 672.397138 441.681682 
L 672.397138 324.188579 
" clip-path="url(#pfe03e135d2)" style="fill: none; stroke: #55a868; stroke-width: 2.625; stroke-linecap: round"/>
   </g>
   <g id="line2d_86">
    <path d="M 716.117292 463.552564 
L 716.117292 327.408015 
" clip-path="url(#pfe03e135d2)" style="fill: none; stroke: #55a868; stroke-width: 2.625; stroke-linecap: round"/>
   </g>
   <g id="line2d_87">
    <path d="M 759.837446 481.814968 
L 759.837446 355.225244 
" clip-path="url(#pfe03e135d2)" style="fill: none; stroke: #55a868; stroke-width: 2.625; stroke-linecap: round"/>
   </g>
   <g id="line2d_88">
    <path d="M 803.5576 430.283416 
L 803.5576 288.049178 
" clip-path="url(#pfe03e135d2)" style="fill: none; stroke: #55a868; stroke-width: 2.625; stroke-linecap: round"/>
   </g>
   <g id="line2d_89">
    <path d="M 847.277754 446.251099 
L 847.277754 336.458009 
" clip-path="url(#pfe03e135d2)" style="fill: none; stroke: #55a868; stroke-width: 2.625; stroke-linecap: round"/>
   </g>
   <g id="line2d_90">
    <path d="M 890.997907 457.526117 
L 890.997907 350.531073 
" clip-path="url(#pfe03e135d2)" style="fill: none; stroke: #55a868; stroke-width: 2.625; stroke-linecap: round"/>
   </g>
   <g id="line2d_91">
    <path d="M 934.718061 454.106085 
L 934.718061 328.830689 
" clip-path="url(#pfe03e135d2)" style="fill: none; stroke: #55a868; stroke-width: 2.625; stroke-linecap: round"/>
   </g>
   <g id="line2d_92">
    <path d="M 978.438215 491.193116 
L 978.438215 409.076768 
" clip-path="url(#pfe03e135d2)" style="fill: none; stroke: #55a868; stroke-width: 2.625; stroke-linecap: round"/>
   </g>
   <g id="line2d_93">
    <path d="M 1022.158369 470.260483 
L 1022.158369 348.723649 
" clip-path="url(#pfe03e135d2)" style="fill: none; stroke: #55a868; stroke-width: 2.625; stroke-linecap: round"/>
   </g>
   <g id="line2d_94">
    <path d="M 147.755292 350.332666 
L 156.587646 351.049084 
L 165.42 351.765501 
L 174.252355 352.481919 
L 183.084709 353.198336 
L 191.917063 353.914754 
L 200.749418 354.631171 
L 209.581772 355.347589 
L 218.414126 356.064006 
L 227.246481 356.780424 
L 236.078835 357.496841 
L 244.911189 358.213259 
L 253.743544 358.929676 
L 262.575898 359.646094 
L 271.408252 360.362511 
L 280.240607 361.078929 
L 289.072961 361.795347 
L 297.905315 362.511764 
L 306.73767 363.228182 
L 315.570024 363.944599 
L 324.402378 364.661017 
L 333.234732 365.377434 
L 342.067087 366.093852 
L 350.899441 366.810269 
L 359.731795 367.526687 
L 368.56415 368.243104 
L 377.396504 368.959522 
L 386.228858 369.675939 
L 395.061213 370.392357 
L 403.893567 371.108774 
L 412.725921 371.825192 
L 421.558276 372.54161 
L 430.39063 373.258027 
L 439.222984 373.974445 
L 448.055339 374.690862 
L 456.887693 375.40728 
L 465.720047 376.123697 
L 474.552402 376.840115 
L 483.384756 377.556532 
L 492.21711 378.27295 
L 501.049464 378.989367 
L 509.881819 379.705785 
L 518.714173 380.422202 
L 527.546527 381.13862 
L 536.378882 381.855037 
L 545.211236 382.571455 
L 554.04359 383.287873 
L 562.875945 384.00429 
L 571.708299 384.720708 
L 580.540653 385.437125 
L 589.373008 386.153543 
L 598.205362 386.86996 
L 607.037716 387.586378 
L 615.870071 388.302795 
L 624.702425 389.019213 
L 633.534779 389.73563 
L 642.367134 390.452048 
L 651.199488 391.168465 
L 660.031842 391.884883 
L 668.864196 392.6013 
L 677.696551 393.317718 
L 686.528905 394.034136 
L 695.361259 394.750553 
L 704.193614 395.466971 
L 713.025968 396.183388 
L 721.858322 396.899806 
L 730.690677 397.616223 
L 739.523031 398.332641 
L 748.355385 399.049058 
L 757.18774 399.765476 
L 766.020094 400.481893 
L 774.852448 401.198311 
L 783.684803 401.914728 
L 792.517157 402.631146 
L 801.349511 403.347563 
L 810.181866 404.063981 
L 819.01422 404.780399 
L 827.846574 405.496816 
L 836.678928 406.213234 
L 845.511283 406.929651 
L 854.343637 407.646069 
L 863.175991 408.362486 
L 872.008346 409.078904 
L 880.8407 409.795321 
L 889.673054 410.511739 
L 898.505409 411.228156 
L 907.337763 411.944574 
L 916.170117 412.660991 
L 925.002472 413.377409 
L 933.834826 414.093826 
L 942.66718 414.810244 
L 951.499535 415.526662 
L 960.331889 416.243079 
L 969.164243 416.959497 
L 977.996598 417.675914 
L 986.828952 418.392332 
L 995.661306 419.108749 
L 1004.49366 419.825167 
L 1013.326015 420.541584 
L 1022.158369 421.258002 
" clip-path="url(#pfe03e135d2)" style="fill: none; stroke: #55a868; stroke-width: 2.25; stroke-linecap: round"/>
   </g>
   <g id="line2d_95">
    <path d="M 147.755292 364.270063 
L 147.755292 120.12782 
" clip-path="url(#pfe03e135d2)" style="fill: none; stroke: #c44e52; stroke-width: 2.625; stroke-linecap: round"/>
   </g>
   <g id="line2d_96">
    <path d="M 191.475446 426.540579 
L 191.475446 217.138618 
" clip-path="url(#pfe03e135d2)" style="fill: none; stroke: #c44e52; stroke-width: 2.625; stroke-linecap: round"/>
   </g>
   <g id="line2d_97">
    <path d="M 235.1956 423.561374 
L 235.1956 280.976275 
" clip-path="url(#pfe03e135d2)" style="fill: none; stroke: #c44e52; stroke-width: 2.625; stroke-linecap: round"/>
   </g>
   <g id="line2d_98">
    <path d="M 278.915753 414.920308 
L 278.915753 218.672061 
" clip-path="url(#pfe03e135d2)" style="fill: none; stroke: #c44e52; stroke-width: 2.625; stroke-linecap: round"/>
   </g>
   <g id="line2d_99">
    <path d="M 322.635907 393.036895 
L 322.635907 102.283223 
" clip-path="url(#pfe03e135d2)" style="fill: none; stroke: #c44e52; stroke-width: 2.625; stroke-linecap: round"/>
   </g>
   <g id="line2d_100">
    <path d="M 366.356061 403.862692 
L 366.356061 293.970862 
" clip-path="url(#pfe03e135d2)" style="fill: none; stroke: #c44e52; stroke-width: 2.625; stroke-linecap: round"/>
   </g>
   <g id="line2d_101">
    <path d="M 410.076215 427.75672 
L 410.076215 312.131514 
" clip-path="url(#pfe03e135d2)" style="fill: none; stroke: #c44e52; stroke-width: 2.625; stroke-linecap: round"/>
   </g>
   <g id="line2d_102">
    <path d="M 453.796369 416.679979 
L 453.796369 324.093785 
" clip-path="url(#pfe03e135d2)" style="fill: none; stroke: #c44e52; stroke-width: 2.625; stroke-linecap: round"/>
   </g>
   <g id="line2d_103">
    <path d="M 497.516523 460.591324 
L 497.516523 358.766533 
" clip-path="url(#pfe03e135d2)" style="fill: none; stroke: #c44e52; stroke-width: 2.625; stroke-linecap: round"/>
   </g>
   <g id="line2d_104">
    <path d="M 541.236677 464.371078 
L 541.236677 343.224481 
" clip-path="url(#pfe03e135d2)" style="fill: none; stroke: #c44e52; stroke-width: 2.625; stroke-linecap: round"/>
   </g>
   <g id="line2d_105">
    <path d="M 584.95683 447.747486 
L 584.95683 333.81665 
" clip-path="url(#pfe03e135d2)" style="fill: none; stroke: #c44e52; stroke-width: 2.625; stroke-linecap: round"/>
   </g>
   <g id="line2d_106">
    <path d="M 628.676984 452.444219 
L 628.676984 257.607742 
" clip-path="url(#pfe03e135d2)" style="fill: none; stroke: #c44e52; stroke-width: 2.625; stroke-linecap: round"/>
   </g>
   <g id="line2d_107">
    <path d="M 672.397138 467.929675 
L 672.397138 372.869418 
" clip-path="url(#pfe03e135d2)" style="fill: none; stroke: #c44e52; stroke-width: 2.625; stroke-linecap: round"/>
   </g>
   <g id="line2d_108">
    <path d="M 716.117292 445.988005 
L 716.117292 337.430909 
" clip-path="url(#pfe03e135d2)" style="fill: none; stroke: #c44e52; stroke-width: 2.625; stroke-linecap: round"/>
   </g>
   <g id="line2d_109">
    <path d="M 759.837446 480.979388 
L 759.837446 369.918026 
" clip-path="url(#pfe03e135d2)" style="fill: none; stroke: #c44e52; stroke-width: 2.625; stroke-linecap: round"/>
   </g>
   <g id="line2d_110">
    <path d="M 803.5576 483.673847 
L 803.5576 416.754368 
" clip-path="url(#pfe03e135d2)" style="fill: none; stroke: #c44e52; stroke-width: 2.625; stroke-linecap: round"/>
   </g>
   <g id="line2d_111">
    <path d="M 847.277754 441.687913 
L 847.277754 330.963462 
" clip-path="url(#pfe03e135d2)" style="fill: none; stroke: #c44e52; stroke-width: 2.625; stroke-linecap: round"/>
   </g>
   <g id="line2d_112">
    <path d="M 890.997907 478.156973 
L 890.997907 353.147994 
" clip-path="url(#pfe03e135d2)" style="fill: none; stroke: #c44e52; stroke-width: 2.625; stroke-linecap: round"/>
   </g>
   <g id="line2d_113">
    <path d="M 934.718061 491.959517 
L 934.718061 401.041592 
" clip-path="url(#pfe03e135d2)" style="fill: none; stroke: #c44e52; stroke-width: 2.625; stroke-linecap: round"/>
   </g>
   <g id="line2d_114">
    <path d="M 978.438215 451.421301 
L 978.438215 326.603571 
" clip-path="url(#pfe03e135d2)" style="fill: none; stroke: #c44e52; stroke-width: 2.625; stroke-linecap: round"/>
   </g>
   <g id="line2d_115">
    <path d="M 1022.158369 463.734969 
L 1022.158369 369.484503 
" clip-path="url(#pfe03e135d2)" style="fill: none; stroke: #c44e52; stroke-width: 2.625; stroke-linecap: round"/>
   </g>
   <g id="line2d_116">
    <path d="M 147.755292 316.176954 
L 156.587646 317.465431 
L 165.42 318.753907 
L 174.252355 320.042384 
L 183.084709 321.330861 
L 191.917063 322.619337 
L 200.749418 323.907814 
L 209.581772 325.19629 
L 218.414126 326.484767 
L 227.246481 327.773244 
L 236.078835 329.06172 
L 244.911189 330.350197 
L 253.743544 331.638674 
L 262.575898 332.92715 
L 271.408252 334.215627 
L 280.240607 335.504104 
L 289.072961 336.79258 
L 297.905315 338.081057 
L 306.73767 339.369533 
L 315.570024 340.65801 
L 324.402378 341.946487 
L 333.234732 343.234963 
L 342.067087 344.52344 
L 350.899441 345.811917 
L 359.731795 347.100393 
L 368.56415 348.38887 
L 377.396504 349.677347 
L 386.228858 350.965823 
L 395.061213 352.2543 
L 403.893567 353.542776 
L 412.725921 354.831253 
L 421.558276 356.11973 
L 430.39063 357.408206 
L 439.222984 358.696683 
L 448.055339 359.98516 
L 456.887693 361.273636 
L 465.720047 362.562113 
L 474.552402 363.85059 
L 483.384756 365.139066 
L 492.21711 366.427543 
L 501.049464 367.716019 
L 509.881819 369.004496 
L 518.714173 370.292973 
L 527.546527 371.581449 
L 536.378882 372.869926 
L 545.211236 374.158403 
L 554.04359 375.446879 
L 562.875945 376.735356 
L 571.708299 378.023833 
L 580.540653 379.312309 
L 589.373008 380.600786 
L 598.205362 381.889262 
L 607.037716 383.177739 
L 615.870071 384.466216 
L 624.702425 385.754692 
L 633.534779 387.043169 
L 642.367134 388.331646 
L 651.199488 389.620122 
L 660.031842 390.908599 
L 668.864196 392.197076 
L 677.696551 393.485552 
L 686.528905 394.774029 
L 695.361259 396.062505 
L 704.193614 397.350982 
L 713.025968 398.639459 
L 721.858322 399.927935 
L 730.690677 401.216412 
L 739.523031 402.504889 
L 748.355385 403.793365 
L 757.18774 405.081842 
L 766.020094 406.370319 
L 774.852448 407.658795 
L 783.684803 408.947272 
L 792.517157 410.235748 
L 801.349511 411.524225 
L 810.181866 412.812702 
L 819.01422 414.101178 
L 827.846574 415.389655 
L 836.678928 416.678132 
L 845.511283 417.966608 
L 854.343637 419.255085 
L 863.175991 420.543562 
L 872.008346 421.832038 
L 880.8407 423.120515 
L 889.673054 424.408991 
L 898.505409 425.697468 
L 907.337763 426.985945 
L 916.170117 428.274421 
L 925.002472 429.562898 
L 933.834826 430.851375 
L 942.66718 432.139851 
L 951.499535 433.428328 
L 960.331889 434.716805 
L 969.164243 436.005281 
L 977.996598 437.293758 
L 986.828952 438.582234 
L 995.661306 439.870711 
L 1004.49366 441.159188 
L 1013.326015 442.447664 
L 1022.158369 443.736141 
" clip-path="url(#pfe03e135d2)" style="fill: none; stroke: #c44e52; stroke-width: 2.25; stroke-linecap: round"/>
   </g>
   <g id="patch_3">
    <path d="M 55.942969 518.744063 
L 55.942969 26.084062 
" style="fill: none; stroke: #ffffff; stroke-width: 1.25; stroke-linejoin: miter; stroke-linecap: square"/>
   </g>
   <g id="patch_4">
    <path d="M 55.942969 518.744063 
L 1113.970692 518.744063 
" style="fill: none; stroke: #ffffff; stroke-width: 1.25; stroke-linejoin: miter; stroke-linecap: square"/>
   </g>
   <g id="text_31">
    <!-- Duration over the Block -->
    <g style="fill: #262626" transform="translate(491.415893 20.084062) scale(0.18 -0.18)">
     <defs>
      <path id="ArialMT-44" d="M 494 0 
L 494 4581 
L 2072 4581 
Q 2606 4581 2888 4516 
Q 3281 4425 3559 4188 
Q 3922 3881 4101 3404 
Q 4281 2928 4281 2316 
Q 4281 1794 4159 1391 
Q 4038 988 3847 723 
Q 3656 459 3429 307 
Q 3203 156 2883 78 
Q 2563 0 2147 0 
L 494 0 
z
M 1100 541 
L 2078 541 
Q 2531 541 2789 625 
Q 3047 709 3200 863 
Q 3416 1078 3536 1442 
Q 3656 1806 3656 2325 
Q 3656 3044 3420 3430 
Q 3184 3816 2847 3947 
Q 2603 4041 2063 4041 
L 1100 4041 
L 1100 541 
z
" transform="scale(0.015625)"/>
      <path id="ArialMT-74" d="M 1650 503 
L 1731 6 
Q 1494 -44 1306 -44 
Q 1000 -44 831 53 
Q 663 150 594 308 
Q 525 466 525 972 
L 525 2881 
L 113 2881 
L 113 3319 
L 525 3319 
L 525 4141 
L 1084 4478 
L 1084 3319 
L 1650 3319 
L 1650 2881 
L 1084 2881 
L 1084 941 
Q 1084 700 1114 631 
Q 1144 563 1211 522 
Q 1278 481 1403 481 
Q 1497 481 1650 503 
z
" transform="scale(0.015625)"/>
      <path id="ArialMT-6f" d="M 213 1659 
Q 213 2581 725 3025 
Q 1153 3394 1769 3394 
Q 2453 3394 2887 2945 
Q 3322 2497 3322 1706 
Q 3322 1066 3130 698 
Q 2938 331 2570 128 
Q 2203 -75 1769 -75 
Q 1072 -75 642 372 
Q 213 819 213 1659 
z
M 791 1659 
Q 791 1022 1069 705 
Q 1347 388 1769 388 
Q 2188 388 2466 706 
Q 2744 1025 2744 1678 
Q 2744 2294 2464 2611 
Q 2184 2928 1769 2928 
Q 1347 2928 1069 2612 
Q 791 2297 791 1659 
z
" transform="scale(0.015625)"/>
      <path id="ArialMT-6e" d="M 422 0 
L 422 3319 
L 928 3319 
L 928 2847 
Q 1294 3394 1984 3394 
Q 2284 3394 2536 3286 
Q 2788 3178 2913 3003 
Q 3038 2828 3088 2588 
Q 3119 2431 3119 2041 
L 3119 0 
L 2556 0 
L 2556 2019 
Q 2556 2363 2490 2533 
Q 2425 2703 2258 2804 
Q 2091 2906 1866 2906 
Q 1506 2906 1245 2678 
Q 984 2450 984 1813 
L 984 0 
L 422 0 
z
" transform="scale(0.015625)"/>
      <path id="ArialMT-76" d="M 1344 0 
L 81 3319 
L 675 3319 
L 1388 1331 
Q 1503 1009 1600 663 
Q 1675 925 1809 1294 
L 2547 3319 
L 3125 3319 
L 1869 0 
L 1344 0 
z
" transform="scale(0.015625)"/>
      <path id="ArialMT-68" d="M 422 0 
L 422 4581 
L 984 4581 
L 984 2938 
Q 1378 3394 1978 3394 
Q 2347 3394 2619 3248 
Q 2891 3103 3008 2847 
Q 3125 2591 3125 2103 
L 3125 0 
L 2563 0 
L 2563 2103 
Q 2563 2525 2380 2717 
Q 2197 2909 1863 2909 
Q 1613 2909 1392 2779 
Q 1172 2650 1078 2428 
Q 984 2206 984 1816 
L 984 0 
L 422 0 
z
" transform="scale(0.015625)"/>
      <path id="ArialMT-42" d="M 469 0 
L 469 4581 
L 2188 4581 
Q 2713 4581 3030 4442 
Q 3347 4303 3526 4014 
Q 3706 3725 3706 3409 
Q 3706 3116 3547 2856 
Q 3388 2597 3066 2438 
Q 3481 2316 3704 2022 
Q 3928 1728 3928 1328 
Q 3928 1006 3792 729 
Q 3656 453 3456 303 
Q 3256 153 2954 76 
Q 2653 0 2216 0 
L 469 0 
z
M 1075 2656 
L 2066 2656 
Q 2469 2656 2644 2709 
Q 2875 2778 2992 2937 
Q 3109 3097 3109 3338 
Q 3109 3566 3000 3739 
Q 2891 3913 2687 3977 
Q 2484 4041 1991 4041 
L 1075 4041 
L 1075 2656 
z
M 1075 541 
L 2216 541 
Q 2509 541 2628 563 
Q 2838 600 2978 687 
Q 3119 775 3209 942 
Q 3300 1109 3300 1328 
Q 3300 1584 3169 1773 
Q 3038 1963 2805 2039 
Q 2572 2116 2134 2116 
L 1075 2116 
L 1075 541 
z
" transform="scale(0.015625)"/>
      <path id="ArialMT-63" d="M 2588 1216 
L 3141 1144 
Q 3050 572 2676 248 
Q 2303 -75 1759 -75 
Q 1078 -75 664 370 
Q 250 816 250 1647 
Q 250 2184 428 2587 
Q 606 2991 970 3192 
Q 1334 3394 1763 3394 
Q 2303 3394 2647 3120 
Q 2991 2847 3088 2344 
L 2541 2259 
Q 2463 2594 2264 2762 
Q 2066 2931 1784 2931 
Q 1359 2931 1093 2626 
Q 828 2322 828 1663 
Q 828 994 1084 691 
Q 1341 388 1753 388 
Q 2084 388 2306 591 
Q 2528 794 2588 1216 
z
" transform="scale(0.015625)"/>
      <path id="ArialMT-6b" d="M 425 0 
L 425 4581 
L 988 4581 
L 988 1969 
L 2319 3319 
L 3047 3319 
L 1778 2088 
L 3175 0 
L 2481 0 
L 1384 1697 
L 988 1316 
L 988 0 
L 425 0 
z
" transform="scale(0.015625)"/>
     </defs>
     <use xlink:href="#ArialMT-44"/>
     <use xlink:href="#ArialMT-75" x="72.216797"/>
     <use xlink:href="#ArialMT-72" x="127.832031"/>
     <use xlink:href="#ArialMT-61" x="161.132812"/>
     <use xlink:href="#ArialMT-74" x="216.748047"/>
     <use xlink:href="#ArialMT-69" x="244.53125"/>
     <use xlink:href="#ArialMT-6f" x="266.748047"/>
     <use xlink:href="#ArialMT-6e" x="322.363281"/>
     <use xlink:href="#ArialMT-20" x="377.978516"/>
     <use xlink:href="#ArialMT-6f" x="405.761719"/>
     <use xlink:href="#ArialMT-76" x="461.376953"/>
     <use xlink:href="#ArialMT-65" x="511.376953"/>
     <use xlink:href="#ArialMT-72" x="566.992188"/>
     <use xlink:href="#ArialMT-20" x="600.292969"/>
     <use xlink:href="#ArialMT-74" x="628.076172"/>
     <use xlink:href="#ArialMT-68" x="655.859375"/>
     <use xlink:href="#ArialMT-65" x="711.474609"/>
     <use xlink:href="#ArialMT-20" x="767.089844"/>
     <use xlink:href="#ArialMT-42" x="794.873047"/>
     <use xlink:href="#ArialMT-6c" x="861.572266"/>
     <use xlink:href="#ArialMT-6f" x="883.789062"/>
     <use xlink:href="#ArialMT-63" x="939.404297"/>
     <use xlink:href="#ArialMT-6b" x="989.404297"/>
    </g>
   </g>
  </g>
  <g id="legend_1">
   <g id="text_32">
    <!-- Condition -->
    <g style="fill: #262626" transform="translate(1186.23308 243.471445) scale(0.18 -0.18)">
     <defs>
      <path id="ArialMT-43" d="M 3763 1606 
L 4369 1453 
Q 4178 706 3683 314 
Q 3188 -78 2472 -78 
Q 1731 -78 1267 223 
Q 803 525 561 1097 
Q 319 1669 319 2325 
Q 319 3041 592 3573 
Q 866 4106 1370 4382 
Q 1875 4659 2481 4659 
Q 3169 4659 3637 4309 
Q 4106 3959 4291 3325 
L 3694 3184 
Q 3534 3684 3231 3912 
Q 2928 4141 2469 4141 
Q 1941 4141 1586 3887 
Q 1231 3634 1087 3207 
Q 944 2781 944 2328 
Q 944 1744 1114 1308 
Q 1284 872 1643 656 
Q 2003 441 2422 441 
Q 2931 441 3284 734 
Q 3638 1028 3763 1606 
z
" transform="scale(0.015625)"/>
      <path id="ArialMT-64" d="M 2575 0 
L 2575 419 
Q 2259 -75 1647 -75 
Q 1250 -75 917 144 
Q 584 363 401 755 
Q 219 1147 219 1656 
Q 219 2153 384 2558 
Q 550 2963 881 3178 
Q 1213 3394 1622 3394 
Q 1922 3394 2156 3267 
Q 2391 3141 2538 2938 
L 2538 4581 
L 3097 4581 
L 3097 0 
L 2575 0 
z
M 797 1656 
Q 797 1019 1065 703 
Q 1334 388 1700 388 
Q 2069 388 2326 689 
Q 2584 991 2584 1609 
Q 2584 2291 2321 2609 
Q 2059 2928 1675 2928 
Q 1300 2928 1048 2622 
Q 797 2316 797 1656 
z
" transform="scale(0.015625)"/>
     </defs>
     <use xlink:href="#ArialMT-43"/>
     <use xlink:href="#ArialMT-6f" x="72.216797"/>
     <use xlink:href="#ArialMT-6e" x="127.832031"/>
     <use xlink:href="#ArialMT-64" x="183.447266"/>
     <use xlink:href="#ArialMT-69" x="239.0625"/>
     <use xlink:href="#ArialMT-74" x="261.279297"/>
     <use xlink:href="#ArialMT-69" x="289.0625"/>
     <use xlink:href="#ArialMT-6f" x="311.279297"/>
     <use xlink:href="#ArialMT-6e" x="366.894531"/>
    </g>
   </g>
   <g id="PathCollection_5">
    <g>
     <use xlink:href="#mbcf99f7bb7" x="1141.534955" y="262.778086" style="fill: #4c72b0; stroke: #4c72b0"/>
    </g>
   </g>
   <g id="text_33">
    <!-- No Feedback -->
    <g style="fill: #262626" transform="translate(1171.234955 267.109336) scale(0.165 -0.165)">
     <defs>
      <path id="ArialMT-46" d="M 525 0 
L 525 4581 
L 3616 4581 
L 3616 4041 
L 1131 4041 
L 1131 2622 
L 3281 2622 
L 3281 2081 
L 1131 2081 
L 1131 0 
L 525 0 
z
" transform="scale(0.015625)"/>
     </defs>
     <use xlink:href="#ArialMT-4e"/>
     <use xlink:href="#ArialMT-6f" x="72.216797"/>
     <use xlink:href="#ArialMT-20" x="127.832031"/>
     <use xlink:href="#ArialMT-46" x="155.615234"/>
     <use xlink:href="#ArialMT-65" x="216.699219"/>
     <use xlink:href="#ArialMT-65" x="272.314453"/>
     <use xlink:href="#ArialMT-64" x="327.929688"/>
     <use xlink:href="#ArialMT-62" x="383.544922"/>
     <use xlink:href="#ArialMT-61" x="439.160156"/>
     <use xlink:href="#ArialMT-63" x="494.775391"/>
     <use xlink:href="#ArialMT-6b" x="544.775391"/>
    </g>
   </g>
   <g id="PathCollection_6">
    <g>
     <use xlink:href="#me817cca687" x="1141.534955" y="286.117852" style="fill: #dd8452; stroke: #dd8452"/>
    </g>
   </g>
   <g id="text_34">
    <!-- Tactile Feedback -->
    <g style="fill: #262626" transform="translate(1171.234955 290.449102) scale(0.165 -0.165)">
     <use xlink:href="#ArialMT-54"/>
     <use xlink:href="#ArialMT-61" x="49.958984"/>
     <use xlink:href="#ArialMT-63" x="105.574219"/>
     <use xlink:href="#ArialMT-74" x="155.574219"/>
     <use xlink:href="#ArialMT-69" x="183.357422"/>
     <use xlink:href="#ArialMT-6c" x="205.574219"/>
     <use xlink:href="#ArialMT-65" x="227.791016"/>
     <use xlink:href="#ArialMT-20" x="283.40625"/>
     <use xlink:href="#ArialMT-46" x="311.189453"/>
     <use xlink:href="#ArialMT-65" x="372.273438"/>
     <use xlink:href="#ArialMT-65" x="427.888672"/>
     <use xlink:href="#ArialMT-64" x="483.503906"/>
     <use xlink:href="#ArialMT-62" x="539.119141"/>
     <use xlink:href="#ArialMT-61" x="594.734375"/>
     <use xlink:href="#ArialMT-63" x="650.349609"/>
     <use xlink:href="#ArialMT-6b" x="700.349609"/>
    </g>
   </g>
   <g id="PathCollection_7">
    <g>
     <use xlink:href="#m9c307a3ca4" x="1141.534955" y="309.457617" style="fill: #55a868; stroke: #55a868"/>
    </g>
   </g>
   <g id="text_35">
    <!-- Visual Feedback -->
    <g style="fill: #262626" transform="translate(1171.234955 313.788867) scale(0.165 -0.165)">
     <defs>
      <path id="ArialMT-56" d="M 1803 0 
L 28 4581 
L 684 4581 
L 1875 1253 
Q 2019 853 2116 503 
Q 2222 878 2363 1253 
L 3600 4581 
L 4219 4581 
L 2425 0 
L 1803 0 
z
" transform="scale(0.015625)"/>
     </defs>
     <use xlink:href="#ArialMT-56"/>
     <use xlink:href="#ArialMT-69" x="64.949219"/>
     <use xlink:href="#ArialMT-73" x="87.166016"/>
     <use xlink:href="#ArialMT-75" x="137.166016"/>
     <use xlink:href="#ArialMT-61" x="192.78125"/>
     <use xlink:href="#ArialMT-6c" x="248.396484"/>
     <use xlink:href="#ArialMT-20" x="270.613281"/>
     <use xlink:href="#ArialMT-46" x="298.396484"/>
     <use xlink:href="#ArialMT-65" x="359.480469"/>
     <use xlink:href="#ArialMT-65" x="415.095703"/>
     <use xlink:href="#ArialMT-64" x="470.710938"/>
     <use xlink:href="#ArialMT-62" x="526.326172"/>
     <use xlink:href="#ArialMT-61" x="581.941406"/>
     <use xlink:href="#ArialMT-63" x="637.556641"/>
     <use xlink:href="#ArialMT-6b" x="687.556641"/>
    </g>
   </g>
   <g id="PathCollection_8">
    <g>
     <use xlink:href="#m8cb422ce61" x="1141.534955" y="332.797383" style="fill: #c44e52; stroke: #c44e52"/>
    </g>
   </g>
   <g id="text_36">
    <!-- Combined Feedback -->
    <g style="fill: #262626" transform="translate(1171.234955 337.128633) scale(0.165 -0.165)">
     <use xlink:href="#ArialMT-43"/>
     <use xlink:href="#ArialMT-6f" x="72.216797"/>
     <use xlink:href="#ArialMT-6d" x="127.832031"/>
     <use xlink:href="#ArialMT-62" x="211.132812"/>
     <use xlink:href="#ArialMT-69" x="266.748047"/>
     <use xlink:href="#ArialMT-6e" x="288.964844"/>
     <use xlink:href="#ArialMT-65" x="344.580078"/>
     <use xlink:href="#ArialMT-64" x="400.195312"/>
     <use xlink:href="#ArialMT-20" x="455.810547"/>
     <use xlink:href="#ArialMT-46" x="483.59375"/>
     <use xlink:href="#ArialMT-65" x="544.677734"/>
     <use xlink:href="#ArialMT-65" x="600.292969"/>
     <use xlink:href="#ArialMT-64" x="655.908203"/>
     <use xlink:href="#ArialMT-62" x="711.523438"/>
     <use xlink:href="#ArialMT-61" x="767.138672"/>
     <use xlink:href="#ArialMT-63" x="822.753906"/>
     <use xlink:href="#ArialMT-6b" x="872.753906"/>
    </g>
   </g>
  </g>
 </g>
 <defs>
  <clipPath id="pfe03e135d2">
   <rect x="55.942969" y="26.084062" width="1058.027723" height="492.66"/>
  </clipPath>
 </defs>
</svg>
