<?xml version="1.0" encoding="utf-8" standalone="no"?>
<!DOCTYPE svg PUBLIC "-//W3C//DTD SVG 1.1//EN"
  "http://www.w3.org/Graphics/SVG/1.1/DTD/svg11.dtd">
<svg xmlns:xlink="http://www.w3.org/1999/xlink" width="1800pt" height="576pt" viewBox="0 0 1800 576" xmlns="http://www.w3.org/2000/svg" version="1.1">
 <metadata>
  <rdf:RDF xmlns:dc="http://purl.org/dc/elements/1.1/" xmlns:cc="http://creativecommons.org/ns#" xmlns:rdf="http://www.w3.org/1999/02/22-rdf-syntax-ns#">
   <cc:Work>
    <dc:type rdf:resource="http://purl.org/dc/dcmitype/StillImage"/>
    <dc:date>2026-01-03T09:49:07.296203</dc:date>
    <dc:format>image/svg+xml</dc:format>
    <dc:creator>
     <cc:Agent>
      <dc:title>Matplotlib v3.8.0, https://matplotlib.org/</dc:title>
     </cc:Agent>
    </dc:creator>
   </cc:Work>
  </rdf:RDF>
 </metadata>
 <defs>
  <style type="text/css">*{stroke-linejoin: round; stroke-linecap: butt}</style>
 </defs>
 <g id="figure_1">
  <g id="patch_1">
   <path d="M 0 576 
L 1800 576 
L 1800 0 
L 0 0 
z
" style="fill: #ffffff"/>
  </g>
  <g id="axes_1">
   <g id="patch_2">
    <path d="M 225 512.64 
L 1620 512.64 
L 1620 69.12 
L 225 69.12 
z
" style="fill: #ffffff"/>
   </g>
   <g id="matplotlib.axis_1">
    <g id="xtick_1">
     <g id="text_1">
      <!-- 0 -->
      <g style="fill: #262626" transform="translate(278.778845 533.950391) scale(0.165 -0.165)">
       <defs>
        <path id="ArialMT-30" d="M 266 2259 
Q 266 3072 433 3567 
Q 600 4063 929 4331 
Q 1259 4600 1759 4600 
Q 2128 4600 2406 4451 
Q 2684 4303 2865 4023 
Q 3047 3744 3150 3342 
Q 3253 2941 3253 2259 
Q 3253 1453 3087 958 
Q 2922 463 2592 192 
Q 2263 -78 1759 -78 
Q 1097 -78 719 397 
Q 266 969 266 2259 
z
M 844 2259 
Q 844 1131 1108 757 
Q 1372 384 1759 384 
Q 2147 384 2411 759 
Q 2675 1134 2675 2259 
Q 2675 3391 2411 3762 
Q 2147 4134 1753 4134 
Q 1366 4134 1134 3806 
Q 844 3388 844 2259 
z
" transform="scale(0.015625)"/>
       </defs>
       <use xlink:href="#ArialMT-30"/>
      </g>
     </g>
    </g>
    <g id="xtick_2">
     <g id="text_2">
      <!-- 100 -->
      <g style="fill: #262626" transform="translate(521.72692 533.950391) scale(0.165 -0.165)">
       <defs>
        <path id="ArialMT-31" d="M 2384 0 
L 1822 0 
L 1822 3584 
Q 1619 3391 1289 3197 
Q 959 3003 697 2906 
L 697 3450 
Q 1169 3672 1522 3987 
Q 1875 4303 2022 4600 
L 2384 4600 
L 2384 0 
z
" transform="scale(0.015625)"/>
       </defs>
       <use xlink:href="#ArialMT-31"/>
       <use xlink:href="#ArialMT-30" x="55.615234"/>
       <use xlink:href="#ArialMT-30" x="111.230469"/>
      </g>
     </g>
    </g>
    <g id="xtick_3">
     <g id="text_3">
      <!-- 200 -->
      <g style="fill: #262626" transform="translate(773.850542 533.950391) scale(0.165 -0.165)">
       <defs>
        <path id="ArialMT-32" d="M 3222 541 
L 3222 0 
L 194 0 
Q 188 203 259 391 
Q 375 700 629 1000 
Q 884 1300 1366 1694 
Q 2113 2306 2375 2664 
Q 2638 3022 2638 3341 
Q 2638 3675 2398 3904 
Q 2159 4134 1775 4134 
Q 1369 4134 1125 3890 
Q 881 3647 878 3216 
L 300 3275 
Q 359 3922 746 4261 
Q 1134 4600 1788 4600 
Q 2447 4600 2831 4234 
Q 3216 3869 3216 3328 
Q 3216 3053 3103 2787 
Q 2991 2522 2730 2228 
Q 2469 1934 1863 1422 
Q 1356 997 1212 845 
Q 1069 694 975 541 
L 3222 541 
z
" transform="scale(0.015625)"/>
       </defs>
       <use xlink:href="#ArialMT-32"/>
       <use xlink:href="#ArialMT-30" x="55.615234"/>
       <use xlink:href="#ArialMT-30" x="111.230469"/>
      </g>
     </g>
    </g>
    <g id="xtick_4">
     <g id="text_4">
      <!-- 300 -->
      <g style="fill: #262626" transform="translate(1025.974164 533.950391) scale(0.165 -0.165)">
       <defs>
        <path id="ArialMT-33" d="M 269 1209 
L 831 1284 
Q 928 806 1161 595 
Q 1394 384 1728 384 
Q 2125 384 2398 659 
Q 2672 934 2672 1341 
Q 2672 1728 2419 1979 
Q 2166 2231 1775 2231 
Q 1616 2231 1378 2169 
L 1441 2663 
Q 1497 2656 1531 2656 
Q 1891 2656 2178 2843 
Q 2466 3031 2466 3422 
Q 2466 3731 2256 3934 
Q 2047 4138 1716 4138 
Q 1388 4138 1169 3931 
Q 950 3725 888 3313 
L 325 3413 
Q 428 3978 793 4289 
Q 1159 4600 1703 4600 
Q 2078 4600 2393 4439 
Q 2709 4278 2876 4000 
Q 3044 3722 3044 3409 
Q 3044 3113 2884 2869 
Q 2725 2625 2413 2481 
Q 2819 2388 3044 2092 
Q 3269 1797 3269 1353 
Q 3269 753 2831 336 
Q 2394 -81 1725 -81 
Q 1122 -81 723 278 
Q 325 638 269 1209 
z
" transform="scale(0.015625)"/>
       </defs>
       <use xlink:href="#ArialMT-33"/>
       <use xlink:href="#ArialMT-30" x="55.615234"/>
       <use xlink:href="#ArialMT-30" x="111.230469"/>
      </g>
     </g>
    </g>
    <g id="xtick_5">
     <g id="text_5">
      <!-- 400 -->
      <g style="fill: #262626" transform="translate(1278.097786 533.950391) scale(0.165 -0.165)">
       <defs>
        <path id="ArialMT-34" d="M 2069 0 
L 2069 1097 
L 81 1097 
L 81 1613 
L 2172 4581 
L 2631 4581 
L 2631 1613 
L 3250 1613 
L 3250 1097 
L 2631 1097 
L 2631 0 
L 2069 0 
z
M 2069 1613 
L 2069 3678 
L 634 1613 
L 2069 1613 
z
" transform="scale(0.015625)"/>
       </defs>
       <use xlink:href="#ArialMT-34"/>
       <use xlink:href="#ArialMT-30" x="55.615234"/>
       <use xlink:href="#ArialMT-30" x="111.230469"/>
      </g>
     </g>
    </g>
    <g id="xtick_6">
     <g id="text_6">
      <!-- 500 -->
      <g style="fill: #262626" transform="translate(1530.221408 533.950391) scale(0.165 -0.165)">
       <defs>
        <path id="ArialMT-35" d="M 266 1200 
L 856 1250 
Q 922 819 1161 601 
Q 1400 384 1738 384 
Q 2144 384 2425 690 
Q 2706 997 2706 1503 
Q 2706 1984 2436 2262 
Q 2166 2541 1728 2541 
Q 1456 2541 1237 2417 
Q 1019 2294 894 2097 
L 366 2166 
L 809 4519 
L 3088 4519 
L 3088 3981 
L 1259 3981 
L 1013 2750 
Q 1425 3038 1878 3038 
Q 2478 3038 2890 2622 
Q 3303 2206 3303 1553 
Q 3303 931 2941 478 
Q 2500 -78 1738 -78 
Q 1113 -78 717 272 
Q 322 622 266 1200 
z
" transform="scale(0.015625)"/>
       </defs>
       <use xlink:href="#ArialMT-35"/>
       <use xlink:href="#ArialMT-30" x="55.615234"/>
       <use xlink:href="#ArialMT-30" x="111.230469"/>
      </g>
     </g>
    </g>
    <g id="text_7">
     <!-- Trial -->
     <g style="fill: #262626" transform="translate(905.339531 554.113828) scale(0.18 -0.18)">
      <defs>
       <path id="ArialMT-54" d="M 1659 0 
L 1659 4041 
L 150 4041 
L 150 4581 
L 3781 4581 
L 3781 4041 
L 2266 4041 
L 2266 0 
L 1659 0 
z
" transform="scale(0.015625)"/>
       <path id="ArialMT-72" d="M 416 0 
L 416 3319 
L 922 3319 
L 922 2816 
Q 1116 3169 1280 3281 
Q 1444 3394 1641 3394 
Q 1925 3394 2219 3213 
L 2025 2691 
Q 1819 2813 1613 2813 
Q 1428 2813 1281 2702 
Q 1134 2591 1072 2394 
Q 978 2094 978 1738 
L 978 0 
L 416 0 
z
" transform="scale(0.015625)"/>
       <path id="ArialMT-69" d="M 425 3934 
L 425 4581 
L 988 4581 
L 988 3934 
L 425 3934 
z
M 425 0 
L 425 3319 
L 988 3319 
L 988 0 
L 425 0 
z
" transform="scale(0.015625)"/>
       <path id="ArialMT-61" d="M 2588 409 
Q 2275 144 1986 34 
Q 1697 -75 1366 -75 
Q 819 -75 525 192 
Q 231 459 231 875 
Q 231 1119 342 1320 
Q 453 1522 633 1644 
Q 813 1766 1038 1828 
Q 1203 1872 1538 1913 
Q 2219 1994 2541 2106 
Q 2544 2222 2544 2253 
Q 2544 2597 2384 2738 
Q 2169 2928 1744 2928 
Q 1347 2928 1158 2789 
Q 969 2650 878 2297 
L 328 2372 
Q 403 2725 575 2942 
Q 747 3159 1072 3276 
Q 1397 3394 1825 3394 
Q 2250 3394 2515 3294 
Q 2781 3194 2906 3042 
Q 3031 2891 3081 2659 
Q 3109 2516 3109 2141 
L 3109 1391 
Q 3109 606 3145 398 
Q 3181 191 3288 0 
L 2700 0 
Q 2613 175 2588 409 
z
M 2541 1666 
Q 2234 1541 1622 1453 
Q 1275 1403 1131 1340 
Q 988 1278 909 1158 
Q 831 1038 831 891 
Q 831 666 1001 516 
Q 1172 366 1500 366 
Q 1825 366 2078 508 
Q 2331 650 2450 897 
Q 2541 1088 2541 1459 
L 2541 1666 
z
" transform="scale(0.015625)"/>
       <path id="ArialMT-6c" d="M 409 0 
L 409 4581 
L 972 4581 
L 972 0 
L 409 0 
z
" transform="scale(0.015625)"/>
      </defs>
      <use xlink:href="#ArialMT-54"/>
      <use xlink:href="#ArialMT-72" x="57.333984"/>
      <use xlink:href="#ArialMT-69" x="90.634766"/>
      <use xlink:href="#ArialMT-61" x="112.851562"/>
      <use xlink:href="#ArialMT-6c" x="168.466797"/>
     </g>
    </g>
   </g>
   <g id="matplotlib.axis_2">
    <g id="ytick_1">
     <g id="text_8">
      <!-- 20 -->
      <g style="fill: #262626" transform="translate(197.148906 462.285464) scale(0.165 -0.165)">
       <use xlink:href="#ArialMT-32"/>
       <use xlink:href="#ArialMT-30" x="55.615234"/>
      </g>
     </g>
    </g>
    <g id="ytick_2">
     <g id="text_9">
      <!-- 40 -->
      <g style="fill: #262626" transform="translate(197.148906 393.674363) scale(0.165 -0.165)">
       <use xlink:href="#ArialMT-34"/>
       <use xlink:href="#ArialMT-30" x="55.615234"/>
      </g>
     </g>
    </g>
    <g id="ytick_3">
     <g id="text_10">
      <!-- 60 -->
      <g style="fill: #262626" transform="translate(197.148906 325.063261) scale(0.165 -0.165)">
       <defs>
        <path id="ArialMT-36" d="M 3184 3459 
L 2625 3416 
Q 2550 3747 2413 3897 
Q 2184 4138 1850 4138 
Q 1581 4138 1378 3988 
Q 1113 3794 959 3422 
Q 806 3050 800 2363 
Q 1003 2672 1297 2822 
Q 1591 2972 1913 2972 
Q 2475 2972 2870 2558 
Q 3266 2144 3266 1488 
Q 3266 1056 3080 686 
Q 2894 316 2569 119 
Q 2244 -78 1831 -78 
Q 1128 -78 684 439 
Q 241 956 241 2144 
Q 241 3472 731 4075 
Q 1159 4600 1884 4600 
Q 2425 4600 2770 4297 
Q 3116 3994 3184 3459 
z
M 888 1484 
Q 888 1194 1011 928 
Q 1134 663 1356 523 
Q 1578 384 1822 384 
Q 2178 384 2434 671 
Q 2691 959 2691 1453 
Q 2691 1928 2437 2201 
Q 2184 2475 1800 2475 
Q 1419 2475 1153 2201 
Q 888 1928 888 1484 
z
" transform="scale(0.015625)"/>
       </defs>
       <use xlink:href="#ArialMT-36"/>
       <use xlink:href="#ArialMT-30" x="55.615234"/>
      </g>
     </g>
    </g>
    <g id="ytick_4">
     <g id="text_11">
      <!-- 80 -->
      <g style="fill: #262626" transform="translate(197.148906 256.452159) scale(0.165 -0.165)">
       <defs>
        <path id="ArialMT-38" d="M 1131 2484 
Q 781 2613 612 2850 
Q 444 3088 444 3419 
Q 444 3919 803 4259 
Q 1163 4600 1759 4600 
Q 2359 4600 2725 4251 
Q 3091 3903 3091 3403 
Q 3091 3084 2923 2848 
Q 2756 2613 2416 2484 
Q 2838 2347 3058 2040 
Q 3278 1734 3278 1309 
Q 3278 722 2862 322 
Q 2447 -78 1769 -78 
Q 1091 -78 675 323 
Q 259 725 259 1325 
Q 259 1772 486 2073 
Q 713 2375 1131 2484 
z
M 1019 3438 
Q 1019 3113 1228 2906 
Q 1438 2700 1772 2700 
Q 2097 2700 2305 2904 
Q 2513 3109 2513 3406 
Q 2513 3716 2298 3927 
Q 2084 4138 1766 4138 
Q 1444 4138 1231 3931 
Q 1019 3725 1019 3438 
z
M 838 1322 
Q 838 1081 952 856 
Q 1066 631 1291 507 
Q 1516 384 1775 384 
Q 2178 384 2440 643 
Q 2703 903 2703 1303 
Q 2703 1709 2433 1975 
Q 2163 2241 1756 2241 
Q 1359 2241 1098 1978 
Q 838 1716 838 1322 
z
" transform="scale(0.015625)"/>
       </defs>
       <use xlink:href="#ArialMT-38"/>
       <use xlink:href="#ArialMT-30" x="55.615234"/>
      </g>
     </g>
    </g>
    <g id="ytick_5">
     <g id="text_12">
      <!-- 100 -->
      <g style="fill: #262626" transform="translate(187.973359 187.841058) scale(0.165 -0.165)">
       <use xlink:href="#ArialMT-31"/>
       <use xlink:href="#ArialMT-30" x="55.615234"/>
       <use xlink:href="#ArialMT-30" x="111.230469"/>
      </g>
     </g>
    </g>
    <g id="ytick_6">
     <g id="text_13">
      <!-- 120 -->
      <g style="fill: #262626" transform="translate(187.973359 119.229956) scale(0.165 -0.165)">
       <use xlink:href="#ArialMT-31"/>
       <use xlink:href="#ArialMT-32" x="55.615234"/>
       <use xlink:href="#ArialMT-30" x="111.230469"/>
      </g>
     </g>
    </g>
    <g id="text_14">
     <!-- Time (s) -->
     <g style="fill: #262626" transform="translate(180.184922 323.534531) rotate(-90) scale(0.18 -0.18)">
      <defs>
       <path id="ArialMT-6d" d="M 422 0 
L 422 3319 
L 925 3319 
L 925 2853 
Q 1081 3097 1340 3245 
Q 1600 3394 1931 3394 
Q 2300 3394 2536 3241 
Q 2772 3088 2869 2813 
Q 3263 3394 3894 3394 
Q 4388 3394 4653 3120 
Q 4919 2847 4919 2278 
L 4919 0 
L 4359 0 
L 4359 2091 
Q 4359 2428 4304 2576 
Q 4250 2725 4106 2815 
Q 3963 2906 3769 2906 
Q 3419 2906 3187 2673 
Q 2956 2441 2956 1928 
L 2956 0 
L 2394 0 
L 2394 2156 
Q 2394 2531 2256 2718 
Q 2119 2906 1806 2906 
Q 1569 2906 1367 2781 
Q 1166 2656 1075 2415 
Q 984 2175 984 1722 
L 984 0 
L 422 0 
z
" transform="scale(0.015625)"/>
       <path id="ArialMT-65" d="M 2694 1069 
L 3275 997 
Q 3138 488 2766 206 
Q 2394 -75 1816 -75 
Q 1088 -75 661 373 
Q 234 822 234 1631 
Q 234 2469 665 2931 
Q 1097 3394 1784 3394 
Q 2450 3394 2872 2941 
Q 3294 2488 3294 1666 
Q 3294 1616 3291 1516 
L 816 1516 
Q 847 969 1125 678 
Q 1403 388 1819 388 
Q 2128 388 2347 550 
Q 2566 713 2694 1069 
z
M 847 1978 
L 2700 1978 
Q 2663 2397 2488 2606 
Q 2219 2931 1791 2931 
Q 1403 2931 1139 2672 
Q 875 2413 847 1978 
z
" transform="scale(0.015625)"/>
       <path id="ArialMT-20" transform="scale(0.015625)"/>
       <path id="ArialMT-28" d="M 1497 -1347 
Q 1031 -759 709 28 
Q 388 816 388 1659 
Q 388 2403 628 3084 
Q 909 3875 1497 4659 
L 1900 4659 
Q 1522 4009 1400 3731 
Q 1209 3300 1100 2831 
Q 966 2247 966 1656 
Q 966 153 1900 -1347 
L 1497 -1347 
z
" transform="scale(0.015625)"/>
       <path id="ArialMT-73" d="M 197 991 
L 753 1078 
Q 800 744 1014 566 
Q 1228 388 1613 388 
Q 2000 388 2187 545 
Q 2375 703 2375 916 
Q 2375 1106 2209 1216 
Q 2094 1291 1634 1406 
Q 1016 1563 777 1677 
Q 538 1791 414 1992 
Q 291 2194 291 2438 
Q 291 2659 392 2848 
Q 494 3038 669 3163 
Q 800 3259 1026 3326 
Q 1253 3394 1513 3394 
Q 1903 3394 2198 3281 
Q 2494 3169 2634 2976 
Q 2775 2784 2828 2463 
L 2278 2388 
Q 2241 2644 2061 2787 
Q 1881 2931 1553 2931 
Q 1166 2931 1000 2803 
Q 834 2675 834 2503 
Q 834 2394 903 2306 
Q 972 2216 1119 2156 
Q 1203 2125 1616 2013 
Q 2213 1853 2448 1751 
Q 2684 1650 2818 1456 
Q 2953 1263 2953 975 
Q 2953 694 2789 445 
Q 2625 197 2315 61 
Q 2006 -75 1616 -75 
Q 969 -75 630 194 
Q 291 463 197 991 
z
" transform="scale(0.015625)"/>
       <path id="ArialMT-29" d="M 791 -1347 
L 388 -1347 
Q 1322 153 1322 1656 
Q 1322 2244 1188 2822 
Q 1081 3291 891 3722 
Q 769 4003 388 4659 
L 791 4659 
Q 1378 3875 1659 3084 
Q 1900 2403 1900 1659 
Q 1900 816 1576 28 
Q 1253 -759 791 -1347 
z
" transform="scale(0.015625)"/>
      </defs>
      <use xlink:href="#ArialMT-54"/>
      <use xlink:href="#ArialMT-69" x="57.333984"/>
      <use xlink:href="#ArialMT-6d" x="79.550781"/>
      <use xlink:href="#ArialMT-65" x="162.851562"/>
      <use xlink:href="#ArialMT-20" x="218.466797"/>
      <use xlink:href="#ArialMT-28" x="246.25"/>
      <use xlink:href="#ArialMT-73" x="279.550781"/>
      <use xlink:href="#ArialMT-29" x="329.550781"/>
     </g>
    </g>
   </g>
   <g id="line2d_1">
    <path d="M 288.409091 274.481947 
L 290.930327 405.789873 
L 293.451563 337.978091 
L 295.9728 344.430965 
L 298.494036 353.29895 
L 301.015272 297.847457 
L 303.536508 426.65794 
L 306.057744 337.556132 
L 308.578981 405.577179 
L 311.100217 387.717709 
L 313.621453 333.912883 
L 316.142689 414.777927 
L 318.663926 439.584271 
L 321.185162 388.149959 
L 323.706398 384.530723 
L 326.227634 439.261799 
L 328.74887 394.239194 
L 331.270107 386.204834 
L 333.791343 404.544582 
L 336.312579 393.011055 
L 338.833815 451.110936 
L 404.385957 407.031734 
L 406.907193 439.114285 
L 409.428429 407.120928 
L 411.949666 393.607972 
L 414.470902 425.947815 
L 416.992138 425.73512 
L 419.513374 435.179438 
L 422.034611 360.883907 
L 424.555847 432.335508 
L 427.077083 414.520636 
L 429.598319 394.328389 
L 432.119555 425.000982 
L 434.640792 394.225472 
L 437.162028 420.277107 
L 439.683264 427.875787 
L 442.2045 450.483145 
L 444.725736 400.846443 
L 447.246973 425.553301 
L 449.768209 428.428106 
L 452.289445 363.923379 
L 454.810681 427.09362 
L 462.37439 433.388689 
L 464.895626 407.673248 
L 467.416862 415.693886 
L 469.938099 416.733344 
L 472.459335 447.917089 
L 474.980571 452.194992 
L 477.501807 440.109146 
L 480.023044 443.16234 
L 482.54428 413.035205 
L 485.065516 436.867272 
L 487.586752 455.89313 
L 490.107988 432.356092 
L 492.629225 416.877427 
L 497.671697 454.455727 
L 500.192933 218.690829 
L 502.71417 464.133323 
L 505.235406 445.416215 
L 507.756642 407.364498 
L 510.277878 411.477733 
L 512.799114 292.036097 
L 520.362823 417.652733 
L 522.884059 425.934093 
L 525.405295 436.455605 
L 527.926532 416.609844 
L 530.447768 407.779595 
L 532.969004 438.654591 
L 535.49024 351.230325 
L 538.011477 428.716273 
L 540.532713 400.057416 
L 543.053949 439.251507 
L 545.575185 408.602928 
L 548.096421 442.887896 
L 550.617658 430.208564 
L 553.138894 375.014363 
L 555.66013 455.0252 
L 558.181366 256.008408 
L 560.702603 451.107506 
L 563.223839 377.501516 
L 565.745075 361.789574 
L 568.266311 431.625383 
L 570.787547 443.001104 
L 578.351256 388.784612 
L 580.872492 428.88437 
L 583.393729 393.662861 
L 585.914965 408.949414 
L 588.436201 413.206733 
L 590.957437 426.222259 
L 593.478673 379.522113 
L 595.99991 403.758984 
L 598.521146 414.458886 
L 601.042382 397.017944 
L 603.563618 425.289148 
L 606.084855 384.712543 
L 608.606091 411.217011 
L 611.127327 439.807257 
L 613.648563 412.081511 
L 616.169799 313.840705 
L 618.691036 417.494927 
L 621.212272 416.500066 
L 623.733508 379.439779 
L 626.254744 409.927122 
L 628.77598 420.966649 
L 636.339689 401.649193 
L 638.860925 391.937292 
L 641.382162 429.025023 
L 643.903398 414.537789 
L 646.424634 260.852351 
L 648.94587 413.92715 
L 651.467106 446.572312 
L 653.988343 410.290761 
L 656.509579 372.067517 
L 659.030815 422.033551 
L 661.552051 421.570426 
L 664.073288 381.782849 
L 666.594524 421.639038 
L 669.11576 386.73657 
L 671.636996 387.690264 
L 674.158232 306.859526 
L 676.679469 404.204957 
L 679.200705 399.021388 
L 681.721941 434.314939 
L 684.243177 357.521963 
L 686.764414 417.765941 
L 694.328122 409.127803 
L 696.849358 413.958025 
L 699.370595 427.755717 
L 701.891831 332.454897 
L 704.413067 418.486357 
L 706.934303 369.98517 
L 709.455539 390.633681 
L 711.976776 414.939163 
L 714.498012 383.872057 
L 717.019248 405.326748 
L 719.540484 423.131329 
L 722.061721 415.59783 
L 724.582957 422.853454 
L 727.104193 414.678441 
L 729.625429 392.585667 
L 732.146665 444.843312 
L 734.667902 417.131288 
L 737.189138 429.790036 
L 739.710374 410.301053 
L 742.23161 434.822661 
L 744.752847 434.929008 
L 752.316555 400.698929 
L 754.837791 423.94094 
L 757.359028 370.925142 
L 759.880264 375.350558 
L 762.4015 380.952654 
L 764.922736 424.318301 
L 767.443973 412.160414 
L 769.965209 380.712515 
L 772.486445 370.142975 
L 775.007681 407.409095 
L 777.528917 448.445395 
L 780.050154 365.78274 
L 782.57139 399.518818 
L 785.092626 366.269879 
L 787.613862 418.819121 
L 790.135098 362.50999 
L 792.656335 425.045579 
L 795.177571 275.648335 
L 797.698807 365.868504 
L 800.220043 386.894376 
L 802.74128 434.1983 
L 810.304988 441.176049 
L 812.826224 450.959992 
L 815.347461 400.547985 
L 817.868697 432.03705 
L 820.389933 288.945167 
L 822.911169 426.496704 
L 825.432406 451.786756 
L 827.953642 451.210422 
L 830.474878 426.242842 
L 832.996114 433.851814 
L 835.51735 373.336822 
L 838.038587 398.211777 
L 840.559823 363.775865 
L 843.081059 437.302952 
L 845.602295 422.647621 
L 848.123532 351.751769 
L 850.644768 427.618495 
L 853.166004 348.352089 
L 855.68724 446.905076 
L 858.208476 333.789383 
L 860.729713 368.980017 
L 868.293421 406.661234 
L 870.814658 386.112209 
L 873.335894 337.305702 
L 875.85713 309.267775 
L 878.378366 417.381719 
L 880.899602 439.443618 
L 883.420839 441.066271 
L 885.942075 306.043053 
L 888.463311 423.687079 
L 890.984547 386.472417 
L 893.505783 429.299467 
L 896.02702 399.666332 
L 898.548256 410.22215 
L 901.069492 421.862024 
L 903.590728 444.242965 
L 906.111965 436.356119 
L 908.633201 419.98551 
L 911.154437 414.160427 
L 913.675673 432.928994 
L 916.196909 421.765968 
L 918.718146 430.496731 
L 926.281854 378.877168 
L 928.803091 378.571849 
L 931.324327 404.04029 
L 933.845563 408.990581 
L 936.366799 435.12798 
L 938.888035 430.376661 
L 941.409272 434.736897 
L 943.930508 374.160155 
L 946.451744 448.795312 
L 948.97298 448.068034 
L 951.494217 359.120602 
L 954.015453 395.549666 
L 956.536689 419.371441 
L 959.057925 377.021238 
L 961.579161 406.218692 
L 964.100398 407.206692 
L 966.621634 422.58244 
L 969.14287 411.776192 
L 971.664106 385.954404 
L 974.185342 401.584013 
L 976.706579 388.870375 
L 984.270287 380.815432 
L 986.791524 338.307424 
L 989.31276 321.267857 
L 991.833996 399.470791 
L 994.355232 355.360713 
L 996.876468 413.892844 
L 999.397705 440.56541 
L 1001.918941 384.897793 
L 1004.440177 352.568242 
L 1006.961413 403.481109 
L 1009.48265 368.7536 
L 1012.003886 420.530968 
L 1014.525122 375.014363 
L 1017.046358 439.656313 
L 1019.567594 440.606577 
L 1022.088831 348.156548 
L 1024.610067 165.030087 
L 1027.131303 416.58926 
L 1029.652539 420.304552 
L 1032.173776 431.556772 
L 1034.695012 387.038459 
L 1042.25872 426.681954 
L 1044.779957 438.102271 
L 1047.301193 447.272145 
L 1049.822429 396.661166 
L 1052.343665 429.292606 
L 1054.864902 399.824138 
L 1057.386138 413.93058 
L 1059.907374 337.933494 
L 1062.42861 398.606291 
L 1064.949846 226.364981 
L 1067.471083 409.5429 
L 1069.992319 298.200805 
L 1072.513555 435.272063 
L 1075.034791 429.412675 
L 1077.556027 460.915463 
L 1080.077264 277.370474 
L 1082.5985 339.837452 
L 1085.119736 318.935079 
L 1087.640972 453.598089 
L 1090.162209 409.086636 
L 1092.683445 447.155506 
L 1100.247153 374.383141 
L 1102.76839 258.708254 
L 1105.289626 326.996884 
L 1107.810862 410.126095 
L 1110.332098 391.011042 
L 1112.853335 339.041563 
L 1115.374571 389.134528 
L 1117.895807 420.661329 
L 1120.417043 420.980371 
L 1122.938279 387.752014 
L 1125.459516 426.681954 
L 1127.980752 393.436444 
L 1130.501988 392.915 
L 1133.023224 416.232483 
L 1135.544461 419.86201 
L 1138.065697 425.889495 
L 1140.586933 341.490979 
L 1143.108169 418.757371 
L 1145.629405 393.872125 
L 1148.150642 414.517205 
L 1150.671878 407.604637 
L 1158.235586 429.251439 
L 1160.756823 393.120833 
L 1163.278059 419.570413 
L 1165.799295 347.319492 
L 1168.320531 357.981657 
L 1170.841768 434.064508 
L 1173.363004 379.305988 
L 1175.88424 423.625329 
L 1178.405476 418.651024 
L 1180.926712 434.290925 
L 1183.447949 370.362531 
L 1185.969185 353.525366 
L 1188.490421 346.242298 
L 1191.011657 443.920493 
L 1193.532894 239.479993 
L 1196.05413 437.357841 
L 1198.575366 364.770726 
L 1201.096602 374.93203 
L 1203.617838 438.733494 
L 1206.139075 370.84967 
L 1208.660311 445.625479 
L 1216.22402 443.169201 
L 1218.745256 425.17594 
L 1221.266492 420.345718 
L 1223.787728 450.109214 
L 1226.308964 415.549802 
L 1228.830201 449.141798 
L 1231.351437 436.280647 
L 1233.872673 441.700924 
L 1236.393909 445.299576 
L 1238.915145 453.244742 
L 1241.436382 422.479524 
L 1243.957618 453.858811 
L 1246.478854 429.371509 
L 1249.00009 459.670171 
L 1251.521327 446.037145 
L 1254.042563 430.273745 
L 1256.563799 453.025186 
L 1259.085035 422.867176 
L 1261.606271 448.863923 
L 1264.127508 453.97888 
L 1266.648744 418.973496 
L 1274.212453 277.926224 
L 1276.733689 271.7821 
L 1279.254925 329.847675 
L 1281.776161 338.547563 
L 1284.297397 332.187314 
L 1286.818634 363.861629 
L 1289.33987 355.439616 
L 1291.861106 390.273472 
L 1294.382342 383.004126 
L 1296.903579 349.418992 
L 1299.424815 365.60092 
L 1301.946051 324.691551 
L 1304.467287 386.187681 
L 1306.988523 351.947311 
L 1309.50976 269.137142 
L 1312.030996 350.849533 
L 1314.552232 369.010892 
L 1317.073468 358.702074 
L 1319.594705 342.365771 
L 1322.115941 360.53056 
L 1324.637177 396.726347 
L 1332.200886 314.588566 
L 1334.722122 389.398681 
L 1337.243358 347.504742 
L 1339.764594 362.115476 
L 1342.28583 333.52523 
L 1344.807067 401.50854 
L 1347.328303 379.192779 
L 1349.849539 398.225499 
L 1352.370775 439.234355 
L 1354.892012 322.122065 
L 1357.413248 331.068953 
L 1359.934484 342.787729 
L 1362.45572 359.501393 
L 1364.976956 183.603112 
L 1367.498193 396.887583 
L 1370.019429 341.178799 
L 1372.540665 334.749938 
L 1375.061901 324.104926 
L 1377.583138 341.192521 
L 1380.104374 302.091054 
L 1382.62561 392.657708 
L 1390.189319 410.987164 
L 1392.710555 450.397381 
L 1395.231791 399.604582 
L 1397.753027 453.591228 
L 1400.274264 443.680354 
L 1402.7955 372.455169 
L 1405.316736 438.335549 
L 1407.837972 356.437908 
L 1410.359208 441.536257 
L 1412.880445 416.122705 
L 1415.401681 312.969344 
L 1417.922917 362.63349 
L 1420.444153 333.219911 
L 1422.965389 420.60644 
L 1425.486626 250.972353 
L 1428.007862 316.358733 
L 1430.529098 448.424812 
L 1433.050334 290.334542 
L 1435.571571 399.227221 
L 1438.092807 431.124522 
L 1440.614043 310.341539 
L 1448.177752 428.829481 
L 1450.698988 395.999069 
L 1453.220224 445.001118 
L 1455.74146 426.623634 
L 1458.262697 433.848383 
L 1460.783933 457.512352 
L 1463.305169 452.850228 
L 1465.826405 439.423035 
L 1468.347641 427.086759 
L 1470.868878 435.766063 
L 1473.390114 421.642468 
L 1475.91135 416.376566 
L 1478.432586 448.702687 
L 1480.953823 436.555091 
L 1483.475059 431.495022 
L 1485.996295 415.611552 
L 1488.517531 431.611661 
L 1491.038767 446.538006 
L 1493.560004 436.023355 
L 1496.08124 421.165621 
L 1498.602476 434.956452 
L 1506.166185 492.48 
L 1508.687421 465.207087 
L 1511.208657 306.286623 
L 1513.729893 483.121446 
L 1516.25113 408.956275 
L 1518.772366 445.296145 
L 1521.293602 403.439943 
L 1523.814838 473.440419 
L 1526.336074 399.515388 
L 1528.857311 382.619904 
L 1531.378547 448.435103 
L 1533.899783 445.32359 
L 1536.421019 428.695689 
L 1538.942256 368.980017 
L 1541.463492 379.206502 
L 1543.984728 412.465733 
L 1546.505964 405.999137 
L 1549.0272 424.860329 
L 1551.548437 337.247383 
L 1554.069673 405.487984 
L 1556.590909 434.253189 
L 1556.590909 434.253189 
" clip-path="url(#p6c37caa588)" style="fill: none; stroke: #ea5b0c; stroke-width: 1.5; stroke-linecap: round"/>
   </g>
   <g id="line2d_2">
    <path d="M 288.409091 423.961523 
L 290.930327 443.217229 
L 293.451563 443.851882 
L 295.9728 434.191439 
L 298.494036 389.457 
L 301.015272 424.80544 
L 303.536508 370.314503 
L 306.057744 413.536066 
L 308.578981 429.838064 
L 311.100217 430.846647 
L 313.621453 449.080048 
L 316.142689 371.367683 
L 318.663926 418.983788 
L 321.185162 419.573843 
L 323.706398 443.539701 
L 326.227634 408.479428 
L 328.74887 415.127844 
L 331.270107 443.309854 
L 333.791343 337.003813 
L 336.312579 455.1487 
L 338.833815 373.422586 
L 404.385957 433.155411 
L 406.907193 456.905144 
L 409.428429 385.93382 
L 411.949666 285.476876 
L 414.470902 227.939606 
L 416.992138 411.508608 
L 419.513374 382.088168 
L 422.034611 421.357732 
L 424.555847 413.518914 
L 427.077083 443.179493 
L 429.598319 365.244143 
L 432.119555 358.393324 
L 434.640792 394.630277 
L 437.162028 447.937673 
L 439.683264 400.438207 
L 442.2045 403.957957 
L 444.725736 452.068061 
L 447.246973 341.302299 
L 449.768209 436.966758 
L 452.289445 440.057688 
L 454.810681 446.839895 
L 462.37439 443.851882 
L 464.895626 432.2223 
L 467.416862 454.857102 
L 469.938099 435.759202 
L 472.459335 451.635811 
L 474.980571 367.182406 
L 477.501807 428.201689 
L 480.023044 361.288713 
L 482.54428 409.028317 
L 487.586752 370.352239 
L 490.107988 373.343683 
L 492.629225 434.585952 
L 495.150461 449.443686 
L 497.671697 444.174354 
L 500.192933 451.6907 
L 502.71417 398.72293 
L 505.235406 396.733208 
L 507.756642 444.908493 
L 510.277878 436.308091 
L 512.799114 407.728137 
L 520.362823 398.383305 
L 522.884059 433.347522 
L 525.405295 439.189757 
L 527.926532 420.119302 
L 530.447768 435.37498 
L 532.969004 387.78632 
L 535.49024 433.968453 
L 538.011477 368.170406 
L 540.532713 407.988859 
L 543.053949 412.966594 
L 545.575185 432.699147 
L 548.096421 392.85325 
L 550.617658 416.630427 
L 553.138894 428.493287 
L 555.66013 414.479469 
L 558.181366 438.15716 
L 560.702603 441.330424 
L 563.223839 408.915109 
L 565.745075 421.436635 
L 568.266311 439.004507 
L 570.787547 419.968357 
L 578.351256 391.378111 
L 580.872492 288.303653 
L 583.393729 386.825765 
L 585.914965 383.810307 
L 588.436201 395.951041 
L 590.957437 420.311413 
L 593.478673 410.657831 
L 595.99991 403.100318 
L 598.521146 403.851609 
L 601.042382 433.896411 
L 603.563618 381.275126 
L 606.084855 367.216712 
L 608.606091 389.587361 
L 611.127327 389.26832 
L 613.648563 357.594005 
L 616.169799 400.853304 
L 618.691036 404.942526 
L 621.212272 349.309214 
L 623.733508 380.410627 
L 626.254744 429.865509 
L 628.77598 301.171665 
L 636.339689 389.161973 
L 638.860925 183.500195 
L 641.382162 387.172251 
L 643.903398 375.892586 
L 646.424634 329.614397 
L 648.94587 396.619999 
L 651.467106 285.706723 
L 653.988343 273.435627 
L 656.509579 375.106988 
L 659.030815 413.210164 
L 661.552051 350.382978 
L 664.073288 403.395346 
L 666.594524 421.992385 
L 669.11576 308.574803 
L 671.636996 448.462548 
L 674.158232 377.906321 
L 676.679469 316.760108 
L 679.200705 272.499086 
L 681.721941 284.982876 
L 684.243177 406.369637 
L 686.764414 416.016358 
L 694.328122 404.462248 
L 696.849358 408.026595 
L 699.370595 385.456973 
L 701.891831 417.810538 
L 704.413067 411.992317 
L 706.934303 448.905089 
L 709.455539 452.476297 
L 711.976776 427.025009 
L 714.498012 450.476284 
L 717.019248 442.534549 
L 719.540484 440.297827 
L 722.061721 424.167357 
L 724.582957 441.025104 
L 727.104193 434.802077 
L 729.625429 424.699093 
L 732.146665 448.953117 
L 734.667902 368.904545 
L 737.189138 375.155016 
L 739.710374 401.704082 
L 742.23161 425.494981 
L 744.752847 423.546426 
L 752.316555 416.198177 
L 754.837791 370.17385 
L 757.359028 422.530982 
L 759.880264 429.031884 
L 762.4015 443.03541 
L 764.922736 408.256442 
L 767.443973 412.174136 
L 769.965209 387.456987 
L 772.486445 420.383454 
L 775.007681 384.029862 
L 777.528917 434.294355 
L 780.050154 370.921711 
L 782.57139 440.061118 
L 785.092626 459.814255 
L 787.613862 408.359359 
L 790.135098 428.088481 
L 792.656335 392.832667 
L 795.177571 431.488161 
L 797.698807 410.983733 
L 800.220043 436.802091 
L 802.74128 348.554492 
L 810.304988 289.301945 
L 812.826224 323.020871 
L 815.347461 271.257225 
L 817.868697 305.384387 
L 820.389933 272.746086 
L 822.911169 337.991813 
L 825.432406 226.23462 
L 827.953642 374.705613 
L 830.474878 216.797163 
L 832.996114 353.250922 
L 835.51735 336.547549 
L 838.038587 303.840637 
L 840.559823 344.674534 
L 843.081059 394.83268 
L 845.602295 384.407223 
L 848.123532 415.179302 
L 850.644768 360.105171 
L 853.166004 399.110582 
L 855.68724 374.726197 
L 858.208476 172.385197 
L 860.729713 400.373027 
L 868.293421 353.346978 
L 870.814658 424.839745 
L 873.335894 444.349312 
L 875.85713 410.572067 
L 878.378366 427.625356 
L 880.899602 386.79832 
L 883.420839 447.98227 
L 885.942075 373.158433 
L 888.463311 438.599702 
L 890.984547 299.583318 
L 893.505783 415.96833 
L 896.02702 419.217066 
L 898.548256 351.497908 
L 901.069492 377.398599 
L 903.590728 413.265053 
L 906.111965 428.623648 
L 908.633201 424.232537 
L 911.154437 415.364552 
L 913.675673 389.758889 
L 916.196909 376.983502 
L 918.718146 396.99393 
L 926.281854 409.316484 
L 928.803091 430.891245 
L 931.324327 328.650411 
L 933.845563 431.422981 
L 936.366799 359.35731 
L 938.888035 399.789832 
L 941.409272 402.071151 
L 943.930508 396.87386 
L 946.451744 408.753873 
L 948.97298 422.89119 
L 951.494217 448.891367 
L 954.015453 411.638969 
L 956.536689 385.402084 
L 959.057925 417.913455 
L 961.579161 375.199613 
L 964.100398 459.395727 
L 966.621634 427.158801 
L 969.14287 408.55147 
L 971.664106 313.49765 
L 974.185342 354.338408 
L 976.706579 336.818563 
L 984.270287 353.755214 
L 986.791524 444.373326 
L 989.31276 432.808925 
L 991.833996 415.309663 
L 994.355232 382.846321 
L 996.876468 323.223273 
L 999.397705 386.67482 
L 1001.918941 385.199681 
L 1004.440177 346.516742 
L 1006.961413 450.905103 
L 1009.48265 434.212022 
L 1012.003886 380.091585 
L 1014.525122 267.288073 
L 1017.046358 305.432415 
L 1019.567594 448.249853 
L 1022.088831 418.709343 
L 1024.610067 332.640147 
L 1027.131303 301.233415 
L 1029.652539 300.595332 
L 1032.173776 399.443346 
L 1034.695012 358.619741 
L 1042.25872 383.765709 
L 1044.779957 471.996156 
L 1047.301193 428.846634 
L 1049.822429 425.278856 
L 1052.343665 453.032047 
L 1054.864902 323.532023 
L 1057.386138 394.688597 
L 1059.907374 388.805195 
L 1062.42861 364.225268 
L 1064.949846 463.217365 
L 1067.471083 331.532078 
L 1069.992319 421.992385 
L 1072.513555 418.647594 
L 1075.034791 462.160754 
L 1077.556027 364.067462 
L 1080.077264 358.993671 
L 1082.5985 402.877332 
L 1085.119736 467.656503 
L 1087.640972 423.803718 
L 1090.162209 392.211736 
L 1092.683445 437.917021 
L 1100.247153 344.352062 
L 1102.76839 416.03008 
L 1105.289626 392.390125 
L 1107.810862 356.616296 
L 1110.332098 385.738279 
L 1112.853335 397.837846 
L 1115.374571 402.208374 
L 1117.895807 426.325176 
L 1120.417043 366.139517 
L 1122.938279 243.04777 
L 1125.459516 461.687338 
L 1127.980752 428.572189 
L 1130.501988 411.007747 
L 1133.023224 390.064209 
L 1135.544461 431.711147 
L 1138.065697 396.469055 
L 1140.586933 405.422804 
L 1143.108169 427.577328 
L 1145.629405 385.62164 
L 1148.150642 439.893021 
L 1150.671878 432.102231 
L 1158.235586 364.986851 
L 1160.756823 412.561789 
L 1163.278059 422.781412 
L 1165.799295 399.189485 
L 1168.320531 416.393719 
L 1170.841768 361.168643 
L 1173.363004 444.736965 
L 1175.88424 437.508785 
L 1178.405476 409.29247 
L 1180.926712 322.434246 
L 1183.447949 323.408523 
L 1185.969185 330.952314 
L 1188.490421 409.625234 
L 1191.011657 401.494818 
L 1193.532894 382.774279 
L 1196.05413 429.93755 
L 1198.575366 378.057266 
L 1201.096602 310.516497 
L 1203.617838 432.3458 
L 1206.139075 430.908397 
L 1208.660311 429.158814 
L 1216.22402 419.199913 
L 1218.745256 344.804895 
L 1221.266492 397.892735 
L 1223.787728 410.949428 
L 1226.308964 315.892177 
L 1228.830201 416.064386 
L 1231.351437 431.41612 
L 1233.872673 419.319982 
L 1236.393909 395.378138 
L 1238.915145 414.019775 
L 1241.436382 361.113754 
L 1243.957618 441.24466 
L 1246.478854 338.866604 
L 1249.00009 432.428133 
L 1251.521327 416.592691 
L 1254.042563 457.628991 
L 1256.563799 441.714646 
L 1259.085035 443.906771 
L 1261.606271 255.438935 
L 1264.127508 422.376607 
L 1266.648744 431.374953 
L 1274.212453 324.99687 
L 1276.733689 398.702346 
L 1279.254925 402.287276 
L 1281.776161 375.045238 
L 1284.297397 390.424417 
L 1286.818634 367.573489 
L 1289.33987 404.321595 
L 1291.861106 391.24775 
L 1294.382342 422.808857 
L 1296.903579 296.13218 
L 1299.424815 326.341648 
L 1301.946051 418.976927 
L 1304.467287 388.722862 
L 1306.988523 412.095233 
L 1309.50976 335.508091 
L 1312.030996 392.417569 
L 1314.552232 391.68 
L 1317.073468 373.642141 
L 1319.594705 388.129375 
L 1322.115941 379.261391 
L 1324.637177 351.281783 
L 1332.200886 332.132425 
L 1334.722122 388.873806 
L 1337.243358 328.077509 
L 1339.764594 419.114149 
L 1342.28583 276.365321 
L 1344.807067 401.405624 
L 1347.328303 392.740042 
L 1349.849539 380.760543 
L 1352.370775 388.52732 
L 1354.892012 298.187082 
L 1357.413248 343.051882 
L 1359.934484 360.976532 
L 1362.45572 350.307506 
L 1364.976956 329.604106 
L 1367.498193 432.953008 
L 1370.019429 407.529164 
L 1372.540665 307.909275 
L 1375.061901 404.973401 
L 1377.583138 301.171665 
L 1380.104374 367.741587 
L 1382.62561 375.573544 
L 1390.189319 449.893089 
L 1392.710555 413.604678 
L 1395.231791 425.062732 
L 1397.753027 303.909248 
L 1400.274264 437.834688 
L 1402.7955 444.850173 
L 1405.316736 446.647784 
L 1407.837972 351.202881 
L 1410.359208 411.192997 
L 1412.880445 349.127395 
L 1415.401681 243.013465 
L 1417.922917 374.846266 
L 1420.444153 377.227071 
L 1422.965389 368.835934 
L 1425.486626 314.214636 
L 1428.007862 410.355942 
L 1430.529098 328.389689 
L 1433.050334 446.349326 
L 1435.571571 435.165716 
L 1438.092807 329.683009 
L 1440.614043 369.834225 
L 1448.177752 423.481246 
L 1450.698988 442.29784 
L 1453.220224 445.742118 
L 1455.74146 385.405515 
L 1458.262697 367.333351 
L 1460.783933 398.246082 
L 1463.305169 439.381868 
L 1465.826405 451.742158 
L 1468.347641 448.743853 
L 1470.868878 428.867217 
L 1473.390114 360.523699 
L 1475.91135 417.004358 
L 1478.432586 421.385176 
L 1480.953823 452.483158 
L 1483.475059 427.838051 
L 1485.996295 435.56023 
L 1488.517531 450.785034 
L 1491.038767 436.555091 
L 1493.560004 436.846688 
L 1496.08124 435.069661 
L 1498.602476 453.923991 
L 1506.166185 357.31956 
L 1508.687421 451.899964 
L 1511.208657 452.970297 
L 1513.729893 410.043761 
L 1516.25113 438.325257 
L 1518.772366 433.796925 
L 1521.293602 435.4333 
L 1523.814838 429.652814 
L 1526.336074 392.218597 
L 1528.857311 490.383931 
L 1531.378547 389.275181 
L 1533.899783 425.309731 
L 1536.421019 378.798266 
L 1538.942256 402.939082 
L 1541.463492 373.127558 
L 1543.984728 448.548312 
L 1546.505964 396.657735 
L 1549.0272 427.429815 
L 1551.548437 440.805549 
L 1554.069673 455.618686 
L 1556.590909 455.889699 
L 1556.590909 455.889699 
" clip-path="url(#p6c37caa588)" style="fill: none; stroke: #1d71b8; stroke-width: 1.5; stroke-linecap: round"/>
   </g>
   <g id="line2d_3">
    <path d="M 288.409091 368.7536 
L 290.930327 447.851909 
L 293.451563 456.249908 
L 295.9728 408.633803 
L 298.494036 446.68552 
L 301.015272 452.407686 
L 303.536508 451.821061 
L 306.057744 456.603255 
L 308.578981 430.397245 
L 311.100217 445.498548 
L 313.621453 443.128035 
L 316.142689 406.69554 
L 318.663926 464.805712 
L 321.185162 457.347685 
L 323.706398 455.776491 
L 326.227634 448.935964 
L 328.74887 449.622075 
L 331.270107 441.316701 
L 333.791343 353.281797 
L 336.312579 436.956466 
L 338.833815 455.454019 
L 404.385957 423.944371 
L 406.907193 433.989036 
L 409.428429 446.109187 
L 411.949666 449.248145 
L 414.470902 431.206856 
L 416.992138 460.65474 
L 419.513374 460.733643 
L 422.034611 438.877577 
L 424.555847 437.488202 
L 427.077083 457.646144 
L 429.598319 433.656272 
L 432.119555 444.102312 
L 434.640792 420.839718 
L 437.162028 456.339102 
L 439.683264 425.584176 
L 442.2045 426.16394 
L 444.725736 351.515061 
L 447.246973 428.242856 
L 449.768209 448.582617 
L 452.289445 425.316593 
L 454.810681 424.445232 
L 462.37439 371.494614 
L 464.895626 410.692136 
L 467.416862 282.471709 
L 469.938099 431.546481 
L 472.459335 412.904844 
L 474.980571 378.829141 
L 477.501807 366.492865 
L 480.023044 428.959842 
L 482.54428 420.277107 
L 485.065516 437.213758 
L 487.586752 436.023355 
L 490.107988 332.245633 
L 492.629225 386.897806 
L 495.150461 399.062555 
L 497.671697 420.777968 
L 500.192933 357.120588 
L 502.71417 415.549802 
L 505.235406 437.899869 
L 507.756642 430.338925 
L 510.277878 448.270437 
L 512.799114 443.992534 
L 520.362823 403.354179 
L 522.884059 420.699065 
L 525.405295 436.119411 
L 527.926532 440.987368 
L 530.447768 373.398572 
L 532.969004 430.232578 
L 535.49024 421.40919 
L 538.011477 428.037023 
L 540.532713 436.706035 
L 543.053949 421.673343 
L 545.575185 416.52751 
L 548.096421 429.803759 
L 550.617658 391.951014 
L 553.138894 435.37498 
L 555.66013 439.14173 
L 558.181366 426.393787 
L 560.702603 441.224077 
L 563.223839 429.014731 
L 565.745075 427.368065 
L 568.266311 440.078271 
L 570.787547 371.937155 
L 578.351256 342.924951 
L 580.872492 301.87836 
L 583.393729 362.184087 
L 585.914965 333.83398 
L 588.436201 360.489393 
L 590.957437 398.613152 
L 593.478673 358.585435 
L 595.99991 330.918008 
L 598.521146 384.115626 
L 601.042382 430.664828 
L 603.563618 409.906539 
L 606.084855 383.906362 
L 608.606091 393.738333 
L 611.127327 357.830713 
L 613.648563 310.255775 
L 616.169799 409.47772 
L 618.691036 398.019666 
L 621.212272 422.657912 
L 623.733508 418.157024 
L 626.254744 403.556582 
L 628.77598 426.458967 
L 636.339689 326.653828 
L 638.860925 367.405392 
L 641.382162 419.30283 
L 643.903398 344.286882 
L 646.424634 345.058756 
L 648.94587 432.040481 
L 651.467106 443.062854 
L 653.988343 393.837819 
L 656.509579 431.073064 
L 659.030815 429.968425 
L 661.552051 425.697384 
L 664.073288 365.624934 
L 666.594524 326.54062 
L 669.11576 425.004412 
L 671.636996 441.042257 
L 674.158232 400.036832 
L 676.679469 427.148509 
L 679.200705 451.978867 
L 681.721941 432.953008 
L 684.243177 435.748911 
L 686.764414 449.879367 
L 694.328122 390.036764 
L 696.849358 411.82765 
L 699.370595 415.951177 
L 701.891831 412.307928 
L 704.413067 433.46073 
L 706.934303 423.848315 
L 709.455539 435.848397 
L 714.498012 404.959679 
L 717.019248 404.34904 
L 719.540484 430.822633 
L 722.061721 347.065631 
L 724.582957 431.793481 
L 727.104193 349.065645 
L 729.625429 423.838023 
L 732.146665 426.359481 
L 734.667902 375.755363 
L 737.189138 434.537925 
L 739.710374 388.640528 
L 742.23161 424.215384 
L 744.752847 442.771257 
L 752.316555 445.20352 
L 754.837791 450.723284 
L 757.359028 436.534508 
L 759.880264 388.077917 
L 762.4015 448.579187 
L 764.922736 432.661411 
L 767.443973 421.217079 
L 769.965209 441.155465 
L 772.486445 435.577383 
L 775.007681 427.02844 
L 777.528917 445.786715 
L 780.050154 440.047396 
L 782.57139 439.385299 
L 785.092626 458.411157 
L 787.613862 459.951477 
L 790.135098 452.284186 
L 792.656335 459.371713 
L 795.177571 391.199722 
L 797.698807 439.995938 
L 800.220043 435.443591 
L 802.74128 442.97709 
L 810.304988 360.029699 
L 812.826224 429.711134 
L 815.347461 435.289216 
L 817.868697 435.5568 
L 820.389933 449.947978 
L 822.911169 463.625601 
L 825.432406 448.215548 
L 827.953642 455.080088 
L 830.474878 424.654495 
L 832.996114 446.568881 
L 835.51735 422.554996 
L 838.038587 423.371468 
L 840.559823 447.872492 
L 843.081059 441.718076 
L 845.602295 419.319982 
L 848.123532 446.229256 
L 850.644768 426.328606 
L 853.166004 409.508595 
L 855.68724 420.462357 
L 858.208476 369.045198 
L 860.729713 439.759229 
L 868.293421 394.82925 
L 870.814658 417.402302 
L 875.85713 418.836274 
L 878.378366 401.175776 
L 880.899602 430.380092 
L 883.420839 432.740314 
L 885.942075 423.800287 
L 888.463311 424.551579 
L 890.984547 399.391888 
L 893.505783 441.237799 
L 896.02702 432.366383 
L 901.069492 408.565192 
L 903.590728 389.316348 
L 906.111965 425.591037 
L 908.633201 442.500243 
L 911.154437 447.985701 
L 913.675673 444.411062 
L 916.196909 433.906703 
L 918.718146 447.261853 
L 926.281854 397.110569 
L 928.803091 420.181052 
L 931.324327 446.980548 
L 933.845563 444.702659 
L 936.366799 437.814105 
L 938.888035 273.771822 
L 941.409272 429.855217 
L 943.930508 417.237635 
L 946.451744 427.40237 
L 948.97298 396.884152 
L 951.494217 433.292633 
L 954.015453 425.189662 
L 956.536689 449.203548 
L 959.057925 441.61859 
L 961.579161 440.424757 
L 964.100398 354.136005 
L 966.621634 428.850064 
L 969.14287 402.266693 
L 971.664106 459.385435 
L 974.185342 441.066271 
L 976.706579 432.246314 
L 984.270287 425.968398 
L 986.791524 454.754186 
L 989.31276 315.470219 
L 991.833996 410.379956 
L 994.355232 376.331697 
L 996.876468 365.100059 
L 999.397705 382.846321 
L 1001.918941 417.07983 
L 1004.440177 426.030148 
L 1006.961413 445.889631 
L 1009.48265 388.379806 
L 1012.003886 443.028548 
L 1014.525122 414.431441 
L 1017.046358 456.500338 
L 1019.567594 442.79184 
L 1022.088831 424.338884 
L 1024.610067 381.010974 
L 1027.131303 318.952232 
L 1029.652539 395.556527 
L 1032.173776 410.674983 
L 1034.695012 346.286895 
L 1042.25872 457.721616 
L 1044.779957 410.009456 
L 1049.822429 461.172754 
L 1052.343665 445.735256 
L 1054.864902 453.577505 
L 1057.386138 346.612798 
L 1059.907374 398.959638 
L 1062.42861 417.954621 
L 1064.949846 433.093661 
L 1067.471083 431.8518 
L 1069.992319 439.484785 
L 1072.513555 401.07286 
L 1075.034791 415.683594 
L 1077.556027 440.074841 
L 1080.077264 420.91176 
L 1082.5985 456.977185 
L 1085.119736 422.493246 
L 1087.640972 411.714442 
L 1090.162209 452.702714 
L 1092.683445 410.4074 
L 1100.247153 441.392174 
L 1102.76839 411.052345 
L 1105.289626 440.531104 
L 1107.810862 419.693913 
L 1110.332098 391.004181 
L 1112.853335 426.788301 
L 1115.374571 393.343819 
L 1117.895807 433.755758 
L 1120.417043 418.421177 
L 1122.938279 460.918893 
L 1125.459516 421.03869 
L 1127.980752 398.808693 
L 1130.501988 428.428106 
L 1133.023224 443.968521 
L 1135.544461 454.627255 
L 1138.065697 324.262732 
L 1140.586933 419.076413 
L 1143.108169 447.481409 
L 1145.629405 462.181338 
L 1148.150642 463.241379 
L 1150.671878 423.182787 
L 1158.235586 339.137618 
L 1160.756823 394.125986 
L 1163.278059 439.820979 
L 1165.799295 380.544418 
L 1168.320531 344.448118 
L 1173.363004 438.548244 
L 1175.88424 419.752232 
L 1178.405476 417.779663 
L 1180.926712 385.336904 
L 1183.447949 409.813914 
L 1185.969185 421.573857 
L 1188.490421 442.654618 
L 1191.011657 429.81405 
L 1193.532894 446.335604 
L 1196.05413 423.464093 
L 1198.575366 443.138326 
L 1201.096602 421.731663 
L 1203.617838 437.604841 
L 1206.139075 439.858716 
L 1208.660311 389.539334 
L 1216.22402 428.208551 
L 1218.745256 458.421449 
L 1221.266492 459.642727 
L 1223.787728 462.730226 
L 1226.308964 459.622143 
L 1228.830201 455.207019 
L 1231.351437 460.692477 
L 1233.872673 450.987436 
L 1236.393909 461.412893 
L 1238.915145 464.263684 
L 1241.436382 464.675351 
L 1243.957618 467.625628 
L 1246.478854 449.025159 
L 1249.00009 462.325421 
L 1251.521327 431.453856 
L 1254.042563 465.666781 
L 1256.563799 389.995597 
L 1259.085035 464.551851 
L 1261.606271 464.438643 
L 1264.127508 464.17449 
L 1266.648744 469.423239 
L 1274.212453 455.474602 
L 1276.733689 390.376389 
L 1279.254925 445.57402 
L 1281.776161 445.917076 
L 1284.297397 444.345882 
L 1286.818634 419.594427 
L 1289.33987 456.743908 
L 1291.861106 466.490115 
L 1294.382342 409.580636 
L 1296.903579 457.546658 
L 1299.424815 417.82083 
L 1301.946051 431.663119 
L 1304.467287 396.146583 
L 1306.988523 450.754159 
L 1309.50976 458.445463 
L 1312.030996 434.184577 
L 1314.552232 432.644258 
L 1317.073468 404.239262 
L 1319.594705 463.996101 
L 1322.115941 457.347685 
L 1324.637177 445.114326 
L 1332.200886 404.90479 
L 1334.722122 416.819108 
L 1337.243358 449.320187 
L 1339.764594 424.242829 
L 1342.28583 411.326789 
L 1344.807067 389.841222 
L 1347.328303 397.903027 
L 1349.849539 363.86849 
L 1352.370775 397.254652 
L 1354.892012 366.249295 
L 1357.413248 428.349203 
L 1359.934484 416.170733 
L 1362.45572 401.882471 
L 1364.976956 423.179357 
L 1367.498193 439.76266 
L 1370.019429 437.234341 
L 1372.540665 434.26005 
L 1375.061901 434.623689 
L 1377.583138 442.867312 
L 1380.104374 437.320105 
L 1382.62561 411.532622 
L 1390.189319 403.920221 
L 1392.710555 453.906839 
L 1395.231791 443.889618 
L 1397.753027 437.131424 
L 1400.274264 423.086732 
L 1402.7955 367.381378 
L 1405.316736 462.702782 
L 1407.837972 433.285772 
L 1410.359208 380.256252 
L 1412.880445 445.193229 
L 1415.401681 432.414411 
L 1417.922917 449.817617 
L 1420.444153 445.930798 
L 1422.965389 422.592732 
L 1425.486626 450.325339 
L 1428.007862 432.644258 
L 1430.529098 461.94806 
L 1433.050334 446.678659 
L 1435.571571 347.501312 
L 1438.092807 455.083519 
L 1440.614043 460.074977 
L 1448.177752 431.2343 
L 1450.698988 453.128103 
L 1453.220224 446.071451 
L 1455.74146 407.913387 
L 1458.262697 447.742131 
L 1460.783933 411.381678 
L 1463.305169 423.577301 
L 1465.826405 413.879122 
L 1468.347641 440.81241 
L 1470.868878 444.201798 
L 1473.390114 442.136604 
L 1475.91135 450.668395 
L 1478.432586 441.364729 
L 1480.953823 425.947815 
L 1483.475059 437.471049 
L 1485.996295 437.076535 
L 1488.517531 429.591064 
L 1491.038767 429.676828 
L 1493.560004 429.896384 
L 1496.08124 435.158855 
L 1498.602476 431.052481 
L 1506.166185 356.08456 
L 1508.687421 394.849833 
L 1511.208657 394.599402 
L 1513.729893 362.228685 
L 1516.25113 384.592473 
L 1518.772366 400.45536 
L 1521.293602 403.951096 
L 1523.814838 375.518655 
L 1526.336074 321.518287 
L 1528.857311 370.434572 
L 1531.378547 400.14661 
L 1536.421019 417.443469 
L 1538.942256 337.391466 
L 1541.463492 384.194529 
L 1543.984728 329.703592 
L 1546.505964 396.860138 
L 1549.0272 429.9993 
L 1551.548437 377.841141 
L 1554.069673 437.244633 
L 1556.590909 383.556446 
L 1556.590909 383.556446 
" clip-path="url(#p6c37caa588)" style="fill: none; stroke: #3aaa35; stroke-width: 1.5; stroke-linecap: round"/>
   </g>
   <g id="line2d_4">
    <path d="M 288.409091 394.057375 
L 290.930327 432.071356 
L 293.451563 392.534208 
L 295.9728 443.601451 
L 298.494036 440.970215 
L 301.015272 454.476311 
L 303.536508 427.940967 
L 306.057744 416.699038 
L 308.578981 447.460826 
L 311.100217 447.793589 
L 313.621453 440.472785 
L 316.142689 444.068007 
L 318.663926 450.956561 
L 321.185162 456.857116 
L 323.706398 442.634035 
L 326.227634 445.652923 
L 328.74887 462.44206 
L 331.270107 436.802091 
L 333.791343 461.625588 
L 336.312579 454.020047 
L 338.833815 454.092089 
L 404.385957 368.62667 
L 406.907193 340.924938 
L 409.428429 371.501475 
L 414.470902 384.331751 
L 416.992138 407.964845 
L 419.513374 427.752287 
L 422.034611 393.961319 
L 424.555847 435.086813 
L 427.077083 443.073146 
L 429.598319 417.07983 
L 432.119555 422.297704 
L 434.640792 387.542751 
L 437.162028 419.913468 
L 439.683264 440.69234 
L 442.2045 424.036996 
L 444.725736 441.364729 
L 447.246973 436.338966 
L 449.768209 439.025091 
L 452.289445 426.606481 
L 454.810681 404.211818 
L 462.37439 372.561517 
L 464.895626 457.176158 
L 467.416862 436.579105 
L 469.938099 418.218774 
L 472.459335 420.133024 
L 474.980571 409.090067 
L 477.501807 430.352647 
L 480.023044 384.07789 
L 482.54428 458.932602 
L 485.065516 444.253257 
L 487.586752 386.465556 
L 490.107988 359.820435 
L 492.629225 414.801941 
L 495.150461 452.044047 
L 497.671697 451.231006 
L 500.192933 430.445272 
L 502.71417 391.100236 
L 505.235406 416.668163 
L 507.756642 425.11762 
L 510.277878 448.905089 
L 512.799114 384.973265 
L 520.362823 370.630114 
L 522.884059 435.875841 
L 525.405295 438.726632 
L 527.926532 436.349258 
L 530.447768 399.402179 
L 532.969004 425.186231 
L 535.49024 421.460649 
L 538.011477 441.687201 
L 540.532713 430.081634 
L 543.053949 397.844707 
L 545.575185 435.546508 
L 548.096421 417.817399 
L 550.617658 448.489992 
L 553.138894 437.560244 
L 555.66013 436.520785 
L 558.181366 428.016439 
L 560.702603 436.400716 
L 563.223839 411.244456 
L 565.745075 441.419618 
L 568.266311 442.253243 
L 570.787547 451.227575 
L 578.351256 396.19118 
L 580.872492 411.783053 
L 583.393729 301.885221 
L 585.914965 295.758249 
L 588.436201 415.875705 
L 590.957437 428.524162 
L 593.478673 413.628691 
L 595.99991 409.072914 
L 598.521146 420.572135 
L 601.042382 417.457191 
L 603.563618 448.740423 
L 606.084855 432.431564 
L 608.606091 449.433395 
L 611.127327 398.630305 
L 613.648563 415.155288 
L 616.169799 418.174177 
L 618.691036 418.534385 
L 621.212272 422.757398 
L 623.733508 428.836342 
L 626.254744 440.500229 
L 628.77598 430.585925 
L 636.339689 459.04238 
L 638.860925 384.191098 
L 641.382162 401.717804 
L 643.903398 412.359386 
L 646.424634 423.639051 
L 648.94587 361.446518 
L 651.467106 367.227003 
L 653.988343 443.889618 
L 656.509579 448.218978 
L 659.030815 453.508894 
L 661.552051 362.935379 
L 664.073288 182.766057 
L 666.594524 436.658008 
L 669.11576 447.954826 
L 671.636996 468.00642 
L 674.158232 427.879217 
L 676.679469 437.440174 
L 679.200705 370.959447 
L 681.721941 454.942866 
L 684.243177 408.671539 
L 686.764414 435.028494 
L 694.328122 231.812703 
L 696.849358 318.712093 
L 699.370595 385.830904 
L 701.891831 384.935529 
L 704.413067 391.323222 
L 706.934303 410.551484 
L 709.455539 347.30577 
L 711.976776 424.335454 
L 714.498012 433.326939 
L 717.019248 397.000791 
L 719.540484 417.028372 
L 722.061721 438.479632 
L 724.582957 396.801819 
L 727.104193 371.40885 
L 729.625429 412.513761 
L 732.146665 423.210232 
L 734.667902 409.491442 
L 737.189138 406.373067 
L 739.710374 419.388593 
L 742.23161 392.064222 
L 744.752847 411.512039 
L 752.316555 450.932547 
L 754.837791 472.195128 
L 759.880264 432.016467 
L 762.4015 450.040603 
L 764.922736 446.462534 
L 767.443973 459.556963 
L 769.965209 463.231087 
L 772.486445 463.649615 
L 775.007681 454.802214 
L 777.528917 459.556963 
L 780.050154 436.057661 
L 782.57139 457.817671 
L 785.092626 419.789968 
L 787.613862 411.700719 
L 790.135098 452.524325 
L 792.656335 437.649438 
L 795.177571 455.200158 
L 797.698807 438.067966 
L 800.220043 432.709439 
L 802.74128 447.347617 
L 810.304988 442.198354 
L 812.826224 452.815922 
L 815.347461 381.069293 
L 817.868697 455.176144 
L 820.389933 425.007843 
L 822.911169 364.24242 
L 825.432406 442.201785 
L 827.953642 415.937455 
L 830.474878 412.462303 
L 832.996114 459.183032 
L 835.51735 452.946283 
L 838.038587 411.779622 
L 840.559823 454.634116 
L 843.081059 411.721303 
L 845.602295 370.938864 
L 848.123532 453.454005 
L 850.644768 381.062432 
L 853.166004 458.273935 
L 855.68724 381.60789 
L 858.208476 321.302162 
L 860.729713 416.314816 
L 868.293421 349.381256 
L 870.814658 234.900202 
L 873.335894 409.285609 
L 875.85713 400.184346 
L 878.378366 378.914905 
L 880.899602 362.671226 
L 883.420839 384.712543 
L 885.942075 380.482668 
L 888.463311 416.922024 
L 890.984547 369.61467 
L 893.505783 378.743377 
L 896.02702 422.633899 
L 898.548256 401.978526 
L 901.069492 422.428065 
L 903.590728 361.700379 
L 906.111965 421.663051 
L 908.633201 400.232374 
L 911.154437 389.920125 
L 913.675673 432.215439 
L 916.196909 429.450411 
L 918.718146 383.559876 
L 926.281854 434.661425 
L 928.803091 389.957861 
L 931.324327 445.567159 
L 933.845563 448.452256 
L 936.366799 446.661506 
L 938.888035 459.752505 
L 941.409272 387.148237 
L 943.930508 417.035233 
L 946.451744 442.222368 
L 948.97298 444.95309 
L 951.494217 451.6907 
L 954.015453 459.985782 
L 956.536689 446.040576 
L 959.057925 447.786728 
L 961.579161 457.289366 
L 964.100398 454.863964 
L 966.621634 418.469205 
L 969.14287 386.201404 
L 971.664106 456.905144 
L 974.185342 454.188144 
L 976.706579 379.734807 
L 984.270287 417.028372 
L 986.791524 411.690428 
L 989.31276 425.368051 
L 991.833996 331.140994 
L 994.355232 402.163776 
L 996.876468 433.488175 
L 999.397705 450.462561 
L 1001.918941 392.105389 
L 1004.440177 426.736842 
L 1006.961413 429.199981 
L 1009.48265 417.213621 
L 1012.003886 430.575634 
L 1014.525122 397.093416 
L 1017.046358 430.18112 
L 1019.567594 449.851923 
L 1022.088831 434.153702 
L 1024.610067 446.80559 
L 1027.131303 440.452202 
L 1029.652539 432.301203 
L 1032.173776 445.961673 
L 1034.695012 441.148604 
L 1042.25872 356.225213 
L 1044.779957 463.505532 
L 1047.301193 457.31338 
L 1049.822429 450.599784 
L 1052.343665 461.406032 
L 1054.864902 417.934038 
L 1057.386138 450.006298 
L 1059.907374 446.80902 
L 1062.42861 405.436526 
L 1064.949846 403.721248 
L 1067.471083 444.942798 
L 1069.992319 410.705858 
L 1072.513555 427.158801 
L 1075.034791 460.534671 
L 1077.556027 461.776532 
L 1080.077264 465.817726 
L 1082.5985 455.045783 
L 1085.119736 478.376988 
L 1087.640972 468.304878 
L 1090.162209 464.579296 
L 1092.683445 465.40949 
L 1100.247153 434.435008 
L 1102.76839 377.422613 
L 1105.289626 423.683648 
L 1107.810862 416.939177 
L 1110.332098 443.742104 
L 1112.853335 401.81386 
L 1115.374571 400.794985 
L 1117.895807 387.532459 
L 1120.417043 438.071396 
L 1122.938279 450.229284 
L 1125.459516 428.551606 
L 1127.980752 426.133065 
L 1130.501988 454.002894 
L 1133.023224 360.424213 
L 1135.544461 410.966581 
L 1138.065697 436.098827 
L 1140.586933 403.831026 
L 1143.108169 447.471117 
L 1145.629405 380.674779 
L 1148.150642 369.223586 
L 1150.671878 449.443686 
L 1158.235586 434.771202 
L 1160.756823 425.347468 
L 1163.278059 435.584244 
L 1165.799295 406.331901 
L 1168.320531 447.186381 
L 1170.841768 394.904722 
L 1173.363004 447.635784 
L 1175.88424 434.167425 
L 1178.405476 437.60141 
L 1180.926712 437.433313 
L 1183.447949 353.196033 
L 1185.969185 426.850051 
L 1188.490421 417.498358 
L 1191.011657 402.18779 
L 1193.532894 423.649343 
L 1196.05413 436.335536 
L 1198.575366 423.035273 
L 1201.096602 371.854822 
L 1203.617838 418.445191 
L 1206.139075 401.518832 
L 1208.660311 417.103844 
L 1216.22402 364.835906 
L 1218.745256 455.014908 
L 1221.266492 455.234463 
L 1223.787728 456.459172 
L 1226.308964 374.046947 
L 1228.830201 425.155356 
L 1231.351437 394.599402 
L 1233.872673 450.568909 
L 1236.393909 458.915449 
L 1238.915145 392.276917 
L 1241.436382 450.02002 
L 1243.957618 459.395727 
L 1246.478854 430.743731 
L 1251.521327 449.803895 
L 1254.042563 450.4557 
L 1256.563799 463.61874 
L 1259.085035 461.323699 
L 1261.606271 445.786715 
L 1264.127508 428.932398 
L 1266.648744 414.860261 
L 1274.212453 401.168915 
L 1276.733689 440.637452 
L 1279.254925 378.76053 
L 1281.776161 439.532813 
L 1284.297397 380.342015 
L 1286.818634 348.907839 
L 1289.33987 408.345637 
L 1291.861106 400.513679 
L 1294.382342 416.40401 
L 1296.903579 457.927449 
L 1299.424815 428.386939 
L 1301.946051 408.153526 
L 1304.467287 448.610062 
L 1306.988523 440.589424 
L 1309.50976 463.12131 
L 1312.030996 412.270192 
L 1314.552232 428.729995 
L 1317.073468 406.534304 
L 1319.594705 450.20527 
L 1322.115941 448.942825 
L 1324.637177 443.659771 
L 1332.200886 458.201894 
L 1334.722122 427.220551 
L 1337.243358 445.75927 
L 1339.764594 443.47109 
L 1342.28583 434.225744 
L 1344.807067 448.802173 
L 1347.328303 424.80544 
L 1349.849539 415.10383 
L 1352.370775 387.522167 
L 1354.892012 437.35098 
L 1357.413248 425.759134 
L 1359.934484 436.500202 
L 1362.45572 421.553274 
L 1364.976956 398.41761 
L 1367.498193 382.448376 
L 1370.019429 421.114163 
L 1372.540665 343.048451 
L 1375.061901 367.549476 
L 1377.583138 387.093348 
L 1380.104374 424.369759 
L 1382.62561 406.38679 
L 1390.189319 245.871117 
L 1392.710555 352.976478 
L 1395.231791 356.842713 
L 1397.753027 316.303844 
L 1400.274264 89.28 
L 1402.7955 394.242625 
L 1405.316736 360.678074 
L 1407.837972 385.103626 
L 1410.359208 374.139572 
L 1412.880445 329.696731 
L 1415.401681 374.317961 
L 1417.922917 441.659757 
L 1420.444153 436.760924 
L 1422.965389 422.51726 
L 1425.486626 429.862078 
L 1428.007862 444.898201 
L 1430.529098 383.573598 
L 1433.050334 464.445504 
L 1435.571571 442.846729 
L 1438.092807 396.276944 
L 1440.614043 447.783298 
L 1448.177752 428.356064 
L 1450.698988 443.258396 
L 1453.220224 433.543064 
L 1455.74146 426.603051 
L 1458.262697 397.98536 
L 1460.783933 424.596176 
L 1463.305169 448.136645 
L 1465.826405 449.320187 
L 1468.347641 426.194815 
L 1470.868878 447.395645 
L 1473.390114 418.99751 
L 1475.91135 430.575634 
L 1478.432586 441.436771 
L 1480.953823 430.898106 
L 1483.475059 445.309868 
L 1485.996295 384.719404 
L 1488.517531 414.956316 
L 1491.038767 413.388553 
L 1493.560004 431.275467 
L 1496.08124 421.40576 
L 1498.602476 453.690714 
L 1506.166185 451.99945 
L 1508.687421 400.698929 
L 1511.208657 419.196482 
L 1513.729893 322.437676 
L 1516.25113 272.77353 
L 1518.772366 410.023178 
L 1521.293602 463.220796 
L 1523.814838 378.794835 
L 1526.336074 353.827255 
L 1528.857311 411.851664 
L 1533.899783 441.591146 
L 1536.421019 365.803323 
L 1538.942256 365.494573 
L 1541.463492 422.596162 
L 1543.984728 460.685615 
L 1546.505964 411.680136 
L 1549.0272 477.979044 
L 1551.548437 471.618795 
L 1554.069673 441.292688 
L 1556.590909 420.733371 
L 1556.590909 420.733371 
" clip-path="url(#p6c37caa588)" style="fill: none; stroke: #e7267a; stroke-width: 1.5; stroke-linecap: round"/>
   </g>
   <g id="patch_3">
    <path d="M 225 512.64 
L 225 69.12 
" style="fill: none; stroke: #262626; stroke-width: 1.25; stroke-linejoin: miter; stroke-linecap: square"/>
   </g>
   <g id="patch_4">
    <path d="M 1620 512.64 
L 1620 69.12 
" style="fill: none; stroke: #262626; stroke-width: 1.25; stroke-linejoin: miter; stroke-linecap: square"/>
   </g>
   <g id="patch_5">
    <path d="M 225 512.64 
L 1620 512.64 
" style="fill: none; stroke: #262626; stroke-width: 1.25; stroke-linejoin: miter; stroke-linecap: square"/>
   </g>
   <g id="patch_6">
    <path d="M 225 69.12 
L 1620 69.12 
" style="fill: none; stroke: #262626; stroke-width: 1.25; stroke-linejoin: miter; stroke-linecap: square"/>
   </g>
   <g id="text_15">
    <!-- Duration (Cleaned) of each trial by Condition -->
    <g style="fill: #262626" transform="translate(744.915938 63.12) scale(0.18 -0.18)">
     <defs>
      <path id="ArialMT-44" d="M 494 0 
L 494 4581 
L 2072 4581 
Q 2606 4581 2888 4516 
Q 3281 4425 3559 4188 
Q 3922 3881 4101 3404 
Q 4281 2928 4281 2316 
Q 4281 1794 4159 1391 
Q 4038 988 3847 723 
Q 3656 459 3429 307 
Q 3203 156 2883 78 
Q 2563 0 2147 0 
L 494 0 
z
M 1100 541 
L 2078 541 
Q 2531 541 2789 625 
Q 3047 709 3200 863 
Q 3416 1078 3536 1442 
Q 3656 1806 3656 2325 
Q 3656 3044 3420 3430 
Q 3184 3816 2847 3947 
Q 2603 4041 2063 4041 
L 1100 4041 
L 1100 541 
z
" transform="scale(0.015625)"/>
      <path id="ArialMT-75" d="M 2597 0 
L 2597 488 
Q 2209 -75 1544 -75 
Q 1250 -75 995 37 
Q 741 150 617 320 
Q 494 491 444 738 
Q 409 903 409 1263 
L 409 3319 
L 972 3319 
L 972 1478 
Q 972 1038 1006 884 
Q 1059 663 1231 536 
Q 1403 409 1656 409 
Q 1909 409 2131 539 
Q 2353 669 2445 892 
Q 2538 1116 2538 1541 
L 2538 3319 
L 3100 3319 
L 3100 0 
L 2597 0 
z
" transform="scale(0.015625)"/>
      <path id="ArialMT-74" d="M 1650 503 
L 1731 6 
Q 1494 -44 1306 -44 
Q 1000 -44 831 53 
Q 663 150 594 308 
Q 525 466 525 972 
L 525 2881 
L 113 2881 
L 113 3319 
L 525 3319 
L 525 4141 
L 1084 4478 
L 1084 3319 
L 1650 3319 
L 1650 2881 
L 1084 2881 
L 1084 941 
Q 1084 700 1114 631 
Q 1144 563 1211 522 
Q 1278 481 1403 481 
Q 1497 481 1650 503 
z
" transform="scale(0.015625)"/>
      <path id="ArialMT-6f" d="M 213 1659 
Q 213 2581 725 3025 
Q 1153 3394 1769 3394 
Q 2453 3394 2887 2945 
Q 3322 2497 3322 1706 
Q 3322 1066 3130 698 
Q 2938 331 2570 128 
Q 2203 -75 1769 -75 
Q 1072 -75 642 372 
Q 213 819 213 1659 
z
M 791 1659 
Q 791 1022 1069 705 
Q 1347 388 1769 388 
Q 2188 388 2466 706 
Q 2744 1025 2744 1678 
Q 2744 2294 2464 2611 
Q 2184 2928 1769 2928 
Q 1347 2928 1069 2612 
Q 791 2297 791 1659 
z
" transform="scale(0.015625)"/>
      <path id="ArialMT-6e" d="M 422 0 
L 422 3319 
L 928 3319 
L 928 2847 
Q 1294 3394 1984 3394 
Q 2284 3394 2536 3286 
Q 2788 3178 2913 3003 
Q 3038 2828 3088 2588 
Q 3119 2431 3119 2041 
L 3119 0 
L 2556 0 
L 2556 2019 
Q 2556 2363 2490 2533 
Q 2425 2703 2258 2804 
Q 2091 2906 1866 2906 
Q 1506 2906 1245 2678 
Q 984 2450 984 1813 
L 984 0 
L 422 0 
z
" transform="scale(0.015625)"/>
      <path id="ArialMT-43" d="M 3763 1606 
L 4369 1453 
Q 4178 706 3683 314 
Q 3188 -78 2472 -78 
Q 1731 -78 1267 223 
Q 803 525 561 1097 
Q 319 1669 319 2325 
Q 319 3041 592 3573 
Q 866 4106 1370 4382 
Q 1875 4659 2481 4659 
Q 3169 4659 3637 4309 
Q 4106 3959 4291 3325 
L 3694 3184 
Q 3534 3684 3231 3912 
Q 2928 4141 2469 4141 
Q 1941 4141 1586 3887 
Q 1231 3634 1087 3207 
Q 944 2781 944 2328 
Q 944 1744 1114 1308 
Q 1284 872 1643 656 
Q 2003 441 2422 441 
Q 2931 441 3284 734 
Q 3638 1028 3763 1606 
z
" transform="scale(0.015625)"/>
      <path id="ArialMT-64" d="M 2575 0 
L 2575 419 
Q 2259 -75 1647 -75 
Q 1250 -75 917 144 
Q 584 363 401 755 
Q 219 1147 219 1656 
Q 219 2153 384 2558 
Q 550 2963 881 3178 
Q 1213 3394 1622 3394 
Q 1922 3394 2156 3267 
Q 2391 3141 2538 2938 
L 2538 4581 
L 3097 4581 
L 3097 0 
L 2575 0 
z
M 797 1656 
Q 797 1019 1065 703 
Q 1334 388 1700 388 
Q 2069 388 2326 689 
Q 2584 991 2584 1609 
Q 2584 2291 2321 2609 
Q 2059 2928 1675 2928 
Q 1300 2928 1048 2622 
Q 797 2316 797 1656 
z
" transform="scale(0.015625)"/>
      <path id="ArialMT-66" d="M 556 0 
L 556 2881 
L 59 2881 
L 59 3319 
L 556 3319 
L 556 3672 
Q 556 4006 616 4169 
Q 697 4388 901 4523 
Q 1106 4659 1475 4659 
Q 1713 4659 2000 4603 
L 1916 4113 
Q 1741 4144 1584 4144 
Q 1328 4144 1222 4034 
Q 1116 3925 1116 3625 
L 1116 3319 
L 1763 3319 
L 1763 2881 
L 1116 2881 
L 1116 0 
L 556 0 
z
" transform="scale(0.015625)"/>
      <path id="ArialMT-63" d="M 2588 1216 
L 3141 1144 
Q 3050 572 2676 248 
Q 2303 -75 1759 -75 
Q 1078 -75 664 370 
Q 250 816 250 1647 
Q 250 2184 428 2587 
Q 606 2991 970 3192 
Q 1334 3394 1763 3394 
Q 2303 3394 2647 3120 
Q 2991 2847 3088 2344 
L 2541 2259 
Q 2463 2594 2264 2762 
Q 2066 2931 1784 2931 
Q 1359 2931 1093 2626 
Q 828 2322 828 1663 
Q 828 994 1084 691 
Q 1341 388 1753 388 
Q 2084 388 2306 591 
Q 2528 794 2588 1216 
z
" transform="scale(0.015625)"/>
      <path id="ArialMT-68" d="M 422 0 
L 422 4581 
L 984 4581 
L 984 2938 
Q 1378 3394 1978 3394 
Q 2347 3394 2619 3248 
Q 2891 3103 3008 2847 
Q 3125 2591 3125 2103 
L 3125 0 
L 2563 0 
L 2563 2103 
Q 2563 2525 2380 2717 
Q 2197 2909 1863 2909 
Q 1613 2909 1392 2779 
Q 1172 2650 1078 2428 
Q 984 2206 984 1816 
L 984 0 
L 422 0 
z
" transform="scale(0.015625)"/>
      <path id="ArialMT-62" d="M 941 0 
L 419 0 
L 419 4581 
L 981 4581 
L 981 2947 
Q 1338 3394 1891 3394 
Q 2197 3394 2470 3270 
Q 2744 3147 2920 2923 
Q 3097 2700 3197 2384 
Q 3297 2069 3297 1709 
Q 3297 856 2875 390 
Q 2453 -75 1863 -75 
Q 1275 -75 941 416 
L 941 0 
z
M 934 1684 
Q 934 1088 1097 822 
Q 1363 388 1816 388 
Q 2184 388 2453 708 
Q 2722 1028 2722 1663 
Q 2722 2313 2464 2622 
Q 2206 2931 1841 2931 
Q 1472 2931 1203 2611 
Q 934 2291 934 1684 
z
" transform="scale(0.015625)"/>
      <path id="ArialMT-79" d="M 397 -1278 
L 334 -750 
Q 519 -800 656 -800 
Q 844 -800 956 -737 
Q 1069 -675 1141 -563 
Q 1194 -478 1313 -144 
Q 1328 -97 1363 -6 
L 103 3319 
L 709 3319 
L 1400 1397 
Q 1534 1031 1641 628 
Q 1738 1016 1872 1384 
L 2581 3319 
L 3144 3319 
L 1881 -56 
Q 1678 -603 1566 -809 
Q 1416 -1088 1222 -1217 
Q 1028 -1347 759 -1347 
Q 597 -1347 397 -1278 
z
" transform="scale(0.015625)"/>
     </defs>
     <use xlink:href="#ArialMT-44"/>
     <use xlink:href="#ArialMT-75" x="72.216797"/>
     <use xlink:href="#ArialMT-72" x="127.832031"/>
     <use xlink:href="#ArialMT-61" x="161.132812"/>
     <use xlink:href="#ArialMT-74" x="216.748047"/>
     <use xlink:href="#ArialMT-69" x="244.53125"/>
     <use xlink:href="#ArialMT-6f" x="266.748047"/>
     <use xlink:href="#ArialMT-6e" x="322.363281"/>
     <use xlink:href="#ArialMT-20" x="377.978516"/>
     <use xlink:href="#ArialMT-28" x="405.761719"/>
     <use xlink:href="#ArialMT-43" x="439.0625"/>
     <use xlink:href="#ArialMT-6c" x="511.279297"/>
     <use xlink:href="#ArialMT-65" x="533.496094"/>
     <use xlink:href="#ArialMT-61" x="589.111328"/>
     <use xlink:href="#ArialMT-6e" x="644.726562"/>
     <use xlink:href="#ArialMT-65" x="700.341797"/>
     <use xlink:href="#ArialMT-64" x="755.957031"/>
     <use xlink:href="#ArialMT-29" x="811.572266"/>
     <use xlink:href="#ArialMT-20" x="844.873047"/>
     <use xlink:href="#ArialMT-6f" x="872.65625"/>
     <use xlink:href="#ArialMT-66" x="928.271484"/>
     <use xlink:href="#ArialMT-20" x="956.054688"/>
     <use xlink:href="#ArialMT-65" x="983.837891"/>
     <use xlink:href="#ArialMT-61" x="1039.453125"/>
     <use xlink:href="#ArialMT-63" x="1095.068359"/>
     <use xlink:href="#ArialMT-68" x="1145.068359"/>
     <use xlink:href="#ArialMT-20" x="1200.683594"/>
     <use xlink:href="#ArialMT-74" x="1228.466797"/>
     <use xlink:href="#ArialMT-72" x="1256.25"/>
     <use xlink:href="#ArialMT-69" x="1289.550781"/>
     <use xlink:href="#ArialMT-61" x="1311.767578"/>
     <use xlink:href="#ArialMT-6c" x="1367.382812"/>
     <use xlink:href="#ArialMT-20" x="1389.599609"/>
     <use xlink:href="#ArialMT-62" x="1417.382812"/>
     <use xlink:href="#ArialMT-79" x="1472.998047"/>
     <use xlink:href="#ArialMT-20" x="1522.998047"/>
     <use xlink:href="#ArialMT-43" x="1550.78125"/>
     <use xlink:href="#ArialMT-6f" x="1622.998047"/>
     <use xlink:href="#ArialMT-6e" x="1678.613281"/>
     <use xlink:href="#ArialMT-64" x="1734.228516"/>
     <use xlink:href="#ArialMT-69" x="1789.84375"/>
     <use xlink:href="#ArialMT-74" x="1812.060547"/>
     <use xlink:href="#ArialMT-69" x="1839.84375"/>
     <use xlink:href="#ArialMT-6f" x="1862.060547"/>
     <use xlink:href="#ArialMT-6e" x="1917.675781"/>
    </g>
   </g>
   <g id="legend_1">
    <g id="patch_7">
     <path d="M 236.55 200.390625 
L 441.593437 200.390625 
Q 444.893438 200.390625 444.893438 197.090625 
L 444.893438 80.67 
Q 444.893438 77.37 441.593437 77.37 
L 236.55 77.37 
Q 233.25 77.37 233.25 80.67 
L 233.25 197.090625 
Q 233.25 200.390625 236.55 200.390625 
z
" style="fill: #ffffff; opacity: 0.8; stroke: #cccccc; stroke-linejoin: miter"/>
    </g>
    <g id="text_16">
     <!-- Condition -->
     <g style="fill: #262626" transform="translate(301.048125 96.854062) scale(0.18 -0.18)">
      <use xlink:href="#ArialMT-43"/>
      <use xlink:href="#ArialMT-6f" x="72.216797"/>
      <use xlink:href="#ArialMT-6e" x="127.832031"/>
      <use xlink:href="#ArialMT-64" x="183.447266"/>
      <use xlink:href="#ArialMT-69" x="239.0625"/>
      <use xlink:href="#ArialMT-74" x="261.279297"/>
      <use xlink:href="#ArialMT-69" x="289.0625"/>
      <use xlink:href="#ArialMT-6f" x="311.279297"/>
      <use xlink:href="#ArialMT-6e" x="366.894531"/>
     </g>
    </g>
    <g id="line2d_5">
     <path d="M 239.85 114.716953 
L 256.35 114.716953 
L 272.85 114.716953 
" style="fill: none; stroke: #ea5b0c; stroke-width: 1.5; stroke-linecap: round"/>
    </g>
    <g id="text_17">
     <!-- No Feedback -->
     <g style="fill: #262626" transform="translate(286.05 120.491953) scale(0.165 -0.165)">
      <defs>
       <path id="ArialMT-4e" d="M 488 0 
L 488 4581 
L 1109 4581 
L 3516 984 
L 3516 4581 
L 4097 4581 
L 4097 0 
L 3475 0 
L 1069 3600 
L 1069 0 
L 488 0 
z
" transform="scale(0.015625)"/>
       <path id="ArialMT-46" d="M 525 0 
L 525 4581 
L 3616 4581 
L 3616 4041 
L 1131 4041 
L 1131 2622 
L 3281 2622 
L 3281 2081 
L 1131 2081 
L 1131 0 
L 525 0 
z
" transform="scale(0.015625)"/>
       <path id="ArialMT-6b" d="M 425 0 
L 425 4581 
L 988 4581 
L 988 1969 
L 2319 3319 
L 3047 3319 
L 1778 2088 
L 3175 0 
L 2481 0 
L 1384 1697 
L 988 1316 
L 988 0 
L 425 0 
z
" transform="scale(0.015625)"/>
      </defs>
      <use xlink:href="#ArialMT-4e"/>
      <use xlink:href="#ArialMT-6f" x="72.216797"/>
      <use xlink:href="#ArialMT-20" x="127.832031"/>
      <use xlink:href="#ArialMT-46" x="155.615234"/>
      <use xlink:href="#ArialMT-65" x="216.699219"/>
      <use xlink:href="#ArialMT-65" x="272.314453"/>
      <use xlink:href="#ArialMT-64" x="327.929688"/>
      <use xlink:href="#ArialMT-62" x="383.544922"/>
      <use xlink:href="#ArialMT-61" x="439.160156"/>
      <use xlink:href="#ArialMT-63" x="494.775391"/>
      <use xlink:href="#ArialMT-6b" x="544.775391"/>
     </g>
    </g>
    <g id="line2d_6">
     <path d="M 239.85 138.056719 
L 256.35 138.056719 
L 272.85 138.056719 
" style="fill: none; stroke: #1d71b8; stroke-width: 1.5; stroke-linecap: round"/>
    </g>
    <g id="text_18">
     <!-- Tactile Feedback -->
     <g style="fill: #262626" transform="translate(286.05 143.831719) scale(0.165 -0.165)">
      <use xlink:href="#ArialMT-54"/>
      <use xlink:href="#ArialMT-61" x="49.958984"/>
      <use xlink:href="#ArialMT-63" x="105.574219"/>
      <use xlink:href="#ArialMT-74" x="155.574219"/>
      <use xlink:href="#ArialMT-69" x="183.357422"/>
      <use xlink:href="#ArialMT-6c" x="205.574219"/>
      <use xlink:href="#ArialMT-65" x="227.791016"/>
      <use xlink:href="#ArialMT-20" x="283.40625"/>
      <use xlink:href="#ArialMT-46" x="311.189453"/>
      <use xlink:href="#ArialMT-65" x="372.273438"/>
      <use xlink:href="#ArialMT-65" x="427.888672"/>
      <use xlink:href="#ArialMT-64" x="483.503906"/>
      <use xlink:href="#ArialMT-62" x="539.119141"/>
      <use xlink:href="#ArialMT-61" x="594.734375"/>
      <use xlink:href="#ArialMT-63" x="650.349609"/>
      <use xlink:href="#ArialMT-6b" x="700.349609"/>
     </g>
    </g>
    <g id="line2d_7">
     <path d="M 239.85 161.396484 
L 256.35 161.396484 
L 272.85 161.396484 
" style="fill: none; stroke: #3aaa35; stroke-width: 1.5; stroke-linecap: round"/>
    </g>
    <g id="text_19">
     <!-- Visual Feedback -->
     <g style="fill: #262626" transform="translate(286.05 167.171484) scale(0.165 -0.165)">
      <defs>
       <path id="ArialMT-56" d="M 1803 0 
L 28 4581 
L 684 4581 
L 1875 1253 
Q 2019 853 2116 503 
Q 2222 878 2363 1253 
L 3600 4581 
L 4219 4581 
L 2425 0 
L 1803 0 
z
" transform="scale(0.015625)"/>
      </defs>
      <use xlink:href="#ArialMT-56"/>
      <use xlink:href="#ArialMT-69" x="64.949219"/>
      <use xlink:href="#ArialMT-73" x="87.166016"/>
      <use xlink:href="#ArialMT-75" x="137.166016"/>
      <use xlink:href="#ArialMT-61" x="192.78125"/>
      <use xlink:href="#ArialMT-6c" x="248.396484"/>
      <use xlink:href="#ArialMT-20" x="270.613281"/>
      <use xlink:href="#ArialMT-46" x="298.396484"/>
      <use xlink:href="#ArialMT-65" x="359.480469"/>
      <use xlink:href="#ArialMT-65" x="415.095703"/>
      <use xlink:href="#ArialMT-64" x="470.710938"/>
      <use xlink:href="#ArialMT-62" x="526.326172"/>
      <use xlink:href="#ArialMT-61" x="581.941406"/>
      <use xlink:href="#ArialMT-63" x="637.556641"/>
      <use xlink:href="#ArialMT-6b" x="687.556641"/>
     </g>
    </g>
    <g id="line2d_8">
     <path d="M 239.85 184.73625 
L 256.35 184.73625 
L 272.85 184.73625 
" style="fill: none; stroke: #e7267a; stroke-width: 1.5; stroke-linecap: round"/>
    </g>
    <g id="text_20">
     <!-- Combined Feedback -->
     <g style="fill: #262626" transform="translate(286.05 190.51125) scale(0.165 -0.165)">
      <use xlink:href="#ArialMT-43"/>
      <use xlink:href="#ArialMT-6f" x="72.216797"/>
      <use xlink:href="#ArialMT-6d" x="127.832031"/>
      <use xlink:href="#ArialMT-62" x="211.132812"/>
      <use xlink:href="#ArialMT-69" x="266.748047"/>
      <use xlink:href="#ArialMT-6e" x="288.964844"/>
      <use xlink:href="#ArialMT-65" x="344.580078"/>
      <use xlink:href="#ArialMT-64" x="400.195312"/>
      <use xlink:href="#ArialMT-20" x="455.810547"/>
      <use xlink:href="#ArialMT-46" x="483.59375"/>
      <use xlink:href="#ArialMT-65" x="544.677734"/>
      <use xlink:href="#ArialMT-65" x="600.292969"/>
      <use xlink:href="#ArialMT-64" x="655.908203"/>
      <use xlink:href="#ArialMT-62" x="711.523438"/>
      <use xlink:href="#ArialMT-61" x="767.138672"/>
      <use xlink:href="#ArialMT-63" x="822.753906"/>
      <use xlink:href="#ArialMT-6b" x="872.753906"/>
     </g>
    </g>
   </g>
  </g>
 </g>
 <defs>
  <clipPath id="p6c37caa588">
   <rect x="225" y="69.12" width="1395" height="443.52"/>
  </clipPath>
 </defs>
</svg>
