<?xml version="1.0" encoding="utf-8" standalone="no"?>
<!DOCTYPE svg PUBLIC "-//W3C//DTD SVG 1.1//EN"
  "http://www.w3.org/Graphics/SVG/1.1/DTD/svg11.dtd">
<!-- Created with matplotlib (https://matplotlib.org/) -->
<svg height="576pt" version="1.1" viewBox="0 0 1800 576" width="1800pt" xmlns="http://www.w3.org/2000/svg" xmlns:xlink="http://www.w3.org/1999/xlink">
 <metadata>
  <rdf:RDF xmlns:cc="http://creativecommons.org/ns#" xmlns:dc="http://purl.org/dc/elements/1.1/" xmlns:rdf="http://www.w3.org/1999/02/22-rdf-syntax-ns#">
   <cc:Work>
    <dc:type rdf:resource="http://purl.org/dc/dcmitype/StillImage"/>
    <dc:date>2022-08-27T08:06:34.271845</dc:date>
    <dc:format>image/svg+xml</dc:format>
    <dc:creator>
     <cc:Agent>
      <dc:title>Matplotlib v3.3.4, https://matplotlib.org/</dc:title>
     </cc:Agent>
    </dc:creator>
   </cc:Work>
  </rdf:RDF>
 </metadata>
 <defs>
  <style type="text/css">*{stroke-linecap:butt;stroke-linejoin:round;}</style>
 </defs>
 <g id="figure_1">
  <g id="patch_1">
   <path d="M 0 576 
L 1800 576 
L 1800 0 
L 0 0 
z
" style="fill:none;"/>
  </g>
  <g id="axes_1">
   <g id="patch_2">
    <path d="M 225 504 
L 1620 504 
L 1620 69.12 
L 225 69.12 
z
" style="fill:#ffffff;"/>
   </g>
   <g id="matplotlib.axis_1">
    <g id="xtick_1">
     <g id="line2d_1">
      <defs>
       <path d="M 0 0 
L 0 3.5 
" id="m70a53b4e73" style="stroke:#000000;stroke-width:0.8;"/>
      </defs>
      <g>
       <use style="stroke:#000000;stroke-width:0.8;" x="283.366618" xlink:href="#m70a53b4e73" y="504"/>
      </g>
     </g>
     <g id="text_1">
      <!-- 0 -->
      <g transform="translate(280.185368 518.598438)scale(0.1 -0.1)">
       <defs>
        <path d="M 31.78125 66.40625 
Q 24.171875 66.40625 20.328125 58.90625 
Q 16.5 51.421875 16.5 36.375 
Q 16.5 21.390625 20.328125 13.890625 
Q 24.171875 6.390625 31.78125 6.390625 
Q 39.453125 6.390625 43.28125 13.890625 
Q 47.125 21.390625 47.125 36.375 
Q 47.125 51.421875 43.28125 58.90625 
Q 39.453125 66.40625 31.78125 66.40625 
z
M 31.78125 74.21875 
Q 44.046875 74.21875 50.515625 64.515625 
Q 56.984375 54.828125 56.984375 36.375 
Q 56.984375 17.96875 50.515625 8.265625 
Q 44.046875 -1.421875 31.78125 -1.421875 
Q 19.53125 -1.421875 13.0625 8.265625 
Q 6.59375 17.96875 6.59375 36.375 
Q 6.59375 54.828125 13.0625 64.515625 
Q 19.53125 74.21875 31.78125 74.21875 
z
" id="DejaVuSans-48"/>
       </defs>
       <use xlink:href="#DejaVuSans-48"/>
      </g>
     </g>
    </g>
    <g id="xtick_2">
     <g id="line2d_2">
      <g>
       <use style="stroke:#000000;stroke-width:0.8;" x="535.49024" xlink:href="#m70a53b4e73" y="504"/>
      </g>
     </g>
     <g id="text_2">
      <!-- 100 -->
      <g transform="translate(525.94649 518.598438)scale(0.1 -0.1)">
       <defs>
        <path d="M 12.40625 8.296875 
L 28.515625 8.296875 
L 28.515625 63.921875 
L 10.984375 60.40625 
L 10.984375 69.390625 
L 28.421875 72.90625 
L 38.28125 72.90625 
L 38.28125 8.296875 
L 54.390625 8.296875 
L 54.390625 0 
L 12.40625 0 
z
" id="DejaVuSans-49"/>
       </defs>
       <use xlink:href="#DejaVuSans-49"/>
       <use x="63.623047" xlink:href="#DejaVuSans-48"/>
       <use x="127.246094" xlink:href="#DejaVuSans-48"/>
      </g>
     </g>
    </g>
    <g id="xtick_3">
     <g id="line2d_3">
      <g>
       <use style="stroke:#000000;stroke-width:0.8;" x="787.613862" xlink:href="#m70a53b4e73" y="504"/>
      </g>
     </g>
     <g id="text_3">
      <!-- 200 -->
      <g transform="translate(778.070112 518.598438)scale(0.1 -0.1)">
       <defs>
        <path d="M 19.1875 8.296875 
L 53.609375 8.296875 
L 53.609375 0 
L 7.328125 0 
L 7.328125 8.296875 
Q 12.9375 14.109375 22.625 23.890625 
Q 32.328125 33.6875 34.8125 36.53125 
Q 39.546875 41.84375 41.421875 45.53125 
Q 43.3125 49.21875 43.3125 52.78125 
Q 43.3125 58.59375 39.234375 62.25 
Q 35.15625 65.921875 28.609375 65.921875 
Q 23.96875 65.921875 18.8125 64.3125 
Q 13.671875 62.703125 7.8125 59.421875 
L 7.8125 69.390625 
Q 13.765625 71.78125 18.9375 73 
Q 24.125 74.21875 28.421875 74.21875 
Q 39.75 74.21875 46.484375 68.546875 
Q 53.21875 62.890625 53.21875 53.421875 
Q 53.21875 48.921875 51.53125 44.890625 
Q 49.859375 40.875 45.40625 35.40625 
Q 44.1875 33.984375 37.640625 27.21875 
Q 31.109375 20.453125 19.1875 8.296875 
z
" id="DejaVuSans-50"/>
       </defs>
       <use xlink:href="#DejaVuSans-50"/>
       <use x="63.623047" xlink:href="#DejaVuSans-48"/>
       <use x="127.246094" xlink:href="#DejaVuSans-48"/>
      </g>
     </g>
    </g>
    <g id="xtick_4">
     <g id="line2d_4">
      <g>
       <use style="stroke:#000000;stroke-width:0.8;" x="1039.737484" xlink:href="#m70a53b4e73" y="504"/>
      </g>
     </g>
     <g id="text_4">
      <!-- 300 -->
      <g transform="translate(1030.193734 518.598438)scale(0.1 -0.1)">
       <defs>
        <path d="M 40.578125 39.3125 
Q 47.65625 37.796875 51.625 33 
Q 55.609375 28.21875 55.609375 21.1875 
Q 55.609375 10.40625 48.1875 4.484375 
Q 40.765625 -1.421875 27.09375 -1.421875 
Q 22.515625 -1.421875 17.65625 -0.515625 
Q 12.796875 0.390625 7.625 2.203125 
L 7.625 11.71875 
Q 11.71875 9.328125 16.59375 8.109375 
Q 21.484375 6.890625 26.8125 6.890625 
Q 36.078125 6.890625 40.9375 10.546875 
Q 45.796875 14.203125 45.796875 21.1875 
Q 45.796875 27.640625 41.28125 31.265625 
Q 36.765625 34.90625 28.71875 34.90625 
L 20.21875 34.90625 
L 20.21875 43.015625 
L 29.109375 43.015625 
Q 36.375 43.015625 40.234375 45.921875 
Q 44.09375 48.828125 44.09375 54.296875 
Q 44.09375 59.90625 40.109375 62.90625 
Q 36.140625 65.921875 28.71875 65.921875 
Q 24.65625 65.921875 20.015625 65.03125 
Q 15.375 64.15625 9.8125 62.3125 
L 9.8125 71.09375 
Q 15.4375 72.65625 20.34375 73.4375 
Q 25.25 74.21875 29.59375 74.21875 
Q 40.828125 74.21875 47.359375 69.109375 
Q 53.90625 64.015625 53.90625 55.328125 
Q 53.90625 49.265625 50.4375 45.09375 
Q 46.96875 40.921875 40.578125 39.3125 
z
" id="DejaVuSans-51"/>
       </defs>
       <use xlink:href="#DejaVuSans-51"/>
       <use x="63.623047" xlink:href="#DejaVuSans-48"/>
       <use x="127.246094" xlink:href="#DejaVuSans-48"/>
      </g>
     </g>
    </g>
    <g id="xtick_5">
     <g id="line2d_5">
      <g>
       <use style="stroke:#000000;stroke-width:0.8;" x="1291.861106" xlink:href="#m70a53b4e73" y="504"/>
      </g>
     </g>
     <g id="text_5">
      <!-- 400 -->
      <g transform="translate(1282.317356 518.598438)scale(0.1 -0.1)">
       <defs>
        <path d="M 37.796875 64.3125 
L 12.890625 25.390625 
L 37.796875 25.390625 
z
M 35.203125 72.90625 
L 47.609375 72.90625 
L 47.609375 25.390625 
L 58.015625 25.390625 
L 58.015625 17.1875 
L 47.609375 17.1875 
L 47.609375 0 
L 37.796875 0 
L 37.796875 17.1875 
L 4.890625 17.1875 
L 4.890625 26.703125 
z
" id="DejaVuSans-52"/>
       </defs>
       <use xlink:href="#DejaVuSans-52"/>
       <use x="63.623047" xlink:href="#DejaVuSans-48"/>
       <use x="127.246094" xlink:href="#DejaVuSans-48"/>
      </g>
     </g>
    </g>
    <g id="xtick_6">
     <g id="line2d_6">
      <g>
       <use style="stroke:#000000;stroke-width:0.8;" x="1543.984728" xlink:href="#m70a53b4e73" y="504"/>
      </g>
     </g>
     <g id="text_6">
      <!-- 500 -->
      <g transform="translate(1534.440978 518.598438)scale(0.1 -0.1)">
       <defs>
        <path d="M 10.796875 72.90625 
L 49.515625 72.90625 
L 49.515625 64.59375 
L 19.828125 64.59375 
L 19.828125 46.734375 
Q 21.96875 47.46875 24.109375 47.828125 
Q 26.265625 48.1875 28.421875 48.1875 
Q 40.625 48.1875 47.75 41.5 
Q 54.890625 34.8125 54.890625 23.390625 
Q 54.890625 11.625 47.5625 5.09375 
Q 40.234375 -1.421875 26.90625 -1.421875 
Q 22.3125 -1.421875 17.546875 -0.640625 
Q 12.796875 0.140625 7.71875 1.703125 
L 7.71875 11.625 
Q 12.109375 9.234375 16.796875 8.0625 
Q 21.484375 6.890625 26.703125 6.890625 
Q 35.15625 6.890625 40.078125 11.328125 
Q 45.015625 15.765625 45.015625 23.390625 
Q 45.015625 31 40.078125 35.4375 
Q 35.15625 39.890625 26.703125 39.890625 
Q 22.75 39.890625 18.8125 39.015625 
Q 14.890625 38.140625 10.796875 36.28125 
z
" id="DejaVuSans-53"/>
       </defs>
       <use xlink:href="#DejaVuSans-53"/>
       <use x="63.623047" xlink:href="#DejaVuSans-48"/>
       <use x="127.246094" xlink:href="#DejaVuSans-48"/>
      </g>
     </g>
    </g>
    <g id="text_7">
     <!-- Trial -->
     <g transform="translate(912.285938 532.276562)scale(0.1 -0.1)">
      <defs>
       <path d="M -0.296875 72.90625 
L 61.375 72.90625 
L 61.375 64.59375 
L 35.5 64.59375 
L 35.5 0 
L 25.59375 0 
L 25.59375 64.59375 
L -0.296875 64.59375 
z
" id="DejaVuSans-84"/>
       <path d="M 41.109375 46.296875 
Q 39.59375 47.171875 37.8125 47.578125 
Q 36.03125 48 33.890625 48 
Q 26.265625 48 22.1875 43.046875 
Q 18.109375 38.09375 18.109375 28.8125 
L 18.109375 0 
L 9.078125 0 
L 9.078125 54.6875 
L 18.109375 54.6875 
L 18.109375 46.1875 
Q 20.953125 51.171875 25.484375 53.578125 
Q 30.03125 56 36.53125 56 
Q 37.453125 56 38.578125 55.875 
Q 39.703125 55.765625 41.0625 55.515625 
z
" id="DejaVuSans-114"/>
       <path d="M 9.421875 54.6875 
L 18.40625 54.6875 
L 18.40625 0 
L 9.421875 0 
z
M 9.421875 75.984375 
L 18.40625 75.984375 
L 18.40625 64.59375 
L 9.421875 64.59375 
z
" id="DejaVuSans-105"/>
       <path d="M 34.28125 27.484375 
Q 23.390625 27.484375 19.1875 25 
Q 14.984375 22.515625 14.984375 16.5 
Q 14.984375 11.71875 18.140625 8.90625 
Q 21.296875 6.109375 26.703125 6.109375 
Q 34.1875 6.109375 38.703125 11.40625 
Q 43.21875 16.703125 43.21875 25.484375 
L 43.21875 27.484375 
z
M 52.203125 31.203125 
L 52.203125 0 
L 43.21875 0 
L 43.21875 8.296875 
Q 40.140625 3.328125 35.546875 0.953125 
Q 30.953125 -1.421875 24.3125 -1.421875 
Q 15.921875 -1.421875 10.953125 3.296875 
Q 6 8.015625 6 15.921875 
Q 6 25.140625 12.171875 29.828125 
Q 18.359375 34.515625 30.609375 34.515625 
L 43.21875 34.515625 
L 43.21875 35.40625 
Q 43.21875 41.609375 39.140625 45 
Q 35.0625 48.390625 27.6875 48.390625 
Q 23 48.390625 18.546875 47.265625 
Q 14.109375 46.140625 10.015625 43.890625 
L 10.015625 52.203125 
Q 14.9375 54.109375 19.578125 55.046875 
Q 24.21875 56 28.609375 56 
Q 40.484375 56 46.34375 49.84375 
Q 52.203125 43.703125 52.203125 31.203125 
z
" id="DejaVuSans-97"/>
       <path d="M 9.421875 75.984375 
L 18.40625 75.984375 
L 18.40625 0 
L 9.421875 0 
z
" id="DejaVuSans-108"/>
      </defs>
      <use xlink:href="#DejaVuSans-84"/>
      <use x="46.333984" xlink:href="#DejaVuSans-114"/>
      <use x="87.447266" xlink:href="#DejaVuSans-105"/>
      <use x="115.230469" xlink:href="#DejaVuSans-97"/>
      <use x="176.509766" xlink:href="#DejaVuSans-108"/>
     </g>
    </g>
   </g>
   <g id="matplotlib.axis_2">
    <g id="ytick_1">
     <g id="line2d_7">
      <defs>
       <path d="M 0 0 
L -3.5 0 
" id="m13f42faa85" style="stroke:#000000;stroke-width:0.8;"/>
      </defs>
      <g>
       <use style="stroke:#000000;stroke-width:0.8;" x="225" xlink:href="#m13f42faa85" y="498.023848"/>
      </g>
     </g>
     <g id="text_8">
      <!-- 0 -->
      <g transform="translate(211.6375 501.823067)scale(0.1 -0.1)">
       <use xlink:href="#DejaVuSans-48"/>
      </g>
     </g>
    </g>
    <g id="ytick_2">
     <g id="line2d_8">
      <g>
       <use style="stroke:#000000;stroke-width:0.8;" x="225" xlink:href="#m13f42faa85" y="406.083044"/>
      </g>
     </g>
     <g id="text_9">
      <!-- 20 -->
      <g transform="translate(205.275 409.882263)scale(0.1 -0.1)">
       <use xlink:href="#DejaVuSans-50"/>
       <use x="63.623047" xlink:href="#DejaVuSans-48"/>
      </g>
     </g>
    </g>
    <g id="ytick_3">
     <g id="line2d_9">
      <g>
       <use style="stroke:#000000;stroke-width:0.8;" x="225" xlink:href="#m13f42faa85" y="314.142241"/>
      </g>
     </g>
     <g id="text_10">
      <!-- 40 -->
      <g transform="translate(205.275 317.94146)scale(0.1 -0.1)">
       <use xlink:href="#DejaVuSans-52"/>
       <use x="63.623047" xlink:href="#DejaVuSans-48"/>
      </g>
     </g>
    </g>
    <g id="ytick_4">
     <g id="line2d_10">
      <g>
       <use style="stroke:#000000;stroke-width:0.8;" x="225" xlink:href="#m13f42faa85" y="222.201438"/>
      </g>
     </g>
     <g id="text_11">
      <!-- 60 -->
      <g transform="translate(205.275 226.000656)scale(0.1 -0.1)">
       <defs>
        <path d="M 33.015625 40.375 
Q 26.375 40.375 22.484375 35.828125 
Q 18.609375 31.296875 18.609375 23.390625 
Q 18.609375 15.53125 22.484375 10.953125 
Q 26.375 6.390625 33.015625 6.390625 
Q 39.65625 6.390625 43.53125 10.953125 
Q 47.40625 15.53125 47.40625 23.390625 
Q 47.40625 31.296875 43.53125 35.828125 
Q 39.65625 40.375 33.015625 40.375 
z
M 52.59375 71.296875 
L 52.59375 62.3125 
Q 48.875 64.0625 45.09375 64.984375 
Q 41.3125 65.921875 37.59375 65.921875 
Q 27.828125 65.921875 22.671875 59.328125 
Q 17.53125 52.734375 16.796875 39.40625 
Q 19.671875 43.65625 24.015625 45.921875 
Q 28.375 48.1875 33.59375 48.1875 
Q 44.578125 48.1875 50.953125 41.515625 
Q 57.328125 34.859375 57.328125 23.390625 
Q 57.328125 12.15625 50.6875 5.359375 
Q 44.046875 -1.421875 33.015625 -1.421875 
Q 20.359375 -1.421875 13.671875 8.265625 
Q 6.984375 17.96875 6.984375 36.375 
Q 6.984375 53.65625 15.1875 63.9375 
Q 23.390625 74.21875 37.203125 74.21875 
Q 40.921875 74.21875 44.703125 73.484375 
Q 48.484375 72.75 52.59375 71.296875 
z
" id="DejaVuSans-54"/>
       </defs>
       <use xlink:href="#DejaVuSans-54"/>
       <use x="63.623047" xlink:href="#DejaVuSans-48"/>
      </g>
     </g>
    </g>
    <g id="ytick_5">
     <g id="line2d_11">
      <g>
       <use style="stroke:#000000;stroke-width:0.8;" x="225" xlink:href="#m13f42faa85" y="130.260634"/>
      </g>
     </g>
     <g id="text_12">
      <!-- 80 -->
      <g transform="translate(205.275 134.059853)scale(0.1 -0.1)">
       <defs>
        <path d="M 31.78125 34.625 
Q 24.75 34.625 20.71875 30.859375 
Q 16.703125 27.09375 16.703125 20.515625 
Q 16.703125 13.921875 20.71875 10.15625 
Q 24.75 6.390625 31.78125 6.390625 
Q 38.8125 6.390625 42.859375 10.171875 
Q 46.921875 13.96875 46.921875 20.515625 
Q 46.921875 27.09375 42.890625 30.859375 
Q 38.875 34.625 31.78125 34.625 
z
M 21.921875 38.8125 
Q 15.578125 40.375 12.03125 44.71875 
Q 8.5 49.078125 8.5 55.328125 
Q 8.5 64.0625 14.71875 69.140625 
Q 20.953125 74.21875 31.78125 74.21875 
Q 42.671875 74.21875 48.875 69.140625 
Q 55.078125 64.0625 55.078125 55.328125 
Q 55.078125 49.078125 51.53125 44.71875 
Q 48 40.375 41.703125 38.8125 
Q 48.828125 37.15625 52.796875 32.3125 
Q 56.78125 27.484375 56.78125 20.515625 
Q 56.78125 9.90625 50.3125 4.234375 
Q 43.84375 -1.421875 31.78125 -1.421875 
Q 19.734375 -1.421875 13.25 4.234375 
Q 6.78125 9.90625 6.78125 20.515625 
Q 6.78125 27.484375 10.78125 32.3125 
Q 14.796875 37.15625 21.921875 38.8125 
z
M 18.3125 54.390625 
Q 18.3125 48.734375 21.84375 45.5625 
Q 25.390625 42.390625 31.78125 42.390625 
Q 38.140625 42.390625 41.71875 45.5625 
Q 45.3125 48.734375 45.3125 54.390625 
Q 45.3125 60.0625 41.71875 63.234375 
Q 38.140625 66.40625 31.78125 66.40625 
Q 25.390625 66.40625 21.84375 63.234375 
Q 18.3125 60.0625 18.3125 54.390625 
z
" id="DejaVuSans-56"/>
       </defs>
       <use xlink:href="#DejaVuSans-56"/>
       <use x="63.623047" xlink:href="#DejaVuSans-48"/>
      </g>
     </g>
    </g>
    <g id="text_13">
     <!-- Num Changes -->
     <g transform="translate(199.195312 321.677188)rotate(-90)scale(0.1 -0.1)">
      <defs>
       <path d="M 9.8125 72.90625 
L 23.09375 72.90625 
L 55.421875 11.921875 
L 55.421875 72.90625 
L 64.984375 72.90625 
L 64.984375 0 
L 51.703125 0 
L 19.390625 60.984375 
L 19.390625 0 
L 9.8125 0 
z
" id="DejaVuSans-78"/>
       <path d="M 8.5 21.578125 
L 8.5 54.6875 
L 17.484375 54.6875 
L 17.484375 21.921875 
Q 17.484375 14.15625 20.5 10.265625 
Q 23.53125 6.390625 29.59375 6.390625 
Q 36.859375 6.390625 41.078125 11.03125 
Q 45.3125 15.671875 45.3125 23.6875 
L 45.3125 54.6875 
L 54.296875 54.6875 
L 54.296875 0 
L 45.3125 0 
L 45.3125 8.40625 
Q 42.046875 3.421875 37.71875 1 
Q 33.40625 -1.421875 27.6875 -1.421875 
Q 18.265625 -1.421875 13.375 4.4375 
Q 8.5 10.296875 8.5 21.578125 
z
M 31.109375 56 
z
" id="DejaVuSans-117"/>
       <path d="M 52 44.1875 
Q 55.375 50.25 60.0625 53.125 
Q 64.75 56 71.09375 56 
Q 79.640625 56 84.28125 50.015625 
Q 88.921875 44.046875 88.921875 33.015625 
L 88.921875 0 
L 79.890625 0 
L 79.890625 32.71875 
Q 79.890625 40.578125 77.09375 44.375 
Q 74.3125 48.1875 68.609375 48.1875 
Q 61.625 48.1875 57.5625 43.546875 
Q 53.515625 38.921875 53.515625 30.90625 
L 53.515625 0 
L 44.484375 0 
L 44.484375 32.71875 
Q 44.484375 40.625 41.703125 44.40625 
Q 38.921875 48.1875 33.109375 48.1875 
Q 26.21875 48.1875 22.15625 43.53125 
Q 18.109375 38.875 18.109375 30.90625 
L 18.109375 0 
L 9.078125 0 
L 9.078125 54.6875 
L 18.109375 54.6875 
L 18.109375 46.1875 
Q 21.1875 51.21875 25.484375 53.609375 
Q 29.78125 56 35.6875 56 
Q 41.65625 56 45.828125 52.96875 
Q 50 49.953125 52 44.1875 
z
" id="DejaVuSans-109"/>
       <path id="DejaVuSans-32"/>
       <path d="M 64.40625 67.28125 
L 64.40625 56.890625 
Q 59.421875 61.53125 53.78125 63.8125 
Q 48.140625 66.109375 41.796875 66.109375 
Q 29.296875 66.109375 22.65625 58.46875 
Q 16.015625 50.828125 16.015625 36.375 
Q 16.015625 21.96875 22.65625 14.328125 
Q 29.296875 6.6875 41.796875 6.6875 
Q 48.140625 6.6875 53.78125 8.984375 
Q 59.421875 11.28125 64.40625 15.921875 
L 64.40625 5.609375 
Q 59.234375 2.09375 53.4375 0.328125 
Q 47.65625 -1.421875 41.21875 -1.421875 
Q 24.65625 -1.421875 15.125 8.703125 
Q 5.609375 18.84375 5.609375 36.375 
Q 5.609375 53.953125 15.125 64.078125 
Q 24.65625 74.21875 41.21875 74.21875 
Q 47.75 74.21875 53.53125 72.484375 
Q 59.328125 70.75 64.40625 67.28125 
z
" id="DejaVuSans-67"/>
       <path d="M 54.890625 33.015625 
L 54.890625 0 
L 45.90625 0 
L 45.90625 32.71875 
Q 45.90625 40.484375 42.875 44.328125 
Q 39.84375 48.1875 33.796875 48.1875 
Q 26.515625 48.1875 22.3125 43.546875 
Q 18.109375 38.921875 18.109375 30.90625 
L 18.109375 0 
L 9.078125 0 
L 9.078125 75.984375 
L 18.109375 75.984375 
L 18.109375 46.1875 
Q 21.34375 51.125 25.703125 53.5625 
Q 30.078125 56 35.796875 56 
Q 45.21875 56 50.046875 50.171875 
Q 54.890625 44.34375 54.890625 33.015625 
z
" id="DejaVuSans-104"/>
       <path d="M 54.890625 33.015625 
L 54.890625 0 
L 45.90625 0 
L 45.90625 32.71875 
Q 45.90625 40.484375 42.875 44.328125 
Q 39.84375 48.1875 33.796875 48.1875 
Q 26.515625 48.1875 22.3125 43.546875 
Q 18.109375 38.921875 18.109375 30.90625 
L 18.109375 0 
L 9.078125 0 
L 9.078125 54.6875 
L 18.109375 54.6875 
L 18.109375 46.1875 
Q 21.34375 51.125 25.703125 53.5625 
Q 30.078125 56 35.796875 56 
Q 45.21875 56 50.046875 50.171875 
Q 54.890625 44.34375 54.890625 33.015625 
z
" id="DejaVuSans-110"/>
       <path d="M 45.40625 27.984375 
Q 45.40625 37.75 41.375 43.109375 
Q 37.359375 48.484375 30.078125 48.484375 
Q 22.859375 48.484375 18.828125 43.109375 
Q 14.796875 37.75 14.796875 27.984375 
Q 14.796875 18.265625 18.828125 12.890625 
Q 22.859375 7.515625 30.078125 7.515625 
Q 37.359375 7.515625 41.375 12.890625 
Q 45.40625 18.265625 45.40625 27.984375 
z
M 54.390625 6.78125 
Q 54.390625 -7.171875 48.1875 -13.984375 
Q 42 -20.796875 29.203125 -20.796875 
Q 24.46875 -20.796875 20.265625 -20.09375 
Q 16.0625 -19.390625 12.109375 -17.921875 
L 12.109375 -9.1875 
Q 16.0625 -11.328125 19.921875 -12.34375 
Q 23.78125 -13.375 27.78125 -13.375 
Q 36.625 -13.375 41.015625 -8.765625 
Q 45.40625 -4.15625 45.40625 5.171875 
L 45.40625 9.625 
Q 42.625 4.78125 38.28125 2.390625 
Q 33.9375 0 27.875 0 
Q 17.828125 0 11.671875 7.65625 
Q 5.515625 15.328125 5.515625 27.984375 
Q 5.515625 40.671875 11.671875 48.328125 
Q 17.828125 56 27.875 56 
Q 33.9375 56 38.28125 53.609375 
Q 42.625 51.21875 45.40625 46.390625 
L 45.40625 54.6875 
L 54.390625 54.6875 
z
" id="DejaVuSans-103"/>
       <path d="M 56.203125 29.59375 
L 56.203125 25.203125 
L 14.890625 25.203125 
Q 15.484375 15.921875 20.484375 11.0625 
Q 25.484375 6.203125 34.421875 6.203125 
Q 39.59375 6.203125 44.453125 7.46875 
Q 49.3125 8.734375 54.109375 11.28125 
L 54.109375 2.78125 
Q 49.265625 0.734375 44.1875 -0.34375 
Q 39.109375 -1.421875 33.890625 -1.421875 
Q 20.796875 -1.421875 13.15625 6.1875 
Q 5.515625 13.8125 5.515625 26.8125 
Q 5.515625 40.234375 12.765625 48.109375 
Q 20.015625 56 32.328125 56 
Q 43.359375 56 49.78125 48.890625 
Q 56.203125 41.796875 56.203125 29.59375 
z
M 47.21875 32.234375 
Q 47.125 39.59375 43.09375 43.984375 
Q 39.0625 48.390625 32.421875 48.390625 
Q 24.90625 48.390625 20.390625 44.140625 
Q 15.875 39.890625 15.1875 32.171875 
z
" id="DejaVuSans-101"/>
       <path d="M 44.28125 53.078125 
L 44.28125 44.578125 
Q 40.484375 46.53125 36.375 47.5 
Q 32.28125 48.484375 27.875 48.484375 
Q 21.1875 48.484375 17.84375 46.4375 
Q 14.5 44.390625 14.5 40.28125 
Q 14.5 37.15625 16.890625 35.375 
Q 19.28125 33.59375 26.515625 31.984375 
L 29.59375 31.296875 
Q 39.15625 29.25 43.1875 25.515625 
Q 47.21875 21.78125 47.21875 15.09375 
Q 47.21875 7.46875 41.1875 3.015625 
Q 35.15625 -1.421875 24.609375 -1.421875 
Q 20.21875 -1.421875 15.453125 -0.5625 
Q 10.6875 0.296875 5.421875 2 
L 5.421875 11.28125 
Q 10.40625 8.6875 15.234375 7.390625 
Q 20.0625 6.109375 24.8125 6.109375 
Q 31.15625 6.109375 34.5625 8.28125 
Q 37.984375 10.453125 37.984375 14.40625 
Q 37.984375 18.0625 35.515625 20.015625 
Q 33.0625 21.96875 24.703125 23.78125 
L 21.578125 24.515625 
Q 13.234375 26.265625 9.515625 29.90625 
Q 5.8125 33.546875 5.8125 39.890625 
Q 5.8125 47.609375 11.28125 51.796875 
Q 16.75 56 26.8125 56 
Q 31.78125 56 36.171875 55.265625 
Q 40.578125 54.546875 44.28125 53.078125 
z
" id="DejaVuSans-115"/>
      </defs>
      <use xlink:href="#DejaVuSans-78"/>
      <use x="74.804688" xlink:href="#DejaVuSans-117"/>
      <use x="138.183594" xlink:href="#DejaVuSans-109"/>
      <use x="235.595703" xlink:href="#DejaVuSans-32"/>
      <use x="267.382812" xlink:href="#DejaVuSans-67"/>
      <use x="337.207031" xlink:href="#DejaVuSans-104"/>
      <use x="400.585938" xlink:href="#DejaVuSans-97"/>
      <use x="461.865234" xlink:href="#DejaVuSans-110"/>
      <use x="525.244141" xlink:href="#DejaVuSans-103"/>
      <use x="588.720703" xlink:href="#DejaVuSans-101"/>
      <use x="650.244141" xlink:href="#DejaVuSans-115"/>
     </g>
    </g>
   </g>
   <g id="line2d_12">
    <path clip-path="url(#p9f6073e711)" d="M 288.409091 222.201438 
L 290.930327 410.680085 
L 293.451563 300.351121 
L 295.9728 314.142241 
L 298.494036 350.918562 
L 301.015272 213.007357 
L 303.536508 406.083044 
L 306.057744 304.948161 
L 308.578981 396.888964 
L 311.100217 387.694884 
L 313.621453 295.75408 
L 316.142689 401.486004 
L 318.663926 433.665285 
L 321.185162 346.321522 
L 323.706398 360.112643 
L 326.227634 429.068245 
L 328.74887 387.694884 
L 331.270107 360.112643 
L 333.791343 383.097844 
L 336.312579 355.515603 
L 338.833815 452.053446 
L 346.397524 433.665285 
L 348.91876 438.262326 
L 351.439996 433.665285 
L 353.961233 433.665285 
L 356.482469 438.262326 
L 359.003705 424.471205 
L 361.524941 442.859366 
L 364.046177 433.665285 
L 366.567414 433.665285 
L 371.609886 442.859366 
L 374.131122 429.068245 
L 376.652359 438.262326 
L 379.173595 433.665285 
L 381.694831 438.262326 
L 386.737303 429.068245 
L 389.25854 438.262326 
L 391.779776 452.053446 
L 394.301012 429.068245 
L 396.822248 442.859366 
L 404.385957 429.068245 
L 406.907193 438.262326 
L 409.428429 424.471205 
L 411.949666 387.694884 
L 414.470902 415.277125 
L 416.992138 429.068245 
L 419.513374 415.277125 
L 422.034611 396.888964 
L 424.555847 438.262326 
L 427.077083 396.888964 
L 429.598319 419.874165 
L 432.119555 433.665285 
L 434.640792 387.694884 
L 437.162028 406.083044 
L 439.683264 447.456406 
L 442.2045 433.665285 
L 444.725736 396.888964 
L 449.768209 433.665285 
L 452.289445 360.112643 
L 454.810681 433.665285 
L 462.37439 442.859366 
L 464.895626 433.665285 
L 467.416862 442.859366 
L 469.938099 438.262326 
L 472.459335 447.456406 
L 474.980571 442.859366 
L 477.501807 433.665285 
L 480.023044 433.665285 
L 482.54428 410.680085 
L 485.065516 442.859366 
L 487.586752 429.068245 
L 490.107988 424.471205 
L 492.629225 401.486004 
L 495.150461 438.262326 
L 497.671697 433.665285 
L 500.192933 203.813277 
L 502.71417 438.262326 
L 505.235406 442.859366 
L 507.756642 387.694884 
L 510.277878 396.888964 
L 512.799114 323.336321 
L 520.362823 433.665285 
L 522.884059 442.859366 
L 525.405295 419.874165 
L 527.926532 401.486004 
L 530.447768 387.694884 
L 532.969004 419.874165 
L 535.49024 327.933362 
L 538.011477 419.874165 
L 540.532713 387.694884 
L 543.053949 429.068245 
L 545.575185 401.486004 
L 548.096421 433.665285 
L 550.617658 410.680085 
L 553.138894 341.724482 
L 555.66013 447.456406 
L 558.181366 240.589598 
L 560.702603 429.068245 
L 563.223839 350.918562 
L 565.745075 341.724482 
L 568.266311 424.471205 
L 570.787547 424.471205 
L 578.351256 447.456406 
L 580.872492 452.053446 
L 583.393729 429.068245 
L 585.914965 433.665285 
L 588.436201 433.665285 
L 590.957437 438.262326 
L 593.478673 419.874165 
L 595.99991 442.859366 
L 598.521146 429.068245 
L 601.042382 401.486004 
L 603.563618 429.068245 
L 606.084855 396.888964 
L 608.606091 406.083044 
L 611.127327 442.859366 
L 613.648563 424.471205 
L 616.169799 364.709683 
L 618.691036 442.859366 
L 621.212272 433.665285 
L 623.733508 406.083044 
L 626.254744 442.859366 
L 628.77598 429.068245 
L 636.339689 401.486004 
L 638.860925 419.874165 
L 641.382162 410.680085 
L 643.903398 419.874165 
L 646.424634 268.171839 
L 648.94587 383.097844 
L 651.467106 433.665285 
L 653.988343 364.709683 
L 656.509579 346.321522 
L 659.030815 369.306723 
L 661.552051 401.486004 
L 664.073288 337.127442 
L 666.594524 373.903763 
L 669.11576 396.888964 
L 671.636996 346.321522 
L 674.158232 258.977759 
L 676.679469 410.680085 
L 679.200705 383.097844 
L 681.721941 419.874165 
L 684.243177 314.142241 
L 686.764414 438.262326 
L 694.328122 452.053446 
L 696.849358 442.859366 
L 699.370595 447.456406 
L 701.891831 387.694884 
L 704.413067 452.053446 
L 706.934303 433.665285 
L 709.455539 410.680085 
L 711.976776 447.456406 
L 714.498012 438.262326 
L 717.019248 447.456406 
L 719.540484 447.456406 
L 722.061721 438.262326 
L 724.582957 447.456406 
L 727.104193 447.456406 
L 729.625429 438.262326 
L 732.146665 447.456406 
L 734.667902 452.053446 
L 737.189138 442.859366 
L 739.710374 429.068245 
L 742.23161 452.053446 
L 744.752847 452.053446 
L 752.316555 419.874165 
L 754.837791 424.471205 
L 757.359028 387.694884 
L 759.880264 341.724482 
L 762.4015 327.933362 
L 764.922736 415.277125 
L 767.443973 396.888964 
L 769.965209 364.709683 
L 772.486445 387.694884 
L 775.007681 396.888964 
L 777.528917 424.471205 
L 780.050154 286.56 
L 782.57139 360.112643 
L 785.092626 341.724482 
L 787.613862 410.680085 
L 790.135098 263.574799 
L 792.656335 415.277125 
L 795.177571 194.619197 
L 797.698807 341.724482 
L 800.220043 350.918562 
L 802.74128 415.277125 
L 810.304988 429.068245 
L 812.826224 456.650486 
L 815.347461 387.694884 
L 817.868697 433.665285 
L 820.389933 304.948161 
L 822.911169 406.083044 
L 825.432406 456.650486 
L 827.953642 452.053446 
L 830.474878 410.680085 
L 832.996114 433.665285 
L 835.51735 387.694884 
L 838.038587 401.486004 
L 840.559823 350.918562 
L 843.081059 424.471205 
L 845.602295 424.471205 
L 848.123532 373.903763 
L 850.644768 424.471205 
L 853.166004 309.545201 
L 855.68724 447.456406 
L 858.208476 332.530402 
L 860.729713 346.321522 
L 868.293421 415.277125 
L 870.814658 401.486004 
L 873.335894 378.500803 
L 875.85713 346.321522 
L 878.378366 424.471205 
L 880.899602 442.859366 
L 883.420839 433.665285 
L 885.942075 369.306723 
L 888.463311 438.262326 
L 890.984547 396.888964 
L 893.505783 442.859366 
L 898.548256 433.665285 
L 901.069492 419.874165 
L 903.590728 419.874165 
L 906.111965 438.262326 
L 908.633201 429.068245 
L 911.154437 406.083044 
L 913.675673 442.859366 
L 916.196909 419.874165 
L 918.718146 438.262326 
L 926.281854 433.665285 
L 928.803091 419.874165 
L 931.324327 360.112643 
L 933.845563 410.680085 
L 936.366799 424.471205 
L 938.888035 396.888964 
L 941.409272 419.874165 
L 943.930508 360.112643 
L 946.451744 424.471205 
L 948.97298 415.277125 
L 951.494217 364.709683 
L 954.015453 378.500803 
L 956.536689 406.083044 
L 961.579161 369.306723 
L 964.100398 401.486004 
L 966.621634 401.486004 
L 969.14287 369.306723 
L 971.664106 360.112643 
L 974.185342 396.888964 
L 976.706579 378.500803 
L 984.270287 406.083044 
L 986.791524 364.709683 
L 989.31276 360.112643 
L 991.833996 438.262326 
L 994.355232 387.694884 
L 996.876468 410.680085 
L 999.397705 442.859366 
L 1001.918941 429.068245 
L 1004.440177 332.530402 
L 1006.961413 415.277125 
L 1009.48265 346.321522 
L 1012.003886 433.665285 
L 1014.525122 410.680085 
L 1017.046358 429.068245 
L 1019.567594 433.665285 
L 1022.088831 350.918562 
L 1024.610067 88.887273 
L 1027.131303 415.277125 
L 1029.652539 406.083044 
L 1032.173776 442.859366 
L 1034.695012 383.097844 
L 1042.25872 433.665285 
L 1044.779957 383.097844 
L 1047.301193 419.874165 
L 1052.343665 401.486004 
L 1054.864902 406.083044 
L 1057.386138 415.277125 
L 1059.907374 387.694884 
L 1062.42861 369.306723 
L 1064.949846 254.380719 
L 1067.471083 406.083044 
L 1069.992319 286.56 
L 1072.513555 419.874165 
L 1075.034791 429.068245 
L 1077.556027 433.665285 
L 1080.077264 337.127442 
L 1082.5985 378.500803 
L 1085.119736 304.948161 
L 1087.640972 442.859366 
L 1090.162209 396.888964 
L 1092.683445 442.859366 
L 1100.247153 383.097844 
L 1102.76839 272.768879 
L 1105.289626 254.380719 
L 1107.810862 341.724482 
L 1110.332098 392.291924 
L 1112.853335 277.36592 
L 1115.374571 350.918562 
L 1117.895807 401.486004 
L 1120.417043 355.515603 
L 1122.938279 337.127442 
L 1125.459516 378.500803 
L 1127.980752 318.739281 
L 1130.501988 346.321522 
L 1135.544461 410.680085 
L 1138.065697 415.277125 
L 1140.586933 314.142241 
L 1143.108169 369.306723 
L 1148.150642 332.530402 
L 1150.671878 341.724482 
L 1158.235586 433.665285 
L 1160.756823 415.277125 
L 1163.278059 433.665285 
L 1165.799295 392.291924 
L 1168.320531 387.694884 
L 1170.841768 433.665285 
L 1173.363004 429.068245 
L 1175.88424 433.665285 
L 1183.447949 433.665285 
L 1185.969185 415.277125 
L 1188.490421 392.291924 
L 1191.011657 433.665285 
L 1193.532894 281.96296 
L 1196.05413 433.665285 
L 1198.575366 360.112643 
L 1203.617838 433.665285 
L 1206.139075 373.903763 
L 1208.660311 438.262326 
L 1216.22402 433.665285 
L 1218.745256 410.680085 
L 1221.266492 419.874165 
L 1223.787728 442.859366 
L 1226.308964 429.068245 
L 1228.830201 442.859366 
L 1231.351437 415.277125 
L 1233.872673 415.277125 
L 1236.393909 419.874165 
L 1238.915145 433.665285 
L 1241.436382 378.500803 
L 1243.957618 424.471205 
L 1246.478854 401.486004 
L 1249.00009 438.262326 
L 1251.521327 424.471205 
L 1254.042563 392.291924 
L 1256.563799 406.083044 
L 1259.085035 392.291924 
L 1261.606271 419.874165 
L 1264.127508 424.471205 
L 1266.648744 387.694884 
L 1274.212453 291.15704 
L 1276.733689 291.15704 
L 1279.254925 387.694884 
L 1281.776161 369.306723 
L 1284.297397 383.097844 
L 1286.818634 383.097844 
L 1289.33987 424.471205 
L 1294.382342 369.306723 
L 1296.903579 350.918562 
L 1299.424815 396.888964 
L 1301.946051 364.709683 
L 1304.467287 406.083044 
L 1306.988523 341.724482 
L 1309.50976 295.75408 
L 1312.030996 314.142241 
L 1314.552232 378.500803 
L 1317.073468 327.933362 
L 1319.594705 392.291924 
L 1322.115941 337.127442 
L 1324.637177 401.486004 
L 1332.200886 387.694884 
L 1334.722122 406.083044 
L 1337.243358 378.500803 
L 1339.764594 383.097844 
L 1342.28583 341.724482 
L 1344.807067 415.277125 
L 1347.328303 396.888964 
L 1349.849539 392.291924 
L 1352.370775 424.471205 
L 1354.892012 373.903763 
L 1357.413248 392.291924 
L 1359.934484 346.321522 
L 1362.45572 373.903763 
L 1364.976956 291.15704 
L 1367.498193 419.874165 
L 1370.019429 383.097844 
L 1372.540665 378.500803 
L 1375.061901 433.665285 
L 1377.583138 406.083044 
L 1380.104374 337.127442 
L 1382.62561 383.097844 
L 1390.189319 424.471205 
L 1392.710555 429.068245 
L 1395.231791 401.486004 
L 1397.753027 438.262326 
L 1400.274264 429.068245 
L 1402.7955 378.500803 
L 1405.316736 442.859366 
L 1407.837972 406.083044 
L 1410.359208 429.068245 
L 1412.880445 396.888964 
L 1415.401681 346.321522 
L 1417.922917 392.291924 
L 1420.444153 369.306723 
L 1422.965389 415.277125 
L 1425.486626 350.918562 
L 1428.007862 401.486004 
L 1430.529098 429.068245 
L 1433.050334 360.112643 
L 1435.571571 406.083044 
L 1438.092807 433.665285 
L 1440.614043 355.515603 
L 1448.177752 438.262326 
L 1450.698988 419.874165 
L 1453.220224 442.859366 
L 1455.74146 424.471205 
L 1458.262697 415.277125 
L 1460.783933 424.471205 
L 1463.305169 442.859366 
L 1468.347641 424.471205 
L 1470.868878 433.665285 
L 1473.390114 419.874165 
L 1475.91135 419.874165 
L 1478.432586 442.859366 
L 1480.953823 429.068245 
L 1483.475059 424.471205 
L 1485.996295 406.083044 
L 1488.517531 447.456406 
L 1491.038767 447.456406 
L 1493.560004 442.859366 
L 1496.08124 429.068245 
L 1506.166185 484.232727 
L 1508.687421 456.650486 
L 1511.208657 369.306723 
L 1513.729893 470.441607 
L 1516.25113 415.277125 
L 1518.772366 424.471205 
L 1521.293602 410.680085 
L 1523.814838 456.650486 
L 1526.336074 387.694884 
L 1528.857311 341.724482 
L 1531.378547 438.262326 
L 1533.899783 438.262326 
L 1536.421019 419.874165 
L 1538.942256 295.75408 
L 1541.463492 392.291924 
L 1543.984728 387.694884 
L 1549.0272 415.277125 
L 1551.548437 378.500803 
L 1554.069673 373.903763 
L 1556.590909 438.262326 
L 1556.590909 438.262326 
" style="fill:none;stroke:#1f77b4;stroke-linecap:square;stroke-width:1.5;"/>
   </g>
   <g id="line2d_13">
    <path clip-path="url(#p9f6073e711)" d="M 288.409091 433.665285 
L 290.930327 442.859366 
L 293.451563 438.262326 
L 295.9728 419.874165 
L 298.494036 341.724482 
L 301.015272 406.083044 
L 303.536508 392.291924 
L 306.057744 396.888964 
L 308.578981 424.471205 
L 311.100217 433.665285 
L 313.621453 433.665285 
L 316.142689 369.306723 
L 318.663926 415.277125 
L 321.185162 415.277125 
L 323.706398 442.859366 
L 326.227634 387.694884 
L 328.74887 392.291924 
L 331.270107 438.262326 
L 333.791343 350.918562 
L 336.312579 442.859366 
L 338.833815 355.515603 
L 346.397524 424.471205 
L 353.961233 438.262326 
L 356.482469 424.471205 
L 359.003705 438.262326 
L 361.524941 429.068245 
L 364.046177 433.665285 
L 369.08865 433.665285 
L 371.609886 419.874165 
L 374.131122 433.665285 
L 376.652359 438.262326 
L 379.173595 424.471205 
L 381.694831 438.262326 
L 384.216067 433.665285 
L 389.25854 433.665285 
L 391.779776 424.471205 
L 394.301012 433.665285 
L 396.822248 433.665285 
L 404.385957 415.277125 
L 406.907193 438.262326 
L 409.428429 360.112643 
L 411.949666 291.15704 
L 414.470902 291.15704 
L 416.992138 424.471205 
L 419.513374 424.471205 
L 422.034611 438.262326 
L 424.555847 415.277125 
L 427.077083 438.262326 
L 429.598319 364.709683 
L 432.119555 415.277125 
L 434.640792 433.665285 
L 437.162028 438.262326 
L 439.683264 406.083044 
L 442.2045 419.874165 
L 444.725736 438.262326 
L 447.246973 369.306723 
L 449.768209 424.471205 
L 452.289445 419.874165 
L 454.810681 424.471205 
L 462.37439 456.650486 
L 464.895626 433.665285 
L 467.416862 461.247526 
L 469.938099 447.456406 
L 472.459335 442.859366 
L 474.980571 369.306723 
L 477.501807 424.471205 
L 480.023044 378.500803 
L 482.54428 415.277125 
L 485.065516 401.486004 
L 487.586752 401.486004 
L 490.107988 396.888964 
L 492.629225 433.665285 
L 495.150461 442.859366 
L 497.671697 447.456406 
L 500.192933 429.068245 
L 502.71417 396.888964 
L 505.235406 433.665285 
L 512.799114 392.291924 
L 520.362823 406.083044 
L 522.884059 429.068245 
L 525.405295 419.874165 
L 527.926532 415.277125 
L 530.447768 424.471205 
L 532.969004 364.709683 
L 535.49024 419.874165 
L 538.011477 373.903763 
L 540.532713 387.694884 
L 543.053949 442.859366 
L 545.575185 424.471205 
L 548.096421 415.277125 
L 550.617658 424.471205 
L 553.138894 447.456406 
L 555.66013 392.291924 
L 558.181366 442.859366 
L 560.702603 433.665285 
L 563.223839 410.680085 
L 565.745075 415.277125 
L 568.266311 429.068245 
L 570.787547 410.680085 
L 578.351256 424.471205 
L 580.872492 373.903763 
L 583.393729 438.262326 
L 585.914965 433.665285 
L 588.436201 433.665285 
L 590.957437 438.262326 
L 593.478673 447.456406 
L 595.99991 447.456406 
L 598.521146 433.665285 
L 601.042382 442.859366 
L 603.563618 410.680085 
L 606.084855 415.277125 
L 608.606091 438.262326 
L 611.127327 429.068245 
L 613.648563 406.083044 
L 616.169799 438.262326 
L 618.691036 429.068245 
L 621.212272 369.306723 
L 623.733508 433.665285 
L 626.254744 447.456406 
L 628.77598 364.709683 
L 636.339689 341.724482 
L 638.860925 171.633996 
L 641.382162 396.888964 
L 643.903398 314.142241 
L 646.424634 272.768879 
L 648.94587 415.277125 
L 651.467106 291.15704 
L 653.988343 249.783679 
L 656.509579 364.709683 
L 659.030815 401.486004 
L 661.552051 346.321522 
L 664.073288 350.918562 
L 666.594524 410.680085 
L 669.11576 249.783679 
L 671.636996 438.262326 
L 674.158232 337.127442 
L 676.679469 272.768879 
L 679.200705 199.216237 
L 684.243177 373.903763 
L 686.764414 396.888964 
L 694.328122 452.053446 
L 696.849358 447.456406 
L 699.370595 406.083044 
L 701.891831 447.456406 
L 704.413067 429.068245 
L 706.934303 452.053446 
L 709.455539 447.456406 
L 711.976776 447.456406 
L 714.498012 452.053446 
L 717.019248 442.859366 
L 719.540484 447.456406 
L 722.061721 442.859366 
L 724.582957 447.456406 
L 727.104193 438.262326 
L 729.625429 447.456406 
L 732.146665 447.456406 
L 734.667902 406.083044 
L 737.189138 419.874165 
L 739.710374 424.471205 
L 742.23161 433.665285 
L 744.752847 447.456406 
L 752.316555 424.471205 
L 754.837791 360.112643 
L 757.359028 410.680085 
L 759.880264 410.680085 
L 762.4015 415.277125 
L 764.922736 378.500803 
L 767.443973 383.097844 
L 769.965209 378.500803 
L 772.486445 410.680085 
L 775.007681 392.291924 
L 777.528917 419.874165 
L 780.050154 314.142241 
L 782.57139 419.874165 
L 785.092626 442.859366 
L 787.613862 373.903763 
L 790.135098 419.874165 
L 792.656335 378.500803 
L 795.177571 392.291924 
L 797.698807 396.888964 
L 800.220043 424.471205 
L 802.74128 383.097844 
L 810.304988 272.768879 
L 812.826224 309.545201 
L 815.347461 254.380719 
L 817.868697 304.948161 
L 820.389933 254.380719 
L 822.911169 327.933362 
L 825.432406 199.216237 
L 827.953642 369.306723 
L 830.474878 235.992558 
L 832.996114 360.112643 
L 835.51735 396.888964 
L 838.038587 300.351121 
L 840.559823 350.918562 
L 843.081059 415.277125 
L 845.602295 360.112643 
L 848.123532 438.262326 
L 850.644768 396.888964 
L 853.166004 396.888964 
L 855.68724 387.694884 
L 858.208476 213.007357 
L 860.729713 387.694884 
L 868.293421 369.306723 
L 870.814658 429.068245 
L 873.335894 433.665285 
L 875.85713 396.888964 
L 878.378366 419.874165 
L 880.899602 387.694884 
L 883.420839 438.262326 
L 885.942075 387.694884 
L 888.463311 429.068245 
L 890.984547 341.724482 
L 893.505783 424.471205 
L 896.02702 429.068245 
L 898.548256 369.306723 
L 901.069492 406.083044 
L 903.590728 424.471205 
L 906.111965 438.262326 
L 908.633201 433.665285 
L 911.154437 396.888964 
L 913.675673 415.277125 
L 916.196909 401.486004 
L 918.718146 415.277125 
L 928.803091 415.277125 
L 931.324327 387.694884 
L 933.845563 433.665285 
L 936.366799 373.903763 
L 938.888035 415.277125 
L 941.409272 396.888964 
L 943.930508 396.888964 
L 946.451744 433.665285 
L 948.97298 406.083044 
L 951.494217 429.068245 
L 954.015453 415.277125 
L 956.536689 383.097844 
L 959.057925 424.471205 
L 961.579161 387.694884 
L 964.100398 433.665285 
L 966.621634 401.486004 
L 969.14287 373.903763 
L 971.664106 277.36592 
L 974.185342 369.306723 
L 976.706579 332.530402 
L 984.270287 406.083044 
L 986.791524 429.068245 
L 989.31276 438.262326 
L 991.833996 410.680085 
L 994.355232 415.277125 
L 996.876468 300.351121 
L 999.397705 424.471205 
L 1001.918941 383.097844 
L 1004.440177 396.888964 
L 1006.961413 447.456406 
L 1012.003886 429.068245 
L 1014.525122 323.336321 
L 1017.046358 355.515603 
L 1019.567594 429.068245 
L 1022.088831 433.665285 
L 1024.610067 396.888964 
L 1027.131303 373.903763 
L 1029.652539 383.097844 
L 1032.173776 401.486004 
L 1034.695012 355.515603 
L 1042.25872 355.515603 
L 1044.779957 452.053446 
L 1047.301193 415.277125 
L 1049.822429 406.083044 
L 1052.343665 438.262326 
L 1054.864902 341.724482 
L 1057.386138 392.291924 
L 1059.907374 387.694884 
L 1062.42861 332.530402 
L 1064.949846 438.262326 
L 1067.471083 318.739281 
L 1069.992319 410.680085 
L 1072.513555 401.486004 
L 1075.034791 452.053446 
L 1077.556027 373.903763 
L 1080.077264 341.724482 
L 1082.5985 369.306723 
L 1085.119736 442.859366 
L 1087.640972 406.083044 
L 1090.162209 337.127442 
L 1092.683445 433.665285 
L 1100.247153 364.709683 
L 1102.76839 387.694884 
L 1105.289626 383.097844 
L 1107.810862 304.948161 
L 1110.332098 350.918562 
L 1112.853335 373.903763 
L 1115.374571 314.142241 
L 1117.895807 401.486004 
L 1120.417043 364.709683 
L 1122.938279 157.842875 
L 1125.459516 433.665285 
L 1127.980752 429.068245 
L 1130.501988 387.694884 
L 1133.023224 378.500803 
L 1135.544461 406.083044 
L 1138.065697 350.918562 
L 1140.586933 419.874165 
L 1143.108169 396.888964 
L 1145.629405 314.142241 
L 1148.150642 415.277125 
L 1150.671878 424.471205 
L 1158.235586 415.277125 
L 1160.756823 433.665285 
L 1163.278059 433.665285 
L 1165.799295 387.694884 
L 1168.320531 410.680085 
L 1170.841768 364.709683 
L 1173.363004 424.471205 
L 1175.88424 438.262326 
L 1178.405476 424.471205 
L 1180.926712 364.709683 
L 1183.447949 373.903763 
L 1185.969185 318.739281 
L 1188.490421 438.262326 
L 1191.011657 433.665285 
L 1193.532894 410.680085 
L 1196.05413 438.262326 
L 1198.575366 406.083044 
L 1201.096602 369.306723 
L 1203.617838 433.665285 
L 1206.139075 424.471205 
L 1208.660311 433.665285 
L 1216.22402 433.665285 
L 1218.745256 323.336321 
L 1221.266492 373.903763 
L 1223.787728 378.500803 
L 1226.308964 286.56 
L 1228.830201 396.888964 
L 1231.351437 419.874165 
L 1233.872673 383.097844 
L 1236.393909 401.486004 
L 1238.915145 401.486004 
L 1241.436382 304.948161 
L 1243.957618 410.680085 
L 1246.478854 327.933362 
L 1249.00009 438.262326 
L 1251.521327 396.888964 
L 1254.042563 433.665285 
L 1256.563799 424.471205 
L 1259.085035 410.680085 
L 1261.606271 295.75408 
L 1264.127508 396.888964 
L 1266.648744 401.486004 
L 1274.212453 369.306723 
L 1276.733689 373.903763 
L 1279.254925 383.097844 
L 1281.776161 378.500803 
L 1284.297397 378.500803 
L 1286.818634 396.888964 
L 1289.33987 406.083044 
L 1294.382342 387.694884 
L 1296.903579 314.142241 
L 1299.424815 323.336321 
L 1301.946051 406.083044 
L 1304.467287 387.694884 
L 1306.988523 419.874165 
L 1309.50976 318.739281 
L 1312.030996 378.500803 
L 1314.552232 378.500803 
L 1317.073468 350.918562 
L 1319.594705 387.694884 
L 1322.115941 387.694884 
L 1324.637177 360.112643 
L 1332.200886 350.918562 
L 1334.722122 378.500803 
L 1337.243358 341.724482 
L 1339.764594 406.083044 
L 1342.28583 327.933362 
L 1344.807067 392.291924 
L 1347.328303 433.665285 
L 1349.849539 396.888964 
L 1352.370775 433.665285 
L 1354.892012 295.75408 
L 1357.413248 360.112643 
L 1359.934484 401.486004 
L 1362.45572 360.112643 
L 1364.976956 387.694884 
L 1367.498193 442.859366 
L 1370.019429 415.277125 
L 1372.540665 337.127442 
L 1375.061901 424.471205 
L 1377.583138 318.739281 
L 1380.104374 424.471205 
L 1382.62561 396.888964 
L 1390.189319 438.262326 
L 1392.710555 424.471205 
L 1395.231791 438.262326 
L 1397.753027 369.306723 
L 1400.274264 433.665285 
L 1405.316736 433.665285 
L 1407.837972 373.903763 
L 1410.359208 415.277125 
L 1412.880445 360.112643 
L 1415.401681 341.724482 
L 1417.922917 387.694884 
L 1420.444153 429.068245 
L 1422.965389 415.277125 
L 1425.486626 387.694884 
L 1428.007862 433.665285 
L 1430.529098 378.500803 
L 1433.050334 438.262326 
L 1435.571571 433.665285 
L 1438.092807 406.083044 
L 1440.614043 415.277125 
L 1448.177752 433.665285 
L 1450.698988 442.859366 
L 1453.220224 447.456406 
L 1455.74146 383.097844 
L 1458.262697 387.694884 
L 1460.783933 424.471205 
L 1463.305169 424.471205 
L 1465.826405 447.456406 
L 1468.347641 447.456406 
L 1473.390114 401.486004 
L 1475.91135 415.277125 
L 1480.953823 424.471205 
L 1483.475059 424.471205 
L 1485.996295 442.859366 
L 1488.517531 447.456406 
L 1491.038767 433.665285 
L 1496.08124 433.665285 
L 1498.602476 442.859366 
L 1506.166185 383.097844 
L 1508.687421 429.068245 
L 1511.208657 419.874165 
L 1513.729893 429.068245 
L 1516.25113 433.665285 
L 1518.772366 442.859366 
L 1521.293602 406.083044 
L 1523.814838 424.471205 
L 1526.336074 332.530402 
L 1528.857311 456.650486 
L 1531.378547 369.306723 
L 1533.899783 429.068245 
L 1536.421019 406.083044 
L 1538.942256 419.874165 
L 1541.463492 323.336321 
L 1543.984728 406.083044 
L 1546.505964 364.709683 
L 1549.0272 424.471205 
L 1551.548437 438.262326 
L 1554.069673 429.068245 
L 1556.590909 433.665285 
L 1556.590909 433.665285 
" style="fill:none;stroke:#ff7f0e;stroke-linecap:square;stroke-width:1.5;"/>
   </g>
   <g id="line2d_14">
    <path clip-path="url(#p9f6073e711)" d="M 288.409091 415.277125 
L 290.930327 433.665285 
L 293.451563 442.859366 
L 295.9728 415.277125 
L 298.494036 447.456406 
L 301.015272 410.680085 
L 303.536508 438.262326 
L 306.057744 438.262326 
L 308.578981 433.665285 
L 311.100217 433.665285 
L 313.621453 415.277125 
L 316.142689 392.291924 
L 318.663926 442.859366 
L 321.185162 433.665285 
L 326.227634 442.859366 
L 331.270107 433.665285 
L 333.791343 410.680085 
L 336.312579 433.665285 
L 338.833815 447.456406 
L 346.397524 433.665285 
L 348.91876 433.665285 
L 351.439996 415.277125 
L 353.961233 424.471205 
L 356.482469 438.262326 
L 359.003705 424.471205 
L 361.524941 433.665285 
L 364.046177 438.262326 
L 366.567414 433.665285 
L 369.08865 433.665285 
L 371.609886 424.471205 
L 374.131122 433.665285 
L 376.652359 433.665285 
L 379.173595 424.471205 
L 381.694831 433.665285 
L 384.216067 433.665285 
L 386.737303 424.471205 
L 389.25854 433.665285 
L 391.779776 424.471205 
L 394.301012 433.665285 
L 404.385957 433.665285 
L 406.907193 424.471205 
L 409.428429 438.262326 
L 411.949666 438.262326 
L 414.470902 433.665285 
L 416.992138 438.262326 
L 422.034611 438.262326 
L 424.555847 415.277125 
L 427.077083 433.665285 
L 432.119555 424.471205 
L 434.640792 433.665285 
L 437.162028 438.262326 
L 442.2045 438.262326 
L 444.725736 360.112643 
L 447.246973 406.083044 
L 449.768209 433.665285 
L 454.810681 433.665285 
L 462.37439 415.277125 
L 464.895626 438.262326 
L 467.416862 364.709683 
L 469.938099 438.262326 
L 472.459335 424.471205 
L 474.980571 396.888964 
L 477.501807 392.291924 
L 480.023044 452.053446 
L 482.54428 447.456406 
L 485.065516 433.665285 
L 487.586752 424.471205 
L 490.107988 396.888964 
L 492.629225 433.665285 
L 495.150461 429.068245 
L 497.671697 433.665285 
L 500.192933 383.097844 
L 502.71417 442.859366 
L 505.235406 438.262326 
L 507.756642 452.053446 
L 510.277878 452.053446 
L 512.799114 442.859366 
L 520.362823 438.262326 
L 525.405295 438.262326 
L 527.926532 378.500803 
L 530.447768 360.112643 
L 532.969004 415.277125 
L 535.49024 401.486004 
L 538.011477 438.262326 
L 540.532713 438.262326 
L 543.053949 415.277125 
L 545.575185 433.665285 
L 550.617658 406.083044 
L 553.138894 438.262326 
L 555.66013 447.456406 
L 558.181366 415.277125 
L 560.702603 447.456406 
L 565.745075 429.068245 
L 568.266311 438.262326 
L 570.787547 373.903763 
L 578.351256 424.471205 
L 580.872492 387.694884 
L 583.393729 433.665285 
L 585.914965 433.665285 
L 588.436201 438.262326 
L 590.957437 438.262326 
L 593.478673 415.277125 
L 595.99991 378.500803 
L 598.521146 442.859366 
L 601.042382 438.262326 
L 603.563618 424.471205 
L 606.084855 424.471205 
L 608.606091 433.665285 
L 611.127327 433.665285 
L 613.648563 383.097844 
L 616.169799 442.859366 
L 618.691036 424.471205 
L 621.212272 442.859366 
L 623.733508 442.859366 
L 626.254744 415.277125 
L 628.77598 442.859366 
L 636.339689 383.097844 
L 638.860925 364.709683 
L 641.382162 415.277125 
L 643.903398 360.112643 
L 646.424634 341.724482 
L 648.94587 424.471205 
L 651.467106 433.665285 
L 653.988343 387.694884 
L 656.509579 415.277125 
L 659.030815 433.665285 
L 661.552051 429.068245 
L 664.073288 378.500803 
L 666.594524 337.127442 
L 669.11576 424.471205 
L 671.636996 442.859366 
L 674.158232 433.665285 
L 676.679469 387.694884 
L 679.200705 442.859366 
L 681.721941 424.471205 
L 684.243177 415.277125 
L 686.764414 433.665285 
L 694.328122 447.456406 
L 696.849358 447.456406 
L 699.370595 433.665285 
L 701.891831 438.262326 
L 704.413067 452.053446 
L 709.455539 452.053446 
L 711.976776 429.068245 
L 714.498012 429.068245 
L 717.019248 438.262326 
L 719.540484 438.262326 
L 722.061721 350.918562 
L 724.582957 447.456406 
L 727.104193 392.291924 
L 729.625429 442.859366 
L 732.146665 447.456406 
L 734.667902 429.068245 
L 737.189138 447.456406 
L 739.710374 415.277125 
L 744.752847 452.053446 
L 752.316555 415.277125 
L 754.837791 433.665285 
L 757.359028 424.471205 
L 759.880264 396.888964 
L 762.4015 442.859366 
L 767.443973 415.277125 
L 769.965209 442.859366 
L 772.486445 424.471205 
L 775.007681 415.277125 
L 777.528917 438.262326 
L 780.050154 419.874165 
L 782.57139 406.083044 
L 785.092626 438.262326 
L 787.613862 433.665285 
L 790.135098 433.665285 
L 792.656335 438.262326 
L 795.177571 373.903763 
L 797.698807 433.665285 
L 800.220043 424.471205 
L 802.74128 433.665285 
L 810.304988 346.321522 
L 812.826224 452.053446 
L 815.347461 447.456406 
L 817.868697 447.456406 
L 820.389933 438.262326 
L 825.432406 447.456406 
L 827.953642 447.456406 
L 830.474878 415.277125 
L 832.996114 433.665285 
L 835.51735 429.068245 
L 838.038587 410.680085 
L 840.559823 442.859366 
L 843.081059 424.471205 
L 845.602295 401.486004 
L 848.123532 447.456406 
L 850.644768 452.053446 
L 853.166004 415.277125 
L 855.68724 396.888964 
L 858.208476 360.112643 
L 860.729713 447.456406 
L 868.293421 396.888964 
L 870.814658 424.471205 
L 873.335894 424.471205 
L 875.85713 433.665285 
L 880.899602 433.665285 
L 883.420839 424.471205 
L 885.942075 424.471205 
L 888.463311 433.665285 
L 890.984547 396.888964 
L 893.505783 433.665285 
L 896.02702 438.262326 
L 898.548256 396.888964 
L 901.069492 410.680085 
L 903.590728 383.097844 
L 906.111965 410.680085 
L 908.633201 419.874165 
L 911.154437 415.277125 
L 913.675673 433.665285 
L 916.196909 424.471205 
L 918.718146 438.262326 
L 926.281854 424.471205 
L 928.803091 424.471205 
L 931.324327 429.068245 
L 933.845563 424.471205 
L 936.366799 415.277125 
L 938.888035 369.306723 
L 941.409272 419.874165 
L 943.930508 396.888964 
L 946.451744 433.665285 
L 948.97298 433.665285 
L 951.494217 419.874165 
L 954.015453 415.277125 
L 956.536689 438.262326 
L 959.057925 433.665285 
L 961.579161 433.665285 
L 964.100398 373.903763 
L 966.621634 438.262326 
L 969.14287 406.083044 
L 971.664106 442.859366 
L 974.185342 438.262326 
L 976.706579 415.277125 
L 984.270287 447.456406 
L 986.791524 442.859366 
L 989.31276 410.680085 
L 991.833996 424.471205 
L 994.355232 429.068245 
L 996.876468 396.888964 
L 999.397705 415.277125 
L 1001.918941 438.262326 
L 1004.440177 410.680085 
L 1006.961413 424.471205 
L 1009.48265 424.471205 
L 1012.003886 442.859366 
L 1014.525122 429.068245 
L 1017.046358 442.859366 
L 1022.088831 406.083044 
L 1024.610067 415.277125 
L 1027.131303 396.888964 
L 1029.652539 442.859366 
L 1032.173776 424.471205 
L 1034.695012 424.471205 
L 1042.25872 442.859366 
L 1044.779957 419.874165 
L 1047.301193 419.874165 
L 1049.822429 438.262326 
L 1052.343665 447.456406 
L 1054.864902 442.859366 
L 1057.386138 369.306723 
L 1059.907374 410.680085 
L 1062.42861 424.471205 
L 1064.949846 433.665285 
L 1067.471083 419.874165 
L 1069.992319 442.859366 
L 1072.513555 433.665285 
L 1075.034791 429.068245 
L 1077.556027 438.262326 
L 1080.077264 406.083044 
L 1082.5985 442.859366 
L 1085.119736 429.068245 
L 1087.640972 401.486004 
L 1090.162209 442.859366 
L 1092.683445 401.486004 
L 1100.247153 433.665285 
L 1102.76839 378.500803 
L 1105.289626 433.665285 
L 1107.810862 424.471205 
L 1110.332098 433.665285 
L 1112.853335 438.262326 
L 1115.374571 424.471205 
L 1117.895807 429.068245 
L 1120.417043 396.888964 
L 1122.938279 433.665285 
L 1125.459516 387.694884 
L 1127.980752 406.083044 
L 1130.501988 378.500803 
L 1133.023224 424.471205 
L 1135.544461 433.665285 
L 1138.065697 369.306723 
L 1140.586933 438.262326 
L 1143.108169 433.665285 
L 1148.150642 433.665285 
L 1150.671878 406.083044 
L 1158.235586 433.665285 
L 1160.756823 433.665285 
L 1163.278059 424.471205 
L 1165.799295 396.888964 
L 1168.320531 433.665285 
L 1178.405476 433.665285 
L 1180.926712 401.486004 
L 1183.447949 396.888964 
L 1185.969185 438.262326 
L 1188.490421 433.665285 
L 1196.05413 433.665285 
L 1198.575366 438.262326 
L 1201.096602 433.665285 
L 1203.617838 438.262326 
L 1206.139075 433.665285 
L 1208.660311 433.665285 
L 1216.22402 410.680085 
L 1218.745256 447.456406 
L 1221.266492 442.859366 
L 1223.787728 442.859366 
L 1226.308964 438.262326 
L 1228.830201 442.859366 
L 1231.351437 442.859366 
L 1236.393909 452.053446 
L 1238.915145 442.859366 
L 1243.957618 442.859366 
L 1246.478854 452.053446 
L 1249.00009 438.262326 
L 1251.521327 410.680085 
L 1254.042563 433.665285 
L 1256.563799 415.277125 
L 1259.085035 447.456406 
L 1264.127508 438.262326 
L 1266.648744 442.859366 
L 1274.212453 433.665285 
L 1276.733689 401.486004 
L 1279.254925 419.874165 
L 1281.776161 429.068245 
L 1284.297397 415.277125 
L 1286.818634 387.694884 
L 1289.33987 424.471205 
L 1291.861106 433.665285 
L 1294.382342 419.874165 
L 1296.903579 419.874165 
L 1299.424815 406.083044 
L 1301.946051 415.277125 
L 1304.467287 378.500803 
L 1306.988523 424.471205 
L 1309.50976 424.471205 
L 1312.030996 415.277125 
L 1314.552232 433.665285 
L 1317.073468 424.471205 
L 1319.594705 438.262326 
L 1322.115941 415.277125 
L 1332.200886 415.277125 
L 1334.722122 442.859366 
L 1337.243358 442.859366 
L 1339.764594 429.068245 
L 1342.28583 442.859366 
L 1344.807067 424.471205 
L 1347.328303 438.262326 
L 1349.849539 396.888964 
L 1352.370775 433.665285 
L 1357.413248 433.665285 
L 1359.934484 429.068245 
L 1364.976956 438.262326 
L 1367.498193 429.068245 
L 1370.019429 438.262326 
L 1372.540665 424.471205 
L 1375.061901 442.859366 
L 1377.583138 424.471205 
L 1380.104374 433.665285 
L 1382.62561 438.262326 
L 1392.710555 438.262326 
L 1395.231791 442.859366 
L 1397.753027 433.665285 
L 1400.274264 433.665285 
L 1402.7955 406.083044 
L 1405.316736 442.859366 
L 1407.837972 415.277125 
L 1410.359208 433.665285 
L 1412.880445 442.859366 
L 1415.401681 429.068245 
L 1417.922917 452.053446 
L 1420.444153 442.859366 
L 1422.965389 438.262326 
L 1425.486626 442.859366 
L 1433.050334 442.859366 
L 1435.571571 360.112643 
L 1438.092807 442.859366 
L 1440.614043 442.859366 
L 1448.177752 452.053446 
L 1450.698988 452.053446 
L 1453.220224 447.456406 
L 1455.74146 433.665285 
L 1458.262697 456.650486 
L 1460.783933 429.068245 
L 1463.305169 429.068245 
L 1465.826405 442.859366 
L 1468.347641 447.456406 
L 1470.868878 442.859366 
L 1473.390114 452.053446 
L 1475.91135 447.456406 
L 1478.432586 447.456406 
L 1483.475059 438.262326 
L 1485.996295 452.053446 
L 1488.517531 442.859366 
L 1491.038767 442.859366 
L 1493.560004 447.456406 
L 1496.08124 442.859366 
L 1498.602476 442.859366 
L 1506.166185 401.486004 
L 1508.687421 424.471205 
L 1511.208657 396.888964 
L 1513.729893 401.486004 
L 1516.25113 396.888964 
L 1518.772366 438.262326 
L 1521.293602 410.680085 
L 1523.814838 410.680085 
L 1526.336074 392.291924 
L 1528.857311 424.471205 
L 1531.378547 429.068245 
L 1533.899783 396.888964 
L 1536.421019 415.277125 
L 1538.942256 364.709683 
L 1541.463492 369.306723 
L 1543.984728 392.291924 
L 1546.505964 433.665285 
L 1549.0272 438.262326 
L 1551.548437 433.665285 
L 1556.590909 396.888964 
L 1556.590909 396.888964 
" style="fill:none;stroke:#2ca02c;stroke-linecap:square;stroke-width:1.5;"/>
   </g>
   <g id="line2d_15">
    <path clip-path="url(#p9f6073e711)" d="M 288.409091 438.262326 
L 290.930327 406.083044 
L 293.451563 406.083044 
L 295.9728 429.068245 
L 298.494036 438.262326 
L 301.015272 438.262326 
L 303.536508 424.471205 
L 308.578981 442.859366 
L 313.621453 433.665285 
L 316.142689 424.471205 
L 318.663926 442.859366 
L 321.185162 433.665285 
L 323.706398 396.888964 
L 326.227634 429.068245 
L 328.74887 438.262326 
L 331.270107 442.859366 
L 333.791343 438.262326 
L 336.312579 442.859366 
L 346.397524 424.471205 
L 348.91876 424.471205 
L 351.439996 438.262326 
L 353.961233 424.471205 
L 356.482469 433.665285 
L 359.003705 433.665285 
L 361.524941 424.471205 
L 364.046177 433.665285 
L 366.567414 424.471205 
L 369.08865 438.262326 
L 371.609886 433.665285 
L 374.131122 433.665285 
L 376.652359 442.859366 
L 379.173595 433.665285 
L 381.694831 415.277125 
L 384.216067 433.665285 
L 386.737303 433.665285 
L 389.25854 438.262326 
L 391.779776 433.665285 
L 404.385957 433.665285 
L 406.907193 415.277125 
L 409.428429 433.665285 
L 424.555847 433.665285 
L 427.077083 438.262326 
L 429.598319 433.665285 
L 434.640792 433.665285 
L 437.162028 415.277125 
L 439.683264 433.665285 
L 442.2045 415.277125 
L 444.725736 433.665285 
L 452.289445 433.665285 
L 454.810681 415.277125 
L 462.37439 410.680085 
L 464.895626 456.650486 
L 467.416862 429.068245 
L 469.938099 438.262326 
L 472.459335 452.053446 
L 474.980571 424.471205 
L 477.501807 447.456406 
L 480.023044 410.680085 
L 482.54428 452.053446 
L 485.065516 442.859366 
L 487.586752 419.874165 
L 490.107988 410.680085 
L 492.629225 415.277125 
L 495.150461 456.650486 
L 497.671697 456.650486 
L 500.192933 442.859366 
L 502.71417 410.680085 
L 505.235406 438.262326 
L 507.756642 442.859366 
L 510.277878 442.859366 
L 512.799114 424.471205 
L 520.362823 392.291924 
L 522.884059 442.859366 
L 525.405295 438.262326 
L 527.926532 442.859366 
L 530.447768 406.083044 
L 532.969004 429.068245 
L 535.49024 410.680085 
L 538.011477 433.665285 
L 540.532713 442.859366 
L 543.053949 410.680085 
L 545.575185 433.665285 
L 548.096421 424.471205 
L 550.617658 438.262326 
L 553.138894 442.859366 
L 558.181366 442.859366 
L 560.702603 429.068245 
L 563.223839 406.083044 
L 565.745075 438.262326 
L 568.266311 433.665285 
L 570.787547 452.053446 
L 578.351256 424.471205 
L 580.872492 442.859366 
L 583.393729 387.694884 
L 585.914965 373.903763 
L 588.436201 442.859366 
L 590.957437 442.859366 
L 593.478673 429.068245 
L 595.99991 438.262326 
L 598.521146 424.471205 
L 601.042382 429.068245 
L 603.563618 442.859366 
L 606.084855 447.456406 
L 608.606091 442.859366 
L 611.127327 396.888964 
L 613.648563 429.068245 
L 616.169799 442.859366 
L 618.691036 442.859366 
L 621.212272 429.068245 
L 623.733508 424.471205 
L 626.254744 442.859366 
L 628.77598 442.859366 
L 636.339689 447.456406 
L 638.860925 419.874165 
L 641.382162 438.262326 
L 643.903398 433.665285 
L 646.424634 419.874165 
L 648.94587 419.874165 
L 651.467106 360.112643 
L 653.988343 406.083044 
L 656.509579 442.859366 
L 659.030815 447.456406 
L 661.552051 419.874165 
L 664.073288 268.171839 
L 666.594524 415.277125 
L 669.11576 442.859366 
L 671.636996 438.262326 
L 674.158232 415.277125 
L 676.679469 419.874165 
L 679.200705 346.321522 
L 681.721941 438.262326 
L 684.243177 373.903763 
L 686.764414 438.262326 
L 694.328122 410.680085 
L 696.849358 387.694884 
L 699.370595 424.471205 
L 701.891831 429.068245 
L 704.413067 415.277125 
L 706.934303 447.456406 
L 709.455539 396.888964 
L 711.976776 447.456406 
L 714.498012 442.859366 
L 717.019248 424.471205 
L 719.540484 438.262326 
L 722.061721 447.456406 
L 724.582957 447.456406 
L 727.104193 410.680085 
L 729.625429 447.456406 
L 732.146665 452.053446 
L 734.667902 452.053446 
L 737.189138 447.456406 
L 739.710374 447.456406 
L 742.23161 419.874165 
L 744.752847 452.053446 
L 752.316555 438.262326 
L 757.359028 438.262326 
L 759.880264 406.083044 
L 762.4015 442.859366 
L 764.922736 433.665285 
L 767.443973 433.665285 
L 769.965209 438.262326 
L 777.528917 438.262326 
L 780.050154 410.680085 
L 782.57139 438.262326 
L 785.092626 383.097844 
L 787.613862 433.665285 
L 790.135098 438.262326 
L 792.656335 415.277125 
L 795.177571 442.859366 
L 797.698807 406.083044 
L 800.220043 433.665285 
L 802.74128 410.680085 
L 810.304988 456.650486 
L 812.826224 433.665285 
L 815.347461 396.888964 
L 817.868697 442.859366 
L 820.389933 401.486004 
L 822.911169 346.321522 
L 825.432406 424.471205 
L 827.953642 406.083044 
L 830.474878 401.486004 
L 832.996114 447.456406 
L 835.51735 447.456406 
L 838.038587 429.068245 
L 840.559823 447.456406 
L 843.081059 406.083044 
L 845.602295 378.500803 
L 848.123532 447.456406 
L 850.644768 360.112643 
L 853.166004 438.262326 
L 855.68724 406.083044 
L 858.208476 369.306723 
L 860.729713 410.680085 
L 868.293421 396.888964 
L 870.814658 378.500803 
L 873.335894 433.665285 
L 875.85713 433.665285 
L 878.378366 415.277125 
L 880.899602 378.500803 
L 883.420839 433.665285 
L 885.942075 406.083044 
L 888.463311 433.665285 
L 890.984547 401.486004 
L 893.505783 396.888964 
L 896.02702 429.068245 
L 898.548256 415.277125 
L 901.069492 433.665285 
L 903.590728 378.500803 
L 906.111965 429.068245 
L 908.633201 433.665285 
L 911.154437 406.083044 
L 913.675673 406.083044 
L 916.196909 429.068245 
L 918.718146 406.083044 
L 926.281854 442.859366 
L 928.803091 369.306723 
L 931.324327 415.277125 
L 933.845563 433.665285 
L 936.366799 442.859366 
L 938.888035 438.262326 
L 941.409272 378.500803 
L 943.930508 433.665285 
L 946.451744 424.471205 
L 948.97298 424.471205 
L 951.494217 429.068245 
L 954.015453 438.262326 
L 956.536689 433.665285 
L 959.057925 424.471205 
L 961.579161 433.665285 
L 964.100398 438.262326 
L 966.621634 396.888964 
L 969.14287 369.306723 
L 971.664106 438.262326 
L 974.185342 438.262326 
L 976.706579 424.471205 
L 984.270287 447.456406 
L 986.791524 424.471205 
L 991.833996 415.277125 
L 994.355232 433.665285 
L 996.876468 447.456406 
L 999.397705 442.859366 
L 1001.918941 419.874165 
L 1004.440177 452.053446 
L 1006.961413 442.859366 
L 1009.48265 447.456406 
L 1012.003886 447.456406 
L 1014.525122 424.471205 
L 1017.046358 433.665285 
L 1022.088831 433.665285 
L 1024.610067 447.456406 
L 1027.131303 419.874165 
L 1029.652539 415.277125 
L 1032.173776 452.053446 
L 1034.695012 452.053446 
L 1042.25872 373.903763 
L 1044.779957 452.053446 
L 1047.301193 442.859366 
L 1049.822429 447.456406 
L 1052.343665 433.665285 
L 1054.864902 433.665285 
L 1057.386138 424.471205 
L 1059.907374 419.874165 
L 1062.42861 424.471205 
L 1064.949846 360.112643 
L 1067.471083 415.277125 
L 1069.992319 383.097844 
L 1072.513555 406.083044 
L 1075.034791 442.859366 
L 1077.556027 452.053446 
L 1082.5985 424.471205 
L 1085.119736 447.456406 
L 1087.640972 447.456406 
L 1090.162209 442.859366 
L 1092.683445 447.456406 
L 1100.247153 424.471205 
L 1102.76839 378.500803 
L 1105.289626 410.680085 
L 1107.810862 438.262326 
L 1110.332098 438.262326 
L 1112.853335 419.874165 
L 1115.374571 387.694884 
L 1120.417043 415.277125 
L 1122.938279 438.262326 
L 1125.459516 410.680085 
L 1127.980752 429.068245 
L 1130.501988 438.262326 
L 1133.023224 378.500803 
L 1135.544461 373.903763 
L 1138.065697 415.277125 
L 1140.586933 387.694884 
L 1143.108169 442.859366 
L 1145.629405 355.515603 
L 1148.150642 341.724482 
L 1150.671878 424.471205 
L 1158.235586 433.665285 
L 1160.756823 433.665285 
L 1163.278059 438.262326 
L 1165.799295 433.665285 
L 1168.320531 433.665285 
L 1170.841768 406.083044 
L 1173.363004 433.665285 
L 1175.88424 424.471205 
L 1178.405476 433.665285 
L 1180.926712 433.665285 
L 1183.447949 406.083044 
L 1185.969185 410.680085 
L 1188.490421 419.874165 
L 1193.532894 410.680085 
L 1196.05413 424.471205 
L 1198.575366 396.888964 
L 1201.096602 360.112643 
L 1203.617838 429.068245 
L 1206.139075 429.068245 
L 1208.660311 401.486004 
L 1216.22402 387.694884 
L 1218.745256 442.859366 
L 1221.266492 438.262326 
L 1223.787728 442.859366 
L 1226.308964 387.694884 
L 1228.830201 438.262326 
L 1231.351437 364.709683 
L 1233.872673 438.262326 
L 1236.393909 438.262326 
L 1238.915145 406.083044 
L 1241.436382 442.859366 
L 1243.957618 442.859366 
L 1249.00009 415.277125 
L 1251.521327 424.471205 
L 1254.042563 429.068245 
L 1256.563799 442.859366 
L 1259.085035 433.665285 
L 1261.606271 419.874165 
L 1264.127508 410.680085 
L 1266.648744 415.277125 
L 1274.212453 406.083044 
L 1276.733689 429.068245 
L 1279.254925 419.874165 
L 1281.776161 438.262326 
L 1284.297397 406.083044 
L 1286.818634 424.471205 
L 1289.33987 415.277125 
L 1291.861106 396.888964 
L 1294.382342 415.277125 
L 1299.424815 433.665285 
L 1301.946051 429.068245 
L 1304.467287 419.874165 
L 1306.988523 415.277125 
L 1309.50976 433.665285 
L 1312.030996 433.665285 
L 1314.552232 415.277125 
L 1317.073468 387.694884 
L 1319.594705 415.277125 
L 1322.115941 433.665285 
L 1324.637177 424.471205 
L 1332.200886 447.456406 
L 1334.722122 406.083044 
L 1337.243358 429.068245 
L 1339.764594 438.262326 
L 1342.28583 406.083044 
L 1344.807067 442.859366 
L 1349.849539 433.665285 
L 1352.370775 406.083044 
L 1354.892012 433.665285 
L 1357.413248 401.486004 
L 1359.934484 424.471205 
L 1362.45572 415.277125 
L 1364.976956 396.888964 
L 1367.498193 373.903763 
L 1370.019429 442.859366 
L 1372.540665 369.306723 
L 1375.061901 387.694884 
L 1377.583138 419.874165 
L 1380.104374 410.680085 
L 1382.62561 383.097844 
L 1390.189319 396.888964 
L 1392.710555 337.127442 
L 1395.231791 424.471205 
L 1397.753027 406.083044 
L 1400.274264 258.977759 
L 1402.7955 438.262326 
L 1405.316736 438.262326 
L 1407.837972 373.903763 
L 1410.359208 378.500803 
L 1412.880445 360.112643 
L 1415.401681 433.665285 
L 1417.922917 442.859366 
L 1420.444153 442.859366 
L 1422.965389 438.262326 
L 1425.486626 442.859366 
L 1428.007862 438.262326 
L 1430.529098 424.471205 
L 1435.571571 442.859366 
L 1438.092807 406.083044 
L 1440.614043 438.262326 
L 1448.177752 442.859366 
L 1450.698988 442.859366 
L 1453.220224 447.456406 
L 1455.74146 438.262326 
L 1458.262697 415.277125 
L 1460.783933 433.665285 
L 1465.826405 452.053446 
L 1468.347641 410.680085 
L 1470.868878 433.665285 
L 1473.390114 438.262326 
L 1475.91135 438.262326 
L 1478.432586 433.665285 
L 1480.953823 433.665285 
L 1483.475059 447.456406 
L 1485.996295 419.874165 
L 1488.517531 429.068245 
L 1491.038767 433.665285 
L 1493.560004 442.859366 
L 1496.08124 433.665285 
L 1498.602476 452.053446 
L 1506.166185 438.262326 
L 1508.687421 415.277125 
L 1511.208657 442.859366 
L 1513.729893 360.112643 
L 1516.25113 360.112643 
L 1518.772366 410.680085 
L 1521.293602 433.665285 
L 1523.814838 424.471205 
L 1526.336074 419.874165 
L 1528.857311 406.083044 
L 1531.378547 415.277125 
L 1533.899783 442.859366 
L 1536.421019 415.277125 
L 1538.942256 373.903763 
L 1541.463492 438.262326 
L 1543.984728 452.053446 
L 1546.505964 410.680085 
L 1549.0272 452.053446 
L 1551.548437 438.262326 
L 1554.069673 433.665285 
L 1556.590909 442.859366 
L 1556.590909 442.859366 
" style="fill:none;stroke:#d62728;stroke-linecap:square;stroke-width:1.5;"/>
   </g>
   <g id="patch_3">
    <path d="M 225 504 
L 225 69.12 
" style="fill:none;stroke:#000000;stroke-linecap:square;stroke-linejoin:miter;stroke-width:0.8;"/>
   </g>
   <g id="patch_4">
    <path d="M 1620 504 
L 1620 69.12 
" style="fill:none;stroke:#000000;stroke-linecap:square;stroke-linejoin:miter;stroke-width:0.8;"/>
   </g>
   <g id="patch_5">
    <path d="M 225 504 
L 1620 504 
" style="fill:none;stroke:#000000;stroke-linecap:square;stroke-linejoin:miter;stroke-width:0.8;"/>
   </g>
   <g id="patch_6">
    <path d="M 225 69.12 
L 1620 69.12 
" style="fill:none;stroke:#000000;stroke-linecap:square;stroke-linejoin:miter;stroke-width:0.8;"/>
   </g>
   <g id="text_14">
    <!-- Number of Layer Changes of each trial by Condition -->
    <g transform="translate(766.455 63.12)scale(0.12 -0.12)">
     <defs>
      <path d="M 48.6875 27.296875 
Q 48.6875 37.203125 44.609375 42.84375 
Q 40.53125 48.484375 33.40625 48.484375 
Q 26.265625 48.484375 22.1875 42.84375 
Q 18.109375 37.203125 18.109375 27.296875 
Q 18.109375 17.390625 22.1875 11.75 
Q 26.265625 6.109375 33.40625 6.109375 
Q 40.53125 6.109375 44.609375 11.75 
Q 48.6875 17.390625 48.6875 27.296875 
z
M 18.109375 46.390625 
Q 20.953125 51.265625 25.265625 53.625 
Q 29.59375 56 35.59375 56 
Q 45.5625 56 51.78125 48.09375 
Q 58.015625 40.1875 58.015625 27.296875 
Q 58.015625 14.40625 51.78125 6.484375 
Q 45.5625 -1.421875 35.59375 -1.421875 
Q 29.59375 -1.421875 25.265625 0.953125 
Q 20.953125 3.328125 18.109375 8.203125 
L 18.109375 0 
L 9.078125 0 
L 9.078125 75.984375 
L 18.109375 75.984375 
z
" id="DejaVuSans-98"/>
      <path d="M 30.609375 48.390625 
Q 23.390625 48.390625 19.1875 42.75 
Q 14.984375 37.109375 14.984375 27.296875 
Q 14.984375 17.484375 19.15625 11.84375 
Q 23.34375 6.203125 30.609375 6.203125 
Q 37.796875 6.203125 41.984375 11.859375 
Q 46.1875 17.53125 46.1875 27.296875 
Q 46.1875 37.015625 41.984375 42.703125 
Q 37.796875 48.390625 30.609375 48.390625 
z
M 30.609375 56 
Q 42.328125 56 49.015625 48.375 
Q 55.71875 40.765625 55.71875 27.296875 
Q 55.71875 13.875 49.015625 6.21875 
Q 42.328125 -1.421875 30.609375 -1.421875 
Q 18.84375 -1.421875 12.171875 6.21875 
Q 5.515625 13.875 5.515625 27.296875 
Q 5.515625 40.765625 12.171875 48.375 
Q 18.84375 56 30.609375 56 
z
" id="DejaVuSans-111"/>
      <path d="M 37.109375 75.984375 
L 37.109375 68.5 
L 28.515625 68.5 
Q 23.6875 68.5 21.796875 66.546875 
Q 19.921875 64.59375 19.921875 59.515625 
L 19.921875 54.6875 
L 34.71875 54.6875 
L 34.71875 47.703125 
L 19.921875 47.703125 
L 19.921875 0 
L 10.890625 0 
L 10.890625 47.703125 
L 2.296875 47.703125 
L 2.296875 54.6875 
L 10.890625 54.6875 
L 10.890625 58.5 
Q 10.890625 67.625 15.140625 71.796875 
Q 19.390625 75.984375 28.609375 75.984375 
z
" id="DejaVuSans-102"/>
      <path d="M 9.8125 72.90625 
L 19.671875 72.90625 
L 19.671875 8.296875 
L 55.171875 8.296875 
L 55.171875 0 
L 9.8125 0 
z
" id="DejaVuSans-76"/>
      <path d="M 32.171875 -5.078125 
Q 28.375 -14.84375 24.75 -17.8125 
Q 21.140625 -20.796875 15.09375 -20.796875 
L 7.90625 -20.796875 
L 7.90625 -13.28125 
L 13.1875 -13.28125 
Q 16.890625 -13.28125 18.9375 -11.515625 
Q 21 -9.765625 23.484375 -3.21875 
L 25.09375 0.875 
L 2.984375 54.6875 
L 12.5 54.6875 
L 29.59375 11.921875 
L 46.6875 54.6875 
L 56.203125 54.6875 
z
" id="DejaVuSans-121"/>
      <path d="M 48.78125 52.59375 
L 48.78125 44.1875 
Q 44.96875 46.296875 41.140625 47.34375 
Q 37.3125 48.390625 33.40625 48.390625 
Q 24.65625 48.390625 19.8125 42.84375 
Q 14.984375 37.3125 14.984375 27.296875 
Q 14.984375 17.28125 19.8125 11.734375 
Q 24.65625 6.203125 33.40625 6.203125 
Q 37.3125 6.203125 41.140625 7.25 
Q 44.96875 8.296875 48.78125 10.40625 
L 48.78125 2.09375 
Q 45.015625 0.34375 40.984375 -0.53125 
Q 36.96875 -1.421875 32.421875 -1.421875 
Q 20.0625 -1.421875 12.78125 6.34375 
Q 5.515625 14.109375 5.515625 27.296875 
Q 5.515625 40.671875 12.859375 48.328125 
Q 20.21875 56 33.015625 56 
Q 37.15625 56 41.109375 55.140625 
Q 45.0625 54.296875 48.78125 52.59375 
z
" id="DejaVuSans-99"/>
      <path d="M 18.3125 70.21875 
L 18.3125 54.6875 
L 36.8125 54.6875 
L 36.8125 47.703125 
L 18.3125 47.703125 
L 18.3125 18.015625 
Q 18.3125 11.328125 20.140625 9.421875 
Q 21.96875 7.515625 27.59375 7.515625 
L 36.8125 7.515625 
L 36.8125 0 
L 27.59375 0 
Q 17.1875 0 13.234375 3.875 
Q 9.28125 7.765625 9.28125 18.015625 
L 9.28125 47.703125 
L 2.6875 47.703125 
L 2.6875 54.6875 
L 9.28125 54.6875 
L 9.28125 70.21875 
z
" id="DejaVuSans-116"/>
      <path d="M 45.40625 46.390625 
L 45.40625 75.984375 
L 54.390625 75.984375 
L 54.390625 0 
L 45.40625 0 
L 45.40625 8.203125 
Q 42.578125 3.328125 38.25 0.953125 
Q 33.9375 -1.421875 27.875 -1.421875 
Q 17.96875 -1.421875 11.734375 6.484375 
Q 5.515625 14.40625 5.515625 27.296875 
Q 5.515625 40.1875 11.734375 48.09375 
Q 17.96875 56 27.875 56 
Q 33.9375 56 38.25 53.625 
Q 42.578125 51.265625 45.40625 46.390625 
z
M 14.796875 27.296875 
Q 14.796875 17.390625 18.875 11.75 
Q 22.953125 6.109375 30.078125 6.109375 
Q 37.203125 6.109375 41.296875 11.75 
Q 45.40625 17.390625 45.40625 27.296875 
Q 45.40625 37.203125 41.296875 42.84375 
Q 37.203125 48.484375 30.078125 48.484375 
Q 22.953125 48.484375 18.875 42.84375 
Q 14.796875 37.203125 14.796875 27.296875 
z
" id="DejaVuSans-100"/>
     </defs>
     <use xlink:href="#DejaVuSans-78"/>
     <use x="74.804688" xlink:href="#DejaVuSans-117"/>
     <use x="138.183594" xlink:href="#DejaVuSans-109"/>
     <use x="235.595703" xlink:href="#DejaVuSans-98"/>
     <use x="299.072266" xlink:href="#DejaVuSans-101"/>
     <use x="360.595703" xlink:href="#DejaVuSans-114"/>
     <use x="401.708984" xlink:href="#DejaVuSans-32"/>
     <use x="433.496094" xlink:href="#DejaVuSans-111"/>
     <use x="494.677734" xlink:href="#DejaVuSans-102"/>
     <use x="529.882812" xlink:href="#DejaVuSans-32"/>
     <use x="561.669922" xlink:href="#DejaVuSans-76"/>
     <use x="617.382812" xlink:href="#DejaVuSans-97"/>
     <use x="678.662109" xlink:href="#DejaVuSans-121"/>
     <use x="737.841797" xlink:href="#DejaVuSans-101"/>
     <use x="799.365234" xlink:href="#DejaVuSans-114"/>
     <use x="840.478516" xlink:href="#DejaVuSans-32"/>
     <use x="872.265625" xlink:href="#DejaVuSans-67"/>
     <use x="942.089844" xlink:href="#DejaVuSans-104"/>
     <use x="1005.46875" xlink:href="#DejaVuSans-97"/>
     <use x="1066.748047" xlink:href="#DejaVuSans-110"/>
     <use x="1130.126953" xlink:href="#DejaVuSans-103"/>
     <use x="1193.603516" xlink:href="#DejaVuSans-101"/>
     <use x="1255.126953" xlink:href="#DejaVuSans-115"/>
     <use x="1307.226562" xlink:href="#DejaVuSans-32"/>
     <use x="1339.013672" xlink:href="#DejaVuSans-111"/>
     <use x="1400.195312" xlink:href="#DejaVuSans-102"/>
     <use x="1435.400391" xlink:href="#DejaVuSans-32"/>
     <use x="1467.1875" xlink:href="#DejaVuSans-101"/>
     <use x="1528.710938" xlink:href="#DejaVuSans-97"/>
     <use x="1589.990234" xlink:href="#DejaVuSans-99"/>
     <use x="1644.970703" xlink:href="#DejaVuSans-104"/>
     <use x="1708.349609" xlink:href="#DejaVuSans-32"/>
     <use x="1740.136719" xlink:href="#DejaVuSans-116"/>
     <use x="1779.345703" xlink:href="#DejaVuSans-114"/>
     <use x="1820.458984" xlink:href="#DejaVuSans-105"/>
     <use x="1848.242188" xlink:href="#DejaVuSans-97"/>
     <use x="1909.521484" xlink:href="#DejaVuSans-108"/>
     <use x="1937.304688" xlink:href="#DejaVuSans-32"/>
     <use x="1969.091797" xlink:href="#DejaVuSans-98"/>
     <use x="2032.568359" xlink:href="#DejaVuSans-121"/>
     <use x="2091.748047" xlink:href="#DejaVuSans-32"/>
     <use x="2123.535156" xlink:href="#DejaVuSans-67"/>
     <use x="2193.359375" xlink:href="#DejaVuSans-111"/>
     <use x="2254.541016" xlink:href="#DejaVuSans-110"/>
     <use x="2317.919922" xlink:href="#DejaVuSans-100"/>
     <use x="2381.396484" xlink:href="#DejaVuSans-105"/>
     <use x="2409.179688" xlink:href="#DejaVuSans-116"/>
     <use x="2448.388672" xlink:href="#DejaVuSans-105"/>
     <use x="2476.171875" xlink:href="#DejaVuSans-111"/>
     <use x="2537.353516" xlink:href="#DejaVuSans-110"/>
    </g>
   </g>
   <g id="legend_1">
    <g id="patch_7">
     <path d="M 1479.392188 150.510625 
L 1613 150.510625 
Q 1615 150.510625 1615 148.510625 
L 1615 76.12 
Q 1615 74.12 1613 74.12 
L 1479.392188 74.12 
Q 1477.392188 74.12 1477.392188 76.12 
L 1477.392188 148.510625 
Q 1477.392188 150.510625 1479.392188 150.510625 
z
" style="fill:#ffffff;opacity:0.8;stroke:#cccccc;stroke-linejoin:miter;"/>
    </g>
    <g id="text_15">
     <!-- Condition -->
     <g transform="translate(1522.335938 85.718437)scale(0.1 -0.1)">
      <use xlink:href="#DejaVuSans-67"/>
      <use x="69.824219" xlink:href="#DejaVuSans-111"/>
      <use x="131.005859" xlink:href="#DejaVuSans-110"/>
      <use x="194.384766" xlink:href="#DejaVuSans-100"/>
      <use x="257.861328" xlink:href="#DejaVuSans-105"/>
      <use x="285.644531" xlink:href="#DejaVuSans-116"/>
      <use x="324.853516" xlink:href="#DejaVuSans-105"/>
      <use x="352.636719" xlink:href="#DejaVuSans-111"/>
      <use x="413.818359" xlink:href="#DejaVuSans-110"/>
     </g>
    </g>
    <g id="line2d_16">
     <path d="M 1481.392188 96.896563 
L 1501.392188 96.896563 
" style="fill:none;stroke:#1f77b4;stroke-linecap:square;stroke-width:1.5;"/>
    </g>
    <g id="line2d_17"/>
    <g id="text_16">
     <!-- No Feedback -->
     <g transform="translate(1509.392188 100.396563)scale(0.1 -0.1)">
      <defs>
       <path d="M 9.8125 72.90625 
L 51.703125 72.90625 
L 51.703125 64.59375 
L 19.671875 64.59375 
L 19.671875 43.109375 
L 48.578125 43.109375 
L 48.578125 34.8125 
L 19.671875 34.8125 
L 19.671875 0 
L 9.8125 0 
z
" id="DejaVuSans-70"/>
       <path d="M 9.078125 75.984375 
L 18.109375 75.984375 
L 18.109375 31.109375 
L 44.921875 54.6875 
L 56.390625 54.6875 
L 27.390625 29.109375 
L 57.625 0 
L 45.90625 0 
L 18.109375 26.703125 
L 18.109375 0 
L 9.078125 0 
z
" id="DejaVuSans-107"/>
      </defs>
      <use xlink:href="#DejaVuSans-78"/>
      <use x="74.804688" xlink:href="#DejaVuSans-111"/>
      <use x="135.986328" xlink:href="#DejaVuSans-32"/>
      <use x="167.773438" xlink:href="#DejaVuSans-70"/>
      <use x="219.792969" xlink:href="#DejaVuSans-101"/>
      <use x="281.316406" xlink:href="#DejaVuSans-101"/>
      <use x="342.839844" xlink:href="#DejaVuSans-100"/>
      <use x="406.316406" xlink:href="#DejaVuSans-98"/>
      <use x="469.792969" xlink:href="#DejaVuSans-97"/>
      <use x="531.072266" xlink:href="#DejaVuSans-99"/>
      <use x="586.052734" xlink:href="#DejaVuSans-107"/>
     </g>
    </g>
    <g id="line2d_18">
     <path d="M 1481.392188 111.574688 
L 1501.392188 111.574688 
" style="fill:none;stroke:#ff7f0e;stroke-linecap:square;stroke-width:1.5;"/>
    </g>
    <g id="line2d_19"/>
    <g id="text_17">
     <!-- Tactile Feedback -->
     <g transform="translate(1509.392188 115.074688)scale(0.1 -0.1)">
      <use xlink:href="#DejaVuSans-84"/>
      <use x="44.583984" xlink:href="#DejaVuSans-97"/>
      <use x="105.863281" xlink:href="#DejaVuSans-99"/>
      <use x="160.84375" xlink:href="#DejaVuSans-116"/>
      <use x="200.052734" xlink:href="#DejaVuSans-105"/>
      <use x="227.835938" xlink:href="#DejaVuSans-108"/>
      <use x="255.619141" xlink:href="#DejaVuSans-101"/>
      <use x="317.142578" xlink:href="#DejaVuSans-32"/>
      <use x="348.929688" xlink:href="#DejaVuSans-70"/>
      <use x="400.949219" xlink:href="#DejaVuSans-101"/>
      <use x="462.472656" xlink:href="#DejaVuSans-101"/>
      <use x="523.996094" xlink:href="#DejaVuSans-100"/>
      <use x="587.472656" xlink:href="#DejaVuSans-98"/>
      <use x="650.949219" xlink:href="#DejaVuSans-97"/>
      <use x="712.228516" xlink:href="#DejaVuSans-99"/>
      <use x="767.208984" xlink:href="#DejaVuSans-107"/>
     </g>
    </g>
    <g id="line2d_20">
     <path d="M 1481.392188 126.252813 
L 1501.392188 126.252813 
" style="fill:none;stroke:#2ca02c;stroke-linecap:square;stroke-width:1.5;"/>
    </g>
    <g id="line2d_21"/>
    <g id="text_18">
     <!-- Visual Feedback -->
     <g transform="translate(1509.392188 129.752813)scale(0.1 -0.1)">
      <defs>
       <path d="M 28.609375 0 
L 0.78125 72.90625 
L 11.078125 72.90625 
L 34.1875 11.53125 
L 57.328125 72.90625 
L 67.578125 72.90625 
L 39.796875 0 
z
" id="DejaVuSans-86"/>
      </defs>
      <use xlink:href="#DejaVuSans-86"/>
      <use x="66.158203" xlink:href="#DejaVuSans-105"/>
      <use x="93.941406" xlink:href="#DejaVuSans-115"/>
      <use x="146.041016" xlink:href="#DejaVuSans-117"/>
      <use x="209.419922" xlink:href="#DejaVuSans-97"/>
      <use x="270.699219" xlink:href="#DejaVuSans-108"/>
      <use x="298.482422" xlink:href="#DejaVuSans-32"/>
      <use x="330.269531" xlink:href="#DejaVuSans-70"/>
      <use x="382.289062" xlink:href="#DejaVuSans-101"/>
      <use x="443.8125" xlink:href="#DejaVuSans-101"/>
      <use x="505.335938" xlink:href="#DejaVuSans-100"/>
      <use x="568.8125" xlink:href="#DejaVuSans-98"/>
      <use x="632.289062" xlink:href="#DejaVuSans-97"/>
      <use x="693.568359" xlink:href="#DejaVuSans-99"/>
      <use x="748.548828" xlink:href="#DejaVuSans-107"/>
     </g>
    </g>
    <g id="line2d_22">
     <path d="M 1481.392188 140.930938 
L 1501.392188 140.930938 
" style="fill:none;stroke:#d62728;stroke-linecap:square;stroke-width:1.5;"/>
    </g>
    <g id="line2d_23"/>
    <g id="text_19">
     <!-- Combined Feedback -->
     <g transform="translate(1509.392188 144.430938)scale(0.1 -0.1)">
      <use xlink:href="#DejaVuSans-67"/>
      <use x="69.824219" xlink:href="#DejaVuSans-111"/>
      <use x="131.005859" xlink:href="#DejaVuSans-109"/>
      <use x="228.417969" xlink:href="#DejaVuSans-98"/>
      <use x="291.894531" xlink:href="#DejaVuSans-105"/>
      <use x="319.677734" xlink:href="#DejaVuSans-110"/>
      <use x="383.056641" xlink:href="#DejaVuSans-101"/>
      <use x="444.580078" xlink:href="#DejaVuSans-100"/>
      <use x="508.056641" xlink:href="#DejaVuSans-32"/>
      <use x="539.84375" xlink:href="#DejaVuSans-70"/>
      <use x="591.863281" xlink:href="#DejaVuSans-101"/>
      <use x="653.386719" xlink:href="#DejaVuSans-101"/>
      <use x="714.910156" xlink:href="#DejaVuSans-100"/>
      <use x="778.386719" xlink:href="#DejaVuSans-98"/>
      <use x="841.863281" xlink:href="#DejaVuSans-97"/>
      <use x="903.142578" xlink:href="#DejaVuSans-99"/>
      <use x="958.123047" xlink:href="#DejaVuSans-107"/>
     </g>
    </g>
   </g>
  </g>
 </g>
 <defs>
  <clipPath id="p9f6073e711">
   <rect height="434.88" width="1395" x="225" y="69.12"/>
  </clipPath>
 </defs>
</svg>
