<?xml version="1.0" encoding="utf-8" standalone="no"?>
<!DOCTYPE svg PUBLIC "-//W3C//DTD SVG 1.1//EN"
  "http://www.w3.org/Graphics/SVG/1.1/DTD/svg11.dtd">
<!-- Created with matplotlib (https://matplotlib.org/) -->
<svg height="720pt" version="1.1" viewBox="0 0 1440 720" width="1440pt" xmlns="http://www.w3.org/2000/svg" xmlns:xlink="http://www.w3.org/1999/xlink">
 <metadata>
  <rdf:RDF xmlns:cc="http://creativecommons.org/ns#" xmlns:dc="http://purl.org/dc/elements/1.1/" xmlns:rdf="http://www.w3.org/1999/02/22-rdf-syntax-ns#">
   <cc:Work>
    <dc:type rdf:resource="http://purl.org/dc/dcmitype/StillImage"/>
    <dc:date>2022-08-26T12:59:13.951218</dc:date>
    <dc:format>image/svg+xml</dc:format>
    <dc:creator>
     <cc:Agent>
      <dc:title>Matplotlib v3.3.4, https://matplotlib.org/</dc:title>
     </cc:Agent>
    </dc:creator>
   </cc:Work>
  </rdf:RDF>
 </metadata>
 <defs>
  <style type="text/css">*{stroke-linecap:butt;stroke-linejoin:round;}</style>
 </defs>
 <g id="figure_1">
  <g id="patch_1">
   <path d="M 0 720 
L 1440 720 
L 1440 0 
L 0 0 
z
" style="fill:none;"/>
  </g>
  <g id="axes_1">
   <g id="patch_2">
    <path d="M 180 630 
L 1296 630 
L 1296 86.4 
L 180 86.4 
z
" style="fill:#ffffff;"/>
   </g>
   <g id="PathCollection_1">
    <defs>
     <path d="M 0 3 
C 0.795609 3 1.55874 2.683901 2.12132 2.12132 
C 2.683901 1.55874 3 0.795609 3 0 
C 3 -0.795609 2.683901 -1.55874 2.12132 -2.12132 
C 1.55874 -2.683901 0.795609 -3 0 -3 
C -0.795609 -3 -1.55874 -2.683901 -2.12132 -2.12132 
C -2.683901 -1.55874 -3 -0.795609 -3 0 
C -3 0.795609 -2.683901 1.55874 -2.12132 2.12132 
C -1.55874 2.683901 -0.795609 3 0 3 
z
" id="mf5134df74f" style="stroke:#1f77b4;stroke-opacity:0.8;"/>
    </defs>
    <g clip-path="url(#p5bcb5e913c)">
     <use style="fill:#1f77b4;fill-opacity:0.8;stroke:#1f77b4;stroke-opacity:0.8;" x="230.727273" xlink:href="#mf5134df74f" y="574.921811"/>
     <use style="fill:#1f77b4;fill-opacity:0.8;stroke:#1f77b4;stroke-opacity:0.8;" x="399.818182" xlink:href="#mf5134df74f" y="548.482616"/>
     <use style="fill:#1f77b4;fill-opacity:0.8;stroke:#1f77b4;stroke-opacity:0.8;" x="568.909091" xlink:href="#mf5134df74f" y="375.977703"/>
     <use style="fill:#1f77b4;fill-opacity:0.8;stroke:#1f77b4;stroke-opacity:0.8;" x="738" xlink:href="#mf5134df74f" y="275.422076"/>
     <use style="fill:#1f77b4;fill-opacity:0.8;stroke:#1f77b4;stroke-opacity:0.8;" x="907.090909" xlink:href="#mf5134df74f" y="396.782316"/>
     <use style="fill:#1f77b4;fill-opacity:0.8;stroke:#1f77b4;stroke-opacity:0.8;" x="1076.181818" xlink:href="#mf5134df74f" y="345.637643"/>
     <use style="fill:#1f77b4;fill-opacity:0.8;stroke:#1f77b4;stroke-opacity:0.8;" x="1245.272727" xlink:href="#mf5134df74f" y="587.491264"/>
    </g>
   </g>
   <g id="PolyCollection_1">
    <path clip-path="url(#p5bcb5e913c)" d="M 180 111.778897 
L 180 605.290909 
L 191.272727 602.042789 
L 202.545455 598.65987 
L 213.818182 594.931056 
L 225.090909 590.185842 
L 236.363636 586.78786 
L 247.636364 582.725932 
L 258.909091 576.398448 
L 270.181818 573.209234 
L 281.454545 570.019204 
L 292.727273 566.466405 
L 304 563.378689 
L 315.272727 560.537155 
L 326.545455 557.217572 
L 337.818182 554.136859 
L 349.090909 551.055133 
L 360.363636 548.272148 
L 371.636364 545.933481 
L 382.909091 543.09319 
L 394.181818 541.654475 
L 405.454545 540.29896 
L 416.727273 537.373003 
L 428 536.365704 
L 439.272727 535.703835 
L 450.545455 533.465814 
L 461.818182 532.725664 
L 473.090909 532.169207 
L 484.363636 530.831175 
L 495.636364 530.840702 
L 506.909091 531.080913 
L 518.181818 530.898507 
L 529.454545 530.283192 
L 540.727273 529.359065 
L 552 528.435956 
L 563.272727 528.240171 
L 574.545455 527.663831 
L 585.818182 527.025611 
L 597.090909 526.373275 
L 608.363636 525.703845 
L 619.636364 525.027101 
L 630.909091 524.905041 
L 642.181818 524.566359 
L 653.454545 524.25235 
L 664.727273 524.392504 
L 676 524.532658 
L 687.272727 524.495078 
L 698.545455 524.421071 
L 709.818182 524.335752 
L 721.090909 523.968533 
L 732.363636 523.421336 
L 743.636364 522.87088 
L 754.909091 522.943338 
L 766.181818 523.434656 
L 777.454545 523.935023 
L 788.727273 524.43539 
L 800 524.379521 
L 811.272727 524.479593 
L 822.545455 524.82627 
L 833.818182 525.166456 
L 845.090909 524.891982 
L 856.363636 524.327022 
L 867.636364 523.760092 
L 878.909091 523.193162 
L 890.181818 523.057503 
L 901.454545 522.814671 
L 912.727273 522.921291 
L 924 522.869558 
L 935.272727 522.817826 
L 946.545455 523.23106 
L 957.818182 523.736662 
L 969.090909 524.242011 
L 980.363636 524.74736 
L 991.636364 525.001783 
L 1002.909091 524.52514 
L 1014.181818 524.030504 
L 1025.454545 523.937623 
L 1036.727273 524.67713 
L 1048 525.655138 
L 1059.272727 526.613729 
L 1070.545455 527.552526 
L 1081.818182 527.809912 
L 1093.090909 527.80061 
L 1104.363636 527.848318 
L 1115.636364 527.842894 
L 1126.909091 528.779247 
L 1138.181818 530.5504 
L 1149.454545 534.294771 
L 1160.727273 535.487267 
L 1172 535.844824 
L 1183.272727 537.22323 
L 1194.545455 540.789648 
L 1205.818182 542.948959 
L 1217.090909 543.449325 
L 1228.363636 545.487717 
L 1239.636364 545.769742 
L 1250.909091 547.959301 
L 1262.181818 552.282546 
L 1273.454545 556.435389 
L 1284.727273 560.845862 
L 1296 563.720716 
L 1296 111.109091 
L 1296 111.109091 
L 1284.727273 115.91736 
L 1273.454545 120.725629 
L 1262.181818 125.533898 
L 1250.909091 130.342167 
L 1239.636364 135.150435 
L 1228.363636 139.958704 
L 1217.090909 144.766973 
L 1205.818182 149.575242 
L 1194.545455 154.383511 
L 1183.272727 158.778715 
L 1172 163.064256 
L 1160.727273 167.404343 
L 1149.454545 172.11401 
L 1138.181818 176.823676 
L 1126.909091 181.533343 
L 1115.636364 186.251379 
L 1104.363636 190.97952 
L 1093.090909 195.70766 
L 1081.818182 200.435801 
L 1070.545455 205.163942 
L 1059.272727 209.892083 
L 1048 214.860633 
L 1036.727273 219.873967 
L 1025.454545 224.887301 
L 1014.181818 229.892929 
L 1002.909091 234.897167 
L 991.636364 239.901404 
L 980.363636 244.905641 
L 969.090909 249.686087 
L 957.818182 254.057458 
L 946.545455 258.42883 
L 935.272727 262.800201 
L 924 267.171572 
L 912.727273 271.542944 
L 901.454545 275.98295 
L 890.181818 280.694864 
L 878.909091 285.367504 
L 867.636364 290.023447 
L 856.363636 294.680441 
L 845.090909 298.823585 
L 833.818182 301.988502 
L 822.545455 302.132304 
L 811.272727 303.89467 
L 800 304.049939 
L 788.727273 299.561765 
L 777.454545 294.493928 
L 766.181818 290.166726 
L 754.909091 284.778575 
L 743.636364 286.882321 
L 732.363636 287.605835 
L 721.090909 294.18867 
L 709.818182 300.214756 
L 698.545455 304.28688 
L 687.272727 305.66621 
L 676 306.064832 
L 664.727273 301.629742 
L 653.454545 297.194652 
L 642.181818 292.789605 
L 630.909091 288.382172 
L 619.636364 283.955635 
L 608.363636 279.529098 
L 597.090909 275.102561 
L 585.818182 270.676024 
L 574.545455 266.249487 
L 563.272727 261.815772 
L 552 257.366895 
L 540.727273 252.258471 
L 529.454545 247.131214 
L 518.181818 242.003957 
L 506.909091 237.340752 
L 495.636364 233.277218 
L 484.363636 229.213683 
L 473.090909 225.150148 
L 461.818182 221.086614 
L 450.545455 217.023079 
L 439.272727 212.959544 
L 428 208.704506 
L 416.727273 204.277969 
L 405.454545 199.851433 
L 394.181818 195.424896 
L 382.909091 190.998359 
L 371.636364 186.571822 
L 360.363636 182.145285 
L 349.090909 177.718748 
L 337.818182 173.292211 
L 326.545455 168.865674 
L 315.272727 164.439137 
L 304 160.0126 
L 292.727273 155.586063 
L 281.454545 151.159526 
L 270.181818 146.732989 
L 258.909091 142.306452 
L 247.636364 137.879915 
L 236.363636 133.453378 
L 225.090909 129.026841 
L 213.818182 124.945555 
L 202.545455 120.89262 
L 191.272727 116.335759 
L 180 111.778897 
z
" style="fill:#1f77b4;fill-opacity:0.15;"/>
   </g>
   <g id="matplotlib.axis_1">
    <g id="xtick_1">
     <g id="line2d_1">
      <defs>
       <path d="M 0 0 
L 0 3.5 
" id="m743cf88ead" style="stroke:#000000;stroke-width:0.8;"/>
      </defs>
      <g>
       <use style="stroke:#000000;stroke-width:0.8;" x="230.727273" xlink:href="#m743cf88ead" y="630"/>
      </g>
     </g>
     <g id="text_1">
      <!-- 1 -->
      <g transform="translate(227.546023 644.598438)scale(0.1 -0.1)">
       <defs>
        <path d="M 12.40625 8.296875 
L 28.515625 8.296875 
L 28.515625 63.921875 
L 10.984375 60.40625 
L 10.984375 69.390625 
L 28.421875 72.90625 
L 38.28125 72.90625 
L 38.28125 8.296875 
L 54.390625 8.296875 
L 54.390625 0 
L 12.40625 0 
z
" id="DejaVuSans-49"/>
       </defs>
       <use xlink:href="#DejaVuSans-49"/>
      </g>
     </g>
    </g>
    <g id="xtick_2">
     <g id="line2d_2">
      <g>
       <use style="stroke:#000000;stroke-width:0.8;" x="399.818182" xlink:href="#m743cf88ead" y="630"/>
      </g>
     </g>
     <g id="text_2">
      <!-- 2 -->
      <g transform="translate(396.636932 644.598438)scale(0.1 -0.1)">
       <defs>
        <path d="M 19.1875 8.296875 
L 53.609375 8.296875 
L 53.609375 0 
L 7.328125 0 
L 7.328125 8.296875 
Q 12.9375 14.109375 22.625 23.890625 
Q 32.328125 33.6875 34.8125 36.53125 
Q 39.546875 41.84375 41.421875 45.53125 
Q 43.3125 49.21875 43.3125 52.78125 
Q 43.3125 58.59375 39.234375 62.25 
Q 35.15625 65.921875 28.609375 65.921875 
Q 23.96875 65.921875 18.8125 64.3125 
Q 13.671875 62.703125 7.8125 59.421875 
L 7.8125 69.390625 
Q 13.765625 71.78125 18.9375 73 
Q 24.125 74.21875 28.421875 74.21875 
Q 39.75 74.21875 46.484375 68.546875 
Q 53.21875 62.890625 53.21875 53.421875 
Q 53.21875 48.921875 51.53125 44.890625 
Q 49.859375 40.875 45.40625 35.40625 
Q 44.1875 33.984375 37.640625 27.21875 
Q 31.109375 20.453125 19.1875 8.296875 
z
" id="DejaVuSans-50"/>
       </defs>
       <use xlink:href="#DejaVuSans-50"/>
      </g>
     </g>
    </g>
    <g id="xtick_3">
     <g id="line2d_3">
      <g>
       <use style="stroke:#000000;stroke-width:0.8;" x="568.909091" xlink:href="#m743cf88ead" y="630"/>
      </g>
     </g>
     <g id="text_3">
      <!-- 3 -->
      <g transform="translate(565.727841 644.598438)scale(0.1 -0.1)">
       <defs>
        <path d="M 40.578125 39.3125 
Q 47.65625 37.796875 51.625 33 
Q 55.609375 28.21875 55.609375 21.1875 
Q 55.609375 10.40625 48.1875 4.484375 
Q 40.765625 -1.421875 27.09375 -1.421875 
Q 22.515625 -1.421875 17.65625 -0.515625 
Q 12.796875 0.390625 7.625 2.203125 
L 7.625 11.71875 
Q 11.71875 9.328125 16.59375 8.109375 
Q 21.484375 6.890625 26.8125 6.890625 
Q 36.078125 6.890625 40.9375 10.546875 
Q 45.796875 14.203125 45.796875 21.1875 
Q 45.796875 27.640625 41.28125 31.265625 
Q 36.765625 34.90625 28.71875 34.90625 
L 20.21875 34.90625 
L 20.21875 43.015625 
L 29.109375 43.015625 
Q 36.375 43.015625 40.234375 45.921875 
Q 44.09375 48.828125 44.09375 54.296875 
Q 44.09375 59.90625 40.109375 62.90625 
Q 36.140625 65.921875 28.71875 65.921875 
Q 24.65625 65.921875 20.015625 65.03125 
Q 15.375 64.15625 9.8125 62.3125 
L 9.8125 71.09375 
Q 15.4375 72.65625 20.34375 73.4375 
Q 25.25 74.21875 29.59375 74.21875 
Q 40.828125 74.21875 47.359375 69.109375 
Q 53.90625 64.015625 53.90625 55.328125 
Q 53.90625 49.265625 50.4375 45.09375 
Q 46.96875 40.921875 40.578125 39.3125 
z
" id="DejaVuSans-51"/>
       </defs>
       <use xlink:href="#DejaVuSans-51"/>
      </g>
     </g>
    </g>
    <g id="xtick_4">
     <g id="line2d_4">
      <g>
       <use style="stroke:#000000;stroke-width:0.8;" x="738" xlink:href="#m743cf88ead" y="630"/>
      </g>
     </g>
     <g id="text_4">
      <!-- 4 -->
      <g transform="translate(734.81875 644.598438)scale(0.1 -0.1)">
       <defs>
        <path d="M 37.796875 64.3125 
L 12.890625 25.390625 
L 37.796875 25.390625 
z
M 35.203125 72.90625 
L 47.609375 72.90625 
L 47.609375 25.390625 
L 58.015625 25.390625 
L 58.015625 17.1875 
L 47.609375 17.1875 
L 47.609375 0 
L 37.796875 0 
L 37.796875 17.1875 
L 4.890625 17.1875 
L 4.890625 26.703125 
z
" id="DejaVuSans-52"/>
       </defs>
       <use xlink:href="#DejaVuSans-52"/>
      </g>
     </g>
    </g>
    <g id="xtick_5">
     <g id="line2d_5">
      <g>
       <use style="stroke:#000000;stroke-width:0.8;" x="907.090909" xlink:href="#m743cf88ead" y="630"/>
      </g>
     </g>
     <g id="text_5">
      <!-- 5 -->
      <g transform="translate(903.909659 644.598438)scale(0.1 -0.1)">
       <defs>
        <path d="M 10.796875 72.90625 
L 49.515625 72.90625 
L 49.515625 64.59375 
L 19.828125 64.59375 
L 19.828125 46.734375 
Q 21.96875 47.46875 24.109375 47.828125 
Q 26.265625 48.1875 28.421875 48.1875 
Q 40.625 48.1875 47.75 41.5 
Q 54.890625 34.8125 54.890625 23.390625 
Q 54.890625 11.625 47.5625 5.09375 
Q 40.234375 -1.421875 26.90625 -1.421875 
Q 22.3125 -1.421875 17.546875 -0.640625 
Q 12.796875 0.140625 7.71875 1.703125 
L 7.71875 11.625 
Q 12.109375 9.234375 16.796875 8.0625 
Q 21.484375 6.890625 26.703125 6.890625 
Q 35.15625 6.890625 40.078125 11.328125 
Q 45.015625 15.765625 45.015625 23.390625 
Q 45.015625 31 40.078125 35.4375 
Q 35.15625 39.890625 26.703125 39.890625 
Q 22.75 39.890625 18.8125 39.015625 
Q 14.890625 38.140625 10.796875 36.28125 
z
" id="DejaVuSans-53"/>
       </defs>
       <use xlink:href="#DejaVuSans-53"/>
      </g>
     </g>
    </g>
    <g id="xtick_6">
     <g id="line2d_6">
      <g>
       <use style="stroke:#000000;stroke-width:0.8;" x="1076.181818" xlink:href="#m743cf88ead" y="630"/>
      </g>
     </g>
     <g id="text_6">
      <!-- 6 -->
      <g transform="translate(1073.000568 644.598438)scale(0.1 -0.1)">
       <defs>
        <path d="M 33.015625 40.375 
Q 26.375 40.375 22.484375 35.828125 
Q 18.609375 31.296875 18.609375 23.390625 
Q 18.609375 15.53125 22.484375 10.953125 
Q 26.375 6.390625 33.015625 6.390625 
Q 39.65625 6.390625 43.53125 10.953125 
Q 47.40625 15.53125 47.40625 23.390625 
Q 47.40625 31.296875 43.53125 35.828125 
Q 39.65625 40.375 33.015625 40.375 
z
M 52.59375 71.296875 
L 52.59375 62.3125 
Q 48.875 64.0625 45.09375 64.984375 
Q 41.3125 65.921875 37.59375 65.921875 
Q 27.828125 65.921875 22.671875 59.328125 
Q 17.53125 52.734375 16.796875 39.40625 
Q 19.671875 43.65625 24.015625 45.921875 
Q 28.375 48.1875 33.59375 48.1875 
Q 44.578125 48.1875 50.953125 41.515625 
Q 57.328125 34.859375 57.328125 23.390625 
Q 57.328125 12.15625 50.6875 5.359375 
Q 44.046875 -1.421875 33.015625 -1.421875 
Q 20.359375 -1.421875 13.671875 8.265625 
Q 6.984375 17.96875 6.984375 36.375 
Q 6.984375 53.65625 15.1875 63.9375 
Q 23.390625 74.21875 37.203125 74.21875 
Q 40.921875 74.21875 44.703125 73.484375 
Q 48.484375 72.75 52.59375 71.296875 
z
" id="DejaVuSans-54"/>
       </defs>
       <use xlink:href="#DejaVuSans-54"/>
      </g>
     </g>
    </g>
    <g id="xtick_7">
     <g id="line2d_7">
      <g>
       <use style="stroke:#000000;stroke-width:0.8;" x="1245.272727" xlink:href="#m743cf88ead" y="630"/>
      </g>
     </g>
     <g id="text_7">
      <!-- 7 -->
      <g transform="translate(1242.091477 644.598438)scale(0.1 -0.1)">
       <defs>
        <path d="M 8.203125 72.90625 
L 55.078125 72.90625 
L 55.078125 68.703125 
L 28.609375 0 
L 18.3125 0 
L 43.21875 64.59375 
L 8.203125 64.59375 
z
" id="DejaVuSans-55"/>
       </defs>
       <use xlink:href="#DejaVuSans-55"/>
      </g>
     </g>
    </g>
    <g id="text_8">
     <!-- ResultLayer -->
     <g transform="translate(708.610156 658.276562)scale(0.1 -0.1)">
      <defs>
       <path d="M 44.390625 34.1875 
Q 47.5625 33.109375 50.5625 29.59375 
Q 53.5625 26.078125 56.59375 19.921875 
L 66.609375 0 
L 56 0 
L 46.6875 18.703125 
Q 43.0625 26.03125 39.671875 28.421875 
Q 36.28125 30.8125 30.421875 30.8125 
L 19.671875 30.8125 
L 19.671875 0 
L 9.8125 0 
L 9.8125 72.90625 
L 32.078125 72.90625 
Q 44.578125 72.90625 50.734375 67.671875 
Q 56.890625 62.453125 56.890625 51.90625 
Q 56.890625 45.015625 53.6875 40.46875 
Q 50.484375 35.9375 44.390625 34.1875 
z
M 19.671875 64.796875 
L 19.671875 38.921875 
L 32.078125 38.921875 
Q 39.203125 38.921875 42.84375 42.21875 
Q 46.484375 45.515625 46.484375 51.90625 
Q 46.484375 58.296875 42.84375 61.546875 
Q 39.203125 64.796875 32.078125 64.796875 
z
" id="DejaVuSans-82"/>
       <path d="M 56.203125 29.59375 
L 56.203125 25.203125 
L 14.890625 25.203125 
Q 15.484375 15.921875 20.484375 11.0625 
Q 25.484375 6.203125 34.421875 6.203125 
Q 39.59375 6.203125 44.453125 7.46875 
Q 49.3125 8.734375 54.109375 11.28125 
L 54.109375 2.78125 
Q 49.265625 0.734375 44.1875 -0.34375 
Q 39.109375 -1.421875 33.890625 -1.421875 
Q 20.796875 -1.421875 13.15625 6.1875 
Q 5.515625 13.8125 5.515625 26.8125 
Q 5.515625 40.234375 12.765625 48.109375 
Q 20.015625 56 32.328125 56 
Q 43.359375 56 49.78125 48.890625 
Q 56.203125 41.796875 56.203125 29.59375 
z
M 47.21875 32.234375 
Q 47.125 39.59375 43.09375 43.984375 
Q 39.0625 48.390625 32.421875 48.390625 
Q 24.90625 48.390625 20.390625 44.140625 
Q 15.875 39.890625 15.1875 32.171875 
z
" id="DejaVuSans-101"/>
       <path d="M 44.28125 53.078125 
L 44.28125 44.578125 
Q 40.484375 46.53125 36.375 47.5 
Q 32.28125 48.484375 27.875 48.484375 
Q 21.1875 48.484375 17.84375 46.4375 
Q 14.5 44.390625 14.5 40.28125 
Q 14.5 37.15625 16.890625 35.375 
Q 19.28125 33.59375 26.515625 31.984375 
L 29.59375 31.296875 
Q 39.15625 29.25 43.1875 25.515625 
Q 47.21875 21.78125 47.21875 15.09375 
Q 47.21875 7.46875 41.1875 3.015625 
Q 35.15625 -1.421875 24.609375 -1.421875 
Q 20.21875 -1.421875 15.453125 -0.5625 
Q 10.6875 0.296875 5.421875 2 
L 5.421875 11.28125 
Q 10.40625 8.6875 15.234375 7.390625 
Q 20.0625 6.109375 24.8125 6.109375 
Q 31.15625 6.109375 34.5625 8.28125 
Q 37.984375 10.453125 37.984375 14.40625 
Q 37.984375 18.0625 35.515625 20.015625 
Q 33.0625 21.96875 24.703125 23.78125 
L 21.578125 24.515625 
Q 13.234375 26.265625 9.515625 29.90625 
Q 5.8125 33.546875 5.8125 39.890625 
Q 5.8125 47.609375 11.28125 51.796875 
Q 16.75 56 26.8125 56 
Q 31.78125 56 36.171875 55.265625 
Q 40.578125 54.546875 44.28125 53.078125 
z
" id="DejaVuSans-115"/>
       <path d="M 8.5 21.578125 
L 8.5 54.6875 
L 17.484375 54.6875 
L 17.484375 21.921875 
Q 17.484375 14.15625 20.5 10.265625 
Q 23.53125 6.390625 29.59375 6.390625 
Q 36.859375 6.390625 41.078125 11.03125 
Q 45.3125 15.671875 45.3125 23.6875 
L 45.3125 54.6875 
L 54.296875 54.6875 
L 54.296875 0 
L 45.3125 0 
L 45.3125 8.40625 
Q 42.046875 3.421875 37.71875 1 
Q 33.40625 -1.421875 27.6875 -1.421875 
Q 18.265625 -1.421875 13.375 4.4375 
Q 8.5 10.296875 8.5 21.578125 
z
M 31.109375 56 
z
" id="DejaVuSans-117"/>
       <path d="M 9.421875 75.984375 
L 18.40625 75.984375 
L 18.40625 0 
L 9.421875 0 
z
" id="DejaVuSans-108"/>
       <path d="M 18.3125 70.21875 
L 18.3125 54.6875 
L 36.8125 54.6875 
L 36.8125 47.703125 
L 18.3125 47.703125 
L 18.3125 18.015625 
Q 18.3125 11.328125 20.140625 9.421875 
Q 21.96875 7.515625 27.59375 7.515625 
L 36.8125 7.515625 
L 36.8125 0 
L 27.59375 0 
Q 17.1875 0 13.234375 3.875 
Q 9.28125 7.765625 9.28125 18.015625 
L 9.28125 47.703125 
L 2.6875 47.703125 
L 2.6875 54.6875 
L 9.28125 54.6875 
L 9.28125 70.21875 
z
" id="DejaVuSans-116"/>
       <path d="M 9.8125 72.90625 
L 19.671875 72.90625 
L 19.671875 8.296875 
L 55.171875 8.296875 
L 55.171875 0 
L 9.8125 0 
z
" id="DejaVuSans-76"/>
       <path d="M 34.28125 27.484375 
Q 23.390625 27.484375 19.1875 25 
Q 14.984375 22.515625 14.984375 16.5 
Q 14.984375 11.71875 18.140625 8.90625 
Q 21.296875 6.109375 26.703125 6.109375 
Q 34.1875 6.109375 38.703125 11.40625 
Q 43.21875 16.703125 43.21875 25.484375 
L 43.21875 27.484375 
z
M 52.203125 31.203125 
L 52.203125 0 
L 43.21875 0 
L 43.21875 8.296875 
Q 40.140625 3.328125 35.546875 0.953125 
Q 30.953125 -1.421875 24.3125 -1.421875 
Q 15.921875 -1.421875 10.953125 3.296875 
Q 6 8.015625 6 15.921875 
Q 6 25.140625 12.171875 29.828125 
Q 18.359375 34.515625 30.609375 34.515625 
L 43.21875 34.515625 
L 43.21875 35.40625 
Q 43.21875 41.609375 39.140625 45 
Q 35.0625 48.390625 27.6875 48.390625 
Q 23 48.390625 18.546875 47.265625 
Q 14.109375 46.140625 10.015625 43.890625 
L 10.015625 52.203125 
Q 14.9375 54.109375 19.578125 55.046875 
Q 24.21875 56 28.609375 56 
Q 40.484375 56 46.34375 49.84375 
Q 52.203125 43.703125 52.203125 31.203125 
z
" id="DejaVuSans-97"/>
       <path d="M 32.171875 -5.078125 
Q 28.375 -14.84375 24.75 -17.8125 
Q 21.140625 -20.796875 15.09375 -20.796875 
L 7.90625 -20.796875 
L 7.90625 -13.28125 
L 13.1875 -13.28125 
Q 16.890625 -13.28125 18.9375 -11.515625 
Q 21 -9.765625 23.484375 -3.21875 
L 25.09375 0.875 
L 2.984375 54.6875 
L 12.5 54.6875 
L 29.59375 11.921875 
L 46.6875 54.6875 
L 56.203125 54.6875 
z
" id="DejaVuSans-121"/>
       <path d="M 41.109375 46.296875 
Q 39.59375 47.171875 37.8125 47.578125 
Q 36.03125 48 33.890625 48 
Q 26.265625 48 22.1875 43.046875 
Q 18.109375 38.09375 18.109375 28.8125 
L 18.109375 0 
L 9.078125 0 
L 9.078125 54.6875 
L 18.109375 54.6875 
L 18.109375 46.1875 
Q 20.953125 51.171875 25.484375 53.578125 
Q 30.03125 56 36.53125 56 
Q 37.453125 56 38.578125 55.875 
Q 39.703125 55.765625 41.0625 55.515625 
z
" id="DejaVuSans-114"/>
      </defs>
      <use xlink:href="#DejaVuSans-82"/>
      <use x="64.982422" xlink:href="#DejaVuSans-101"/>
      <use x="126.505859" xlink:href="#DejaVuSans-115"/>
      <use x="178.605469" xlink:href="#DejaVuSans-117"/>
      <use x="241.984375" xlink:href="#DejaVuSans-108"/>
      <use x="269.767578" xlink:href="#DejaVuSans-116"/>
      <use x="308.976562" xlink:href="#DejaVuSans-76"/>
      <use x="364.689453" xlink:href="#DejaVuSans-97"/>
      <use x="425.96875" xlink:href="#DejaVuSans-121"/>
      <use x="485.148438" xlink:href="#DejaVuSans-101"/>
      <use x="546.671875" xlink:href="#DejaVuSans-114"/>
     </g>
    </g>
   </g>
   <g id="matplotlib.axis_2">
    <g id="ytick_1">
     <g id="line2d_8">
      <defs>
       <path d="M 0 0 
L -3.5 0 
" id="m0dfcb40b01" style="stroke:#000000;stroke-width:0.8;"/>
      </defs>
      <g>
       <use style="stroke:#000000;stroke-width:0.8;" x="180" xlink:href="#m0dfcb40b01" y="567.98694"/>
      </g>
     </g>
     <g id="text_9">
      <!-- 31 -->
      <g transform="translate(160.275 571.786159)scale(0.1 -0.1)">
       <use xlink:href="#DejaVuSans-51"/>
       <use x="63.623047" xlink:href="#DejaVuSans-49"/>
      </g>
     </g>
    </g>
    <g id="ytick_2">
     <g id="line2d_9">
      <g>
       <use style="stroke:#000000;stroke-width:0.8;" x="180" xlink:href="#m0dfcb40b01" y="453.561571"/>
      </g>
     </g>
     <g id="text_10">
      <!-- 32 -->
      <g transform="translate(160.275 457.36079)scale(0.1 -0.1)">
       <use xlink:href="#DejaVuSans-51"/>
       <use x="63.623047" xlink:href="#DejaVuSans-50"/>
      </g>
     </g>
    </g>
    <g id="ytick_3">
     <g id="line2d_10">
      <g>
       <use style="stroke:#000000;stroke-width:0.8;" x="180" xlink:href="#m0dfcb40b01" y="339.136202"/>
      </g>
     </g>
     <g id="text_11">
      <!-- 33 -->
      <g transform="translate(160.275 342.935421)scale(0.1 -0.1)">
       <use xlink:href="#DejaVuSans-51"/>
       <use x="63.623047" xlink:href="#DejaVuSans-51"/>
      </g>
     </g>
    </g>
    <g id="ytick_4">
     <g id="line2d_11">
      <g>
       <use style="stroke:#000000;stroke-width:0.8;" x="180" xlink:href="#m0dfcb40b01" y="224.710833"/>
      </g>
     </g>
     <g id="text_12">
      <!-- 34 -->
      <g transform="translate(160.275 228.510052)scale(0.1 -0.1)">
       <use xlink:href="#DejaVuSans-51"/>
       <use x="63.623047" xlink:href="#DejaVuSans-52"/>
      </g>
     </g>
    </g>
    <g id="ytick_5">
     <g id="line2d_12">
      <g>
       <use style="stroke:#000000;stroke-width:0.8;" x="180" xlink:href="#m0dfcb40b01" y="110.285464"/>
      </g>
     </g>
     <g id="text_13">
      <!-- 35 -->
      <g transform="translate(160.275 114.084683)scale(0.1 -0.1)">
       <use xlink:href="#DejaVuSans-51"/>
       <use x="63.623047" xlink:href="#DejaVuSans-53"/>
      </g>
     </g>
    </g>
    <g id="text_14">
     <!-- Num Peaks (mean) -->
     <g transform="translate(154.195312 405.713281)rotate(-90)scale(0.1 -0.1)">
      <defs>
       <path d="M 9.8125 72.90625 
L 23.09375 72.90625 
L 55.421875 11.921875 
L 55.421875 72.90625 
L 64.984375 72.90625 
L 64.984375 0 
L 51.703125 0 
L 19.390625 60.984375 
L 19.390625 0 
L 9.8125 0 
z
" id="DejaVuSans-78"/>
       <path d="M 52 44.1875 
Q 55.375 50.25 60.0625 53.125 
Q 64.75 56 71.09375 56 
Q 79.640625 56 84.28125 50.015625 
Q 88.921875 44.046875 88.921875 33.015625 
L 88.921875 0 
L 79.890625 0 
L 79.890625 32.71875 
Q 79.890625 40.578125 77.09375 44.375 
Q 74.3125 48.1875 68.609375 48.1875 
Q 61.625 48.1875 57.5625 43.546875 
Q 53.515625 38.921875 53.515625 30.90625 
L 53.515625 0 
L 44.484375 0 
L 44.484375 32.71875 
Q 44.484375 40.625 41.703125 44.40625 
Q 38.921875 48.1875 33.109375 48.1875 
Q 26.21875 48.1875 22.15625 43.53125 
Q 18.109375 38.875 18.109375 30.90625 
L 18.109375 0 
L 9.078125 0 
L 9.078125 54.6875 
L 18.109375 54.6875 
L 18.109375 46.1875 
Q 21.1875 51.21875 25.484375 53.609375 
Q 29.78125 56 35.6875 56 
Q 41.65625 56 45.828125 52.96875 
Q 50 49.953125 52 44.1875 
z
" id="DejaVuSans-109"/>
       <path id="DejaVuSans-32"/>
       <path d="M 19.671875 64.796875 
L 19.671875 37.40625 
L 32.078125 37.40625 
Q 38.96875 37.40625 42.71875 40.96875 
Q 46.484375 44.53125 46.484375 51.125 
Q 46.484375 57.671875 42.71875 61.234375 
Q 38.96875 64.796875 32.078125 64.796875 
z
M 9.8125 72.90625 
L 32.078125 72.90625 
Q 44.34375 72.90625 50.609375 67.359375 
Q 56.890625 61.8125 56.890625 51.125 
Q 56.890625 40.328125 50.609375 34.8125 
Q 44.34375 29.296875 32.078125 29.296875 
L 19.671875 29.296875 
L 19.671875 0 
L 9.8125 0 
z
" id="DejaVuSans-80"/>
       <path d="M 9.078125 75.984375 
L 18.109375 75.984375 
L 18.109375 31.109375 
L 44.921875 54.6875 
L 56.390625 54.6875 
L 27.390625 29.109375 
L 57.625 0 
L 45.90625 0 
L 18.109375 26.703125 
L 18.109375 0 
L 9.078125 0 
z
" id="DejaVuSans-107"/>
       <path d="M 31 75.875 
Q 24.46875 64.65625 21.28125 53.65625 
Q 18.109375 42.671875 18.109375 31.390625 
Q 18.109375 20.125 21.3125 9.0625 
Q 24.515625 -2 31 -13.1875 
L 23.1875 -13.1875 
Q 15.875 -1.703125 12.234375 9.375 
Q 8.59375 20.453125 8.59375 31.390625 
Q 8.59375 42.28125 12.203125 53.3125 
Q 15.828125 64.359375 23.1875 75.875 
z
" id="DejaVuSans-40"/>
       <path d="M 54.890625 33.015625 
L 54.890625 0 
L 45.90625 0 
L 45.90625 32.71875 
Q 45.90625 40.484375 42.875 44.328125 
Q 39.84375 48.1875 33.796875 48.1875 
Q 26.515625 48.1875 22.3125 43.546875 
Q 18.109375 38.921875 18.109375 30.90625 
L 18.109375 0 
L 9.078125 0 
L 9.078125 54.6875 
L 18.109375 54.6875 
L 18.109375 46.1875 
Q 21.34375 51.125 25.703125 53.5625 
Q 30.078125 56 35.796875 56 
Q 45.21875 56 50.046875 50.171875 
Q 54.890625 44.34375 54.890625 33.015625 
z
" id="DejaVuSans-110"/>
       <path d="M 8.015625 75.875 
L 15.828125 75.875 
Q 23.140625 64.359375 26.78125 53.3125 
Q 30.421875 42.28125 30.421875 31.390625 
Q 30.421875 20.453125 26.78125 9.375 
Q 23.140625 -1.703125 15.828125 -13.1875 
L 8.015625 -13.1875 
Q 14.5 -2 17.703125 9.0625 
Q 20.90625 20.125 20.90625 31.390625 
Q 20.90625 42.671875 17.703125 53.65625 
Q 14.5 64.65625 8.015625 75.875 
z
" id="DejaVuSans-41"/>
      </defs>
      <use xlink:href="#DejaVuSans-78"/>
      <use x="74.804688" xlink:href="#DejaVuSans-117"/>
      <use x="138.183594" xlink:href="#DejaVuSans-109"/>
      <use x="235.595703" xlink:href="#DejaVuSans-32"/>
      <use x="267.382812" xlink:href="#DejaVuSans-80"/>
      <use x="324.060547" xlink:href="#DejaVuSans-101"/>
      <use x="385.583984" xlink:href="#DejaVuSans-97"/>
      <use x="446.863281" xlink:href="#DejaVuSans-107"/>
      <use x="504.773438" xlink:href="#DejaVuSans-115"/>
      <use x="556.873047" xlink:href="#DejaVuSans-32"/>
      <use x="588.660156" xlink:href="#DejaVuSans-40"/>
      <use x="627.673828" xlink:href="#DejaVuSans-109"/>
      <use x="725.085938" xlink:href="#DejaVuSans-101"/>
      <use x="786.609375" xlink:href="#DejaVuSans-97"/>
      <use x="847.888672" xlink:href="#DejaVuSans-110"/>
      <use x="911.267578" xlink:href="#DejaVuSans-41"/>
     </g>
    </g>
   </g>
   <g id="line2d_13">
    <path clip-path="url(#p5bcb5e913c)" d="M 180 484.448061 
L 191.272727 483.62145 
L 202.545455 482.794838 
L 213.818182 481.968226 
L 225.090909 481.141614 
L 236.363636 480.315002 
L 247.636364 479.48839 
L 258.909091 478.661779 
L 270.181818 477.835167 
L 281.454545 477.008555 
L 292.727273 476.181943 
L 304 475.355331 
L 315.272727 474.528719 
L 326.545455 473.702108 
L 337.818182 472.875496 
L 349.090909 472.048884 
L 360.363636 471.222272 
L 371.636364 470.39566 
L 382.909091 469.569048 
L 394.181818 468.742437 
L 405.454545 467.915825 
L 416.727273 467.089213 
L 428 466.262601 
L 439.272727 465.435989 
L 450.545455 464.609377 
L 461.818182 463.782766 
L 473.090909 462.956154 
L 484.363636 462.129542 
L 495.636364 461.30293 
L 506.909091 460.476318 
L 518.181818 459.649706 
L 529.454545 458.823095 
L 540.727273 457.996483 
L 552 457.169871 
L 563.272727 456.343259 
L 574.545455 455.516647 
L 585.818182 454.690035 
L 597.090909 453.863423 
L 608.363636 453.036812 
L 619.636364 452.2102 
L 630.909091 451.383588 
L 642.181818 450.556976 
L 653.454545 449.730364 
L 664.727273 448.903752 
L 676 448.077141 
L 687.272727 447.250529 
L 698.545455 446.423917 
L 709.818182 445.597305 
L 721.090909 444.770693 
L 732.363636 443.944081 
L 743.636364 443.11747 
L 754.909091 442.290858 
L 766.181818 441.464246 
L 777.454545 440.637634 
L 788.727273 439.811022 
L 800 438.98441 
L 811.272727 438.157799 
L 822.545455 437.331187 
L 833.818182 436.504575 
L 845.090909 435.677963 
L 856.363636 434.851351 
L 867.636364 434.024739 
L 878.909091 433.198128 
L 890.181818 432.371516 
L 901.454545 431.544904 
L 912.727273 430.718292 
L 924 429.89168 
L 935.272727 429.065068 
L 946.545455 428.238457 
L 957.818182 427.411845 
L 969.090909 426.585233 
L 980.363636 425.758621 
L 991.636364 424.932009 
L 1002.909091 424.105397 
L 1014.181818 423.278786 
L 1025.454545 422.452174 
L 1036.727273 421.625562 
L 1048 420.79895 
L 1059.272727 419.972338 
L 1070.545455 419.145726 
L 1081.818182 418.319114 
L 1093.090909 417.492503 
L 1104.363636 416.665891 
L 1115.636364 415.839279 
L 1126.909091 415.012667 
L 1138.181818 414.186055 
L 1149.454545 413.359443 
L 1160.727273 412.532832 
L 1172 411.70622 
L 1183.272727 410.879608 
L 1194.545455 410.052996 
L 1205.818182 409.226384 
L 1217.090909 408.399772 
L 1228.363636 407.573161 
L 1239.636364 406.746549 
L 1250.909091 405.919937 
L 1262.181818 405.093325 
L 1273.454545 404.266713 
L 1284.727273 403.440101 
L 1296 402.61349 
" style="fill:none;stroke:#1f77b4;stroke-linecap:square;stroke-width:2.25;"/>
   </g>
   <g id="patch_3">
    <path d="M 180 630 
L 180 86.4 
" style="fill:none;stroke:#000000;stroke-linecap:square;stroke-linejoin:miter;stroke-width:0.8;"/>
   </g>
   <g id="patch_4">
    <path d="M 1296 630 
L 1296 86.4 
" style="fill:none;stroke:#000000;stroke-linecap:square;stroke-linejoin:miter;stroke-width:0.8;"/>
   </g>
   <g id="patch_5">
    <path d="M 180 630 
L 1296 630 
" style="fill:none;stroke:#000000;stroke-linecap:square;stroke-linejoin:miter;stroke-width:0.8;"/>
   </g>
   <g id="patch_6">
    <path d="M 180 86.4 
L 1296 86.4 
" style="fill:none;stroke:#000000;stroke-linecap:square;stroke-linejoin:miter;stroke-width:0.8;"/>
   </g>
   <g id="text_15">
    <!-- Mean Number of Peaks per Result Layer -->
    <g transform="translate(617.719687 80.4)scale(0.12 -0.12)">
     <defs>
      <path d="M 9.8125 72.90625 
L 24.515625 72.90625 
L 43.109375 23.296875 
L 61.8125 72.90625 
L 76.515625 72.90625 
L 76.515625 0 
L 66.890625 0 
L 66.890625 64.015625 
L 48.09375 14.015625 
L 38.1875 14.015625 
L 19.390625 64.015625 
L 19.390625 0 
L 9.8125 0 
z
" id="DejaVuSans-77"/>
      <path d="M 48.6875 27.296875 
Q 48.6875 37.203125 44.609375 42.84375 
Q 40.53125 48.484375 33.40625 48.484375 
Q 26.265625 48.484375 22.1875 42.84375 
Q 18.109375 37.203125 18.109375 27.296875 
Q 18.109375 17.390625 22.1875 11.75 
Q 26.265625 6.109375 33.40625 6.109375 
Q 40.53125 6.109375 44.609375 11.75 
Q 48.6875 17.390625 48.6875 27.296875 
z
M 18.109375 46.390625 
Q 20.953125 51.265625 25.265625 53.625 
Q 29.59375 56 35.59375 56 
Q 45.5625 56 51.78125 48.09375 
Q 58.015625 40.1875 58.015625 27.296875 
Q 58.015625 14.40625 51.78125 6.484375 
Q 45.5625 -1.421875 35.59375 -1.421875 
Q 29.59375 -1.421875 25.265625 0.953125 
Q 20.953125 3.328125 18.109375 8.203125 
L 18.109375 0 
L 9.078125 0 
L 9.078125 75.984375 
L 18.109375 75.984375 
z
" id="DejaVuSans-98"/>
      <path d="M 30.609375 48.390625 
Q 23.390625 48.390625 19.1875 42.75 
Q 14.984375 37.109375 14.984375 27.296875 
Q 14.984375 17.484375 19.15625 11.84375 
Q 23.34375 6.203125 30.609375 6.203125 
Q 37.796875 6.203125 41.984375 11.859375 
Q 46.1875 17.53125 46.1875 27.296875 
Q 46.1875 37.015625 41.984375 42.703125 
Q 37.796875 48.390625 30.609375 48.390625 
z
M 30.609375 56 
Q 42.328125 56 49.015625 48.375 
Q 55.71875 40.765625 55.71875 27.296875 
Q 55.71875 13.875 49.015625 6.21875 
Q 42.328125 -1.421875 30.609375 -1.421875 
Q 18.84375 -1.421875 12.171875 6.21875 
Q 5.515625 13.875 5.515625 27.296875 
Q 5.515625 40.765625 12.171875 48.375 
Q 18.84375 56 30.609375 56 
z
" id="DejaVuSans-111"/>
      <path d="M 37.109375 75.984375 
L 37.109375 68.5 
L 28.515625 68.5 
Q 23.6875 68.5 21.796875 66.546875 
Q 19.921875 64.59375 19.921875 59.515625 
L 19.921875 54.6875 
L 34.71875 54.6875 
L 34.71875 47.703125 
L 19.921875 47.703125 
L 19.921875 0 
L 10.890625 0 
L 10.890625 47.703125 
L 2.296875 47.703125 
L 2.296875 54.6875 
L 10.890625 54.6875 
L 10.890625 58.5 
Q 10.890625 67.625 15.140625 71.796875 
Q 19.390625 75.984375 28.609375 75.984375 
z
" id="DejaVuSans-102"/>
      <path d="M 18.109375 8.203125 
L 18.109375 -20.796875 
L 9.078125 -20.796875 
L 9.078125 54.6875 
L 18.109375 54.6875 
L 18.109375 46.390625 
Q 20.953125 51.265625 25.265625 53.625 
Q 29.59375 56 35.59375 56 
Q 45.5625 56 51.78125 48.09375 
Q 58.015625 40.1875 58.015625 27.296875 
Q 58.015625 14.40625 51.78125 6.484375 
Q 45.5625 -1.421875 35.59375 -1.421875 
Q 29.59375 -1.421875 25.265625 0.953125 
Q 20.953125 3.328125 18.109375 8.203125 
z
M 48.6875 27.296875 
Q 48.6875 37.203125 44.609375 42.84375 
Q 40.53125 48.484375 33.40625 48.484375 
Q 26.265625 48.484375 22.1875 42.84375 
Q 18.109375 37.203125 18.109375 27.296875 
Q 18.109375 17.390625 22.1875 11.75 
Q 26.265625 6.109375 33.40625 6.109375 
Q 40.53125 6.109375 44.609375 11.75 
Q 48.6875 17.390625 48.6875 27.296875 
z
" id="DejaVuSans-112"/>
     </defs>
     <use xlink:href="#DejaVuSans-77"/>
     <use x="86.279297" xlink:href="#DejaVuSans-101"/>
     <use x="147.802734" xlink:href="#DejaVuSans-97"/>
     <use x="209.082031" xlink:href="#DejaVuSans-110"/>
     <use x="272.460938" xlink:href="#DejaVuSans-32"/>
     <use x="304.248047" xlink:href="#DejaVuSans-78"/>
     <use x="379.052734" xlink:href="#DejaVuSans-117"/>
     <use x="442.431641" xlink:href="#DejaVuSans-109"/>
     <use x="539.84375" xlink:href="#DejaVuSans-98"/>
     <use x="603.320312" xlink:href="#DejaVuSans-101"/>
     <use x="664.84375" xlink:href="#DejaVuSans-114"/>
     <use x="705.957031" xlink:href="#DejaVuSans-32"/>
     <use x="737.744141" xlink:href="#DejaVuSans-111"/>
     <use x="798.925781" xlink:href="#DejaVuSans-102"/>
     <use x="834.130859" xlink:href="#DejaVuSans-32"/>
     <use x="865.917969" xlink:href="#DejaVuSans-80"/>
     <use x="922.595703" xlink:href="#DejaVuSans-101"/>
     <use x="984.119141" xlink:href="#DejaVuSans-97"/>
     <use x="1045.398438" xlink:href="#DejaVuSans-107"/>
     <use x="1103.308594" xlink:href="#DejaVuSans-115"/>
     <use x="1155.408203" xlink:href="#DejaVuSans-32"/>
     <use x="1187.195312" xlink:href="#DejaVuSans-112"/>
     <use x="1250.671875" xlink:href="#DejaVuSans-101"/>
     <use x="1312.195312" xlink:href="#DejaVuSans-114"/>
     <use x="1353.308594" xlink:href="#DejaVuSans-32"/>
     <use x="1385.095703" xlink:href="#DejaVuSans-82"/>
     <use x="1450.078125" xlink:href="#DejaVuSans-101"/>
     <use x="1511.601562" xlink:href="#DejaVuSans-115"/>
     <use x="1563.701172" xlink:href="#DejaVuSans-117"/>
     <use x="1627.080078" xlink:href="#DejaVuSans-108"/>
     <use x="1654.863281" xlink:href="#DejaVuSans-116"/>
     <use x="1694.072266" xlink:href="#DejaVuSans-32"/>
     <use x="1725.859375" xlink:href="#DejaVuSans-76"/>
     <use x="1781.572266" xlink:href="#DejaVuSans-97"/>
     <use x="1842.851562" xlink:href="#DejaVuSans-121"/>
     <use x="1902.03125" xlink:href="#DejaVuSans-101"/>
     <use x="1963.554688" xlink:href="#DejaVuSans-114"/>
    </g>
   </g>
   <g id="legend_1">
    <g id="patch_7">
     <path d="M 187 109.078125 
L 242.353125 109.078125 
Q 244.353125 109.078125 244.353125 107.078125 
L 244.353125 93.4 
Q 244.353125 91.4 242.353125 91.4 
L 187 91.4 
Q 185 91.4 185 93.4 
L 185 107.078125 
Q 185 109.078125 187 109.078125 
z
" style="fill:#ffffff;opacity:0.8;stroke:#cccccc;stroke-linejoin:miter;"/>
    </g>
    <g id="PathCollection_2">
     <g>
      <use style="fill:#1f77b4;fill-opacity:0.8;stroke:#1f77b4;stroke-opacity:0.8;" x="199" xlink:href="#mf5134df74f" y="100.373438"/>
     </g>
    </g>
    <g id="text_16">
     <!-- Total -->
     <g transform="translate(217 102.998438)scale(0.1 -0.1)">
      <defs>
       <path d="M -0.296875 72.90625 
L 61.375 72.90625 
L 61.375 64.59375 
L 35.5 64.59375 
L 35.5 0 
L 25.59375 0 
L 25.59375 64.59375 
L -0.296875 64.59375 
z
" id="DejaVuSans-84"/>
      </defs>
      <use xlink:href="#DejaVuSans-84"/>
      <use x="44.083984" xlink:href="#DejaVuSans-111"/>
      <use x="105.265625" xlink:href="#DejaVuSans-116"/>
      <use x="144.474609" xlink:href="#DejaVuSans-97"/>
      <use x="205.753906" xlink:href="#DejaVuSans-108"/>
     </g>
    </g>
   </g>
  </g>
 </g>
 <defs>
  <clipPath id="p5bcb5e913c">
   <rect height="543.6" width="1116" x="180" y="86.4"/>
  </clipPath>
 </defs>
</svg>
