<?xml version="1.0" encoding="utf-8" standalone="no"?>
<!DOCTYPE svg PUBLIC "-//W3C//DTD SVG 1.1//EN"
  "http://www.w3.org/Graphics/SVG/1.1/DTD/svg11.dtd">
<svg xmlns:xlink="http://www.w3.org/1999/xlink" width="1440pt" height="720pt" viewBox="0 0 1440 720" xmlns="http://www.w3.org/2000/svg" version="1.1">
 <metadata>
  <rdf:RDF xmlns:dc="http://purl.org/dc/elements/1.1/" xmlns:cc="http://creativecommons.org/ns#" xmlns:rdf="http://www.w3.org/1999/02/22-rdf-syntax-ns#">
   <cc:Work>
    <dc:type rdf:resource="http://purl.org/dc/dcmitype/StillImage"/>
    <dc:date>2026-01-02T19:54:30.616705</dc:date>
    <dc:format>image/svg+xml</dc:format>
    <dc:creator>
     <cc:Agent>
      <dc:title>Matplotlib v3.8.0, https://matplotlib.org/</dc:title>
     </cc:Agent>
    </dc:creator>
   </cc:Work>
  </rdf:RDF>
 </metadata>
 <defs>
  <style type="text/css">*{stroke-linejoin: round; stroke-linecap: butt}</style>
 </defs>
 <g id="figure_1">
  <g id="patch_1">
   <path d="M 0 720 
L 1440 720 
L 1440 0 
L 0 0 
z
" style="fill: #ffffff"/>
  </g>
  <g id="axes_1">
   <g id="patch_2">
    <path d="M 180 640.8 
L 1296 640.8 
L 1296 86.4 
L 180 86.4 
z
" style="fill: #eaeaf2"/>
   </g>
   <g id="matplotlib.axis_1">
    <g id="xtick_1">
     <g id="line2d_1">
      <path d="M 230.727273 640.8 
L 230.727273 86.4 
" clip-path="url(#p56f366e7c0)" style="fill: none; stroke: #ffffff; stroke-linecap: round"/>
     </g>
     <g id="text_1">
      <!-- 1 -->
      <g style="fill: #262626" transform="translate(227.668757 658.173594) scale(0.11 -0.11)">
       <defs>
        <path id="ArialMT-31" d="M 2384 0 
L 1822 0 
L 1822 3584 
Q 1619 3391 1289 3197 
Q 959 3003 697 2906 
L 697 3450 
Q 1169 3672 1522 3987 
Q 1875 4303 2022 4600 
L 2384 4600 
L 2384 0 
z
" transform="scale(0.015625)"/>
       </defs>
       <use xlink:href="#ArialMT-31"/>
      </g>
     </g>
    </g>
    <g id="xtick_2">
     <g id="line2d_2">
      <path d="M 399.818182 640.8 
L 399.818182 86.4 
" clip-path="url(#p56f366e7c0)" style="fill: none; stroke: #ffffff; stroke-linecap: round"/>
     </g>
     <g id="text_2">
      <!-- 2 -->
      <g style="fill: #262626" transform="translate(396.759666 658.173594) scale(0.11 -0.11)">
       <defs>
        <path id="ArialMT-32" d="M 3222 541 
L 3222 0 
L 194 0 
Q 188 203 259 391 
Q 375 700 629 1000 
Q 884 1300 1366 1694 
Q 2113 2306 2375 2664 
Q 2638 3022 2638 3341 
Q 2638 3675 2398 3904 
Q 2159 4134 1775 4134 
Q 1369 4134 1125 3890 
Q 881 3647 878 3216 
L 300 3275 
Q 359 3922 746 4261 
Q 1134 4600 1788 4600 
Q 2447 4600 2831 4234 
Q 3216 3869 3216 3328 
Q 3216 3053 3103 2787 
Q 2991 2522 2730 2228 
Q 2469 1934 1863 1422 
Q 1356 997 1212 845 
Q 1069 694 975 541 
L 3222 541 
z
" transform="scale(0.015625)"/>
       </defs>
       <use xlink:href="#ArialMT-32"/>
      </g>
     </g>
    </g>
    <g id="xtick_3">
     <g id="line2d_3">
      <path d="M 568.909091 640.8 
L 568.909091 86.4 
" clip-path="url(#p56f366e7c0)" style="fill: none; stroke: #ffffff; stroke-linecap: round"/>
     </g>
     <g id="text_3">
      <!-- 3 -->
      <g style="fill: #262626" transform="translate(565.850575 658.173594) scale(0.11 -0.11)">
       <defs>
        <path id="ArialMT-33" d="M 269 1209 
L 831 1284 
Q 928 806 1161 595 
Q 1394 384 1728 384 
Q 2125 384 2398 659 
Q 2672 934 2672 1341 
Q 2672 1728 2419 1979 
Q 2166 2231 1775 2231 
Q 1616 2231 1378 2169 
L 1441 2663 
Q 1497 2656 1531 2656 
Q 1891 2656 2178 2843 
Q 2466 3031 2466 3422 
Q 2466 3731 2256 3934 
Q 2047 4138 1716 4138 
Q 1388 4138 1169 3931 
Q 950 3725 888 3313 
L 325 3413 
Q 428 3978 793 4289 
Q 1159 4600 1703 4600 
Q 2078 4600 2393 4439 
Q 2709 4278 2876 4000 
Q 3044 3722 3044 3409 
Q 3044 3113 2884 2869 
Q 2725 2625 2413 2481 
Q 2819 2388 3044 2092 
Q 3269 1797 3269 1353 
Q 3269 753 2831 336 
Q 2394 -81 1725 -81 
Q 1122 -81 723 278 
Q 325 638 269 1209 
z
" transform="scale(0.015625)"/>
       </defs>
       <use xlink:href="#ArialMT-33"/>
      </g>
     </g>
    </g>
    <g id="xtick_4">
     <g id="line2d_4">
      <path d="M 738 640.8 
L 738 86.4 
" clip-path="url(#p56f366e7c0)" style="fill: none; stroke: #ffffff; stroke-linecap: round"/>
     </g>
     <g id="text_4">
      <!-- 4 -->
      <g style="fill: #262626" transform="translate(734.941484 658.173594) scale(0.11 -0.11)">
       <defs>
        <path id="ArialMT-34" d="M 2069 0 
L 2069 1097 
L 81 1097 
L 81 1613 
L 2172 4581 
L 2631 4581 
L 2631 1613 
L 3250 1613 
L 3250 1097 
L 2631 1097 
L 2631 0 
L 2069 0 
z
M 2069 1613 
L 2069 3678 
L 634 1613 
L 2069 1613 
z
" transform="scale(0.015625)"/>
       </defs>
       <use xlink:href="#ArialMT-34"/>
      </g>
     </g>
    </g>
    <g id="xtick_5">
     <g id="line2d_5">
      <path d="M 907.090909 640.8 
L 907.090909 86.4 
" clip-path="url(#p56f366e7c0)" style="fill: none; stroke: #ffffff; stroke-linecap: round"/>
     </g>
     <g id="text_5">
      <!-- 5 -->
      <g style="fill: #262626" transform="translate(904.032393 658.173594) scale(0.11 -0.11)">
       <defs>
        <path id="ArialMT-35" d="M 266 1200 
L 856 1250 
Q 922 819 1161 601 
Q 1400 384 1738 384 
Q 2144 384 2425 690 
Q 2706 997 2706 1503 
Q 2706 1984 2436 2262 
Q 2166 2541 1728 2541 
Q 1456 2541 1237 2417 
Q 1019 2294 894 2097 
L 366 2166 
L 809 4519 
L 3088 4519 
L 3088 3981 
L 1259 3981 
L 1013 2750 
Q 1425 3038 1878 3038 
Q 2478 3038 2890 2622 
Q 3303 2206 3303 1553 
Q 3303 931 2941 478 
Q 2500 -78 1738 -78 
Q 1113 -78 717 272 
Q 322 622 266 1200 
z
" transform="scale(0.015625)"/>
       </defs>
       <use xlink:href="#ArialMT-35"/>
      </g>
     </g>
    </g>
    <g id="xtick_6">
     <g id="line2d_6">
      <path d="M 1076.181818 640.8 
L 1076.181818 86.4 
" clip-path="url(#p56f366e7c0)" style="fill: none; stroke: #ffffff; stroke-linecap: round"/>
     </g>
     <g id="text_6">
      <!-- 6 -->
      <g style="fill: #262626" transform="translate(1073.123303 658.173594) scale(0.11 -0.11)">
       <defs>
        <path id="ArialMT-36" d="M 3184 3459 
L 2625 3416 
Q 2550 3747 2413 3897 
Q 2184 4138 1850 4138 
Q 1581 4138 1378 3988 
Q 1113 3794 959 3422 
Q 806 3050 800 2363 
Q 1003 2672 1297 2822 
Q 1591 2972 1913 2972 
Q 2475 2972 2870 2558 
Q 3266 2144 3266 1488 
Q 3266 1056 3080 686 
Q 2894 316 2569 119 
Q 2244 -78 1831 -78 
Q 1128 -78 684 439 
Q 241 956 241 2144 
Q 241 3472 731 4075 
Q 1159 4600 1884 4600 
Q 2425 4600 2770 4297 
Q 3116 3994 3184 3459 
z
M 888 1484 
Q 888 1194 1011 928 
Q 1134 663 1356 523 
Q 1578 384 1822 384 
Q 2178 384 2434 671 
Q 2691 959 2691 1453 
Q 2691 1928 2437 2201 
Q 2184 2475 1800 2475 
Q 1419 2475 1153 2201 
Q 888 1928 888 1484 
z
" transform="scale(0.015625)"/>
       </defs>
       <use xlink:href="#ArialMT-36"/>
      </g>
     </g>
    </g>
    <g id="xtick_7">
     <g id="line2d_7">
      <path d="M 1245.272727 640.8 
L 1245.272727 86.4 
" clip-path="url(#p56f366e7c0)" style="fill: none; stroke: #ffffff; stroke-linecap: round"/>
     </g>
     <g id="text_7">
      <!-- 7 -->
      <g style="fill: #262626" transform="translate(1242.214212 658.173594) scale(0.11 -0.11)">
       <defs>
        <path id="ArialMT-37" d="M 303 3981 
L 303 4522 
L 3269 4522 
L 3269 4084 
Q 2831 3619 2401 2847 
Q 1972 2075 1738 1259 
Q 1569 684 1522 0 
L 944 0 
Q 953 541 1156 1306 
Q 1359 2072 1739 2783 
Q 2119 3494 2547 3981 
L 303 3981 
z
" transform="scale(0.015625)"/>
       </defs>
       <use xlink:href="#ArialMT-37"/>
      </g>
     </g>
    </g>
    <g id="text_8">
     <!-- ResultLayer -->
     <g style="fill: #262626" transform="translate(705.98625 672.949219) scale(0.12 -0.12)">
      <defs>
       <path id="ArialMT-52" d="M 503 0 
L 503 4581 
L 2534 4581 
Q 3147 4581 3465 4457 
Q 3784 4334 3975 4021 
Q 4166 3709 4166 3331 
Q 4166 2844 3850 2509 
Q 3534 2175 2875 2084 
Q 3116 1969 3241 1856 
Q 3506 1613 3744 1247 
L 4541 0 
L 3778 0 
L 3172 953 
Q 2906 1366 2734 1584 
Q 2563 1803 2427 1890 
Q 2291 1978 2150 2013 
Q 2047 2034 1813 2034 
L 1109 2034 
L 1109 0 
L 503 0 
z
M 1109 2559 
L 2413 2559 
Q 2828 2559 3062 2645 
Q 3297 2731 3419 2920 
Q 3541 3109 3541 3331 
Q 3541 3656 3305 3865 
Q 3069 4075 2559 4075 
L 1109 4075 
L 1109 2559 
z
" transform="scale(0.015625)"/>
       <path id="ArialMT-65" d="M 2694 1069 
L 3275 997 
Q 3138 488 2766 206 
Q 2394 -75 1816 -75 
Q 1088 -75 661 373 
Q 234 822 234 1631 
Q 234 2469 665 2931 
Q 1097 3394 1784 3394 
Q 2450 3394 2872 2941 
Q 3294 2488 3294 1666 
Q 3294 1616 3291 1516 
L 816 1516 
Q 847 969 1125 678 
Q 1403 388 1819 388 
Q 2128 388 2347 550 
Q 2566 713 2694 1069 
z
M 847 1978 
L 2700 1978 
Q 2663 2397 2488 2606 
Q 2219 2931 1791 2931 
Q 1403 2931 1139 2672 
Q 875 2413 847 1978 
z
" transform="scale(0.015625)"/>
       <path id="ArialMT-73" d="M 197 991 
L 753 1078 
Q 800 744 1014 566 
Q 1228 388 1613 388 
Q 2000 388 2187 545 
Q 2375 703 2375 916 
Q 2375 1106 2209 1216 
Q 2094 1291 1634 1406 
Q 1016 1563 777 1677 
Q 538 1791 414 1992 
Q 291 2194 291 2438 
Q 291 2659 392 2848 
Q 494 3038 669 3163 
Q 800 3259 1026 3326 
Q 1253 3394 1513 3394 
Q 1903 3394 2198 3281 
Q 2494 3169 2634 2976 
Q 2775 2784 2828 2463 
L 2278 2388 
Q 2241 2644 2061 2787 
Q 1881 2931 1553 2931 
Q 1166 2931 1000 2803 
Q 834 2675 834 2503 
Q 834 2394 903 2306 
Q 972 2216 1119 2156 
Q 1203 2125 1616 2013 
Q 2213 1853 2448 1751 
Q 2684 1650 2818 1456 
Q 2953 1263 2953 975 
Q 2953 694 2789 445 
Q 2625 197 2315 61 
Q 2006 -75 1616 -75 
Q 969 -75 630 194 
Q 291 463 197 991 
z
" transform="scale(0.015625)"/>
       <path id="ArialMT-75" d="M 2597 0 
L 2597 488 
Q 2209 -75 1544 -75 
Q 1250 -75 995 37 
Q 741 150 617 320 
Q 494 491 444 738 
Q 409 903 409 1263 
L 409 3319 
L 972 3319 
L 972 1478 
Q 972 1038 1006 884 
Q 1059 663 1231 536 
Q 1403 409 1656 409 
Q 1909 409 2131 539 
Q 2353 669 2445 892 
Q 2538 1116 2538 1541 
L 2538 3319 
L 3100 3319 
L 3100 0 
L 2597 0 
z
" transform="scale(0.015625)"/>
       <path id="ArialMT-6c" d="M 409 0 
L 409 4581 
L 972 4581 
L 972 0 
L 409 0 
z
" transform="scale(0.015625)"/>
       <path id="ArialMT-74" d="M 1650 503 
L 1731 6 
Q 1494 -44 1306 -44 
Q 1000 -44 831 53 
Q 663 150 594 308 
Q 525 466 525 972 
L 525 2881 
L 113 2881 
L 113 3319 
L 525 3319 
L 525 4141 
L 1084 4478 
L 1084 3319 
L 1650 3319 
L 1650 2881 
L 1084 2881 
L 1084 941 
Q 1084 700 1114 631 
Q 1144 563 1211 522 
Q 1278 481 1403 481 
Q 1497 481 1650 503 
z
" transform="scale(0.015625)"/>
       <path id="ArialMT-4c" d="M 469 0 
L 469 4581 
L 1075 4581 
L 1075 541 
L 3331 541 
L 3331 0 
L 469 0 
z
" transform="scale(0.015625)"/>
       <path id="ArialMT-61" d="M 2588 409 
Q 2275 144 1986 34 
Q 1697 -75 1366 -75 
Q 819 -75 525 192 
Q 231 459 231 875 
Q 231 1119 342 1320 
Q 453 1522 633 1644 
Q 813 1766 1038 1828 
Q 1203 1872 1538 1913 
Q 2219 1994 2541 2106 
Q 2544 2222 2544 2253 
Q 2544 2597 2384 2738 
Q 2169 2928 1744 2928 
Q 1347 2928 1158 2789 
Q 969 2650 878 2297 
L 328 2372 
Q 403 2725 575 2942 
Q 747 3159 1072 3276 
Q 1397 3394 1825 3394 
Q 2250 3394 2515 3294 
Q 2781 3194 2906 3042 
Q 3031 2891 3081 2659 
Q 3109 2516 3109 2141 
L 3109 1391 
Q 3109 606 3145 398 
Q 3181 191 3288 0 
L 2700 0 
Q 2613 175 2588 409 
z
M 2541 1666 
Q 2234 1541 1622 1453 
Q 1275 1403 1131 1340 
Q 988 1278 909 1158 
Q 831 1038 831 891 
Q 831 666 1001 516 
Q 1172 366 1500 366 
Q 1825 366 2078 508 
Q 2331 650 2450 897 
Q 2541 1088 2541 1459 
L 2541 1666 
z
" transform="scale(0.015625)"/>
       <path id="ArialMT-79" d="M 397 -1278 
L 334 -750 
Q 519 -800 656 -800 
Q 844 -800 956 -737 
Q 1069 -675 1141 -563 
Q 1194 -478 1313 -144 
Q 1328 -97 1363 -6 
L 103 3319 
L 709 3319 
L 1400 1397 
Q 1534 1031 1641 628 
Q 1738 1016 1872 1384 
L 2581 3319 
L 3144 3319 
L 1881 -56 
Q 1678 -603 1566 -809 
Q 1416 -1088 1222 -1217 
Q 1028 -1347 759 -1347 
Q 597 -1347 397 -1278 
z
" transform="scale(0.015625)"/>
       <path id="ArialMT-72" d="M 416 0 
L 416 3319 
L 922 3319 
L 922 2816 
Q 1116 3169 1280 3281 
Q 1444 3394 1641 3394 
Q 1925 3394 2219 3213 
L 2025 2691 
Q 1819 2813 1613 2813 
Q 1428 2813 1281 2702 
Q 1134 2591 1072 2394 
Q 978 2094 978 1738 
L 978 0 
L 416 0 
z
" transform="scale(0.015625)"/>
      </defs>
      <use xlink:href="#ArialMT-52"/>
      <use xlink:href="#ArialMT-65" x="72.216797"/>
      <use xlink:href="#ArialMT-73" x="127.832031"/>
      <use xlink:href="#ArialMT-75" x="177.832031"/>
      <use xlink:href="#ArialMT-6c" x="233.447266"/>
      <use xlink:href="#ArialMT-74" x="255.664062"/>
      <use xlink:href="#ArialMT-4c" x="283.447266"/>
      <use xlink:href="#ArialMT-61" x="339.0625"/>
      <use xlink:href="#ArialMT-79" x="394.677734"/>
      <use xlink:href="#ArialMT-65" x="444.677734"/>
      <use xlink:href="#ArialMT-72" x="500.292969"/>
     </g>
    </g>
   </g>
   <g id="matplotlib.axis_2">
    <g id="ytick_1">
     <g id="line2d_8">
      <path d="M 180 577.650961 
L 1296 577.650961 
" clip-path="url(#p56f366e7c0)" style="fill: none; stroke: #ffffff; stroke-linecap: round"/>
     </g>
     <g id="text_9">
      <!-- 31 -->
      <g style="fill: #262626" transform="translate(158.265938 581.587758) scale(0.11 -0.11)">
       <use xlink:href="#ArialMT-33"/>
       <use xlink:href="#ArialMT-31" x="55.615234"/>
      </g>
     </g>
    </g>
    <g id="ytick_2">
     <g id="line2d_9">
      <path d="M 180 470.885717 
L 1296 470.885717 
" clip-path="url(#p56f366e7c0)" style="fill: none; stroke: #ffffff; stroke-linecap: round"/>
     </g>
     <g id="text_10">
      <!-- 32 -->
      <g style="fill: #262626" transform="translate(158.265938 474.822514) scale(0.11 -0.11)">
       <use xlink:href="#ArialMT-33"/>
       <use xlink:href="#ArialMT-32" x="55.615234"/>
      </g>
     </g>
    </g>
    <g id="ytick_3">
     <g id="line2d_10">
      <path d="M 180 364.120473 
L 1296 364.120473 
" clip-path="url(#p56f366e7c0)" style="fill: none; stroke: #ffffff; stroke-linecap: round"/>
     </g>
     <g id="text_11">
      <!-- 33 -->
      <g style="fill: #262626" transform="translate(158.265938 368.057269) scale(0.11 -0.11)">
       <use xlink:href="#ArialMT-33"/>
       <use xlink:href="#ArialMT-33" x="55.615234"/>
      </g>
     </g>
    </g>
    <g id="ytick_4">
     <g id="line2d_11">
      <path d="M 180 257.355228 
L 1296 257.355228 
" clip-path="url(#p56f366e7c0)" style="fill: none; stroke: #ffffff; stroke-linecap: round"/>
     </g>
     <g id="text_12">
      <!-- 34 -->
      <g style="fill: #262626" transform="translate(158.265938 261.292025) scale(0.11 -0.11)">
       <use xlink:href="#ArialMT-33"/>
       <use xlink:href="#ArialMT-34" x="55.615234"/>
      </g>
     </g>
    </g>
    <g id="ytick_5">
     <g id="line2d_12">
      <path d="M 180 150.589984 
L 1296 150.589984 
" clip-path="url(#p56f366e7c0)" style="fill: none; stroke: #ffffff; stroke-linecap: round"/>
     </g>
     <g id="text_13">
      <!-- 35 -->
      <g style="fill: #262626" transform="translate(158.265938 154.526781) scale(0.11 -0.11)">
       <use xlink:href="#ArialMT-33"/>
       <use xlink:href="#ArialMT-35" x="55.615234"/>
      </g>
     </g>
    </g>
    <g id="text_14">
     <!-- Num Peaks (mean) -->
     <g style="fill: #262626" transform="translate(151.740313 415.279687) rotate(-90) scale(0.12 -0.12)">
      <defs>
       <path id="ArialMT-4e" d="M 488 0 
L 488 4581 
L 1109 4581 
L 3516 984 
L 3516 4581 
L 4097 4581 
L 4097 0 
L 3475 0 
L 1069 3600 
L 1069 0 
L 488 0 
z
" transform="scale(0.015625)"/>
       <path id="ArialMT-6d" d="M 422 0 
L 422 3319 
L 925 3319 
L 925 2853 
Q 1081 3097 1340 3245 
Q 1600 3394 1931 3394 
Q 2300 3394 2536 3241 
Q 2772 3088 2869 2813 
Q 3263 3394 3894 3394 
Q 4388 3394 4653 3120 
Q 4919 2847 4919 2278 
L 4919 0 
L 4359 0 
L 4359 2091 
Q 4359 2428 4304 2576 
Q 4250 2725 4106 2815 
Q 3963 2906 3769 2906 
Q 3419 2906 3187 2673 
Q 2956 2441 2956 1928 
L 2956 0 
L 2394 0 
L 2394 2156 
Q 2394 2531 2256 2718 
Q 2119 2906 1806 2906 
Q 1569 2906 1367 2781 
Q 1166 2656 1075 2415 
Q 984 2175 984 1722 
L 984 0 
L 422 0 
z
" transform="scale(0.015625)"/>
       <path id="ArialMT-20" transform="scale(0.015625)"/>
       <path id="ArialMT-50" d="M 494 0 
L 494 4581 
L 2222 4581 
Q 2678 4581 2919 4538 
Q 3256 4481 3484 4323 
Q 3713 4166 3852 3881 
Q 3991 3597 3991 3256 
Q 3991 2672 3619 2267 
Q 3247 1863 2275 1863 
L 1100 1863 
L 1100 0 
L 494 0 
z
M 1100 2403 
L 2284 2403 
Q 2872 2403 3119 2622 
Q 3366 2841 3366 3238 
Q 3366 3525 3220 3729 
Q 3075 3934 2838 4000 
Q 2684 4041 2272 4041 
L 1100 4041 
L 1100 2403 
z
" transform="scale(0.015625)"/>
       <path id="ArialMT-6b" d="M 425 0 
L 425 4581 
L 988 4581 
L 988 1969 
L 2319 3319 
L 3047 3319 
L 1778 2088 
L 3175 0 
L 2481 0 
L 1384 1697 
L 988 1316 
L 988 0 
L 425 0 
z
" transform="scale(0.015625)"/>
       <path id="ArialMT-28" d="M 1497 -1347 
Q 1031 -759 709 28 
Q 388 816 388 1659 
Q 388 2403 628 3084 
Q 909 3875 1497 4659 
L 1900 4659 
Q 1522 4009 1400 3731 
Q 1209 3300 1100 2831 
Q 966 2247 966 1656 
Q 966 153 1900 -1347 
L 1497 -1347 
z
" transform="scale(0.015625)"/>
       <path id="ArialMT-6e" d="M 422 0 
L 422 3319 
L 928 3319 
L 928 2847 
Q 1294 3394 1984 3394 
Q 2284 3394 2536 3286 
Q 2788 3178 2913 3003 
Q 3038 2828 3088 2588 
Q 3119 2431 3119 2041 
L 3119 0 
L 2556 0 
L 2556 2019 
Q 2556 2363 2490 2533 
Q 2425 2703 2258 2804 
Q 2091 2906 1866 2906 
Q 1506 2906 1245 2678 
Q 984 2450 984 1813 
L 984 0 
L 422 0 
z
" transform="scale(0.015625)"/>
       <path id="ArialMT-29" d="M 791 -1347 
L 388 -1347 
Q 1322 153 1322 1656 
Q 1322 2244 1188 2822 
Q 1081 3291 891 3722 
Q 769 4003 388 4659 
L 791 4659 
Q 1378 3875 1659 3084 
Q 1900 2403 1900 1659 
Q 1900 816 1576 28 
Q 1253 -759 791 -1347 
z
" transform="scale(0.015625)"/>
      </defs>
      <use xlink:href="#ArialMT-4e"/>
      <use xlink:href="#ArialMT-75" x="72.216797"/>
      <use xlink:href="#ArialMT-6d" x="127.832031"/>
      <use xlink:href="#ArialMT-20" x="211.132812"/>
      <use xlink:href="#ArialMT-50" x="238.916016"/>
      <use xlink:href="#ArialMT-65" x="305.615234"/>
      <use xlink:href="#ArialMT-61" x="361.230469"/>
      <use xlink:href="#ArialMT-6b" x="416.845703"/>
      <use xlink:href="#ArialMT-73" x="466.845703"/>
      <use xlink:href="#ArialMT-20" x="516.845703"/>
      <use xlink:href="#ArialMT-28" x="544.628906"/>
      <use xlink:href="#ArialMT-6d" x="577.929688"/>
      <use xlink:href="#ArialMT-65" x="661.230469"/>
      <use xlink:href="#ArialMT-61" x="716.845703"/>
      <use xlink:href="#ArialMT-6e" x="772.460938"/>
      <use xlink:href="#ArialMT-29" x="828.076172"/>
     </g>
    </g>
   </g>
   <g id="PathCollection_1">
    <defs>
     <path id="m5210e3449b" d="M 0 3 
C 0.795609 3 1.55874 2.683901 2.12132 2.12132 
C 2.683901 1.55874 3 0.795609 3 0 
C 3 -0.795609 2.683901 -1.55874 2.12132 -2.12132 
C 1.55874 -2.683901 0.795609 -3 0 -3 
C -0.795609 -3 -1.55874 -2.683901 -2.12132 -2.12132 
C -2.683901 -1.55874 -3 -0.795609 -3 0 
C -3 0.795609 -2.683901 1.55874 -2.12132 2.12132 
C -1.55874 2.683901 -0.795609 3 0 3 
z
" style="stroke: #4c72b0; stroke-opacity: 0.8"/>
    </defs>
    <g clip-path="url(#p56f366e7c0)">
     <use xlink:href="#m5210e3449b" x="230.727273" y="584.121582" style="fill: #4c72b0; fill-opacity: 0.8; stroke: #4c72b0; stroke-opacity: 0.8"/>
     <use xlink:href="#m5210e3449b" x="399.818182" y="559.45234" style="fill: #4c72b0; fill-opacity: 0.8; stroke: #4c72b0; stroke-opacity: 0.8"/>
     <use xlink:href="#m5210e3449b" x="568.909091" y="398.495646" style="fill: #4c72b0; fill-opacity: 0.8; stroke: #4c72b0; stroke-opacity: 0.8"/>
     <use xlink:href="#m5210e3449b" x="738" y="304.671643" style="fill: #4c72b0; fill-opacity: 0.8; stroke: #4c72b0; stroke-opacity: 0.8"/>
     <use xlink:href="#m5210e3449b" x="907.090909" y="418.716336" style="fill: #4c72b0; fill-opacity: 0.8; stroke: #4c72b0; stroke-opacity: 0.8"/>
     <use xlink:href="#m5210e3449b" x="1076.181818" y="369.377852" style="fill: #4c72b0; fill-opacity: 0.8; stroke: #4c72b0; stroke-opacity: 0.8"/>
     <use xlink:href="#m5210e3449b" x="1245.272727" y="595.849582" style="fill: #4c72b0; fill-opacity: 0.8; stroke: #4c72b0; stroke-opacity: 0.8"/>
    </g>
   </g>
   <g id="PolyCollection_1">
    <defs>
     <path id="mcfe682dd75" d="M 180 -589.761546 
L 180 -104.4 
L 191.272727 -109.515646 
L 202.545455 -113.530547 
L 213.818182 -116.776076 
L 225.090909 -121.610294 
L 236.363636 -124.616646 
L 247.636364 -128.420568 
L 258.909091 -132.317134 
L 270.181818 -135.176468 
L 281.454545 -139.295272 
L 292.727273 -143.78743 
L 304 -146.732226 
L 315.272727 -149.712375 
L 326.545455 -153.385264 
L 337.818182 -156.566857 
L 349.090909 -160.054648 
L 360.363636 -161.734389 
L 371.636364 -164.046321 
L 382.909091 -165.514613 
L 394.181818 -167.270416 
L 405.454545 -169.591057 
L 416.727273 -171.55346 
L 428 -173.957799 
L 439.272727 -174.40439 
L 450.545455 -174.762022 
L 461.818182 -177.654157 
L 473.090909 -179.317615 
L 484.363636 -179.363047 
L 495.636364 -180.304122 
L 506.909091 -181.211606 
L 518.181818 -182.032544 
L 529.454545 -183.236484 
L 540.727273 -183.944139 
L 552 -184.653577 
L 563.272727 -184.884843 
L 574.545455 -185.024977 
L 585.818182 -185.164906 
L 597.090909 -185.288359 
L 608.363636 -185.411811 
L 619.636364 -185.535264 
L 630.909091 -185.658717 
L 642.181818 -185.782169 
L 653.454545 -185.905622 
L 664.727273 -186.029075 
L 676 -186.152527 
L 687.272727 -186.212597 
L 698.545455 -186.396571 
L 709.818182 -186.522885 
L 721.090909 -186.646338 
L 732.363636 -186.76979 
L 743.636364 -186.893243 
L 754.909091 -187.016696 
L 766.181818 -187.140148 
L 777.454545 -187.263601 
L 788.727273 -187.191697 
L 800 -187.242251 
L 811.272727 -187.588338 
L 822.545455 -187.709064 
L 833.818182 -187.837808 
L 845.090909 -186.685138 
L 856.363636 -186.790748 
L 867.636364 -186.816253 
L 878.909091 -186.341508 
L 890.181818 -185.866763 
L 901.454545 -185.392019 
L 912.727273 -185.171092 
L 924 -185.744298 
L 935.272727 -186.328838 
L 946.545455 -186.913378 
L 957.818182 -186.995748 
L 969.090909 -186.840914 
L 980.363636 -186.724844 
L 991.636364 -186.189154 
L 1002.909091 -185.598606 
L 1014.181818 -185.008057 
L 1025.454545 -184.980996 
L 1036.727273 -185.06149 
L 1048 -185.256575 
L 1059.272727 -185.096045 
L 1070.545455 -184.063161 
L 1081.818182 -183.999942 
L 1093.090909 -183.936723 
L 1104.363636 -183.855453 
L 1115.636364 -183.238049 
L 1126.909091 -182.191835 
L 1138.181818 -180.010994 
L 1149.454545 -177.414085 
L 1160.727273 -174.352234 
L 1172 -173.741092 
L 1183.272727 -172.156262 
L 1194.545455 -169.140105 
L 1205.818182 -167.169536 
L 1217.090909 -163.483268 
L 1228.363636 -159.797781 
L 1239.636364 -155.889204 
L 1250.909091 -152.426026 
L 1262.181818 -148.705376 
L 1273.454545 -147.021199 
L 1284.727273 -146.683229 
L 1296 -143.036226 
L 1296 -608.4 
L 1296 -608.4 
L 1284.727273 -603.310377 
L 1273.454545 -598.220755 
L 1262.181818 -593.131132 
L 1250.909091 -588.04151 
L 1239.636364 -582.951887 
L 1228.363636 -577.862264 
L 1217.090909 -572.772642 
L 1205.818182 -567.683019 
L 1194.545455 -562.593396 
L 1183.272727 -557.503774 
L 1172 -552.414151 
L 1160.727273 -547.324529 
L 1149.454545 -542.234906 
L 1138.181818 -537.145283 
L 1126.909091 -532.055661 
L 1115.636364 -526.966038 
L 1104.363636 -521.876416 
L 1093.090909 -516.786793 
L 1081.818182 -511.69717 
L 1070.545455 -506.607548 
L 1059.272727 -501.517925 
L 1048 -496.433417 
L 1036.727273 -491.362875 
L 1025.454545 -486.292333 
L 1014.181818 -481.22179 
L 1002.909091 -476.151248 
L 991.636364 -471.080706 
L 980.363636 -466.010163 
L 969.090909 -460.939621 
L 957.818182 -455.869079 
L 946.545455 -450.798536 
L 935.272727 -445.954568 
L 924 -441.76962 
L 912.727273 -437.584671 
L 901.454545 -433.399722 
L 890.181818 -429.214773 
L 878.909091 -425.382571 
L 867.636364 -427.560626 
L 856.363636 -423.547447 
L 845.090909 -419.534268 
L 833.818182 -415.291261 
L 822.545455 -422.070061 
L 811.272727 -428.863736 
L 800 -429.368817 
L 788.727273 -422.879099 
L 777.454545 -416.493314 
L 766.181818 -416.305284 
L 754.909091 -416.639788 
L 743.636364 -414.268923 
L 732.363636 -411.863749 
L 721.090909 -407.880921 
L 709.818182 -405.690184 
L 698.545455 -397.280937 
L 687.272727 -399.601918 
L 676 -400.786217 
L 664.727273 -405.809256 
L 653.454545 -410.734424 
L 642.181818 -414.479457 
L 630.909091 -418.224489 
L 619.636364 -421.969522 
L 608.363636 -425.714554 
L 597.090909 -429.459587 
L 585.818182 -433.204619 
L 574.545455 -436.949652 
L 563.272727 -441.38265 
L 552 -446.277611 
L 540.727273 -451.172572 
L 529.454545 -456.053909 
L 518.181818 -460.907795 
L 506.909091 -465.761681 
L 495.636364 -470.615567 
L 484.363636 -475.469453 
L 473.090909 -480.323339 
L 461.818182 -485.177225 
L 450.545455 -489.808936 
L 439.272727 -493.222603 
L 428 -496.63627 
L 416.727273 -500.049938 
L 405.454545 -503.463605 
L 394.181818 -506.877272 
L 382.909091 -510.290939 
L 371.636364 -513.704607 
L 360.363636 -517.569717 
L 349.090909 -522.081706 
L 337.818182 -526.593696 
L 326.545455 -531.105685 
L 315.272727 -535.617674 
L 304 -540.129663 
L 292.727273 -544.641653 
L 281.454545 -549.153642 
L 270.181818 -553.665631 
L 258.909091 -558.177621 
L 247.636364 -562.68961 
L 236.363636 -567.201599 
L 225.090909 -571.713589 
L 213.818182 -576.225578 
L 202.545455 -580.737567 
L 191.272727 -585.249556 
L 180 -589.761546 
z
" style="stroke: #ffffff; stroke-opacity: 0.15"/>
    </defs>
    <g clip-path="url(#p56f366e7c0)">
     <use xlink:href="#mcfe682dd75" x="0" y="720" style="fill: #4c72b0; fill-opacity: 0.15; stroke: #ffffff; stroke-opacity: 0.15"/>
    </g>
   </g>
   <g id="line2d_13">
    <path d="M 180 499.799859 
L 191.272727 499.026659 
L 202.545455 498.253458 
L 213.818182 497.480257 
L 225.090909 496.707057 
L 236.363636 495.933856 
L 247.636364 495.160655 
L 258.909091 494.387455 
L 270.181818 493.614254 
L 281.454545 492.841053 
L 292.727273 492.067853 
L 304 491.294652 
L 315.272727 490.521451 
L 326.545455 489.748251 
L 337.818182 488.97505 
L 349.090909 488.201849 
L 360.363636 487.428649 
L 371.636364 486.655448 
L 382.909091 485.882247 
L 394.181818 485.109047 
L 405.454545 484.335846 
L 416.727273 483.562645 
L 428 482.789445 
L 439.272727 482.016244 
L 450.545455 481.243043 
L 461.818182 480.469843 
L 473.090909 479.696642 
L 484.363636 478.923441 
L 495.636364 478.15024 
L 506.909091 477.37704 
L 518.181818 476.603839 
L 529.454545 475.830638 
L 540.727273 475.057438 
L 552 474.284237 
L 563.272727 473.511036 
L 574.545455 472.737836 
L 585.818182 471.964635 
L 597.090909 471.191434 
L 608.363636 470.418234 
L 619.636364 469.645033 
L 630.909091 468.871832 
L 642.181818 468.098632 
L 653.454545 467.325431 
L 664.727273 466.55223 
L 676 465.77903 
L 687.272727 465.005829 
L 698.545455 464.232628 
L 709.818182 463.459428 
L 721.090909 462.686227 
L 732.363636 461.913026 
L 743.636364 461.139826 
L 754.909091 460.366625 
L 766.181818 459.593424 
L 777.454545 458.820224 
L 788.727273 458.047023 
L 800 457.273822 
L 811.272727 456.500622 
L 822.545455 455.727421 
L 833.818182 454.95422 
L 845.090909 454.181019 
L 856.363636 453.407819 
L 867.636364 452.634618 
L 878.909091 451.861417 
L 890.181818 451.088217 
L 901.454545 450.315016 
L 912.727273 449.541815 
L 924 448.768615 
L 935.272727 447.995414 
L 946.545455 447.222213 
L 957.818182 446.449013 
L 969.090909 445.675812 
L 980.363636 444.902611 
L 991.636364 444.129411 
L 1002.909091 443.35621 
L 1014.181818 442.583009 
L 1025.454545 441.809809 
L 1036.727273 441.036608 
L 1048 440.263407 
L 1059.272727 439.490207 
L 1070.545455 438.717006 
L 1081.818182 437.943805 
L 1093.090909 437.170605 
L 1104.363636 436.397404 
L 1115.636364 435.624203 
L 1126.909091 434.851003 
L 1138.181818 434.077802 
L 1149.454545 433.304601 
L 1160.727273 432.531401 
L 1172 431.7582 
L 1183.272727 430.984999 
L 1194.545455 430.211798 
L 1205.818182 429.438598 
L 1217.090909 428.665397 
L 1228.363636 427.892196 
L 1239.636364 427.118996 
L 1250.909091 426.345795 
L 1262.181818 425.572594 
L 1273.454545 424.799394 
L 1284.727273 424.026193 
L 1296 423.252992 
" clip-path="url(#p56f366e7c0)" style="fill: none; stroke: #4c72b0; stroke-width: 2.25; stroke-linecap: round"/>
   </g>
   <g id="patch_3">
    <path d="M 180 640.8 
L 180 86.4 
" style="fill: none; stroke: #ffffff; stroke-width: 1.25; stroke-linejoin: miter; stroke-linecap: square"/>
   </g>
   <g id="patch_4">
    <path d="M 1296 640.8 
L 1296 86.4 
" style="fill: none; stroke: #ffffff; stroke-width: 1.25; stroke-linejoin: miter; stroke-linecap: square"/>
   </g>
   <g id="patch_5">
    <path d="M 180 640.8 
L 1296 640.8 
" style="fill: none; stroke: #ffffff; stroke-width: 1.25; stroke-linejoin: miter; stroke-linecap: square"/>
   </g>
   <g id="patch_6">
    <path d="M 180 86.4 
L 1296 86.4 
" style="fill: none; stroke: #ffffff; stroke-width: 1.25; stroke-linejoin: miter; stroke-linecap: square"/>
   </g>
   <g id="text_15">
    <!-- Mean Number of Peaks per Result Layer -->
    <g style="fill: #262626" transform="translate(629.289375 80.4) scale(0.12 -0.12)">
     <defs>
      <path id="ArialMT-4d" d="M 475 0 
L 475 4581 
L 1388 4581 
L 2472 1338 
Q 2622 884 2691 659 
Q 2769 909 2934 1394 
L 4031 4581 
L 4847 4581 
L 4847 0 
L 4263 0 
L 4263 3834 
L 2931 0 
L 2384 0 
L 1059 3900 
L 1059 0 
L 475 0 
z
" transform="scale(0.015625)"/>
      <path id="ArialMT-62" d="M 941 0 
L 419 0 
L 419 4581 
L 981 4581 
L 981 2947 
Q 1338 3394 1891 3394 
Q 2197 3394 2470 3270 
Q 2744 3147 2920 2923 
Q 3097 2700 3197 2384 
Q 3297 2069 3297 1709 
Q 3297 856 2875 390 
Q 2453 -75 1863 -75 
Q 1275 -75 941 416 
L 941 0 
z
M 934 1684 
Q 934 1088 1097 822 
Q 1363 388 1816 388 
Q 2184 388 2453 708 
Q 2722 1028 2722 1663 
Q 2722 2313 2464 2622 
Q 2206 2931 1841 2931 
Q 1472 2931 1203 2611 
Q 934 2291 934 1684 
z
" transform="scale(0.015625)"/>
      <path id="ArialMT-6f" d="M 213 1659 
Q 213 2581 725 3025 
Q 1153 3394 1769 3394 
Q 2453 3394 2887 2945 
Q 3322 2497 3322 1706 
Q 3322 1066 3130 698 
Q 2938 331 2570 128 
Q 2203 -75 1769 -75 
Q 1072 -75 642 372 
Q 213 819 213 1659 
z
M 791 1659 
Q 791 1022 1069 705 
Q 1347 388 1769 388 
Q 2188 388 2466 706 
Q 2744 1025 2744 1678 
Q 2744 2294 2464 2611 
Q 2184 2928 1769 2928 
Q 1347 2928 1069 2612 
Q 791 2297 791 1659 
z
" transform="scale(0.015625)"/>
      <path id="ArialMT-66" d="M 556 0 
L 556 2881 
L 59 2881 
L 59 3319 
L 556 3319 
L 556 3672 
Q 556 4006 616 4169 
Q 697 4388 901 4523 
Q 1106 4659 1475 4659 
Q 1713 4659 2000 4603 
L 1916 4113 
Q 1741 4144 1584 4144 
Q 1328 4144 1222 4034 
Q 1116 3925 1116 3625 
L 1116 3319 
L 1763 3319 
L 1763 2881 
L 1116 2881 
L 1116 0 
L 556 0 
z
" transform="scale(0.015625)"/>
      <path id="ArialMT-70" d="M 422 -1272 
L 422 3319 
L 934 3319 
L 934 2888 
Q 1116 3141 1344 3267 
Q 1572 3394 1897 3394 
Q 2322 3394 2647 3175 
Q 2972 2956 3137 2557 
Q 3303 2159 3303 1684 
Q 3303 1175 3120 767 
Q 2938 359 2589 142 
Q 2241 -75 1856 -75 
Q 1575 -75 1351 44 
Q 1128 163 984 344 
L 984 -1272 
L 422 -1272 
z
M 931 1641 
Q 931 1000 1190 694 
Q 1450 388 1819 388 
Q 2194 388 2461 705 
Q 2728 1022 2728 1688 
Q 2728 2322 2467 2637 
Q 2206 2953 1844 2953 
Q 1484 2953 1207 2617 
Q 931 2281 931 1641 
z
" transform="scale(0.015625)"/>
     </defs>
     <use xlink:href="#ArialMT-4d"/>
     <use xlink:href="#ArialMT-65" x="83.300781"/>
     <use xlink:href="#ArialMT-61" x="138.916016"/>
     <use xlink:href="#ArialMT-6e" x="194.53125"/>
     <use xlink:href="#ArialMT-20" x="250.146484"/>
     <use xlink:href="#ArialMT-4e" x="277.929688"/>
     <use xlink:href="#ArialMT-75" x="350.146484"/>
     <use xlink:href="#ArialMT-6d" x="405.761719"/>
     <use xlink:href="#ArialMT-62" x="489.0625"/>
     <use xlink:href="#ArialMT-65" x="544.677734"/>
     <use xlink:href="#ArialMT-72" x="600.292969"/>
     <use xlink:href="#ArialMT-20" x="633.59375"/>
     <use xlink:href="#ArialMT-6f" x="661.376953"/>
     <use xlink:href="#ArialMT-66" x="716.992188"/>
     <use xlink:href="#ArialMT-20" x="744.775391"/>
     <use xlink:href="#ArialMT-50" x="772.558594"/>
     <use xlink:href="#ArialMT-65" x="839.257812"/>
     <use xlink:href="#ArialMT-61" x="894.873047"/>
     <use xlink:href="#ArialMT-6b" x="950.488281"/>
     <use xlink:href="#ArialMT-73" x="1000.488281"/>
     <use xlink:href="#ArialMT-20" x="1050.488281"/>
     <use xlink:href="#ArialMT-70" x="1078.271484"/>
     <use xlink:href="#ArialMT-65" x="1133.886719"/>
     <use xlink:href="#ArialMT-72" x="1189.501953"/>
     <use xlink:href="#ArialMT-20" x="1222.802734"/>
     <use xlink:href="#ArialMT-52" x="1250.585938"/>
     <use xlink:href="#ArialMT-65" x="1322.802734"/>
     <use xlink:href="#ArialMT-73" x="1378.417969"/>
     <use xlink:href="#ArialMT-75" x="1428.417969"/>
     <use xlink:href="#ArialMT-6c" x="1484.033203"/>
     <use xlink:href="#ArialMT-74" x="1506.25"/>
     <use xlink:href="#ArialMT-20" x="1534.033203"/>
     <use xlink:href="#ArialMT-4c" x="1561.816406"/>
     <use xlink:href="#ArialMT-61" x="1617.431641"/>
     <use xlink:href="#ArialMT-79" x="1673.046875"/>
     <use xlink:href="#ArialMT-65" x="1723.046875"/>
     <use xlink:href="#ArialMT-72" x="1778.662109"/>
    </g>
   </g>
   <g id="legend_1">
    <g id="patch_7">
     <path d="M 187.7 110.759844 
L 246.128906 110.759844 
Q 248.328906 110.759844 248.328906 108.559844 
L 248.328906 94.1 
Q 248.328906 91.9 246.128906 91.9 
L 187.7 91.9 
Q 185.5 91.9 185.5 94.1 
L 185.5 108.559844 
Q 185.5 110.759844 187.7 110.759844 
z
" style="fill: #eaeaf2; opacity: 0.8; stroke: #cccccc; stroke-linejoin: miter"/>
    </g>
    <g id="PathCollection_2">
     <g>
      <use xlink:href="#m5210e3449b" x="200.9" y="101.286094" style="fill: #4c72b0; fill-opacity: 0.8; stroke: #4c72b0; stroke-opacity: 0.8"/>
     </g>
    </g>
    <g id="text_16">
     <!-- Total -->
     <g style="fill: #262626" transform="translate(220.7 104.173594) scale(0.11 -0.11)">
      <defs>
       <path id="ArialMT-54" d="M 1659 0 
L 1659 4041 
L 150 4041 
L 150 4581 
L 3781 4581 
L 3781 4041 
L 2266 4041 
L 2266 0 
L 1659 0 
z
" transform="scale(0.015625)"/>
      </defs>
      <use xlink:href="#ArialMT-54"/>
      <use xlink:href="#ArialMT-6f" x="49.958984"/>
      <use xlink:href="#ArialMT-74" x="105.574219"/>
      <use xlink:href="#ArialMT-61" x="133.357422"/>
      <use xlink:href="#ArialMT-6c" x="188.972656"/>
     </g>
    </g>
   </g>
  </g>
 </g>
 <defs>
  <clipPath id="p56f366e7c0">
   <rect x="180" y="86.4" width="1116" height="554.4"/>
  </clipPath>
 </defs>
</svg>
